M48
;Layer_Color=9474304
;FILE_FORMAT=2:5
INCH,LZ
;TYPE=PLATED
T01F00S00C0.01181
T02F00S00C0.01968
T04F00S00C0.03543
T05F00S00C0.05906
;TYPE=NON_PLATED
T06F00S00C0.02756
%
T01
X0005512Y-0230512
X0017196
X002888
X0040564
X0052248
X0063932
X0075616
X00873
X0084055Y-0201969
X0076772Y-0206299
X006752Y-0206496
X0070472Y-0196063
X0076772Y-0189075
X0084055Y-0183465
Y-0164764
X0076772Y-017185
X0067716Y-0175689
Y-0158514
X0076772Y-0154626
X0084449Y-0147244
X0088386Y-0145669
X0076772Y-0137795
X0067716Y-0141339
X009941Y-0141142
X0102756Y-0144095
X0118551Y-0144095
X0127362Y-0145276
X0131201Y-0132579
Y-0128937
Y-0125197
Y-0121555
Y-0117913
X0102756Y-0125197
X009941Y-0160039
X0102756Y-0163976
X0118551Y-0162992
X0127362Y-016437
Y-0182874
X0118551Y-0182165
X0102362Y-018248
X009941Y-0179134
X0099606Y-0198228
X0102559Y-0201181
X0100787Y-0211417
X0112795Y-0216779
X0110668Y-0230512
X0122352
X0134036
X014572
X0157404
X0169088
X0180772
X0192456
X020414
X0215824
X0227508
X0239192
X0250876
X0245066Y-0179724
X0239062Y-0179823
X0233046Y-0180118
X0243602Y-0165059
X0248524
X0248622Y-0137795
X0248964Y-0134268
X023061Y-0146949
X0230807Y-0152165
X023394Y-0150509
X021939Y-0149016
X0200295Y-0156988
X0186339Y-0153957
X0175197Y-0162697
X0172542Y-0160138
X0170276Y-0166732
X0165157
X015876Y-0172441
X0184449Y-0172933
Y-0178051
X0193799Y-0195571
X0208268Y-0195866
X0153544Y-020766
X0148544
X0143544
X0138544
X0127362Y-0207087
X0112303Y-0198228
X0098984Y-0230512
X0143405Y-0153937
X0164075Y-0131102
X0176575Y-0121063
X0204134Y-0127067
X0216437Y-0121161
X0226279Y-0125492
X0262106Y-013002
X0262303Y-0135835
X0276378Y-0137008
X0276181Y-0130118
X0292618Y-0132382
X0286221Y-0144291
X0282677
X0269291Y-0148917
X0270669Y-0162795
X0270866Y-0166634
X0274705Y-0166732
X0274705Y-0177756
X0278248
X0272047Y-0193996
X0268307Y-0206398
X0264862Y-0206594
X0262402Y-0212205
X0254134Y-0216535
X026256Y-0230512
X0274244
X0285928
X0297612
X0309296
X032098
X0332664
X0344348
X0356032
X0367716
X0342815Y-0207283
X0333858Y-0213071
X0333661Y-0189764
X0342618Y-0177559
X032874Y-0157579
X0317126Y-0156398
X0298256Y-0165327
X0309547Y-0187992
X0296654Y-021811
X0280118Y-0208465
Y-0205512
X0257087Y-0179823
X0251083Y-0179724
X0252658Y-0165059
X0317717Y-0121752
X0302067Y-0116043
X0306299Y-0099213
X028691Y-0099311
Y-0091831
X0286947Y-0084214
X0297638Y-0077264
X0307677Y-0080905
X0332185Y-0087205
X0332874Y-0100886
X0332283Y-002874
X0332664Y-0005709
X032098
X0309296
X0297612
X0285928
X0274244
X026256
X0297441Y-0018701
X0311713
X0311614Y-0047441
X0297933Y-0047343
X0282776Y-003878
X0344348Y-0005709
X0356032
X0367716
X0250876
X0239192
X0227508
X0215824
X020414
X0192456
X0180772
X0169088
X0157404
X014572
X0134036
X0122352
X0110668
X0098984
X0118898Y-0022
Y-0044195
X0123917Y-0044193
X0125Y-0060236
Y-0070079
X0118898Y-006639
X0134941Y-0065945
X0131595Y-008435
X0125886Y-0095276
X0118898Y-0088585
X0118701Y-0106988
X0126181Y-0114764
X0144488Y-0110039
X0152223Y-0111565
X0156466Y-0111568
X0161324Y-0096645
X0163189Y-0088779
X0163264Y-0085237
X0173622Y-0083858
Y-008002
X0173031Y-0089173
X0175394Y-009311
X0177362Y-0096653
X0175492Y-01
X0179382Y-0100022
X0183661Y-0100047
X0184252Y-0096553
X0188285Y-0096535
X0192794Y-0096533
X0190845Y-0099491
X0197736Y-0092913
X0195177Y-0089567
X0208858Y-009311
X0209154Y-0081595
X020561
X020315Y-0071653
X0199606Y-0071653
X0198524Y-0065354
X019498
X0204035
X020876Y-0068898
Y-0054626
X0193898Y-0055118
X0189064Y-0055107
X0184843Y-0055216
X0184744Y-0048031
X0176378Y-005315
X0178347Y-0064468
X0174409Y-006939
X0156988Y-0056004
Y-0050394
X0176279Y-0037598
X0188583
X0193898Y-00375
X0203248Y-0043701
X0218898Y-0029134
X0225394Y-005502
X0226969Y-0088728
Y-0093602
X0216865Y-0102131
X0208169Y-0110827
X0204035
X0184153Y-0110925
X0180315
X0176378
X0146555Y-001939
X00873Y-0005709
X0075616
X0063932
X0052248
X0040564
X002888
X0017196
X0005512
T02
X0043701Y-0119095
X004685Y-012185
X0047638Y-0113386
X0046457Y-0109843
X0046949Y-0098917
X0043701Y-009626
X0044882Y-0087303
X0048819
X0045276Y-0076575
X0042323Y-0073819
X0043701Y-0063779
X0047638
X004685Y-0054134
X0042913
X0043504Y-0044094
X0047441
X0047835Y-0030512
X0043898
Y-0020669
X0047835
T04
X0259409Y-0111713
X0269409
X024941
X0239409
X022941
X0217736Y-0021457
X0207736
X0197736
X0187736
X0177736
T05
X0019685Y-0193898
X0029528
Y-0180118
X0019685
Y-0166339
X0029528
Y-0152559
X0019685
Y-0138779
X0029528
Y-0125
X0019685
X034498Y-0120472
X0354823
Y-0134252
X034498
Y-0106693
X0354823
Y-0092913
X034498
Y-0079134
X0354823
Y-0065354
X034498
Y-0051575
X0354823
Y-0037795
X034498
X0029528Y-0042323
X0019685
Y-0056102
X0029528
Y-0069882
X0019685
Y-0083661
X0029528
Y-0097441
X0019685Y-0097441
Y-0111221
X0029528
T06
X0353543Y-0203405
Y-018065
M30
