G04*
G04 #@! TF.GenerationSoftware,Altium Limited,Altium Designer,24.4.1 (13)*
G04*
G04 Layer_Color=32896*
%FSLAX25Y25*%
%MOIN*%
G70*
G04*
G04 #@! TF.SameCoordinates,A9874F04-4083-4E43-9FC9-20C7E77B936A*
G04*
G04*
G04 #@! TF.FilePolarity,Positive*
G04*
G01*
G75*
%ADD10C,0.01000*%
%ADD20C,0.00100*%
%ADD21C,0.00709*%
%ADD22R,3.74016X0.11811*%
%ADD131C,0.00472*%
G36*
X285712Y-63046D02*
X286088Y-63068D01*
X286454Y-63111D01*
X286809Y-63165D01*
X287143Y-63219D01*
X287465Y-63283D01*
X287767Y-63359D01*
X288047Y-63434D01*
X288305Y-63509D01*
X288531Y-63585D01*
X288735Y-63649D01*
X288896Y-63703D01*
X289036Y-63757D01*
X289133Y-63800D01*
X289198Y-63821D01*
X289209Y-63832D01*
X289219D01*
X289553Y-63983D01*
X289886Y-64155D01*
X290198Y-64327D01*
X290489Y-64499D01*
X290779Y-64682D01*
X291038Y-64865D01*
X291285Y-65037D01*
X291511Y-65209D01*
X291716Y-65371D01*
X291898Y-65521D01*
X292060Y-65650D01*
X292189Y-65769D01*
X292297Y-65866D01*
X292372Y-65930D01*
X292415Y-65984D01*
X292437Y-65995D01*
X292684Y-66253D01*
X292921Y-66522D01*
X293147Y-66791D01*
X293351Y-67071D01*
X293545Y-67340D01*
X293728Y-67598D01*
X293889Y-67856D01*
X294029Y-68104D01*
X294169Y-68330D01*
X294276Y-68534D01*
X294373Y-68717D01*
X294459Y-68878D01*
X294513Y-69008D01*
X294567Y-69094D01*
X294588Y-69158D01*
X294599Y-69180D01*
X294739Y-69524D01*
X294858Y-69868D01*
X294954Y-70213D01*
X295051Y-70557D01*
X295127Y-70890D01*
X295180Y-71213D01*
X295234Y-71525D01*
X295277Y-71816D01*
X295309Y-72085D01*
X295331Y-72332D01*
X295353Y-72548D01*
X295363Y-72730D01*
Y-72881D01*
X295374Y-72989D01*
Y-73032D01*
Y-73064D01*
Y-73075D01*
Y-73086D01*
X295363Y-73462D01*
X295342Y-73839D01*
X295299Y-74205D01*
X295256Y-74560D01*
X295191Y-74893D01*
X295127Y-75216D01*
X295062Y-75517D01*
X294987Y-75797D01*
X294911Y-76055D01*
X294847Y-76281D01*
X294782Y-76486D01*
X294718Y-76647D01*
X294675Y-76787D01*
X294632Y-76884D01*
X294610Y-76948D01*
X294599Y-76959D01*
Y-76970D01*
X294449Y-77303D01*
X294276Y-77637D01*
X294104Y-77949D01*
X293932Y-78240D01*
X293749Y-78530D01*
X293566Y-78788D01*
X293394Y-79036D01*
X293222Y-79262D01*
X293061Y-79466D01*
X292910Y-79649D01*
X292781Y-79811D01*
X292663Y-79940D01*
X292566Y-80047D01*
X292501Y-80123D01*
X292447Y-80166D01*
X292437Y-80187D01*
X292167Y-80435D01*
X291898Y-80682D01*
X291630Y-80897D01*
X291350Y-81112D01*
X291081Y-81306D01*
X290812Y-81478D01*
X290553Y-81640D01*
X290317Y-81790D01*
X290091Y-81920D01*
X289876Y-82027D01*
X289693Y-82124D01*
X289531Y-82210D01*
X289402Y-82264D01*
X289305Y-82318D01*
X289252Y-82339D01*
X289230Y-82350D01*
X288886Y-82490D01*
X288541Y-82608D01*
X288197Y-82705D01*
X287853Y-82802D01*
X287519Y-82877D01*
X287196Y-82931D01*
X286895Y-82985D01*
X286605Y-83028D01*
X286336Y-83060D01*
X286088Y-83082D01*
X285873Y-83103D01*
X285690Y-83114D01*
X285539D01*
X285432Y-83125D01*
X285335D01*
X284948Y-83114D01*
X284582Y-83092D01*
X284216Y-83049D01*
X283861Y-83006D01*
X283517Y-82942D01*
X283194Y-82877D01*
X282892Y-82813D01*
X282613Y-82737D01*
X282354Y-82662D01*
X282118Y-82597D01*
X281924Y-82533D01*
X281752Y-82468D01*
X281612Y-82425D01*
X281515Y-82382D01*
X281451Y-82361D01*
X281429Y-82350D01*
X281085Y-82199D01*
X280762Y-82038D01*
X280450Y-81866D01*
X280149Y-81683D01*
X279869Y-81500D01*
X279600Y-81328D01*
X279352Y-81145D01*
X279126Y-80973D01*
X278933Y-80811D01*
X278750Y-80671D01*
X278588Y-80532D01*
X278459Y-80413D01*
X278362Y-80316D01*
X278287Y-80252D01*
X278233Y-80198D01*
X278223Y-80187D01*
X277975Y-79918D01*
X277738Y-79649D01*
X277523Y-79380D01*
X277319Y-79100D01*
X277125Y-78831D01*
X276953Y-78562D01*
X276792Y-78304D01*
X276641Y-78067D01*
X276512Y-77842D01*
X276404Y-77626D01*
X276307Y-77443D01*
X276221Y-77282D01*
X276167Y-77153D01*
X276114Y-77056D01*
X276092Y-77002D01*
X276081Y-76981D01*
X275941Y-76636D01*
X275823Y-76292D01*
X275715Y-75948D01*
X275619Y-75603D01*
X275543Y-75270D01*
X275479Y-74947D01*
X275425Y-74646D01*
X275382Y-74355D01*
X275350Y-74086D01*
X275328Y-73839D01*
X275307Y-73624D01*
X275296Y-73441D01*
X275285Y-73290D01*
Y-73182D01*
Y-73139D01*
Y-73107D01*
Y-73096D01*
Y-73086D01*
X275296Y-72698D01*
X275317Y-72322D01*
X275360Y-71945D01*
X275414Y-71590D01*
X275468Y-71256D01*
X275533Y-70934D01*
X275608Y-70632D01*
X275683Y-70353D01*
X275759Y-70094D01*
X275834Y-69868D01*
X275898Y-69664D01*
X275952Y-69492D01*
X276006Y-69363D01*
X276049Y-69266D01*
X276071Y-69201D01*
X276081Y-69180D01*
X276232Y-68846D01*
X276393Y-68523D01*
X276566Y-68211D01*
X276748Y-67910D01*
X276921Y-67630D01*
X277103Y-67372D01*
X277276Y-67124D01*
X277448Y-66909D01*
X277609Y-66705D01*
X277749Y-66522D01*
X277889Y-66371D01*
X277997Y-66232D01*
X278093Y-66135D01*
X278158Y-66059D01*
X278212Y-66005D01*
X278223Y-65995D01*
X278481Y-65747D01*
X278750Y-65511D01*
X279019Y-65285D01*
X279299Y-65080D01*
X279568Y-64886D01*
X279826Y-64704D01*
X280084Y-64542D01*
X280331Y-64391D01*
X280557Y-64262D01*
X280762Y-64155D01*
X280945Y-64058D01*
X281106Y-63972D01*
X281235Y-63918D01*
X281332Y-63864D01*
X281397Y-63843D01*
X281407Y-63832D01*
X281418D01*
X281763Y-63692D01*
X282107Y-63574D01*
X282462Y-63466D01*
X282806Y-63369D01*
X283140Y-63294D01*
X283463Y-63229D01*
X283775Y-63176D01*
X284065Y-63133D01*
X284334Y-63100D01*
X284582Y-63079D01*
X284797Y-63057D01*
X284980Y-63046D01*
X285131Y-63036D01*
X285335D01*
X285712Y-63046D01*
D02*
G37*
G36*
X269783Y-61655D02*
X265072Y-66754D01*
X264602Y-72756D01*
X269627Y-77891D01*
X269341Y-78150D01*
X264556Y-73254D01*
X264463Y-74379D01*
X264445Y-74545D01*
X264436Y-74692D01*
X264427Y-74830D01*
X264417Y-74950D01*
Y-75052D01*
X264408Y-75135D01*
Y-75181D01*
Y-75199D01*
X264399Y-75328D01*
X264390Y-75420D01*
Y-75503D01*
X264381Y-75550D01*
Y-75586D01*
X264371Y-75614D01*
Y-75623D01*
X264362Y-75716D01*
X264325Y-75780D01*
X264298Y-75817D01*
X264288Y-75826D01*
X264233Y-75854D01*
X264205Y-75872D01*
X264187Y-75881D01*
X264178D01*
Y-76508D01*
X263357D01*
Y-75881D01*
X259983D01*
X259909Y-75992D01*
X259826Y-76094D01*
X259734Y-76186D01*
X259642Y-76259D01*
X259540Y-76324D01*
X259439Y-76379D01*
X259346Y-76416D01*
X259254Y-76453D01*
X259079Y-76499D01*
X258996Y-76518D01*
X258931Y-76527D01*
X258876Y-76536D01*
X258802D01*
X258600Y-76518D01*
X258415Y-76472D01*
X258249Y-76416D01*
X258111Y-76342D01*
X258000Y-76269D01*
X257917Y-76213D01*
X257862Y-76167D01*
X257844Y-76149D01*
X257770Y-76075D01*
X257715Y-75992D01*
X257613Y-75835D01*
X257539Y-75669D01*
X257493Y-75513D01*
X257466Y-75374D01*
X257456Y-75273D01*
X257447Y-75227D01*
Y-75199D01*
Y-75181D01*
Y-75172D01*
Y-75006D01*
X254487Y-78214D01*
X254165Y-77947D01*
X258498Y-73254D01*
X257917Y-67058D01*
X256792D01*
Y-65389D01*
X256839D01*
X253224Y-61710D01*
Y-61120D01*
X257419Y-65389D01*
X257770D01*
X257705Y-64596D01*
X257595Y-64652D01*
X257502Y-64679D01*
X257456D01*
X257429Y-64688D01*
X257401D01*
X257300Y-64679D01*
X257207Y-64661D01*
X257124Y-64633D01*
X257060Y-64596D01*
X257004Y-64559D01*
X256968Y-64532D01*
X256940Y-64513D01*
X256931Y-64504D01*
X256866Y-64430D01*
X256820Y-64347D01*
X256792Y-64274D01*
X256765Y-64209D01*
X256756Y-64144D01*
X256746Y-64098D01*
Y-64061D01*
Y-64052D01*
X256756Y-63960D01*
X256774Y-63877D01*
X256811Y-63794D01*
X256848Y-63730D01*
X256885Y-63683D01*
X256922Y-63647D01*
X256940Y-63619D01*
X256949Y-63610D01*
X257023Y-63545D01*
X257097Y-63499D01*
X257180Y-63462D01*
X257244Y-63444D01*
X257309Y-63425D01*
X257355Y-63416D01*
X257401D01*
X257512Y-63434D01*
X257613Y-63471D01*
X257705Y-63517D01*
X257779Y-63573D01*
X257834Y-63619D01*
X257880Y-63665D01*
X257908Y-63693D01*
X257917Y-63702D01*
X258010Y-63600D01*
X258111Y-63508D01*
X258231Y-63425D01*
X258341Y-63342D01*
X258443Y-63278D01*
X258526Y-63222D01*
X258590Y-63186D01*
X258600Y-63176D01*
X258609D01*
X258701Y-63130D01*
X258812Y-63084D01*
X259042Y-63001D01*
X259282Y-62927D01*
X259522Y-62881D01*
X259632Y-62854D01*
X259734Y-62835D01*
X259835Y-62826D01*
X259909Y-62808D01*
X259983Y-62798D01*
X260029D01*
X260066Y-62789D01*
X260075D01*
Y-62577D01*
X262352D01*
Y-62715D01*
X262481Y-62725D01*
X262601Y-62734D01*
X262721Y-62743D01*
X262822Y-62761D01*
X262905Y-62771D01*
X262970Y-62780D01*
X263007Y-62789D01*
X263025D01*
X263136Y-62808D01*
X263246Y-62826D01*
X263348Y-62835D01*
X263431Y-62854D01*
X263495Y-62863D01*
X263551Y-62872D01*
X263588Y-62881D01*
X263597D01*
Y-62808D01*
X264436D01*
Y-63139D01*
X264546Y-63195D01*
X264648Y-63250D01*
X264731Y-63305D01*
X264814Y-63361D01*
X264952Y-63462D01*
X265054Y-63554D01*
X265127Y-63637D01*
X265174Y-63693D01*
X265201Y-63730D01*
X265210Y-63748D01*
X265266Y-63849D01*
X265312Y-63932D01*
X265349Y-63988D01*
X265367Y-64034D01*
X265386Y-64071D01*
X265395Y-64089D01*
X265404Y-64098D01*
X265893D01*
Y-64615D01*
X265256D01*
X265118Y-66044D01*
X269783Y-61000D01*
Y-61655D01*
D02*
G37*
G36*
X269203Y-83986D02*
X254699D01*
Y-81828D01*
X269203D01*
Y-83986D01*
D02*
G37*
%LPC*%
G36*
X291737Y-66070D02*
X291119Y-66688D01*
X291221Y-66780D01*
X291447Y-66995D01*
X291457Y-67006D01*
X291500Y-67049D01*
X291554Y-67114D01*
X291640Y-67200D01*
X291707Y-67274D01*
X292307Y-66673D01*
X291737Y-66070D01*
D02*
G37*
G36*
X290069Y-69879D02*
X289109D01*
X287340Y-71652D01*
X287347Y-71687D01*
X287379Y-71773D01*
X287412Y-71827D01*
X287422Y-71870D01*
X287433Y-71881D01*
X287519Y-71988D01*
X287605Y-72085D01*
X287702Y-72171D01*
X287777Y-72236D01*
X287853Y-72279D01*
X287907Y-72311D01*
X287950Y-72332D01*
X287960Y-72343D01*
X288014Y-72365D01*
X288089Y-72386D01*
X288165Y-72408D01*
X288262Y-72418D01*
X288466Y-72451D01*
X288681Y-72461D01*
X288886Y-72472D01*
X288972Y-72483D01*
X290069D01*
Y-69879D01*
D02*
G37*
G36*
X281881Y-72096D02*
X281720D01*
X281623Y-72117D01*
X281440Y-72171D01*
X281289Y-72246D01*
X281171Y-72322D01*
X281074Y-72408D01*
X280999Y-72483D01*
X280956Y-72537D01*
X280945Y-72548D01*
Y-72558D01*
X280880Y-72655D01*
X280816Y-72774D01*
X280730Y-73032D01*
X280665Y-73301D01*
X280611Y-73581D01*
X280601Y-73710D01*
X280590Y-73828D01*
X280579Y-73936D01*
Y-74032D01*
X280568Y-74119D01*
Y-74172D01*
Y-74215D01*
Y-74226D01*
X280579Y-74431D01*
X280590Y-74624D01*
X280611Y-74796D01*
X280633Y-74958D01*
X280665Y-75108D01*
X280697Y-75238D01*
X280730Y-75356D01*
X280762Y-75453D01*
X280794Y-75539D01*
X280826Y-75614D01*
X280859Y-75679D01*
X280891Y-75733D01*
X280913Y-75765D01*
X280934Y-75797D01*
X280945Y-75808D01*
Y-75819D01*
X281009Y-75905D01*
X281085Y-75980D01*
X281225Y-76109D01*
X281364Y-76195D01*
X281494Y-76249D01*
X281540Y-76267D01*
X283085Y-74723D01*
X283097Y-74624D01*
X283118Y-74506D01*
Y-74398D01*
X283129Y-74301D01*
X283140Y-74215D01*
Y-74140D01*
Y-74086D01*
Y-74054D01*
Y-74043D01*
Y-73860D01*
X283118Y-73699D01*
X283097Y-73537D01*
X283075Y-73398D01*
X283043Y-73258D01*
X283011Y-73139D01*
X282979Y-73032D01*
X282935Y-72924D01*
X282892Y-72838D01*
X282860Y-72763D01*
X282828Y-72698D01*
X282796Y-72655D01*
X282763Y-72612D01*
X282752Y-72580D01*
X282731Y-72569D01*
Y-72558D01*
X282677Y-72472D01*
X282613Y-72408D01*
X282473Y-72289D01*
X282322Y-72203D01*
X282172Y-72149D01*
X282042Y-72117D01*
X281924Y-72106D01*
X281881Y-72096D01*
D02*
G37*
G36*
X285507Y-64456D02*
X285335D01*
X285001Y-64467D01*
X284679Y-64488D01*
X284356Y-64521D01*
X284054Y-64564D01*
X283764Y-64618D01*
X283484Y-64671D01*
X283226Y-64736D01*
X282979Y-64800D01*
X282763Y-64865D01*
X282559Y-64929D01*
X282387Y-64983D01*
X282247Y-65037D01*
X282129Y-65080D01*
X282042Y-65112D01*
X281989Y-65134D01*
X281967Y-65145D01*
X281677Y-65274D01*
X281397Y-65414D01*
X281117Y-65564D01*
X280870Y-65715D01*
X280622Y-65876D01*
X280396Y-66027D01*
X280192Y-66178D01*
X279998Y-66328D01*
X279826Y-66457D01*
X279675Y-66587D01*
X279535Y-66705D01*
X279428Y-66802D01*
X279342Y-66877D01*
X279277Y-66942D01*
X279234Y-66985D01*
X279223Y-66995D01*
X279008Y-67221D01*
X278814Y-67447D01*
X278631Y-67684D01*
X278449Y-67910D01*
X278287Y-68147D01*
X278136Y-68373D01*
X277997Y-68588D01*
X277878Y-68792D01*
X277771Y-68997D01*
X277674Y-69169D01*
X277588Y-69330D01*
X277512Y-69459D01*
X277459Y-69578D01*
X277426Y-69653D01*
X277405Y-69707D01*
X277394Y-69728D01*
X277276Y-70030D01*
X277168Y-70320D01*
X277071Y-70622D01*
X276996Y-70912D01*
X276931Y-71203D01*
X276878Y-71482D01*
X276824Y-71751D01*
X276792Y-71999D01*
X276759Y-72225D01*
X276738Y-72440D01*
X276727Y-72623D01*
X276716Y-72784D01*
X276705Y-72913D01*
Y-73010D01*
Y-73064D01*
Y-73086D01*
X276716Y-73419D01*
X276738Y-73742D01*
X276770Y-74054D01*
X276813Y-74355D01*
X276867Y-74657D01*
X276921Y-74936D01*
X276985Y-75195D01*
X277050Y-75431D01*
X277114Y-75657D01*
X277179Y-75851D01*
X277233Y-76034D01*
X277287Y-76174D01*
X277329Y-76292D01*
X277362Y-76378D01*
X277383Y-76432D01*
X277394Y-76454D01*
X277523Y-76744D01*
X277663Y-77024D01*
X277814Y-77293D01*
X277964Y-77551D01*
X278115Y-77788D01*
X278266Y-78024D01*
X278416Y-78229D01*
X278567Y-78423D01*
X278696Y-78595D01*
X278825Y-78756D01*
X278928Y-78879D01*
X280396Y-77411D01*
X280331Y-77368D01*
X280213Y-77282D01*
X280106Y-77196D01*
X280019Y-77110D01*
X279933Y-77034D01*
X279869Y-76959D01*
X279815Y-76895D01*
X279772Y-76852D01*
X279750Y-76819D01*
X279740Y-76809D01*
X279611Y-76626D01*
X279503Y-76421D01*
X279406Y-76217D01*
X279331Y-76002D01*
X279256Y-75776D01*
X279202Y-75560D01*
X279159Y-75334D01*
X279116Y-75130D01*
X279083Y-74926D01*
X279062Y-74743D01*
X279051Y-74581D01*
X279040Y-74431D01*
X279030Y-74312D01*
Y-74226D01*
Y-74172D01*
Y-74151D01*
X279040Y-73839D01*
X279062Y-73548D01*
X279094Y-73279D01*
X279137Y-73032D01*
X279191Y-72806D01*
X279245Y-72591D01*
X279309Y-72397D01*
X279374Y-72225D01*
X279438Y-72074D01*
X279503Y-71945D01*
X279557Y-71837D01*
X279611Y-71741D01*
X279654Y-71665D01*
X279686Y-71622D01*
X279708Y-71590D01*
X279718Y-71579D01*
X279847Y-71429D01*
X279977Y-71289D01*
X280116Y-71170D01*
X280256Y-71074D01*
X280407Y-70987D01*
X280547Y-70912D01*
X280687Y-70858D01*
X280816Y-70805D01*
X280934Y-70772D01*
X281052Y-70740D01*
X281160Y-70718D01*
X281246Y-70708D01*
X281322D01*
X281375Y-70697D01*
X281418D01*
X281591Y-70708D01*
X281763Y-70729D01*
X281924Y-70772D01*
X282085Y-70837D01*
X282225Y-70901D01*
X282365Y-70987D01*
X282494Y-71074D01*
X282613Y-71160D01*
X282720Y-71246D01*
X282806Y-71332D01*
X282892Y-71407D01*
X282957Y-71482D01*
X283011Y-71547D01*
X283054Y-71590D01*
X283075Y-71622D01*
X283086Y-71633D01*
Y-68287D01*
X284593D01*
Y-73215D01*
X285754Y-72053D01*
X285765Y-72117D01*
X285819Y-72365D01*
X285905Y-72591D01*
Y-72601D01*
X285916Y-72612D01*
X285948Y-72677D01*
X286002Y-72784D01*
X286077Y-72913D01*
X286079Y-72916D01*
X287340Y-71652D01*
X287326Y-71579D01*
X287293Y-71461D01*
X287282Y-71321D01*
X287272Y-71160D01*
Y-71138D01*
Y-71084D01*
X287282Y-70998D01*
X287304Y-70890D01*
X287326Y-70761D01*
X287369Y-70622D01*
X287422Y-70471D01*
X287498Y-70320D01*
X287508Y-70310D01*
X287541Y-70266D01*
X287595Y-70223D01*
X287670Y-70159D01*
X287767Y-70094D01*
X287885Y-70030D01*
X288014Y-69976D01*
X288176Y-69933D01*
X288186D01*
X288197Y-69922D01*
X288229Y-69911D01*
X288283Y-69901D01*
X288337D01*
X288412Y-69890D01*
X288498Y-69879D01*
X289109D01*
X290697Y-68287D01*
X291651D01*
Y-77573D01*
X290069D01*
Y-74043D01*
X288843D01*
X288638Y-74032D01*
X288455D01*
X288283Y-74022D01*
X288133Y-74011D01*
X287993Y-74000D01*
X287874Y-73989D01*
X287767Y-73979D01*
X287670Y-73968D01*
X287595Y-73957D01*
X287530D01*
X287476Y-73946D01*
X287433Y-73936D01*
X287401Y-73925D01*
X287379D01*
X287207Y-73871D01*
X287046Y-73807D01*
X286906Y-73731D01*
X286788Y-73656D01*
X286691Y-73591D01*
X286626Y-73548D01*
X286572Y-73505D01*
X286562Y-73494D01*
X286411Y-73355D01*
X286282Y-73204D01*
X286174Y-73053D01*
X286079Y-72916D01*
X284593Y-74406D01*
Y-77573D01*
X283194D01*
Y-76583D01*
X283043Y-76787D01*
X282903Y-76959D01*
X282763Y-77110D01*
X282634Y-77228D01*
X282537Y-77314D01*
X282451Y-77379D01*
X282397Y-77422D01*
X282376Y-77433D01*
X282193Y-77530D01*
X282010Y-77605D01*
X281849Y-77659D01*
X281698Y-77691D01*
X281569Y-77712D01*
X281472Y-77734D01*
X281386D01*
X281279Y-77727D01*
X284593Y-74406D01*
Y-73215D01*
X283085Y-74723D01*
X283065Y-74883D01*
X283011Y-75141D01*
X282935Y-75399D01*
X282892Y-75517D01*
X282839Y-75625D01*
Y-75636D01*
X282817Y-75657D01*
X282796Y-75690D01*
X282774Y-75743D01*
X282688Y-75862D01*
X282570Y-75991D01*
X282419Y-76120D01*
X282236Y-76227D01*
X282139Y-76271D01*
X282021Y-76303D01*
X281903Y-76314D01*
X281752D01*
X281698Y-76303D01*
X281601Y-76292D01*
X281540Y-76267D01*
X280396Y-77411D01*
X280461Y-77454D01*
X280590Y-77530D01*
X280740Y-77605D01*
X280891Y-77659D01*
X281052Y-77702D01*
X281214Y-77723D01*
X281279Y-77727D01*
X279521Y-79490D01*
X279438Y-79423D01*
X279223Y-79208D01*
X279212Y-79197D01*
X279170Y-79154D01*
X279116Y-79090D01*
X279030Y-79004D01*
X278933Y-78885D01*
X278928Y-78879D01*
X278319Y-79488D01*
X278922Y-80090D01*
X279521Y-79490D01*
X279675Y-79617D01*
X279901Y-79811D01*
X280138Y-79983D01*
X280375Y-80144D01*
X280601Y-80295D01*
X280816Y-80435D01*
X281031Y-80553D01*
X281225Y-80671D01*
X281397Y-80768D01*
X281558Y-80844D01*
X281698Y-80919D01*
X281816Y-80973D01*
X281892Y-81005D01*
X281945Y-81027D01*
X281967Y-81037D01*
X282268Y-81156D01*
X282570Y-81252D01*
X282860Y-81349D01*
X283161Y-81425D01*
X283452Y-81489D01*
X283732Y-81543D01*
X283990Y-81586D01*
X284248Y-81618D01*
X284474Y-81651D01*
X284689Y-81672D01*
X284872Y-81683D01*
X285034Y-81694D01*
X285163Y-81704D01*
X285335D01*
X285668Y-81694D01*
X285991Y-81672D01*
X286303Y-81640D01*
X286605Y-81597D01*
X286906Y-81554D01*
X287186Y-81489D01*
X287444Y-81435D01*
X287681Y-81371D01*
X287907Y-81306D01*
X288100Y-81252D01*
X288283Y-81188D01*
X288423Y-81145D01*
X288541Y-81102D01*
X288628Y-81069D01*
X288681Y-81048D01*
X288703Y-81037D01*
X288993Y-80908D01*
X289273Y-80768D01*
X289542Y-80618D01*
X289800Y-80467D01*
X290037Y-80316D01*
X290263Y-80166D01*
X290478Y-80015D01*
X290672Y-79875D01*
X290844Y-79735D01*
X290995Y-79606D01*
X291124Y-79499D01*
X291242Y-79402D01*
X291328Y-79316D01*
X291393Y-79262D01*
X291436Y-79219D01*
X291447Y-79208D01*
X291662Y-78982D01*
X291856Y-78756D01*
X292049Y-78519D01*
X292221Y-78283D01*
X292383Y-78046D01*
X292544Y-77820D01*
X292673Y-77605D01*
X292802Y-77390D01*
X292910Y-77196D01*
X293007Y-77013D01*
X293093Y-76852D01*
X293158Y-76723D01*
X293211Y-76604D01*
X293254Y-76518D01*
X293276Y-76475D01*
X293287Y-76454D01*
X293405Y-76152D01*
X293502Y-75851D01*
X293599Y-75550D01*
X293674Y-75259D01*
X293739Y-74969D01*
X293792Y-74689D01*
X293835Y-74420D01*
X293868Y-74172D01*
X293900Y-73936D01*
X293921Y-73731D01*
X293932Y-73548D01*
X293943Y-73387D01*
X293954Y-73258D01*
Y-73161D01*
Y-73107D01*
Y-73086D01*
X293943Y-72752D01*
X293921Y-72429D01*
X293889Y-72117D01*
X293846Y-71805D01*
X293803Y-71515D01*
X293739Y-71235D01*
X293685Y-70977D01*
X293620Y-70740D01*
X293556Y-70514D01*
X293502Y-70320D01*
X293437Y-70148D01*
X293394Y-69998D01*
X293351Y-69890D01*
X293319Y-69804D01*
X293297Y-69750D01*
X293287Y-69728D01*
X293158Y-69438D01*
X293018Y-69158D01*
X292867Y-68889D01*
X292716Y-68642D01*
X292555Y-68394D01*
X292404Y-68168D01*
X292254Y-67964D01*
X292114Y-67770D01*
X291974Y-67598D01*
X291845Y-67447D01*
X291737Y-67308D01*
X291707Y-67274D01*
X290697Y-68287D01*
X289521D01*
X285754Y-72053D01*
X285722Y-71881D01*
X285690Y-71644D01*
X285668Y-71439D01*
Y-71353D01*
X285658Y-71278D01*
Y-71224D01*
Y-71181D01*
Y-71149D01*
Y-71138D01*
X285679Y-70751D01*
X285722Y-70406D01*
X285755Y-70245D01*
X285798Y-70094D01*
X285841Y-69965D01*
X285873Y-69836D01*
X285916Y-69718D01*
X285959Y-69621D01*
X285991Y-69535D01*
X286034Y-69459D01*
X286056Y-69406D01*
X286077Y-69363D01*
X286099Y-69341D01*
Y-69330D01*
X286174Y-69201D01*
X286260Y-69094D01*
X286443Y-68900D01*
X286637Y-68739D01*
X286809Y-68620D01*
X286970Y-68534D01*
X287100Y-68470D01*
X287153Y-68448D01*
X287186Y-68437D01*
X287207Y-68427D01*
X287218D01*
X287304Y-68405D01*
X287412Y-68384D01*
X287541Y-68362D01*
X287681Y-68340D01*
X287993Y-68319D01*
X288316Y-68308D01*
X288477Y-68297D01*
X288617D01*
X288757Y-68287D01*
X289521D01*
X291119Y-66688D01*
X290995Y-66576D01*
X290758Y-66393D01*
X290532Y-66210D01*
X290295Y-66049D01*
X290069Y-65898D01*
X289843Y-65758D01*
X289639Y-65629D01*
X289445Y-65521D01*
X289262Y-65425D01*
X289101Y-65338D01*
X288972Y-65274D01*
X288854Y-65220D01*
X288767Y-65177D01*
X288724Y-65156D01*
X288703Y-65145D01*
X288402Y-65026D01*
X288100Y-64919D01*
X287799Y-64822D01*
X287508Y-64747D01*
X287218Y-64682D01*
X286938Y-64628D01*
X286669Y-64574D01*
X286422Y-64542D01*
X286185Y-64510D01*
X285981Y-64488D01*
X285798Y-64478D01*
X285636Y-64467D01*
X285507Y-64456D01*
D02*
G37*
G36*
X261928Y-62946D02*
X260471D01*
Y-63305D01*
X261928D01*
Y-62946D01*
D02*
G37*
G36*
X262426Y-63186D02*
X262352D01*
Y-63656D01*
X260075D01*
Y-63232D01*
X259854Y-63269D01*
X259660Y-63305D01*
X259494Y-63342D01*
X259356Y-63379D01*
X259236Y-63407D01*
X259153Y-63434D01*
X259107Y-63444D01*
X259088Y-63453D01*
X258959Y-63499D01*
X258839Y-63545D01*
X258738Y-63591D01*
X258664Y-63628D01*
X258600Y-63665D01*
X258554Y-63693D01*
X258526Y-63702D01*
X258517Y-63711D01*
X258443Y-63757D01*
X258387Y-63803D01*
X258341Y-63840D01*
X258305Y-63877D01*
X258277Y-63905D01*
X258259Y-63932D01*
X258249Y-63942D01*
Y-63951D01*
X258203Y-64015D01*
X258166Y-64061D01*
X258157Y-64089D01*
X258148Y-64098D01*
X263597D01*
Y-63352D01*
X263403Y-63305D01*
X263191Y-63259D01*
X262988Y-63232D01*
X262786Y-63213D01*
X262610Y-63195D01*
X262472D01*
X262426Y-63186D01*
D02*
G37*
G36*
X264436Y-63656D02*
Y-64098D01*
X264888D01*
X264869Y-64052D01*
X264842Y-63997D01*
X264814Y-63942D01*
X264795Y-63932D01*
Y-63923D01*
X264749Y-63877D01*
X264694Y-63831D01*
X264574Y-63739D01*
X264519Y-63702D01*
X264482Y-63683D01*
X264445Y-63665D01*
X264436Y-63656D01*
D02*
G37*
G36*
X257207Y-65767D02*
Y-66680D01*
X257871D01*
Y-66449D01*
X257207Y-65767D01*
D02*
G37*
G36*
X264814Y-64615D02*
X258129D01*
X258175Y-65389D01*
X258406D01*
Y-66422D01*
X259559Y-67574D01*
Y-67030D01*
X262398D01*
Y-67971D01*
X259909D01*
X261688Y-69796D01*
X264648Y-66588D01*
X264814Y-64615D01*
D02*
G37*
G36*
X264602Y-67270D02*
X261974Y-70082D01*
X264178Y-72313D01*
X264602Y-67270D01*
D02*
G37*
G36*
X258406Y-66984D02*
Y-67058D01*
X258360D01*
X258858Y-72848D01*
X261430Y-70082D01*
X258406Y-66984D01*
D02*
G37*
G36*
X261716Y-70368D02*
X258904Y-73410D01*
X258950Y-73835D01*
X259144Y-73862D01*
X259319Y-73918D01*
X259466Y-73982D01*
X259595Y-74056D01*
X259706Y-74130D01*
X259780Y-74194D01*
X259826Y-74231D01*
X259844Y-74250D01*
X259964Y-74388D01*
X260047Y-74545D01*
X260112Y-74701D01*
X260149Y-74849D01*
X260176Y-74978D01*
X260185Y-75079D01*
X260195Y-75116D01*
Y-75144D01*
Y-75162D01*
Y-75172D01*
X260185Y-75245D01*
Y-75273D01*
Y-75282D01*
X260176Y-75319D01*
X260167Y-75356D01*
Y-75374D01*
Y-75384D01*
X263919D01*
X264113Y-72848D01*
X261716Y-70368D01*
D02*
G37*
G36*
X258849Y-74425D02*
X258802D01*
X258692Y-74434D01*
X258590Y-74462D01*
X258507Y-74498D01*
X258434Y-74535D01*
X258378Y-74572D01*
X258332Y-74609D01*
X258305Y-74637D01*
X258295Y-74646D01*
X258222Y-74729D01*
X258175Y-74821D01*
X258139Y-74913D01*
X258111Y-74987D01*
X258092Y-75061D01*
X258083Y-75116D01*
Y-75162D01*
Y-75172D01*
X258092Y-75282D01*
X258120Y-75384D01*
X258148Y-75476D01*
X258185Y-75550D01*
X258231Y-75614D01*
X258259Y-75669D01*
X258286Y-75697D01*
X258295Y-75706D01*
X258378Y-75780D01*
X258461Y-75835D01*
X258544Y-75872D01*
X258627Y-75900D01*
X258692Y-75918D01*
X258747Y-75928D01*
X258802D01*
X258913Y-75918D01*
X259015Y-75891D01*
X259107Y-75854D01*
X259190Y-75817D01*
X259254Y-75780D01*
X259300Y-75743D01*
X259328Y-75716D01*
X259337Y-75706D01*
X259411Y-75614D01*
X259466Y-75522D01*
X259503Y-75439D01*
X259531Y-75356D01*
X259549Y-75282D01*
X259559Y-75227D01*
Y-75181D01*
Y-75172D01*
X259549Y-75061D01*
X259522Y-74959D01*
X259485Y-74867D01*
X259439Y-74793D01*
X259402Y-74729D01*
X259365Y-74683D01*
X259337Y-74655D01*
X259328Y-74646D01*
X259236Y-74572D01*
X259144Y-74517D01*
X259061Y-74480D01*
X258978Y-74452D01*
X258904Y-74434D01*
X258849Y-74425D01*
D02*
G37*
%LPD*%
G36*
X258876Y-74738D02*
X258941Y-74747D01*
X259051Y-74793D01*
X259088Y-74821D01*
X259125Y-74840D01*
X259144Y-74849D01*
X259153Y-74858D01*
X259199Y-74904D01*
X259236Y-74959D01*
X259263Y-75015D01*
X259282Y-75061D01*
X259291Y-75107D01*
X259300Y-75144D01*
Y-75162D01*
Y-75172D01*
X259291Y-75245D01*
X259273Y-75310D01*
X259227Y-75420D01*
X259199Y-75457D01*
X259171Y-75494D01*
X259162Y-75513D01*
X259153Y-75522D01*
X259088Y-75568D01*
X259033Y-75605D01*
X258968Y-75633D01*
X258922Y-75651D01*
X258876Y-75660D01*
X258839Y-75669D01*
X258802D01*
X258729Y-75660D01*
X258655Y-75633D01*
X258544Y-75568D01*
X258471Y-75494D01*
X258415Y-75402D01*
X258378Y-75319D01*
X258369Y-75245D01*
X258360Y-75190D01*
Y-75181D01*
Y-75172D01*
X258369Y-75107D01*
X258378Y-75042D01*
X258424Y-74941D01*
X258452Y-74904D01*
X258471Y-74876D01*
X258480Y-74867D01*
X258489Y-74858D01*
X258535Y-74812D01*
X258590Y-74784D01*
X258692Y-74747D01*
X258738Y-74738D01*
X258775Y-74729D01*
X258802D01*
X258876Y-74738D01*
D02*
G37*
D10*
X338671Y-120235D02*
G03*
X338671Y-120235I-3828J0D01*
G01*
Y-134077D02*
G03*
X338671Y-134077I-3828J0D01*
G01*
X328829D02*
G03*
X328829Y-134077I-3828J0D01*
G01*
Y-120235D02*
G03*
X328829Y-120235I-3828J0D01*
G01*
Y-106394D02*
G03*
X328829Y-106394I-3828J0D01*
G01*
X338671D02*
G03*
X338671Y-106394I-3828J0D01*
G01*
X328829Y-92894D02*
G03*
X328829Y-92894I-3828J0D01*
G01*
X338671D02*
G03*
X338671Y-92894I-3828J0D01*
G01*
X328829Y-78894D02*
G03*
X328829Y-78894I-3828J0D01*
G01*
X338671D02*
G03*
X338671Y-78894I-3828J0D01*
G01*
X328829Y-65394D02*
G03*
X328829Y-65394I-3828J0D01*
G01*
X338671D02*
G03*
X338671Y-65394I-3828J0D01*
G01*
X328829Y-51394D02*
G03*
X328829Y-51394I-3828J0D01*
G01*
X338671D02*
G03*
X338671Y-51394I-3828J0D01*
G01*
Y-37894D02*
G03*
X338671Y-37894I-3828J0D01*
G01*
X328829D02*
G03*
X328829Y-37894I-3828J0D01*
G01*
X59242Y-41929D02*
G03*
X59242Y-41929I-3828J0D01*
G01*
X69084D02*
G03*
X69084Y-41929I-3828J0D01*
G01*
X59242Y-55709D02*
G03*
X59242Y-55709I-3828J0D01*
G01*
X69084D02*
G03*
X69084Y-55709I-3828J0D01*
G01*
X59242Y-69488D02*
G03*
X59242Y-69488I-3828J0D01*
G01*
X69084D02*
G03*
X69084Y-69488I-3828J0D01*
G01*
X59242Y-83268D02*
G03*
X59242Y-83268I-3828J0D01*
G01*
X69084D02*
G03*
X69084Y-83268I-3828J0D01*
G01*
X59242Y-97047D02*
G03*
X59242Y-97047I-3828J0D01*
G01*
X69084D02*
G03*
X69084Y-97047I-3828J0D01*
G01*
X59242Y-110827D02*
G03*
X59242Y-110827I-3828J0D01*
G01*
X69084D02*
G03*
X69084Y-110827I-3828J0D01*
G01*
Y-124327D02*
G03*
X69084Y-124327I-3828J0D01*
G01*
X59242D02*
G03*
X59242Y-124327I-3828J0D01*
G01*
X69084Y-138327D02*
G03*
X69084Y-138327I-3828J0D01*
G01*
X59242D02*
G03*
X59242Y-138327I-3828J0D01*
G01*
X69084Y-151827D02*
G03*
X69084Y-151827I-3828J0D01*
G01*
X59242D02*
G03*
X59242Y-151827I-3828J0D01*
G01*
X69084Y-165827D02*
G03*
X69084Y-165827I-3828J0D01*
G01*
X59242D02*
G03*
X59242Y-165827I-3828J0D01*
G01*
X69084Y-179327D02*
G03*
X69084Y-179327I-3828J0D01*
G01*
X59242D02*
G03*
X59242Y-179327I-3828J0D01*
G01*
X69084Y-193327D02*
G03*
X69084Y-193327I-3828J0D01*
G01*
X59242D02*
G03*
X59242Y-193327I-3828J0D01*
G01*
X294390Y-51476D02*
Y-47541D01*
X292422D01*
X291766Y-48197D01*
Y-49509D01*
X292422Y-50165D01*
X294390D01*
X293078D02*
X291766Y-51476D01*
X290454Y-47541D02*
Y-51476D01*
Y-49509D01*
X287830D01*
Y-47541D01*
Y-51476D01*
X286518Y-47541D02*
Y-51476D01*
X284550D01*
X283894Y-50820D01*
Y-50165D01*
X284550Y-49509D01*
X286518D01*
X284550D01*
X283894Y-48853D01*
Y-48197D01*
X284550Y-47541D01*
X286518D01*
X282582Y-51476D02*
Y-50820D01*
X281927D01*
Y-51476D01*
X282582D01*
X279303D02*
Y-47541D01*
X277335D01*
X276679Y-48197D01*
Y-49509D01*
X277335Y-50165D01*
X279303D01*
X275367Y-47541D02*
Y-51476D01*
X272743D01*
X271431D02*
Y-50820D01*
X270775D01*
Y-51476D01*
X271431D01*
X268151Y-48197D02*
X267495Y-47541D01*
X266184D01*
X265528Y-48197D01*
Y-50820D01*
X266184Y-51476D01*
X267495D01*
X268151Y-50820D01*
Y-48197D01*
X264216D02*
X263560Y-47541D01*
X262248D01*
X261592Y-48197D01*
Y-50820D01*
X262248Y-51476D01*
X263560D01*
X264216Y-50820D01*
Y-48197D01*
X260280D02*
X259624Y-47541D01*
X258312D01*
X257656Y-48197D01*
Y-50820D01*
X258312Y-51476D01*
X259624D01*
X260280Y-50820D01*
Y-48197D01*
X256344D02*
X255688Y-47541D01*
X254376D01*
X253720Y-48197D01*
Y-50820D01*
X254376Y-51476D01*
X255688D01*
X256344Y-50820D01*
Y-48197D01*
X252409Y-51476D02*
X251097D01*
X251753D01*
Y-47541D01*
X252409Y-48197D01*
X294291Y-40356D02*
Y-44291D01*
X292323D01*
X291668Y-43635D01*
Y-42979D01*
X292323Y-42323D01*
X294291D01*
X292323D01*
X291668Y-41668D01*
Y-41012D01*
X292323Y-40356D01*
X294291D01*
X289700Y-41668D02*
X288388D01*
X287732Y-42323D01*
Y-44291D01*
X289700D01*
X290356Y-43635D01*
X289700Y-42979D01*
X287732D01*
X286420Y-41668D02*
Y-44291D01*
Y-42979D01*
X285764Y-42323D01*
X285108Y-41668D01*
X284452D01*
X280516Y-44291D02*
X281828D01*
X282484Y-43635D01*
Y-42323D01*
X281828Y-41668D01*
X280516D01*
X279860Y-42323D01*
Y-42979D01*
X282484D01*
X278548Y-44291D02*
Y-40356D01*
X277237Y-41668D01*
X275925Y-40356D01*
Y-44291D01*
X272645D02*
X273957D01*
X274613Y-43635D01*
Y-42323D01*
X273957Y-41668D01*
X272645D01*
X271989Y-42323D01*
Y-42979D01*
X274613D01*
X270021Y-41012D02*
Y-41668D01*
X270677D01*
X269365D01*
X270021D01*
Y-43635D01*
X269365Y-44291D01*
X266741Y-41668D02*
X265429D01*
X264773Y-42323D01*
Y-44291D01*
X266741D01*
X267397Y-43635D01*
X266741Y-42979D01*
X264773D01*
X263461Y-44291D02*
X262150D01*
X262805D01*
Y-40356D01*
X263461D01*
X256246Y-44291D02*
Y-40356D01*
X254278D01*
X253622Y-41012D01*
Y-42323D01*
X254278Y-42979D01*
X256246D01*
X252310Y-40356D02*
Y-44291D01*
X249686D01*
X245751Y-41012D02*
X246407Y-40356D01*
X247718D01*
X248374Y-41012D01*
Y-43635D01*
X247718Y-44291D01*
X246407D01*
X245751Y-43635D01*
X240503Y-42323D02*
X237879D01*
X232631Y-44291D02*
Y-40356D01*
X231319Y-41668D01*
X230008Y-40356D01*
Y-44291D01*
X294488Y-54726D02*
Y-58661D01*
Y-56694D01*
X291864D01*
Y-54726D01*
Y-58661D01*
X290552Y-54726D02*
Y-58661D01*
X289241Y-57349D01*
X287929Y-58661D01*
Y-54726D01*
X282681Y-55382D02*
X282025Y-54726D01*
X280713D01*
X280057Y-55382D01*
Y-58005D01*
X280713Y-58661D01*
X282025D01*
X282681Y-58005D01*
Y-55382D01*
X278745Y-58661D02*
Y-58005D01*
X278089D01*
Y-58661D01*
X278745D01*
X275465D02*
X274153D01*
X274810D01*
Y-54726D01*
X275465Y-55382D01*
X272186Y-58661D02*
Y-58005D01*
X271530D01*
Y-58661D01*
X272186D01*
X266282D02*
X268906D01*
X266282Y-56038D01*
Y-55382D01*
X266938Y-54726D01*
X268250D01*
X268906Y-55382D01*
D20*
X275051Y-33165D02*
X282651D01*
X274951Y-33265D02*
X282651D01*
X274951Y-33365D02*
X282551D01*
X274851Y-33465D02*
X282551D01*
X274851Y-33565D02*
X282451D01*
X274751Y-33665D02*
X282451D01*
X274651Y-33765D02*
X282351D01*
X274651Y-33865D02*
X282351D01*
X274551Y-33965D02*
X282251D01*
X274551Y-34065D02*
X282251D01*
X274451Y-34165D02*
X282151D01*
X274451Y-34265D02*
X282151D01*
X274351Y-34365D02*
X282051D01*
X274351Y-34465D02*
X282051D01*
X274251Y-34565D02*
X281951D01*
X274251Y-34665D02*
X281951D01*
X273351Y-27065D02*
X294551D01*
X282951Y-19965D02*
X283351D01*
X282851Y-19665D02*
X283451D01*
X282951Y-19765D02*
X283351D01*
X282951Y-19865D02*
X283351D01*
X282951Y-20365D02*
X283351D01*
X282951Y-20265D02*
X283351D01*
X282951Y-20165D02*
X283351D01*
X282951Y-20065D02*
X283351D01*
X282651Y-19465D02*
X283551D01*
X282751Y-19565D02*
X283451D01*
X275951Y-31465D02*
X284351D01*
X274051Y-19465D02*
X282151D01*
X273951Y-19565D02*
X282051D01*
X273851Y-19665D02*
X282051D01*
X273751Y-19765D02*
X281951D01*
X273651Y-19865D02*
X281951D01*
X273651Y-19965D02*
X281951D01*
X273551Y-20065D02*
X281951D01*
X273451Y-20265D02*
X281951D01*
X273451Y-20165D02*
X281951D01*
X273351Y-20365D02*
X281951D01*
X273351Y-26965D02*
X281851D01*
X273351Y-26865D02*
X281551D01*
X273251Y-26765D02*
X281351D01*
X273251Y-26665D02*
X281251D01*
X273251Y-26565D02*
X281151D01*
X273251Y-26465D02*
X281051D01*
X273251Y-26365D02*
X280951D01*
X273151Y-26265D02*
X280851D01*
X273151Y-26165D02*
X280851D01*
X273151Y-25965D02*
X280751D01*
X273351Y-20465D02*
X280551D01*
X273251Y-20765D02*
X280551D01*
X273251Y-20665D02*
X280551D01*
X273251Y-20565D02*
X280551D01*
X273251Y-20865D02*
X280551D01*
X273251Y-20965D02*
X280551D01*
X273151Y-22765D02*
X280551D01*
X273151Y-22065D02*
X280551D01*
X273151Y-21765D02*
X280551D01*
X273151Y-21865D02*
X280551D01*
X273151Y-21965D02*
X280551D01*
X273151Y-21665D02*
X280551D01*
X273151Y-22365D02*
X280551D01*
X273151Y-21565D02*
X280551D01*
X273151Y-21365D02*
X280551D01*
X273151Y-21265D02*
X280551D01*
X273151Y-22165D02*
X280551D01*
X273151Y-21465D02*
X280551D01*
X273151Y-22265D02*
X280551D01*
X273151Y-21165D02*
X280551D01*
X273151Y-21065D02*
X280551D01*
X273151Y-22465D02*
X280551D01*
X273151Y-22565D02*
X280551D01*
X273151Y-22665D02*
X280551D01*
X273151Y-22865D02*
X280551D01*
X273151Y-22965D02*
X280551D01*
X273151Y-26065D02*
X280751D01*
X273151Y-25565D02*
X280651D01*
X273151Y-25765D02*
X280651D01*
X273151Y-25865D02*
X280651D01*
X273151Y-25665D02*
X280651D01*
X273151Y-23065D02*
X280551D01*
X273151Y-23165D02*
X280551D01*
X273151Y-23265D02*
X280551D01*
X273151Y-23365D02*
X280551D01*
X273151Y-23465D02*
X280551D01*
X273151Y-23565D02*
X280551D01*
X273151Y-23665D02*
X280551D01*
X273151Y-23765D02*
X280551D01*
X273151Y-23865D02*
X280551D01*
X273151Y-23965D02*
X280551D01*
X273151Y-24065D02*
X280551D01*
X273151Y-24165D02*
X280551D01*
X273151Y-24265D02*
X280551D01*
X273151Y-24365D02*
X280551D01*
X273151Y-24465D02*
X280551D01*
X273151Y-24565D02*
X280551D01*
X273151Y-24665D02*
X280551D01*
X273151Y-24765D02*
X280551D01*
X273151Y-24865D02*
X280551D01*
X273151Y-24965D02*
X280551D01*
X273151Y-25065D02*
X280551D01*
X273151Y-25165D02*
X280551D01*
X273151Y-25265D02*
X280551D01*
X273151Y-25365D02*
X280551D01*
X273151Y-25465D02*
X280551D01*
X274151Y-34765D02*
X281951D01*
X274051Y-34865D02*
X281851D01*
X274051Y-34965D02*
X281851D01*
X273951Y-35065D02*
X281751D01*
X273951Y-35165D02*
X281751D01*
X273951Y-35265D02*
X281651D01*
X273851Y-35365D02*
X281651D01*
X273851Y-35465D02*
X281551D01*
X273851Y-35565D02*
X281551D01*
X273851Y-35665D02*
X281451D01*
X273851Y-35765D02*
X281451D01*
X273851Y-35865D02*
X281351D01*
X273851Y-35965D02*
X281351D01*
X273851Y-36165D02*
X281251D01*
X273851Y-36065D02*
X281251D01*
X273851Y-36365D02*
X281151D01*
X275351Y-37965D02*
X279551D01*
X273851Y-36265D02*
X281151D01*
X274051Y-36865D02*
X280951D01*
X273851Y-36465D02*
X281051D01*
X273851Y-36565D02*
X281051D01*
X273951Y-36665D02*
X280951D01*
X273951Y-36765D02*
X280951D01*
X274051Y-36965D02*
X280851D01*
X274151Y-37065D02*
X280751D01*
X274151Y-37165D02*
X280751D01*
X274251Y-37265D02*
X280651D01*
X274351Y-37365D02*
X280551D01*
X274451Y-37465D02*
X280451D01*
X274551Y-37565D02*
X280351D01*
X274651Y-37665D02*
X280251D01*
X274851Y-37765D02*
X280051D01*
X275051Y-37865D02*
X279851D01*
X275851Y-31565D02*
X284051D01*
X275851Y-31665D02*
X283851D01*
X275751Y-31765D02*
X283651D01*
X275751Y-31865D02*
X283551D01*
X275651Y-31965D02*
X283351D01*
X275651Y-32065D02*
X283251D01*
X275551Y-32165D02*
X283251D01*
X275551Y-32265D02*
X283151D01*
X275451Y-32365D02*
X283051D01*
X275351Y-32465D02*
X283051D01*
X275351Y-32565D02*
X282951D01*
X275251Y-32665D02*
X282951D01*
X275251Y-32765D02*
X282851D01*
X275151Y-32865D02*
X282851D01*
X275151Y-32965D02*
X282751D01*
X275051Y-33065D02*
X282751D01*
X288151Y-22465D02*
X294551D01*
X288151Y-22565D02*
X294551D01*
X288051Y-22665D02*
X294551D01*
X288151Y-23565D02*
X294551D01*
X288151Y-23665D02*
X294551D01*
X288151Y-23765D02*
X294551D01*
X288151Y-23865D02*
X294551D01*
X288151Y-23965D02*
X294551D01*
X288051Y-24065D02*
X294551D01*
X288151Y-24965D02*
X294551D01*
X288151Y-25065D02*
X294551D01*
X288151Y-25165D02*
X294551D01*
X288151Y-25265D02*
X294551D01*
X288151Y-25365D02*
X294551D01*
X287151Y-21465D02*
X294551D01*
X287151Y-21565D02*
X294551D01*
X287151Y-21665D02*
X294551D01*
X287151Y-21765D02*
X294551D01*
X287151Y-21865D02*
X294551D01*
X287951Y-21965D02*
X294551D01*
X287951Y-22765D02*
X294551D01*
X287151Y-22865D02*
X294551D01*
X287151Y-22965D02*
X294551D01*
X287151Y-23065D02*
X294551D01*
X287951Y-23365D02*
X294551D01*
X288051Y-23465D02*
X294551D01*
X287951Y-24165D02*
X294551D01*
X287151Y-24265D02*
X294551D01*
X287151Y-24365D02*
X294551D01*
X287151Y-24465D02*
X294551D01*
X287151Y-24565D02*
X294551D01*
X287151Y-24665D02*
X294551D01*
X287951Y-24765D02*
X294551D01*
X288051Y-24865D02*
X294551D01*
X288051Y-25465D02*
X294551D01*
X287951Y-25565D02*
X294551D01*
X287151Y-25665D02*
X294551D01*
X287151Y-25765D02*
X294551D01*
X287151Y-25865D02*
X294551D01*
X287151Y-25965D02*
X294551D01*
X287151Y-26065D02*
X294551D01*
X287151Y-26165D02*
X294551D01*
X287151Y-26265D02*
X294551D01*
X287151Y-26365D02*
X294551D01*
X287151Y-26465D02*
X294551D01*
X287151Y-26565D02*
X294551D01*
X287151Y-26665D02*
X294551D01*
X287151Y-26765D02*
X294551D01*
X287151Y-26865D02*
X294551D01*
X287151Y-26965D02*
X294551D01*
X287151Y-34065D02*
X294551D01*
X287151Y-21365D02*
X294551D01*
X287151Y-23165D02*
X294551D01*
X287151Y-23265D02*
X294551D01*
X276051Y-30265D02*
X294551D01*
X276051Y-30365D02*
X294551D01*
X276051Y-30465D02*
X294551D01*
X276051Y-30565D02*
X294551D01*
X276051Y-30665D02*
X294551D01*
X276051Y-30765D02*
X294551D01*
X276051Y-30865D02*
X294551D01*
X276051Y-30965D02*
X294551D01*
X276051Y-31065D02*
X294551D01*
X276051Y-31165D02*
X294551D01*
X276051Y-31265D02*
X294551D01*
X285451Y-31465D02*
X294551D01*
X285851Y-31565D02*
X294551D01*
X286051Y-31665D02*
X294551D01*
X286251Y-31765D02*
X294551D01*
X286351Y-31865D02*
X294551D01*
X286451Y-31965D02*
X294551D01*
X286551Y-32065D02*
X294551D01*
X286651Y-32165D02*
X294551D01*
X286751Y-32265D02*
X294551D01*
X286751Y-32365D02*
X294551D01*
X286851Y-32465D02*
X294551D01*
X286951Y-32565D02*
X294551D01*
X286951Y-32665D02*
X294551D01*
X286951Y-32765D02*
X294551D01*
X287051Y-32865D02*
X294551D01*
X287051Y-32965D02*
X294551D01*
X287051Y-33065D02*
X294551D01*
X287051Y-33165D02*
X294551D01*
X273451Y-27165D02*
X294551D01*
X273551Y-27265D02*
X294551D01*
X273551Y-27365D02*
X294551D01*
X273651Y-27465D02*
X294551D01*
X273751Y-27565D02*
X294551D01*
X273851Y-27665D02*
X294551D01*
X273951Y-27765D02*
X294551D01*
X274051Y-27865D02*
X294551D01*
X274151Y-27965D02*
X294551D01*
X274251Y-28065D02*
X294551D01*
X274351Y-28165D02*
X294551D01*
X274451Y-28265D02*
X294551D01*
X274551Y-28365D02*
X294551D01*
X274651Y-28465D02*
X294551D01*
X274751Y-28565D02*
X294551D01*
X274851Y-28665D02*
X294551D01*
X274951Y-28765D02*
X294551D01*
X275051Y-28865D02*
X294551D01*
X275151Y-28965D02*
X294551D01*
X275251Y-29065D02*
X294551D01*
X275351Y-29165D02*
X294551D01*
X275451Y-29265D02*
X294551D01*
X275551Y-29365D02*
X294551D01*
X275651Y-29465D02*
X294551D01*
X275751Y-29565D02*
X294551D01*
X275751Y-29665D02*
X294551D01*
X275851Y-29765D02*
X294551D01*
X275851Y-29865D02*
X294551D01*
X275951Y-29965D02*
X294551D01*
X275951Y-30065D02*
X294551D01*
X276051Y-30165D02*
X294551D01*
X275951Y-31365D02*
X294551D01*
X287051Y-33265D02*
X294551D01*
X287151Y-33365D02*
X294551D01*
X287151Y-33465D02*
X294551D01*
X287151Y-33565D02*
X294551D01*
X287151Y-33665D02*
X294551D01*
X287151Y-33765D02*
X294551D01*
X287151Y-33865D02*
X294551D01*
X287151Y-33965D02*
X294551D01*
X287151Y-34165D02*
X294551D01*
X287151Y-34265D02*
X294551D01*
X287151Y-34365D02*
X294551D01*
X287151Y-34465D02*
X294551D01*
X287151Y-34565D02*
X294551D01*
X287151Y-34665D02*
X294551D01*
X287151Y-34765D02*
X294551D01*
X287151Y-34865D02*
X294551D01*
X287151Y-34965D02*
X294551D01*
X287151Y-35065D02*
X294551D01*
X287151Y-35165D02*
X294551D01*
X287151Y-35265D02*
X294551D01*
X287151Y-35365D02*
X294551D01*
X287151Y-35465D02*
X294551D01*
X287151Y-35565D02*
X294551D01*
X287151Y-35665D02*
X294551D01*
X287151Y-35765D02*
X294551D01*
X287151Y-35865D02*
X294551D01*
X287151Y-35965D02*
X294551D01*
X287151Y-36065D02*
X294551D01*
X287151Y-36165D02*
X294551D01*
X287451Y-37065D02*
X294251D01*
X287951Y-37665D02*
X293651D01*
X288351Y-37865D02*
X293251D01*
X287151Y-36365D02*
X294451D01*
X287851Y-37565D02*
X293751D01*
X287251Y-36665D02*
X294351D01*
X288151Y-37765D02*
X293451D01*
X287451Y-37165D02*
X294151D01*
X287151Y-36465D02*
X294451D01*
X287551Y-37265D02*
X294051D01*
X287151Y-36565D02*
X294451D01*
X287351Y-36965D02*
X294251D01*
X287651Y-37365D02*
X293951D01*
X287751Y-37465D02*
X293851D01*
X287151Y-36265D02*
X294451D01*
X287251Y-36765D02*
X294351D01*
X288651Y-37965D02*
X292951D01*
X287251Y-36865D02*
X294351D01*
X288051Y-22065D02*
X294551D01*
X288151Y-22165D02*
X294551D01*
X288151Y-22265D02*
X294551D01*
X288151Y-22365D02*
X294551D01*
X284051Y-19465D02*
X284951D01*
X284151Y-19565D02*
X284851D01*
X284251Y-19665D02*
X284751D01*
X284251Y-19765D02*
X284751D01*
X284351Y-19865D02*
X284751D01*
X284351Y-19965D02*
X284751D01*
X284351Y-20065D02*
X284751D01*
X284351Y-20165D02*
X284751D01*
X284351Y-20265D02*
X284751D01*
X284351Y-20365D02*
X284751D01*
X277751Y-16065D02*
X293151D01*
X277551Y-16165D02*
X293351D01*
X277351Y-16265D02*
X293551D01*
X277251Y-16365D02*
X293751D01*
X277051Y-16465D02*
X293851D01*
X276951Y-16565D02*
X293951D01*
X276851Y-16665D02*
X294051D01*
X276751Y-16765D02*
X294151D01*
X276651Y-16865D02*
X294151D01*
X276551Y-16965D02*
X294251D01*
X276451Y-17065D02*
X294251D01*
X278351Y-15965D02*
X292551D01*
X276351Y-17165D02*
X294351D01*
X276251Y-17265D02*
X294351D01*
X276151Y-17365D02*
X294451D01*
X276051Y-17465D02*
X294451D01*
X285451Y-19465D02*
X294551D01*
X285551Y-19565D02*
X294551D01*
X285651Y-19665D02*
X294551D01*
X275951Y-17565D02*
X294451D01*
X275851Y-17665D02*
X294451D01*
X275751Y-17765D02*
X294551D01*
X275651Y-17865D02*
X294551D01*
X275551Y-17965D02*
X294551D01*
X275451Y-18065D02*
X294551D01*
X275351Y-18165D02*
X294551D01*
X275251Y-18265D02*
X294551D01*
X275151Y-18365D02*
X294551D01*
X275051Y-18465D02*
X294551D01*
X274951Y-18565D02*
X294551D01*
X274851Y-18665D02*
X294551D01*
X274751Y-18765D02*
X294551D01*
X285651Y-19765D02*
X294551D01*
X274551Y-18965D02*
X294551D01*
X274451Y-19065D02*
X294551D01*
X274351Y-19165D02*
X294551D01*
X274251Y-19265D02*
X294551D01*
X274151Y-19365D02*
X294551D01*
X274651Y-18865D02*
X294551D01*
X285751Y-19965D02*
X294551D01*
X285751Y-19865D02*
X294551D01*
X285751Y-20065D02*
X294551D01*
X285751Y-20165D02*
X294551D01*
X285751Y-20265D02*
X294551D01*
X285751Y-20365D02*
X294551D01*
X287151Y-20465D02*
X294551D01*
X287151Y-20565D02*
X294551D01*
X287151Y-20665D02*
X294551D01*
X287151Y-20765D02*
X294551D01*
X287151Y-20865D02*
X294551D01*
X287151Y-20965D02*
X294551D01*
X287151Y-21065D02*
X294551D01*
X287151Y-21165D02*
X294551D01*
X287151Y-21265D02*
X294551D01*
D21*
X321041Y-140125D02*
X339741D01*
X320768Y-113189D02*
X339469D01*
X320768Y-85630D02*
X339469D01*
X320768Y-58071D02*
X339469D01*
X320768Y-31201D02*
X339469D01*
X60236Y-104331D02*
X70079D01*
X50394D02*
X60236D01*
Y-198031D02*
Y-104331D01*
X50394Y-90551D02*
X60236D01*
X70079D01*
X50394Y-76378D02*
X60236D01*
X70079D01*
X50394Y-62992D02*
X60236D01*
X70079D01*
X50394Y-48819D02*
X60236D01*
X70079D01*
X50394Y-35039D02*
X60236D01*
X70079D01*
X337210Y-66673D02*
Y-63918D01*
X335832D01*
X335373Y-64377D01*
Y-65296D01*
X335832Y-65755D01*
X337210D01*
X336291D02*
X335373Y-66673D01*
X334454Y-63918D02*
Y-66673D01*
X333077D01*
X332618Y-66214D01*
Y-65755D01*
X333077Y-65296D01*
X334454D01*
X333077D01*
X332618Y-64836D01*
Y-64377D01*
X333077Y-63918D01*
X334454D01*
X327309Y-66773D02*
Y-64018D01*
X325932D01*
X325473Y-64477D01*
Y-65396D01*
X325932Y-65855D01*
X327309D01*
X326391D02*
X325473Y-66773D01*
X324554D02*
Y-64936D01*
X323636Y-64018D01*
X322718Y-64936D01*
Y-66773D01*
Y-65396D01*
X324554D01*
X219028Y-37992D02*
X219487Y-37533D01*
Y-36615D01*
X219028Y-36156D01*
X218569D01*
X218110Y-36615D01*
Y-37074D01*
Y-36615D01*
X217651Y-36156D01*
X217191D01*
X216732Y-36615D01*
Y-37533D01*
X217191Y-37992D01*
X216732Y-35237D02*
X217191D01*
Y-34778D01*
X216732D01*
Y-35237D01*
X219028Y-32941D02*
X219487Y-32482D01*
Y-31564D01*
X219028Y-31105D01*
X218569D01*
X218110Y-31564D01*
Y-32023D01*
Y-31564D01*
X217651Y-31105D01*
X217191D01*
X216732Y-31564D01*
Y-32482D01*
X217191Y-32941D01*
X219487Y-30186D02*
X217651D01*
X216732Y-29268D01*
X217651Y-28350D01*
X219487D01*
X230446Y-122573D02*
X230905Y-123032D01*
Y-123950D01*
X230446Y-124409D01*
X228609D01*
X228150Y-123950D01*
Y-123032D01*
X228609Y-122573D01*
X229527D01*
Y-123491D01*
X228150Y-121654D02*
X230905D01*
X228150Y-119818D01*
X230905D01*
Y-118899D02*
X228150D01*
Y-117522D01*
X228609Y-117063D01*
X230446D01*
X230905Y-117522D01*
Y-118899D01*
X250524Y-128085D02*
X250983Y-128544D01*
Y-129462D01*
X250524Y-129921D01*
X250065D01*
X249606Y-129462D01*
Y-128544D01*
X249147Y-128085D01*
X248688D01*
X248228Y-128544D01*
Y-129462D01*
X248688Y-129921D01*
X250983Y-127166D02*
X248228D01*
X249147Y-126248D01*
X248228Y-125330D01*
X250983D01*
X250524Y-122574D02*
X250983Y-123034D01*
Y-123952D01*
X250524Y-124411D01*
X248688D01*
X248228Y-123952D01*
Y-123034D01*
X248688Y-122574D01*
X250983Y-121656D02*
X248228D01*
Y-119819D01*
X250983Y-118901D02*
X248228D01*
X249147D01*
X250983Y-117064D01*
X249606Y-118442D01*
X248228Y-117064D01*
X260859Y-124246D02*
X261318Y-124705D01*
Y-125624D01*
X260859Y-126083D01*
X260400D01*
X259941Y-125624D01*
Y-124705D01*
X259481Y-124246D01*
X259022D01*
X258563Y-124705D01*
Y-125624D01*
X259022Y-126083D01*
X261318Y-123328D02*
X258563D01*
Y-121950D01*
X259022Y-121491D01*
X260859D01*
X261318Y-121950D01*
Y-123328D01*
Y-120573D02*
Y-119654D01*
Y-120114D01*
X258563D01*
Y-120573D01*
Y-119654D01*
X261318Y-116899D02*
Y-117818D01*
X260859Y-118277D01*
X259022D01*
X258563Y-117818D01*
Y-116899D01*
X259022Y-116440D01*
X260859D01*
X261318Y-116899D01*
X270406Y-126476D02*
X270865Y-126017D01*
Y-125099D01*
X270406Y-124640D01*
X269947D01*
X269488Y-125099D01*
Y-125558D01*
Y-125099D01*
X269029Y-124640D01*
X268569D01*
X268110Y-125099D01*
Y-126017D01*
X268569Y-126476D01*
X268110Y-123721D02*
X268569D01*
Y-123262D01*
X268110D01*
Y-123721D01*
X270406Y-121425D02*
X270865Y-120966D01*
Y-120048D01*
X270406Y-119589D01*
X269947D01*
X269488Y-120048D01*
Y-120507D01*
Y-120048D01*
X269029Y-119589D01*
X268569D01*
X268110Y-120048D01*
Y-120966D01*
X268569Y-121425D01*
X270865Y-118670D02*
X269029D01*
X268110Y-117752D01*
X269029Y-116834D01*
X270865D01*
X208201Y-36156D02*
X208661Y-36615D01*
Y-37533D01*
X208201Y-37992D01*
X207742D01*
X207283Y-37533D01*
Y-36615D01*
X206824Y-36156D01*
X206365D01*
X205906Y-36615D01*
Y-37533D01*
X206365Y-37992D01*
X208661Y-35237D02*
X205906D01*
Y-33860D01*
X206365Y-33400D01*
X208201D01*
X208661Y-33860D01*
Y-35237D01*
Y-32482D02*
Y-31564D01*
Y-32023D01*
X205906D01*
Y-32482D01*
Y-31564D01*
X208661Y-28809D02*
Y-29727D01*
X208201Y-30186D01*
X206365D01*
X205906Y-29727D01*
Y-28809D01*
X206365Y-28350D01*
X208201D01*
X208661Y-28809D01*
X198359Y-39404D02*
X198818Y-39863D01*
Y-40781D01*
X198359Y-41240D01*
X197900D01*
X197441Y-40781D01*
Y-39863D01*
X196981Y-39404D01*
X196522D01*
X196063Y-39863D01*
Y-40781D01*
X196522Y-41240D01*
X198818Y-38485D02*
X196063D01*
X196981Y-37567D01*
X196063Y-36648D01*
X198818D01*
X198359Y-33893D02*
X198818Y-34353D01*
Y-35271D01*
X198359Y-35730D01*
X196522D01*
X196063Y-35271D01*
Y-34353D01*
X196522Y-33893D01*
X198818Y-32975D02*
X196063D01*
Y-31138D01*
X198818Y-30220D02*
X196063D01*
X196981D01*
X198818Y-28383D01*
X197441Y-29761D01*
X196063Y-28383D01*
X188516Y-34581D02*
X188976Y-35040D01*
Y-35958D01*
X188516Y-36417D01*
X188057D01*
X187598Y-35958D01*
Y-35040D01*
X187139Y-34581D01*
X186680D01*
X186221Y-35040D01*
Y-35958D01*
X186680Y-36417D01*
X188976Y-33662D02*
X186221D01*
X187139Y-32744D01*
X186221Y-31826D01*
X188976D01*
Y-29530D02*
Y-30448D01*
X188516Y-30907D01*
X186680D01*
X186221Y-30448D01*
Y-29530D01*
X186680Y-29071D01*
X188516D01*
X188976Y-29530D01*
X178477Y-34384D02*
X178936Y-34843D01*
Y-35761D01*
X178477Y-36220D01*
X176640D01*
X176181Y-35761D01*
Y-34843D01*
X176640Y-34384D01*
X177559D01*
Y-35302D01*
X176181Y-33465D02*
X178936D01*
X176181Y-31629D01*
X178936D01*
Y-30710D02*
X176181D01*
Y-29333D01*
X176640Y-28874D01*
X178477D01*
X178936Y-29333D01*
Y-30710D01*
X327309Y-121735D02*
Y-118980D01*
X325932D01*
X325473Y-119439D01*
Y-120358D01*
X325932Y-120817D01*
X327309D01*
X326391D02*
X325473Y-121735D01*
X324554Y-118980D02*
X322718Y-121735D01*
Y-118980D02*
X324554Y-121735D01*
X327309Y-107994D02*
Y-105239D01*
X325932D01*
X325473Y-105699D01*
Y-106617D01*
X325932Y-107076D01*
X327309D01*
X326391D02*
X325473Y-107994D01*
X324554D02*
Y-106158D01*
X323636Y-105239D01*
X322718Y-106158D01*
Y-107994D01*
Y-106617D01*
X324554D01*
X327309Y-94254D02*
Y-91499D01*
X325932D01*
X325473Y-91958D01*
Y-92876D01*
X325932Y-93336D01*
X327309D01*
X326391D02*
X325473Y-94254D01*
X324554Y-91499D02*
Y-94254D01*
X323177D01*
X322718Y-93795D01*
Y-93336D01*
X323177Y-92876D01*
X324554D01*
X323177D01*
X322718Y-92417D01*
Y-91958D01*
X323177Y-91499D01*
X324554D01*
X327309Y-77759D02*
X325473D01*
X326391D01*
Y-80514D01*
X324554Y-77759D02*
Y-80514D01*
X323177D01*
X322718Y-80054D01*
Y-79595D01*
X323177Y-79136D01*
X324554D01*
X323177D01*
X322718Y-78677D01*
Y-78218D01*
X323177Y-77759D01*
X324554D01*
X325473Y-50737D02*
X325932Y-50278D01*
X326850D01*
X327309Y-50737D01*
Y-52573D01*
X326850Y-53033D01*
X325932D01*
X325473Y-52573D01*
X324554Y-50278D02*
Y-53033D01*
X322718D01*
X325473Y-36996D02*
X325932Y-36537D01*
X326850D01*
X327309Y-36996D01*
Y-38833D01*
X326850Y-39292D01*
X325932D01*
X325473Y-38833D01*
X324554Y-36537D02*
Y-39292D01*
Y-37915D01*
X322718D01*
Y-36537D01*
Y-39292D01*
X337210Y-118880D02*
X335373D01*
X336291D01*
Y-121635D01*
X334454Y-118880D02*
X332618Y-121635D01*
Y-118880D02*
X334454Y-121635D01*
X337210Y-107895D02*
Y-105140D01*
X335832D01*
X335373Y-105599D01*
Y-106517D01*
X335832Y-106976D01*
X337210D01*
X336291D02*
X335373Y-107895D01*
X334454D02*
Y-106058D01*
X333536Y-105140D01*
X332618Y-106058D01*
Y-107895D01*
Y-106517D01*
X334454D01*
X337210Y-94154D02*
Y-91399D01*
X335832D01*
X335373Y-91858D01*
Y-92777D01*
X335832Y-93236D01*
X337210D01*
X336291D02*
X335373Y-94154D01*
X334454Y-91399D02*
Y-94154D01*
X333077D01*
X332618Y-93695D01*
Y-93236D01*
X333077Y-92777D01*
X334454D01*
X333077D01*
X332618Y-92317D01*
Y-91858D01*
X333077Y-91399D01*
X334454D01*
X337210Y-77659D02*
X335373D01*
X336291D01*
Y-80414D01*
X334454D02*
Y-78577D01*
X333536Y-77659D01*
X332618Y-78577D01*
Y-80414D01*
Y-79036D01*
X334454D01*
X335373Y-50637D02*
X335832Y-50178D01*
X336750D01*
X337210Y-50637D01*
Y-52473D01*
X336750Y-52933D01*
X335832D01*
X335373Y-52473D01*
X334454Y-50178D02*
Y-52933D01*
X332618D01*
X335373Y-36896D02*
X335832Y-36437D01*
X336750D01*
X337210Y-36896D01*
Y-38733D01*
X336750Y-39192D01*
X335832D01*
X335373Y-38733D01*
X334454Y-36437D02*
Y-39192D01*
Y-37815D01*
X332618D01*
Y-36437D01*
Y-39192D01*
X56103Y-43307D02*
Y-40552D01*
X57480Y-41930D01*
X55644D01*
X54725Y-43307D02*
X53807D01*
X54266D01*
Y-40552D01*
X54725Y-41011D01*
X66339Y-43307D02*
Y-40552D01*
X67716Y-41930D01*
X65880D01*
X64961Y-41011D02*
X64502Y-40552D01*
X63584D01*
X63125Y-41011D01*
Y-42848D01*
X63584Y-43307D01*
X64502D01*
X64961Y-42848D01*
Y-41011D01*
X57480Y-54791D02*
X57021Y-54332D01*
X56103D01*
X55644Y-54791D01*
Y-55250D01*
X56103Y-55709D01*
X56562D01*
X56103D01*
X55644Y-56168D01*
Y-56627D01*
X56103Y-57087D01*
X57021D01*
X57480Y-56627D01*
X54725Y-57087D02*
X53807D01*
X54266D01*
Y-54332D01*
X54725Y-54791D01*
X67716D02*
X67257Y-54332D01*
X66339D01*
X65880Y-54791D01*
Y-55250D01*
X66339Y-55709D01*
X66798D01*
X66339D01*
X65880Y-56168D01*
Y-56627D01*
X66339Y-57087D01*
X67257D01*
X67716Y-56627D01*
X64961Y-54791D02*
X64502Y-54332D01*
X63584D01*
X63125Y-54791D01*
Y-56627D01*
X63584Y-57087D01*
X64502D01*
X64961Y-56627D01*
Y-54791D01*
X55644Y-70866D02*
X57480D01*
X55644Y-69029D01*
Y-68570D01*
X56103Y-68111D01*
X57021D01*
X57480Y-68570D01*
X54725Y-70866D02*
X53807D01*
X54266D01*
Y-68111D01*
X54725Y-68570D01*
X65486Y-70866D02*
X67323D01*
X65486Y-69029D01*
Y-68570D01*
X65945Y-68111D01*
X66864D01*
X67323Y-68570D01*
X64568D02*
X64109Y-68111D01*
X63190D01*
X62731Y-68570D01*
Y-70407D01*
X63190Y-70866D01*
X64109D01*
X64568Y-70407D01*
Y-68570D01*
X57087Y-84646D02*
X56168D01*
X56627D01*
Y-81891D01*
X57087Y-82350D01*
X54791Y-84646D02*
X53872D01*
X54332D01*
Y-81891D01*
X54791Y-82350D01*
X67323Y-84646D02*
X66404D01*
X66864D01*
Y-81891D01*
X67323Y-82350D01*
X65027D02*
X64568Y-81891D01*
X63649D01*
X63190Y-82350D01*
Y-84187D01*
X63649Y-84646D01*
X64568D01*
X65027Y-84187D01*
Y-82350D01*
X57480Y-96129D02*
X57021Y-95670D01*
X56103D01*
X55644Y-96129D01*
Y-97966D01*
X56103Y-98425D01*
X57021D01*
X57480Y-97966D01*
Y-96129D01*
X54725Y-98425D02*
X53807D01*
X54266D01*
Y-95670D01*
X54725Y-96129D01*
X67323D02*
X66864Y-95670D01*
X65945D01*
X65486Y-96129D01*
Y-97966D01*
X65945Y-98425D01*
X66864D01*
X67323Y-97966D01*
Y-96129D01*
X64568D02*
X64109Y-95670D01*
X63190D01*
X62731Y-96129D01*
Y-97966D01*
X63190Y-98425D01*
X64109D01*
X64568Y-97966D01*
Y-96129D01*
X66245Y-109370D02*
X67164D01*
X67623Y-109829D01*
Y-111666D01*
X67164Y-112125D01*
X66245D01*
X65786Y-111666D01*
Y-109829D01*
X66245Y-109370D01*
X63031Y-109829D02*
X63490Y-109370D01*
X64409D01*
X64868Y-109829D01*
Y-111666D01*
X64409Y-112125D01*
X63490D01*
X63031Y-111666D01*
X57623Y-109470D02*
X56704D01*
X57164D01*
Y-112225D01*
X57623D01*
X56704D01*
X53490Y-109929D02*
X53949Y-109470D01*
X54868D01*
X55327Y-109929D01*
Y-111766D01*
X54868Y-112225D01*
X53949D01*
X53490Y-111766D01*
X66245Y-122770D02*
X67164D01*
X67623Y-123229D01*
Y-125066D01*
X67164Y-125525D01*
X66245D01*
X65786Y-125066D01*
Y-123229D01*
X66245Y-122770D01*
X63490Y-125525D02*
Y-122770D01*
X64868Y-124148D01*
X63031D01*
X57723Y-122870D02*
X56805D01*
X57264D01*
Y-125625D01*
X57723D01*
X56805D01*
X54049D02*
Y-122870D01*
X55427Y-124248D01*
X53590D01*
X57623Y-136970D02*
X56704D01*
X57164D01*
Y-139725D01*
X57623D01*
X56704D01*
X55327Y-137429D02*
X54868Y-136970D01*
X53949D01*
X53490Y-137429D01*
Y-137889D01*
X53949Y-138348D01*
X54409D01*
X53949D01*
X53490Y-138807D01*
Y-139266D01*
X53949Y-139725D01*
X54868D01*
X55327Y-139266D01*
X66145Y-136970D02*
X67064D01*
X67523Y-137429D01*
Y-139266D01*
X67064Y-139725D01*
X66145D01*
X65686Y-139266D01*
Y-137429D01*
X66145Y-136970D01*
X64768Y-137429D02*
X64309Y-136970D01*
X63390D01*
X62931Y-137429D01*
Y-137889D01*
X63390Y-138348D01*
X63850D01*
X63390D01*
X62931Y-138807D01*
Y-139266D01*
X63390Y-139725D01*
X64309D01*
X64768Y-139266D01*
X66145Y-150270D02*
X67064D01*
X67523Y-150729D01*
Y-152566D01*
X67064Y-153025D01*
X66145D01*
X65686Y-152566D01*
Y-150729D01*
X66145Y-150270D01*
X62931Y-153025D02*
X64768D01*
X62931Y-151189D01*
Y-150729D01*
X63390Y-150270D01*
X64309D01*
X64768Y-150729D01*
X57523Y-150370D02*
X56604D01*
X57064D01*
Y-153125D01*
X57523D01*
X56604D01*
X53390D02*
X55227D01*
X53390Y-151288D01*
Y-150829D01*
X53850Y-150370D01*
X54768D01*
X55227Y-150829D01*
X65623Y-164245D02*
X66541D01*
X67000Y-164704D01*
Y-166541D01*
X66541Y-167000D01*
X65623D01*
X65163Y-166541D01*
Y-164704D01*
X65623Y-164245D01*
X64245Y-167000D02*
X63327D01*
X63786D01*
Y-164245D01*
X64245Y-164704D01*
X57100Y-164445D02*
X56182D01*
X56641D01*
Y-167200D01*
X57100D01*
X56182D01*
X54804D02*
X53886D01*
X54345D01*
Y-164445D01*
X54804Y-164904D01*
X66245Y-177870D02*
X67164D01*
X67623Y-178329D01*
Y-180166D01*
X67164Y-180625D01*
X66245D01*
X65786Y-180166D01*
Y-178329D01*
X66245Y-177870D01*
X64868Y-178329D02*
X64409Y-177870D01*
X63490D01*
X63031Y-178329D01*
Y-180166D01*
X63490Y-180625D01*
X64409D01*
X64868Y-180166D01*
Y-178329D01*
X57623Y-177970D02*
X56704D01*
X57164D01*
Y-180725D01*
X57623D01*
X56704D01*
X55327Y-178429D02*
X54868Y-177970D01*
X53949D01*
X53490Y-178429D01*
Y-180266D01*
X53949Y-180725D01*
X54868D01*
X55327Y-180266D01*
Y-178429D01*
X68110Y-204331D02*
X67192D01*
X67651D01*
Y-201576D01*
X68110Y-202035D01*
X63978Y-204331D02*
X65814D01*
X63978Y-202494D01*
Y-202035D01*
X64437Y-201576D01*
X65355D01*
X65814Y-202035D01*
X63059Y-202953D02*
X61223D01*
X58468Y-204331D02*
X60304D01*
X58468Y-202494D01*
Y-202035D01*
X58927Y-201576D01*
X59845D01*
X60304Y-202035D01*
X56172Y-204331D02*
Y-201576D01*
X57549Y-202953D01*
X55713D01*
X54794Y-201576D02*
Y-203412D01*
X53876Y-204331D01*
X52958Y-203412D01*
Y-201576D01*
D22*
X187008Y-5906D02*
D03*
Y-230315D02*
D03*
D131*
X326149Y-133399D02*
X326477Y-133071D01*
X327133D01*
X327461Y-133399D01*
Y-134711D01*
X327133Y-135039D01*
X326477D01*
X326149Y-134711D01*
Y-134055D01*
X326805D01*
X325493Y-135039D02*
Y-133071D01*
X324181Y-135039D01*
Y-133071D01*
X323525D02*
Y-135039D01*
X322541D01*
X322213Y-134711D01*
Y-133399D01*
X322541Y-133071D01*
X323525D01*
X336188Y-133498D02*
X336516Y-133170D01*
X337172D01*
X337500Y-133498D01*
Y-134810D01*
X337172Y-135138D01*
X336516D01*
X336188Y-134810D01*
Y-134154D01*
X336844D01*
X335532Y-135138D02*
Y-133170D01*
X334220Y-135138D01*
Y-133170D01*
X333564D02*
Y-135138D01*
X332580D01*
X332252Y-134810D01*
Y-133498D01*
X332580Y-133170D01*
X333564D01*
X57800Y-192532D02*
Y-193844D01*
X57144Y-194500D01*
X56488Y-193844D01*
Y-192532D01*
X54520Y-192860D02*
X54848Y-192532D01*
X55504D01*
X55832Y-192860D01*
Y-194172D01*
X55504Y-194500D01*
X54848D01*
X54520Y-194172D01*
X52552Y-192860D02*
X52880Y-192532D01*
X53536D01*
X53864Y-192860D01*
Y-194172D01*
X53536Y-194500D01*
X52880D01*
X52552Y-194172D01*
X66488Y-192760D02*
X66816Y-192432D01*
X67472D01*
X67800Y-192760D01*
Y-194072D01*
X67472Y-194400D01*
X66816D01*
X66488Y-194072D01*
Y-193416D01*
X67144D01*
X65832Y-194400D02*
Y-192432D01*
X64520Y-194400D01*
Y-192432D01*
X63864D02*
Y-194400D01*
X62880D01*
X62552Y-194072D01*
Y-192760D01*
X62880Y-192432D01*
X63864D01*
M02*
