G04*
G04 #@! TF.GenerationSoftware,Altium Limited,Altium Designer,24.4.1 (13)*
G04*
G04 Layer_Color=65535*
%FSLAX25Y25*%
%MOIN*%
G70*
G04*
G04 #@! TF.SameCoordinates,A9874F04-4083-4E43-9FC9-20C7E77B936A*
G04*
G04*
G04 #@! TF.FilePolarity,Positive*
G04*
G01*
G75*
%ADD10C,0.01000*%
%ADD11C,0.00984*%
%ADD12C,0.00787*%
%ADD13C,0.02362*%
%ADD14C,0.01575*%
%ADD15C,0.00394*%
%ADD16C,0.01181*%
%ADD17C,0.00500*%
%ADD18C,0.00600*%
%ADD19C,0.00591*%
%ADD20C,0.00100*%
%ADD21C,0.00709*%
%ADD22R,3.74016X0.11811*%
G36*
X71358Y-221722D02*
X68858D01*
Y-224222D01*
X71358D01*
Y-221722D01*
D02*
G37*
G36*
X71624Y-203856D02*
X69124D01*
Y-206356D01*
X71624D01*
Y-203856D01*
D02*
G37*
G36*
X71398Y-185989D02*
X68898D01*
Y-188489D01*
X71398D01*
Y-185989D01*
D02*
G37*
G36*
X71496Y-168123D02*
X68996D01*
Y-170623D01*
X71496D01*
Y-168123D01*
D02*
G37*
G36*
X71329Y-150256D02*
X68829D01*
Y-152756D01*
X71329D01*
Y-150256D01*
D02*
G37*
G36*
X93504Y-133642D02*
X91004D01*
Y-131142D01*
X93504D01*
Y-133642D01*
D02*
G37*
G36*
X312953Y-139097D02*
X311453D01*
Y-138097D01*
X312953D01*
Y-139097D01*
D02*
G37*
G36*
X93504Y-152539D02*
X91004D01*
Y-150039D01*
X93504D01*
Y-152539D01*
D02*
G37*
G36*
Y-171713D02*
X91004D01*
Y-169213D01*
X93504D01*
Y-171713D01*
D02*
G37*
G36*
Y-190728D02*
X91004D01*
Y-188228D01*
X93504D01*
Y-190728D01*
D02*
G37*
G36*
Y-209114D02*
X91004D01*
Y-206614D01*
X93504D01*
Y-209114D01*
D02*
G37*
D10*
X114255Y-126279D02*
G03*
X114255Y-126279I-278J0D01*
G01*
Y-81890D02*
G03*
X114255Y-81890I-278J0D01*
G01*
Y-104085D02*
G03*
X114255Y-104085I-278J0D01*
G01*
Y-59695D02*
G03*
X114255Y-59695I-278J0D01*
G01*
Y-37500D02*
G03*
X114255Y-37500I-278J0D01*
G01*
X48669Y-206685D02*
X64669D01*
X48669Y-222685D02*
X64669D01*
X210630Y-193209D02*
X210630D01*
X209842Y-193996D02*
X210630Y-193209D01*
X209842Y-215846D02*
Y-193996D01*
Y-216142D02*
Y-215846D01*
Y-216142D02*
X210728Y-217028D01*
X234154Y-193012D02*
X235039Y-193898D01*
Y-194193D02*
Y-193898D01*
Y-216043D02*
Y-194193D01*
X234252Y-216831D02*
X235039Y-216043D01*
X234252Y-216831D02*
X234252D01*
X280677Y-120374D02*
X284646D01*
X284677Y-123949D02*
Y-122768D01*
X282677Y-120768D02*
X284677Y-122768D01*
X280677D02*
X282677Y-120768D01*
X280677Y-123949D02*
Y-122768D01*
Y-123949D02*
X284677D01*
X326083Y-37598D02*
Y-27756D01*
Y-37598D02*
X329626D01*
Y-27756D01*
X326083D02*
X329626D01*
X326082Y-86822D02*
X329626D01*
Y-96665D02*
Y-86822D01*
X326082Y-96665D02*
X329626D01*
X326082D02*
Y-86822D01*
X189272Y-145177D02*
X193240D01*
X189240Y-142783D02*
Y-141602D01*
Y-142783D02*
X191240Y-144783D01*
X193240Y-142783D01*
Y-141602D01*
X189240D02*
X193240D01*
X178413D02*
X182413D01*
Y-142783D02*
Y-141602D01*
X180413Y-144783D02*
X182413Y-142783D01*
X178413D02*
X180413Y-144783D01*
X178413Y-142783D02*
Y-141602D01*
X178445Y-145177D02*
X182413D01*
X167488Y-141602D02*
X171488D01*
Y-142783D02*
Y-141602D01*
X169488Y-144783D02*
X171488Y-142783D01*
X167488D02*
X169488Y-144783D01*
X167488Y-142783D02*
Y-141602D01*
X167520Y-145177D02*
X171488D01*
X227569Y-39228D02*
Y-35685D01*
X217726Y-39228D02*
X227569D01*
X217726D02*
Y-35685D01*
X227569D01*
X48669Y-135386D02*
X64669D01*
X48669Y-151386D02*
X64669D01*
X48669Y-153134D02*
X64669D01*
X48669Y-169134D02*
X64669D01*
X48669Y-170952D02*
X64669D01*
X48669Y-186952D02*
X64669D01*
X48669Y-188936D02*
X64669D01*
X48669Y-204937D02*
X64669D01*
X290650Y-123524D02*
X294618D01*
X290618Y-121130D02*
Y-119949D01*
Y-121130D02*
X292618Y-123130D01*
X294618Y-121130D01*
Y-119949D01*
X290618D02*
X294618D01*
D11*
X157560Y-195562D02*
G03*
X157560Y-195562I-492J0D01*
G01*
X225295Y-130512D02*
G03*
X225295Y-130512I-492J0D01*
G01*
X270765Y-208661D02*
G03*
X270765Y-208661I-394J0D01*
G01*
X295669Y-50571D02*
G03*
X295669Y-50571I-492J0D01*
G01*
X295866Y-80886D02*
G03*
X295866Y-80886I-492J0D01*
G01*
X165453Y-118996D02*
G03*
X165453Y-118996I-492J0D01*
G01*
X295669Y-21634D02*
G03*
X295669Y-21634I-492J0D01*
G01*
X204035Y-216949D02*
G03*
X204035Y-216949I-492J0D01*
G01*
D12*
X224134Y-175492D02*
G03*
X224134Y-175492I-394J0D01*
G01*
X271358Y-26476D02*
G03*
X271358Y-26476I-394J0D01*
G01*
X154790Y-71235D02*
G03*
X154790Y-71235I-394J0D01*
G01*
X167913Y-204665D02*
G03*
X167913Y-204665I-394J0D01*
G01*
X324153Y-188307D02*
G03*
X324153Y-188307I-394J0D01*
G01*
X343110Y-205413D02*
G03*
X343110Y-205413I-394J0D01*
G01*
X302229Y-166781D02*
G03*
X303479Y-166781I625J0D01*
G01*
X168898Y-65551D02*
G03*
X168898Y-65551I-394J0D01*
G01*
X213779Y-153445D02*
Y-136909D01*
X200394D02*
X213779D01*
X200394Y-153445D02*
Y-136909D01*
Y-153445D02*
X213779D01*
X154921Y-92520D02*
Y-75984D01*
X141535D02*
X154921D01*
X141535Y-92520D02*
Y-75984D01*
Y-92520D02*
X154921D01*
X295965Y-160433D02*
X312500D01*
Y-147047D01*
X295965D02*
X312500D01*
X295965Y-160433D02*
Y-147047D01*
X90165Y-107945D02*
X114165D01*
X90165Y-123945D02*
X114165D01*
X90165Y-117945D02*
Y-113945D01*
X114165Y-117945D02*
Y-113945D01*
X166307Y-214402D02*
Y-210402D01*
Y-214402D02*
X170307D01*
Y-210402D01*
X166307D02*
X170307D01*
X159153Y-216929D02*
Y-207874D01*
X177461Y-216929D02*
Y-207874D01*
X159153Y-216929D02*
X177461D01*
X159153Y-207874D02*
X177461D01*
X136182Y-208358D02*
Y-202058D01*
X155867Y-208358D02*
Y-202058D01*
X136182Y-208358D02*
X155867D01*
X136182Y-202058D02*
X155867D01*
X278150Y-131102D02*
Y-112795D01*
X287205Y-131102D02*
Y-112795D01*
X278150D02*
X287205D01*
X278150Y-131102D02*
X287205D01*
X280677Y-123949D02*
X284677D01*
X136063Y-177284D02*
X156063D01*
Y-187284D02*
Y-177284D01*
X136063Y-187284D02*
X156063D01*
X149311D02*
Y-177284D01*
X143063Y-182283D02*
X145063D01*
X144063Y-183283D02*
Y-181283D01*
X136063Y-187284D02*
Y-177284D01*
X229429Y-155217D02*
Y-132776D01*
X251870Y-155217D02*
Y-132776D01*
X229429D02*
X251870D01*
X229429Y-155217D02*
X251870D01*
X172736Y-26457D02*
Y-16457D01*
X222736D01*
X172736Y-26457D02*
X222736D01*
Y-16457D01*
X591Y-215354D02*
Y-159449D01*
Y-21260D01*
X12402Y-215354D02*
Y-159449D01*
Y-21260D01*
X305087Y-215773D02*
X306289Y-217224D01*
X305056Y-209856D02*
X306289Y-208366D01*
X321555Y-210138D02*
Y-208366D01*
X306289D02*
X321555D01*
X306289Y-217224D02*
X321555D01*
Y-215453D01*
X274998Y-209842D02*
X276179D01*
X274998Y-222047D02*
X276179D01*
X274998D02*
Y-209842D01*
X276179Y-222047D02*
Y-209842D01*
X301673Y-71457D02*
X307972D01*
X301673Y-51772D02*
X307972D01*
Y-71457D02*
Y-51772D01*
X301673Y-71457D02*
Y-51772D01*
X301279Y-101575D02*
Y-81890D01*
X308366Y-101575D02*
Y-81890D01*
X301279D02*
X308366D01*
X301279Y-101575D02*
X308366D01*
X373819Y-98917D02*
Y-16732D01*
Y-155118D02*
Y-98917D01*
X362008Y-58071D02*
Y-16831D01*
Y-155512D02*
Y-58071D01*
X195768Y-152756D02*
Y-134449D01*
X186713Y-152756D02*
Y-134449D01*
Y-152756D02*
X195768D01*
X186713Y-134449D02*
X195768D01*
X189240Y-141602D02*
X193240D01*
X297874Y-166781D02*
X302229D01*
X303479D02*
X307835D01*
Y-201782D02*
Y-166781D01*
X297874Y-201782D02*
X307835D01*
X297874D02*
Y-166781D01*
X144075Y-131791D02*
Y-125492D01*
X163760Y-131791D02*
Y-125492D01*
X144075Y-131791D02*
X163760D01*
X144075Y-125492D02*
X163760D01*
X178413Y-141602D02*
X182413D01*
X175886Y-134449D02*
X184941D01*
X175886Y-152756D02*
X184941D01*
X175886D02*
Y-134449D01*
X184941Y-152756D02*
Y-134449D01*
X167488Y-141602D02*
X171488D01*
X164961Y-134449D02*
X174016D01*
X164961Y-152756D02*
X174016D01*
X164961D02*
Y-134449D01*
X174016Y-152756D02*
Y-134449D01*
X114165Y-73555D02*
Y-69555D01*
X90165Y-73555D02*
Y-69555D01*
Y-79555D02*
X114165D01*
X90165Y-63555D02*
X114165D01*
X301673Y-42520D02*
X307972D01*
X301673Y-22835D02*
X307972D01*
Y-42520D02*
Y-22835D01*
X301673Y-42520D02*
Y-22835D01*
X114165Y-95750D02*
Y-91750D01*
X90165Y-95750D02*
Y-91750D01*
Y-101750D02*
X114165D01*
X90165Y-85750D02*
X114165D01*
X197638Y-215945D02*
Y-196260D01*
X190551Y-215945D02*
Y-196260D01*
Y-215945D02*
X197638D01*
X190551Y-196260D02*
X197638D01*
X90165Y-41360D02*
X114165D01*
X90165Y-57360D02*
X114165D01*
X90165Y-51360D02*
Y-47360D01*
X114165Y-51360D02*
Y-47360D01*
X90165Y-19165D02*
X114165D01*
X90165Y-35165D02*
X114165D01*
X90165Y-29165D02*
Y-25165D01*
X114165Y-29165D02*
Y-25165D01*
X297146Y-131102D02*
Y-112795D01*
X288090Y-131102D02*
Y-112795D01*
Y-131102D02*
X297146D01*
X288090Y-112795D02*
X297146D01*
X290618Y-119949D02*
X294618D01*
X238650Y-215773D02*
X239852Y-217224D01*
X238619Y-209855D02*
X239852Y-208366D01*
X255118Y-210138D02*
Y-208366D01*
X239852D02*
X255118D01*
X239852Y-217224D02*
X255118D01*
Y-215453D01*
X274410Y-116713D02*
Y-106713D01*
X224410Y-116713D02*
X274410D01*
X224410Y-106713D02*
X274410D01*
X224410Y-116713D02*
Y-106713D01*
X218433Y-50885D02*
Y-48130D01*
X219810D01*
X220269Y-48590D01*
Y-49508D01*
X219810Y-49967D01*
X218433D01*
X219351D02*
X220269Y-50885D01*
X223024D02*
X221188D01*
X223024Y-49049D01*
Y-48590D01*
X222565Y-48130D01*
X221647D01*
X221188Y-48590D01*
X223943D02*
X224402Y-48130D01*
X225320D01*
X225779Y-48590D01*
Y-50426D01*
X225320Y-50885D01*
X224402D01*
X223943Y-50426D01*
Y-48590D01*
D13*
X234547Y-136713D02*
G03*
X234547Y-136713I-1181J0D01*
G01*
D14*
X177165Y-67520D02*
G03*
X177165Y-67520I-787J0D01*
G01*
X34449Y-214961D02*
Y-21260D01*
X-11811D02*
X34449D01*
X-11811Y-214961D02*
X34449D01*
X-11811D02*
Y-21260D01*
X339961Y-155413D02*
Y-16732D01*
Y-155413D02*
X386221D01*
X339961Y-16732D02*
X386221D01*
Y-155413D02*
Y-16732D01*
D15*
X82249Y-140367D02*
Y-138767D01*
Y-140367D02*
X86649D01*
Y-138767D01*
X82249D02*
X86649D01*
X80709Y-145472D02*
X88189D01*
Y-133661D01*
X80709Y-145472D02*
Y-133661D01*
X88189D01*
X86649Y-154934D02*
Y-153334D01*
X82249D02*
X86649D01*
X82249Y-154934D02*
Y-153334D01*
Y-154934D02*
X86649D01*
X80709Y-148228D02*
X88189D01*
X80709Y-160039D02*
Y-148228D01*
X88189Y-160039D02*
Y-148228D01*
X80709Y-160039D02*
X88189D01*
X86255Y-172453D02*
Y-170853D01*
X81855D02*
X86255D01*
X81855Y-172453D02*
Y-170853D01*
Y-172453D02*
X86255D01*
X80315Y-165748D02*
X87795D01*
X80315Y-177559D02*
Y-165748D01*
X87795Y-177559D02*
Y-165748D01*
X80315Y-177559D02*
X87795D01*
X86255Y-191154D02*
Y-189554D01*
X81855D02*
X86255D01*
X81855Y-191154D02*
Y-189554D01*
Y-191154D02*
X86255D01*
X80315Y-184449D02*
X87795D01*
X80315Y-196260D02*
Y-184449D01*
X87795Y-196260D02*
Y-184449D01*
X80315Y-196260D02*
X87795D01*
X86255Y-209658D02*
Y-208058D01*
X81855D02*
X86255D01*
X81855Y-209658D02*
Y-208058D01*
Y-209658D02*
X86255D01*
X80315Y-202953D02*
X87795D01*
X80315Y-214764D02*
Y-202953D01*
X87795Y-214764D02*
Y-202953D01*
X80315Y-214764D02*
X87795D01*
X132382Y-73819D02*
Y-68307D01*
Y-73819D02*
X143405D01*
Y-68307D01*
X132382D02*
X143405D01*
X138494Y-72763D02*
Y-69363D01*
X137294Y-72763D02*
Y-69363D01*
X60039Y-134449D02*
X75787D01*
X77756Y-132480D01*
Y-112795D01*
X77756D02*
X77756D01*
X75787Y-110827D02*
X77756Y-112795D01*
X51181Y-110827D02*
X75787D01*
X49213Y-112795D02*
X51181Y-110827D01*
X49213Y-132480D02*
Y-112795D01*
Y-132480D02*
X51181Y-134449D01*
X60039D01*
X164754Y-57605D02*
Y-54206D01*
X165954Y-57605D02*
Y-54206D01*
X159843Y-53150D02*
X170866D01*
Y-58661D02*
Y-53150D01*
X159843Y-58661D02*
X170866D01*
X159843D02*
Y-53150D01*
X330709Y-165847D02*
Y-160335D01*
X319685D02*
X330709D01*
X319685Y-165847D02*
Y-160335D01*
Y-165847D02*
X330709D01*
X324597Y-164791D02*
Y-161391D01*
X325797Y-164791D02*
Y-161391D01*
X151348Y-152353D02*
X155048D01*
X151348Y-153553D02*
Y-152353D01*
Y-153553D02*
X155048D01*
Y-152353D01*
X156004Y-158071D02*
Y-147835D01*
X150492Y-158071D02*
X156004D01*
X150492D02*
Y-147835D01*
X156004D01*
X218279Y-58474D02*
X221979D01*
Y-57274D01*
X218279D02*
X221979D01*
X218279Y-58474D02*
Y-57274D01*
X217323Y-62992D02*
Y-52756D01*
X222835D01*
Y-62992D02*
Y-52756D01*
X217323Y-62992D02*
X222835D01*
X191573Y-44183D02*
X195273D01*
X191573Y-45384D02*
Y-44183D01*
Y-45384D02*
X195273D01*
Y-44183D01*
X196229Y-49902D02*
Y-39665D01*
X190717Y-49902D02*
X196229D01*
X190717D02*
Y-39665D01*
X196229D01*
X144488Y-147835D02*
X150000D01*
X144488Y-158071D02*
Y-147835D01*
Y-158071D02*
X150000D01*
Y-147835D01*
X149044Y-153553D02*
Y-152353D01*
X145344Y-153553D02*
X149044D01*
X145344D02*
Y-152353D01*
X149044D01*
X190059Y-123228D02*
X195571D01*
Y-112992D01*
X190059D02*
X195571D01*
X190059Y-123228D02*
Y-112992D01*
X191015Y-118710D02*
Y-117510D01*
X194715D01*
Y-118710D02*
Y-117510D01*
X191015Y-118710D02*
X194715D01*
X183957Y-123228D02*
X189469D01*
Y-112992D01*
X183957D02*
X189469D01*
X183957Y-123228D02*
Y-112992D01*
X184913Y-118710D02*
Y-117510D01*
X188613D01*
Y-118710D02*
Y-117510D01*
X184913Y-118710D02*
X188613D01*
X196161Y-123228D02*
X201673D01*
Y-112992D01*
X196161D02*
X201673D01*
X196161Y-123228D02*
Y-112992D01*
X197117Y-118710D02*
Y-117510D01*
X200817D01*
Y-118710D02*
Y-117510D01*
X197117Y-118710D02*
X200817D01*
X330413Y-177953D02*
Y-172441D01*
X320177D02*
X330413D01*
X320177Y-177953D02*
Y-172441D01*
Y-177953D02*
X330413D01*
X324695Y-176997D02*
X325895D01*
X324695D02*
Y-173297D01*
X325895D01*
Y-176997D02*
Y-173297D01*
X325797Y-170794D02*
Y-167394D01*
X324597Y-170794D02*
Y-167394D01*
X319685Y-171850D02*
X330709D01*
X319685D02*
Y-166339D01*
X330709D01*
Y-171850D02*
Y-166339D01*
X273130Y-196752D02*
Y-191240D01*
Y-196752D02*
X283366D01*
Y-191240D01*
X273130D02*
X283366D01*
X277648Y-192196D02*
X278848D01*
Y-195896D02*
Y-192196D01*
X277648Y-195896D02*
X278848D01*
X277648D02*
Y-192196D01*
X204205Y-118612D02*
X207606D01*
X204205Y-117412D02*
X207606D01*
X203150Y-123524D02*
Y-112500D01*
X208661D01*
Y-123524D02*
Y-112500D01*
X203150Y-123524D02*
X208661D01*
X335630Y-175492D02*
X341142D01*
X335630Y-185728D02*
Y-175492D01*
Y-185728D02*
X341142D01*
Y-175492D01*
X340186Y-181210D02*
Y-180010D01*
X336486Y-181210D02*
X340186D01*
X336486D02*
Y-180010D01*
X340186D01*
X261319Y-160827D02*
X266831D01*
Y-150591D01*
X261319D02*
X266831D01*
X261319Y-160827D02*
Y-150591D01*
X262275Y-156309D02*
Y-155109D01*
X265975D01*
Y-156309D02*
Y-155109D01*
X262275Y-156309D02*
X265975D01*
X274410Y-148031D02*
Y-142520D01*
X264173D02*
X274410D01*
X264173Y-148031D02*
Y-142520D01*
Y-148031D02*
X274410D01*
X268691Y-147076D02*
X269891D01*
X268691D02*
Y-143376D01*
X269891D01*
Y-147076D02*
Y-143376D01*
X268012Y-160827D02*
X273524D01*
Y-150591D01*
X268012D02*
X273524D01*
X268012Y-160827D02*
Y-150591D01*
X268968Y-156309D02*
Y-155109D01*
X272668D01*
Y-156309D02*
Y-155109D01*
X268968Y-156309D02*
X272668D01*
X261319Y-171555D02*
X266831D01*
Y-161319D01*
X261319D02*
X266831D01*
X261319Y-171555D02*
Y-161319D01*
X262275Y-167037D02*
Y-165837D01*
X265975D01*
Y-167037D02*
Y-165837D01*
X262275Y-167037D02*
X265975D01*
X212608Y-129064D02*
Y-125364D01*
X211408D02*
X212608D01*
X211408Y-129064D02*
Y-125364D01*
Y-129064D02*
X212608D01*
X206890Y-130020D02*
X217126D01*
X206890D02*
Y-124508D01*
X217126D01*
Y-130020D02*
Y-124508D01*
X217717Y-123917D02*
Y-118405D01*
Y-123917D02*
X228740D01*
Y-118405D01*
X217717D02*
X228740D01*
X223828Y-122861D02*
Y-119461D01*
X222628Y-122861D02*
Y-119461D01*
X325679Y-84411D02*
Y-80711D01*
Y-84411D02*
X326879D01*
Y-80711D01*
X325679D02*
X326879D01*
X321161Y-79755D02*
X331397D01*
Y-85267D02*
Y-79755D01*
X321161Y-85267D02*
X331397D01*
X321161D02*
Y-79755D01*
X146161Y-98425D02*
X151673D01*
X146161Y-108661D02*
Y-98425D01*
Y-108661D02*
X151673D01*
Y-98425D01*
X150717Y-104143D02*
Y-102943D01*
X147017Y-104143D02*
X150717D01*
X147017D02*
Y-102943D01*
X150717D01*
X152264Y-108957D02*
X157776D01*
Y-97933D01*
X152264D02*
X157776D01*
X152264Y-108957D02*
Y-97933D01*
X153320Y-102845D02*
X156720D01*
X153320Y-104045D02*
X156720D01*
X310433Y-50098D02*
Y-44587D01*
X299410D02*
X310433D01*
X299410Y-50098D02*
Y-44587D01*
Y-50098D02*
X310433D01*
X304321Y-49042D02*
Y-45643D01*
X305521Y-49042D02*
Y-45643D01*
X325098Y-51378D02*
X330610D01*
X325098Y-61614D02*
Y-51378D01*
Y-61614D02*
X330610D01*
Y-51378D01*
X329654Y-57096D02*
Y-55896D01*
X325954Y-57096D02*
X329654D01*
X325954D02*
Y-55896D01*
X329654D01*
X299410Y-21457D02*
Y-15945D01*
Y-21457D02*
X310433D01*
Y-15945D01*
X299410D02*
X310433D01*
X305521Y-20401D02*
Y-17001D01*
X304321Y-20401D02*
Y-17001D01*
X201673Y-159646D02*
Y-154134D01*
Y-159646D02*
X212697D01*
Y-154134D01*
X201673D02*
X212697D01*
X207785Y-158590D02*
Y-155190D01*
X206585Y-158590D02*
Y-155190D01*
X212697Y-136122D02*
Y-130610D01*
X201673D02*
X212697D01*
X201673Y-136122D02*
Y-130610D01*
Y-136122D02*
X212697D01*
X206585Y-135066D02*
Y-131666D01*
X207785Y-135066D02*
Y-131666D01*
X191446Y-193532D02*
Y-189832D01*
X190246D02*
X191446D01*
X190246Y-193532D02*
Y-189832D01*
Y-193532D02*
X191446D01*
X185728Y-194488D02*
X195965D01*
X185728D02*
Y-188976D01*
X195965D01*
Y-194488D02*
Y-188976D01*
X236319Y-168504D02*
X241831D01*
X236319Y-178740D02*
Y-168504D01*
Y-178740D02*
X241831D01*
Y-168504D01*
X240875Y-174222D02*
Y-173022D01*
X237175Y-174222D02*
X240875D01*
X237175D02*
Y-173022D01*
X240875D01*
X239665Y-123917D02*
Y-118405D01*
X229429D02*
X239665D01*
X229429Y-123917D02*
Y-118405D01*
Y-123917D02*
X239665D01*
X233947Y-122961D02*
X235147D01*
X233947D02*
Y-119261D01*
X235147D01*
Y-122961D02*
Y-119261D01*
X274213Y-129921D02*
Y-124409D01*
X263976D02*
X274213D01*
X263976Y-129921D02*
Y-124409D01*
Y-129921D02*
X274213D01*
X268495Y-128965D02*
X269694D01*
X268495D02*
Y-125265D01*
X269694D01*
Y-128965D02*
Y-125265D01*
X336586Y-204832D02*
X340286D01*
Y-203632D01*
X336586D02*
X340286D01*
X336586Y-204832D02*
Y-203632D01*
X335630Y-209350D02*
Y-199114D01*
X341142D01*
Y-209350D02*
Y-199114D01*
X335630Y-209350D02*
X341142D01*
X137294Y-62724D02*
Y-59324D01*
X138494Y-62724D02*
Y-59324D01*
X132382Y-58268D02*
X143405D01*
Y-63779D02*
Y-58268D01*
X132382Y-63779D02*
X143405D01*
X132382D02*
Y-58268D01*
X304124Y-78964D02*
Y-75564D01*
X305324Y-78964D02*
Y-75564D01*
X299213Y-74508D02*
X310236D01*
Y-80020D02*
Y-74508D01*
X299213Y-80020D02*
X310236D01*
X299213D02*
Y-74508D01*
X327040Y-150206D02*
X330440D01*
X327040Y-149006D02*
X330440D01*
X325984Y-155118D02*
Y-144095D01*
X331496D01*
Y-155118D02*
Y-144095D01*
X325984Y-155118D02*
X331496D01*
X321135Y-150206D02*
X324535D01*
X321135Y-149006D02*
X324535D01*
X320079Y-155118D02*
Y-144095D01*
X325591D01*
Y-155118D02*
Y-144095D01*
X320079Y-155118D02*
X325591D01*
X315229Y-150206D02*
X318629D01*
X315229Y-149006D02*
X318629D01*
X314173Y-155118D02*
Y-144095D01*
X319685D01*
Y-155118D02*
Y-144095D01*
X314173Y-155118D02*
X319685D01*
X306174Y-123041D02*
X309574D01*
X306174Y-121841D02*
X309574D01*
X305118Y-127953D02*
Y-116929D01*
X310630D01*
Y-127953D02*
Y-116929D01*
X305118Y-127953D02*
X310630D01*
X306174Y-136033D02*
X309574D01*
X306174Y-134833D02*
X309574D01*
X305118Y-140945D02*
Y-129921D01*
X310630D01*
Y-140945D02*
Y-129921D01*
X305118Y-140945D02*
X310630D01*
X215256Y-43602D02*
Y-38091D01*
X205020D02*
X215256D01*
X205020Y-43602D02*
Y-38091D01*
Y-43602D02*
X215256D01*
X209538Y-42647D02*
X210738D01*
X209538D02*
Y-38947D01*
X210738D01*
Y-42647D02*
Y-38947D01*
X205020Y-37598D02*
Y-32087D01*
Y-37598D02*
X215256D01*
Y-32087D01*
X205020D02*
X215256D01*
X209538Y-33042D02*
X210738D01*
Y-36742D02*
Y-33042D01*
X209538Y-36742D02*
X210738D01*
X209538D02*
Y-33042D01*
X331397Y-103673D02*
Y-98161D01*
X321161D02*
X331397D01*
X321161Y-103673D02*
Y-98161D01*
Y-103673D02*
X331397D01*
X325679Y-102717D02*
X326879D01*
X325679D02*
Y-99017D01*
X326879D01*
Y-102717D02*
Y-99017D01*
X255512Y-223622D02*
Y-218110D01*
Y-223622D02*
X266535D01*
Y-218110D01*
X255512D02*
X266535D01*
X261624Y-222566D02*
Y-219166D01*
X260424Y-222566D02*
Y-219166D01*
X294488Y-218110D02*
Y-212598D01*
X283465D02*
X294488D01*
X283465Y-218110D02*
Y-212598D01*
Y-218110D02*
X294488D01*
X288376Y-217054D02*
Y-213654D01*
X289576Y-217054D02*
Y-213654D01*
X294488Y-223622D02*
Y-218110D01*
X283465D02*
X294488D01*
X283465Y-223622D02*
Y-218110D01*
Y-223622D02*
X294488D01*
X288376Y-222566D02*
Y-219166D01*
X289576Y-222566D02*
Y-219166D01*
X60138Y-39547D02*
X75886D01*
X77854Y-37579D01*
Y-17894D01*
X77854D02*
X77854D01*
X75886Y-15925D02*
X77854Y-17894D01*
X51279Y-15925D02*
X75886D01*
X49311Y-17894D02*
X51279Y-15925D01*
X49311Y-37579D02*
Y-17894D01*
Y-37579D02*
X51279Y-39547D01*
X60138D01*
X51378Y-63189D02*
X60236D01*
X49409Y-61221D02*
X51378Y-63189D01*
X49409Y-61221D02*
Y-41535D01*
X51378Y-39567D01*
X75984D01*
X77953Y-41535D01*
X77953D01*
Y-61221D02*
Y-41535D01*
X75984Y-63189D02*
X77953Y-61221D01*
X60236Y-63189D02*
X75984D01*
X60236Y-86811D02*
X75984D01*
X77953Y-84842D01*
Y-65158D01*
X77953D02*
X77953D01*
X75984Y-63189D02*
X77953Y-65158D01*
X51378Y-63189D02*
X75984D01*
X49409Y-65158D02*
X51378Y-63189D01*
X49409Y-84842D02*
Y-65158D01*
Y-84842D02*
X51378Y-86811D01*
X60236D01*
X51378Y-110630D02*
X60236D01*
X49409Y-108661D02*
X51378Y-110630D01*
X49409Y-108661D02*
Y-88976D01*
X51378Y-87008D01*
X75984D01*
X77953Y-88976D01*
X77953D01*
Y-108661D02*
Y-88976D01*
X75984Y-110630D02*
X77953Y-108661D01*
X60236Y-110630D02*
X75984D01*
X133947Y-81129D02*
Y-77729D01*
X135147Y-81129D02*
Y-77729D01*
X129035Y-76673D02*
X140059D01*
Y-82185D02*
Y-76673D01*
X129035Y-82185D02*
X140059D01*
X129035D02*
Y-76673D01*
X79499Y-22450D02*
X83199D01*
Y-21250D01*
X79499D02*
X83199D01*
X79499Y-22450D02*
Y-21250D01*
X78543Y-26969D02*
Y-16732D01*
X84055D01*
Y-26969D02*
Y-16732D01*
X78543Y-26969D02*
X84055D01*
X79499Y-34262D02*
X83199D01*
Y-33062D01*
X79499D02*
X83199D01*
X79499Y-34262D02*
Y-33062D01*
X78543Y-38780D02*
Y-28543D01*
X84055D01*
Y-38780D02*
Y-28543D01*
X78543Y-38780D02*
X84055D01*
X79499Y-46073D02*
X83199D01*
Y-44872D01*
X79499D02*
X83199D01*
X79499Y-46073D02*
Y-44872D01*
X78543Y-50591D02*
Y-40354D01*
X84055D01*
Y-50591D02*
Y-40354D01*
X78543Y-50591D02*
X84055D01*
X79499Y-57884D02*
X83199D01*
Y-56683D01*
X79499D02*
X83199D01*
X79499Y-57884D02*
Y-56683D01*
X78543Y-62402D02*
Y-52165D01*
X84055D01*
Y-62402D02*
Y-52165D01*
X78543Y-62402D02*
X84055D01*
X74972Y-212608D02*
X78672D01*
Y-211408D01*
X74972D02*
X78672D01*
X74972Y-212608D02*
Y-211408D01*
X74016Y-217126D02*
Y-206890D01*
X79528D01*
Y-217126D02*
Y-206890D01*
X74016Y-217126D02*
X79528D01*
X74972Y-195384D02*
X78672D01*
Y-194184D01*
X74972D02*
X78672D01*
X74972Y-195384D02*
Y-194184D01*
X74016Y-199902D02*
Y-189665D01*
X79528D01*
Y-199902D02*
Y-189665D01*
X74016Y-199902D02*
X79528D01*
X112017Y-188021D02*
Y-184320D01*
X110817D02*
X112017D01*
X110817Y-188021D02*
Y-184320D01*
Y-188021D02*
X112017D01*
X106299Y-188976D02*
X116535D01*
X106299D02*
Y-183465D01*
X116535D01*
Y-188976D02*
Y-183465D01*
X100403Y-206621D02*
Y-203221D01*
X99203Y-206621D02*
Y-203221D01*
X94291Y-207677D02*
X105315D01*
X94291D02*
Y-202165D01*
X105315D01*
Y-207677D02*
Y-202165D01*
X133947Y-90972D02*
Y-87572D01*
X135147Y-90972D02*
Y-87572D01*
X129035Y-86516D02*
X140059D01*
Y-92028D02*
Y-86516D01*
X129035Y-92028D02*
X140059D01*
X129035D02*
Y-86516D01*
X159422Y-104045D02*
X162822D01*
X159422Y-102845D02*
X162822D01*
X158366Y-108957D02*
Y-97933D01*
X163878D01*
Y-108957D02*
Y-97933D01*
X158366Y-108957D02*
X163878D01*
X118376Y-95561D02*
X122076D01*
X118376Y-96761D02*
Y-95561D01*
Y-96761D02*
X122076D01*
Y-95561D01*
X123031Y-101279D02*
Y-91043D01*
X117520Y-101279D02*
X123031D01*
X117520D02*
Y-91043D01*
X123031D01*
X118376Y-117116D02*
X122076D01*
X118376Y-118316D02*
Y-117116D01*
Y-118316D02*
X122076D01*
Y-117116D01*
X123031Y-122835D02*
Y-112598D01*
X117520Y-122835D02*
X123031D01*
X117520D02*
Y-112598D01*
X123031D01*
X112411Y-130934D02*
Y-127234D01*
X111211D02*
X112411D01*
X111211Y-130934D02*
Y-127234D01*
Y-130934D02*
X112411D01*
X106693Y-131890D02*
X116929D01*
X106693D02*
Y-126378D01*
X116929D01*
Y-131890D02*
Y-126378D01*
X125462Y-138180D02*
X129162D01*
X125462Y-139380D02*
Y-138180D01*
Y-139380D02*
X129162D01*
Y-138180D01*
X130118Y-143898D02*
Y-133661D01*
X124606Y-143898D02*
X130118D01*
X124606D02*
Y-133661D01*
X130118D01*
X100403Y-130834D02*
Y-127434D01*
X99203Y-130834D02*
Y-127434D01*
X94291Y-131890D02*
X105315D01*
X94291D02*
Y-126378D01*
X105315D01*
Y-131890D02*
Y-126378D01*
X79499Y-69695D02*
X83199D01*
Y-68494D01*
X79499D02*
X83199D01*
X79499Y-69695D02*
Y-68494D01*
X78543Y-74213D02*
Y-63976D01*
X84055D01*
Y-74213D02*
Y-63976D01*
X78543Y-74213D02*
X84055D01*
X79499Y-81506D02*
X83199D01*
Y-80305D01*
X79499D02*
X83199D01*
X79499Y-81506D02*
Y-80305D01*
X78543Y-86024D02*
Y-75787D01*
X84055D01*
Y-86024D02*
Y-75787D01*
X78543Y-86024D02*
X84055D01*
X79499Y-93317D02*
X83199D01*
Y-92117D01*
X79499D02*
X83199D01*
X79499Y-93317D02*
Y-92117D01*
X78543Y-97835D02*
Y-87599D01*
X84055D01*
Y-97835D02*
Y-87599D01*
X78543Y-97835D02*
X84055D01*
X79499Y-105128D02*
X83199D01*
Y-103928D01*
X79499D02*
X83199D01*
X79499Y-105128D02*
Y-103928D01*
X78543Y-109646D02*
Y-99410D01*
X84055D01*
Y-109646D02*
Y-99410D01*
X78543Y-109646D02*
X84055D01*
X79499Y-116939D02*
X83199D01*
Y-115739D01*
X79499D02*
X83199D01*
X79499Y-116939D02*
Y-115739D01*
X78543Y-121457D02*
Y-111221D01*
X84055D01*
Y-121457D02*
Y-111221D01*
X78543Y-121457D02*
X84055D01*
X79499Y-128750D02*
X83199D01*
Y-127550D01*
X79499D02*
X83199D01*
X79499Y-128750D02*
Y-127550D01*
X78543Y-133268D02*
Y-123031D01*
X84055D01*
Y-133268D02*
Y-123031D01*
X78543Y-133268D02*
X84055D01*
X74972Y-144104D02*
X78672D01*
Y-142904D01*
X74972D02*
X78672D01*
X74972Y-144104D02*
Y-142904D01*
X74016Y-148622D02*
Y-138386D01*
X79528D01*
Y-148622D02*
Y-138386D01*
X74016Y-148622D02*
X79528D01*
X74972Y-160935D02*
X78672D01*
Y-159735D01*
X74972D02*
X78672D01*
X74972Y-160935D02*
Y-159735D01*
X74016Y-165453D02*
Y-155217D01*
X79528D01*
Y-165453D02*
Y-155217D01*
X74016Y-165453D02*
X79528D01*
X74972Y-178159D02*
X78672D01*
Y-176959D01*
X74972D02*
X78672D01*
X74972Y-178159D02*
Y-176959D01*
X74016Y-182677D02*
Y-172441D01*
X79528D01*
Y-182677D02*
Y-172441D01*
X74016Y-182677D02*
X79528D01*
X112411Y-206721D02*
Y-203021D01*
X111211D02*
X112411D01*
X111211Y-206721D02*
Y-203021D01*
Y-206721D02*
X112411D01*
X106693Y-207677D02*
X116929D01*
X106693D02*
Y-202165D01*
X116929D01*
Y-207677D02*
Y-202165D01*
X125462Y-176073D02*
X129162D01*
X125462Y-177273D02*
Y-176073D01*
Y-177273D02*
X129162D01*
Y-176073D01*
X130118Y-181791D02*
Y-171555D01*
X124606Y-181791D02*
X130118D01*
X124606D02*
Y-171555D01*
X130118D01*
X125462Y-195020D02*
X129162D01*
X125462Y-196220D02*
Y-195020D01*
Y-196220D02*
X129162D01*
Y-195020D01*
X130118Y-200738D02*
Y-190502D01*
X124606Y-200738D02*
X130118D01*
X124606D02*
Y-190502D01*
X130118D01*
X125562Y-215167D02*
X129262D01*
Y-213967D01*
X125562D02*
X129262D01*
X125562Y-215167D02*
Y-213967D01*
X124606Y-219685D02*
Y-209449D01*
X130118D01*
Y-219685D02*
Y-209449D01*
X124606Y-219685D02*
X130118D01*
X269694Y-134869D02*
Y-131469D01*
X268495Y-134869D02*
Y-131469D01*
X263583Y-135925D02*
X274606D01*
X263583D02*
Y-130413D01*
X274606D01*
Y-135925D02*
Y-130413D01*
X268691Y-141073D02*
Y-137373D01*
Y-141073D02*
X269891D01*
Y-137373D01*
X268691D02*
X269891D01*
X264173Y-136417D02*
X274410D01*
Y-141929D02*
Y-136417D01*
X264173Y-141929D02*
X274410D01*
X264173D02*
Y-136417D01*
X269694Y-122961D02*
Y-119261D01*
X268495D02*
X269694D01*
X268495Y-122961D02*
Y-119261D01*
Y-122961D02*
X269694D01*
X263976Y-123917D02*
X274213D01*
X263976D02*
Y-118405D01*
X274213D01*
Y-123917D02*
Y-118405D01*
X255387Y-174124D02*
X258787D01*
X255387Y-172924D02*
X258787D01*
X254331Y-179035D02*
Y-168012D01*
X259842D01*
Y-179035D02*
Y-168012D01*
X254331Y-179035D02*
X259842D01*
X249183Y-173022D02*
X252883D01*
X249183Y-174222D02*
Y-173022D01*
Y-174222D02*
X252883D01*
Y-173022D01*
X253839Y-178740D02*
Y-168504D01*
X248327Y-178740D02*
X253839D01*
X248327D02*
Y-168504D01*
X253839D01*
X243179Y-173022D02*
X246879D01*
X243179Y-174222D02*
Y-173022D01*
Y-174222D02*
X246879D01*
Y-173022D01*
X247835Y-178740D02*
Y-168504D01*
X242323Y-178740D02*
X247835D01*
X242323D02*
Y-168504D01*
X247835D01*
X231371Y-174222D02*
X234771D01*
X231371Y-173022D02*
X234771D01*
X230315Y-179134D02*
Y-168110D01*
X235827D01*
Y-179134D02*
Y-168110D01*
X230315Y-179134D02*
X235827D01*
X178615Y-118710D02*
X182015D01*
X178615Y-117510D02*
X182015D01*
X177559Y-123622D02*
Y-112598D01*
X183071D01*
Y-123622D02*
Y-112598D01*
X177559Y-123622D02*
X183071D01*
X212178Y-57471D02*
X215578D01*
X212178Y-58671D02*
X215578D01*
X216634Y-63583D02*
Y-52559D01*
X211122Y-63583D02*
X216634D01*
X211122D02*
Y-52559D01*
X216634D01*
X174776Y-44479D02*
X178176D01*
X174776Y-45679D02*
X178176D01*
X179232Y-50591D02*
Y-39567D01*
X173721Y-50591D02*
X179232D01*
X173721D02*
Y-39567D01*
X179232D01*
X203454Y-193432D02*
Y-190032D01*
X202254Y-193432D02*
Y-190032D01*
X197343Y-194488D02*
X208366D01*
X197343D02*
Y-188976D01*
X208366D01*
Y-194488D02*
Y-188976D01*
X179990Y-188770D02*
X183690D01*
X179990Y-189970D02*
Y-188770D01*
Y-189970D02*
X183690D01*
Y-188770D01*
X184646Y-194488D02*
Y-184252D01*
X179134Y-194488D02*
X184646D01*
X179134D02*
Y-184252D01*
X184646D01*
X145168Y-174242D02*
Y-170543D01*
Y-174242D02*
X146368D01*
Y-170543D01*
X145168D02*
X146368D01*
X140650Y-169587D02*
X150886D01*
Y-175098D02*
Y-169587D01*
X140650Y-175098D02*
X150886D01*
X140650D02*
Y-169587D01*
X125462Y-157126D02*
X129162D01*
X125462Y-158326D02*
Y-157126D01*
Y-158326D02*
X129162D01*
Y-157126D01*
X130118Y-162845D02*
Y-152608D01*
X124606Y-162845D02*
X130118D01*
X124606D02*
Y-152608D01*
X130118D01*
X118376Y-72431D02*
X122076D01*
X118376Y-73632D02*
Y-72431D01*
Y-73632D02*
X122076D01*
Y-72431D01*
X123031Y-78150D02*
Y-67913D01*
X117520Y-78150D02*
X123031D01*
X117520D02*
Y-67913D01*
X123031D01*
X118476Y-57687D02*
X122176D01*
Y-56487D01*
X118476D02*
X122176D01*
X118476Y-57687D02*
Y-56487D01*
X117520Y-62205D02*
Y-51968D01*
X123031D01*
Y-62205D02*
Y-51968D01*
X117520Y-62205D02*
X123031D01*
X118476Y-36230D02*
X122176D01*
Y-35030D01*
X118476D02*
X122176D01*
X118476Y-36230D02*
Y-35030D01*
X117520Y-40748D02*
Y-30512D01*
X123031D01*
Y-40748D02*
Y-30512D01*
X117520Y-40748D02*
X123031D01*
X100010Y-187920D02*
Y-184520D01*
X98809Y-187920D02*
Y-184520D01*
X93898Y-188976D02*
X104921D01*
X93898D02*
Y-183465D01*
X104921D01*
Y-188976D02*
Y-183465D01*
X112411Y-169320D02*
Y-165620D01*
X111211D02*
X112411D01*
X111211Y-169320D02*
Y-165620D01*
Y-169320D02*
X112411D01*
X106693Y-170276D02*
X116929D01*
X106693D02*
Y-164764D01*
X116929D01*
Y-170276D02*
Y-164764D01*
X100403Y-169023D02*
Y-165623D01*
X99203Y-169023D02*
Y-165623D01*
X94291Y-170079D02*
X105315D01*
X94291D02*
Y-164567D01*
X105315D01*
Y-170079D02*
Y-164567D01*
X112411Y-149831D02*
Y-146132D01*
X111211D02*
X112411D01*
X111211Y-149831D02*
Y-146132D01*
Y-149831D02*
X112411D01*
X106693Y-150787D02*
X116929D01*
X106693D02*
Y-145276D01*
X116929D01*
Y-150787D02*
Y-145276D01*
X100403Y-149928D02*
Y-146528D01*
X99203Y-149928D02*
Y-146528D01*
X94291Y-150984D02*
X105315D01*
X94291D02*
Y-145472D01*
X105315D01*
Y-150984D02*
Y-145472D01*
D16*
X94504Y-219614D02*
X117504D01*
X94504Y-208614D02*
X117504D01*
X94504Y-144142D02*
X117504D01*
X94504Y-133142D02*
X117504D01*
X94504Y-201228D02*
X117504D01*
X94504Y-190228D02*
X117504D01*
X94504Y-182213D02*
X117504D01*
X94504Y-171213D02*
X117504D01*
X94504Y-163039D02*
X117504D01*
X94504Y-152039D02*
X117504D01*
D17*
X189370Y-183957D02*
X218110D01*
X189370Y-167027D02*
X218110D01*
X268996Y-52854D02*
Y-43091D01*
X233563Y-52854D02*
X268996D01*
X233563D02*
Y-43091D01*
Y-27185D02*
Y-17421D01*
X268996D01*
Y-27185D02*
Y-17421D01*
X133002Y-40157D02*
X136909Y-44165D01*
Y-46142D02*
Y-44165D01*
Y-46142D02*
X156595D01*
Y-44165D01*
X160502Y-40157D01*
Y-20472D02*
Y-14646D01*
X133002D02*
X160502D01*
X133002Y-20472D02*
Y-14646D01*
X167126Y-51476D02*
Y-49114D01*
X164272Y-48720D02*
X166240D01*
X164272Y-51870D02*
X166240D01*
X152362Y-67835D02*
Y-64449D01*
X146457Y-67835D02*
Y-64449D01*
X175984Y-200098D02*
Y-171358D01*
X159055Y-200098D02*
Y-171358D01*
X330620Y-198189D02*
X337018D01*
X330620Y-185866D02*
X337018D01*
X373307Y-209626D02*
X378150D01*
Y-174429D01*
X373307D02*
X378150D01*
X356850D02*
X362520D01*
X356850Y-209626D02*
X362520D01*
D18*
X334664Y-135441D02*
Y-119118D01*
X313564Y-135441D02*
Y-119118D01*
D19*
X172047Y-66929D02*
X175787Y-63189D01*
X206496D01*
X210236Y-66929D01*
Y-97638D02*
Y-66929D01*
X206496Y-101378D02*
X210236Y-97638D01*
X175787Y-101378D02*
X206496D01*
X172047Y-97638D02*
X175787Y-101378D01*
X172047Y-97638D02*
Y-66929D01*
D20*
X235457Y-75956D02*
X243057D01*
X235658Y-76356D02*
X243357D01*
X235558Y-76156D02*
X243257D01*
X235658Y-76456D02*
X243357D01*
X235558Y-76256D02*
X243257D01*
X235457Y-76056D02*
X243158D01*
X235357Y-75756D02*
X242957D01*
X235258Y-75656D02*
X242957D01*
X235157Y-75456D02*
X242858D01*
X235157Y-75356D02*
X242758D01*
X235258Y-75556D02*
X242858D01*
X235357Y-75856D02*
X243057D01*
X223358Y-76356D02*
X230757D01*
X223358Y-76456D02*
X230757D01*
X223358Y-75956D02*
X230757D01*
X223358Y-75856D02*
X230757D01*
X223358Y-76056D02*
X230757D01*
X223358Y-76156D02*
X230757D01*
X223358Y-75756D02*
X230757D01*
X223358Y-76256D02*
X230757D01*
X223358Y-75656D02*
X230857D01*
X223358Y-76556D02*
X230757D01*
X238357Y-80356D02*
X242558D01*
X237858Y-80156D02*
X243057D01*
X237657Y-80056D02*
X243257D01*
X237558Y-79956D02*
X243357D01*
X237457Y-79856D02*
X243458D01*
X237357Y-79756D02*
X243558D01*
X237158Y-79556D02*
X243758D01*
X237158Y-79456D02*
X243758D01*
X238057Y-80256D02*
X242858D01*
X237258Y-79656D02*
X243657D01*
X237057Y-79356D02*
X243858D01*
X236958Y-79256D02*
X243858D01*
X236757Y-78656D02*
X244057D01*
X236958Y-79056D02*
X243957D01*
X236958Y-79156D02*
X243957D01*
X236858Y-78956D02*
X244057D01*
X236858Y-78856D02*
X244057D01*
X236757Y-78756D02*
X244057D01*
X236658Y-78556D02*
X244057D01*
X236658Y-78456D02*
X244057D01*
X236558Y-78256D02*
X244057D01*
X236457Y-78156D02*
X244057D01*
X236558Y-78356D02*
X244057D01*
X236457Y-78056D02*
X244057D01*
X223957Y-79756D02*
X230258D01*
X223857Y-79656D02*
X230358D01*
X223758Y-79556D02*
X230457D01*
X223657Y-79356D02*
X230557D01*
X223458Y-78956D02*
X230757D01*
X223557Y-79156D02*
X230658D01*
X223557Y-79056D02*
X230658D01*
X223657Y-79456D02*
X230457D01*
X223458Y-78856D02*
X230757D01*
X223458Y-78756D02*
X230757D01*
X223458Y-78656D02*
X230757D01*
X223557Y-79256D02*
X230658D01*
X223358Y-78456D02*
X230757D01*
X223358Y-78356D02*
X230757D01*
X223358Y-78256D02*
X230757D01*
X223358Y-78156D02*
X230757D01*
X223358Y-78556D02*
X230757D01*
X223358Y-78056D02*
X230757D01*
X223358Y-74956D02*
X230958D01*
X223358Y-75456D02*
X230857D01*
X223358Y-75356D02*
X230857D01*
X223358Y-75256D02*
X230857D01*
X223358Y-75156D02*
X230958D01*
X235057Y-75256D02*
X242758D01*
X234958Y-74956D02*
X242558D01*
X223358Y-75556D02*
X230857D01*
X235057Y-75156D02*
X242657D01*
X234958Y-75056D02*
X242657D01*
X223358D02*
X230958D01*
X223358Y-74356D02*
X231457D01*
X223358Y-74556D02*
X231258D01*
X223358Y-74456D02*
X231358D01*
X234858Y-74856D02*
X242558D01*
X234858Y-74756D02*
X242458D01*
X234757Y-74656D02*
X242357D01*
X234658Y-74556D02*
X242357D01*
X223358Y-74656D02*
X231157D01*
X234658Y-74456D02*
X242257D01*
X234558Y-74356D02*
X242257D01*
X223358Y-74756D02*
X231157D01*
X223358Y-74856D02*
X231058D01*
X223358Y-77856D02*
X230757D01*
X236258Y-77756D02*
X244057D01*
X236258Y-77656D02*
X243957D01*
X223358Y-77956D02*
X230757D01*
X223358Y-77456D02*
X230757D01*
X223358Y-77756D02*
X230757D01*
X223358Y-77656D02*
X230757D01*
X236357Y-77856D02*
X244057D01*
X236157Y-77556D02*
X243957D01*
X236357Y-77956D02*
X244057D01*
X236157Y-77456D02*
X243957D01*
X223358Y-77556D02*
X230757D01*
X235958Y-77056D02*
X243657D01*
X223358Y-77256D02*
X230757D01*
X223358Y-77156D02*
X230757D01*
X223358Y-77356D02*
X230757D01*
X235757Y-76656D02*
X243458D01*
X235858Y-76756D02*
X243558D01*
X235858Y-76856D02*
X243558D01*
X236057Y-77356D02*
X243858D01*
X236057Y-77256D02*
X243858D01*
X235958Y-77156D02*
X243758D01*
X223358Y-77056D02*
X230757D01*
X223358Y-76956D02*
X230757D01*
X223358Y-76856D02*
X230757D01*
X235958Y-76956D02*
X243657D01*
X223358Y-76756D02*
X230757D01*
X223358Y-76656D02*
X230757D01*
X235757Y-76556D02*
X243458D01*
X223358Y-73656D02*
X241858D01*
X234258Y-74156D02*
X242158D01*
X223358Y-73756D02*
X241957D01*
X223358Y-73956D02*
X232057D01*
X223358Y-73856D02*
X232457D01*
X234057Y-74056D02*
X242057D01*
X233857Y-73956D02*
X242057D01*
X233558Y-73856D02*
X241957D01*
X223358Y-74056D02*
X231857D01*
X223358Y-74256D02*
X231557D01*
X223358Y-74156D02*
X231658D01*
X234358Y-74256D02*
X242158D01*
X223358Y-73556D02*
X241858D01*
X223358Y-73456D02*
X241858D01*
X223358Y-72556D02*
X241858D01*
X223358Y-73056D02*
X241858D01*
X223358Y-73156D02*
X241858D01*
X223358Y-73256D02*
X241858D01*
X223358Y-73356D02*
X241858D01*
X223358Y-72856D02*
X241858D01*
X223358Y-72656D02*
X241858D01*
X223358Y-72956D02*
X241858D01*
X223358Y-72756D02*
X241858D01*
X224957Y-80356D02*
X229257D01*
X224058Y-79856D02*
X230157D01*
X224257Y-80056D02*
X229958D01*
X224658Y-80256D02*
X229557D01*
X224158Y-79956D02*
X230058D01*
X224458Y-80156D02*
X229757D01*
X223358Y-71456D02*
X242657D01*
X223358Y-71356D02*
X242758D01*
X223358Y-71156D02*
X242957D01*
X223358Y-71056D02*
X243057D01*
X223358Y-70956D02*
X243158D01*
X223358Y-70856D02*
X243257D01*
X223358Y-70756D02*
X243357D01*
X223358Y-70656D02*
X243458D01*
X223358Y-70556D02*
X243558D01*
X223358Y-71256D02*
X242858D01*
X223358Y-70456D02*
X243657D01*
X223358Y-70356D02*
X243758D01*
X223358Y-70256D02*
X243858D01*
X223358Y-69956D02*
X244158D01*
X223358Y-70156D02*
X243957D01*
X223358Y-70056D02*
X244057D01*
X223358Y-69856D02*
X244257D01*
X223358Y-69756D02*
X244357D01*
X223358Y-69656D02*
X244357D01*
X223358Y-68756D02*
X230757D01*
X223358Y-68656D02*
X230757D01*
X223358Y-69256D02*
X230757D01*
X223358Y-69056D02*
X230757D01*
X223358Y-69156D02*
X230757D01*
X223358Y-68956D02*
X230757D01*
X223358Y-68856D02*
X230757D01*
X223358Y-69356D02*
X230757D01*
X223358Y-68556D02*
X230757D01*
X223358Y-66856D02*
X230757D01*
X223358Y-67056D02*
X230757D01*
X223358Y-66956D02*
X230757D01*
X223358Y-66756D02*
X230757D01*
X223358Y-66656D02*
X230757D01*
X223358Y-66456D02*
X229857D01*
X223358Y-66356D02*
X229757D01*
X223358Y-66256D02*
X229757D01*
X223358Y-66156D02*
X229757D01*
X223358Y-66056D02*
X229757D01*
X223358Y-65956D02*
X229757D01*
X223358Y-65556D02*
X230757D01*
X223358Y-65756D02*
X229958D01*
X223358Y-65656D02*
X230757D01*
X223358Y-65856D02*
X229857D01*
X223358Y-66556D02*
X229958D01*
X223358Y-65256D02*
X230757D01*
X223358Y-65156D02*
X229958D01*
X223358Y-65056D02*
X229857D01*
X223358Y-64956D02*
X229757D01*
X223358Y-65356D02*
X230757D01*
X223358Y-65456D02*
X230757D01*
X223358Y-68256D02*
X230757D01*
X223358Y-68456D02*
X230757D01*
X223358Y-68356D02*
X230757D01*
X223358Y-67456D02*
X229757D01*
X223358Y-67256D02*
X229857D01*
X223358Y-67356D02*
X229757D01*
X223358Y-68156D02*
X230757D01*
X223358Y-67856D02*
X229857D01*
X223358Y-67656D02*
X229757D01*
X223358Y-67756D02*
X229757D01*
X223358Y-67956D02*
X229958D01*
X223358Y-67556D02*
X229757D01*
X223358Y-68056D02*
X230757D01*
X223358Y-67156D02*
X229958D01*
X223358Y-62856D02*
X230757D01*
X223358Y-62956D02*
X230757D01*
X223358Y-63756D02*
X230757D01*
X223358Y-63556D02*
X230757D01*
X223358Y-63656D02*
X230757D01*
X223358Y-63456D02*
X230757D01*
X223358Y-63356D02*
X230757D01*
X223358Y-63256D02*
X230757D01*
X223358Y-63156D02*
X230757D01*
X223358Y-63056D02*
X230757D01*
X223358Y-64056D02*
X230757D01*
X223358Y-63956D02*
X230757D01*
X223358Y-63856D02*
X230757D01*
X223358Y-64156D02*
X230757D01*
X223358Y-64256D02*
X230757D01*
X223358Y-64656D02*
X229757D01*
X223358Y-64856D02*
X229757D01*
X223358Y-64556D02*
X229757D01*
X223358Y-64756D02*
X229757D01*
X223358Y-64356D02*
X229958D01*
X223358Y-64456D02*
X229857D01*
X233157Y-62056D02*
X233658D01*
X233057Y-61956D02*
X233757D01*
X232958Y-61856D02*
X233857D01*
X234558Y-62456D02*
X234958D01*
X233157D02*
X233558D01*
X234558Y-62256D02*
X234958D01*
X234558Y-62156D02*
X234958D01*
X233157Y-62256D02*
X233558D01*
X233157Y-62156D02*
X233658D01*
X234558Y-62356D02*
X234958D01*
X233157D02*
X233558D01*
X235858Y-62056D02*
X244057D01*
X234358Y-61856D02*
X235258D01*
X234457Y-62056D02*
X235057D01*
X235757Y-61856D02*
X243858D01*
X235958Y-62256D02*
X244257D01*
X235958Y-62356D02*
X244257D01*
X235958Y-62456D02*
X244357D01*
X235958Y-62156D02*
X244158D01*
X234457Y-61956D02*
X235157D01*
X235858D02*
X243957D01*
X223358Y-61856D02*
X232457D01*
X223358Y-61956D02*
X232358D01*
X223358Y-62056D02*
X232258D01*
X223358Y-62156D02*
X232258D01*
X223358Y-62756D02*
X232157D01*
X234558Y-62556D02*
X234958D01*
X234558Y-62656D02*
X234958D01*
X233157Y-62756D02*
X233558D01*
X233157Y-62656D02*
X233558D01*
X233157Y-62556D02*
X233558D01*
X223358Y-62256D02*
X232157D01*
X223358Y-62656D02*
X232157D01*
X223358Y-62556D02*
X232157D01*
X223358Y-62456D02*
X232157D01*
X223358Y-62356D02*
X232157D01*
X234558Y-62756D02*
X234958D01*
X223358Y-71756D02*
X242357D01*
X223358Y-71556D02*
X242558D01*
X223358Y-72456D02*
X241957D01*
X223358Y-72356D02*
X241957D01*
X223358Y-72256D02*
X242057D01*
X223358Y-72156D02*
X242057D01*
X223358Y-72056D02*
X242158D01*
X223358Y-71956D02*
X242158D01*
X223358Y-71656D02*
X242458D01*
X223358Y-71856D02*
X242257D01*
X236057Y-69356D02*
X244557D01*
X236357Y-69256D02*
X244557D01*
X223358Y-69456D02*
X244557D01*
X223358Y-69556D02*
X244458D01*
X223358Y-61356D02*
X243357D01*
X223358Y-61656D02*
X243657D01*
X223358Y-61456D02*
X243458D01*
X223358Y-61256D02*
X243257D01*
X223358Y-60756D02*
X242758D01*
X223358Y-60856D02*
X242858D01*
X223358Y-60956D02*
X242957D01*
X223358Y-61156D02*
X243158D01*
X223358Y-61056D02*
X243057D01*
X223358Y-61556D02*
X243558D01*
X223358Y-61756D02*
X243758D01*
X237357Y-64956D02*
X244758D01*
X237357Y-65056D02*
X244758D01*
X237357Y-65556D02*
X244758D01*
X237357Y-65256D02*
X244758D01*
X237357Y-65456D02*
X244758D01*
X237357Y-65356D02*
X244758D01*
X237357Y-65156D02*
X244758D01*
X237357Y-65656D02*
X244758D01*
X237357Y-65756D02*
X244758D01*
X237357Y-67056D02*
X244758D01*
X237357Y-67756D02*
X244758D01*
X237357Y-67556D02*
X244758D01*
X237357Y-67256D02*
X244758D01*
X237357Y-67156D02*
X244758D01*
X237357Y-67356D02*
X244758D01*
X237357Y-67456D02*
X244758D01*
X237357Y-66856D02*
X244758D01*
X237357Y-67656D02*
X244758D01*
X237357Y-67856D02*
X244758D01*
X237357Y-66956D02*
X244758D01*
X223557Y-59656D02*
X241657D01*
X223458Y-59856D02*
X241858D01*
X223358Y-60656D02*
X242657D01*
X223458Y-59756D02*
X241757D01*
X223358Y-60556D02*
X242558D01*
X223358Y-60456D02*
X242458D01*
X223358Y-60256D02*
X242257D01*
X223358Y-60156D02*
X242158D01*
X223458Y-60056D02*
X242057D01*
X223458Y-59956D02*
X241957D01*
X223358Y-60356D02*
X242357D01*
X237158Y-68456D02*
X244758D01*
X237258Y-67956D02*
X244758D01*
X237158Y-68356D02*
X244758D01*
X236958Y-68756D02*
X244657D01*
X237057Y-68656D02*
X244758D01*
X237057Y-68556D02*
X244758D01*
X236858Y-68856D02*
X244657D01*
X236757Y-68956D02*
X244657D01*
X236658Y-69056D02*
X244657D01*
X237258Y-68256D02*
X244758D01*
X237258Y-68056D02*
X244758D01*
X237258Y-68156D02*
X244758D01*
X236558Y-69156D02*
X244657D01*
X237357Y-64156D02*
X244758D01*
X237357Y-64056D02*
X244758D01*
X237357Y-64456D02*
X244758D01*
X237357Y-64256D02*
X244758D01*
X237357Y-64756D02*
X244758D01*
X237357Y-64656D02*
X244758D01*
X237357Y-64556D02*
X244758D01*
X237357Y-63956D02*
X244758D01*
X237357Y-64356D02*
X244758D01*
X237357Y-64856D02*
X244758D01*
X237357Y-65956D02*
X244758D01*
X237357Y-66256D02*
X244758D01*
X237357Y-66156D02*
X244758D01*
X237357Y-66056D02*
X244758D01*
X237357Y-66756D02*
X244758D01*
X237357Y-66556D02*
X244758D01*
X237357Y-66456D02*
X244758D01*
X237357Y-66356D02*
X244758D01*
X237357Y-66656D02*
X244758D01*
X237357Y-65856D02*
X244758D01*
X235958Y-62556D02*
X244458D01*
X237357Y-62856D02*
X244557D01*
X235958Y-62656D02*
X244458D01*
X237357Y-63856D02*
X244758D01*
X237357Y-63756D02*
X244758D01*
X237357Y-63656D02*
X244758D01*
X237357Y-63556D02*
X244758D01*
X237357Y-63256D02*
X244657D01*
X237357Y-63456D02*
X244758D01*
X237357Y-63356D02*
X244657D01*
X237357Y-63156D02*
X244657D01*
X237357Y-63056D02*
X244657D01*
X237357Y-62956D02*
X244657D01*
X235958Y-62756D02*
X244557D01*
X225358Y-58356D02*
X239558D01*
X224358Y-58656D02*
X240558D01*
X224758Y-58456D02*
X240158D01*
X223857Y-59056D02*
X241057D01*
X223657Y-59356D02*
X241357D01*
X223758Y-59256D02*
X241258D01*
X223758Y-59156D02*
X241158D01*
X223957Y-58956D02*
X240957D01*
X224058Y-58856D02*
X240858D01*
X223557Y-59556D02*
X241558D01*
X223657Y-59456D02*
X241458D01*
X224557Y-58556D02*
X240357D01*
X224158Y-58756D02*
X240657D01*
D21*
X280098Y-106968D02*
X277343D01*
Y-105591D01*
X277802Y-105132D01*
X278721D01*
X279180Y-105591D01*
Y-106968D01*
Y-106050D02*
X280098Y-105132D01*
X277343Y-104213D02*
X280098D01*
Y-102377D01*
X277343Y-101458D02*
Y-100540D01*
Y-100999D01*
X280098D01*
Y-101458D01*
Y-100540D01*
Y-99163D02*
X277343D01*
X280098Y-97326D01*
X277343D01*
Y-96408D02*
X280098D01*
X279180D01*
X277343Y-94571D01*
X278721Y-95948D01*
X280098Y-94571D01*
Y-93652D02*
Y-92734D01*
Y-93193D01*
X277343D01*
X277802Y-93652D01*
X168078Y-60434D02*
Y-62729D01*
X168537Y-63188D01*
X169456D01*
X169915Y-62729D01*
Y-60434D01*
X170833Y-60893D02*
X171292Y-60434D01*
X172211D01*
X172670Y-60893D01*
Y-61352D01*
X172211Y-61811D01*
X172670Y-62270D01*
Y-62729D01*
X172211Y-63188D01*
X171292D01*
X170833Y-62729D01*
Y-62270D01*
X171292Y-61811D01*
X170833Y-61352D01*
Y-60893D01*
X171292Y-61811D02*
X172211D01*
X139666Y-131036D02*
X141962D01*
X142421Y-130577D01*
Y-129658D01*
X141962Y-129199D01*
X139666D01*
X141962Y-128281D02*
X142421Y-127822D01*
Y-126903D01*
X141962Y-126444D01*
X140125D01*
X139666Y-126903D01*
Y-127822D01*
X140125Y-128281D01*
X140584D01*
X141043Y-127822D01*
Y-126444D01*
X150756Y-161811D02*
Y-159056D01*
X152133D01*
X152593Y-159515D01*
Y-160433D01*
X152133Y-160892D01*
X150756D01*
X151674D02*
X152593Y-161811D01*
X155348D02*
X153511D01*
X155348Y-159974D01*
Y-159515D01*
X154888Y-159056D01*
X153970D01*
X153511Y-159515D01*
X158103Y-161811D02*
X156266D01*
X158103Y-159974D01*
Y-159515D01*
X157643Y-159056D01*
X156725D01*
X156266Y-159515D01*
X142750Y-161811D02*
Y-159056D01*
X144128D01*
X144587Y-159515D01*
Y-160433D01*
X144128Y-160892D01*
X142750D01*
X143669D02*
X144587Y-161811D01*
X147342D02*
X145505D01*
X147342Y-159974D01*
Y-159515D01*
X146883Y-159056D01*
X145965D01*
X145505Y-159515D01*
X148260Y-161811D02*
X149179D01*
X148720D01*
Y-159056D01*
X148260Y-159515D01*
X287665Y-163386D02*
Y-165682D01*
X288124Y-166141D01*
X289042D01*
X289502Y-165682D01*
Y-163386D01*
X290420D02*
X292256D01*
Y-163845D01*
X290420Y-165682D01*
Y-166141D01*
X200295Y-131870D02*
X197540D01*
Y-130493D01*
X197999Y-130033D01*
X198917D01*
X199376Y-130493D01*
Y-131870D01*
Y-130952D02*
X200295Y-130033D01*
Y-127278D02*
Y-129115D01*
X198458Y-127278D01*
X197999D01*
X197540Y-127737D01*
Y-128656D01*
X197999Y-129115D01*
X197540Y-124523D02*
X197999Y-125442D01*
X198917Y-126360D01*
X199836D01*
X200295Y-125901D01*
Y-124983D01*
X199836Y-124523D01*
X199376D01*
X198917Y-124983D01*
Y-126360D01*
X194291Y-131870D02*
X191536D01*
Y-130493D01*
X191995Y-130033D01*
X192913D01*
X193372Y-130493D01*
Y-131870D01*
Y-130952D02*
X194291Y-130033D01*
Y-127278D02*
Y-129115D01*
X192454Y-127278D01*
X191995D01*
X191536Y-127738D01*
Y-128656D01*
X191995Y-129115D01*
X191536Y-124523D02*
Y-126360D01*
X192913D01*
X192454Y-125442D01*
Y-124983D01*
X192913Y-124523D01*
X193832D01*
X194291Y-124983D01*
Y-125901D01*
X193832Y-126360D01*
X187992Y-131870D02*
X185237D01*
Y-130493D01*
X185696Y-130033D01*
X186614D01*
X187073Y-130493D01*
Y-131870D01*
Y-130952D02*
X187992Y-130033D01*
Y-127278D02*
Y-129115D01*
X186155Y-127278D01*
X185696D01*
X185237Y-127738D01*
Y-128656D01*
X185696Y-129115D01*
X187992Y-124983D02*
X185237D01*
X186614Y-126360D01*
Y-124523D01*
X188504Y-154134D02*
Y-156889D01*
X189881D01*
X190341Y-156430D01*
Y-154594D01*
X189881Y-154134D01*
X188504D01*
X191259D02*
X193096D01*
Y-154594D01*
X191259Y-156430D01*
Y-156889D01*
X176791Y-154134D02*
Y-156889D01*
X178169D01*
X178628Y-156430D01*
Y-154594D01*
X178169Y-154134D01*
X176791D01*
X181383D02*
X180465Y-154594D01*
X179546Y-155512D01*
Y-156430D01*
X180006Y-156889D01*
X180924D01*
X181383Y-156430D01*
Y-155971D01*
X180924Y-155512D01*
X179546D01*
X167539Y-154134D02*
Y-156889D01*
X168917D01*
X169376Y-156430D01*
Y-154594D01*
X168917Y-154134D01*
X167539D01*
X170294Y-154594D02*
X170754Y-154134D01*
X171672D01*
X172131Y-154594D01*
Y-155053D01*
X171672Y-155512D01*
X172131Y-155971D01*
Y-156430D01*
X171672Y-156889D01*
X170754D01*
X170294Y-156430D01*
Y-155971D01*
X170754Y-155512D01*
X170294Y-155053D01*
Y-154594D01*
X170754Y-155512D02*
X171672D01*
X295886Y-142993D02*
X297723Y-145748D01*
Y-142993D02*
X295886Y-145748D01*
X298641Y-142993D02*
X300478D01*
X299559D01*
Y-145748D01*
X301396D02*
Y-143911D01*
X302314Y-142993D01*
X303233Y-143911D01*
Y-145748D01*
Y-144370D01*
X301396D01*
X304151Y-142993D02*
Y-145748D01*
X305988D01*
X308743D02*
X306906D01*
X308743Y-143911D01*
Y-143452D01*
X308283Y-142993D01*
X307365D01*
X306906Y-143452D01*
X273426Y-200492D02*
Y-197737D01*
X274804D01*
X275263Y-198196D01*
Y-199114D01*
X274804Y-199573D01*
X273426D01*
X274345D02*
X275263Y-200492D01*
X276181D02*
X277100D01*
X276641D01*
Y-197737D01*
X276181Y-198196D01*
X280314Y-197737D02*
X279396Y-198196D01*
X278477Y-199114D01*
Y-200032D01*
X278936Y-200492D01*
X279855D01*
X280314Y-200032D01*
Y-199573D01*
X279855Y-199114D01*
X278477D01*
X320670Y-181791D02*
Y-179036D01*
X322048D01*
X322507Y-179495D01*
Y-180413D01*
X322048Y-180873D01*
X320670D01*
X321589D02*
X322507Y-181791D01*
X323425D02*
X324344D01*
X323885D01*
Y-179036D01*
X323425Y-179495D01*
X325721Y-179036D02*
X327558D01*
Y-179495D01*
X325721Y-181332D01*
Y-181791D01*
X333629Y-162172D02*
X333170Y-161713D01*
X332252D01*
X331792Y-162172D01*
Y-164009D01*
X332252Y-164468D01*
X333170D01*
X333629Y-164009D01*
X334547Y-164468D02*
X335466D01*
X335007D01*
Y-161713D01*
X334547Y-162172D01*
X338680Y-161713D02*
X336843D01*
Y-163091D01*
X337762Y-162631D01*
X338221D01*
X338680Y-163091D01*
Y-164009D01*
X338221Y-164468D01*
X337302D01*
X336843Y-164009D01*
X333629Y-168275D02*
X333170Y-167815D01*
X332252D01*
X331792Y-168275D01*
Y-170111D01*
X332252Y-170570D01*
X333170D01*
X333629Y-170111D01*
X334547Y-170570D02*
X335466D01*
X335007D01*
Y-167815D01*
X334547Y-168275D01*
X338680Y-167815D02*
X337762Y-168275D01*
X336843Y-169193D01*
Y-170111D01*
X337302Y-170570D01*
X338221D01*
X338680Y-170111D01*
Y-169652D01*
X338221Y-169193D01*
X336843D01*
X210401Y-120045D02*
X209941Y-120504D01*
Y-121423D01*
X210401Y-121882D01*
X212237D01*
X212696Y-121423D01*
Y-120504D01*
X212237Y-120045D01*
X212696Y-117290D02*
Y-119127D01*
X210860Y-117290D01*
X210401D01*
X209941Y-117750D01*
Y-118668D01*
X210401Y-119127D01*
X209941Y-116372D02*
Y-114535D01*
X210401D01*
X212237Y-116372D01*
X212696D01*
X346326Y-168800D02*
X348163Y-171555D01*
Y-168800D02*
X346326Y-171555D01*
X350918D02*
X349081D01*
X350918Y-169718D01*
Y-169259D01*
X350459Y-168800D01*
X349540D01*
X349081Y-169259D01*
X321851Y-197079D02*
X324147D01*
X324606Y-196620D01*
Y-195702D01*
X324147Y-195243D01*
X321851D01*
Y-192488D02*
X322310Y-193406D01*
X323228Y-194324D01*
X324147D01*
X324606Y-193865D01*
Y-192947D01*
X324147Y-192488D01*
X323688D01*
X323228Y-192947D01*
Y-194324D01*
X334645Y-184349D02*
X331890D01*
Y-182972D01*
X332349Y-182513D01*
X333268D01*
X333727Y-182972D01*
Y-184349D01*
Y-183431D02*
X334645Y-182513D01*
Y-181594D02*
Y-180676D01*
Y-181135D01*
X331890D01*
X332349Y-181594D01*
X334186Y-179298D02*
X334645Y-178839D01*
Y-177921D01*
X334186Y-177462D01*
X332349D01*
X331890Y-177921D01*
Y-178839D01*
X332349Y-179298D01*
X332808D01*
X333268Y-178839D01*
Y-177462D01*
X334645Y-209448D02*
X331890D01*
Y-208070D01*
X332349Y-207611D01*
X333268D01*
X333727Y-208070D01*
Y-209448D01*
Y-208529D02*
X334645Y-207611D01*
Y-206693D02*
Y-205774D01*
Y-206234D01*
X331890D01*
X332349Y-206693D01*
Y-204397D02*
X331890Y-203938D01*
Y-203019D01*
X332349Y-202560D01*
X332809D01*
X333268Y-203019D01*
X333727Y-202560D01*
X334186D01*
X334645Y-203019D01*
Y-203938D01*
X334186Y-204397D01*
X333727D01*
X333268Y-203938D01*
X332809Y-204397D01*
X332349D01*
X333268Y-203938D02*
Y-203019D01*
X175033Y-165420D02*
X174574Y-164961D01*
X173656D01*
X173197Y-165420D01*
Y-167257D01*
X173656Y-167716D01*
X174574D01*
X175033Y-167257D01*
X175952Y-165420D02*
X176411Y-164961D01*
X177329D01*
X177788Y-165420D01*
Y-165879D01*
X177329Y-166339D01*
X176870D01*
X177329D01*
X177788Y-166798D01*
Y-167257D01*
X177329Y-167716D01*
X176411D01*
X175952Y-167257D01*
X178707Y-165420D02*
X179166Y-164961D01*
X180084D01*
X180543Y-165420D01*
Y-165879D01*
X180084Y-166339D01*
X180543Y-166798D01*
Y-167257D01*
X180084Y-167716D01*
X179166D01*
X178707Y-167257D01*
Y-166798D01*
X179166Y-166339D01*
X178707Y-165879D01*
Y-165420D01*
X179166Y-166339D02*
X180084D01*
X155906Y-71192D02*
X158661Y-69355D01*
X155906D02*
X158661Y-71192D01*
X155906Y-68437D02*
Y-66601D01*
Y-67519D01*
X158661D01*
Y-65682D02*
X156824D01*
X155906Y-64764D01*
X156824Y-63845D01*
X158661D01*
X157283D01*
Y-65682D01*
X155906Y-62927D02*
X158661D01*
Y-61090D01*
X156365Y-60172D02*
X155906Y-59713D01*
Y-58795D01*
X156365Y-58335D01*
X156824D01*
X157283Y-58795D01*
Y-59254D01*
Y-58795D01*
X157743Y-58335D01*
X158202D01*
X158661Y-58795D01*
Y-59713D01*
X158202Y-60172D01*
X148196Y-48819D02*
Y-51574D01*
X149574D01*
X150033Y-51115D01*
Y-49279D01*
X149574Y-48819D01*
X148196D01*
X152788D02*
X150951D01*
Y-50197D01*
X151870Y-49738D01*
X152329D01*
X152788Y-50197D01*
Y-51115D01*
X152329Y-51574D01*
X151410D01*
X150951Y-51115D01*
X149213Y-55479D02*
X148754Y-55020D01*
X147836D01*
X147376Y-55479D01*
Y-57316D01*
X147836Y-57775D01*
X148754D01*
X149213Y-57316D01*
X151968Y-57775D02*
X150131D01*
X151968Y-55939D01*
Y-55479D01*
X151509Y-55020D01*
X150591D01*
X150131Y-55479D01*
X152886Y-57775D02*
X153805D01*
X153346D01*
Y-55020D01*
X152886Y-55479D01*
X131727Y-48130D02*
Y-50885D01*
X133105D01*
X133564Y-50426D01*
Y-49967D01*
X133105Y-49508D01*
X131727D01*
X133105D01*
X133564Y-49049D01*
Y-48590D01*
X133105Y-48130D01*
X131727D01*
X134482Y-50885D02*
Y-49049D01*
X135401Y-48130D01*
X136319Y-49049D01*
Y-50885D01*
Y-49508D01*
X134482D01*
X137237Y-48130D02*
X139074D01*
X138156D01*
Y-50885D01*
X139992D02*
X140911D01*
X140451D01*
Y-48130D01*
X139992Y-48590D01*
X129200Y-63156D02*
X128741Y-63615D01*
Y-64533D01*
X129200Y-64992D01*
X131036D01*
X131496Y-64533D01*
Y-63615D01*
X131036Y-63156D01*
X131496Y-60401D02*
Y-62237D01*
X129659Y-60401D01*
X129200D01*
X128741Y-60860D01*
Y-61778D01*
X129200Y-62237D01*
Y-59482D02*
X128741Y-59023D01*
Y-58105D01*
X129200Y-57645D01*
X131036D01*
X131496Y-58105D01*
Y-59023D01*
X131036Y-59482D01*
X129200D01*
X129101Y-72572D02*
X128642Y-73031D01*
Y-73949D01*
X129101Y-74408D01*
X130938D01*
X131397Y-73949D01*
Y-73031D01*
X130938Y-72572D01*
X131397Y-71653D02*
Y-70735D01*
Y-71194D01*
X128642D01*
X129101Y-71653D01*
Y-69358D02*
X128642Y-68898D01*
Y-67980D01*
X129101Y-67521D01*
X129560D01*
X130020Y-67980D01*
X130479Y-67521D01*
X130938D01*
X131397Y-67980D01*
Y-68898D01*
X130938Y-69358D01*
X130479D01*
X130020Y-68898D01*
X129560Y-69358D01*
X129101D01*
X130020Y-68898D02*
Y-67980D01*
X334581Y-16536D02*
X336417Y-19291D01*
Y-16536D02*
X334581Y-19291D01*
X337336D02*
X338254D01*
X337795D01*
Y-16536D01*
X337336Y-16995D01*
X288846Y-78642D02*
Y-80938D01*
X289305Y-81397D01*
X290223D01*
X290683Y-80938D01*
Y-78642D01*
X293438Y-81397D02*
X291601D01*
X293438Y-79561D01*
Y-79101D01*
X292978Y-78642D01*
X292060D01*
X291601Y-79101D01*
X288551Y-48327D02*
Y-50623D01*
X289010Y-51082D01*
X289928D01*
X290387Y-50623D01*
Y-48327D01*
X291306Y-48786D02*
X291765Y-48327D01*
X292683D01*
X293142Y-48786D01*
Y-49246D01*
X292683Y-49705D01*
X292224D01*
X292683D01*
X293142Y-50164D01*
Y-50623D01*
X292683Y-51082D01*
X291765D01*
X291306Y-50623D01*
X314535Y-109154D02*
Y-111450D01*
X314994Y-111909D01*
X315912D01*
X316371Y-111450D01*
Y-109154D01*
X319127D02*
X317290D01*
Y-110531D01*
X318208Y-110072D01*
X318667D01*
X319127Y-110531D01*
Y-111450D01*
X318667Y-111909D01*
X317749D01*
X317290Y-111450D01*
X334449Y-86843D02*
X337204D01*
Y-85466D01*
X336745Y-85006D01*
X334908D01*
X334449Y-85466D01*
Y-86843D01*
X334908Y-84088D02*
X334449Y-83629D01*
Y-82711D01*
X334908Y-82251D01*
X335368D01*
X335827Y-82711D01*
Y-83170D01*
Y-82711D01*
X336286Y-82251D01*
X336745D01*
X337204Y-82711D01*
Y-83629D01*
X336745Y-84088D01*
X315617Y-76247D02*
X315158Y-75788D01*
X314240D01*
X313781Y-76247D01*
Y-78084D01*
X314240Y-78543D01*
X315158D01*
X315617Y-78084D01*
X316536Y-78543D02*
X317454D01*
X316995D01*
Y-75788D01*
X316536Y-76247D01*
X318831D02*
X319291Y-75788D01*
X320209D01*
X320668Y-76247D01*
Y-76706D01*
X320209Y-77165D01*
X319750D01*
X320209D01*
X320668Y-77624D01*
Y-78084D01*
X320209Y-78543D01*
X319291D01*
X318831Y-78084D01*
X316765Y-46523D02*
X316306Y-46063D01*
X315388D01*
X314929Y-46523D01*
Y-48359D01*
X315388Y-48818D01*
X316306D01*
X316765Y-48359D01*
X317684Y-46063D02*
X319520D01*
Y-46523D01*
X317684Y-48359D01*
Y-48818D01*
X332841Y-152723D02*
X332382Y-153182D01*
Y-154100D01*
X332841Y-154559D01*
X334678D01*
X335137Y-154100D01*
Y-153182D01*
X334678Y-152723D01*
X335137Y-151804D02*
Y-150886D01*
Y-151345D01*
X332382D01*
X332841Y-151804D01*
X335137Y-149509D02*
Y-148590D01*
Y-149049D01*
X332382D01*
X332841Y-149509D01*
X315026Y-162335D02*
X314567Y-162795D01*
Y-163713D01*
X315026Y-164172D01*
X316863D01*
X317322Y-163713D01*
Y-162795D01*
X316863Y-162335D01*
X317322Y-161417D02*
Y-160499D01*
Y-160958D01*
X314567D01*
X315026Y-161417D01*
Y-159121D02*
X314567Y-158662D01*
Y-157744D01*
X315026Y-157285D01*
X316863D01*
X317322Y-157744D01*
Y-158662D01*
X316863Y-159121D01*
X315026D01*
X301542Y-124770D02*
X301083Y-125229D01*
Y-126148D01*
X301542Y-126607D01*
X303379D01*
X303838Y-126148D01*
Y-125229D01*
X303379Y-124770D01*
Y-123852D02*
X303838Y-123393D01*
Y-122474D01*
X303379Y-122015D01*
X301542D01*
X301083Y-122474D01*
Y-123393D01*
X301542Y-123852D01*
X302002D01*
X302461Y-123393D01*
Y-122015D01*
X321326Y-156660D02*
X320867Y-156201D01*
X319949D01*
X319489Y-156660D01*
Y-158497D01*
X319949Y-158956D01*
X320867D01*
X321326Y-158497D01*
X322244Y-158956D02*
X323163D01*
X322704D01*
Y-156201D01*
X322244Y-156660D01*
X325918Y-158956D02*
Y-156201D01*
X324540Y-157579D01*
X326377D01*
X301542Y-138910D02*
X301083Y-139369D01*
Y-140288D01*
X301542Y-140747D01*
X303379D01*
X303838Y-140288D01*
Y-139369D01*
X303379Y-138910D01*
X303838Y-137992D02*
Y-137074D01*
Y-137533D01*
X301083D01*
X301542Y-137992D01*
X303838Y-133859D02*
Y-135696D01*
X302002Y-133859D01*
X301542D01*
X301083Y-134319D01*
Y-135237D01*
X301542Y-135696D01*
X297211Y-213255D02*
X296751Y-212796D01*
X295833D01*
X295374Y-213255D01*
Y-215092D01*
X295833Y-215551D01*
X296751D01*
X297211Y-215092D01*
X298129Y-213255D02*
X298588Y-212796D01*
X299507D01*
X299966Y-213255D01*
Y-213715D01*
X299507Y-214174D01*
X299047D01*
X299507D01*
X299966Y-214633D01*
Y-215092D01*
X299507Y-215551D01*
X298588D01*
X298129Y-215092D01*
X300884Y-212796D02*
X302721D01*
Y-213255D01*
X300884Y-215092D01*
Y-215551D01*
X297211Y-221129D02*
X296751Y-220670D01*
X295833D01*
X295374Y-221129D01*
Y-222966D01*
X295833Y-223425D01*
X296751D01*
X297211Y-222966D01*
X298129Y-221129D02*
X298588Y-220670D01*
X299507D01*
X299966Y-221129D01*
Y-221588D01*
X299507Y-222048D01*
X299047D01*
X299507D01*
X299966Y-222507D01*
Y-222966D01*
X299507Y-223425D01*
X298588D01*
X298129Y-222966D01*
X302721Y-220670D02*
X301802Y-221129D01*
X300884Y-222048D01*
Y-222966D01*
X301343Y-223425D01*
X302262D01*
X302721Y-222966D01*
Y-222507D01*
X302262Y-222048D01*
X300884D01*
X260990Y-214732D02*
X260531Y-214272D01*
X259613D01*
X259154Y-214732D01*
Y-216568D01*
X259613Y-217028D01*
X260531D01*
X260990Y-216568D01*
X261909Y-214732D02*
X262368Y-214272D01*
X263286D01*
X263745Y-214732D01*
Y-215191D01*
X263286Y-215650D01*
X262827D01*
X263286D01*
X263745Y-216109D01*
Y-216568D01*
X263286Y-217028D01*
X262368D01*
X261909Y-216568D01*
X266041Y-217028D02*
Y-214272D01*
X264664Y-215650D01*
X266500D01*
X270866Y-204725D02*
Y-207021D01*
X271325Y-207480D01*
X272244D01*
X272703Y-207021D01*
Y-204725D01*
X275458Y-207480D02*
X273621D01*
X275458Y-205644D01*
Y-205185D01*
X274999Y-204725D01*
X274080D01*
X273621Y-205185D01*
X278213Y-204725D02*
X277294Y-205185D01*
X276376Y-206103D01*
Y-207021D01*
X276835Y-207480D01*
X277754D01*
X278213Y-207021D01*
Y-206562D01*
X277754Y-206103D01*
X276376D01*
X316831Y-204528D02*
Y-207283D01*
X318208D01*
X318667Y-206824D01*
Y-204988D01*
X318208Y-204528D01*
X316831D01*
X319586Y-207283D02*
X320504D01*
X320045D01*
Y-204528D01*
X319586Y-204988D01*
X321882D02*
X322341Y-204528D01*
X323259D01*
X323718Y-204988D01*
Y-206824D01*
X323259Y-207283D01*
X322341D01*
X321882Y-206824D01*
Y-204988D01*
X36220Y-20867D02*
X38057Y-23622D01*
Y-20867D02*
X36220Y-23622D01*
X38976Y-21326D02*
X39435Y-20867D01*
X40353D01*
X40812Y-21326D01*
Y-21785D01*
X40353Y-22244D01*
X39894D01*
X40353D01*
X40812Y-22704D01*
Y-23163D01*
X40353Y-23622D01*
X39435D01*
X38976Y-23163D01*
X227264Y-29035D02*
X224509D01*
Y-27658D01*
X224968Y-27199D01*
X225886D01*
X226345Y-27658D01*
Y-29035D01*
X227264Y-26280D02*
X224509D01*
X225427Y-25362D01*
X224509Y-24444D01*
X227264D01*
X224968Y-21689D02*
X224509Y-22148D01*
Y-23066D01*
X224968Y-23525D01*
X226805D01*
X227264Y-23066D01*
Y-22148D01*
X226805Y-21689D01*
X224509Y-20770D02*
X226805D01*
X227264Y-20311D01*
Y-19393D01*
X226805Y-18934D01*
X224509D01*
X227264Y-18015D02*
Y-17097D01*
Y-17556D01*
X224509D01*
X224968Y-18015D01*
X219488Y-158466D02*
Y-160761D01*
X219947Y-161221D01*
X220866D01*
X221325Y-160761D01*
Y-158466D01*
X222243Y-161221D02*
X223162D01*
X222702D01*
Y-158466D01*
X222243Y-158925D01*
X233858Y-13091D02*
Y-15846D01*
X235236D01*
X235695Y-15387D01*
Y-14928D01*
X235236Y-14469D01*
X233858D01*
X235236D01*
X235695Y-14010D01*
Y-13551D01*
X235236Y-13091D01*
X233858D01*
X236613D02*
Y-15387D01*
X237072Y-15846D01*
X237991D01*
X238450Y-15387D01*
Y-13091D01*
X239368D02*
X241205D01*
Y-13551D01*
X239368Y-15387D01*
Y-15846D01*
X241205D01*
X242123D02*
X243042D01*
X242583D01*
Y-13091D01*
X242123Y-13551D01*
X125656Y-80091D02*
X125197Y-80550D01*
Y-81468D01*
X125656Y-81927D01*
X127493D01*
X127952Y-81468D01*
Y-80550D01*
X127493Y-80091D01*
X127952Y-79172D02*
Y-78254D01*
Y-78713D01*
X125197D01*
X125656Y-79172D01*
X127493Y-76876D02*
X127952Y-76417D01*
Y-75499D01*
X127493Y-75040D01*
X125656D01*
X125197Y-75499D01*
Y-76417D01*
X125656Y-76876D01*
X126115D01*
X126574Y-76417D01*
Y-75040D01*
X125808Y-90017D02*
X125349Y-90477D01*
Y-91395D01*
X125808Y-91854D01*
X127645D01*
X128104Y-91395D01*
Y-90477D01*
X127645Y-90017D01*
X128104Y-89099D02*
Y-88181D01*
Y-88640D01*
X125349D01*
X125808Y-89099D01*
X125349Y-86803D02*
Y-84967D01*
X125808D01*
X127645Y-86803D01*
X128104D01*
X154494Y-94948D02*
X154035Y-94489D01*
X153117D01*
X152657Y-94948D01*
Y-96785D01*
X153117Y-97244D01*
X154035D01*
X154494Y-96785D01*
X157249Y-97244D02*
X155412D01*
X157249Y-95407D01*
Y-94948D01*
X156790Y-94489D01*
X155872D01*
X155412Y-94948D01*
X158168D02*
X158627Y-94489D01*
X159545D01*
X160004Y-94948D01*
Y-95407D01*
X159545Y-95867D01*
X159086D01*
X159545D01*
X160004Y-96326D01*
Y-96785D01*
X159545Y-97244D01*
X158627D01*
X158168Y-96785D01*
X167093Y-43010D02*
X166633Y-42551D01*
X165715D01*
X165256Y-43010D01*
Y-44847D01*
X165715Y-45306D01*
X166633D01*
X167093Y-44847D01*
X169848Y-45306D02*
X168011D01*
X169848Y-43470D01*
Y-43010D01*
X169388Y-42551D01*
X168470D01*
X168011Y-43010D01*
X172603Y-45306D02*
X170766D01*
X172603Y-43470D01*
Y-43010D01*
X172143Y-42551D01*
X171225D01*
X170766Y-43010D01*
X179299Y-130033D02*
X178840Y-130493D01*
Y-131411D01*
X179299Y-131870D01*
X181135D01*
X181595Y-131411D01*
Y-130493D01*
X181135Y-130033D01*
X181595Y-127278D02*
Y-129115D01*
X179758Y-127278D01*
X179299D01*
X178840Y-127738D01*
Y-128656D01*
X179299Y-129115D01*
X181595Y-124983D02*
X178840D01*
X180217Y-126360D01*
Y-124523D01*
X210412Y-48511D02*
X209953Y-48052D01*
X209035D01*
X208576Y-48511D01*
Y-50348D01*
X209035Y-50807D01*
X209953D01*
X210412Y-50348D01*
X213167Y-50807D02*
X211331D01*
X213167Y-48970D01*
Y-48511D01*
X212708Y-48052D01*
X211790D01*
X211331Y-48511D01*
X215922Y-48052D02*
X214086D01*
Y-49429D01*
X215004Y-48970D01*
X215463D01*
X215922Y-49429D01*
Y-50348D01*
X215463Y-50807D01*
X214545D01*
X214086Y-50348D01*
X165224Y-105250D02*
X164765Y-105709D01*
Y-106627D01*
X165224Y-107087D01*
X167060D01*
X167520Y-106627D01*
Y-105709D01*
X167060Y-105250D01*
X167520Y-102495D02*
Y-104332D01*
X165683Y-102495D01*
X165224D01*
X164765Y-102954D01*
Y-103872D01*
X165224Y-104332D01*
X164765Y-99740D02*
X165224Y-100658D01*
X166142Y-101577D01*
X167060D01*
X167520Y-101117D01*
Y-100199D01*
X167060Y-99740D01*
X166601D01*
X166142Y-100199D01*
Y-101577D01*
X315616Y-17783D02*
X315157Y-17324D01*
X314239D01*
X313779Y-17783D01*
Y-19620D01*
X314239Y-20079D01*
X315157D01*
X315616Y-19620D01*
X316534Y-17783D02*
X316994Y-17324D01*
X317912D01*
X318371Y-17783D01*
Y-18242D01*
X317912Y-18701D01*
X318371Y-19160D01*
Y-19620D01*
X317912Y-20079D01*
X316994D01*
X316534Y-19620D01*
Y-19160D01*
X316994Y-18701D01*
X316534Y-18242D01*
Y-17783D01*
X316994Y-18701D02*
X317912D01*
X120636Y-202724D02*
X120177Y-202265D01*
X119258D01*
X118799Y-202724D01*
Y-204560D01*
X119258Y-205020D01*
X120177D01*
X120636Y-204560D01*
X123391Y-205020D02*
X121554D01*
X123391Y-203183D01*
Y-202724D01*
X122932Y-202265D01*
X122013D01*
X121554Y-202724D01*
X124309D02*
X124768Y-202265D01*
X125687D01*
X126146Y-202724D01*
Y-203183D01*
X125687Y-203642D01*
X126146Y-204101D01*
Y-204560D01*
X125687Y-205020D01*
X124768D01*
X124309Y-204560D01*
Y-204101D01*
X124768Y-203642D01*
X124309Y-203183D01*
Y-202724D01*
X124768Y-203642D02*
X125687D01*
X120734Y-184712D02*
X120275Y-184253D01*
X119357D01*
X118898Y-184712D01*
Y-186549D01*
X119357Y-187008D01*
X120275D01*
X120734Y-186549D01*
X123489Y-187008D02*
X121653D01*
X123489Y-185171D01*
Y-184712D01*
X123030Y-184253D01*
X122112D01*
X121653Y-184712D01*
X124408Y-186549D02*
X124867Y-187008D01*
X125785D01*
X126244Y-186549D01*
Y-184712D01*
X125785Y-184253D01*
X124867D01*
X124408Y-184712D01*
Y-185171D01*
X124867Y-185630D01*
X126244D01*
X120734Y-165618D02*
X120275Y-165158D01*
X119357D01*
X118898Y-165618D01*
Y-167454D01*
X119357Y-167913D01*
X120275D01*
X120734Y-167454D01*
X121653Y-165618D02*
X122112Y-165158D01*
X123030D01*
X123489Y-165618D01*
Y-166077D01*
X123030Y-166536D01*
X122571D01*
X123030D01*
X123489Y-166995D01*
Y-167454D01*
X123030Y-167913D01*
X122112D01*
X121653Y-167454D01*
X124408Y-165618D02*
X124867Y-165158D01*
X125785D01*
X126244Y-165618D01*
Y-167454D01*
X125785Y-167913D01*
X124867D01*
X124408Y-167454D01*
Y-165618D01*
X120341Y-146720D02*
X119881Y-146261D01*
X118963D01*
X118504Y-146720D01*
Y-148557D01*
X118963Y-149016D01*
X119881D01*
X120341Y-148557D01*
X121259Y-146720D02*
X121718Y-146261D01*
X122636D01*
X123096Y-146720D01*
Y-147179D01*
X122636Y-147638D01*
X122177D01*
X122636D01*
X123096Y-148097D01*
Y-148557D01*
X122636Y-149016D01*
X121718D01*
X121259Y-148557D01*
X124014Y-149016D02*
X124932D01*
X124473D01*
Y-146261D01*
X124014Y-146720D01*
X89141Y-130348D02*
X88682Y-130807D01*
Y-131726D01*
X89141Y-132185D01*
X90978D01*
X91437Y-131726D01*
Y-130807D01*
X90978Y-130348D01*
X89141Y-129430D02*
X88682Y-128971D01*
Y-128052D01*
X89141Y-127593D01*
X89600D01*
X90060Y-128052D01*
Y-128512D01*
Y-128052D01*
X90519Y-127593D01*
X90978D01*
X91437Y-128052D01*
Y-128971D01*
X90978Y-129430D01*
X91437Y-124838D02*
Y-126675D01*
X89600Y-124838D01*
X89141D01*
X88682Y-125297D01*
Y-126216D01*
X89141Y-126675D01*
X199376Y-185598D02*
X198917Y-185139D01*
X197998D01*
X197539Y-185598D01*
Y-187434D01*
X197998Y-187894D01*
X198917D01*
X199376Y-187434D01*
X200294Y-185598D02*
X200754Y-185139D01*
X201672D01*
X202131Y-185598D01*
Y-186057D01*
X201672Y-186516D01*
X201213D01*
X201672D01*
X202131Y-186975D01*
Y-187434D01*
X201672Y-187894D01*
X200754D01*
X200294Y-187434D01*
X204886Y-185139D02*
X203049D01*
Y-186516D01*
X203968Y-186057D01*
X204427D01*
X204886Y-186516D01*
Y-187434D01*
X204427Y-187894D01*
X203509D01*
X203049Y-187434D01*
X191207Y-163551D02*
X190748Y-163091D01*
X189829D01*
X189370Y-163551D01*
Y-165387D01*
X189829Y-165847D01*
X190748D01*
X191207Y-165387D01*
X192125Y-163551D02*
X192584Y-163091D01*
X193503D01*
X193962Y-163551D01*
Y-164010D01*
X193503Y-164469D01*
X193043D01*
X193503D01*
X193962Y-164928D01*
Y-165387D01*
X193503Y-165847D01*
X192584D01*
X192125Y-165387D01*
X194880Y-163551D02*
X195339Y-163091D01*
X196258D01*
X196717Y-163551D01*
Y-164010D01*
X196258Y-164469D01*
X195799D01*
X196258D01*
X196717Y-164928D01*
Y-165387D01*
X196258Y-165847D01*
X195339D01*
X194880Y-165387D01*
X217706Y-115370D02*
X217247Y-114911D01*
X216328D01*
X215869Y-115370D01*
Y-117207D01*
X216328Y-117666D01*
X217247D01*
X217706Y-117207D01*
X218624Y-117666D02*
X219543D01*
X219083D01*
Y-114911D01*
X218624Y-115370D01*
X256267Y-187927D02*
X255808Y-188386D01*
Y-189305D01*
X256267Y-189764D01*
X258104D01*
X258563Y-189305D01*
Y-188386D01*
X258104Y-187927D01*
X258563Y-185172D02*
Y-187009D01*
X256726Y-185172D01*
X256267D01*
X255808Y-185631D01*
Y-186550D01*
X256267Y-187009D01*
X277192Y-132749D02*
X276732Y-132290D01*
X275814D01*
X275355Y-132749D01*
Y-134586D01*
X275814Y-135045D01*
X276732D01*
X277192Y-134586D01*
X278110Y-132749D02*
X278569Y-132290D01*
X279488D01*
X279947Y-132749D01*
Y-133209D01*
X279488Y-133668D01*
X279028D01*
X279488D01*
X279947Y-134127D01*
Y-134586D01*
X279488Y-135045D01*
X278569D01*
X278110Y-134586D01*
X215616Y-156070D02*
X215157Y-155611D01*
X214239D01*
X213779Y-156070D01*
Y-157907D01*
X214239Y-158366D01*
X215157D01*
X215616Y-157907D01*
X218371Y-155611D02*
X216534D01*
Y-156989D01*
X217453Y-156529D01*
X217912D01*
X218371Y-156989D01*
Y-157907D01*
X217912Y-158366D01*
X216994D01*
X216534Y-157907D01*
X232251Y-187927D02*
X231792Y-188386D01*
Y-189305D01*
X232251Y-189764D01*
X234088D01*
X234547Y-189305D01*
Y-188386D01*
X234088Y-187927D01*
X234547Y-185631D02*
X231792D01*
X233170Y-187009D01*
Y-185172D01*
X215518Y-132547D02*
X215059Y-132088D01*
X214140D01*
X213681Y-132547D01*
Y-134383D01*
X214140Y-134843D01*
X215059D01*
X215518Y-134383D01*
X218273Y-132088D02*
X217354Y-132547D01*
X216436Y-133465D01*
Y-134383D01*
X216895Y-134843D01*
X217814D01*
X218273Y-134383D01*
Y-133924D01*
X217814Y-133465D01*
X216436D01*
X326280Y-25984D02*
X329035D01*
Y-24607D01*
X328576Y-24148D01*
X326740D01*
X326280Y-24607D01*
Y-25984D01*
X329035Y-21852D02*
X326280D01*
X327658Y-23229D01*
Y-21393D01*
X151969Y-170867D02*
Y-173622D01*
X153346D01*
X153805Y-173163D01*
Y-171326D01*
X153346Y-170867D01*
X151969D01*
X154724Y-173163D02*
X155183Y-173622D01*
X156101D01*
X156560Y-173163D01*
Y-171326D01*
X156101Y-170867D01*
X155183D01*
X154724Y-171326D01*
Y-171785D01*
X155183Y-172245D01*
X156560D01*
X244783Y-218406D02*
Y-221161D01*
X246161D01*
X246620Y-220702D01*
Y-218866D01*
X246161Y-218406D01*
X244783D01*
X247538Y-221161D02*
X248457D01*
X247998D01*
Y-218406D01*
X247538Y-218866D01*
X249834Y-221161D02*
X250753D01*
X250293D01*
Y-218406D01*
X249834Y-218866D01*
X280906Y-108662D02*
Y-111417D01*
X282283D01*
X282742Y-110958D01*
Y-109122D01*
X282283Y-108662D01*
X280906D01*
X283661Y-111417D02*
X284579D01*
X284120D01*
Y-108662D01*
X283661Y-109122D01*
X290551Y-108662D02*
Y-111417D01*
X291929D01*
X292388Y-110958D01*
Y-109122D01*
X291929Y-108662D01*
X290551D01*
X295143Y-111417D02*
X293306D01*
X295143Y-109581D01*
Y-109122D01*
X294684Y-108662D01*
X293765D01*
X293306Y-109122D01*
X237008Y-192717D02*
Y-195472D01*
X238844D01*
X239763D02*
X240681D01*
X240222D01*
Y-192717D01*
X239763Y-193177D01*
X159415Y-205250D02*
Y-203413D01*
X158956Y-202954D01*
X158038D01*
X157579Y-203413D01*
Y-205250D01*
X158038Y-205709D01*
X158956D01*
X158497Y-204790D02*
X159415Y-205709D01*
X158956D02*
X159415Y-205250D01*
X162170Y-202954D02*
X161252Y-203413D01*
X160334Y-204331D01*
Y-205250D01*
X160793Y-205709D01*
X161711D01*
X162170Y-205250D01*
Y-204790D01*
X161711Y-204331D01*
X160334D01*
X45537Y-131726D02*
Y-129889D01*
X45078Y-129430D01*
X44160D01*
X43701Y-129889D01*
Y-131726D01*
X44160Y-132185D01*
X45078D01*
X44619Y-131267D02*
X45537Y-132185D01*
X45078D02*
X45537Y-131726D01*
X46456Y-132185D02*
X47374D01*
X46915D01*
Y-129430D01*
X46456Y-129889D01*
X45734Y-106627D02*
Y-104791D01*
X45275Y-104332D01*
X44357D01*
X43898Y-104791D01*
Y-106627D01*
X44357Y-107087D01*
X45275D01*
X44816Y-106168D02*
X45734Y-107087D01*
X45275D02*
X45734Y-106627D01*
X48489Y-107087D02*
X46653D01*
X48489Y-105250D01*
Y-104791D01*
X48030Y-104332D01*
X47112D01*
X46653Y-104791D01*
X45833Y-84187D02*
Y-82350D01*
X45374Y-81891D01*
X44455D01*
X43996Y-82350D01*
Y-84187D01*
X44455Y-84646D01*
X45374D01*
X44914Y-83727D02*
X45833Y-84646D01*
X45374D02*
X45833Y-84187D01*
X46751Y-82350D02*
X47210Y-81891D01*
X48129D01*
X48588Y-82350D01*
Y-82809D01*
X48129Y-83268D01*
X47669D01*
X48129D01*
X48588Y-83727D01*
Y-84187D01*
X48129Y-84646D01*
X47210D01*
X46751Y-84187D01*
X45537Y-60466D02*
Y-58629D01*
X45078Y-58170D01*
X44160D01*
X43701Y-58629D01*
Y-60466D01*
X44160Y-60925D01*
X45078D01*
X44619Y-60007D02*
X45537Y-60925D01*
X45078D02*
X45537Y-60466D01*
X47833Y-60925D02*
Y-58170D01*
X46456Y-59548D01*
X48292D01*
X45439Y-36942D02*
Y-35106D01*
X44980Y-34647D01*
X44061D01*
X43602Y-35106D01*
Y-36942D01*
X44061Y-37402D01*
X44980D01*
X44521Y-36483D02*
X45439Y-37402D01*
X44980D02*
X45439Y-36942D01*
X48194Y-34647D02*
X46357D01*
Y-36024D01*
X47276Y-35565D01*
X47735D01*
X48194Y-36024D01*
Y-36942D01*
X47735Y-37402D01*
X46817D01*
X46357Y-36942D01*
X145079Y-107283D02*
X142324D01*
Y-105906D01*
X142783Y-105447D01*
X143701D01*
X144160Y-105906D01*
Y-107283D01*
Y-106365D02*
X145079Y-105447D01*
Y-102692D02*
Y-104528D01*
X143242Y-102692D01*
X142783D01*
X142324Y-103151D01*
Y-104069D01*
X142783Y-104528D01*
Y-101773D02*
X142324Y-101314D01*
Y-100396D01*
X142783Y-99937D01*
X143242D01*
X143701Y-100396D01*
Y-100855D01*
Y-100396D01*
X144160Y-99937D01*
X144620D01*
X145079Y-100396D01*
Y-101314D01*
X144620Y-101773D01*
X182579Y-45177D02*
Y-42422D01*
X183956D01*
X184415Y-42881D01*
Y-43800D01*
X183956Y-44259D01*
X182579D01*
X183497D02*
X184415Y-45177D01*
X187170D02*
X185334D01*
X187170Y-43341D01*
Y-42881D01*
X186711Y-42422D01*
X185793D01*
X185334Y-42881D01*
X188089Y-42422D02*
X189926D01*
Y-42881D01*
X188089Y-44718D01*
Y-45177D01*
X196949Y-42421D02*
Y-39666D01*
X198326D01*
X198785Y-40125D01*
Y-41044D01*
X198326Y-41503D01*
X196949D01*
X197867D02*
X198785Y-42421D01*
X201540D02*
X199704D01*
X201540Y-40585D01*
Y-40125D01*
X201081Y-39666D01*
X200163D01*
X199704Y-40125D01*
X202459Y-41962D02*
X202918Y-42421D01*
X203836D01*
X204295Y-41962D01*
Y-40125D01*
X203836Y-39666D01*
X202918D01*
X202459Y-40125D01*
Y-40585D01*
X202918Y-41044D01*
X204295D01*
X196949Y-36122D02*
Y-33367D01*
X198326D01*
X198785Y-33826D01*
Y-34745D01*
X198326Y-35204D01*
X196949D01*
X197867D02*
X198785Y-36122D01*
X201540D02*
X199704D01*
X201540Y-34285D01*
Y-33826D01*
X201081Y-33367D01*
X200163D01*
X199704Y-33826D01*
X202459D02*
X202918Y-33367D01*
X203836D01*
X204295Y-33826D01*
Y-34285D01*
X203836Y-34745D01*
X204295Y-35204D01*
Y-35663D01*
X203836Y-36122D01*
X202918D01*
X202459Y-35663D01*
Y-35204D01*
X202918Y-34745D01*
X202459Y-34285D01*
Y-33826D01*
X202918Y-34745D02*
X203836D01*
X329331Y-50000D02*
X326576D01*
Y-48623D01*
X327035Y-48163D01*
X327953D01*
X328412Y-48623D01*
Y-50000D01*
Y-49082D02*
X329331Y-48163D01*
Y-47245D02*
Y-46327D01*
Y-46786D01*
X326576D01*
X327035Y-47245D01*
X326576Y-43112D02*
Y-44949D01*
X327953D01*
X327494Y-44031D01*
Y-43572D01*
X327953Y-43112D01*
X328871D01*
X329331Y-43572D01*
Y-44490D01*
X328871Y-44949D01*
X326772Y-78740D02*
Y-75985D01*
X328149D01*
X328608Y-76444D01*
Y-77363D01*
X328149Y-77822D01*
X326772D01*
X327690D02*
X328608Y-78740D01*
X329527D02*
X330445D01*
X329986D01*
Y-75985D01*
X329527Y-76444D01*
X331822D02*
X332282Y-75985D01*
X333200D01*
X333659Y-76444D01*
Y-76903D01*
X333200Y-77363D01*
X332741D01*
X333200D01*
X333659Y-77822D01*
Y-78281D01*
X333200Y-78740D01*
X332282D01*
X331822Y-78281D01*
X326476Y-107185D02*
Y-104430D01*
X327854D01*
X328313Y-104889D01*
Y-105807D01*
X327854Y-106267D01*
X326476D01*
X327395D02*
X328313Y-107185D01*
X329231D02*
X330150D01*
X329691D01*
Y-104430D01*
X329231Y-104889D01*
X332905Y-107185D02*
Y-104430D01*
X331527Y-105807D01*
X333364D01*
X80315Y-218307D02*
Y-215552D01*
X81692D01*
X82152Y-216011D01*
Y-216930D01*
X81692Y-217389D01*
X80315D01*
X81233D02*
X82152Y-218307D01*
X83070Y-216011D02*
X83529Y-215552D01*
X84447D01*
X84907Y-216011D01*
Y-216470D01*
X84447Y-216930D01*
X83988D01*
X84447D01*
X84907Y-217389D01*
Y-217848D01*
X84447Y-218307D01*
X83529D01*
X83070Y-217848D01*
X85825Y-216011D02*
X86284Y-215552D01*
X87203D01*
X87662Y-216011D01*
Y-217848D01*
X87203Y-218307D01*
X86284D01*
X85825Y-217848D01*
Y-216011D01*
X133661Y-219587D02*
X130906D01*
Y-218209D01*
X131366Y-217750D01*
X132284D01*
X132743Y-218209D01*
Y-219587D01*
Y-218668D02*
X133661Y-217750D01*
X130906Y-214995D02*
Y-216832D01*
X132284D01*
X131825Y-215913D01*
Y-215454D01*
X132284Y-214995D01*
X133202D01*
X133661Y-215454D01*
Y-216372D01*
X133202Y-216832D01*
X130906Y-212240D02*
Y-214077D01*
X132284D01*
X131825Y-213158D01*
Y-212699D01*
X132284Y-212240D01*
X133202D01*
X133661Y-212699D01*
Y-213617D01*
X133202Y-214077D01*
X127953Y-205020D02*
Y-202265D01*
X129330D01*
X129789Y-202724D01*
Y-203642D01*
X129330Y-204101D01*
X127953D01*
X128871D02*
X129789Y-205020D01*
X132085D02*
Y-202265D01*
X130708Y-203642D01*
X132545D01*
X133463Y-202724D02*
X133922Y-202265D01*
X134840D01*
X135300Y-202724D01*
Y-204560D01*
X134840Y-205020D01*
X133922D01*
X133463Y-204560D01*
Y-202724D01*
X80709Y-199606D02*
Y-196851D01*
X82086D01*
X82545Y-197310D01*
Y-198229D01*
X82086Y-198688D01*
X80709D01*
X81627D02*
X82545Y-199606D01*
X83464Y-197310D02*
X83923Y-196851D01*
X84841D01*
X85300Y-197310D01*
Y-197770D01*
X84841Y-198229D01*
X84382D01*
X84841D01*
X85300Y-198688D01*
Y-199147D01*
X84841Y-199606D01*
X83923D01*
X83464Y-199147D01*
X86219Y-199606D02*
X87137D01*
X86678D01*
Y-196851D01*
X86219Y-197310D01*
X133465Y-199508D02*
X130710D01*
Y-198130D01*
X131169Y-197671D01*
X132087D01*
X132546Y-198130D01*
Y-199508D01*
Y-198590D02*
X133465Y-197671D01*
X130710Y-194916D02*
Y-196753D01*
X132087D01*
X131628Y-195835D01*
Y-195375D01*
X132087Y-194916D01*
X133005D01*
X133465Y-195375D01*
Y-196294D01*
X133005Y-196753D01*
X130710Y-192161D02*
X131169Y-193079D01*
X132087Y-193998D01*
X133005D01*
X133465Y-193539D01*
Y-192620D01*
X133005Y-192161D01*
X132546D01*
X132087Y-192620D01*
Y-193998D01*
X128543Y-187008D02*
Y-184253D01*
X129921D01*
X130380Y-184712D01*
Y-185630D01*
X129921Y-186090D01*
X128543D01*
X129462D02*
X130380Y-187008D01*
X132676D02*
Y-184253D01*
X131298Y-185630D01*
X133135D01*
X134053Y-187008D02*
X134972D01*
X134512D01*
Y-184253D01*
X134053Y-184712D01*
X140748Y-168504D02*
Y-165749D01*
X142125D01*
X142585Y-166208D01*
Y-167126D01*
X142125Y-167586D01*
X140748D01*
X141666D02*
X142585Y-168504D01*
X145340Y-165749D02*
X144421Y-166208D01*
X143503Y-167126D01*
Y-168045D01*
X143962Y-168504D01*
X144881D01*
X145340Y-168045D01*
Y-167586D01*
X144881Y-167126D01*
X143503D01*
X148095Y-165749D02*
X146258D01*
Y-167126D01*
X147176Y-166667D01*
X147636D01*
X148095Y-167126D01*
Y-168045D01*
X147636Y-168504D01*
X146717D01*
X146258Y-168045D01*
X72244Y-168996D02*
Y-166241D01*
X73622D01*
X74081Y-166700D01*
Y-167619D01*
X73622Y-168078D01*
X72244D01*
X73162D02*
X74081Y-168996D01*
X74999Y-166700D02*
X75458Y-166241D01*
X76377D01*
X76836Y-166700D01*
Y-167159D01*
X76377Y-167619D01*
X75917D01*
X76377D01*
X76836Y-168078D01*
Y-168537D01*
X76377Y-168996D01*
X75458D01*
X74999Y-168537D01*
X79591Y-168996D02*
X77754D01*
X79591Y-167159D01*
Y-166700D01*
X79132Y-166241D01*
X78213D01*
X77754Y-166700D01*
X133760Y-181693D02*
X131005D01*
Y-180315D01*
X131464Y-179856D01*
X132382D01*
X132842Y-180315D01*
Y-181693D01*
Y-180775D02*
X133760Y-179856D01*
X131005Y-177101D02*
Y-178938D01*
X132382D01*
X131923Y-178020D01*
Y-177560D01*
X132382Y-177101D01*
X133301D01*
X133760Y-177560D01*
Y-178479D01*
X133301Y-178938D01*
X131005Y-176183D02*
Y-174346D01*
X131464D01*
X133301Y-176183D01*
X133760D01*
X129528Y-168012D02*
Y-165257D01*
X130905D01*
X131364Y-165716D01*
Y-166634D01*
X130905Y-167094D01*
X129528D01*
X130446D02*
X131364Y-168012D01*
X133660D02*
Y-165257D01*
X132283Y-166634D01*
X134119D01*
X136874Y-168012D02*
X135038D01*
X136874Y-166175D01*
Y-165716D01*
X136415Y-165257D01*
X135497D01*
X135038Y-165716D01*
X80807Y-163189D02*
Y-160434D01*
X82185D01*
X82644Y-160893D01*
Y-161811D01*
X82185Y-162271D01*
X80807D01*
X81725D02*
X82644Y-163189D01*
X83562Y-160893D02*
X84021Y-160434D01*
X84940D01*
X85399Y-160893D01*
Y-161352D01*
X84940Y-161811D01*
X84480D01*
X84940D01*
X85399Y-162271D01*
Y-162730D01*
X84940Y-163189D01*
X84021D01*
X83562Y-162730D01*
X86317Y-160893D02*
X86776Y-160434D01*
X87695D01*
X88154Y-160893D01*
Y-161352D01*
X87695Y-161811D01*
X87235D01*
X87695D01*
X88154Y-162271D01*
Y-162730D01*
X87695Y-163189D01*
X86776D01*
X86317Y-162730D01*
X133858Y-162697D02*
X131103D01*
Y-161319D01*
X131562Y-160860D01*
X132481D01*
X132940Y-161319D01*
Y-162697D01*
Y-161778D02*
X133858Y-160860D01*
X131103Y-158105D02*
Y-159942D01*
X132481D01*
X132022Y-159023D01*
Y-158564D01*
X132481Y-158105D01*
X133399D01*
X133858Y-158564D01*
Y-159483D01*
X133399Y-159942D01*
X131562Y-157187D02*
X131103Y-156728D01*
Y-155809D01*
X131562Y-155350D01*
X132022D01*
X132481Y-155809D01*
X132940Y-155350D01*
X133399D01*
X133858Y-155809D01*
Y-156728D01*
X133399Y-157187D01*
X132940D01*
X132481Y-156728D01*
X132022Y-157187D01*
X131562D01*
X132481Y-156728D02*
Y-155809D01*
X129134Y-149016D02*
Y-146261D01*
X130511D01*
X130971Y-146720D01*
Y-147638D01*
X130511Y-148097D01*
X129134D01*
X130052D02*
X130971Y-149016D01*
X133266D02*
Y-146261D01*
X131889Y-147638D01*
X133726D01*
X134644Y-146720D02*
X135103Y-146261D01*
X136021D01*
X136481Y-146720D01*
Y-147179D01*
X136021Y-147638D01*
X135562D01*
X136021D01*
X136481Y-148097D01*
Y-148557D01*
X136021Y-149016D01*
X135103D01*
X134644Y-148557D01*
X88484Y-143209D02*
X91239D01*
Y-144586D01*
X90780Y-145045D01*
X89862D01*
X89403Y-144586D01*
Y-143209D01*
Y-144127D02*
X88484Y-145045D01*
X90780Y-145964D02*
X91239Y-146423D01*
Y-147341D01*
X90780Y-147800D01*
X90321D01*
X89862Y-147341D01*
Y-146882D01*
Y-147341D01*
X89403Y-147800D01*
X88943D01*
X88484Y-147341D01*
Y-146423D01*
X88943Y-145964D01*
X88484Y-150096D02*
X91239D01*
X89862Y-148719D01*
Y-150555D01*
X133760Y-143701D02*
X131005D01*
Y-142323D01*
X131464Y-141864D01*
X132382D01*
X132842Y-142323D01*
Y-143701D01*
Y-142782D02*
X133760Y-141864D01*
X131005Y-139109D02*
Y-140946D01*
X132382D01*
X131923Y-140027D01*
Y-139568D01*
X132382Y-139109D01*
X133301D01*
X133760Y-139568D01*
Y-140487D01*
X133301Y-140946D01*
Y-138191D02*
X133760Y-137732D01*
Y-136813D01*
X133301Y-136354D01*
X131464D01*
X131005Y-136813D01*
Y-137732D01*
X131464Y-138191D01*
X131923D01*
X132382Y-137732D01*
Y-136354D01*
X118898Y-128740D02*
Y-125985D01*
X120275D01*
X120734Y-126444D01*
Y-127363D01*
X120275Y-127822D01*
X118898D01*
X119816D02*
X120734Y-128740D01*
X123030D02*
Y-125985D01*
X121653Y-127363D01*
X123489D01*
X125785Y-128740D02*
Y-125985D01*
X124408Y-127363D01*
X126244D01*
X73228Y-203740D02*
Y-200985D01*
X74606D01*
X75065Y-201444D01*
Y-202363D01*
X74606Y-202822D01*
X73228D01*
X74147D02*
X75065Y-203740D01*
X77820Y-200985D02*
X76902Y-201444D01*
X75983Y-202363D01*
Y-203281D01*
X76442Y-203740D01*
X77361D01*
X77820Y-203281D01*
Y-202822D01*
X77361Y-202363D01*
X75983D01*
X78738Y-203740D02*
X79657D01*
X79198D01*
Y-200985D01*
X78738Y-201444D01*
X72146Y-186909D02*
Y-184154D01*
X73523D01*
X73982Y-184614D01*
Y-185532D01*
X73523Y-185991D01*
X72146D01*
X73064D02*
X73982Y-186909D01*
X76737Y-184154D02*
X75819Y-184614D01*
X74901Y-185532D01*
Y-186450D01*
X75360Y-186909D01*
X76278D01*
X76737Y-186450D01*
Y-185991D01*
X76278Y-185532D01*
X74901D01*
X79492Y-186909D02*
X77656D01*
X79492Y-185073D01*
Y-184614D01*
X79033Y-184154D01*
X78115D01*
X77656Y-184614D01*
X117618Y-111811D02*
Y-109056D01*
X118996D01*
X119455Y-109515D01*
Y-110433D01*
X118996Y-110893D01*
X117618D01*
X118536D02*
X119455Y-111811D01*
X120373Y-109515D02*
X120832Y-109056D01*
X121751D01*
X122210Y-109515D01*
Y-109974D01*
X121751Y-110433D01*
X121291D01*
X121751D01*
X122210Y-110893D01*
Y-111352D01*
X121751Y-111811D01*
X120832D01*
X120373Y-111352D01*
X124965Y-109056D02*
X123128D01*
Y-110433D01*
X124047Y-109974D01*
X124506D01*
X124965Y-110433D01*
Y-111352D01*
X124506Y-111811D01*
X123587D01*
X123128Y-111352D01*
X87500Y-131102D02*
X84745D01*
Y-129725D01*
X85204Y-129266D01*
X86123D01*
X86582Y-129725D01*
Y-131102D01*
Y-130184D02*
X87500Y-129266D01*
Y-126970D02*
X84745D01*
X86123Y-128347D01*
Y-126511D01*
X84745Y-123756D02*
Y-125592D01*
X86123D01*
X85663Y-124674D01*
Y-124215D01*
X86123Y-123756D01*
X87041D01*
X87500Y-124215D01*
Y-125133D01*
X87041Y-125592D01*
X80709Y-181102D02*
Y-178347D01*
X82086D01*
X82545Y-178806D01*
Y-179725D01*
X82086Y-180184D01*
X80709D01*
X81627D02*
X82545Y-181102D01*
X85300Y-178347D02*
X84382Y-178806D01*
X83464Y-179725D01*
Y-180643D01*
X83923Y-181102D01*
X84841D01*
X85300Y-180643D01*
Y-180184D01*
X84841Y-179725D01*
X83464D01*
X86219Y-178806D02*
X86678Y-178347D01*
X87596D01*
X88055Y-178806D01*
Y-179266D01*
X87596Y-179725D01*
X87137D01*
X87596D01*
X88055Y-180184D01*
Y-180643D01*
X87596Y-181102D01*
X86678D01*
X86219Y-180643D01*
X87106Y-119488D02*
X84351D01*
Y-118111D01*
X84811Y-117651D01*
X85729D01*
X86188Y-118111D01*
Y-119488D01*
Y-118570D02*
X87106Y-117651D01*
Y-115356D02*
X84351D01*
X85729Y-116733D01*
Y-114897D01*
X84351Y-112142D02*
X84811Y-113060D01*
X85729Y-113978D01*
X86647D01*
X87106Y-113519D01*
Y-112601D01*
X86647Y-112142D01*
X86188D01*
X85729Y-112601D01*
Y-113978D01*
X72441Y-152067D02*
Y-149312D01*
X73818D01*
X74278Y-149771D01*
Y-150689D01*
X73818Y-151149D01*
X72441D01*
X73359D02*
X74278Y-152067D01*
X77033Y-149312D02*
X76114Y-149771D01*
X75196Y-150689D01*
Y-151608D01*
X75655Y-152067D01*
X76573D01*
X77033Y-151608D01*
Y-151149D01*
X76573Y-150689D01*
X75196D01*
X79329Y-152067D02*
Y-149312D01*
X77951Y-150689D01*
X79788D01*
X115551Y-105020D02*
Y-102265D01*
X116929D01*
X117388Y-102724D01*
Y-103642D01*
X116929Y-104101D01*
X115551D01*
X116470D02*
X117388Y-105020D01*
X118306Y-102724D02*
X118765Y-102265D01*
X119684D01*
X120143Y-102724D01*
Y-103183D01*
X119684Y-103642D01*
X119225D01*
X119684D01*
X120143Y-104101D01*
Y-104560D01*
X119684Y-105020D01*
X118765D01*
X118306Y-104560D01*
X122898Y-102265D02*
X121980Y-102724D01*
X121061Y-103642D01*
Y-104560D01*
X121520Y-105020D01*
X122439D01*
X122898Y-104560D01*
Y-104101D01*
X122439Y-103642D01*
X121061D01*
X85630Y-106496D02*
Y-103741D01*
X87007D01*
X87467Y-104200D01*
Y-105119D01*
X87007Y-105578D01*
X85630D01*
X86548D02*
X87467Y-106496D01*
X89763D02*
Y-103741D01*
X88385Y-105119D01*
X90222D01*
X91140Y-103741D02*
X92977D01*
Y-104200D01*
X91140Y-106037D01*
Y-106496D01*
X72638Y-137697D02*
Y-134942D01*
X74015D01*
X74475Y-135401D01*
Y-136319D01*
X74015Y-136778D01*
X72638D01*
X73556D02*
X74475Y-137697D01*
X77229Y-134942D02*
X76311Y-135401D01*
X75393Y-136319D01*
Y-137238D01*
X75852Y-137697D01*
X76770D01*
X77229Y-137238D01*
Y-136778D01*
X76770Y-136319D01*
X75393D01*
X78148Y-135401D02*
X78607Y-134942D01*
X79525D01*
X79984Y-135401D01*
Y-137238D01*
X79525Y-137697D01*
X78607D01*
X78148Y-137238D01*
Y-135401D01*
X86910Y-97342D02*
X84154D01*
Y-95965D01*
X84614Y-95506D01*
X85532D01*
X85991Y-95965D01*
Y-97342D01*
Y-96424D02*
X86910Y-95506D01*
Y-93210D02*
X84154D01*
X85532Y-94587D01*
Y-92751D01*
X84614Y-91833D02*
X84154Y-91373D01*
Y-90455D01*
X84614Y-89996D01*
X85073D01*
X85532Y-90455D01*
X85991Y-89996D01*
X86450D01*
X86910Y-90455D01*
Y-91373D01*
X86450Y-91833D01*
X85991D01*
X85532Y-91373D01*
X85073Y-91833D01*
X84614D01*
X85532Y-91373D02*
Y-90455D01*
X115453Y-82284D02*
Y-79528D01*
X116830D01*
X117289Y-79988D01*
Y-80906D01*
X116830Y-81365D01*
X115453D01*
X116371D02*
X117289Y-82284D01*
X118208Y-79988D02*
X118667Y-79528D01*
X119585D01*
X120045Y-79988D01*
Y-80447D01*
X119585Y-80906D01*
X119126D01*
X119585D01*
X120045Y-81365D01*
Y-81824D01*
X119585Y-82284D01*
X118667D01*
X118208Y-81824D01*
X120963Y-79528D02*
X122800D01*
Y-79988D01*
X120963Y-81824D01*
Y-82284D01*
X84941Y-84350D02*
Y-81595D01*
X86318D01*
X86778Y-82055D01*
Y-82973D01*
X86318Y-83432D01*
X84941D01*
X85859D02*
X86778Y-84350D01*
X89073D02*
Y-81595D01*
X87696Y-82973D01*
X89533D01*
X90451Y-83891D02*
X90910Y-84350D01*
X91829D01*
X92288Y-83891D01*
Y-82055D01*
X91829Y-81595D01*
X90910D01*
X90451Y-82055D01*
Y-82514D01*
X90910Y-82973D01*
X92288D01*
X86910Y-75394D02*
X84154D01*
Y-74016D01*
X84614Y-73557D01*
X85532D01*
X85991Y-74016D01*
Y-75394D01*
Y-74475D02*
X86910Y-73557D01*
X84154Y-70802D02*
Y-72639D01*
X85532D01*
X85073Y-71720D01*
Y-71261D01*
X85532Y-70802D01*
X86450D01*
X86910Y-71261D01*
Y-72180D01*
X86450Y-72639D01*
X84614Y-69884D02*
X84154Y-69424D01*
Y-68506D01*
X84614Y-68047D01*
X86450D01*
X86910Y-68506D01*
Y-69424D01*
X86450Y-69884D01*
X84614D01*
X115748Y-50787D02*
Y-48032D01*
X117125D01*
X117585Y-48492D01*
Y-49410D01*
X117125Y-49869D01*
X115748D01*
X116666D02*
X117585Y-50787D01*
X118503Y-48492D02*
X118962Y-48032D01*
X119881D01*
X120340Y-48492D01*
Y-48951D01*
X119881Y-49410D01*
X119421D01*
X119881D01*
X120340Y-49869D01*
Y-50328D01*
X119881Y-50787D01*
X118962D01*
X118503Y-50328D01*
X121258Y-48492D02*
X121717Y-48032D01*
X122636D01*
X123095Y-48492D01*
Y-48951D01*
X122636Y-49410D01*
X123095Y-49869D01*
Y-50328D01*
X122636Y-50787D01*
X121717D01*
X121258Y-50328D01*
Y-49869D01*
X121717Y-49410D01*
X121258Y-48951D01*
Y-48492D01*
X121717Y-49410D02*
X122636D01*
X85236Y-62008D02*
Y-59253D01*
X86614D01*
X87073Y-59712D01*
Y-60630D01*
X86614Y-61089D01*
X85236D01*
X86155D02*
X87073Y-62008D01*
X89828Y-59253D02*
X87991D01*
Y-60630D01*
X88910Y-60171D01*
X89369D01*
X89828Y-60630D01*
Y-61549D01*
X89369Y-62008D01*
X88450D01*
X87991Y-61549D01*
X90746Y-62008D02*
X91665D01*
X91205D01*
Y-59253D01*
X90746Y-59712D01*
X87100Y-53500D02*
X84345D01*
Y-52122D01*
X84804Y-51663D01*
X85723D01*
X86182Y-52122D01*
Y-53500D01*
Y-52582D02*
X87100Y-51663D01*
X84345Y-48908D02*
Y-50745D01*
X85723D01*
X85263Y-49827D01*
Y-49367D01*
X85723Y-48908D01*
X86641D01*
X87100Y-49367D01*
Y-50286D01*
X86641Y-50745D01*
X87100Y-46153D02*
Y-47990D01*
X85263Y-46153D01*
X84804D01*
X84345Y-46613D01*
Y-47531D01*
X84804Y-47990D01*
X116634Y-29134D02*
Y-26379D01*
X118011D01*
X118471Y-26838D01*
Y-27756D01*
X118011Y-28216D01*
X116634D01*
X117552D02*
X118471Y-29134D01*
X119389Y-26838D02*
X119848Y-26379D01*
X120766D01*
X121226Y-26838D01*
Y-27297D01*
X120766Y-27756D01*
X120307D01*
X120766D01*
X121226Y-28216D01*
Y-28675D01*
X120766Y-29134D01*
X119848D01*
X119389Y-28675D01*
X122144D02*
X122603Y-29134D01*
X123521D01*
X123981Y-28675D01*
Y-26838D01*
X123521Y-26379D01*
X122603D01*
X122144Y-26838D01*
Y-27297D01*
X122603Y-27756D01*
X123981D01*
X85236Y-39469D02*
Y-36713D01*
X86614D01*
X87073Y-37173D01*
Y-38091D01*
X86614Y-38550D01*
X85236D01*
X86155D02*
X87073Y-39469D01*
X89828Y-36713D02*
X87991D01*
Y-38091D01*
X88910Y-37632D01*
X89369D01*
X89828Y-38091D01*
Y-39009D01*
X89369Y-39469D01*
X88450D01*
X87991Y-39009D01*
X90746Y-37173D02*
X91205Y-36713D01*
X92124D01*
X92583Y-37173D01*
Y-37632D01*
X92124Y-38091D01*
X91665D01*
X92124D01*
X92583Y-38550D01*
Y-39009D01*
X92124Y-39469D01*
X91205D01*
X90746Y-39009D01*
X87200Y-31300D02*
X84445D01*
Y-29923D01*
X84904Y-29463D01*
X85822D01*
X86282Y-29923D01*
Y-31300D01*
Y-30382D02*
X87200Y-29463D01*
X84445Y-26708D02*
Y-28545D01*
X85822D01*
X85363Y-27627D01*
Y-27167D01*
X85822Y-26708D01*
X86741D01*
X87200Y-27167D01*
Y-28086D01*
X86741Y-28545D01*
X87200Y-24412D02*
X84445D01*
X85822Y-25790D01*
Y-23953D01*
X159153Y-220768D02*
Y-218013D01*
X160531D01*
X160990Y-218472D01*
Y-219390D01*
X160531Y-219849D01*
X159153D01*
X160072D02*
X160990Y-220768D01*
X163745Y-218013D02*
X162827Y-218472D01*
X161909Y-219390D01*
Y-220309D01*
X162368Y-220768D01*
X163286D01*
X163745Y-220309D01*
Y-219849D01*
X163286Y-219390D01*
X161909D01*
X164664Y-218472D02*
X165123Y-218013D01*
X166041D01*
X166500Y-218472D01*
Y-218931D01*
X166041Y-219390D01*
X166500Y-219849D01*
Y-220309D01*
X166041Y-220768D01*
X165123D01*
X164664Y-220309D01*
Y-219849D01*
X165123Y-219390D01*
X164664Y-218931D01*
Y-218472D01*
X165123Y-219390D02*
X166041D01*
X182087Y-183268D02*
X179332D01*
Y-181890D01*
X179791Y-181431D01*
X180709D01*
X181168Y-181890D01*
Y-183268D01*
Y-182349D02*
X182087Y-181431D01*
X179332Y-178676D02*
X179791Y-179594D01*
X180709Y-180513D01*
X181627D01*
X182087Y-180053D01*
Y-179135D01*
X181627Y-178676D01*
X181168D01*
X180709Y-179135D01*
Y-180513D01*
X179332Y-175921D02*
X179791Y-176839D01*
X180709Y-177758D01*
X181627D01*
X182087Y-177298D01*
Y-176380D01*
X181627Y-175921D01*
X181168D01*
X180709Y-176380D01*
Y-177758D01*
X185925Y-187894D02*
Y-185139D01*
X187303D01*
X187762Y-185598D01*
Y-186516D01*
X187303Y-186975D01*
X185925D01*
X186844D02*
X187762Y-187894D01*
X190517Y-185139D02*
X189599Y-185598D01*
X188680Y-186516D01*
Y-187434D01*
X189139Y-187894D01*
X190058D01*
X190517Y-187434D01*
Y-186975D01*
X190058Y-186516D01*
X188680D01*
X191435Y-185139D02*
X193272D01*
Y-185598D01*
X191435Y-187434D01*
Y-187894D01*
X275295Y-148819D02*
Y-146064D01*
X276673D01*
X277132Y-146523D01*
Y-147441D01*
X276673Y-147901D01*
X275295D01*
X276214D02*
X277132Y-148819D01*
X279887D02*
X278050D01*
X279887Y-146982D01*
Y-146523D01*
X279428Y-146064D01*
X278509D01*
X278050Y-146523D01*
X281398Y-160630D02*
X278643D01*
Y-159252D01*
X279102Y-158793D01*
X280020D01*
X280479Y-159252D01*
Y-160630D01*
Y-159712D02*
X281398Y-158793D01*
X279102Y-157875D02*
X278643Y-157416D01*
Y-156497D01*
X279102Y-156038D01*
X279561D01*
X280020Y-156497D01*
Y-156957D01*
Y-156497D01*
X280479Y-156038D01*
X280939D01*
X281398Y-156497D01*
Y-157416D01*
X280939Y-157875D01*
X265551Y-180118D02*
X262796D01*
Y-178741D01*
X263255Y-178281D01*
X264174D01*
X264633Y-178741D01*
Y-180118D01*
Y-179200D02*
X265551Y-178281D01*
Y-175986D02*
X262796D01*
X264174Y-177363D01*
Y-175526D01*
X252559Y-189764D02*
X249804D01*
Y-188386D01*
X250263Y-187927D01*
X251182D01*
X251641Y-188386D01*
Y-189764D01*
Y-188845D02*
X252559Y-187927D01*
X249804Y-187009D02*
Y-185172D01*
X250263D01*
X252100Y-187009D01*
X252559D01*
X246457Y-189764D02*
X243702D01*
Y-188386D01*
X244161Y-187927D01*
X245079D01*
X245538Y-188386D01*
Y-189764D01*
Y-188846D02*
X246457Y-187927D01*
Y-187009D02*
Y-186090D01*
Y-186550D01*
X243702D01*
X244161Y-187009D01*
X255413Y-121358D02*
Y-118603D01*
X256791D01*
X257250Y-119062D01*
Y-119981D01*
X256791Y-120440D01*
X255413D01*
X256332D02*
X257250Y-121358D01*
X260005Y-118603D02*
X258168D01*
Y-119981D01*
X259087Y-119522D01*
X259546D01*
X260005Y-119981D01*
Y-120899D01*
X259546Y-121358D01*
X258628D01*
X258168Y-120899D01*
X255413Y-127461D02*
Y-124706D01*
X256791D01*
X257250Y-125165D01*
Y-126083D01*
X256791Y-126542D01*
X255413D01*
X256332D02*
X257250Y-127461D01*
X260005Y-124706D02*
X259087Y-125165D01*
X258168Y-126083D01*
Y-127002D01*
X258628Y-127461D01*
X259546D01*
X260005Y-127002D01*
Y-126542D01*
X259546Y-126083D01*
X258168D01*
X277461Y-160630D02*
X274706D01*
Y-159252D01*
X275165Y-158793D01*
X276083D01*
X276542Y-159252D01*
Y-160630D01*
Y-159712D02*
X277461Y-158793D01*
Y-157875D02*
Y-156957D01*
Y-157416D01*
X274706D01*
X275165Y-157875D01*
X277461Y-153742D02*
Y-155579D01*
X275624Y-153742D01*
X275165D01*
X274706Y-154201D01*
Y-155120D01*
X275165Y-155579D01*
X217815Y-129134D02*
Y-126379D01*
X219193D01*
X219652Y-126838D01*
Y-127756D01*
X219193Y-128216D01*
X217815D01*
X218733D02*
X219652Y-129134D01*
X220570Y-126838D02*
X221029Y-126379D01*
X221948D01*
X222407Y-126838D01*
Y-127297D01*
X221948Y-127756D01*
X222407Y-128216D01*
Y-128675D01*
X221948Y-129134D01*
X221029D01*
X220570Y-128675D01*
Y-128216D01*
X221029Y-127756D01*
X220570Y-127297D01*
Y-126838D01*
X221029Y-127756D02*
X221948D01*
X275492Y-141634D02*
Y-138879D01*
X276870D01*
X277329Y-139338D01*
Y-140256D01*
X276870Y-140716D01*
X275492D01*
X276411D02*
X277329Y-141634D01*
X278247Y-141175D02*
X278706Y-141634D01*
X279625D01*
X280084Y-141175D01*
Y-139338D01*
X279625Y-138879D01*
X278706D01*
X278247Y-139338D01*
Y-139797D01*
X278706Y-140256D01*
X280084D01*
X240551Y-189764D02*
X237796D01*
Y-188386D01*
X238255Y-187927D01*
X239174D01*
X239633Y-188386D01*
Y-189764D01*
Y-188846D02*
X240551Y-187927D01*
Y-187009D02*
Y-186090D01*
Y-186550D01*
X237796D01*
X238255Y-187009D01*
Y-184713D02*
X237796Y-184254D01*
Y-183335D01*
X238255Y-182876D01*
X240092D01*
X240551Y-183335D01*
Y-184254D01*
X240092Y-184713D01*
X238255D01*
X240748Y-122835D02*
Y-120080D01*
X242126D01*
X242585Y-120539D01*
Y-121457D01*
X242126Y-121916D01*
X240748D01*
X241666D02*
X242585Y-122835D01*
X243503D02*
X244421D01*
X243962D01*
Y-120080D01*
X243503Y-120539D01*
X245799Y-122835D02*
X246717D01*
X246258D01*
Y-120080D01*
X245799Y-120539D01*
X209055Y-27954D02*
Y-30250D01*
X209514Y-30709D01*
X210433D01*
X210892Y-30250D01*
Y-27954D01*
X211810Y-30709D02*
X212729D01*
X212269D01*
Y-27954D01*
X211810Y-28413D01*
X214106D02*
X214565Y-27954D01*
X215483D01*
X215943Y-28413D01*
Y-30250D01*
X215483Y-30709D01*
X214565D01*
X214106Y-30250D01*
Y-28413D01*
X288287Y-19489D02*
Y-21785D01*
X288747Y-22244D01*
X289665D01*
X290124Y-21785D01*
Y-19489D01*
X292420Y-22244D02*
Y-19489D01*
X291042Y-20867D01*
X292879D01*
X118898Y-206694D02*
Y-208990D01*
X119357Y-209449D01*
X120275D01*
X120734Y-208990D01*
Y-206694D01*
X121653Y-209449D02*
X122571D01*
X122112D01*
Y-206694D01*
X121653Y-207153D01*
X125785Y-206694D02*
X124867Y-207153D01*
X123949Y-208071D01*
Y-208990D01*
X124408Y-209449D01*
X125326D01*
X125785Y-208990D01*
Y-208530D01*
X125326Y-208071D01*
X123949D01*
X119095Y-188091D02*
Y-190387D01*
X119554Y-190847D01*
X120472D01*
X120931Y-190387D01*
Y-188091D01*
X121850Y-190847D02*
X122768D01*
X122309D01*
Y-188091D01*
X121850Y-188551D01*
X124145Y-188091D02*
X125982D01*
Y-188551D01*
X124145Y-190387D01*
Y-190847D01*
X119291Y-169095D02*
Y-171391D01*
X119750Y-171850D01*
X120669D01*
X121128Y-171391D01*
Y-169095D01*
X122046Y-171850D02*
X122965D01*
X122505D01*
Y-169095D01*
X122046Y-169554D01*
X124342D02*
X124801Y-169095D01*
X125720D01*
X126179Y-169554D01*
Y-170014D01*
X125720Y-170473D01*
X126179Y-170932D01*
Y-171391D01*
X125720Y-171850D01*
X124801D01*
X124342Y-171391D01*
Y-170932D01*
X124801Y-170473D01*
X124342Y-170014D01*
Y-169554D01*
X124801Y-170473D02*
X125720D01*
X119488Y-150001D02*
Y-152297D01*
X119947Y-152756D01*
X120866D01*
X121325Y-152297D01*
Y-150001D01*
X122243Y-152756D02*
X123162D01*
X122702D01*
Y-150001D01*
X122243Y-150460D01*
X124539Y-152297D02*
X124998Y-152756D01*
X125917D01*
X126376Y-152297D01*
Y-150460D01*
X125917Y-150001D01*
X124998D01*
X124539Y-150460D01*
Y-150919D01*
X124998Y-151378D01*
X126376D01*
X119095Y-130119D02*
Y-132415D01*
X119554Y-132874D01*
X120472D01*
X120931Y-132415D01*
Y-130119D01*
X123686Y-132874D02*
X121850D01*
X123686Y-131037D01*
Y-130578D01*
X123227Y-130119D01*
X122309D01*
X121850Y-130578D01*
X124604D02*
X125064Y-130119D01*
X125982D01*
X126441Y-130578D01*
Y-132415D01*
X125982Y-132874D01*
X125064D01*
X124604Y-132415D01*
Y-130578D01*
X36910Y-215295D02*
X39206D01*
X39665Y-214836D01*
Y-213918D01*
X39206Y-213459D01*
X36910D01*
X39665Y-210704D02*
Y-212540D01*
X37829Y-210704D01*
X37369D01*
X36910Y-211163D01*
Y-212081D01*
X37369Y-212540D01*
X39665Y-207949D02*
Y-209785D01*
X37829Y-207949D01*
X37369D01*
X36910Y-208408D01*
Y-209326D01*
X37369Y-209785D01*
X36910Y-200057D02*
X39206D01*
X39665Y-199597D01*
Y-198679D01*
X39206Y-198220D01*
X36910D01*
X39665Y-195465D02*
Y-197302D01*
X37829Y-195465D01*
X37369D01*
X36910Y-195924D01*
Y-196842D01*
X37369Y-197302D01*
Y-194547D02*
X36910Y-194087D01*
Y-193169D01*
X37369Y-192710D01*
X37829D01*
X38288Y-193169D01*
Y-193628D01*
Y-193169D01*
X38747Y-192710D01*
X39206D01*
X39665Y-193169D01*
Y-194087D01*
X39206Y-194547D01*
X106201Y-103840D02*
Y-106135D01*
X106660Y-106595D01*
X107578D01*
X108037Y-106135D01*
Y-103840D01*
X108956Y-106595D02*
X109874D01*
X109415D01*
Y-103840D01*
X108956Y-104299D01*
X111252Y-106595D02*
X112170D01*
X111711D01*
Y-103840D01*
X111252Y-104299D01*
X37009Y-182220D02*
X39305D01*
X39764Y-181760D01*
Y-180842D01*
X39305Y-180383D01*
X37009D01*
X39764Y-177628D02*
Y-179464D01*
X37927Y-177628D01*
X37468D01*
X37009Y-178087D01*
Y-179005D01*
X37468Y-179464D01*
X39764Y-175332D02*
X37009D01*
X38386Y-176709D01*
Y-174873D01*
X36517Y-163861D02*
X38813D01*
X39272Y-163402D01*
Y-162483D01*
X38813Y-162024D01*
X36517D01*
X39272Y-159269D02*
Y-161106D01*
X37435Y-159269D01*
X36976D01*
X36517Y-159728D01*
Y-160647D01*
X36976Y-161106D01*
X36517Y-156514D02*
Y-158351D01*
X37894D01*
X37435Y-157432D01*
Y-156973D01*
X37894Y-156514D01*
X38813D01*
X39272Y-156973D01*
Y-157891D01*
X38813Y-158351D01*
X36910Y-147146D02*
X39206D01*
X39665Y-146686D01*
Y-145768D01*
X39206Y-145309D01*
X36910D01*
X39665Y-142554D02*
Y-144391D01*
X37829Y-142554D01*
X37369D01*
X36910Y-143013D01*
Y-143931D01*
X37369Y-144391D01*
X39665Y-141636D02*
Y-140717D01*
Y-141176D01*
X36910D01*
X37369Y-141636D01*
X103543Y-81891D02*
Y-84187D01*
X104002Y-84646D01*
X104921D01*
X105380Y-84187D01*
Y-81891D01*
X106298Y-84646D02*
X107217D01*
X106757D01*
Y-81891D01*
X106298Y-82350D01*
X110431Y-84646D02*
X108594D01*
X110431Y-82809D01*
Y-82350D01*
X109972Y-81891D01*
X109053D01*
X108594Y-82350D01*
X103937Y-59745D02*
Y-62041D01*
X104396Y-62500D01*
X105315D01*
X105774Y-62041D01*
Y-59745D01*
X106692Y-62500D02*
X107610D01*
X107151D01*
Y-59745D01*
X106692Y-60204D01*
X108988D02*
X109447Y-59745D01*
X110365D01*
X110825Y-60204D01*
Y-60663D01*
X110365Y-61123D01*
X109906D01*
X110365D01*
X110825Y-61582D01*
Y-62041D01*
X110365Y-62500D01*
X109447D01*
X108988Y-62041D01*
X105118Y-36615D02*
Y-38911D01*
X105577Y-39370D01*
X106496D01*
X106955Y-38911D01*
Y-36615D01*
X107873Y-39370D02*
X108791D01*
X108332D01*
Y-36615D01*
X107873Y-37074D01*
X111547Y-39370D02*
Y-36615D01*
X110169Y-37993D01*
X112006D01*
X105709Y-15158D02*
Y-17454D01*
X106168Y-17913D01*
X107086D01*
X107545Y-17454D01*
Y-15158D01*
X108464Y-17913D02*
X109382D01*
X108923D01*
Y-15158D01*
X108464Y-15618D01*
X112596Y-15158D02*
X110759D01*
Y-16536D01*
X111678Y-16077D01*
X112137D01*
X112596Y-16536D01*
Y-17454D01*
X112137Y-17913D01*
X111219D01*
X110759Y-17454D01*
X190650Y-217422D02*
Y-219718D01*
X191109Y-220177D01*
X192027D01*
X192486Y-219718D01*
Y-217422D01*
X195241Y-220177D02*
X193405D01*
X195241Y-218340D01*
Y-217881D01*
X194782Y-217422D01*
X193864D01*
X193405Y-217881D01*
X196160Y-217422D02*
X197996D01*
Y-217881D01*
X196160Y-219718D01*
Y-220177D01*
X156092Y-89018D02*
X158847Y-87181D01*
X156092D02*
X158847Y-89018D01*
X156092Y-86263D02*
Y-84426D01*
Y-85345D01*
X158847D01*
Y-83508D02*
X157010D01*
X156092Y-82590D01*
X157010Y-81671D01*
X158847D01*
X157469D01*
Y-83508D01*
X156092Y-80753D02*
X158847D01*
Y-78916D01*
Y-76620D02*
X156092D01*
X157469Y-77998D01*
Y-76161D01*
X214666Y-152165D02*
X217421Y-150329D01*
X214666D02*
X217421Y-152165D01*
X214666Y-149410D02*
Y-147574D01*
Y-148492D01*
X217421D01*
Y-146655D02*
X215585D01*
X214666Y-145737D01*
X215585Y-144819D01*
X217421D01*
X216044D01*
Y-146655D01*
X214666Y-143900D02*
X217421D01*
Y-142064D01*
Y-141145D02*
Y-140227D01*
Y-140686D01*
X214666D01*
X215125Y-141145D01*
D22*
X187008Y-5906D02*
D03*
Y-230315D02*
D03*
M02*
