G04*
G04 #@! TF.GenerationSoftware,Altium Limited,Altium Designer,23.1.1 (15)*
G04*
G04 Layer_Physical_Order=2*
G04 Layer_Color=16440176*
%FSLAX25Y25*%
%MOIN*%
G70*
G04*
G04 #@! TF.SameCoordinates,3933A833-9F2A-4A8F-B8C8-70B72ACEB786*
G04*
G04*
G04 #@! TF.FilePolarity,Positive*
G04*
G01*
G75*
%ADD112C,0.07874*%
%ADD119C,0.03150*%
%ADD120C,0.03937*%
%ADD121C,0.05906*%
%ADD122C,0.04724*%
%ADD123C,0.03543*%
%ADD125C,0.07874*%
%ADD127R,0.05906X0.05906*%
%ADD128C,0.02756*%
%ADD129O,0.08268X0.04134*%
%ADD130C,0.03937*%
G36*
X41274Y-49986D02*
X40852Y-50023D01*
X38960Y-50295D01*
X38909Y-50326D01*
X36682Y-48099D01*
X36713Y-48048D01*
X36745Y-47955D01*
X36777Y-47821D01*
X36844Y-47431D01*
X36949Y-46536D01*
X37022Y-45734D01*
X41274Y-49986D01*
D02*
G37*
G36*
X25020Y-52994D02*
X24752Y-53280D01*
X24512Y-53570D01*
X24300Y-53865D01*
X24117Y-54164D01*
X23963Y-54469D01*
X23838Y-54778D01*
X23741Y-55092D01*
X23673Y-55411D01*
X23633Y-55735D01*
X23622Y-56063D01*
X19724Y-52166D01*
X20053Y-52154D01*
X20376Y-52115D01*
X20695Y-52047D01*
X21009Y-51950D01*
X21318Y-51824D01*
X21623Y-51670D01*
X21923Y-51487D01*
X22218Y-51276D01*
X22508Y-51036D01*
X22793Y-50767D01*
X25020Y-52994D01*
D02*
G37*
G36*
Y-66774D02*
X24752Y-67059D01*
X24512Y-67349D01*
X24300Y-67644D01*
X24117Y-67944D01*
X23963Y-68248D01*
X23838Y-68558D01*
X23741Y-68872D01*
X23673Y-69191D01*
X23633Y-69514D01*
X23622Y-69842D01*
X19724Y-65945D01*
X20053Y-65934D01*
X20376Y-65894D01*
X20695Y-65826D01*
X21009Y-65729D01*
X21318Y-65604D01*
X21623Y-65450D01*
X21923Y-65267D01*
X22218Y-65055D01*
X22508Y-64815D01*
X22793Y-64547D01*
X25020Y-66774D01*
D02*
G37*
G36*
X33201Y-68401D02*
X33316Y-68505D01*
X33472Y-68597D01*
X33669Y-68677D01*
X33906Y-68744D01*
X34184Y-68800D01*
X34502Y-68842D01*
X35261Y-68892D01*
X35702Y-68898D01*
X33119Y-73622D01*
X31197Y-73448D01*
X33126Y-68284D01*
X33201Y-68401D01*
D02*
G37*
G36*
X24304Y-79382D02*
X24020Y-79684D01*
X23776Y-79978D01*
X23574Y-80266D01*
X23412Y-80547D01*
X23291Y-80822D01*
X23210Y-81090D01*
X23171Y-81351D01*
X23172Y-81605D01*
X23214Y-81853D01*
X23297Y-82094D01*
X18190Y-80019D01*
X18356Y-79942D01*
X18537Y-79840D01*
X18733Y-79714D01*
X19172Y-79387D01*
X19671Y-78962D01*
X20535Y-78140D01*
X24304Y-79382D01*
D02*
G37*
G36*
X36370Y-84455D02*
X34452Y-87548D01*
X34146Y-87257D01*
X33855Y-87012D01*
X33579Y-86811D01*
X33318Y-86656D01*
X33071Y-86546D01*
X32840Y-86481D01*
X32623Y-86461D01*
X32422Y-86487D01*
X32235Y-86557D01*
X32063Y-86673D01*
X32836Y-81528D01*
X36370Y-84455D01*
D02*
G37*
G36*
X24565Y-93491D02*
X24283Y-93791D01*
X24038Y-94086D01*
X23831Y-94377D01*
X23662Y-94664D01*
X23532Y-94946D01*
X23439Y-95223D01*
X23385Y-95496D01*
X23369Y-95765D01*
X23390Y-96030D01*
X23450Y-96290D01*
X18609Y-93654D01*
X18832Y-93580D01*
X19063Y-93482D01*
X19302Y-93360D01*
X19550Y-93214D01*
X19806Y-93044D01*
X20342Y-92633D01*
X20623Y-92391D01*
X21209Y-91836D01*
X24565Y-93491D01*
D02*
G37*
G36*
X39880Y-97990D02*
X36104D01*
X36126Y-97939D01*
X36146Y-97848D01*
X36163Y-97716D01*
X36191Y-97332D01*
X36220Y-95669D01*
X39764D01*
X39880Y-97990D01*
D02*
G37*
G36*
X33039Y-99274D02*
X33040Y-99422D01*
X33080Y-99591D01*
X33158Y-99781D01*
X33274Y-99993D01*
X33428Y-100224D01*
X33620Y-100478D01*
X34120Y-101047D01*
X34428Y-101363D01*
X30867Y-104484D01*
X27940Y-101044D01*
X33076Y-99147D01*
X33039Y-99274D01*
D02*
G37*
G36*
X370079Y-171589D02*
X369685Y-171942D01*
X365846D01*
X365050Y-172047D01*
X364308Y-172354D01*
X364143Y-172481D01*
X366264Y-174602D01*
X365846Y-175020D01*
X366264Y-175437D01*
X364143Y-177558D01*
X364308Y-177685D01*
X365050Y-177992D01*
X365846Y-178097D01*
X369980D01*
X370079Y-178183D01*
Y-205605D01*
X369685Y-205958D01*
X365846D01*
X365050Y-206063D01*
X364308Y-206370D01*
X364143Y-206497D01*
X366264Y-208618D01*
X365846Y-209035D01*
X366264Y-209453D01*
X364143Y-211574D01*
X364308Y-211701D01*
X365050Y-212008D01*
X365846Y-212113D01*
X369980D01*
X370079Y-212199D01*
Y-232283D01*
X3937Y-232283D01*
X3937Y-107283D01*
X15804D01*
X15953Y-107677D01*
X15214Y-108639D01*
X14699Y-109884D01*
X14523Y-111221D01*
X14699Y-112557D01*
X15214Y-113802D01*
X16035Y-114871D01*
X17104Y-115691D01*
X18349Y-116207D01*
X19685Y-116383D01*
X21021Y-116207D01*
X22266Y-115691D01*
X23335Y-114871D01*
X24156Y-113802D01*
X24409Y-113189D01*
X24803D01*
X25057Y-113802D01*
X25877Y-114871D01*
X26946Y-115691D01*
X28192Y-116207D01*
X29528Y-116383D01*
X30864Y-116207D01*
X32109Y-115691D01*
X32451Y-115428D01*
X32804Y-115603D01*
Y-120618D01*
X32451Y-120792D01*
X32109Y-120529D01*
X30864Y-120014D01*
X29528Y-119838D01*
X28192Y-120014D01*
X26946Y-120529D01*
X25877Y-121350D01*
X25057Y-122419D01*
X24803Y-123031D01*
X24409D01*
X24156Y-122419D01*
X23335Y-121350D01*
X22266Y-120529D01*
X21021Y-120014D01*
X19685Y-119838D01*
X18349Y-120014D01*
X17104Y-120529D01*
X16035Y-121350D01*
X15214Y-122419D01*
X14699Y-123664D01*
X14523Y-125000D01*
X14699Y-126336D01*
X15214Y-127581D01*
X16035Y-128650D01*
X17104Y-129471D01*
X18349Y-129986D01*
X19685Y-130162D01*
X21021Y-129986D01*
X22266Y-129471D01*
X23335Y-128650D01*
X24156Y-127581D01*
X24409Y-126969D01*
X24803D01*
X25057Y-127581D01*
X25877Y-128650D01*
X26946Y-129471D01*
X28192Y-129986D01*
X29528Y-130162D01*
X30864Y-129986D01*
X32109Y-129471D01*
X32505Y-129166D01*
X32804Y-128937D01*
X32804D01*
Y-128937D01*
X32804Y-128937D01*
X60039Y-128937D01*
X60039Y-18701D01*
X54134Y-12795D01*
X3937D01*
Y-3937D01*
X370079Y-3937D01*
X370079Y-171589D01*
D02*
G37*
%LPC*%
G36*
X180838Y-17520D02*
X174634D01*
X177736Y-20621D01*
X180838Y-17520D01*
D02*
G37*
G36*
X311713Y-16120D02*
X311045Y-16208D01*
X310422Y-16465D01*
X309888Y-16876D01*
X309477Y-17410D01*
X309219Y-18033D01*
X309132Y-18701D01*
X309219Y-19369D01*
X309477Y-19991D01*
X309888Y-20526D01*
X310422Y-20936D01*
X311045Y-21194D01*
X311713Y-21282D01*
X312381Y-21194D01*
X313003Y-20936D01*
X313538Y-20526D01*
X313948Y-19991D01*
X314206Y-19369D01*
X314294Y-18701D01*
X314206Y-18033D01*
X313948Y-17410D01*
X313538Y-16876D01*
X313003Y-16465D01*
X312381Y-16208D01*
X311713Y-16120D01*
D02*
G37*
G36*
X181673Y-18355D02*
X178571Y-21457D01*
X181673Y-24558D01*
Y-18355D01*
D02*
G37*
G36*
X173799Y-18355D02*
Y-24558D01*
X176901Y-21457D01*
X173799Y-18355D01*
D02*
G37*
G36*
X177736Y-22292D02*
X174634Y-25394D01*
X180838D01*
X177736Y-22292D01*
D02*
G37*
G36*
X217736Y-17287D02*
X216657Y-17429D01*
X215651Y-17846D01*
X214788Y-18508D01*
X214125Y-19372D01*
X213709Y-20378D01*
X213567Y-21457D01*
X213709Y-22536D01*
X214125Y-23541D01*
X214788Y-24405D01*
X215651Y-25068D01*
X216657Y-25484D01*
X217736Y-25626D01*
X218815Y-25484D01*
X219821Y-25068D01*
X220685Y-24405D01*
X221347Y-23541D01*
X221764Y-22536D01*
X221906Y-21457D01*
X221764Y-20378D01*
X221347Y-19372D01*
X220685Y-18508D01*
X219821Y-17846D01*
X218815Y-17429D01*
X217736Y-17287D01*
D02*
G37*
G36*
X207736D02*
X206657Y-17429D01*
X205651Y-17846D01*
X204788Y-18508D01*
X204125Y-19372D01*
X203709Y-20378D01*
X203567Y-21457D01*
X203709Y-22536D01*
X204125Y-23541D01*
X204788Y-24405D01*
X205651Y-25068D01*
X206657Y-25484D01*
X207736Y-25626D01*
X208815Y-25484D01*
X209821Y-25068D01*
X210684Y-24405D01*
X211347Y-23541D01*
X211764Y-22536D01*
X211906Y-21457D01*
X211764Y-20378D01*
X211347Y-19372D01*
X210684Y-18508D01*
X209821Y-17846D01*
X208815Y-17429D01*
X207736Y-17287D01*
D02*
G37*
G36*
X197736D02*
X196657Y-17429D01*
X195651Y-17846D01*
X194788Y-18508D01*
X194125Y-19372D01*
X193709Y-20378D01*
X193567Y-21457D01*
X193709Y-22536D01*
X194125Y-23541D01*
X194788Y-24405D01*
X195651Y-25068D01*
X196657Y-25484D01*
X197736Y-25626D01*
X198815Y-25484D01*
X199821Y-25068D01*
X200684Y-24405D01*
X201347Y-23541D01*
X201764Y-22536D01*
X201906Y-21457D01*
X201764Y-20378D01*
X201347Y-19372D01*
X200684Y-18508D01*
X199821Y-17846D01*
X198815Y-17429D01*
X197736Y-17287D01*
D02*
G37*
G36*
X187736D02*
X186657Y-17429D01*
X185652Y-17846D01*
X184788Y-18508D01*
X184125Y-19372D01*
X183709Y-20378D01*
X183567Y-21457D01*
X183709Y-22536D01*
X184125Y-23541D01*
X184788Y-24405D01*
X185652Y-25068D01*
X186657Y-25484D01*
X187736Y-25626D01*
X188815Y-25484D01*
X189821Y-25068D01*
X190684Y-24405D01*
X191347Y-23541D01*
X191764Y-22536D01*
X191906Y-21457D01*
X191764Y-20378D01*
X191347Y-19372D01*
X190684Y-18508D01*
X189821Y-17846D01*
X188815Y-17429D01*
X187736Y-17287D01*
D02*
G37*
G36*
X354823Y-32633D02*
X353487Y-32809D01*
X352242Y-33325D01*
X351173Y-34145D01*
X350352Y-35214D01*
X350098Y-35827D01*
X349705D01*
X349451Y-35214D01*
X348631Y-34145D01*
X347561Y-33325D01*
X346316Y-32809D01*
X344980Y-32633D01*
X343644Y-32809D01*
X342399Y-33325D01*
X341330Y-34145D01*
X340510Y-35214D01*
X339994Y-36459D01*
X339818Y-37795D01*
X339994Y-39131D01*
X340510Y-40376D01*
X341330Y-41445D01*
X342399Y-42266D01*
X343644Y-42782D01*
X344980Y-42957D01*
X346316Y-42782D01*
X347561Y-42266D01*
X348631Y-41445D01*
X349451Y-40376D01*
X349705Y-39764D01*
X350098D01*
X350352Y-40376D01*
X351173Y-41445D01*
X352242Y-42266D01*
X353487Y-42782D01*
X354823Y-42957D01*
X356159Y-42782D01*
X357404Y-42266D01*
X358473Y-41445D01*
X359294Y-40376D01*
X359809Y-39131D01*
X359985Y-37795D01*
X359809Y-36459D01*
X359294Y-35214D01*
X358473Y-34145D01*
X357404Y-33325D01*
X356159Y-32809D01*
X354823Y-32633D01*
D02*
G37*
G36*
X188583Y-35017D02*
X187915Y-35105D01*
X187292Y-35363D01*
X186758Y-35773D01*
X186347Y-36308D01*
X186090Y-36930D01*
X186002Y-37598D01*
X186090Y-38267D01*
X186347Y-38889D01*
X186758Y-39424D01*
X187292Y-39834D01*
X187915Y-40092D01*
X188583Y-40180D01*
X189251Y-40092D01*
X189873Y-39834D01*
X190408Y-39424D01*
X190818Y-38889D01*
X191076Y-38267D01*
X191164Y-37598D01*
X191076Y-36930D01*
X190818Y-36308D01*
X190408Y-35773D01*
X189873Y-35363D01*
X189251Y-35105D01*
X188583Y-35017D01*
D02*
G37*
G36*
X282776Y-36198D02*
X282107Y-36286D01*
X281485Y-36544D01*
X280950Y-36954D01*
X280540Y-37489D01*
X280282Y-38111D01*
X280194Y-38780D01*
X280282Y-39448D01*
X280540Y-40070D01*
X280950Y-40605D01*
X281485Y-41015D01*
X282107Y-41273D01*
X282776Y-41361D01*
X283444Y-41273D01*
X284066Y-41015D01*
X284601Y-40605D01*
X285011Y-40070D01*
X285269Y-39448D01*
X285357Y-38780D01*
X285269Y-38111D01*
X285011Y-37489D01*
X284601Y-36954D01*
X284066Y-36544D01*
X283444Y-36286D01*
X282776Y-36198D01*
D02*
G37*
G36*
X203248Y-41120D02*
X202580Y-41208D01*
X201958Y-41465D01*
X201423Y-41876D01*
X201013Y-42410D01*
X200755Y-43033D01*
X200667Y-43701D01*
X200755Y-44369D01*
X201013Y-44991D01*
X201423Y-45526D01*
X201958Y-45936D01*
X202580Y-46194D01*
X203248Y-46282D01*
X203916Y-46194D01*
X204539Y-45936D01*
X205073Y-45526D01*
X205483Y-44991D01*
X205741Y-44369D01*
X205829Y-43701D01*
X205741Y-43033D01*
X205483Y-42410D01*
X205073Y-41876D01*
X204539Y-41465D01*
X203916Y-41208D01*
X203248Y-41120D01*
D02*
G37*
G36*
X123917Y-41612D02*
X123249Y-41700D01*
X122627Y-41958D01*
X122092Y-42368D01*
X121682Y-42902D01*
X121424Y-43525D01*
X121336Y-44193D01*
X121424Y-44861D01*
X121682Y-45483D01*
X122092Y-46018D01*
X122627Y-46428D01*
X123249Y-46686D01*
X123917Y-46774D01*
X124585Y-46686D01*
X125208Y-46428D01*
X125742Y-46018D01*
X126153Y-45483D01*
X126410Y-44861D01*
X126498Y-44193D01*
X126410Y-43525D01*
X126153Y-42902D01*
X125742Y-42368D01*
X125208Y-41958D01*
X124585Y-41700D01*
X123917Y-41612D01*
D02*
G37*
G36*
X354823Y-46413D02*
X353487Y-46588D01*
X352242Y-47104D01*
X351173Y-47925D01*
X350352Y-48994D01*
X350098Y-49606D01*
X349705D01*
X349451Y-48994D01*
X348631Y-47925D01*
X347562Y-47104D01*
X346316Y-46588D01*
X344980Y-46413D01*
X343644Y-46588D01*
X342399Y-47104D01*
X341330Y-47925D01*
X340510Y-48994D01*
X339994Y-50239D01*
X339818Y-51575D01*
X339994Y-52911D01*
X340510Y-54156D01*
X341330Y-55225D01*
X342399Y-56046D01*
X343644Y-56561D01*
X344980Y-56737D01*
X346316Y-56561D01*
X347562Y-56046D01*
X348631Y-55225D01*
X349451Y-54156D01*
X349705Y-53543D01*
X350098D01*
X350352Y-54156D01*
X351173Y-55225D01*
X352242Y-56046D01*
X353487Y-56561D01*
X354823Y-56737D01*
X356159Y-56561D01*
X357404Y-56046D01*
X358473Y-55225D01*
X359294Y-54156D01*
X359809Y-52911D01*
X359985Y-51575D01*
X359809Y-50239D01*
X359294Y-48994D01*
X358473Y-47925D01*
X357404Y-47104D01*
X356159Y-46588D01*
X354823Y-46413D01*
D02*
G37*
G36*
X297933Y-44761D02*
X297265Y-44849D01*
X296642Y-45107D01*
X296108Y-45517D01*
X295698Y-46052D01*
X295440Y-46674D01*
X295352Y-47343D01*
X295440Y-48011D01*
X295698Y-48633D01*
X296108Y-49168D01*
X296642Y-49578D01*
X297265Y-49836D01*
X297933Y-49924D01*
X298601Y-49836D01*
X299224Y-49578D01*
X299758Y-49168D01*
X300168Y-48633D01*
X300426Y-48011D01*
X300514Y-47343D01*
X300426Y-46674D01*
X300168Y-46052D01*
X299758Y-45517D01*
X299224Y-45107D01*
X298601Y-44849D01*
X297933Y-44761D01*
D02*
G37*
G36*
X184744Y-45450D02*
X184076Y-45538D01*
X183454Y-45796D01*
X182919Y-46206D01*
X182509Y-46741D01*
X182251Y-47363D01*
X182163Y-48031D01*
X182251Y-48700D01*
X182509Y-49322D01*
X182919Y-49857D01*
X183454Y-50267D01*
X184076Y-50525D01*
X184744Y-50613D01*
X185412Y-50525D01*
X186035Y-50267D01*
X186569Y-49857D01*
X186979Y-49322D01*
X187237Y-48700D01*
X187325Y-48031D01*
X187237Y-47363D01*
X186979Y-46741D01*
X186569Y-46206D01*
X186035Y-45796D01*
X185412Y-45538D01*
X184744Y-45450D01*
D02*
G37*
G36*
X156988Y-47813D02*
X156320Y-47901D01*
X155698Y-48158D01*
X155163Y-48569D01*
X154753Y-49103D01*
X154495Y-49726D01*
X154407Y-50394D01*
X154495Y-51062D01*
X154753Y-51684D01*
X155163Y-52219D01*
X155698Y-52629D01*
X156320Y-52887D01*
X156988Y-52975D01*
X157656Y-52887D01*
X158279Y-52629D01*
X158813Y-52219D01*
X159223Y-51684D01*
X159481Y-51062D01*
X159569Y-50394D01*
X159481Y-49726D01*
X159223Y-49103D01*
X158813Y-48569D01*
X158279Y-48158D01*
X157656Y-47901D01*
X156988Y-47813D01*
D02*
G37*
G36*
X189064Y-52526D02*
X188395Y-52614D01*
X187773Y-52872D01*
X187238Y-53282D01*
X187108Y-53452D01*
X186755D01*
X186662Y-53387D01*
X186133Y-52981D01*
X185511Y-52723D01*
X184843Y-52635D01*
X184175Y-52723D01*
X183552Y-52981D01*
X183017Y-53391D01*
X182607Y-53926D01*
X182349Y-54549D01*
X182261Y-55216D01*
X182349Y-55885D01*
X182607Y-56507D01*
X183017Y-57042D01*
X183552Y-57452D01*
X184175Y-57710D01*
X184843Y-57798D01*
X185511Y-57710D01*
X186133Y-57452D01*
X186668Y-57042D01*
X186798Y-56871D01*
X187151D01*
X187244Y-56937D01*
X187773Y-57342D01*
X188395Y-57600D01*
X189064Y-57688D01*
X189732Y-57600D01*
X190354Y-57342D01*
X190889Y-56932D01*
X191255Y-56454D01*
X191497Y-56427D01*
X191700Y-56458D01*
X192072Y-56943D01*
X192607Y-57353D01*
X193230Y-57611D01*
X193898Y-57699D01*
X194566Y-57611D01*
X195188Y-57353D01*
X195723Y-56943D01*
X196133Y-56409D01*
X196391Y-55786D01*
X196479Y-55118D01*
X196391Y-54450D01*
X196133Y-53828D01*
X195723Y-53293D01*
X195188Y-52883D01*
X194566Y-52625D01*
X193898Y-52537D01*
X193230Y-52625D01*
X192607Y-52883D01*
X192072Y-53293D01*
X191706Y-53771D01*
X191464Y-53798D01*
X191261Y-53767D01*
X190889Y-53282D01*
X190354Y-52872D01*
X189732Y-52614D01*
X189064Y-52526D01*
D02*
G37*
G36*
X176378Y-50568D02*
X175710Y-50656D01*
X175087Y-50914D01*
X174553Y-51324D01*
X174143Y-51859D01*
X173885Y-52482D01*
X173797Y-53150D01*
X173885Y-53818D01*
X174143Y-54440D01*
X174553Y-54975D01*
X175087Y-55385D01*
X175710Y-55643D01*
X176378Y-55731D01*
X177046Y-55643D01*
X177668Y-55385D01*
X178203Y-54975D01*
X178613Y-54440D01*
X178871Y-53818D01*
X178959Y-53150D01*
X178871Y-52482D01*
X178613Y-51859D01*
X178203Y-51324D01*
X177668Y-50914D01*
X177046Y-50656D01*
X176378Y-50568D01*
D02*
G37*
G36*
X225394Y-52439D02*
X224726Y-52526D01*
X224103Y-52784D01*
X223569Y-53195D01*
X223158Y-53729D01*
X222901Y-54352D01*
X222813Y-55020D01*
X222901Y-55688D01*
X223158Y-56310D01*
X223569Y-56845D01*
X224103Y-57255D01*
X224726Y-57513D01*
X225394Y-57601D01*
X226062Y-57513D01*
X226684Y-57255D01*
X227219Y-56845D01*
X227629Y-56310D01*
X227887Y-55688D01*
X227975Y-55020D01*
X227887Y-54352D01*
X227629Y-53729D01*
X227219Y-53195D01*
X226684Y-52784D01*
X226062Y-52526D01*
X225394Y-52439D01*
D02*
G37*
G36*
X125000Y-57655D02*
X124332Y-57743D01*
X123709Y-58001D01*
X123175Y-58411D01*
X122765Y-58946D01*
X122507Y-59568D01*
X122419Y-60236D01*
X122507Y-60904D01*
X122765Y-61527D01*
X123175Y-62061D01*
X123709Y-62471D01*
X124332Y-62729D01*
X125000Y-62817D01*
X125668Y-62729D01*
X126291Y-62471D01*
X126825Y-62061D01*
X127235Y-61527D01*
X127493Y-60904D01*
X127581Y-60236D01*
X127493Y-59568D01*
X127235Y-58946D01*
X126825Y-58411D01*
X126291Y-58001D01*
X125668Y-57743D01*
X125000Y-57655D01*
D02*
G37*
G36*
X354823Y-60192D02*
X353487Y-60368D01*
X352242Y-60884D01*
X351173Y-61704D01*
X350352Y-62773D01*
X350098Y-63386D01*
X349705D01*
X349451Y-62773D01*
X348631Y-61704D01*
X347561Y-60884D01*
X346316Y-60368D01*
X344980Y-60192D01*
X343644Y-60368D01*
X342399Y-60884D01*
X341330Y-61704D01*
X340510Y-62773D01*
X339994Y-64018D01*
X339818Y-65354D01*
X339994Y-66690D01*
X340510Y-67936D01*
X341330Y-69005D01*
X342399Y-69825D01*
X343644Y-70341D01*
X344980Y-70517D01*
X346316Y-70341D01*
X347561Y-69825D01*
X348631Y-69005D01*
X349451Y-67936D01*
X349705Y-67323D01*
X350098D01*
X350352Y-67936D01*
X351173Y-69005D01*
X352242Y-69825D01*
X353487Y-70341D01*
X354823Y-70517D01*
X356159Y-70341D01*
X357404Y-69825D01*
X358473Y-69005D01*
X359294Y-67936D01*
X359809Y-66690D01*
X359985Y-65354D01*
X359809Y-64018D01*
X359294Y-62773D01*
X358473Y-61704D01*
X357404Y-60884D01*
X356159Y-60368D01*
X354823Y-60192D01*
D02*
G37*
G36*
X204035Y-62773D02*
X203367Y-62861D01*
X202745Y-63119D01*
X202210Y-63529D01*
X201800Y-64064D01*
X201542Y-64686D01*
X201482Y-65143D01*
X201478Y-65174D01*
X201081D01*
X201077Y-65143D01*
X201017Y-64686D01*
X200759Y-64064D01*
X200349Y-63529D01*
X199814Y-63119D01*
X199192Y-62861D01*
X198524Y-62773D01*
X197856Y-62861D01*
X197233Y-63119D01*
X196752Y-63488D01*
X196271Y-63119D01*
X195648Y-62861D01*
X194980Y-62773D01*
X194312Y-62861D01*
X193690Y-63119D01*
X193155Y-63529D01*
X192745Y-64064D01*
X192487Y-64686D01*
X192399Y-65354D01*
X192487Y-66022D01*
X192745Y-66645D01*
X193155Y-67180D01*
X193690Y-67590D01*
X194312Y-67848D01*
X194980Y-67936D01*
X195648Y-67848D01*
X196271Y-67590D01*
X196752Y-67220D01*
X197233Y-67590D01*
X197856Y-67848D01*
X198524Y-67936D01*
X199192Y-67848D01*
X199814Y-67590D01*
X200349Y-67180D01*
X200759Y-66645D01*
X201017Y-66022D01*
X201077Y-65566D01*
X201081Y-65535D01*
X201478D01*
X201482Y-65566D01*
X201542Y-66022D01*
X201800Y-66645D01*
X202210Y-67180D01*
X202745Y-67590D01*
X203367Y-67848D01*
X204035Y-67936D01*
X204703Y-67848D01*
X205326Y-67590D01*
X205861Y-67180D01*
X206271Y-66645D01*
X206529Y-66022D01*
X206617Y-65354D01*
X206529Y-64686D01*
X206271Y-64064D01*
X205861Y-63529D01*
X205326Y-63119D01*
X204703Y-62861D01*
X204035Y-62773D01*
D02*
G37*
G36*
X203150Y-69072D02*
X202482Y-69160D01*
X201859Y-69418D01*
X201378Y-69787D01*
X200897Y-69418D01*
X200274Y-69160D01*
X199606Y-69072D01*
X198938Y-69160D01*
X198316Y-69418D01*
X197781Y-69828D01*
X197371Y-70363D01*
X197113Y-70986D01*
X197025Y-71653D01*
X197113Y-72322D01*
X197371Y-72944D01*
X197781Y-73479D01*
X198316Y-73889D01*
X198938Y-74147D01*
X199606Y-74235D01*
X200274Y-74147D01*
X200897Y-73889D01*
X201378Y-73520D01*
X201859Y-73889D01*
X202482Y-74147D01*
X203150Y-74235D01*
X203818Y-74147D01*
X204440Y-73889D01*
X204975Y-73479D01*
X205385Y-72944D01*
X205643Y-72322D01*
X205731Y-71653D01*
X205643Y-70986D01*
X205385Y-70363D01*
X204975Y-69828D01*
X204440Y-69418D01*
X203818Y-69160D01*
X203150Y-69072D01*
D02*
G37*
G36*
X174409Y-66809D02*
X173741Y-66897D01*
X173119Y-67154D01*
X172584Y-67565D01*
X172174Y-68099D01*
X171916Y-68722D01*
X171828Y-69390D01*
X171916Y-70058D01*
X172174Y-70680D01*
X172584Y-71215D01*
X173119Y-71625D01*
X173741Y-71883D01*
X174409Y-71971D01*
X175077Y-71883D01*
X175700Y-71625D01*
X176235Y-71215D01*
X176645Y-70680D01*
X176903Y-70058D01*
X176991Y-69390D01*
X176903Y-68722D01*
X176645Y-68099D01*
X176235Y-67565D01*
X175700Y-67154D01*
X175077Y-66897D01*
X174409Y-66809D01*
D02*
G37*
G36*
X125000Y-67498D02*
X124332Y-67586D01*
X123709Y-67843D01*
X123175Y-68254D01*
X122765Y-68788D01*
X122507Y-69411D01*
X122419Y-70079D01*
X122507Y-70747D01*
X122765Y-71369D01*
X123175Y-71904D01*
X123709Y-72314D01*
X124332Y-72572D01*
X125000Y-72660D01*
X125668Y-72572D01*
X126291Y-72314D01*
X126825Y-71904D01*
X127235Y-71369D01*
X127493Y-70747D01*
X127581Y-70079D01*
X127493Y-69411D01*
X127235Y-68788D01*
X126825Y-68254D01*
X126291Y-67843D01*
X125668Y-67586D01*
X125000Y-67498D01*
D02*
G37*
G36*
X354823Y-73972D02*
X353487Y-74147D01*
X352242Y-74663D01*
X351173Y-75484D01*
X350352Y-76553D01*
X350098Y-77165D01*
X349705D01*
X349451Y-76553D01*
X348631Y-75484D01*
X347562Y-74663D01*
X346316Y-74147D01*
X344980Y-73972D01*
X343644Y-74147D01*
X342399Y-74663D01*
X341330Y-75484D01*
X340510Y-76553D01*
X339994Y-77798D01*
X339818Y-79134D01*
X339994Y-80470D01*
X340510Y-81715D01*
X341330Y-82784D01*
X342399Y-83605D01*
X343644Y-84120D01*
X344980Y-84296D01*
X346316Y-84120D01*
X347562Y-83605D01*
X348631Y-82784D01*
X349451Y-81715D01*
X349705Y-81102D01*
X350098D01*
X350352Y-81715D01*
X351173Y-82784D01*
X352242Y-83605D01*
X353487Y-84120D01*
X354823Y-84296D01*
X356159Y-84120D01*
X357404Y-83605D01*
X358473Y-82784D01*
X359294Y-81715D01*
X359809Y-80470D01*
X359985Y-79134D01*
X359809Y-77798D01*
X359294Y-76553D01*
X358473Y-75484D01*
X357404Y-74663D01*
X356159Y-74147D01*
X354823Y-73972D01*
D02*
G37*
G36*
X209154Y-79013D02*
X208486Y-79101D01*
X207863Y-79359D01*
X207382Y-79728D01*
X206901Y-79359D01*
X206278Y-79101D01*
X205610Y-79013D01*
X204942Y-79101D01*
X204320Y-79359D01*
X203785Y-79769D01*
X203375Y-80304D01*
X203117Y-80926D01*
X203029Y-81595D01*
X203117Y-82262D01*
X203375Y-82885D01*
X203785Y-83420D01*
X204320Y-83830D01*
X204942Y-84088D01*
X205610Y-84176D01*
X206278Y-84088D01*
X206901Y-83830D01*
X207382Y-83461D01*
X207863Y-83830D01*
X208486Y-84088D01*
X209154Y-84176D01*
X209822Y-84088D01*
X210444Y-83830D01*
X210979Y-83420D01*
X211389Y-82885D01*
X211647Y-82262D01*
X211735Y-81595D01*
X211647Y-80926D01*
X211389Y-80304D01*
X210979Y-79769D01*
X210444Y-79359D01*
X209822Y-79101D01*
X209154Y-79013D01*
D02*
G37*
G36*
X307677Y-78324D02*
X307009Y-78412D01*
X306387Y-78670D01*
X305852Y-79080D01*
X305442Y-79615D01*
X305184Y-80238D01*
X305096Y-80905D01*
X305184Y-81574D01*
X305442Y-82196D01*
X305852Y-82731D01*
X306387Y-83141D01*
X307009Y-83399D01*
X307677Y-83487D01*
X308345Y-83399D01*
X308968Y-83141D01*
X309502Y-82731D01*
X309912Y-82196D01*
X310170Y-81574D01*
X310258Y-80905D01*
X310170Y-80238D01*
X309912Y-79615D01*
X309502Y-79080D01*
X308968Y-78670D01*
X308345Y-78412D01*
X307677Y-78324D01*
D02*
G37*
G36*
X173622Y-77439D02*
X172954Y-77526D01*
X172332Y-77784D01*
X171797Y-78195D01*
X171387Y-78729D01*
X171129Y-79352D01*
X171041Y-80020D01*
X171129Y-80688D01*
X171387Y-81310D01*
X171797Y-81845D01*
Y-82033D01*
X171387Y-82568D01*
X171129Y-83190D01*
X171041Y-83858D01*
X171129Y-84526D01*
X171387Y-85149D01*
X171797Y-85683D01*
X172332Y-86094D01*
X172954Y-86351D01*
X173622Y-86439D01*
X174290Y-86351D01*
X174913Y-86094D01*
X175447Y-85683D01*
X175857Y-85149D01*
X176115Y-84526D01*
X176203Y-83858D01*
X176115Y-83190D01*
X175857Y-82568D01*
X175447Y-82033D01*
Y-81845D01*
X175857Y-81310D01*
X176115Y-80688D01*
X176203Y-80020D01*
X176115Y-79352D01*
X175857Y-78729D01*
X175447Y-78195D01*
X174913Y-77784D01*
X174290Y-77526D01*
X173622Y-77439D01*
D02*
G37*
G36*
X286947Y-81633D02*
X286279Y-81721D01*
X285657Y-81979D01*
X285122Y-82389D01*
X284712Y-82924D01*
X284454Y-83546D01*
X284366Y-84214D01*
X284454Y-84882D01*
X284712Y-85505D01*
X285122Y-86039D01*
X285657Y-86449D01*
X286279Y-86707D01*
X286947Y-86795D01*
X287615Y-86707D01*
X288238Y-86449D01*
X288772Y-86039D01*
X289183Y-85505D01*
X289440Y-84882D01*
X289528Y-84214D01*
X289440Y-83546D01*
X289183Y-82924D01*
X288772Y-82389D01*
X288238Y-81979D01*
X287615Y-81721D01*
X286947Y-81633D01*
D02*
G37*
G36*
X354823Y-87751D02*
X353487Y-87927D01*
X352242Y-88443D01*
X351173Y-89263D01*
X350352Y-90332D01*
X350098Y-90945D01*
X349705D01*
X349451Y-90332D01*
X348631Y-89263D01*
X347561Y-88443D01*
X346316Y-87927D01*
X344980Y-87751D01*
X343644Y-87927D01*
X342399Y-88443D01*
X341330Y-89263D01*
X340510Y-90332D01*
X339994Y-91577D01*
X339818Y-92913D01*
X339994Y-94249D01*
X340510Y-95495D01*
X341330Y-96564D01*
X342399Y-97384D01*
X343644Y-97900D01*
X344980Y-98076D01*
X346316Y-97900D01*
X347561Y-97384D01*
X348631Y-96564D01*
X349451Y-95495D01*
X349705Y-94882D01*
X350098D01*
X350352Y-95495D01*
X351173Y-96564D01*
X352242Y-97384D01*
X353487Y-97900D01*
X354823Y-98076D01*
X356159Y-97900D01*
X357404Y-97384D01*
X358473Y-96564D01*
X359294Y-95495D01*
X359809Y-94249D01*
X359985Y-92913D01*
X359809Y-91577D01*
X359294Y-90332D01*
X358473Y-89263D01*
X357404Y-88443D01*
X356159Y-87927D01*
X354823Y-87751D01*
D02*
G37*
G36*
X163264Y-82656D02*
X162596Y-82744D01*
X161973Y-83002D01*
X161439Y-83412D01*
X161029Y-83947D01*
X160771Y-84569D01*
X160683Y-85237D01*
X160771Y-85905D01*
X161029Y-86528D01*
X161360Y-86959D01*
X160954Y-87489D01*
X160696Y-88112D01*
X160608Y-88779D01*
X160696Y-89448D01*
X160954Y-90070D01*
X161364Y-90605D01*
X161898Y-91015D01*
X162521Y-91273D01*
X163189Y-91361D01*
X163857Y-91273D01*
X164479Y-91015D01*
X165014Y-90605D01*
X165424Y-90070D01*
X165682Y-89448D01*
X165770Y-88779D01*
X165682Y-88112D01*
X165424Y-87489D01*
X165093Y-87057D01*
X165499Y-86528D01*
X165757Y-85905D01*
X165845Y-85237D01*
X165757Y-84569D01*
X165499Y-83947D01*
X165089Y-83412D01*
X164555Y-83002D01*
X163932Y-82744D01*
X163264Y-82656D01*
D02*
G37*
G36*
X286910Y-89250D02*
X286241Y-89337D01*
X285619Y-89595D01*
X285084Y-90006D01*
X284674Y-90540D01*
X284416Y-91163D01*
X284328Y-91831D01*
X284416Y-92499D01*
X284674Y-93121D01*
X285084Y-93656D01*
X285619Y-94066D01*
X286241Y-94324D01*
X286910Y-94412D01*
X287578Y-94324D01*
X288200Y-94066D01*
X288735Y-93656D01*
X289145Y-93121D01*
X289403Y-92499D01*
X289491Y-91831D01*
X289403Y-91163D01*
X289145Y-90540D01*
X288735Y-90006D01*
X288200Y-89595D01*
X287578Y-89337D01*
X286910Y-89250D01*
D02*
G37*
G36*
X192794Y-93951D02*
X192126Y-94039D01*
X191503Y-94297D01*
X190969Y-94707D01*
X190787Y-94945D01*
X190290D01*
X190111Y-94710D01*
X189576Y-94300D01*
X188953Y-94042D01*
X188285Y-93954D01*
X187617Y-94042D01*
X186995Y-94300D01*
X186523Y-94662D01*
X186334Y-94701D01*
X185998Y-94667D01*
X185543Y-94318D01*
X184920Y-94060D01*
X184252Y-93972D01*
X183584Y-94060D01*
X182962Y-94318D01*
X182427Y-94728D01*
X182017Y-95262D01*
X181759Y-95885D01*
X181671Y-96553D01*
X181759Y-97221D01*
X182017Y-97844D01*
X182133Y-97994D01*
X181836Y-98222D01*
X181426Y-98756D01*
X181168Y-99379D01*
X181080Y-100047D01*
X181168Y-100715D01*
X181426Y-101337D01*
X181836Y-101872D01*
X182371Y-102282D01*
X182993Y-102540D01*
X183661Y-102628D01*
X184329Y-102540D01*
X184952Y-102282D01*
X185486Y-101872D01*
X185897Y-101337D01*
X186155Y-100715D01*
X186242Y-100047D01*
X186155Y-99379D01*
X185905Y-98776D01*
X185956Y-98664D01*
X186093Y-98451D01*
X186496Y-98388D01*
X186995Y-98771D01*
X187617Y-99029D01*
X187922Y-99069D01*
X188263Y-99491D01*
X188351Y-100159D01*
X188609Y-100782D01*
X189019Y-101316D01*
X189554Y-101727D01*
X190176Y-101985D01*
X190845Y-102073D01*
X191513Y-101985D01*
X192135Y-101727D01*
X192670Y-101316D01*
X193080Y-100782D01*
X193338Y-100159D01*
X193426Y-99491D01*
X193366Y-99038D01*
X193462Y-99026D01*
X194085Y-98768D01*
X194619Y-98358D01*
X195029Y-97823D01*
X195287Y-97201D01*
X195375Y-96533D01*
X195287Y-95864D01*
X195029Y-95242D01*
X194619Y-94707D01*
X194085Y-94297D01*
X193462Y-94039D01*
X192794Y-93951D01*
D02*
G37*
G36*
X195177Y-86986D02*
X194509Y-87074D01*
X193887Y-87332D01*
X193352Y-87742D01*
X192942Y-88276D01*
X192684Y-88899D01*
X192596Y-89567D01*
X192684Y-90235D01*
X192942Y-90857D01*
X193352Y-91392D01*
X193887Y-91802D01*
X194509Y-92060D01*
X194879Y-92109D01*
X195183Y-92223D01*
X195205Y-92532D01*
X195155Y-92913D01*
X195243Y-93581D01*
X195501Y-94204D01*
X195911Y-94739D01*
X196446Y-95149D01*
X197068Y-95407D01*
X197736Y-95495D01*
X198404Y-95407D01*
X199027Y-95149D01*
X199561Y-94739D01*
X199971Y-94204D01*
X200229Y-93581D01*
X200317Y-92913D01*
X200229Y-92245D01*
X199971Y-91623D01*
X199561Y-91088D01*
X199027Y-90678D01*
X198404Y-90420D01*
X198034Y-90372D01*
X197731Y-90258D01*
X197708Y-89948D01*
X197758Y-89567D01*
X197670Y-88899D01*
X197413Y-88276D01*
X197002Y-87742D01*
X196468Y-87332D01*
X195845Y-87074D01*
X195177Y-86986D01*
D02*
G37*
G36*
X208858Y-90529D02*
X208190Y-90617D01*
X207568Y-90875D01*
X207033Y-91285D01*
X206623Y-91820D01*
X206365Y-92442D01*
X206277Y-93110D01*
X206365Y-93778D01*
X206623Y-94401D01*
X207033Y-94935D01*
X207568Y-95346D01*
X208190Y-95603D01*
X208858Y-95691D01*
X209526Y-95603D01*
X210149Y-95346D01*
X210683Y-94935D01*
X211094Y-94401D01*
X211351Y-93778D01*
X211439Y-93110D01*
X211351Y-92442D01*
X211094Y-91820D01*
X210683Y-91285D01*
X210149Y-90875D01*
X209526Y-90617D01*
X208858Y-90529D01*
D02*
G37*
G36*
X226969Y-86146D02*
X226301Y-86234D01*
X225678Y-86492D01*
X225143Y-86902D01*
X224733Y-87437D01*
X224475Y-88060D01*
X224387Y-88728D01*
X224475Y-89396D01*
X224733Y-90018D01*
X225143Y-90553D01*
X225659Y-90949D01*
X225690Y-91161D01*
Y-91169D01*
X225659Y-91381D01*
X225143Y-91777D01*
X224733Y-92312D01*
X224475Y-92934D01*
X224387Y-93602D01*
X224475Y-94270D01*
X224733Y-94893D01*
X225143Y-95427D01*
X225678Y-95838D01*
X226301Y-96095D01*
X226969Y-96183D01*
X227637Y-96095D01*
X228259Y-95838D01*
X228794Y-95427D01*
X229204Y-94893D01*
X229462Y-94270D01*
X229550Y-93602D01*
X229462Y-92934D01*
X229204Y-92312D01*
X228794Y-91777D01*
X228278Y-91381D01*
X228247Y-91169D01*
Y-91161D01*
X228278Y-90949D01*
X228794Y-90553D01*
X229204Y-90018D01*
X229462Y-89396D01*
X229550Y-88728D01*
X229462Y-88060D01*
X229204Y-87437D01*
X228794Y-86902D01*
X228259Y-86492D01*
X227637Y-86234D01*
X226969Y-86146D01*
D02*
G37*
G36*
X125886Y-92694D02*
X125218Y-92782D01*
X124595Y-93040D01*
X124061Y-93450D01*
X123651Y-93985D01*
X123393Y-94608D01*
X123305Y-95276D01*
X123393Y-95944D01*
X123651Y-96566D01*
X124061Y-97101D01*
X124595Y-97511D01*
X125218Y-97769D01*
X125886Y-97857D01*
X126554Y-97769D01*
X127176Y-97511D01*
X127711Y-97101D01*
X128121Y-96566D01*
X128379Y-95944D01*
X128467Y-95276D01*
X128379Y-94608D01*
X128121Y-93985D01*
X127711Y-93450D01*
X127176Y-93040D01*
X126554Y-92782D01*
X125886Y-92694D01*
D02*
G37*
G36*
X161324Y-94064D02*
X160656Y-94152D01*
X160033Y-94410D01*
X159499Y-94820D01*
X159088Y-95355D01*
X158831Y-95977D01*
X158743Y-96645D01*
X158831Y-97313D01*
X159088Y-97936D01*
X159499Y-98470D01*
X160033Y-98881D01*
X160656Y-99139D01*
X161324Y-99226D01*
X161992Y-99139D01*
X162614Y-98881D01*
X163149Y-98470D01*
X163559Y-97936D01*
X163817Y-97313D01*
X163905Y-96645D01*
X163817Y-95977D01*
X163559Y-95355D01*
X163149Y-94820D01*
X162614Y-94410D01*
X161992Y-94152D01*
X161324Y-94064D01*
D02*
G37*
G36*
X286910Y-96730D02*
X286241Y-96818D01*
X285619Y-97076D01*
X285084Y-97486D01*
X284674Y-98020D01*
X284416Y-98643D01*
X284328Y-99311D01*
X284416Y-99979D01*
X284674Y-100602D01*
X285084Y-101136D01*
X285619Y-101546D01*
X286241Y-101804D01*
X286910Y-101892D01*
X287578Y-101804D01*
X288200Y-101546D01*
X288735Y-101136D01*
X289145Y-100602D01*
X289403Y-99979D01*
X289491Y-99311D01*
X289403Y-98643D01*
X289145Y-98020D01*
X288735Y-97486D01*
X288200Y-97076D01*
X287578Y-96818D01*
X286910Y-96730D01*
D02*
G37*
G36*
X175394Y-90529D02*
X174726Y-90617D01*
X174103Y-90875D01*
X173569Y-91285D01*
X173158Y-91820D01*
X172900Y-92442D01*
X172813Y-93110D01*
X172900Y-93778D01*
X173158Y-94401D01*
X173569Y-94935D01*
X174103Y-95346D01*
X174726Y-95603D01*
X174901Y-95908D01*
X174869Y-95986D01*
X174781Y-96653D01*
X174869Y-97322D01*
X174895Y-97384D01*
X174824Y-97507D01*
X174202Y-97765D01*
X173667Y-98175D01*
X173257Y-98709D01*
X172999Y-99332D01*
X172911Y-100000D01*
X172999Y-100668D01*
X173257Y-101291D01*
X173667Y-101825D01*
X174202Y-102235D01*
X174824Y-102493D01*
X175492Y-102581D01*
X176160Y-102493D01*
X176783Y-102235D01*
X177317Y-101825D01*
X177727Y-101291D01*
X177985Y-100668D01*
X178073Y-100000D01*
X177985Y-99332D01*
X178290Y-99039D01*
X178653Y-98889D01*
X179187Y-98479D01*
X179597Y-97944D01*
X179855Y-97322D01*
X179943Y-96653D01*
X179855Y-95986D01*
X179597Y-95363D01*
X179187Y-94828D01*
X178653Y-94418D01*
X178030Y-94160D01*
X177855Y-93856D01*
X177887Y-93778D01*
X177975Y-93110D01*
X177887Y-92442D01*
X177629Y-91820D01*
X177219Y-91285D01*
X176684Y-90875D01*
X176062Y-90617D01*
X175394Y-90529D01*
D02*
G37*
G36*
X332874Y-98305D02*
X332206Y-98393D01*
X331583Y-98650D01*
X331049Y-99061D01*
X330639Y-99595D01*
X330381Y-100218D01*
X330293Y-100886D01*
X330381Y-101554D01*
X330639Y-102176D01*
X331049Y-102711D01*
X331583Y-103121D01*
X332206Y-103379D01*
X332874Y-103467D01*
X333542Y-103379D01*
X334165Y-103121D01*
X334699Y-102711D01*
X335109Y-102176D01*
X335367Y-101554D01*
X335455Y-100886D01*
X335367Y-100218D01*
X335109Y-99595D01*
X334699Y-99061D01*
X334165Y-98650D01*
X333542Y-98393D01*
X332874Y-98305D01*
D02*
G37*
G36*
X216865Y-99550D02*
X216197Y-99638D01*
X215575Y-99895D01*
X215040Y-100306D01*
X214630Y-100840D01*
X214372Y-101463D01*
X214284Y-102131D01*
X214372Y-102799D01*
X214630Y-103421D01*
X215040Y-103956D01*
X215575Y-104366D01*
X216197Y-104624D01*
X216865Y-104712D01*
X217533Y-104624D01*
X218156Y-104366D01*
X218690Y-103956D01*
X219101Y-103421D01*
X219358Y-102799D01*
X219446Y-102131D01*
X219358Y-101463D01*
X219101Y-100840D01*
X218690Y-100306D01*
X218156Y-99895D01*
X217533Y-99638D01*
X216865Y-99550D01*
D02*
G37*
G36*
X354823Y-101531D02*
X353487Y-101707D01*
X352242Y-102222D01*
X351173Y-103043D01*
X350352Y-104112D01*
X350098Y-104724D01*
X349705D01*
X349451Y-104112D01*
X348631Y-103043D01*
X347562Y-102222D01*
X346316Y-101707D01*
X344980Y-101531D01*
X343644Y-101707D01*
X342399Y-102222D01*
X341330Y-103043D01*
X340510Y-104112D01*
X339994Y-105357D01*
X339818Y-106693D01*
X339994Y-108029D01*
X340510Y-109274D01*
X341330Y-110343D01*
X342399Y-111164D01*
X343644Y-111679D01*
X344980Y-111855D01*
X346316Y-111679D01*
X347562Y-111164D01*
X348631Y-110343D01*
X349451Y-109274D01*
X349705Y-108661D01*
X350098D01*
X350352Y-109274D01*
X351173Y-110343D01*
X352242Y-111164D01*
X353487Y-111679D01*
X354823Y-111855D01*
X356159Y-111679D01*
X357404Y-111164D01*
X358473Y-110343D01*
X359294Y-109274D01*
X359809Y-108029D01*
X359985Y-106693D01*
X359809Y-105357D01*
X359294Y-104112D01*
X358473Y-103043D01*
X357404Y-102222D01*
X356159Y-101707D01*
X354823Y-101531D01*
D02*
G37*
G36*
X184153Y-108344D02*
X183485Y-108432D01*
X182863Y-108690D01*
X182522Y-108951D01*
X182140Y-109100D01*
X181606Y-108690D01*
X180983Y-108432D01*
X180315Y-108344D01*
X179647Y-108432D01*
X179024Y-108690D01*
X178490Y-109100D01*
X178203D01*
X177668Y-108690D01*
X177046Y-108432D01*
X176378Y-108344D01*
X175710Y-108432D01*
X175087Y-108690D01*
X174553Y-109100D01*
X174143Y-109635D01*
X173885Y-110257D01*
X173797Y-110925D01*
X173885Y-111593D01*
X174143Y-112216D01*
X174553Y-112750D01*
X175087Y-113161D01*
X175710Y-113418D01*
X176378Y-113506D01*
X177046Y-113418D01*
X177668Y-113161D01*
X178203Y-112750D01*
X178490D01*
X179024Y-113161D01*
X179647Y-113418D01*
X180315Y-113506D01*
X180983Y-113418D01*
X181606Y-113161D01*
X182140Y-112750D01*
X182522Y-112899D01*
X182863Y-113161D01*
X183485Y-113418D01*
X184153Y-113506D01*
X184822Y-113418D01*
X185444Y-113161D01*
X185979Y-112750D01*
X186389Y-112216D01*
X186647Y-111593D01*
X186735Y-110925D01*
X186647Y-110257D01*
X186389Y-109635D01*
X185979Y-109100D01*
X185444Y-108690D01*
X184822Y-108432D01*
X184153Y-108344D01*
D02*
G37*
G36*
X232511Y-107776D02*
X226308D01*
X229410Y-110877D01*
X232511Y-107776D01*
D02*
G37*
G36*
X144488Y-107458D02*
X143820Y-107546D01*
X143198Y-107804D01*
X142663Y-108214D01*
X142253Y-108749D01*
X141995Y-109371D01*
X141907Y-110039D01*
X141995Y-110707D01*
X142253Y-111330D01*
X142663Y-111864D01*
X143198Y-112275D01*
X143820Y-112532D01*
X144488Y-112620D01*
X145156Y-112532D01*
X145779Y-112275D01*
X146313Y-111864D01*
X146723Y-111330D01*
X146981Y-110707D01*
X147069Y-110039D01*
X146981Y-109371D01*
X146723Y-108749D01*
X146313Y-108214D01*
X145779Y-107804D01*
X145156Y-107546D01*
X144488Y-107458D01*
D02*
G37*
G36*
X208169Y-108246D02*
X207501Y-108334D01*
X206879Y-108591D01*
X206344Y-109002D01*
X205934Y-109536D01*
X205676Y-110159D01*
X205588Y-110827D01*
X205676Y-111495D01*
X205934Y-112117D01*
X206344Y-112652D01*
X206879Y-113062D01*
X207501Y-113320D01*
X208169Y-113408D01*
X208837Y-113320D01*
X209460Y-113062D01*
X209994Y-112652D01*
X210405Y-112117D01*
X210663Y-111495D01*
X210750Y-110827D01*
X210663Y-110159D01*
X210405Y-109536D01*
X209994Y-109002D01*
X209460Y-108591D01*
X208837Y-108334D01*
X208169Y-108246D01*
D02*
G37*
G36*
X233347Y-108611D02*
X230245Y-111713D01*
X233347Y-114814D01*
Y-108611D01*
D02*
G37*
G36*
X225472Y-108611D02*
Y-114814D01*
X228574Y-111713D01*
X225472Y-108611D01*
D02*
G37*
G36*
X229410Y-112548D02*
X226308Y-115650D01*
X232511D01*
X229410Y-112548D01*
D02*
G37*
G36*
X269409Y-107543D02*
X268330Y-107685D01*
X267325Y-108102D01*
X266461Y-108764D01*
X265798Y-109628D01*
X265382Y-110633D01*
X265240Y-111713D01*
X265382Y-112792D01*
X265798Y-113797D01*
X266461Y-114661D01*
X267325Y-115323D01*
X268330Y-115740D01*
X269409Y-115882D01*
X270489Y-115740D01*
X271494Y-115323D01*
X272358Y-114661D01*
X273020Y-113797D01*
X273437Y-112792D01*
X273579Y-111713D01*
X273437Y-110633D01*
X273020Y-109628D01*
X272358Y-108764D01*
X271494Y-108102D01*
X270489Y-107685D01*
X269409Y-107543D01*
D02*
G37*
G36*
X259409D02*
X258330Y-107685D01*
X257325Y-108102D01*
X256461Y-108764D01*
X255799Y-109628D01*
X255382Y-110633D01*
X255240Y-111713D01*
X255382Y-112792D01*
X255799Y-113797D01*
X256461Y-114661D01*
X257325Y-115323D01*
X258330Y-115740D01*
X259409Y-115882D01*
X260489Y-115740D01*
X261494Y-115323D01*
X262358Y-114661D01*
X263020Y-113797D01*
X263437Y-112792D01*
X263579Y-111713D01*
X263437Y-110633D01*
X263020Y-109628D01*
X262358Y-108764D01*
X261494Y-108102D01*
X260489Y-107685D01*
X259409Y-107543D01*
D02*
G37*
G36*
X249410D02*
X248330Y-107685D01*
X247325Y-108102D01*
X246461Y-108764D01*
X245798Y-109628D01*
X245382Y-110633D01*
X245240Y-111713D01*
X245382Y-112792D01*
X245798Y-113797D01*
X246461Y-114661D01*
X247325Y-115323D01*
X248330Y-115740D01*
X249410Y-115882D01*
X250489Y-115740D01*
X251494Y-115323D01*
X252358Y-114661D01*
X253020Y-113797D01*
X253437Y-112792D01*
X253579Y-111713D01*
X253437Y-110633D01*
X253020Y-109628D01*
X252358Y-108764D01*
X251494Y-108102D01*
X250489Y-107685D01*
X249410Y-107543D01*
D02*
G37*
G36*
X239409D02*
X238330Y-107685D01*
X237325Y-108102D01*
X236461Y-108764D01*
X235799Y-109628D01*
X235382Y-110633D01*
X235240Y-111713D01*
X235382Y-112792D01*
X235799Y-113797D01*
X236461Y-114661D01*
X237325Y-115323D01*
X238330Y-115740D01*
X239409Y-115882D01*
X240489Y-115740D01*
X241494Y-115323D01*
X242358Y-114661D01*
X243020Y-113797D01*
X243437Y-112792D01*
X243579Y-111713D01*
X243437Y-110633D01*
X243020Y-109628D01*
X242358Y-108764D01*
X241494Y-108102D01*
X240489Y-107685D01*
X239409Y-107543D01*
D02*
G37*
G36*
X126181Y-112183D02*
X125513Y-112271D01*
X124890Y-112529D01*
X124356Y-112939D01*
X123946Y-113473D01*
X123688Y-114096D01*
X123600Y-114764D01*
X123688Y-115432D01*
X123946Y-116054D01*
X124356Y-116589D01*
X124890Y-116999D01*
X125513Y-117257D01*
X126181Y-117345D01*
X126849Y-117257D01*
X127472Y-116999D01*
X128006Y-116589D01*
X128416Y-116054D01*
X128674Y-115432D01*
X128762Y-114764D01*
X128674Y-114096D01*
X128416Y-113473D01*
X128006Y-112939D01*
X127472Y-112529D01*
X126849Y-112271D01*
X126181Y-112183D01*
D02*
G37*
G36*
X354823Y-115310D02*
X353487Y-115486D01*
X352242Y-116002D01*
X351173Y-116822D01*
X350352Y-117891D01*
X350098Y-118504D01*
X349705D01*
X349451Y-117891D01*
X348631Y-116822D01*
X347561Y-116002D01*
X346316Y-115486D01*
X344980Y-115310D01*
X343644Y-115486D01*
X342399Y-116002D01*
X341330Y-116822D01*
X340510Y-117891D01*
X339994Y-119136D01*
X339818Y-120472D01*
X339994Y-121809D01*
X340510Y-123054D01*
X341330Y-124123D01*
X342399Y-124943D01*
X343644Y-125459D01*
X344980Y-125635D01*
X346316Y-125459D01*
X347561Y-124943D01*
X348631Y-124123D01*
X349451Y-123054D01*
X349705Y-122441D01*
X350098D01*
X350352Y-123054D01*
X351173Y-124123D01*
X352242Y-124943D01*
X353487Y-125459D01*
X354823Y-125635D01*
X356159Y-125459D01*
X357404Y-124943D01*
X358473Y-124123D01*
X359294Y-123054D01*
X359809Y-121809D01*
X359985Y-120472D01*
X359809Y-119136D01*
X359294Y-117891D01*
X358473Y-116822D01*
X357404Y-116002D01*
X356159Y-115486D01*
X354823Y-115310D01*
D02*
G37*
G36*
X302067Y-113462D02*
X301399Y-113550D01*
X300776Y-113808D01*
X300242Y-114218D01*
X299832Y-114753D01*
X299574Y-115375D01*
X299486Y-116043D01*
X299574Y-116711D01*
X299832Y-117334D01*
X300242Y-117868D01*
X300776Y-118279D01*
X301399Y-118536D01*
X302067Y-118624D01*
X302735Y-118536D01*
X303358Y-118279D01*
X303892Y-117868D01*
X304302Y-117334D01*
X304560Y-116711D01*
X304648Y-116043D01*
X304560Y-115375D01*
X304302Y-114753D01*
X303892Y-114218D01*
X303358Y-113808D01*
X302735Y-113550D01*
X302067Y-113462D01*
D02*
G37*
G36*
X102756Y-122616D02*
X102088Y-122704D01*
X101465Y-122961D01*
X100931Y-123372D01*
X100521Y-123906D01*
X100263Y-124529D01*
X100175Y-125197D01*
X100263Y-125865D01*
X100521Y-126487D01*
X100931Y-127022D01*
X101465Y-127432D01*
X102088Y-127690D01*
X102756Y-127778D01*
X103424Y-127690D01*
X104046Y-127432D01*
X104581Y-127022D01*
X104991Y-126487D01*
X105249Y-125865D01*
X105337Y-125197D01*
X105249Y-124529D01*
X104991Y-123906D01*
X104581Y-123372D01*
X104046Y-122961D01*
X103424Y-122704D01*
X102756Y-122616D01*
D02*
G37*
G36*
X226279Y-122911D02*
X225611Y-122999D01*
X224989Y-123257D01*
X224454Y-123667D01*
X224044Y-124202D01*
X223786Y-124824D01*
X223698Y-125492D01*
X223786Y-126160D01*
X224044Y-126783D01*
X224454Y-127317D01*
X224989Y-127727D01*
X225611Y-127985D01*
X226279Y-128073D01*
X226948Y-127985D01*
X227570Y-127727D01*
X228105Y-127317D01*
X228515Y-126783D01*
X228773Y-126160D01*
X228861Y-125492D01*
X228773Y-124824D01*
X228515Y-124202D01*
X228105Y-123667D01*
X227570Y-123257D01*
X226948Y-122999D01*
X226279Y-122911D01*
D02*
G37*
G36*
X262106Y-127439D02*
X261438Y-127526D01*
X260816Y-127784D01*
X260281Y-128195D01*
X259871Y-128729D01*
X259613Y-129352D01*
X259525Y-130020D01*
X259613Y-130688D01*
X259871Y-131310D01*
X260281Y-131845D01*
X260816Y-132255D01*
X261438Y-132513D01*
X262106Y-132601D01*
X262774Y-132513D01*
X263397Y-132255D01*
X263931Y-131845D01*
X264342Y-131310D01*
X264599Y-130688D01*
X264687Y-130020D01*
X264599Y-129352D01*
X264342Y-128729D01*
X263931Y-128195D01*
X263397Y-127784D01*
X262774Y-127526D01*
X262106Y-127439D01*
D02*
G37*
G36*
X354823Y-129288D02*
X353538Y-129457D01*
X352341Y-129953D01*
X351785Y-130379D01*
X354823Y-133417D01*
X357860Y-130379D01*
X357305Y-129953D01*
X356107Y-129457D01*
X354823Y-129288D01*
D02*
G37*
G36*
X344980D02*
X343696Y-129457D01*
X342498Y-129953D01*
X341943Y-130379D01*
X344980Y-133417D01*
X348018Y-130379D01*
X347462Y-129953D01*
X346265Y-129457D01*
X344980Y-129288D01*
D02*
G37*
G36*
X164075Y-128521D02*
X163407Y-128609D01*
X162784Y-128867D01*
X162250Y-129277D01*
X161839Y-129812D01*
X161582Y-130434D01*
X161494Y-131102D01*
X161582Y-131770D01*
X161839Y-132393D01*
X162250Y-132928D01*
X162784Y-133338D01*
X163407Y-133596D01*
X164075Y-133684D01*
X164743Y-133596D01*
X165365Y-133338D01*
X165900Y-132928D01*
X166310Y-132393D01*
X166568Y-131770D01*
X166656Y-131102D01*
X166568Y-130434D01*
X166310Y-129812D01*
X165900Y-129277D01*
X165365Y-128867D01*
X164743Y-128609D01*
X164075Y-128521D01*
D02*
G37*
G36*
X131201Y-115332D02*
X130533Y-115420D01*
X129910Y-115678D01*
X129376Y-116088D01*
X128965Y-116623D01*
X128708Y-117245D01*
X128620Y-117913D01*
X128708Y-118581D01*
X128965Y-119204D01*
X129372Y-119734D01*
X128965Y-120265D01*
X128708Y-120887D01*
X128620Y-121555D01*
X128708Y-122223D01*
X128965Y-122846D01*
X129372Y-123376D01*
X128965Y-123906D01*
X128708Y-124529D01*
X128620Y-125197D01*
X128708Y-125865D01*
X128965Y-126487D01*
X129376Y-127022D01*
Y-127112D01*
X128965Y-127647D01*
X128708Y-128269D01*
X128620Y-128937D01*
X128708Y-129605D01*
X128965Y-130228D01*
X129372Y-130758D01*
X128965Y-131288D01*
X128708Y-131911D01*
X128620Y-132579D01*
X128708Y-133247D01*
X128965Y-133869D01*
X129376Y-134404D01*
X129910Y-134814D01*
X130533Y-135072D01*
X131201Y-135160D01*
X131869Y-135072D01*
X132491Y-134814D01*
X133026Y-134404D01*
X133436Y-133869D01*
X133694Y-133247D01*
X133782Y-132579D01*
X133694Y-131911D01*
X133436Y-131288D01*
X133029Y-130758D01*
X133436Y-130228D01*
X133694Y-129605D01*
X133782Y-128937D01*
X133694Y-128269D01*
X133436Y-127647D01*
X133026Y-127112D01*
Y-127022D01*
X133436Y-126487D01*
X133694Y-125865D01*
X133782Y-125197D01*
X133694Y-124529D01*
X133436Y-123906D01*
X133029Y-123376D01*
X133436Y-122846D01*
X133694Y-122223D01*
X133782Y-121555D01*
X133694Y-120887D01*
X133436Y-120265D01*
X133029Y-119734D01*
X133436Y-119204D01*
X133694Y-118581D01*
X133782Y-117913D01*
X133694Y-117245D01*
X133436Y-116623D01*
X133026Y-116088D01*
X132491Y-115678D01*
X131869Y-115420D01*
X131201Y-115332D01*
D02*
G37*
G36*
X29528Y-133617D02*
X28192Y-133793D01*
X26946Y-134309D01*
X25877Y-135129D01*
X25057Y-136198D01*
X24803Y-136811D01*
X24409D01*
X24156Y-136198D01*
X23335Y-135129D01*
X22266Y-134309D01*
X21021Y-133793D01*
X19685Y-133617D01*
X18349Y-133793D01*
X17104Y-134309D01*
X16035Y-135129D01*
X15214Y-136198D01*
X14699Y-137443D01*
X14523Y-138779D01*
X14699Y-140116D01*
X15214Y-141361D01*
X16035Y-142430D01*
X17104Y-143250D01*
X18349Y-143766D01*
X19685Y-143942D01*
X21021Y-143766D01*
X22266Y-143250D01*
X23335Y-142430D01*
X24156Y-141361D01*
X24409Y-140748D01*
X24803D01*
X25057Y-141361D01*
X25877Y-142430D01*
X26946Y-143250D01*
X28192Y-143766D01*
X29528Y-143942D01*
X30864Y-143766D01*
X32109Y-143250D01*
X33178Y-142430D01*
X33998Y-141361D01*
X34514Y-140116D01*
X34690Y-138779D01*
X34514Y-137443D01*
X33998Y-136198D01*
X33178Y-135129D01*
X32109Y-134309D01*
X30864Y-133793D01*
X29528Y-133617D01*
D02*
G37*
G36*
X348853Y-131215D02*
X345815Y-134252D01*
X348853Y-137289D01*
X349279Y-136734D01*
X349689Y-135745D01*
X350115D01*
X350524Y-136734D01*
X350950Y-137289D01*
X353988Y-134252D01*
X350950Y-131215D01*
X350524Y-131770D01*
X350115Y-132759D01*
X349689D01*
X349279Y-131770D01*
X348853Y-131215D01*
D02*
G37*
G36*
X341108Y-131215D02*
X340682Y-131770D01*
X340186Y-132967D01*
X340017Y-134252D01*
X340186Y-135537D01*
X340682Y-136734D01*
X341108Y-137289D01*
X344145Y-134252D01*
X341108Y-131215D01*
D02*
G37*
G36*
X358695Y-131215D02*
X355658Y-134252D01*
X358695Y-137289D01*
X359121Y-136734D01*
X359617Y-135537D01*
X359787Y-134252D01*
X359617Y-132967D01*
X359121Y-131770D01*
X358695Y-131215D01*
D02*
G37*
G36*
X354823Y-135087D02*
X351785Y-138124D01*
X352341Y-138551D01*
X353538Y-139047D01*
X354823Y-139216D01*
X356107Y-139047D01*
X357305Y-138551D01*
X357860Y-138125D01*
X354823Y-135087D01*
D02*
G37*
G36*
X344980Y-135087D02*
X341943Y-138125D01*
X342498Y-138551D01*
X343696Y-139047D01*
X344980Y-139216D01*
X346265Y-139047D01*
X347462Y-138551D01*
X348018Y-138125D01*
X344980Y-135087D01*
D02*
G37*
G36*
X276378Y-134427D02*
X275710Y-134515D01*
X275087Y-134773D01*
X274553Y-135183D01*
X274143Y-135717D01*
X273885Y-136340D01*
X273797Y-137008D01*
X273885Y-137676D01*
X274143Y-138298D01*
X274553Y-138833D01*
X275087Y-139243D01*
X275710Y-139501D01*
X276378Y-139589D01*
X277046Y-139501D01*
X277668Y-139243D01*
X278203Y-138833D01*
X278613Y-138298D01*
X278871Y-137676D01*
X278959Y-137008D01*
X278871Y-136340D01*
X278613Y-135717D01*
X278203Y-135183D01*
X277668Y-134773D01*
X277046Y-134515D01*
X276378Y-134427D01*
D02*
G37*
G36*
X248964Y-131687D02*
X248296Y-131775D01*
X247674Y-132033D01*
X247139Y-132443D01*
X246729Y-132978D01*
X246471Y-133600D01*
X246383Y-134268D01*
X246471Y-134937D01*
X246729Y-135559D01*
X246953Y-135851D01*
X246797Y-135970D01*
X246387Y-136505D01*
X246129Y-137127D01*
X246041Y-137795D01*
X246129Y-138463D01*
X246387Y-139086D01*
X246797Y-139620D01*
X247332Y-140031D01*
X247954Y-140288D01*
X248622Y-140376D01*
X249290Y-140288D01*
X249913Y-140031D01*
X250447Y-139620D01*
X250857Y-139086D01*
X251115Y-138463D01*
X251203Y-137795D01*
X251115Y-137127D01*
X250857Y-136505D01*
X250634Y-136213D01*
X250789Y-136094D01*
X251200Y-135559D01*
X251457Y-134937D01*
X251545Y-134268D01*
X251457Y-133600D01*
X251200Y-132978D01*
X250789Y-132443D01*
X250255Y-132033D01*
X249632Y-131775D01*
X248964Y-131687D01*
D02*
G37*
G36*
X76772Y-135214D02*
X76104Y-135302D01*
X75481Y-135560D01*
X74946Y-135970D01*
X74536Y-136505D01*
X74278Y-137127D01*
X74190Y-137795D01*
X74278Y-138463D01*
X74536Y-139086D01*
X74946Y-139620D01*
X75481Y-140031D01*
X76104Y-140288D01*
X76772Y-140376D01*
X77440Y-140288D01*
X78062Y-140031D01*
X78597Y-139620D01*
X79007Y-139086D01*
X79265Y-138463D01*
X79353Y-137795D01*
X79265Y-137127D01*
X79007Y-136505D01*
X78597Y-135970D01*
X78062Y-135560D01*
X77440Y-135302D01*
X76772Y-135214D01*
D02*
G37*
G36*
X286221Y-141710D02*
X285552Y-141798D01*
X284930Y-142056D01*
X284449Y-142425D01*
X283968Y-142056D01*
X283345Y-141798D01*
X282677Y-141710D01*
X282009Y-141798D01*
X281387Y-142056D01*
X280852Y-142466D01*
X280442Y-143001D01*
X280184Y-143623D01*
X280096Y-144291D01*
X280184Y-144959D01*
X280442Y-145582D01*
X280852Y-146116D01*
X281387Y-146527D01*
X282009Y-146784D01*
X282677Y-146872D01*
X283345Y-146784D01*
X283968Y-146527D01*
X284449Y-146158D01*
X284930Y-146527D01*
X285552Y-146784D01*
X286221Y-146872D01*
X286889Y-146784D01*
X287511Y-146527D01*
X288046Y-146116D01*
X288456Y-145582D01*
X288714Y-144959D01*
X288802Y-144291D01*
X288714Y-143623D01*
X288456Y-143001D01*
X288046Y-142466D01*
X287511Y-142056D01*
X286889Y-141798D01*
X286221Y-141710D01*
D02*
G37*
G36*
X88386Y-143088D02*
X87718Y-143176D01*
X87095Y-143434D01*
X86561Y-143844D01*
X86150Y-144379D01*
X86009Y-144720D01*
X85772Y-144974D01*
X85521Y-144918D01*
X85117Y-144751D01*
X84449Y-144663D01*
X83781Y-144751D01*
X83158Y-145009D01*
X82624Y-145419D01*
X82213Y-145954D01*
X81956Y-146576D01*
X81868Y-147244D01*
X81956Y-147912D01*
X82213Y-148535D01*
X82624Y-149069D01*
X83158Y-149479D01*
X83781Y-149737D01*
X84449Y-149825D01*
X85117Y-149737D01*
X85739Y-149479D01*
X86274Y-149069D01*
X86684Y-148535D01*
X86825Y-148194D01*
X87063Y-147939D01*
X87314Y-147995D01*
X87718Y-148162D01*
X88386Y-148250D01*
X89054Y-148162D01*
X89676Y-147905D01*
X90211Y-147494D01*
X90621Y-146960D01*
X90879Y-146337D01*
X90967Y-145669D01*
X90879Y-145001D01*
X90621Y-144379D01*
X90211Y-143844D01*
X89676Y-143434D01*
X89054Y-143176D01*
X88386Y-143088D01*
D02*
G37*
G36*
X99410Y-138561D02*
X98741Y-138649D01*
X98119Y-138906D01*
X97584Y-139317D01*
X97174Y-139851D01*
X96916Y-140474D01*
X96828Y-141142D01*
X96916Y-141810D01*
X97174Y-142432D01*
X97584Y-142967D01*
X98119Y-143377D01*
X98741Y-143635D01*
X99410Y-143723D01*
X99834Y-143667D01*
X100188Y-143991D01*
X100175Y-144095D01*
X100263Y-144763D01*
X100521Y-145385D01*
X100931Y-145920D01*
X101465Y-146330D01*
X102088Y-146588D01*
X102756Y-146676D01*
X103424Y-146588D01*
X104046Y-146330D01*
X104581Y-145920D01*
X104991Y-145385D01*
X105249Y-144763D01*
X105337Y-144095D01*
X105249Y-143426D01*
X104991Y-142804D01*
X104581Y-142269D01*
X104046Y-141859D01*
X103424Y-141601D01*
X102756Y-141513D01*
X102331Y-141569D01*
X101977Y-141245D01*
X101991Y-141142D01*
X101903Y-140474D01*
X101645Y-139851D01*
X101235Y-139317D01*
X100700Y-138906D01*
X100077Y-138649D01*
X99410Y-138561D01*
D02*
G37*
G36*
X127362Y-142694D02*
X126694Y-142782D01*
X126072Y-143040D01*
X125537Y-143450D01*
X125127Y-143985D01*
X124869Y-144607D01*
X124781Y-145276D01*
X124869Y-145944D01*
X125127Y-146566D01*
X125537Y-147101D01*
X126072Y-147511D01*
X126694Y-147769D01*
X127362Y-147857D01*
X128030Y-147769D01*
X128653Y-147511D01*
X129187Y-147101D01*
X129597Y-146566D01*
X129855Y-145944D01*
X129943Y-145276D01*
X129855Y-144607D01*
X129597Y-143985D01*
X129187Y-143450D01*
X128653Y-143040D01*
X128030Y-142782D01*
X127362Y-142694D01*
D02*
G37*
G36*
X233940Y-147928D02*
X233272Y-148016D01*
X232649Y-148274D01*
X232114Y-148684D01*
X231704Y-149219D01*
X231525Y-149652D01*
X231475Y-149672D01*
X230807Y-149584D01*
X230139Y-149672D01*
X229517Y-149930D01*
X228982Y-150340D01*
X228572Y-150875D01*
X228314Y-151497D01*
X228226Y-152165D01*
X228314Y-152833D01*
X228572Y-153456D01*
X228982Y-153990D01*
X229517Y-154401D01*
X230139Y-154658D01*
X230807Y-154746D01*
X231475Y-154658D01*
X232098Y-154401D01*
X232632Y-153990D01*
X233042Y-153456D01*
X233236Y-152988D01*
X233272Y-153002D01*
X233940Y-153090D01*
X234608Y-153002D01*
X235230Y-152745D01*
X235765Y-152334D01*
X236175Y-151800D01*
X236433Y-151177D01*
X236521Y-150509D01*
X236433Y-149841D01*
X236175Y-149219D01*
X235765Y-148684D01*
X235230Y-148274D01*
X234608Y-148016D01*
X233940Y-147928D01*
D02*
G37*
G36*
X29528Y-147397D02*
X28192Y-147573D01*
X26946Y-148088D01*
X25877Y-148909D01*
X25057Y-149978D01*
X24803Y-150591D01*
X24409D01*
X24156Y-149978D01*
X23335Y-148909D01*
X22266Y-148088D01*
X21021Y-147573D01*
X19685Y-147397D01*
X18349Y-147573D01*
X17104Y-148088D01*
X16035Y-148909D01*
X15214Y-149978D01*
X14699Y-151223D01*
X14523Y-152559D01*
X14699Y-153895D01*
X15214Y-155140D01*
X16035Y-156209D01*
X17104Y-157030D01*
X18349Y-157545D01*
X19685Y-157721D01*
X21021Y-157545D01*
X22266Y-157030D01*
X23335Y-156209D01*
X24156Y-155140D01*
X24409Y-154528D01*
X24803D01*
X25057Y-155140D01*
X25877Y-156209D01*
X26946Y-157030D01*
X28192Y-157545D01*
X29528Y-157721D01*
X30864Y-157545D01*
X32109Y-157030D01*
X33178Y-156209D01*
X33998Y-155140D01*
X34514Y-153895D01*
X34690Y-152559D01*
X34514Y-151223D01*
X33998Y-149978D01*
X33178Y-148909D01*
X32109Y-148088D01*
X30864Y-147573D01*
X29528Y-147397D01*
D02*
G37*
G36*
X269291Y-146336D02*
X268623Y-146424D01*
X268001Y-146682D01*
X267466Y-147092D01*
X267056Y-147627D01*
X266798Y-148249D01*
X266710Y-148917D01*
X266798Y-149585D01*
X267056Y-150208D01*
X267466Y-150742D01*
X268001Y-151153D01*
X268623Y-151410D01*
X269291Y-151498D01*
X269959Y-151410D01*
X270582Y-151153D01*
X271116Y-150742D01*
X271527Y-150208D01*
X271784Y-149585D01*
X271872Y-148917D01*
X271784Y-148249D01*
X271527Y-147627D01*
X271116Y-147092D01*
X270582Y-146682D01*
X269959Y-146424D01*
X269291Y-146336D01*
D02*
G37*
G36*
X219390Y-146435D02*
X218722Y-146523D01*
X218099Y-146780D01*
X217565Y-147191D01*
X217154Y-147725D01*
X216897Y-148348D01*
X216809Y-149016D01*
X216897Y-149684D01*
X217154Y-150306D01*
X217565Y-150841D01*
X218099Y-151251D01*
X218722Y-151509D01*
X219390Y-151597D01*
X220058Y-151509D01*
X220680Y-151251D01*
X221215Y-150841D01*
X221625Y-150306D01*
X221883Y-149684D01*
X221971Y-149016D01*
X221883Y-148348D01*
X221625Y-147725D01*
X221215Y-147191D01*
X220680Y-146780D01*
X220058Y-146523D01*
X219390Y-146435D01*
D02*
G37*
G36*
X143405Y-151356D02*
X142737Y-151444D01*
X142115Y-151702D01*
X141580Y-152112D01*
X141170Y-152647D01*
X140912Y-153269D01*
X140824Y-153937D01*
X140912Y-154605D01*
X141170Y-155228D01*
X141580Y-155762D01*
X142115Y-156172D01*
X142737Y-156430D01*
X143405Y-156518D01*
X144074Y-156430D01*
X144696Y-156172D01*
X145231Y-155762D01*
X145641Y-155228D01*
X145899Y-154605D01*
X145987Y-153937D01*
X145899Y-153269D01*
X145641Y-152647D01*
X145231Y-152112D01*
X144696Y-151702D01*
X144074Y-151444D01*
X143405Y-151356D01*
D02*
G37*
G36*
X76772Y-152045D02*
X76104Y-152133D01*
X75481Y-152391D01*
X74946Y-152801D01*
X74536Y-153335D01*
X74278Y-153958D01*
X74190Y-154626D01*
X74278Y-155294D01*
X74536Y-155917D01*
X74946Y-156451D01*
X75481Y-156861D01*
X76104Y-157119D01*
X76772Y-157207D01*
X77440Y-157119D01*
X78062Y-156861D01*
X78597Y-156451D01*
X79007Y-155917D01*
X79265Y-155294D01*
X79353Y-154626D01*
X79265Y-153958D01*
X79007Y-153335D01*
X78597Y-152801D01*
X78062Y-152391D01*
X77440Y-152133D01*
X76772Y-152045D01*
D02*
G37*
G36*
X29528Y-161176D02*
X28192Y-161352D01*
X26946Y-161868D01*
X25877Y-162688D01*
X25057Y-163758D01*
X24803Y-164370D01*
X24409D01*
X24156Y-163758D01*
X23335Y-162688D01*
X22266Y-161868D01*
X21021Y-161352D01*
X19685Y-161176D01*
X18349Y-161352D01*
X17104Y-161868D01*
X16035Y-162688D01*
X15214Y-163758D01*
X14699Y-165003D01*
X14523Y-166339D01*
X14699Y-167675D01*
X15214Y-168920D01*
X16035Y-169989D01*
X17104Y-170809D01*
X18349Y-171325D01*
X19685Y-171501D01*
X21021Y-171325D01*
X22266Y-170809D01*
X23335Y-169989D01*
X24156Y-168920D01*
X24409Y-168307D01*
X24803D01*
X25057Y-168920D01*
X25877Y-169989D01*
X26946Y-170809D01*
X28192Y-171325D01*
X29528Y-171501D01*
X30864Y-171325D01*
X32109Y-170809D01*
X33178Y-169989D01*
X33998Y-168920D01*
X34514Y-167675D01*
X34690Y-166339D01*
X34514Y-165003D01*
X33998Y-163758D01*
X33178Y-162688D01*
X32109Y-161868D01*
X30864Y-161352D01*
X29528Y-161176D01*
D02*
G37*
G36*
X172542Y-157557D02*
X171874Y-157645D01*
X171251Y-157903D01*
X170717Y-158313D01*
X170307Y-158847D01*
X170049Y-159470D01*
X169961Y-160138D01*
X170049Y-160806D01*
X170307Y-161428D01*
X170717Y-161963D01*
X171251Y-162373D01*
X171874Y-162631D01*
X172542Y-162719D01*
X172617Y-162709D01*
X172704Y-163365D01*
X172961Y-163987D01*
X173372Y-164522D01*
X173906Y-164932D01*
X174529Y-165190D01*
X175197Y-165278D01*
X175865Y-165190D01*
X176487Y-164932D01*
X177022Y-164522D01*
X177432Y-163987D01*
X177690Y-163365D01*
X177778Y-162697D01*
X177690Y-162029D01*
X177432Y-161406D01*
X177022Y-160872D01*
X176487Y-160461D01*
X175865Y-160204D01*
X175197Y-160116D01*
X175121Y-160126D01*
X175035Y-159470D01*
X174777Y-158847D01*
X174367Y-158313D01*
X173832Y-157903D01*
X173210Y-157645D01*
X172542Y-157557D01*
D02*
G37*
G36*
X99410Y-157458D02*
X98741Y-157546D01*
X98119Y-157804D01*
X97584Y-158214D01*
X97174Y-158749D01*
X96916Y-159371D01*
X96828Y-160039D01*
X96916Y-160707D01*
X97174Y-161330D01*
X97584Y-161864D01*
X98119Y-162275D01*
X98741Y-162532D01*
X99410Y-162620D01*
X100077Y-162532D01*
X100198Y-162482D01*
X100250Y-162515D01*
X100476Y-162794D01*
X100263Y-163308D01*
X100175Y-163976D01*
X100263Y-164644D01*
X100521Y-165267D01*
X100931Y-165802D01*
X101465Y-166212D01*
X102088Y-166470D01*
X102756Y-166558D01*
X103424Y-166470D01*
X104046Y-166212D01*
X104581Y-165802D01*
X104991Y-165267D01*
X105249Y-164644D01*
X105337Y-163976D01*
X105249Y-163308D01*
X104991Y-162686D01*
X104581Y-162151D01*
X104046Y-161741D01*
X103424Y-161483D01*
X102756Y-161395D01*
X102088Y-161483D01*
X101967Y-161533D01*
X101915Y-161501D01*
X101689Y-161222D01*
X101903Y-160707D01*
X101991Y-160039D01*
X101903Y-159371D01*
X101645Y-158749D01*
X101235Y-158214D01*
X100700Y-157804D01*
X100077Y-157546D01*
X99410Y-157458D01*
D02*
G37*
G36*
X127362Y-161789D02*
X126694Y-161877D01*
X126072Y-162135D01*
X125537Y-162545D01*
X125127Y-163080D01*
X124869Y-163702D01*
X124781Y-164370D01*
X124869Y-165038D01*
X125127Y-165661D01*
X125537Y-166195D01*
X126072Y-166605D01*
X126694Y-166863D01*
X127362Y-166951D01*
X128030Y-166863D01*
X128653Y-166605D01*
X129187Y-166195D01*
X129597Y-165661D01*
X129855Y-165038D01*
X129943Y-164370D01*
X129855Y-163702D01*
X129597Y-163080D01*
X129187Y-162545D01*
X128653Y-162135D01*
X128030Y-161877D01*
X127362Y-161789D01*
D02*
G37*
G36*
X84055Y-162183D02*
X83387Y-162271D01*
X82765Y-162528D01*
X82230Y-162939D01*
X81820Y-163473D01*
X81562Y-164096D01*
X81474Y-164764D01*
X81562Y-165432D01*
X81820Y-166054D01*
X82230Y-166589D01*
X82765Y-166999D01*
X83387Y-167257D01*
X84055Y-167345D01*
X84723Y-167257D01*
X85346Y-166999D01*
X85880Y-166589D01*
X86290Y-166054D01*
X86548Y-165432D01*
X86636Y-164764D01*
X86548Y-164096D01*
X86290Y-163473D01*
X85880Y-162939D01*
X85346Y-162528D01*
X84723Y-162271D01*
X84055Y-162183D01*
D02*
G37*
G36*
X252658Y-162478D02*
X251989Y-162566D01*
X251367Y-162824D01*
X250832Y-163234D01*
X250422Y-163768D01*
X250164Y-164391D01*
X250076Y-165059D01*
X250164Y-165727D01*
X250422Y-166350D01*
X250832Y-166884D01*
X251367Y-167294D01*
X251989Y-167552D01*
X252658Y-167640D01*
X253326Y-167552D01*
X253948Y-167294D01*
X254483Y-166884D01*
X254893Y-166350D01*
X255151Y-165727D01*
X255239Y-165059D01*
X255151Y-164391D01*
X254893Y-163768D01*
X254483Y-163234D01*
X253948Y-162824D01*
X253326Y-162566D01*
X252658Y-162478D01*
D02*
G37*
G36*
X270669Y-160214D02*
X270001Y-160302D01*
X269379Y-160560D01*
X268844Y-160970D01*
X268434Y-161505D01*
X268176Y-162127D01*
X268088Y-162795D01*
X268176Y-163463D01*
X268434Y-164086D01*
X268844Y-164620D01*
X268819Y-165098D01*
X268631Y-165343D01*
X268373Y-165966D01*
X268285Y-166634D01*
X268373Y-167302D01*
X268631Y-167924D01*
X269041Y-168459D01*
X269576Y-168869D01*
X270198Y-169127D01*
X270866Y-169215D01*
X271534Y-169127D01*
X272157Y-168869D01*
X272691Y-168459D01*
X273026Y-168670D01*
X273414Y-168968D01*
X274037Y-169226D01*
X274705Y-169313D01*
X275373Y-169226D01*
X275995Y-168968D01*
X276530Y-168557D01*
X276940Y-168023D01*
X277198Y-167400D01*
X277286Y-166732D01*
X277198Y-166064D01*
X276940Y-165442D01*
X276530Y-164907D01*
X275995Y-164497D01*
X275373Y-164239D01*
X274705Y-164151D01*
X274037Y-164239D01*
X273414Y-164497D01*
X273121Y-164722D01*
X273006Y-164745D01*
X272708Y-164488D01*
X272716Y-164331D01*
X272905Y-164086D01*
X273163Y-163463D01*
X273250Y-162795D01*
X273163Y-162127D01*
X272905Y-161505D01*
X272494Y-160970D01*
X271960Y-160560D01*
X271337Y-160302D01*
X270669Y-160214D01*
D02*
G37*
G36*
X76772Y-169269D02*
X76104Y-169357D01*
X75481Y-169615D01*
X74946Y-170025D01*
X74536Y-170560D01*
X74278Y-171182D01*
X74190Y-171850D01*
X74278Y-172519D01*
X74536Y-173141D01*
X74946Y-173676D01*
X75481Y-174086D01*
X76104Y-174344D01*
X76772Y-174432D01*
X77440Y-174344D01*
X78062Y-174086D01*
X78597Y-173676D01*
X79007Y-173141D01*
X79265Y-172519D01*
X79353Y-171850D01*
X79265Y-171182D01*
X79007Y-170560D01*
X78597Y-170025D01*
X78062Y-169615D01*
X77440Y-169357D01*
X76772Y-169269D01*
D02*
G37*
G36*
X278248Y-175175D02*
X277580Y-175263D01*
X276958Y-175521D01*
X276476Y-175890D01*
X275995Y-175521D01*
X275373Y-175263D01*
X274705Y-175175D01*
X274037Y-175263D01*
X273414Y-175521D01*
X272880Y-175931D01*
X272469Y-176465D01*
X272212Y-177088D01*
X272124Y-177756D01*
X272212Y-178424D01*
X272469Y-179046D01*
X272880Y-179581D01*
X273414Y-179991D01*
X274037Y-180249D01*
X274705Y-180337D01*
X275373Y-180249D01*
X275995Y-179991D01*
X276476Y-179622D01*
X276958Y-179991D01*
X277580Y-180249D01*
X278248Y-180337D01*
X278916Y-180249D01*
X279539Y-179991D01*
X280073Y-179581D01*
X280483Y-179046D01*
X280741Y-178424D01*
X280829Y-177756D01*
X280741Y-177088D01*
X280483Y-176465D01*
X280073Y-175931D01*
X279539Y-175521D01*
X278916Y-175263D01*
X278248Y-175175D01*
D02*
G37*
G36*
X363308Y-173316D02*
X363181Y-173481D01*
X362874Y-174223D01*
X362769Y-175020D01*
X362874Y-175816D01*
X363181Y-176558D01*
X363308Y-176723D01*
X365011Y-175020D01*
X363308Y-173316D01*
D02*
G37*
G36*
X356062Y-173316D02*
X354359Y-175020D01*
X356062Y-176723D01*
X356189Y-176558D01*
X356496Y-175816D01*
X356601Y-175020D01*
X356496Y-174223D01*
X356189Y-173481D01*
X356062Y-173316D01*
D02*
G37*
G36*
X346851Y-173316D02*
X346725Y-173481D01*
X346417Y-174223D01*
X346312Y-175020D01*
X346417Y-175816D01*
X346725Y-176558D01*
X346851Y-176723D01*
X348555Y-175020D01*
X346851Y-173316D01*
D02*
G37*
G36*
X29528Y-174956D02*
X28192Y-175132D01*
X26946Y-175647D01*
X25877Y-176468D01*
X25057Y-177537D01*
X24803Y-178150D01*
X24409D01*
X24156Y-177537D01*
X23335Y-176468D01*
X22266Y-175647D01*
X21021Y-175132D01*
X19685Y-174956D01*
X18349Y-175132D01*
X17104Y-175647D01*
X16035Y-176468D01*
X15214Y-177537D01*
X14699Y-178782D01*
X14523Y-180118D01*
X14699Y-181454D01*
X15214Y-182699D01*
X16035Y-183768D01*
X17104Y-184589D01*
X18349Y-185105D01*
X19685Y-185280D01*
X21021Y-185105D01*
X22266Y-184589D01*
X23335Y-183768D01*
X24156Y-182699D01*
X24409Y-182087D01*
X24803D01*
X25057Y-182699D01*
X25877Y-183768D01*
X26946Y-184589D01*
X28192Y-185105D01*
X29528Y-185280D01*
X30864Y-185105D01*
X32109Y-184589D01*
X33178Y-183768D01*
X33998Y-182699D01*
X34514Y-181454D01*
X34690Y-180118D01*
X34514Y-178782D01*
X33998Y-177537D01*
X33178Y-176468D01*
X32109Y-175647D01*
X30864Y-175132D01*
X29528Y-174956D01*
D02*
G37*
G36*
X245066Y-177143D02*
X244398Y-177231D01*
X243776Y-177489D01*
X243241Y-177899D01*
X242831Y-178434D01*
X242573Y-179056D01*
X242485Y-179724D01*
X242573Y-180393D01*
X242831Y-181015D01*
X243241Y-181550D01*
X243776Y-181960D01*
X244398Y-182218D01*
X245066Y-182306D01*
X245735Y-182218D01*
X246357Y-181960D01*
X246892Y-181550D01*
X247302Y-181015D01*
X247560Y-180393D01*
X247648Y-179724D01*
X247560Y-179056D01*
X247302Y-178434D01*
X246892Y-177899D01*
X246357Y-177489D01*
X245735Y-177231D01*
X245066Y-177143D01*
D02*
G37*
G36*
X239062Y-177242D02*
X238394Y-177330D01*
X237772Y-177587D01*
X237237Y-177998D01*
X236827Y-178532D01*
X236569Y-179155D01*
X236481Y-179823D01*
X236569Y-180491D01*
X236827Y-181113D01*
X237237Y-181648D01*
X237772Y-182058D01*
X238394Y-182316D01*
X239062Y-182404D01*
X239731Y-182316D01*
X240353Y-182058D01*
X240888Y-181648D01*
X241298Y-181113D01*
X241556Y-180491D01*
X241644Y-179823D01*
X241556Y-179155D01*
X241298Y-178532D01*
X240888Y-177998D01*
X240353Y-177587D01*
X239731Y-177330D01*
X239062Y-177242D01*
D02*
G37*
G36*
X353524Y-171942D02*
X349390D01*
X348593Y-172047D01*
X347851Y-172354D01*
X347686Y-172481D01*
X349807Y-174602D01*
X349390Y-175020D01*
X349807Y-175437D01*
X347686Y-177558D01*
X347851Y-177685D01*
X348593Y-177992D01*
X349390Y-178097D01*
X352031D01*
X352153Y-178491D01*
X351718Y-178824D01*
X351308Y-179359D01*
X351050Y-179982D01*
X350962Y-180650D01*
X351050Y-181318D01*
X351308Y-181940D01*
X351718Y-182475D01*
X352253Y-182885D01*
X352875Y-183143D01*
X353543Y-183231D01*
X354211Y-183143D01*
X354834Y-182885D01*
X355368Y-182475D01*
X355779Y-181940D01*
X356036Y-181318D01*
X356124Y-180650D01*
X356036Y-179982D01*
X355779Y-179359D01*
X355368Y-178824D01*
X354834Y-178414D01*
X354582Y-178310D01*
X354582Y-177884D01*
X355062Y-177685D01*
X355227Y-177558D01*
X353106Y-175437D01*
X353524Y-175020D01*
X353106Y-174602D01*
X355227Y-172481D01*
X355062Y-172354D01*
X354320Y-172047D01*
X353524Y-171942D01*
D02*
G37*
G36*
X99410Y-176553D02*
X98741Y-176641D01*
X98119Y-176899D01*
X97584Y-177309D01*
X97174Y-177843D01*
X96916Y-178466D01*
X96828Y-179134D01*
X96916Y-179802D01*
X97174Y-180424D01*
X97584Y-180959D01*
X98119Y-181369D01*
X98741Y-181627D01*
X99410Y-181715D01*
X99513Y-181701D01*
X99837Y-182056D01*
X99781Y-182480D01*
X99869Y-183148D01*
X100127Y-183771D01*
X100537Y-184305D01*
X101072Y-184716D01*
X101694Y-184974D01*
X102362Y-185061D01*
X103030Y-184974D01*
X103653Y-184716D01*
X104187Y-184305D01*
X104597Y-183771D01*
X104855Y-183148D01*
X104943Y-182480D01*
X104855Y-181812D01*
X104597Y-181190D01*
X104187Y-180655D01*
X103653Y-180245D01*
X103030Y-179987D01*
X102362Y-179899D01*
X102259Y-179913D01*
X101935Y-179558D01*
X101991Y-179134D01*
X101903Y-178466D01*
X101645Y-177843D01*
X101235Y-177309D01*
X100700Y-176899D01*
X100077Y-176641D01*
X99410Y-176553D01*
D02*
G37*
G36*
X127362Y-180293D02*
X126694Y-180381D01*
X126072Y-180639D01*
X125537Y-181049D01*
X125127Y-181583D01*
X124869Y-182206D01*
X124781Y-182874D01*
X124869Y-183542D01*
X125127Y-184165D01*
X125537Y-184699D01*
X126072Y-185109D01*
X126694Y-185367D01*
X127362Y-185455D01*
X128030Y-185367D01*
X128653Y-185109D01*
X129187Y-184699D01*
X129597Y-184165D01*
X129855Y-183542D01*
X129943Y-182874D01*
X129855Y-182206D01*
X129597Y-181583D01*
X129187Y-181049D01*
X128653Y-180639D01*
X128030Y-180381D01*
X127362Y-180293D01*
D02*
G37*
G36*
X84055Y-180883D02*
X83387Y-180971D01*
X82765Y-181229D01*
X82230Y-181639D01*
X81820Y-182174D01*
X81562Y-182797D01*
X81474Y-183465D01*
X81562Y-184133D01*
X81820Y-184755D01*
X82230Y-185290D01*
X82765Y-185700D01*
X83387Y-185958D01*
X84055Y-186046D01*
X84723Y-185958D01*
X85346Y-185700D01*
X85880Y-185290D01*
X86290Y-184755D01*
X86548Y-184133D01*
X86636Y-183465D01*
X86548Y-182797D01*
X86290Y-182174D01*
X85880Y-181639D01*
X85346Y-181229D01*
X84723Y-180971D01*
X84055Y-180883D01*
D02*
G37*
G36*
X309547Y-185411D02*
X308879Y-185499D01*
X308257Y-185757D01*
X307722Y-186167D01*
X307312Y-186702D01*
X307054Y-187324D01*
X306966Y-187992D01*
X307054Y-188660D01*
X307312Y-189283D01*
X307722Y-189817D01*
X308257Y-190227D01*
X308879Y-190485D01*
X309547Y-190573D01*
X310215Y-190485D01*
X310838Y-190227D01*
X311372Y-189817D01*
X311783Y-189283D01*
X312040Y-188660D01*
X312128Y-187992D01*
X312040Y-187324D01*
X311783Y-186702D01*
X311372Y-186167D01*
X310838Y-185757D01*
X310215Y-185499D01*
X309547Y-185411D01*
D02*
G37*
G36*
X76772Y-186494D02*
X76104Y-186582D01*
X75481Y-186839D01*
X74946Y-187250D01*
X74536Y-187784D01*
X74278Y-188407D01*
X74190Y-189075D01*
X74278Y-189743D01*
X74536Y-190365D01*
X74946Y-190900D01*
X75481Y-191310D01*
X76104Y-191568D01*
X76772Y-191656D01*
X77440Y-191568D01*
X78062Y-191310D01*
X78597Y-190900D01*
X79007Y-190365D01*
X79265Y-189743D01*
X79353Y-189075D01*
X79265Y-188407D01*
X79007Y-187784D01*
X78597Y-187250D01*
X78062Y-186839D01*
X77440Y-186582D01*
X76772Y-186494D01*
D02*
G37*
G36*
X29528Y-188934D02*
X28243Y-189103D01*
X27046Y-189599D01*
X26490Y-190025D01*
X29528Y-193062D01*
X32565Y-190025D01*
X32009Y-189599D01*
X30812Y-189103D01*
X29528Y-188934D01*
D02*
G37*
G36*
X33400Y-190860D02*
X30363Y-193898D01*
X33400Y-196935D01*
X33826Y-196379D01*
X34322Y-195182D01*
X34491Y-193898D01*
X34322Y-192613D01*
X33826Y-191416D01*
X33400Y-190860D01*
D02*
G37*
G36*
X19685Y-188735D02*
X18349Y-188911D01*
X17104Y-189427D01*
X16035Y-190247D01*
X15214Y-191316D01*
X14699Y-192562D01*
X14523Y-193898D01*
X14699Y-195234D01*
X15214Y-196479D01*
X16035Y-197548D01*
X17104Y-198368D01*
X18349Y-198884D01*
X19685Y-199060D01*
X21021Y-198884D01*
X22266Y-198368D01*
X23335Y-197548D01*
X24156Y-196479D01*
X24500Y-195648D01*
X24926D01*
X25229Y-196379D01*
X25655Y-196935D01*
X28692Y-193898D01*
X25655Y-190860D01*
X25229Y-191416D01*
X24926Y-192147D01*
X24500D01*
X24156Y-191316D01*
X23335Y-190247D01*
X22266Y-189427D01*
X21021Y-188911D01*
X19685Y-188735D01*
D02*
G37*
G36*
X29528Y-194733D02*
X26490Y-197770D01*
X27046Y-198196D01*
X28243Y-198692D01*
X29528Y-198861D01*
X30812Y-198692D01*
X32009Y-198196D01*
X32565Y-197770D01*
X29528Y-194733D01*
D02*
G37*
G36*
X99606Y-195647D02*
X98938Y-195735D01*
X98316Y-195993D01*
X97781Y-196403D01*
X97371Y-196938D01*
X97113Y-197560D01*
X97025Y-198228D01*
X97113Y-198896D01*
X97371Y-199519D01*
X97781Y-200054D01*
X98316Y-200464D01*
X98938Y-200722D01*
X99606Y-200810D01*
X99714Y-200795D01*
X99992Y-201074D01*
X99978Y-201181D01*
X100066Y-201849D01*
X100324Y-202472D01*
X100734Y-203006D01*
X101268Y-203416D01*
X101891Y-203674D01*
X102559Y-203762D01*
X103227Y-203674D01*
X103850Y-203416D01*
X104384Y-203006D01*
X104794Y-202472D01*
X105052Y-201849D01*
X105140Y-201181D01*
X105052Y-200513D01*
X104794Y-199890D01*
X104384Y-199356D01*
X103850Y-198946D01*
X103227Y-198688D01*
X102559Y-198600D01*
X102452Y-198614D01*
X102173Y-198336D01*
X102187Y-198228D01*
X102100Y-197560D01*
X101842Y-196938D01*
X101431Y-196403D01*
X100897Y-195993D01*
X100274Y-195735D01*
X99606Y-195647D01*
D02*
G37*
G36*
X84055Y-199387D02*
X83387Y-199475D01*
X82765Y-199733D01*
X82230Y-200143D01*
X81820Y-200678D01*
X81562Y-201301D01*
X81474Y-201969D01*
X81562Y-202637D01*
X81820Y-203259D01*
X82230Y-203794D01*
X82765Y-204204D01*
X83387Y-204462D01*
X84055Y-204550D01*
X84723Y-204462D01*
X85346Y-204204D01*
X85880Y-203794D01*
X86290Y-203259D01*
X86548Y-202637D01*
X86636Y-201969D01*
X86548Y-201301D01*
X86290Y-200678D01*
X85880Y-200143D01*
X85346Y-199733D01*
X84723Y-199475D01*
X84055Y-199387D01*
D02*
G37*
G36*
X268307Y-203817D02*
X267639Y-203905D01*
X267017Y-204162D01*
X266482Y-204573D01*
X266463Y-204597D01*
X266153Y-204359D01*
X265530Y-204101D01*
X264862Y-204013D01*
X264194Y-204101D01*
X263572Y-204359D01*
X263037Y-204769D01*
X262627Y-205304D01*
X262369Y-205926D01*
X262281Y-206594D01*
X262369Y-207262D01*
X262627Y-207885D01*
X263037Y-208420D01*
X263572Y-208830D01*
X264194Y-209088D01*
X264862Y-209176D01*
X265530Y-209088D01*
X266153Y-208830D01*
X266687Y-208420D01*
X266731Y-208414D01*
X267017Y-208633D01*
X267639Y-208891D01*
X268307Y-208979D01*
X268975Y-208891D01*
X269598Y-208633D01*
X270132Y-208223D01*
X270542Y-207688D01*
X270800Y-207066D01*
X270888Y-206398D01*
X270800Y-205730D01*
X270542Y-205107D01*
X270132Y-204573D01*
X269598Y-204162D01*
X268975Y-203905D01*
X268307Y-203817D01*
D02*
G37*
G36*
X153544Y-205079D02*
X152876Y-205167D01*
X152254Y-205424D01*
X151719Y-205835D01*
X151309Y-206369D01*
X151257Y-206494D01*
X150831D01*
X150780Y-206369D01*
X150369Y-205835D01*
X149835Y-205424D01*
X149212Y-205167D01*
X148544Y-205079D01*
X147876Y-205167D01*
X147254Y-205424D01*
X146719Y-205835D01*
X146309Y-206369D01*
X146257Y-206494D01*
X145831D01*
X145780Y-206369D01*
X145369Y-205835D01*
X144835Y-205424D01*
X144212Y-205167D01*
X143544Y-205079D01*
X142876Y-205167D01*
X142254Y-205424D01*
X141719Y-205835D01*
X141309Y-206369D01*
X141257Y-206494D01*
X140831D01*
X140780Y-206369D01*
X140369Y-205835D01*
X139835Y-205424D01*
X139212Y-205167D01*
X138544Y-205079D01*
X137876Y-205167D01*
X137254Y-205424D01*
X136719Y-205835D01*
X136309Y-206369D01*
X136051Y-206992D01*
X135963Y-207660D01*
X136051Y-208328D01*
X136309Y-208950D01*
X136719Y-209485D01*
X137254Y-209895D01*
X137876Y-210153D01*
X138544Y-210241D01*
X139212Y-210153D01*
X139835Y-209895D01*
X140369Y-209485D01*
X140780Y-208950D01*
X140831Y-208826D01*
X141257D01*
X141309Y-208950D01*
X141719Y-209485D01*
X142254Y-209895D01*
X142876Y-210153D01*
X143544Y-210241D01*
X144212Y-210153D01*
X144835Y-209895D01*
X145369Y-209485D01*
X145780Y-208950D01*
X145831Y-208826D01*
X146257D01*
X146309Y-208950D01*
X146719Y-209485D01*
X147254Y-209895D01*
X147876Y-210153D01*
X148544Y-210241D01*
X149212Y-210153D01*
X149835Y-209895D01*
X150369Y-209485D01*
X150780Y-208950D01*
X150831Y-208826D01*
X151257D01*
X151309Y-208950D01*
X151719Y-209485D01*
X152254Y-209895D01*
X152876Y-210153D01*
X153544Y-210241D01*
X154212Y-210153D01*
X154835Y-209895D01*
X155369Y-209485D01*
X155780Y-208950D01*
X156037Y-208328D01*
X156125Y-207660D01*
X156037Y-206992D01*
X155780Y-206369D01*
X155369Y-205835D01*
X154835Y-205424D01*
X154212Y-205167D01*
X153544Y-205079D01*
D02*
G37*
G36*
X76772Y-203718D02*
X76104Y-203806D01*
X75481Y-204064D01*
X74946Y-204474D01*
X74536Y-205009D01*
X74278Y-205631D01*
X74190Y-206299D01*
X74278Y-206967D01*
X74536Y-207590D01*
X74946Y-208124D01*
X75481Y-208535D01*
X76104Y-208792D01*
X76772Y-208880D01*
X77440Y-208792D01*
X78062Y-208535D01*
X78597Y-208124D01*
X79007Y-207590D01*
X79265Y-206967D01*
X79353Y-206299D01*
X79265Y-205631D01*
X79007Y-205009D01*
X78597Y-204474D01*
X78062Y-204064D01*
X77440Y-203806D01*
X76772Y-203718D01*
D02*
G37*
G36*
X127362Y-204505D02*
X126694Y-204593D01*
X126072Y-204851D01*
X125537Y-205261D01*
X125127Y-205796D01*
X124869Y-206419D01*
X124781Y-207087D01*
X124869Y-207755D01*
X125127Y-208377D01*
X125537Y-208912D01*
X126072Y-209322D01*
X126694Y-209580D01*
X127362Y-209668D01*
X128030Y-209580D01*
X128653Y-209322D01*
X129187Y-208912D01*
X129597Y-208377D01*
X129855Y-207755D01*
X129943Y-207087D01*
X129855Y-206419D01*
X129597Y-205796D01*
X129187Y-205261D01*
X128653Y-204851D01*
X128030Y-204593D01*
X127362Y-204505D01*
D02*
G37*
G36*
X363308Y-207332D02*
X363181Y-207497D01*
X362874Y-208239D01*
X362769Y-209035D01*
X362874Y-209832D01*
X363181Y-210574D01*
X363308Y-210739D01*
X365011Y-209035D01*
X363308Y-207332D01*
D02*
G37*
G36*
X356062Y-207332D02*
X354359Y-209035D01*
X356062Y-210739D01*
X356189Y-210574D01*
X356496Y-209832D01*
X356601Y-209035D01*
X356496Y-208239D01*
X356189Y-207497D01*
X356062Y-207332D01*
D02*
G37*
G36*
X346851Y-207332D02*
X346725Y-207497D01*
X346417Y-208239D01*
X346312Y-209035D01*
X346417Y-209832D01*
X346725Y-210574D01*
X346851Y-210739D01*
X348555Y-209035D01*
X346851Y-207332D01*
D02*
G37*
G36*
X280118Y-202931D02*
X279450Y-203019D01*
X278828Y-203276D01*
X278293Y-203687D01*
X277883Y-204221D01*
X277625Y-204844D01*
X277537Y-205512D01*
X277625Y-206180D01*
X277883Y-206802D01*
X278025Y-206988D01*
X277883Y-207174D01*
X277625Y-207797D01*
X277537Y-208465D01*
X277625Y-209133D01*
X277883Y-209755D01*
X278293Y-210290D01*
X278828Y-210700D01*
X279450Y-210958D01*
X280118Y-211046D01*
X280786Y-210958D01*
X281409Y-210700D01*
X281943Y-210290D01*
X282353Y-209755D01*
X282611Y-209133D01*
X282699Y-208465D01*
X282611Y-207797D01*
X282353Y-207174D01*
X282211Y-206988D01*
X282353Y-206802D01*
X282611Y-206180D01*
X282699Y-205512D01*
X282611Y-204844D01*
X282353Y-204221D01*
X281943Y-203687D01*
X281409Y-203276D01*
X280786Y-203019D01*
X280118Y-202931D01*
D02*
G37*
G36*
X353543Y-200824D02*
X352875Y-200912D01*
X352253Y-201170D01*
X351718Y-201580D01*
X351308Y-202115D01*
X351050Y-202737D01*
X350962Y-203405D01*
X351050Y-204074D01*
X351308Y-204696D01*
X351718Y-205231D01*
X352153Y-205564D01*
X352031Y-205958D01*
X349390D01*
X348593Y-206063D01*
X347851Y-206370D01*
X347686Y-206497D01*
X349807Y-208618D01*
X349390Y-209035D01*
X349807Y-209453D01*
X347686Y-211574D01*
X347851Y-211701D01*
X348593Y-212008D01*
X349390Y-212113D01*
X353524D01*
X354320Y-212008D01*
X355062Y-211701D01*
X355227Y-211574D01*
X353106Y-209453D01*
X353524Y-209035D01*
X353106Y-208618D01*
X355227Y-206497D01*
X355062Y-206370D01*
X354582Y-206171D01*
X354582Y-205745D01*
X354834Y-205641D01*
X355368Y-205231D01*
X355779Y-204696D01*
X356036Y-204074D01*
X356124Y-203405D01*
X356036Y-202737D01*
X355779Y-202115D01*
X355368Y-201580D01*
X354834Y-201170D01*
X354211Y-200912D01*
X353543Y-200824D01*
D02*
G37*
G36*
X100787Y-208836D02*
X100119Y-208924D01*
X99497Y-209182D01*
X98962Y-209592D01*
X98552Y-210127D01*
X98294Y-210749D01*
X98206Y-211417D01*
X98294Y-212085D01*
X98552Y-212708D01*
X98962Y-213243D01*
X99497Y-213653D01*
X100119Y-213911D01*
X100787Y-213999D01*
X101455Y-213911D01*
X102078Y-213653D01*
X102612Y-213243D01*
X103023Y-212708D01*
X103281Y-212085D01*
X103368Y-211417D01*
X103281Y-210749D01*
X103023Y-210127D01*
X102612Y-209592D01*
X102078Y-209182D01*
X101455Y-208924D01*
X100787Y-208836D01*
D02*
G37*
G36*
X333858Y-210490D02*
X333190Y-210578D01*
X332568Y-210836D01*
X332033Y-211246D01*
X331623Y-211780D01*
X331365Y-212403D01*
X331277Y-213071D01*
X331365Y-213739D01*
X331623Y-214361D01*
X332033Y-214896D01*
X332568Y-215306D01*
X333190Y-215564D01*
X333858Y-215652D01*
X334526Y-215564D01*
X335149Y-215306D01*
X335683Y-214896D01*
X336094Y-214361D01*
X336351Y-213739D01*
X336439Y-213071D01*
X336351Y-212403D01*
X336094Y-211780D01*
X335683Y-211246D01*
X335149Y-210836D01*
X334526Y-210578D01*
X333858Y-210490D01*
D02*
G37*
%LPD*%
D112*
X29528Y-193898D02*
D03*
Y-97441D02*
D03*
X19685Y-97441D02*
D03*
X29528Y-83661D02*
D03*
X19685D02*
D03*
X29528Y-69882D02*
D03*
X19685D02*
D03*
X29528Y-56102D02*
D03*
X19685D02*
D03*
X29528Y-42323D02*
D03*
X19685D02*
D03*
X354823Y-134252D02*
D03*
X344980D02*
D03*
D119*
X19685Y-69882D02*
X26378Y-63189D01*
X36417D01*
X19685Y-56102D02*
X26575Y-49213D01*
X37795D01*
X40945Y-46063D01*
D120*
X45669Y-97638D02*
X46949Y-98917D01*
D121*
X39764Y-72441D02*
X45177Y-77854D01*
X37008Y-64567D02*
X47638D01*
D122*
X40551Y-115551D02*
Y-110827D01*
X29528Y-99803D02*
X40551Y-110827D01*
X29528Y-99803D02*
Y-97441D01*
X40551Y-115551D02*
X46850Y-121850D01*
X46457Y-109646D02*
X46850Y-108268D01*
X37992Y-99410D02*
X46850Y-108268D01*
X46457Y-109646D02*
X47264Y-110189D01*
X47721Y-112534D01*
X46457Y-109646D02*
X46801Y-111614D01*
X47721Y-112534D01*
X29331Y-71260D02*
X38583D01*
X29528Y-69882D02*
X30709Y-71063D01*
X38583Y-71260D02*
X39764Y-72441D01*
D123*
X25000Y-90551D02*
X32874D01*
X37992Y-95669D01*
Y-99410D02*
Y-95669D01*
X19685Y-97441D02*
Y-95866D01*
X25000Y-90551D01*
X43701Y-94685D02*
X46654Y-97638D01*
X43701Y-94685D02*
Y-94291D01*
Y-96260D02*
Y-94685D01*
X33071Y-83661D02*
X43701Y-94291D01*
X29528Y-83661D02*
X33071D01*
X43701Y-96260D02*
X45079Y-97638D01*
X45669D01*
X46654D01*
X44685Y-87795D02*
X48819D01*
X33661Y-76772D02*
X44685Y-87795D01*
X24409Y-76772D02*
X33661D01*
X19685Y-81496D02*
X24409Y-76772D01*
X19685Y-83661D02*
Y-81496D01*
D125*
X29528Y-56102D02*
X46850D01*
X40945Y-46063D02*
X46850D01*
X37421Y-32461D02*
X48228D01*
X29528Y-40354D02*
X37421Y-32461D01*
X29528Y-42323D02*
Y-40354D01*
X29528Y-22638D02*
X47835D01*
X19685Y-32480D02*
X29528Y-22638D01*
X19685Y-42323D02*
Y-32480D01*
D127*
X177736Y-21457D02*
D03*
X229410Y-111713D02*
D03*
D128*
X200295Y-156988D02*
D03*
X208760Y-54626D02*
D03*
X176279Y-37598D02*
D03*
X297612Y-230512D02*
D03*
X285928D02*
D03*
X274244D02*
D03*
X262560D02*
D03*
X250876D02*
D03*
X239192D02*
D03*
X227508D02*
D03*
X215824D02*
D03*
X204140D02*
D03*
X192456D02*
D03*
X180772D02*
D03*
X169088D02*
D03*
X157404D02*
D03*
X145720D02*
D03*
X134036D02*
D03*
X122352D02*
D03*
X110668D02*
D03*
X98984D02*
D03*
X87300D02*
D03*
X75616D02*
D03*
X63932D02*
D03*
X52248D02*
D03*
X40564D02*
D03*
X28880D02*
D03*
X17196D02*
D03*
X5512D02*
D03*
X262402Y-212205D02*
D03*
X254134Y-216535D02*
D03*
X67716Y-141339D02*
D03*
Y-158514D02*
D03*
Y-175689D02*
D03*
Y-192864D02*
D03*
X118551Y-144095D02*
D03*
Y-162992D02*
D03*
Y-182165D02*
D03*
X67716Y-210039D02*
D03*
X112795Y-216779D02*
D03*
X118898Y-88585D02*
D03*
X317717Y-121752D02*
D03*
X292618Y-132382D02*
D03*
X5512Y-5709D02*
D03*
X134941Y-65945D02*
D03*
X170276Y-166732D02*
D03*
X165157D02*
D03*
X333661Y-189764D02*
D03*
X342618Y-177559D02*
D03*
X342815Y-207283D02*
D03*
X332283Y-28740D02*
D03*
X233046Y-180118D02*
D03*
X297441Y-18701D02*
D03*
X311614Y-47441D02*
D03*
X306299Y-99213D02*
D03*
X332185Y-87205D02*
D03*
X118898Y-66390D02*
D03*
Y-44195D02*
D03*
Y-22000D02*
D03*
X131595Y-84350D02*
D03*
X17196Y-5709D02*
D03*
X28880D02*
D03*
X40564D02*
D03*
X52248D02*
D03*
X63932D02*
D03*
X75616D02*
D03*
X87300D02*
D03*
X98984D02*
D03*
X110668D02*
D03*
X122352D02*
D03*
X134036D02*
D03*
X145720D02*
D03*
X157404D02*
D03*
X169088D02*
D03*
X180772D02*
D03*
X192456D02*
D03*
X204140D02*
D03*
X215824D02*
D03*
X227508D02*
D03*
X239192D02*
D03*
X250876D02*
D03*
X262560D02*
D03*
X274244D02*
D03*
X285928D02*
D03*
X297612D02*
D03*
X309296D02*
D03*
X320980D02*
D03*
X332664D02*
D03*
X344348D02*
D03*
X356032D02*
D03*
X367716D02*
D03*
Y-230512D02*
D03*
X356032D02*
D03*
X344348D02*
D03*
X332664D02*
D03*
X320980D02*
D03*
X309296D02*
D03*
X204035Y-110827D02*
D03*
X179382Y-100022D02*
D03*
X208760Y-68898D02*
D03*
X173031Y-89173D02*
D03*
X178347Y-64468D02*
D03*
X158760Y-172441D02*
D03*
X184449Y-178051D02*
D03*
Y-172933D02*
D03*
X204134Y-127067D02*
D03*
X276181Y-130118D02*
D03*
X328740Y-157579D02*
D03*
X118701Y-106988D02*
D03*
X296654Y-218110D02*
D03*
X176575Y-121063D02*
D03*
X112303Y-198228D02*
D03*
X297638Y-77264D02*
D03*
X216437Y-121161D02*
D03*
X251083Y-179724D02*
D03*
X257087Y-179823D02*
D03*
X230610Y-146949D02*
D03*
X243602Y-165059D02*
D03*
X248524D02*
D03*
X262303Y-135835D02*
D03*
X208268Y-195866D02*
D03*
X193799Y-195571D02*
D03*
X218898Y-29134D02*
D03*
X272047Y-193996D02*
D03*
X317126Y-156398D02*
D03*
X298256Y-165327D02*
D03*
X156466Y-111568D02*
D03*
X152223Y-111565D02*
D03*
X186339Y-153957D02*
D03*
X193898Y-37500D02*
D03*
X146555Y-19390D02*
D03*
X156988Y-56004D02*
D03*
D129*
X367913Y-175020D02*
D03*
Y-209035D02*
D03*
X351457Y-175020D02*
D03*
Y-209035D02*
D03*
D130*
X43898Y-30512D02*
D03*
X47835D02*
D03*
X43504Y-44094D02*
D03*
X47441D02*
D03*
X42913Y-54134D02*
D03*
X46850D02*
D03*
X43701Y-63779D02*
D03*
X47638D02*
D03*
X42323Y-73819D02*
D03*
X45276Y-76575D02*
D03*
X44882Y-87303D02*
D03*
X48819D02*
D03*
X43701Y-96260D02*
D03*
X46949Y-98917D02*
D03*
X47638Y-113386D02*
D03*
X46457Y-109843D02*
D03*
X46850Y-121850D02*
D03*
X43701Y-119095D02*
D03*
X47835Y-20669D02*
D03*
X43898D02*
D03*
M02*
