G04*
G04 #@! TF.GenerationSoftware,Altium Limited,Altium Designer,24.4.1 (13)*
G04*
G04 Layer_Color=8388736*
%FSLAX25Y25*%
%MOIN*%
G70*
G04*
G04 #@! TF.SameCoordinates,A9874F04-4083-4E43-9FC9-20C7E77B936A*
G04*
G04*
G04 #@! TF.FilePolarity,Negative*
G04*
G01*
G75*
%ADD20C,0.00100*%
%ADD32R,0.04921X0.02559*%
%ADD49R,0.01200X0.04575*%
%ADD66R,0.05512X0.03150*%
%ADD67R,0.03543X0.03543*%
%ADD68R,0.05118X0.05906*%
%ADD69R,0.05118X0.05906*%
%ADD70R,0.05906X0.05118*%
%ADD71R,0.05906X0.05118*%
%ADD72R,0.04921X0.03937*%
%ADD73R,0.08394X0.02994*%
%ADD74R,0.04921X0.07480*%
%ADD75R,0.05315X0.02953*%
%ADD76R,0.04331X0.03248*%
%ADD77R,0.03543X0.04331*%
%ADD78R,0.03465X0.04331*%
%ADD79R,0.04370X0.03248*%
%ADD80R,0.04331X0.03209*%
%ADD81O,0.03150X0.10236*%
G04:AMPARAMS|DCode=82|XSize=224.53mil|YSize=92.65mil|CornerRadius=25.16mil|HoleSize=0mil|Usage=FLASHONLY|Rotation=180.000|XOffset=0mil|YOffset=0mil|HoleType=Round|Shape=RoundedRectangle|*
%AMROUNDEDRECTD82*
21,1,0.22453,0.04232,0,0,180.0*
21,1,0.17421,0.09265,0,0,180.0*
1,1,0.05032,-0.08711,0.02116*
1,1,0.05032,0.08711,0.02116*
1,1,0.05032,0.08711,-0.02116*
1,1,0.05032,-0.08711,-0.02116*
%
%ADD82ROUNDEDRECTD82*%
%ADD83R,0.07480X0.04921*%
%ADD84R,0.05315X0.08268*%
%ADD85R,0.03394X0.03394*%
%ADD86R,0.09449X0.10315*%
%ADD87R,0.05512X0.13780*%
%ADD88O,0.06496X0.01378*%
%ADD89O,0.01378X0.06496*%
%ADD90R,0.06693X0.03543*%
G04:AMPARAMS|DCode=91|XSize=45.67mil|YSize=29.53mil|CornerRadius=8.37mil|HoleSize=0mil|Usage=FLASHONLY|Rotation=0.000|XOffset=0mil|YOffset=0mil|HoleType=Round|Shape=RoundedRectangle|*
%AMROUNDEDRECTD91*
21,1,0.04567,0.01280,0,0,0.0*
21,1,0.02894,0.02953,0,0,0.0*
1,1,0.01673,0.01447,-0.00640*
1,1,0.01673,-0.01447,-0.00640*
1,1,0.01673,-0.01447,0.00640*
1,1,0.01673,0.01447,0.00640*
%
%ADD91ROUNDEDRECTD91*%
%ADD92O,0.10236X0.03150*%
%ADD93O,0.09055X0.02756*%
%ADD94R,0.15984X0.15984*%
%ADD95R,0.07402X0.20394*%
%ADD96R,0.03504X0.01457*%
%ADD97R,0.07480X0.04331*%
%ADD98R,0.09882X0.09724*%
G04:AMPARAMS|DCode=99|XSize=51.58mil|YSize=27.17mil|CornerRadius=4.87mil|HoleSize=0mil|Usage=FLASHONLY|Rotation=0.000|XOffset=0mil|YOffset=0mil|HoleType=Round|Shape=RoundedRectangle|*
%AMROUNDEDRECTD99*
21,1,0.05158,0.01742,0,0,0.0*
21,1,0.04183,0.02717,0,0,0.0*
1,1,0.00974,0.02092,-0.00871*
1,1,0.00974,-0.02092,-0.00871*
1,1,0.00974,-0.02092,0.00871*
1,1,0.00974,0.02092,0.00871*
%
%ADD99ROUNDEDRECTD99*%
%ADD100R,0.06102X0.01575*%
%ADD101R,0.06102X0.02756*%
%ADD102R,0.05512X0.01575*%
%ADD103R,0.03937X0.02756*%
G04:AMPARAMS|DCode=104|XSize=18.11mil|YSize=53.54mil|CornerRadius=4.92mil|HoleSize=0mil|Usage=FLASHONLY|Rotation=90.000|XOffset=0mil|YOffset=0mil|HoleType=Round|Shape=RoundedRectangle|*
%AMROUNDEDRECTD104*
21,1,0.01811,0.04370,0,0,90.0*
21,1,0.00827,0.05354,0,0,90.0*
1,1,0.00984,0.02185,0.00413*
1,1,0.00984,0.02185,-0.00413*
1,1,0.00984,-0.02185,-0.00413*
1,1,0.00984,-0.02185,0.00413*
%
%ADD104ROUNDEDRECTD104*%
G04:AMPARAMS|DCode=105|XSize=18.11mil|YSize=53.54mil|CornerRadius=4.92mil|HoleSize=0mil|Usage=FLASHONLY|Rotation=180.000|XOffset=0mil|YOffset=0mil|HoleType=Round|Shape=RoundedRectangle|*
%AMROUNDEDRECTD105*
21,1,0.01811,0.04370,0,0,180.0*
21,1,0.00827,0.05354,0,0,180.0*
1,1,0.00984,-0.00413,0.02185*
1,1,0.00984,0.00413,0.02185*
1,1,0.00984,0.00413,-0.02185*
1,1,0.00984,-0.00413,-0.02185*
%
%ADD105ROUNDEDRECTD105*%
%ADD106R,0.02756X0.03937*%
%ADD107R,0.03543X0.03543*%
%ADD108R,0.03394X0.03394*%
%ADD109C,0.07874*%
%ADD110C,0.06299*%
%ADD111R,0.06299X0.06299*%
%ADD112C,0.08268*%
%ADD113C,0.03150*%
%ADD114O,0.08661X0.04528*%
G36*
X66968Y-123231D02*
X67005Y-123242D01*
X67039Y-123261D01*
X67069Y-123285D01*
X67094Y-123315D01*
X67112Y-123349D01*
X67123Y-123387D01*
X67127Y-123425D01*
Y-131693D01*
Y-133268D01*
X67123Y-133306D01*
X67112Y-133343D01*
X67094Y-133378D01*
X67069Y-133408D01*
X67039Y-133432D01*
X67005Y-133450D01*
X66968Y-133462D01*
X66929Y-133466D01*
X63779D01*
X63741Y-133462D01*
X63704Y-133450D01*
X63670Y-133432D01*
X63640Y-133408D01*
X63615Y-133378D01*
X63597Y-133343D01*
X63586Y-133306D01*
X63582Y-133268D01*
Y-131891D01*
X57580D01*
Y-133268D01*
X57576Y-133306D01*
X57565Y-133343D01*
X57546Y-133378D01*
X57522Y-133408D01*
X57492Y-133432D01*
X57458Y-133450D01*
X57420Y-133462D01*
X57382Y-133466D01*
X54134D01*
X54095Y-133462D01*
X54058Y-133450D01*
X54024Y-133432D01*
X53994Y-133408D01*
X53969Y-133378D01*
X53951Y-133343D01*
X53940Y-133306D01*
X53936Y-133268D01*
Y-131891D01*
X50197D01*
X50158Y-131887D01*
X50121Y-131876D01*
X50087Y-131857D01*
X50057Y-131833D01*
X50032Y-131803D01*
X50014Y-131769D01*
X50003Y-131731D01*
X49999Y-131693D01*
Y-128839D01*
X50003Y-128800D01*
X50014Y-128763D01*
X50032Y-128729D01*
X50057Y-128699D01*
X50087Y-128674D01*
X50121Y-128656D01*
X50158Y-128645D01*
X50197Y-128641D01*
X52164D01*
Y-126576D01*
X50197D01*
X50158Y-126572D01*
X50121Y-126561D01*
X50087Y-126542D01*
X50057Y-126518D01*
X50032Y-126488D01*
X50014Y-126454D01*
X50003Y-126417D01*
X49999Y-126378D01*
Y-123425D01*
X50003Y-123387D01*
X50014Y-123349D01*
X50032Y-123315D01*
X50057Y-123285D01*
X50087Y-123261D01*
X50121Y-123242D01*
X50158Y-123231D01*
X50197Y-123227D01*
X66929D01*
X66968Y-123231D01*
D02*
G37*
G36*
Y-111814D02*
X67005Y-111825D01*
X67039Y-111843D01*
X67069Y-111868D01*
X67094Y-111898D01*
X67112Y-111932D01*
X67123Y-111969D01*
X67127Y-112008D01*
Y-113583D01*
Y-121850D01*
X67123Y-121889D01*
X67112Y-121926D01*
X67094Y-121960D01*
X67069Y-121990D01*
X67039Y-122015D01*
X67005Y-122033D01*
X66968Y-122044D01*
X66929Y-122048D01*
X50197D01*
X50158Y-122044D01*
X50121Y-122033D01*
X50087Y-122015D01*
X50057Y-121990D01*
X50032Y-121960D01*
X50014Y-121926D01*
X50003Y-121889D01*
X49999Y-121850D01*
Y-118898D01*
X50003Y-118859D01*
X50014Y-118822D01*
X50032Y-118788D01*
X50057Y-118758D01*
X50087Y-118733D01*
X50121Y-118715D01*
X50158Y-118704D01*
X50197Y-118700D01*
X52164D01*
Y-116635D01*
X50197D01*
X50158Y-116631D01*
X50121Y-116620D01*
X50087Y-116602D01*
X50057Y-116577D01*
X50032Y-116547D01*
X50014Y-116513D01*
X50003Y-116476D01*
X49999Y-116437D01*
Y-113583D01*
X50003Y-113544D01*
X50014Y-113507D01*
X50032Y-113473D01*
X50057Y-113443D01*
X50087Y-113418D01*
X50121Y-113400D01*
X50158Y-113389D01*
X50197Y-113385D01*
X53936D01*
Y-112008D01*
X53940Y-111969D01*
X53951Y-111932D01*
X53969Y-111898D01*
X53994Y-111868D01*
X54024Y-111843D01*
X54058Y-111825D01*
X54095Y-111814D01*
X54134Y-111810D01*
X57382D01*
X57420Y-111814D01*
X57458Y-111825D01*
X57492Y-111843D01*
X57522Y-111868D01*
X57546Y-111898D01*
X57565Y-111932D01*
X57576Y-111969D01*
X57580Y-112008D01*
Y-113385D01*
X63582D01*
Y-112008D01*
X63586Y-111969D01*
X63597Y-111932D01*
X63615Y-111898D01*
X63640Y-111868D01*
X63670Y-111843D01*
X63704Y-111825D01*
X63741Y-111814D01*
X63779Y-111810D01*
X66929D01*
X66968Y-111814D01*
D02*
G37*
G36*
X67165Y-99412D02*
X67202Y-99424D01*
X67236Y-99442D01*
X67266Y-99466D01*
X67290Y-99496D01*
X67309Y-99531D01*
X67320Y-99568D01*
X67324Y-99606D01*
Y-107874D01*
Y-109449D01*
X67320Y-109487D01*
X67309Y-109525D01*
X67290Y-109559D01*
X67266Y-109589D01*
X67236Y-109613D01*
X67202Y-109632D01*
X67165Y-109643D01*
X67126Y-109647D01*
X63976D01*
X63938Y-109643D01*
X63901Y-109632D01*
X63867Y-109613D01*
X63836Y-109589D01*
X63812Y-109559D01*
X63794Y-109525D01*
X63782Y-109487D01*
X63779Y-109449D01*
Y-108072D01*
X57776D01*
Y-109449D01*
X57773Y-109487D01*
X57762Y-109525D01*
X57743Y-109559D01*
X57719Y-109589D01*
X57689Y-109613D01*
X57654Y-109632D01*
X57617Y-109643D01*
X57579Y-109647D01*
X54331D01*
X54292Y-109643D01*
X54255Y-109632D01*
X54221Y-109613D01*
X54191Y-109589D01*
X54166Y-109559D01*
X54148Y-109525D01*
X54137Y-109487D01*
X54133Y-109449D01*
Y-108072D01*
X50394D01*
X50355Y-108068D01*
X50318Y-108057D01*
X50284Y-108038D01*
X50254Y-108014D01*
X50229Y-107984D01*
X50211Y-107950D01*
X50200Y-107913D01*
X50196Y-107874D01*
Y-105020D01*
X50200Y-104981D01*
X50211Y-104944D01*
X50229Y-104910D01*
X50254Y-104880D01*
X50284Y-104855D01*
X50318Y-104837D01*
X50355Y-104826D01*
X50394Y-104822D01*
X52361D01*
Y-102757D01*
X50394D01*
X50355Y-102753D01*
X50318Y-102742D01*
X50284Y-102724D01*
X50254Y-102699D01*
X50229Y-102669D01*
X50211Y-102635D01*
X50200Y-102598D01*
X50196Y-102559D01*
Y-99606D01*
X50200Y-99568D01*
X50211Y-99531D01*
X50229Y-99496D01*
X50254Y-99466D01*
X50284Y-99442D01*
X50318Y-99424D01*
X50355Y-99412D01*
X50394Y-99409D01*
X67126D01*
X67165Y-99412D01*
D02*
G37*
G36*
Y-87995D02*
X67202Y-88006D01*
X67236Y-88024D01*
X67266Y-88049D01*
X67290Y-88079D01*
X67309Y-88113D01*
X67320Y-88150D01*
X67324Y-88189D01*
Y-89764D01*
Y-98032D01*
X67320Y-98070D01*
X67309Y-98107D01*
X67290Y-98141D01*
X67266Y-98171D01*
X67236Y-98196D01*
X67202Y-98214D01*
X67165Y-98225D01*
X67126Y-98229D01*
X50394D01*
X50355Y-98225D01*
X50318Y-98214D01*
X50284Y-98196D01*
X50254Y-98171D01*
X50229Y-98141D01*
X50211Y-98107D01*
X50200Y-98070D01*
X50196Y-98032D01*
Y-95079D01*
X50200Y-95040D01*
X50211Y-95003D01*
X50229Y-94969D01*
X50254Y-94939D01*
X50284Y-94914D01*
X50318Y-94896D01*
X50355Y-94885D01*
X50394Y-94881D01*
X52361D01*
Y-92816D01*
X50394D01*
X50355Y-92812D01*
X50318Y-92801D01*
X50284Y-92783D01*
X50254Y-92758D01*
X50229Y-92728D01*
X50211Y-92694D01*
X50200Y-92657D01*
X50196Y-92618D01*
Y-89764D01*
X50200Y-89725D01*
X50211Y-89688D01*
X50229Y-89654D01*
X50254Y-89624D01*
X50284Y-89599D01*
X50318Y-89581D01*
X50355Y-89570D01*
X50394Y-89566D01*
X54133D01*
Y-88189D01*
X54137Y-88150D01*
X54148Y-88113D01*
X54166Y-88079D01*
X54191Y-88049D01*
X54221Y-88024D01*
X54255Y-88006D01*
X54292Y-87995D01*
X54331Y-87991D01*
X57579D01*
X57617Y-87995D01*
X57654Y-88006D01*
X57689Y-88024D01*
X57719Y-88049D01*
X57743Y-88079D01*
X57762Y-88113D01*
X57773Y-88150D01*
X57776Y-88189D01*
Y-89566D01*
X63779D01*
Y-88189D01*
X63782Y-88150D01*
X63794Y-88113D01*
X63812Y-88079D01*
X63836Y-88049D01*
X63867Y-88024D01*
X63901Y-88006D01*
X63938Y-87995D01*
X63976Y-87991D01*
X67126D01*
X67165Y-87995D01*
D02*
G37*
G36*
Y-75593D02*
X67202Y-75605D01*
X67236Y-75623D01*
X67266Y-75647D01*
X67290Y-75678D01*
X67309Y-75712D01*
X67320Y-75749D01*
X67324Y-75787D01*
Y-84055D01*
Y-85630D01*
X67320Y-85668D01*
X67309Y-85706D01*
X67290Y-85740D01*
X67266Y-85770D01*
X67236Y-85794D01*
X67202Y-85813D01*
X67165Y-85824D01*
X67126Y-85828D01*
X63976D01*
X63938Y-85824D01*
X63901Y-85813D01*
X63867Y-85794D01*
X63836Y-85770D01*
X63812Y-85740D01*
X63794Y-85706D01*
X63782Y-85668D01*
X63779Y-85630D01*
Y-84253D01*
X57776D01*
Y-85630D01*
X57773Y-85668D01*
X57762Y-85706D01*
X57743Y-85740D01*
X57719Y-85770D01*
X57689Y-85794D01*
X57654Y-85813D01*
X57617Y-85824D01*
X57579Y-85828D01*
X54331D01*
X54292Y-85824D01*
X54255Y-85813D01*
X54221Y-85794D01*
X54191Y-85770D01*
X54166Y-85740D01*
X54148Y-85706D01*
X54137Y-85668D01*
X54133Y-85630D01*
Y-84253D01*
X50394D01*
X50355Y-84249D01*
X50318Y-84238D01*
X50284Y-84220D01*
X50254Y-84195D01*
X50229Y-84165D01*
X50211Y-84131D01*
X50200Y-84094D01*
X50196Y-84055D01*
Y-81201D01*
X50200Y-81162D01*
X50211Y-81125D01*
X50229Y-81091D01*
X50254Y-81061D01*
X50284Y-81036D01*
X50318Y-81018D01*
X50355Y-81007D01*
X50394Y-81003D01*
X52361D01*
Y-78938D01*
X50394D01*
X50355Y-78934D01*
X50318Y-78923D01*
X50284Y-78905D01*
X50254Y-78880D01*
X50229Y-78850D01*
X50211Y-78816D01*
X50200Y-78779D01*
X50196Y-78740D01*
Y-75787D01*
X50200Y-75749D01*
X50211Y-75712D01*
X50229Y-75678D01*
X50254Y-75647D01*
X50284Y-75623D01*
X50318Y-75605D01*
X50355Y-75593D01*
X50394Y-75590D01*
X67126D01*
X67165Y-75593D01*
D02*
G37*
G36*
Y-64176D02*
X67202Y-64187D01*
X67236Y-64206D01*
X67266Y-64230D01*
X67290Y-64260D01*
X67309Y-64294D01*
X67320Y-64332D01*
X67324Y-64370D01*
Y-65945D01*
Y-74213D01*
X67320Y-74251D01*
X67309Y-74288D01*
X67290Y-74322D01*
X67266Y-74353D01*
X67236Y-74377D01*
X67202Y-74395D01*
X67165Y-74407D01*
X67126Y-74410D01*
X50394D01*
X50355Y-74407D01*
X50318Y-74395D01*
X50284Y-74377D01*
X50254Y-74353D01*
X50229Y-74322D01*
X50211Y-74288D01*
X50200Y-74251D01*
X50196Y-74213D01*
Y-71260D01*
X50200Y-71221D01*
X50211Y-71184D01*
X50229Y-71150D01*
X50254Y-71120D01*
X50284Y-71095D01*
X50318Y-71077D01*
X50355Y-71066D01*
X50394Y-71062D01*
X52361D01*
Y-68997D01*
X50394D01*
X50355Y-68993D01*
X50318Y-68982D01*
X50284Y-68964D01*
X50254Y-68939D01*
X50229Y-68909D01*
X50211Y-68875D01*
X50200Y-68838D01*
X50196Y-68799D01*
Y-65945D01*
X50200Y-65906D01*
X50211Y-65869D01*
X50229Y-65835D01*
X50254Y-65805D01*
X50284Y-65780D01*
X50318Y-65762D01*
X50355Y-65751D01*
X50394Y-65747D01*
X54133D01*
Y-64370D01*
X54137Y-64332D01*
X54148Y-64294D01*
X54166Y-64260D01*
X54191Y-64230D01*
X54221Y-64206D01*
X54255Y-64187D01*
X54292Y-64176D01*
X54331Y-64172D01*
X57579D01*
X57617Y-64176D01*
X57654Y-64187D01*
X57689Y-64206D01*
X57719Y-64230D01*
X57743Y-64260D01*
X57762Y-64294D01*
X57773Y-64332D01*
X57776Y-64370D01*
Y-65747D01*
X63779D01*
Y-64370D01*
X63782Y-64332D01*
X63794Y-64294D01*
X63812Y-64260D01*
X63836Y-64230D01*
X63867Y-64206D01*
X63901Y-64187D01*
X63938Y-64176D01*
X63976Y-64172D01*
X67126D01*
X67165Y-64176D01*
D02*
G37*
G36*
Y-51971D02*
X67202Y-51983D01*
X67236Y-52001D01*
X67266Y-52026D01*
X67290Y-52056D01*
X67309Y-52090D01*
X67320Y-52127D01*
X67324Y-52165D01*
Y-60433D01*
Y-62008D01*
X67320Y-62046D01*
X67309Y-62084D01*
X67290Y-62118D01*
X67266Y-62148D01*
X67236Y-62172D01*
X67202Y-62191D01*
X67165Y-62202D01*
X67126Y-62206D01*
X63976D01*
X63938Y-62202D01*
X63901Y-62191D01*
X63867Y-62172D01*
X63836Y-62148D01*
X63812Y-62118D01*
X63794Y-62084D01*
X63782Y-62046D01*
X63779Y-62008D01*
Y-60631D01*
X57776D01*
Y-62008D01*
X57773Y-62046D01*
X57762Y-62084D01*
X57743Y-62118D01*
X57719Y-62148D01*
X57689Y-62172D01*
X57654Y-62191D01*
X57617Y-62202D01*
X57579Y-62206D01*
X54331D01*
X54292Y-62202D01*
X54255Y-62191D01*
X54221Y-62172D01*
X54191Y-62148D01*
X54166Y-62118D01*
X54148Y-62084D01*
X54137Y-62046D01*
X54133Y-62008D01*
Y-60631D01*
X50394D01*
X50355Y-60627D01*
X50318Y-60616D01*
X50284Y-60597D01*
X50254Y-60573D01*
X50229Y-60543D01*
X50211Y-60509D01*
X50200Y-60472D01*
X50196Y-60433D01*
Y-57579D01*
X50200Y-57540D01*
X50211Y-57503D01*
X50229Y-57469D01*
X50254Y-57439D01*
X50284Y-57414D01*
X50318Y-57396D01*
X50355Y-57385D01*
X50394Y-57381D01*
X52361D01*
Y-55316D01*
X50394D01*
X50355Y-55312D01*
X50318Y-55301D01*
X50284Y-55283D01*
X50254Y-55258D01*
X50229Y-55228D01*
X50211Y-55194D01*
X50200Y-55157D01*
X50196Y-55118D01*
Y-52165D01*
X50200Y-52127D01*
X50211Y-52090D01*
X50229Y-52056D01*
X50254Y-52026D01*
X50284Y-52001D01*
X50318Y-51983D01*
X50355Y-51971D01*
X50394Y-51968D01*
X67126D01*
X67165Y-51971D01*
D02*
G37*
G36*
Y-40554D02*
X67202Y-40565D01*
X67236Y-40584D01*
X67266Y-40608D01*
X67290Y-40638D01*
X67309Y-40672D01*
X67320Y-40709D01*
X67324Y-40748D01*
Y-42323D01*
Y-50591D01*
X67320Y-50629D01*
X67309Y-50666D01*
X67290Y-50700D01*
X67266Y-50730D01*
X67236Y-50755D01*
X67202Y-50773D01*
X67165Y-50785D01*
X67126Y-50788D01*
X50394D01*
X50355Y-50785D01*
X50318Y-50773D01*
X50284Y-50755D01*
X50254Y-50730D01*
X50229Y-50700D01*
X50211Y-50666D01*
X50200Y-50629D01*
X50196Y-50591D01*
Y-47638D01*
X50200Y-47599D01*
X50211Y-47562D01*
X50229Y-47528D01*
X50254Y-47498D01*
X50284Y-47473D01*
X50318Y-47455D01*
X50355Y-47444D01*
X50394Y-47440D01*
X52361D01*
Y-45375D01*
X50394D01*
X50355Y-45371D01*
X50318Y-45360D01*
X50284Y-45342D01*
X50254Y-45317D01*
X50229Y-45287D01*
X50211Y-45253D01*
X50200Y-45216D01*
X50196Y-45177D01*
Y-42323D01*
X50200Y-42284D01*
X50211Y-42247D01*
X50229Y-42213D01*
X50254Y-42183D01*
X50284Y-42158D01*
X50318Y-42140D01*
X50355Y-42129D01*
X50394Y-42125D01*
X54133D01*
Y-40748D01*
X54137Y-40709D01*
X54148Y-40672D01*
X54166Y-40638D01*
X54191Y-40608D01*
X54221Y-40584D01*
X54255Y-40565D01*
X54292Y-40554D01*
X54331Y-40550D01*
X57579D01*
X57617Y-40554D01*
X57654Y-40565D01*
X57689Y-40584D01*
X57719Y-40608D01*
X57743Y-40638D01*
X57762Y-40672D01*
X57773Y-40709D01*
X57776Y-40748D01*
Y-42125D01*
X63779D01*
Y-40748D01*
X63782Y-40709D01*
X63794Y-40672D01*
X63812Y-40638D01*
X63836Y-40608D01*
X63867Y-40584D01*
X63901Y-40565D01*
X63938Y-40554D01*
X63976Y-40550D01*
X67126D01*
X67165Y-40554D01*
D02*
G37*
G36*
X67066Y-28330D02*
X67103Y-28341D01*
X67137Y-28359D01*
X67167Y-28384D01*
X67192Y-28414D01*
X67210Y-28448D01*
X67222Y-28485D01*
X67225Y-28524D01*
Y-36791D01*
Y-38366D01*
X67222Y-38405D01*
X67210Y-38442D01*
X67192Y-38476D01*
X67167Y-38506D01*
X67137Y-38531D01*
X67103Y-38549D01*
X67066Y-38560D01*
X67028Y-38564D01*
X63878D01*
X63839Y-38560D01*
X63802Y-38549D01*
X63768Y-38531D01*
X63738Y-38506D01*
X63714Y-38476D01*
X63695Y-38442D01*
X63684Y-38405D01*
X63680Y-38366D01*
Y-36989D01*
X57678D01*
Y-38366D01*
X57674Y-38405D01*
X57663Y-38442D01*
X57645Y-38476D01*
X57620Y-38506D01*
X57590Y-38531D01*
X57556Y-38549D01*
X57519Y-38560D01*
X57480Y-38564D01*
X54232D01*
X54194Y-38560D01*
X54157Y-38549D01*
X54122Y-38531D01*
X54092Y-38506D01*
X54068Y-38476D01*
X54050Y-38442D01*
X54038Y-38405D01*
X54035Y-38366D01*
Y-36989D01*
X50295D01*
X50257Y-36985D01*
X50220Y-36974D01*
X50185Y-36956D01*
X50155Y-36931D01*
X50131Y-36901D01*
X50112Y-36867D01*
X50101Y-36830D01*
X50098Y-36791D01*
Y-33937D01*
X50101Y-33898D01*
X50112Y-33861D01*
X50131Y-33827D01*
X50155Y-33797D01*
X50185Y-33773D01*
X50220Y-33754D01*
X50257Y-33743D01*
X50295Y-33739D01*
X52263D01*
Y-31674D01*
X50295D01*
X50257Y-31670D01*
X50220Y-31659D01*
X50185Y-31641D01*
X50155Y-31616D01*
X50131Y-31586D01*
X50112Y-31552D01*
X50101Y-31515D01*
X50098Y-31477D01*
Y-28524D01*
X50101Y-28485D01*
X50112Y-28448D01*
X50131Y-28414D01*
X50155Y-28384D01*
X50185Y-28359D01*
X50220Y-28341D01*
X50257Y-28330D01*
X50295Y-28326D01*
X67028D01*
X67066Y-28330D01*
D02*
G37*
G36*
Y-16912D02*
X67103Y-16924D01*
X67137Y-16942D01*
X67167Y-16966D01*
X67192Y-16996D01*
X67210Y-17031D01*
X67222Y-17068D01*
X67225Y-17106D01*
Y-18681D01*
Y-26949D01*
X67222Y-26987D01*
X67210Y-27025D01*
X67192Y-27059D01*
X67167Y-27089D01*
X67137Y-27113D01*
X67103Y-27132D01*
X67066Y-27143D01*
X67028Y-27147D01*
X50295D01*
X50257Y-27143D01*
X50220Y-27132D01*
X50185Y-27113D01*
X50155Y-27089D01*
X50131Y-27059D01*
X50112Y-27025D01*
X50101Y-26987D01*
X50098Y-26949D01*
Y-23996D01*
X50101Y-23958D01*
X50112Y-23921D01*
X50131Y-23886D01*
X50155Y-23856D01*
X50185Y-23832D01*
X50220Y-23813D01*
X50257Y-23802D01*
X50295Y-23798D01*
X52263D01*
Y-21733D01*
X50295D01*
X50257Y-21730D01*
X50220Y-21718D01*
X50185Y-21700D01*
X50155Y-21675D01*
X50131Y-21645D01*
X50112Y-21611D01*
X50101Y-21574D01*
X50098Y-21535D01*
Y-18681D01*
X50101Y-18643D01*
X50112Y-18606D01*
X50131Y-18571D01*
X50155Y-18541D01*
X50185Y-18517D01*
X50220Y-18498D01*
X50257Y-18487D01*
X50295Y-18483D01*
X54035D01*
Y-17106D01*
X54038Y-17068D01*
X54050Y-17031D01*
X54068Y-16996D01*
X54092Y-16966D01*
X54122Y-16942D01*
X54157Y-16924D01*
X54194Y-16912D01*
X54232Y-16909D01*
X57480D01*
X57519Y-16912D01*
X57556Y-16924D01*
X57590Y-16942D01*
X57620Y-16966D01*
X57645Y-16996D01*
X57663Y-17031D01*
X57674Y-17068D01*
X57678Y-17106D01*
Y-18483D01*
X63680D01*
Y-17106D01*
X63684Y-17068D01*
X63695Y-17031D01*
X63714Y-16996D01*
X63738Y-16966D01*
X63768Y-16942D01*
X63802Y-16924D01*
X63839Y-16912D01*
X63878Y-16909D01*
X67028D01*
X67066Y-16912D01*
D02*
G37*
D20*
X279033Y-67632D02*
X279933D01*
X278633Y-67832D02*
X279933D01*
X278433Y-67932D02*
X279933D01*
X278333Y-68032D02*
X279933D01*
X277533Y-67832D02*
X278133D01*
X277533Y-67932D02*
X278133D01*
X277533Y-68032D02*
X278133D01*
X277533Y-67732D02*
X278133D01*
X278733D02*
X279933D01*
X282033Y-67632D02*
X283033D01*
X281733Y-67732D02*
X283333D01*
X281533Y-67832D02*
X283533D01*
X281333Y-67932D02*
X283733D01*
X278233Y-68132D02*
X279933D01*
X283633Y-68832D02*
X284333D01*
X283933Y-69732D02*
X284533D01*
X283833Y-69532D02*
X284533D01*
X283733Y-68932D02*
X284433D01*
X283733Y-69032D02*
X284433D01*
X283733Y-69132D02*
X284433D01*
X283833Y-69232D02*
X284433D01*
X283833Y-69432D02*
X284533D01*
X283833Y-69632D02*
X284533D01*
X280333Y-69832D02*
X284533D01*
X280333Y-70332D02*
X284533D01*
X280333Y-69932D02*
X284533D01*
X280333Y-70132D02*
X284533D01*
X280333Y-70232D02*
X284533D01*
X280333Y-70032D02*
X284533D01*
X277533Y-70532D02*
X278133D01*
X277533Y-71532D02*
X278133D01*
X277533Y-70832D02*
X278133D01*
X277533Y-70632D02*
X278133D01*
X277533Y-70732D02*
X278133D01*
X277533Y-70932D02*
X278133D01*
X277533Y-71032D02*
X278133D01*
X277533Y-71132D02*
X278133D01*
X277533Y-71232D02*
X278133D01*
X277533Y-71332D02*
X278133D01*
X277533Y-71432D02*
X278133D01*
X277533Y-71632D02*
X278133D01*
X277533Y-71732D02*
X278133D01*
X277533Y-72732D02*
X278133D01*
X277533Y-71832D02*
X278133D01*
X277533Y-71932D02*
X278133D01*
X277533Y-72032D02*
X278133D01*
X277533Y-72232D02*
X278133D01*
X277533Y-72132D02*
X278133D01*
X277533Y-72332D02*
X278133D01*
X277533Y-72432D02*
X278133D01*
X277533Y-72532D02*
X278133D01*
X277533Y-72632D02*
X278133D01*
X279733Y-76732D02*
X280433D01*
X279633Y-76832D02*
X280333D01*
X282633Y-76732D02*
X283333D01*
X277633D02*
X278333D01*
X277633Y-76832D02*
X278333D01*
X277533Y-76632D02*
X278333D01*
X282733Y-77232D02*
X283433D01*
X279733Y-77532D02*
X280533D01*
X282733Y-77132D02*
X283433D01*
X279633D02*
X280333D01*
X282733Y-77032D02*
X283433D01*
X279633D02*
X280333D01*
X279633Y-77232D02*
X280333D01*
X279733Y-77332D02*
X280433D01*
X279733Y-77432D02*
X280433D01*
X277733Y-77332D02*
X278433D01*
X277733Y-77132D02*
X278433D01*
X277733Y-77032D02*
X278433D01*
X277733Y-77232D02*
X278433D01*
X277733Y-77532D02*
X278433D01*
X277633Y-76932D02*
X278333D01*
X282733D02*
X283433D01*
X279633D02*
X280333D01*
X277733Y-77432D02*
X278433D01*
X267533Y-68432D02*
X268633D01*
X267533Y-68532D02*
X268633D01*
X267433Y-68832D02*
X268033D01*
X268133Y-69032D02*
X268833D01*
X268233Y-69132D02*
X268833D01*
X267333D02*
X267933D01*
X267433Y-68932D02*
X268033D01*
X267433Y-69032D02*
X268033D01*
X267533Y-68732D02*
X268733D01*
X267533Y-68632D02*
X268733D01*
X268133Y-68832D02*
X268733D01*
X268133Y-68932D02*
X268733D01*
X272833Y-68032D02*
X275633D01*
X272733Y-68132D02*
X275733D01*
X275233Y-68532D02*
X275933D01*
X275433Y-68932D02*
X276133D01*
X275333Y-68832D02*
X276033D01*
X275433Y-69032D02*
X276133D01*
X275433Y-69132D02*
X276133D01*
X275033Y-68432D02*
X275933D01*
X274733Y-68232D02*
X275833D01*
X274933Y-68332D02*
X275833D01*
X267833Y-67732D02*
X268433D01*
X267733Y-68032D02*
X268533D01*
X267733Y-67832D02*
X268433D01*
X267733Y-67932D02*
X268433D01*
X267633Y-68132D02*
X268533D01*
X267633Y-68232D02*
X268533D01*
X267633Y-68332D02*
X268633D01*
X270733Y-67932D02*
X271433D01*
X270633Y-68032D02*
X271333D01*
X270533Y-68432D02*
X271233D01*
X270533Y-68532D02*
X271233D01*
X270733Y-67732D02*
X271433D01*
X270733Y-67832D02*
X271433D01*
X270533Y-68332D02*
X271233D01*
X272633Y-68232D02*
X273733D01*
X270633Y-68132D02*
X271333D01*
X270633Y-68232D02*
X271333D01*
X272533Y-68332D02*
X273433D01*
X272433Y-68432D02*
X273333D01*
X272333Y-68532D02*
X273233D01*
X272333Y-68632D02*
X273133D01*
X272333Y-68732D02*
X273033D01*
X270533Y-68632D02*
X271233D01*
X270433Y-68732D02*
X271133D01*
X272733Y-70232D02*
X276133D01*
X273833Y-69832D02*
X276133D01*
X275433Y-69532D02*
X276133D01*
X275433Y-69632D02*
X276133D01*
X275433Y-69732D02*
X276133D01*
X273333Y-69932D02*
X276133D01*
X273033Y-70032D02*
X276133D01*
X272833Y-70132D02*
X276133D01*
X275433Y-69432D02*
X276133D01*
X275433Y-69332D02*
X276133D01*
X273733Y-67632D02*
X274733D01*
X273333Y-67732D02*
X275133D01*
X273133Y-67832D02*
X275333D01*
X272933Y-67932D02*
X275533D01*
X270033Y-70232D02*
X270733D01*
X270233Y-69732D02*
X270833D01*
X270133Y-69932D02*
X270833D01*
X270133Y-70032D02*
X270733D01*
X275233Y-68632D02*
X276033D01*
X275333Y-68732D02*
X276033D01*
X275433Y-69232D02*
X276133D01*
X283833Y-69332D02*
X284533D01*
X280633Y-68732D02*
X281433D01*
X280733Y-68632D02*
X281533D01*
X280533Y-68932D02*
X281233D01*
X280433Y-69132D02*
X281133D01*
X277533Y-69032D02*
X278233D01*
X277533Y-68832D02*
X278333D01*
X277533Y-68932D02*
X278333D01*
X277533Y-68732D02*
X278433D01*
X277533Y-68632D02*
X278533D01*
X280533Y-69032D02*
X281233D01*
X283433Y-68532D02*
X284233D01*
X281133Y-68132D02*
X283933D01*
X282933Y-68232D02*
X284033D01*
X283133Y-68332D02*
X284133D01*
X280833Y-68432D02*
X281733D01*
X280933Y-68332D02*
X281833D01*
X281033Y-68232D02*
X282133D01*
X277533Y-68432D02*
X278733D01*
X277533Y-68332D02*
X278933D01*
X278233Y-68232D02*
X279333D01*
X283333Y-68432D02*
X284133D01*
X280733Y-68532D02*
X281633D01*
X277533D02*
X278633D01*
X267133Y-75832D02*
X267733D01*
X267133Y-75932D02*
X267733D01*
X267133Y-76032D02*
X267733D01*
X267133Y-76132D02*
X267733D01*
X267133Y-76232D02*
X267733D01*
X267133Y-76332D02*
X267733D01*
X267133Y-76432D02*
X267733D01*
X267133Y-75732D02*
X267733D01*
X267133Y-76532D02*
X267733D01*
X267133Y-76632D02*
X267733D01*
X267133Y-76732D02*
X267733D01*
X267133Y-76832D02*
X267733D01*
X267133Y-76932D02*
X267733D01*
X267133Y-77032D02*
X267733D01*
X264333Y-75432D02*
X264933D01*
X264333Y-76332D02*
X264933D01*
X264333Y-76532D02*
X264933D01*
X264333Y-76432D02*
X264933D01*
X264333Y-75632D02*
X264933D01*
X264333Y-75532D02*
X264933D01*
X258733Y-75932D02*
X259433D01*
X258733Y-76032D02*
X259433D01*
X258733Y-77132D02*
X259433D01*
X258733Y-77432D02*
X259433D01*
X258733Y-75732D02*
X259433D01*
X258733Y-75832D02*
X259433D01*
X258733Y-76132D02*
X259433D01*
X258733Y-76232D02*
X259433D01*
X256733Y-75432D02*
X257333D01*
X256733Y-75532D02*
X257333D01*
X256733Y-76232D02*
X257333D01*
X256733Y-75632D02*
X257333D01*
X256733Y-75732D02*
X257333D01*
X256733Y-75832D02*
X257333D01*
X256733Y-75932D02*
X257333D01*
X256733Y-76032D02*
X257333D01*
X256733Y-76132D02*
X257333D01*
X262033Y-77632D02*
X262633D01*
X262033Y-77032D02*
X262633D01*
X262033Y-77432D02*
X262633D01*
X262033Y-77332D02*
X262633D01*
X262033Y-77132D02*
X262633D01*
X262033Y-77232D02*
X262633D01*
X262033Y-76932D02*
X262633D01*
X262033Y-76832D02*
X262633D01*
X262033Y-76732D02*
X262633D01*
X262033Y-76632D02*
X262633D01*
X262033Y-77732D02*
X262633D01*
X262033Y-77532D02*
X262633D01*
X258733Y-76332D02*
X259433D01*
X258733Y-77032D02*
X259433D01*
X258733Y-76632D02*
X259433D01*
X258733Y-76432D02*
X259433D01*
X258733Y-76532D02*
X259433D01*
X258733Y-76732D02*
X259433D01*
X258733Y-76832D02*
X259433D01*
X258733Y-76932D02*
X259433D01*
X262033Y-76532D02*
X262633D01*
X262033Y-76432D02*
X262633D01*
X262033Y-76332D02*
X262633D01*
X256733Y-76832D02*
X257333D01*
X256733Y-77132D02*
X257333D01*
X258733Y-77232D02*
X259433D01*
X258733Y-77532D02*
X259433D01*
X258733Y-77632D02*
X259433D01*
X258733Y-77332D02*
X259433D01*
X256733D02*
X257333D01*
X256733Y-77232D02*
X257333D01*
X256733Y-77432D02*
X257333D01*
X256733Y-77532D02*
X257333D01*
X256733Y-77632D02*
X257333D01*
X256733Y-76532D02*
X257333D01*
X254033Y-76432D02*
X255033D01*
X254233Y-76532D02*
X255133D01*
X254333Y-76632D02*
X255133D01*
X254433Y-76732D02*
X255233D01*
X254433Y-76832D02*
X255233D01*
X254533Y-76932D02*
X255333D01*
X254633Y-77032D02*
X255333D01*
X256733Y-76332D02*
X257333D01*
X256733Y-76432D02*
X257333D01*
X256733Y-76632D02*
X257333D01*
X256733Y-76932D02*
X257333D01*
X256733Y-77032D02*
X257333D01*
X267133Y-78332D02*
X267733D01*
X267133Y-78032D02*
X267733D01*
X267133Y-77332D02*
X267733D01*
X267133Y-77832D02*
X267733D01*
X267133Y-77432D02*
X267733D01*
X267133Y-77532D02*
X267733D01*
X267133Y-77632D02*
X267733D01*
X267133Y-77732D02*
X267733D01*
X267133Y-77932D02*
X267733D01*
X267133Y-78132D02*
X267733D01*
X267133Y-78232D02*
X267733D01*
X267133Y-77232D02*
X267733D01*
X267133Y-77132D02*
X267733D01*
X262033Y-76232D02*
X262633D01*
X262033Y-75732D02*
X262633D01*
X262033Y-75932D02*
X262633D01*
X262033Y-75832D02*
X262633D01*
X262033Y-76032D02*
X262633D01*
X262033Y-76132D02*
X262633D01*
X263333Y-75732D02*
X266033D01*
X263333Y-75832D02*
X266033D01*
X263333Y-75932D02*
X266033D01*
X263333Y-76032D02*
X266033D01*
X263333Y-76132D02*
X266033D01*
X263333Y-76232D02*
X266033D01*
X264333Y-76632D02*
X264933D01*
X264333Y-76732D02*
X264933D01*
X264333Y-76832D02*
X264933D01*
X264333Y-78132D02*
X264933D01*
X264333Y-78232D02*
X264933D01*
X264333Y-77632D02*
X264933D01*
X264333Y-77432D02*
X264933D01*
X264333Y-77332D02*
X264933D01*
X264333Y-77132D02*
X264933D01*
X264333Y-76932D02*
X264933D01*
X264333Y-77232D02*
X264933D01*
X264333Y-77032D02*
X264933D01*
X264333Y-77532D02*
X264933D01*
X264333Y-77732D02*
X264933D01*
X264333Y-77832D02*
X264933D01*
X264333Y-77932D02*
X264933D01*
X264333Y-78032D02*
X264933D01*
X264333Y-78332D02*
X264933D01*
X263033Y-68832D02*
X263833D01*
X263033Y-68932D02*
X263833D01*
X263133Y-69032D02*
X263833D01*
X263233Y-69232D02*
X263833D01*
X263133Y-69132D02*
X263833D01*
X263233Y-69332D02*
X263833D01*
X265033Y-68832D02*
X265733D01*
X265133Y-68932D02*
X265833D01*
X265133Y-69032D02*
X265833D01*
X265133Y-69132D02*
X265833D01*
X265233Y-69232D02*
X265833D01*
X265233Y-69332D02*
X265933D01*
X266733Y-71132D02*
X267333D01*
X265733Y-71032D02*
X266333D01*
X266833Y-70932D02*
X267433D01*
X266733Y-71032D02*
X267333D01*
X266733Y-71232D02*
X267333D01*
X265733D02*
X266433D01*
X265733Y-71132D02*
X266433D01*
X254733D02*
X255433D01*
X254533Y-71732D02*
X255433D01*
X254733Y-71432D02*
X255433D01*
X254733Y-71232D02*
X255433D01*
X254733Y-71332D02*
X255433D01*
X254633Y-71532D02*
X255433D01*
X254533Y-71632D02*
X255433D01*
X254433Y-71832D02*
X255433D01*
X254233Y-71932D02*
X255433D01*
X254133Y-72032D02*
X255433D01*
X253933Y-72132D02*
X255433D01*
X256833Y-72332D02*
X257433D01*
X256833Y-72232D02*
X257433D01*
X253733D02*
X255433D01*
X254833Y-72632D02*
X255533D01*
X254733Y-72332D02*
X255433D01*
X254833Y-72432D02*
X255533D01*
X254833Y-72532D02*
X255533D01*
X254833Y-72732D02*
X255533D01*
X251533Y-68832D02*
X252233D01*
X251533Y-68932D02*
X252233D01*
X251533Y-69032D02*
X252233D01*
X251533Y-69132D02*
X252233D01*
X252433Y-72832D02*
X253733D01*
X251833Y-72432D02*
X254533D01*
X251733Y-72332D02*
X254633D01*
X251933Y-72532D02*
X254433D01*
X252033Y-72632D02*
X254233D01*
X252233Y-72732D02*
X254033D01*
X251633Y-72232D02*
X252733D01*
X251533Y-72132D02*
X252533D01*
X251533Y-71932D02*
X252333D01*
X251533Y-72032D02*
X252433D01*
X249733Y-72732D02*
X250333D01*
X249733Y-72232D02*
X250333D01*
X249733Y-72332D02*
X250333D01*
X249733Y-72432D02*
X250333D01*
X249733Y-72532D02*
X250333D01*
X249733Y-72632D02*
X250333D01*
X249733Y-72132D02*
X250333D01*
X249733Y-72032D02*
X250333D01*
X249733Y-70932D02*
X250333D01*
X249733Y-70532D02*
X250333D01*
X249733Y-70832D02*
X250333D01*
X249733Y-70632D02*
X250333D01*
X249733Y-70732D02*
X250333D01*
X249733Y-71032D02*
X250333D01*
X249733Y-71132D02*
X250333D01*
X249733Y-71232D02*
X250333D01*
X249733Y-71332D02*
X250333D01*
X249733Y-71432D02*
X250333D01*
X249733Y-71632D02*
X250333D01*
X249733Y-71532D02*
X250333D01*
X249733Y-71732D02*
X250333D01*
X249733Y-71832D02*
X250333D01*
X249733Y-71932D02*
X250333D01*
X249733Y-70432D02*
X250333D01*
X249733Y-69232D02*
X250333D01*
X249733Y-69832D02*
X250333D01*
X249733Y-69332D02*
X250333D01*
X249733Y-69432D02*
X250333D01*
X249733Y-69532D02*
X250333D01*
X249733Y-69632D02*
X250333D01*
X249733Y-69732D02*
X250333D01*
X249733Y-69932D02*
X250333D01*
X249733Y-70032D02*
X250333D01*
X249733Y-70232D02*
X250333D01*
X249733Y-70132D02*
X250333D01*
X249733Y-70332D02*
X250333D01*
X251433Y-71632D02*
X252133D01*
X251433Y-71432D02*
X252133D01*
X251933Y-70332D02*
X253533D01*
X251833Y-70432D02*
X253033D01*
X251733Y-70532D02*
X252733D01*
X251633Y-70632D02*
X252533D01*
X251533Y-70932D02*
X252233D01*
X251533Y-70732D02*
X252433D01*
X251533Y-70832D02*
X252333D01*
X251433Y-71032D02*
X252133D01*
X251433Y-71132D02*
X252133D01*
X251433Y-71232D02*
X252133D01*
X251433Y-71532D02*
X252133D01*
X251433Y-71332D02*
X252133D01*
X251433Y-71732D02*
X252133D01*
X251433Y-71832D02*
X252233D01*
X272233Y-68832D02*
X272933D01*
X272233Y-69132D02*
X272933D01*
X272233Y-68932D02*
X272933D01*
X272233Y-69032D02*
X272933D01*
X270333Y-69132D02*
X271033D01*
X270433Y-68832D02*
X271133D01*
X270433Y-68932D02*
X271133D01*
X270433Y-69032D02*
X271033D01*
X270333Y-69232D02*
X271033D01*
X270333Y-69332D02*
X270933D01*
X270233Y-69532D02*
X270933D01*
X270333Y-69432D02*
X270933D01*
X270233Y-69632D02*
X270933D01*
X256833D02*
X257433D01*
X253133Y-69832D02*
X255433D01*
X256833Y-69732D02*
X257433D01*
X256833Y-69832D02*
X257433D01*
X252633Y-69932D02*
X255433D01*
X252333Y-70032D02*
X255433D01*
X254733Y-69732D02*
X255433D01*
X254733Y-69632D02*
X255433D01*
X252133Y-70132D02*
X255433D01*
X252033Y-70232D02*
X255433D01*
X267233Y-69532D02*
X267833D01*
X267233Y-69632D02*
X267833D01*
X267133Y-69732D02*
X267833D01*
X267133Y-69832D02*
X267733D01*
X268233Y-69232D02*
X268833D01*
X268233Y-69332D02*
X268933D01*
X267333Y-69232D02*
X267933D01*
X267333Y-69332D02*
X267933D01*
X267233Y-69432D02*
X267933D01*
X268333D02*
X268933D01*
X268333Y-69532D02*
X268933D01*
X256833Y-68832D02*
X257633D01*
X254633D02*
X255333D01*
X254533Y-68632D02*
X255333D01*
X254633Y-68732D02*
X255333D01*
X254733Y-68932D02*
X255433D01*
X254733Y-69032D02*
X255433D01*
X256833D02*
X257533D01*
X256833Y-68932D02*
X257633D01*
X256833Y-68732D02*
X257733D01*
X256833Y-68632D02*
X257833D01*
X251633D02*
X252433D01*
X251633Y-68732D02*
X252333D01*
X251633Y-68532D02*
X252533D01*
X254733Y-69332D02*
X255433D01*
X254733Y-69432D02*
X255433D01*
X254733Y-69532D02*
X255433D01*
X256833Y-69332D02*
X257433D01*
X256833Y-69432D02*
X257433D01*
X256833Y-69532D02*
X257433D01*
X259733Y-69332D02*
X260433D01*
X259733Y-69432D02*
X260433D01*
X259733Y-69532D02*
X260433D01*
X259733Y-69232D02*
X260533D01*
X259833Y-69132D02*
X260533D01*
X259933Y-68832D02*
X260633D01*
X259833Y-69032D02*
X260533D01*
X259833Y-68932D02*
X260633D01*
X259933Y-68732D02*
X260733D01*
X260033Y-68632D02*
X260833D01*
X254733Y-70932D02*
X255433D01*
X254733Y-70332D02*
X255433D01*
X254733Y-70432D02*
X255433D01*
X254733Y-70532D02*
X255433D01*
X254733Y-70632D02*
X255433D01*
X254733Y-70732D02*
X255433D01*
X254733Y-70832D02*
X255433D01*
X254733Y-71032D02*
X255433D01*
X246433Y-70232D02*
X247133D01*
X246433Y-70632D02*
X247133D01*
X246433Y-70332D02*
X247133D01*
X246433Y-70432D02*
X247133D01*
X246433Y-70532D02*
X247133D01*
X246433Y-70732D02*
X247133D01*
X246433Y-70832D02*
X247133D01*
X246433Y-70932D02*
X247133D01*
X246433Y-71032D02*
X247133D01*
X246433Y-71132D02*
X247133D01*
X246433Y-71932D02*
X247133D01*
X246433Y-71332D02*
X247133D01*
X246433Y-71232D02*
X247133D01*
X246433Y-71432D02*
X247133D01*
X246433Y-71532D02*
X247133D01*
X246433Y-71632D02*
X247133D01*
X246433Y-71732D02*
X247133D01*
X246433Y-71832D02*
X247133D01*
X246433Y-72032D02*
X247133D01*
X246433Y-72132D02*
X247133D01*
X246433Y-72232D02*
X247133D01*
X246433Y-72332D02*
X247133D01*
X246433Y-72632D02*
X247133D01*
X246433Y-72432D02*
X247133D01*
X246433Y-72532D02*
X247133D01*
X246433Y-72732D02*
X247133D01*
X246433Y-70132D02*
X247133D01*
X246433Y-69732D02*
X247133D01*
X246433Y-69832D02*
X247133D01*
X246433Y-69932D02*
X247133D01*
X246433Y-70032D02*
X247133D01*
X246433Y-69032D02*
X247233D01*
X246433Y-69332D02*
X247133D01*
X246433Y-69132D02*
X247233D01*
X246433Y-69232D02*
X247133D01*
X246433Y-69432D02*
X247133D01*
X246433Y-69532D02*
X247133D01*
X246433Y-69632D02*
X247133D01*
X249633Y-69132D02*
X250333D01*
X254733Y-69232D02*
X255433D01*
X254733Y-69132D02*
X255433D01*
X256833Y-69232D02*
X257533D01*
X256833Y-69132D02*
X257533D01*
X249633Y-69032D02*
X250333D01*
X265533Y-70332D02*
X266133D01*
X265633Y-70632D02*
X266233D01*
X265533Y-70432D02*
X266233D01*
X265533Y-70532D02*
X266233D01*
X265633Y-70732D02*
X266233D01*
X265633Y-70832D02*
X266333D01*
X265733Y-70932D02*
X266333D01*
X266933Y-70532D02*
X267533D01*
X266933Y-70332D02*
X267633D01*
X266933Y-70432D02*
X267533D01*
X266933Y-70632D02*
X267533D01*
X266833Y-70732D02*
X267433D01*
X266833Y-70832D02*
X267433D01*
X261033Y-72832D02*
X262333D01*
X266133Y-72632D02*
X266833D01*
X266233Y-72732D02*
X266833D01*
X260433Y-72432D02*
X263033D01*
X260833Y-72732D02*
X262633D01*
X260633Y-72632D02*
X262833D01*
X263233Y-72732D02*
X263833D01*
X263233Y-72432D02*
X263833D01*
X263233Y-72632D02*
X263833D01*
X263233Y-72532D02*
X263833D01*
X259833Y-71532D02*
X260633D01*
X260033Y-71832D02*
X260733D01*
X260033Y-71932D02*
X260833D01*
X260133Y-72032D02*
X260933D01*
X260133Y-72132D02*
X261133D01*
X260233Y-72232D02*
X261333D01*
X259933Y-71632D02*
X260633D01*
X259933Y-71732D02*
X260733D01*
X259733Y-69632D02*
X260433D01*
X259733Y-69832D02*
X260333D01*
X259733Y-69732D02*
X260433D01*
X256833Y-70332D02*
X257433D01*
X256833Y-69932D02*
X257433D01*
X256833Y-70132D02*
X257433D01*
X256833Y-70032D02*
X257433D01*
X256833Y-70232D02*
X257433D01*
X256833Y-70632D02*
X257433D01*
X256833Y-70432D02*
X257433D01*
X256833Y-70532D02*
X257433D01*
X259733Y-71032D02*
X260433D01*
X259733Y-70632D02*
X260333D01*
X259733Y-70032D02*
X260333D01*
X259733Y-69932D02*
X260333D01*
X259733Y-70132D02*
X260333D01*
X259733Y-70232D02*
X260333D01*
X259733Y-70332D02*
X260333D01*
X259733Y-70432D02*
X260333D01*
X259733Y-70532D02*
X260333D01*
X259733Y-70732D02*
X260333D01*
X259733Y-70832D02*
X260433D01*
X259733Y-70932D02*
X260433D01*
X259733Y-71132D02*
X260433D01*
X259733Y-71232D02*
X260433D01*
X259833Y-71332D02*
X260533D01*
X259833Y-71432D02*
X260533D01*
X263233Y-69432D02*
X263833D01*
X263233Y-69732D02*
X263833D01*
X263233Y-69532D02*
X263833D01*
X263233Y-69632D02*
X263833D01*
X263233Y-69832D02*
X263833D01*
X265233Y-69532D02*
X265933D01*
X265233Y-69432D02*
X265933D01*
X265333Y-69632D02*
X265933D01*
X265333Y-69732D02*
X266033D01*
X265333Y-69832D02*
X266033D01*
X265433Y-69932D02*
X266033D01*
X265433Y-70032D02*
X266133D01*
X265433Y-70232D02*
X266133D01*
X265433Y-70132D02*
X266133D01*
X263033Y-71632D02*
X263833D01*
X263133Y-71432D02*
X263833D01*
X263133Y-71532D02*
X263833D01*
X263233Y-70132D02*
X263833D01*
X263233Y-70432D02*
X263833D01*
X263233Y-71332D02*
X263833D01*
X263233Y-70532D02*
X263833D01*
X263233Y-71032D02*
X263833D01*
X263233Y-70632D02*
X263833D01*
X263233Y-70932D02*
X263833D01*
X263233Y-71232D02*
X263833D01*
X263233Y-71132D02*
X263833D01*
X263233Y-70732D02*
X263833D01*
X263233Y-70832D02*
X263833D01*
X265933Y-71632D02*
X267233D01*
X262933Y-71832D02*
X263833D01*
X263033Y-71732D02*
X263833D01*
X265933D02*
X267133D01*
X265933Y-71832D02*
X267133D01*
X265833Y-71532D02*
X266533D01*
X265833Y-71432D02*
X266433D01*
X265833Y-71332D02*
X266433D01*
X266633D02*
X267233D01*
X266633Y-71432D02*
X267233D01*
X266633Y-71532D02*
X267233D01*
X262833Y-71932D02*
X263833D01*
X262333Y-72232D02*
X263833D01*
X262533Y-72132D02*
X263833D01*
X262733Y-72032D02*
X263833D01*
X265933Y-71932D02*
X267133D01*
X266033Y-72032D02*
X267033D01*
X266033Y-72132D02*
X267033D01*
X266033Y-72232D02*
X267033D01*
X266133Y-72332D02*
X266933D01*
X266133Y-72432D02*
X266933D01*
X266133Y-72532D02*
X266933D01*
X260333Y-72332D02*
X263133D01*
X260533Y-72532D02*
X262933D01*
X263233Y-72332D02*
X263833D01*
X264333Y-74932D02*
X264933D01*
X267333Y-74732D02*
X267633D01*
X264333Y-74532D02*
X264933D01*
X264333Y-74832D02*
X264933D01*
X264333Y-75332D02*
X264933D01*
X264333Y-75232D02*
X264933D01*
X264333Y-75032D02*
X264933D01*
X264333Y-74632D02*
X264933D01*
X264333Y-75132D02*
X264933D01*
X264333Y-74732D02*
X264933D01*
X263233Y-70332D02*
X263833D01*
X263233Y-70032D02*
X263833D01*
X263233Y-70232D02*
X263833D01*
X263233Y-69932D02*
X263833D01*
X268733Y-70732D02*
X269333D01*
X267033Y-70232D02*
X267633D01*
X267033Y-70032D02*
X267733D01*
X267133Y-69932D02*
X267733D01*
X267033Y-70132D02*
X267633D01*
X268533Y-70032D02*
X269133D01*
X268433Y-69932D02*
X269133D01*
X268533Y-70132D02*
X269133D01*
X268533Y-70232D02*
X269233D01*
X268633Y-70532D02*
X269233D01*
X268633Y-70632D02*
X269333D01*
X268733Y-70832D02*
X269333D01*
X279633Y-68232D02*
X279933D01*
X277533D02*
X278133D01*
X277533Y-68132D02*
X278133D01*
X281233Y-68032D02*
X283833D01*
X268333Y-69632D02*
X269033D01*
X268433Y-69732D02*
X269033D01*
X268433Y-69832D02*
X269033D01*
X272233Y-70832D02*
X273033D01*
X275433Y-71332D02*
X276133D01*
X275233Y-71632D02*
X276133D01*
X275433Y-71432D02*
X276133D01*
X275333Y-71532D02*
X276133D01*
X275233Y-71732D02*
X276133D01*
X275133Y-71832D02*
X276133D01*
X274933Y-71932D02*
X276133D01*
X274833Y-72032D02*
X276133D01*
X274633Y-72132D02*
X276133D01*
X274433Y-72232D02*
X276133D01*
X275433Y-72332D02*
X276133D01*
X275533Y-72432D02*
X276233D01*
X275533Y-72532D02*
X276233D01*
X269033Y-71832D02*
X270233D01*
X269133Y-72132D02*
X270133D01*
X269133Y-71932D02*
X270233D01*
X269133Y-72032D02*
X270233D01*
X269333Y-72532D02*
X270033D01*
X269233Y-72332D02*
X270133D01*
X269233Y-72232D02*
X270133D01*
X269233Y-72432D02*
X270033D01*
X269333Y-72632D02*
X270033D01*
X269333Y-72732D02*
X270033D01*
X267233Y-73932D02*
X267633D01*
X267033Y-74532D02*
X267833D01*
X267033Y-74132D02*
X267833D01*
X267033Y-74432D02*
X267833D01*
X267133Y-74032D02*
X267833D01*
X267033Y-74232D02*
X267933D01*
X267033Y-74332D02*
X267933D01*
X267133Y-74632D02*
X267833D01*
X270133Y-69832D02*
X270833D01*
X270133Y-70132D02*
X270733D01*
X270033Y-70532D02*
X270633D01*
X269933Y-70632D02*
X270633D01*
X269933Y-70732D02*
X270533D01*
X269933Y-70832D02*
X270533D01*
X275433Y-70532D02*
X276133D01*
X272433D02*
X273433D01*
X272333Y-70632D02*
X273233D01*
X272233Y-70732D02*
X273133D01*
X275433Y-70832D02*
X276133D01*
X275433Y-70932D02*
X276133D01*
X275433Y-71032D02*
X276133D01*
X275433Y-71132D02*
X276133D01*
X275433Y-70632D02*
X276133D01*
X275433Y-70732D02*
X276133D01*
X275433Y-71232D02*
X276133D01*
X272133Y-71132D02*
X272833D01*
X272133Y-71232D02*
X272833D01*
X268833Y-71132D02*
X269433D01*
X269833D02*
X270433D01*
X268933Y-71332D02*
X269533D01*
X268833Y-71232D02*
X269533D01*
X269833D02*
X270433D01*
X268933Y-71432D02*
X269533D01*
X269733Y-71332D02*
X270433D01*
X269733Y-71432D02*
X270333D01*
X268933Y-71532D02*
X269633D01*
X269733D02*
X270333D01*
X269033Y-71632D02*
X269633D01*
X269733D02*
X270333D01*
X269033Y-71732D02*
X270233D01*
X268733Y-70932D02*
X269433D01*
X269833Y-71032D02*
X270533D01*
X269933Y-70932D02*
X270533D01*
X268833Y-71032D02*
X269433D01*
X272233Y-70932D02*
X272933D01*
X272133Y-71032D02*
X272833D01*
X272433Y-72332D02*
X275333D01*
X272133Y-71832D02*
X272933D01*
X272133Y-71732D02*
X272833D01*
X272133Y-71632D02*
X272833D01*
X272133Y-71332D02*
X272833D01*
X272133Y-71432D02*
X272833D01*
X272133Y-71532D02*
X272833D01*
X272233Y-71932D02*
X273033D01*
X272333Y-72232D02*
X273433D01*
X272233Y-72032D02*
X273133D01*
X272233Y-72132D02*
X273233D01*
X272533Y-72432D02*
X275233D01*
X272633Y-72532D02*
X275133D01*
X272733Y-72632D02*
X274933D01*
X273133Y-72832D02*
X274433D01*
X272933Y-72732D02*
X274733D01*
X275533Y-72632D02*
X276233D01*
X275533Y-72732D02*
X276233D01*
X274533Y-76632D02*
X275633D01*
X274533Y-76732D02*
X275533D01*
X274533Y-76232D02*
X275133D01*
X276133Y-75732D02*
X277433D01*
X274533Y-75832D02*
X275133D01*
X275833D02*
X277733D01*
X275733Y-75932D02*
X277833D01*
X275533Y-76032D02*
X277933D01*
X274533Y-75732D02*
X275133D01*
X274533Y-75932D02*
X275133D01*
X274533Y-76032D02*
X275133D01*
X274533Y-76132D02*
X275133D01*
X275433D02*
X278033D01*
X275333Y-76232D02*
X276433D01*
X276833D02*
X278133D01*
X277233Y-76332D02*
X278233D01*
X277333Y-76432D02*
X278233D01*
X277433Y-76532D02*
X278233D01*
X270433Y-75732D02*
X271933D01*
X270233Y-75832D02*
X272133D01*
X270033Y-75932D02*
X272333D01*
X269833Y-76032D02*
X272533D01*
X269733Y-76132D02*
X272633D01*
X272433Y-76932D02*
X273233D01*
X272333Y-76832D02*
X273133D01*
X269333Y-76632D02*
X270133D01*
X269433Y-76432D02*
X270433D01*
X269333Y-76532D02*
X270233D01*
X272233Y-76632D02*
X273033D01*
X272333Y-76732D02*
X273133D01*
X272133Y-76532D02*
X273033D01*
X271933Y-76432D02*
X272933D01*
X269533Y-76332D02*
X270633D01*
X269633Y-76232D02*
X270933D01*
X271733Y-76332D02*
X272833D01*
X271433Y-76232D02*
X272733D01*
X274533Y-76932D02*
X275433D01*
X274533Y-76432D02*
X275933D01*
X274533Y-76532D02*
X275733D01*
X274533Y-76832D02*
X275533D01*
X274533Y-76332D02*
X275133D01*
X275233D02*
X276133D01*
X265133Y-80932D02*
X265833D01*
X265933Y-80332D02*
X266033D01*
X264533Y-80532D02*
X266033D01*
X264433Y-80332D02*
X265333D01*
X264433Y-80432D02*
X266033D01*
X264533Y-80632D02*
X266033D01*
X264633Y-80732D02*
X266133D01*
X264833Y-80832D02*
X266133D01*
X264333Y-78432D02*
X264933D01*
X264333Y-78732D02*
X264933D01*
X264333Y-78532D02*
X264933D01*
X264333Y-78632D02*
X264933D01*
X264333Y-78832D02*
X264933D01*
X264333Y-78932D02*
X264933D01*
X264333Y-79032D02*
X264933D01*
X249133Y-78932D02*
X250033D01*
X251033Y-79032D02*
X251733D01*
X251033Y-78932D02*
X251733D01*
X251133Y-79432D02*
X251833D01*
X251033Y-79132D02*
X251733D01*
X251033Y-79232D02*
X251733D01*
X251133Y-79332D02*
X251833D01*
X251133Y-79532D02*
X251933D01*
X249433Y-79232D02*
X250133D01*
X249233Y-79032D02*
X250033D01*
X249333Y-79132D02*
X250133D01*
X249433Y-79332D02*
X250133D01*
X249433Y-79432D02*
X250133D01*
X249433Y-79532D02*
X250133D01*
X254133Y-80132D02*
X255033D01*
X254533Y-79732D02*
X255333D01*
X254533Y-79632D02*
X255333D01*
X254333Y-79932D02*
X255233D01*
X254233Y-80032D02*
X255133D01*
X254433Y-79832D02*
X255233D01*
X264333Y-80232D02*
X265133D01*
X264333Y-79932D02*
X265033D01*
X264333Y-80132D02*
X265033D01*
X264333Y-79832D02*
X264933D01*
X264333Y-79632D02*
X264933D01*
X264333Y-79432D02*
X264933D01*
X264333Y-79332D02*
X264933D01*
X264333Y-79232D02*
X264933D01*
X264333Y-79132D02*
X264933D01*
X264333Y-79732D02*
X264933D01*
X264333Y-79532D02*
X264933D01*
X264333Y-80032D02*
X265033D01*
X256733Y-73632D02*
X257333D01*
X256733Y-73732D02*
X257333D01*
X256733Y-73832D02*
X257333D01*
X256733Y-75132D02*
X257333D01*
X256833Y-70732D02*
X257433D01*
X256833Y-71332D02*
X257433D01*
X256833Y-71432D02*
X257433D01*
X256833Y-71532D02*
X257433D01*
X256833Y-71832D02*
X257433D01*
X256833Y-71632D02*
X257433D01*
X256833Y-71732D02*
X257433D01*
X256833Y-71932D02*
X257433D01*
X256833Y-72032D02*
X257433D01*
X256833Y-72132D02*
X257433D01*
X256833Y-71232D02*
X257433D01*
X256833Y-71032D02*
X257433D01*
X256833Y-71132D02*
X257433D01*
X256833Y-70832D02*
X257433D01*
X256833Y-72532D02*
X257433D01*
X256833Y-72432D02*
X257433D01*
X256833Y-70932D02*
X257433D01*
X256833Y-72632D02*
X257433D01*
X256833Y-72732D02*
X257433D01*
X256733Y-75232D02*
X257333D01*
X256733Y-74632D02*
X257333D01*
X256733Y-74332D02*
X257333D01*
X256733Y-74032D02*
X257333D01*
X256733Y-74132D02*
X257333D01*
X256733Y-74232D02*
X257333D01*
X256733Y-74432D02*
X257333D01*
X256733Y-74532D02*
X257333D01*
X256733Y-73932D02*
X257333D01*
X256733Y-74732D02*
X257333D01*
X256733Y-74832D02*
X257333D01*
X256733Y-75032D02*
X257333D01*
X256733Y-74932D02*
X257333D01*
X256733Y-75332D02*
X257333D01*
X246333Y-76832D02*
X247033D01*
X246533Y-76332D02*
X247533D01*
X246433Y-76532D02*
X247233D01*
X246533Y-76432D02*
X247433D01*
X246433Y-76732D02*
X247133D01*
X246433Y-76632D02*
X247133D01*
X246333Y-76932D02*
X247033D01*
X246333Y-77032D02*
X247033D01*
X246333Y-77132D02*
X247033D01*
X246433Y-77532D02*
X247233D01*
X246333Y-77232D02*
X247033D01*
X246433Y-77332D02*
X247133D01*
X246433Y-77432D02*
X247133D01*
X252533Y-75732D02*
X254033D01*
X252333Y-75832D02*
X254233D01*
X252133Y-75932D02*
X254433D01*
X247433Y-75732D02*
X248933D01*
X246733Y-76132D02*
X249733D01*
X247133Y-75832D02*
X249233D01*
X247033Y-75932D02*
X249433D01*
X246833Y-76032D02*
X249533D01*
X246633Y-76232D02*
X247933D01*
X248433D02*
X249733D01*
X256733Y-76732D02*
X257333D01*
X248833Y-76332D02*
X249833D01*
X248933Y-76432D02*
X249933D01*
X249333Y-76732D02*
X250033D01*
X249233Y-76632D02*
X250033D01*
X249133Y-76532D02*
X249933D01*
X251233Y-77032D02*
X251933D01*
X251333Y-76732D02*
X252133D01*
X251233Y-76832D02*
X252033D01*
X251233Y-76932D02*
X252033D01*
X249333Y-76832D02*
X250033D01*
X249433Y-76932D02*
X250133D01*
X249433Y-77032D02*
X250133D01*
X251433Y-76632D02*
X252233D01*
X253833Y-76332D02*
X254933D01*
X251833Y-76132D02*
X254733D01*
X251933Y-76032D02*
X254633D01*
X253533Y-76232D02*
X254833D01*
X251733D02*
X253033D01*
X251633Y-76332D02*
X252733D01*
X251533Y-76432D02*
X252533D01*
X251433Y-76532D02*
X252333D01*
X246233Y-79432D02*
X246833D01*
X246233Y-79732D02*
X246933D01*
X246233Y-79532D02*
X246933D01*
X246233Y-79632D02*
X246933D01*
X246233Y-79832D02*
X247033D01*
X246333Y-79932D02*
X247033D01*
X246333Y-80032D02*
X247133D01*
X246433Y-80132D02*
X247333D01*
X246433Y-80232D02*
X247433D01*
X246533Y-80332D02*
X247733D01*
X251033Y-78832D02*
X251633D01*
X250933Y-78532D02*
X251633D01*
X250933Y-78032D02*
X251633D01*
X250933Y-78232D02*
X251633D01*
X250933Y-78132D02*
X251633D01*
X251033Y-78632D02*
X251633D01*
X251033Y-78732D02*
X251633D01*
X250933Y-78332D02*
X251633D01*
X250933Y-78432D02*
X251633D01*
X251033Y-77832D02*
X251633D01*
X251033Y-77932D02*
X251633D01*
X254633Y-77132D02*
X255433D01*
X254733Y-77332D02*
X255433D01*
X254733Y-77232D02*
X255433D01*
X254833Y-77432D02*
X255533D01*
X254833Y-77532D02*
X255533D01*
X254833Y-77632D02*
X255533D01*
X254833Y-77732D02*
X255533D01*
X254933Y-77832D02*
X255533D01*
X254933Y-77932D02*
X255533D01*
X254933Y-78132D02*
X255533D01*
X254933Y-78232D02*
X255533D01*
X254933Y-78032D02*
X255533D01*
X254833Y-78932D02*
X255533D01*
X254933Y-78432D02*
X255533D01*
X254933Y-78632D02*
X255533D01*
X254833Y-78832D02*
X255533D01*
X254933Y-78732D02*
X255533D01*
X254933Y-78332D02*
X255533D01*
X254933Y-78532D02*
X255533D01*
X256733Y-78932D02*
X257333D01*
X256733Y-78132D02*
X257333D01*
X256733Y-78032D02*
X257333D01*
X256733Y-77732D02*
X257333D01*
X256733Y-77832D02*
X257333D01*
X256733Y-77932D02*
X257333D01*
X256733Y-78232D02*
X257333D01*
X256733Y-78632D02*
X257333D01*
X256733Y-78432D02*
X257333D01*
X256733Y-78332D02*
X257333D01*
X256733Y-78532D02*
X257333D01*
X256733Y-78732D02*
X257333D01*
X256733Y-78832D02*
X257333D01*
X254833Y-79032D02*
X255533D01*
X254833Y-79132D02*
X255533D01*
X254733Y-79232D02*
X255433D01*
X254733Y-79332D02*
X255433D01*
X254733Y-79432D02*
X255433D01*
X254633Y-79532D02*
X255333D01*
X252833Y-80932D02*
X253633D01*
X251733Y-80432D02*
X254733D01*
X251933Y-80532D02*
X254633D01*
X252033Y-80632D02*
X254533D01*
X252233Y-80732D02*
X254333D01*
X252433Y-80832D02*
X254133D01*
X253633Y-80332D02*
X254833D01*
X253933Y-80232D02*
X254933D01*
X251633D02*
X252633D01*
X251633Y-80332D02*
X252933D01*
X256733Y-79032D02*
X257333D01*
X256733Y-79132D02*
X257333D01*
X256733Y-79232D02*
X257333D01*
X256733Y-79332D02*
X257333D01*
X256733Y-79532D02*
X257333D01*
X256733Y-79432D02*
X257333D01*
X256733Y-79632D02*
X257333D01*
X256733Y-79732D02*
X257333D01*
X256733Y-80832D02*
X257333D01*
X256733Y-80032D02*
X257333D01*
X256733Y-79832D02*
X257333D01*
X256733Y-79932D02*
X257333D01*
X256733Y-80132D02*
X257333D01*
X256733Y-80232D02*
X257333D01*
X256733Y-80332D02*
X257333D01*
X256733Y-80432D02*
X257333D01*
X256733Y-80532D02*
X257333D01*
X256733Y-80632D02*
X257333D01*
X256733Y-80732D02*
X257333D01*
X251133Y-77132D02*
X251933D01*
X251133Y-77232D02*
X251833D01*
X251033Y-77332D02*
X251833D01*
X251033Y-77432D02*
X251733D01*
X251033Y-77532D02*
X251733D01*
X251033Y-77632D02*
X251733D01*
X251033Y-77732D02*
X251733D01*
X249433Y-77232D02*
X250133D01*
X249433Y-77132D02*
X250133D01*
X246433Y-77632D02*
X247433D01*
X246733Y-77932D02*
X248233D01*
X246533Y-77732D02*
X247633D01*
X246633Y-77832D02*
X247833D01*
X248133Y-78532D02*
X249733D01*
X246833Y-78032D02*
X248633D01*
X246933Y-78132D02*
X248933D01*
X247133Y-78232D02*
X249233D01*
X247733Y-78432D02*
X249633D01*
X247433Y-78332D02*
X249433D01*
X248833Y-78732D02*
X249933D01*
X248533Y-78632D02*
X249833D01*
X249033Y-78832D02*
X249933D01*
X249233Y-80032D02*
X250033D01*
X251233Y-79632D02*
X251933D01*
X251233Y-79732D02*
X252033D01*
X251333Y-79832D02*
X252133D01*
X251333Y-79932D02*
X252233D01*
X251433Y-80032D02*
X252333D01*
X251533Y-80132D02*
X252433D01*
X249433Y-79732D02*
X250133D01*
X249433Y-79832D02*
X250133D01*
X249333Y-79932D02*
X250033D01*
X249133Y-80132D02*
X250033D01*
X248933Y-80232D02*
X249933D01*
X249433Y-79632D02*
X250133D01*
X247733Y-80932D02*
X248633D01*
X246633Y-80432D02*
X249733D01*
X246733Y-80532D02*
X249633D01*
X247033Y-80732D02*
X249333D01*
X248633Y-80332D02*
X249833D01*
X246933Y-80632D02*
X249533D01*
X247333Y-80832D02*
X249133D01*
X267133Y-78432D02*
X267733D01*
X267133Y-78932D02*
X267733D01*
X267133Y-78532D02*
X267733D01*
X267133Y-78632D02*
X267733D01*
X267133Y-78732D02*
X267733D01*
X267133Y-78832D02*
X267733D01*
X267133Y-79032D02*
X267733D01*
X267133Y-79132D02*
X267733D01*
X267133Y-79232D02*
X267733D01*
X267133Y-79332D02*
X267733D01*
X267133Y-79432D02*
X267733D01*
X267133Y-79532D02*
X267733D01*
X262033Y-77832D02*
X262633D01*
X262033Y-78932D02*
X262633D01*
X262033Y-78732D02*
X262633D01*
X262033Y-78532D02*
X262633D01*
X262033Y-78432D02*
X262633D01*
X262033Y-78632D02*
X262633D01*
X262033Y-78332D02*
X262633D01*
X262033Y-78232D02*
X262633D01*
X262033Y-78032D02*
X262633D01*
X262033Y-78132D02*
X262633D01*
X262033Y-78832D02*
X262633D01*
X262033Y-77932D02*
X262633D01*
X262033Y-79032D02*
X262633D01*
X258733Y-78132D02*
X259433D01*
X258733Y-78932D02*
X259433D01*
X258733Y-78732D02*
X259433D01*
X258733Y-78332D02*
X259433D01*
X258733Y-78232D02*
X259433D01*
X258733Y-78432D02*
X259433D01*
X258733Y-78632D02*
X259433D01*
X258733Y-78532D02*
X259433D01*
X258733Y-78832D02*
X259433D01*
X258733Y-79032D02*
X259433D01*
X258733Y-79132D02*
X259433D01*
X258733Y-79232D02*
X259433D01*
X258733Y-79432D02*
X259433D01*
X258933Y-80032D02*
X259733D01*
X258733Y-79332D02*
X259433D01*
X258733Y-79532D02*
X259433D01*
X258733Y-79632D02*
X259533D01*
X258833Y-79732D02*
X259533D01*
X258833Y-79832D02*
X259533D01*
X258833Y-79932D02*
X259633D01*
X258933Y-80132D02*
X259833D01*
X259033Y-80232D02*
X259933D01*
X259033Y-80332D02*
X260233D01*
X260033Y-80932D02*
X260833D01*
X259633Y-80832D02*
X261333D01*
X259433Y-80732D02*
X261533D01*
X259133Y-80432D02*
X261933D01*
X259233Y-80532D02*
X261833D01*
X259333Y-80632D02*
X261733D01*
X262033Y-79132D02*
X262633D01*
X262033Y-79232D02*
X262633D01*
X261833Y-79632D02*
X262633D01*
X261833Y-79732D02*
X262633D01*
X261933Y-79432D02*
X262633D01*
X261933Y-79532D02*
X262633D01*
X262033Y-79332D02*
X262633D01*
X258733Y-77732D02*
X259433D01*
X258733Y-78032D02*
X259433D01*
X258733Y-77832D02*
X259433D01*
X258733Y-77932D02*
X259433D01*
X262033Y-80832D02*
X262633D01*
X260933Y-80332D02*
X262633D01*
X261233Y-80232D02*
X262633D01*
X262033Y-80532D02*
X262633D01*
X262033Y-80432D02*
X262633D01*
X261533Y-80032D02*
X262633D01*
X261633Y-79932D02*
X262633D01*
X261733Y-79832D02*
X262633D01*
X261433Y-80132D02*
X262633D01*
X262033Y-80732D02*
X262633D01*
X262033Y-80632D02*
X262633D01*
X267133Y-80832D02*
X267733D01*
X267133Y-79732D02*
X267733D01*
X267133Y-80232D02*
X267733D01*
X267133Y-79832D02*
X267733D01*
X267133Y-79932D02*
X267733D01*
X267133Y-80032D02*
X267733D01*
X267133Y-80132D02*
X267733D01*
X267133Y-80332D02*
X267733D01*
X267133Y-80432D02*
X267733D01*
X267133Y-80532D02*
X267733D01*
X267133Y-80632D02*
X267733D01*
X267133Y-80732D02*
X267733D01*
X267133Y-79632D02*
X267733D01*
X269233Y-76732D02*
X270033D01*
X274533Y-77032D02*
X275333D01*
X274533Y-77132D02*
X275333D01*
X274533Y-77232D02*
X275233D01*
X274533Y-77332D02*
X275233D01*
X269033Y-77132D02*
X269833D01*
X269133Y-77032D02*
X269833D01*
X269133Y-76832D02*
X269933D01*
X269133Y-76932D02*
X269933D01*
X269033Y-77232D02*
X269733D01*
X272533Y-77132D02*
X273333D01*
X272533Y-77032D02*
X273233D01*
X272633Y-77232D02*
X273333D01*
X277733Y-77632D02*
X278433D01*
X277733Y-77732D02*
X278433D01*
X272733Y-77632D02*
X273433D01*
X272733Y-77732D02*
X273433D01*
X272833Y-77832D02*
X273433D01*
X277733D02*
X278433D01*
X277733Y-77932D02*
X278433D01*
X272833D02*
X273433D01*
X274533Y-77732D02*
X275133D01*
X274533Y-77632D02*
X275133D01*
X274533Y-77832D02*
X275133D01*
X274533Y-77932D02*
X275133D01*
X268933Y-77532D02*
X269633D01*
X268933Y-77432D02*
X269633D01*
X272633Y-77332D02*
X273333D01*
X272733Y-77432D02*
X273433D01*
X272733Y-77532D02*
X273433D01*
X269033Y-77332D02*
X269733D01*
X274533Y-77532D02*
X275133D01*
X274533Y-77432D02*
X275133D01*
X268933Y-77632D02*
X269633D01*
X268833Y-78032D02*
X269533D01*
X268933Y-77732D02*
X269633D01*
X268933Y-77832D02*
X269533D01*
X268933Y-77932D02*
X269533D01*
X268833Y-78432D02*
X269533D01*
X268833Y-78132D02*
X269533D01*
X268833Y-78232D02*
X269533D01*
X268833Y-78332D02*
X269533D01*
X268833Y-78532D02*
X269533D01*
X268933Y-78632D02*
X269533D01*
X268933Y-78732D02*
X269533D01*
X268933Y-78832D02*
X269533D01*
X277733Y-78032D02*
X278433D01*
X277733Y-78232D02*
X278433D01*
X277733Y-78132D02*
X278433D01*
X277733Y-78332D02*
X278433D01*
X277733Y-78432D02*
X278433D01*
X277733Y-78532D02*
X278433D01*
X277733Y-78632D02*
X278433D01*
X277733Y-78732D02*
X278433D01*
X277733Y-78832D02*
X278433D01*
X277733Y-79632D02*
X278433D01*
X277733Y-78932D02*
X278433D01*
X277733Y-79032D02*
X278433D01*
X277733Y-79532D02*
X278433D01*
X277733Y-79132D02*
X278433D01*
X277733Y-79232D02*
X278433D01*
X277733Y-79332D02*
X278433D01*
X277733Y-79432D02*
X278433D01*
X277733Y-79732D02*
X278433D01*
X277733Y-79832D02*
X278433D01*
X277733Y-79932D02*
X278433D01*
X277733Y-80032D02*
X278433D01*
X277733Y-80832D02*
X278433D01*
X277733Y-80132D02*
X278433D01*
X277733Y-80232D02*
X278433D01*
X277733Y-80332D02*
X278433D01*
X277733Y-80432D02*
X278433D01*
X277733Y-80532D02*
X278433D01*
X277733Y-80632D02*
X278433D01*
X277733Y-80732D02*
X278433D01*
X268933Y-79232D02*
X269733D01*
X268933Y-78932D02*
X269633D01*
X268933Y-79032D02*
X269633D01*
X268933Y-79132D02*
X269633D01*
X269033Y-79332D02*
X269733D01*
X269133Y-79732D02*
X269933D01*
X269033Y-79432D02*
X269733D01*
X269033Y-79532D02*
X269833D01*
X269133Y-79632D02*
X269833D01*
X269233Y-79832D02*
X270033D01*
X269233Y-79932D02*
X270133D01*
X269333Y-80032D02*
X270233D01*
X269433Y-80132D02*
X270333D01*
X272833Y-78032D02*
X273433D01*
X272833Y-78232D02*
X273433D01*
X272833Y-78132D02*
X273433D01*
X272833Y-78332D02*
X273433D01*
X272833Y-78432D02*
X273433D01*
X272833Y-78532D02*
X273433D01*
X272833Y-78632D02*
X273433D01*
X272833Y-78732D02*
X273433D01*
X272733Y-78832D02*
X273433D01*
X272733Y-78932D02*
X273433D01*
X272733Y-79032D02*
X273433D01*
X272733Y-79132D02*
X273433D01*
X269533Y-80232D02*
X270533D01*
X269733Y-80432D02*
X272633D01*
X269833Y-80532D02*
X272533D01*
X269933Y-80632D02*
X272433D01*
X270133Y-80732D02*
X272233D01*
X271533Y-80332D02*
X272733D01*
X269533D02*
X270833D01*
X271833Y-80232D02*
X272833D01*
X274533Y-80432D02*
X275133D01*
X274533Y-80532D02*
X275133D01*
X274533Y-80632D02*
X275133D01*
X274533Y-80332D02*
X275133D01*
X274533Y-80232D02*
X275133D01*
X272033Y-80132D02*
X272933D01*
X272533Y-79532D02*
X273233D01*
X272133Y-80032D02*
X273033D01*
X272433Y-79632D02*
X273233D01*
X272433Y-79732D02*
X273233D01*
X272333Y-79832D02*
X273133D01*
X272233Y-79932D02*
X273133D01*
X272633Y-79232D02*
X273333D01*
X272633Y-79332D02*
X273333D01*
X272633Y-79432D02*
X273333D01*
X274533Y-78032D02*
X275133D01*
X274533Y-78732D02*
X275133D01*
X274533Y-78832D02*
X275133D01*
X274533Y-79132D02*
X275133D01*
X274533Y-79232D02*
X275133D01*
X274533Y-78132D02*
X275133D01*
X274533Y-78232D02*
X275133D01*
X274533Y-78332D02*
X275133D01*
X274533Y-78432D02*
X275133D01*
X274533Y-78532D02*
X275133D01*
X274533Y-79032D02*
X275133D01*
X274533Y-78932D02*
X275133D01*
X274533Y-78632D02*
X275133D01*
X270733Y-80932D02*
X271533D01*
X270333Y-80832D02*
X272033D01*
X274533Y-80732D02*
X275133D01*
X274533Y-80832D02*
X275133D01*
X274533Y-80132D02*
X275133D01*
X274533Y-79632D02*
X275133D01*
X274533Y-79732D02*
X275133D01*
X274533Y-79532D02*
X275133D01*
X274533Y-79832D02*
X275133D01*
X274533Y-79932D02*
X275133D01*
X274533Y-80032D02*
X275133D01*
X274533Y-79432D02*
X275133D01*
X274533Y-79332D02*
X275133D01*
X279733Y-80232D02*
X280733D01*
X279533Y-79432D02*
X280133D01*
X279533Y-79732D02*
X280233D01*
X279533Y-79832D02*
X280333D01*
X279633Y-79932D02*
X280333D01*
X279633Y-80032D02*
X280433D01*
X279833Y-80332D02*
X281033D01*
Y-80932D02*
X281933D01*
X283533Y-68632D02*
X284333D01*
X283533Y-68732D02*
X284333D01*
X280633Y-71732D02*
X281433D01*
X280833Y-72032D02*
X281733D01*
X280633Y-71832D02*
X281533D01*
X280733Y-71932D02*
X281633D01*
X283933Y-71732D02*
X284233D01*
X283833Y-71832D02*
X284333D01*
X283733Y-71932D02*
X284433D01*
X280833Y-72132D02*
X281833D01*
X280933Y-72232D02*
X282033D01*
X283233D02*
X284233D01*
X283433Y-72132D02*
X284333D01*
X283633Y-72032D02*
X284433D01*
X280333Y-70532D02*
X280933D01*
X280333Y-70732D02*
X280933D01*
X280333Y-70632D02*
X280933D01*
X280333Y-70832D02*
X281033D01*
X280333Y-71032D02*
X281033D01*
X280333Y-71132D02*
X281033D01*
X280333Y-70932D02*
X281033D01*
Y-72332D02*
X282533D01*
X281933Y-72832D02*
X283333D01*
X281133Y-72432D02*
X284033D01*
X282733Y-72332D02*
X284133D01*
X281433Y-72632D02*
X283833D01*
X281333Y-72532D02*
X283933D01*
X281633Y-72732D02*
X283633D01*
X280433Y-71232D02*
X281133D01*
X280533Y-71632D02*
X281333D01*
X280433Y-71332D02*
X281133D01*
X280433Y-71432D02*
X281233D01*
X280533Y-71532D02*
X281233D01*
X282233Y-80232D02*
X283233D01*
X282633Y-79132D02*
X283433D01*
X282333Y-78832D02*
X283233D01*
X282433Y-78932D02*
X283333D01*
X282533Y-79032D02*
X283333D01*
X282733Y-79232D02*
X283433D01*
X282733Y-79332D02*
X283433D01*
X282733Y-79432D02*
X283433D01*
X282733Y-79532D02*
X283433D01*
X282733Y-79632D02*
X283433D01*
X282733Y-79732D02*
X283433D01*
X282733Y-79832D02*
X283433D01*
X282633Y-79932D02*
X283333D01*
X282133Y-78732D02*
X283233D01*
X282433Y-80132D02*
X283333D01*
X282533Y-80032D02*
X283333D01*
X280733Y-75732D02*
X282233D01*
X279733Y-76632D02*
X280433D01*
Y-75832D02*
X282533D01*
X280133Y-76032D02*
X282833D01*
X280333Y-75932D02*
X282733D01*
X280033Y-76132D02*
X283033D01*
X281733Y-76232D02*
X283033D01*
X282133Y-76332D02*
X283133D01*
X282233Y-76432D02*
X283233D01*
X279933Y-76232D02*
X281233D01*
X279733Y-76532D02*
X280533D01*
X279833Y-76432D02*
X280733D01*
X279833Y-76332D02*
X280833D01*
X282433Y-76532D02*
X283233D01*
X282533Y-76632D02*
X283333D01*
X282633Y-76832D02*
X283333D01*
X279733Y-80132D02*
X280633D01*
X279533Y-79532D02*
X280233D01*
X279533Y-79632D02*
X280233D01*
X280033Y-80532D02*
X282933D01*
X281933Y-80332D02*
X283133D01*
X279933Y-80432D02*
X283033D01*
X280233Y-80632D02*
X282833D01*
X280333Y-80732D02*
X282633D01*
X280633Y-80832D02*
X282433D01*
X279733Y-77632D02*
X280733D01*
X279933Y-77832D02*
X281133D01*
X279833Y-77732D02*
X280933D01*
X280033Y-77932D02*
X281533D01*
X280433Y-78232D02*
X282533D01*
X280133Y-78032D02*
X281933D01*
X280233Y-78132D02*
X282233D01*
X280733Y-78332D02*
X282733D01*
X281033Y-78432D02*
X282933D01*
X281433Y-78532D02*
X283033D01*
X281833Y-78632D02*
X283133D01*
X246433Y-67632D02*
X247133D01*
X246433Y-67932D02*
X247133D01*
X246433Y-67832D02*
X247133D01*
X246433Y-68132D02*
X247133D01*
X246433Y-67732D02*
X247133D01*
X246433Y-68032D02*
X247133D01*
X246433Y-68232D02*
X247133D01*
X247333Y-68132D02*
X250033D01*
X247233Y-68232D02*
X248233D01*
X248933D02*
X250133D01*
X249333Y-68432D02*
X250233D01*
X249433Y-68532D02*
X250233D01*
X249533Y-68632D02*
X250233D01*
X249533Y-68732D02*
X250233D01*
X249633Y-68832D02*
X250333D01*
X249633Y-68932D02*
X250333D01*
X249233Y-68332D02*
X250133D01*
X252133Y-68032D02*
X254933D01*
X254233Y-68332D02*
X255133D01*
X254033Y-68232D02*
X255133D01*
X252033Y-68132D02*
X255033D01*
X256833D02*
X257433D01*
X256833Y-68032D02*
X257433D01*
X256833Y-68232D02*
X257433D01*
X256833Y-68432D02*
X258033D01*
X256833Y-68332D02*
X258233D01*
X254533Y-68532D02*
X255233D01*
X254333Y-68432D02*
X255233D01*
X256833Y-68532D02*
X257933D01*
X264933Y-68432D02*
X265633D01*
X260133D02*
X261033D01*
X260133Y-68332D02*
X261133D01*
X260033Y-68532D02*
X260933D01*
X262433Y-68332D02*
X263833D01*
X262633Y-68432D02*
X263833D01*
X262733Y-68532D02*
X263833D01*
X262833Y-68632D02*
X263833D01*
X262933Y-68732D02*
X263833D01*
X265033Y-68532D02*
X265633D01*
X265033Y-68632D02*
X265733D01*
X265033Y-68732D02*
X265733D01*
X257733Y-67932D02*
X259233D01*
X258333Y-67632D02*
X259233D01*
X256833Y-67732D02*
X257433D01*
X256833Y-67832D02*
X257433D01*
X257933D02*
X259233D01*
X258033Y-67732D02*
X259233D01*
X261233Y-67632D02*
X262133D01*
X260933Y-67732D02*
X262533D01*
X260533Y-67932D02*
X262833D01*
X260733Y-67832D02*
X262733D01*
X256833Y-67932D02*
X257433D01*
X257533Y-68232D02*
X258633D01*
X260333Y-68132D02*
X263033D01*
X260233Y-68232D02*
X261433D01*
X258933D02*
X259233D01*
X257533Y-68132D02*
X259233D01*
X257633Y-68032D02*
X259233D01*
X260433D02*
X262933D01*
X262233Y-68232D02*
X263133D01*
X246433Y-68932D02*
X247333D01*
X246433Y-68532D02*
X247633D01*
X246433Y-68332D02*
X247933D01*
X246433Y-68432D02*
X247833D01*
X246433Y-68632D02*
X247533D01*
X246433Y-68732D02*
X247433D01*
X246433Y-68832D02*
X247433D01*
X246433Y-63932D02*
X247133D01*
X246433Y-63832D02*
X247133D01*
X246433Y-63532D02*
X247133D01*
X246433Y-63632D02*
X247133D01*
X246433Y-63732D02*
X247133D01*
X246433Y-59032D02*
X247133D01*
X247233Y-59332D02*
X248933D01*
X246433Y-59132D02*
X247133D01*
X247233Y-59232D02*
X248933D01*
X246433Y-59532D02*
X247833D01*
X246433Y-59232D02*
X247133D01*
X246433Y-59332D02*
X247133D01*
X246433Y-59632D02*
X247633D01*
X246433Y-59732D02*
X247533D01*
X246433Y-59832D02*
X247433D01*
X246433Y-59932D02*
X247333D01*
X246433Y-59432D02*
X248033D01*
X246433Y-60032D02*
X247333D01*
X249633Y-63032D02*
X250533D01*
X249433Y-62632D02*
X250233D01*
X249533Y-62832D02*
X250333D01*
X249533Y-62732D02*
X250233D01*
X249633Y-62932D02*
X250433D01*
X246433Y-61032D02*
X247133D01*
X246433Y-61132D02*
X247133D01*
X246433Y-61532D02*
X247133D01*
X246433Y-61432D02*
X247133D01*
X246433Y-61232D02*
X247133D01*
X246433Y-61332D02*
X247133D01*
X246433Y-61632D02*
X247133D01*
X246433Y-61732D02*
X247133D01*
X246433Y-61832D02*
X247133D01*
X246433Y-61932D02*
X247133D01*
X246433Y-62032D02*
X247133D01*
X246433Y-62132D02*
X247133D01*
X268733Y-57032D02*
X269233D01*
X268633Y-57132D02*
X269333D01*
X268533Y-57232D02*
X269433D01*
X268533Y-57332D02*
X269433D01*
X268533Y-57432D02*
X269433D01*
X268533Y-57532D02*
X269433D01*
X268633Y-57632D02*
X269433D01*
X268633Y-57732D02*
X269333D01*
X268833Y-57832D02*
X269133D01*
X277133Y-58732D02*
X277633D01*
X276533Y-58832D02*
X278133D01*
X276033Y-59132D02*
X278733D01*
X276133Y-59032D02*
X278633D01*
X276333Y-58932D02*
X278433D01*
X275933Y-59232D02*
X278833D01*
X272433Y-58732D02*
X272833D01*
X271833Y-58832D02*
X273433D01*
X271633Y-58932D02*
X273633D01*
X271433Y-59032D02*
X273833D01*
X271333Y-59132D02*
X273933D01*
X271233Y-59232D02*
X274033D01*
X271133Y-59332D02*
X272333D01*
X270733Y-59832D02*
X271533D01*
X270433Y-60732D02*
X271133D01*
X270433Y-60832D02*
X271133D01*
X270433Y-60932D02*
X271133D01*
X270533Y-60432D02*
X271233D01*
X270433Y-60632D02*
X271133D01*
X270533Y-60532D02*
X271233D01*
X270633Y-60132D02*
X271333D01*
X270533Y-60332D02*
X271233D01*
X270733Y-59932D02*
X271433D01*
X270633Y-60032D02*
X271433D01*
X270533Y-60232D02*
X271333D01*
X270933Y-59532D02*
X271833D01*
X270833Y-59632D02*
X271733D01*
X270833Y-59732D02*
X271633D01*
X268633Y-61332D02*
X269333D01*
X268633Y-61132D02*
X269333D01*
X268633Y-61032D02*
X269333D01*
X268633Y-61232D02*
X269333D01*
X270433Y-61332D02*
X271133D01*
X270433Y-61032D02*
X271133D01*
X270433Y-61132D02*
X271133D01*
X270433Y-61232D02*
X271133D01*
X268633Y-60932D02*
X269333D01*
X268633Y-60232D02*
X269333D01*
X268633Y-60732D02*
X269333D01*
X268633Y-60832D02*
X269333D01*
X268633Y-60332D02*
X269333D01*
X268633Y-60432D02*
X269333D01*
X268633Y-60532D02*
X269333D01*
X268633Y-60632D02*
X269333D01*
X268633Y-59632D02*
X269333D01*
X268633Y-59932D02*
X269333D01*
X268633Y-59732D02*
X269333D01*
X268633Y-59832D02*
X269333D01*
X268633Y-60032D02*
X269333D01*
X276633Y-61432D02*
X278633D01*
X275533Y-60432D02*
X276233D01*
X275733Y-60832D02*
X276833D01*
X275933Y-61032D02*
X277433D01*
X275833Y-60932D02*
X277033D01*
X276033Y-61132D02*
X277833D01*
X276133Y-61232D02*
X278133D01*
X276333Y-61332D02*
X278433D01*
X273933Y-60232D02*
X274633D01*
X273933Y-60332D02*
X274633D01*
X273933Y-60432D02*
X274633D01*
X273933Y-60532D02*
X274633D01*
X275633Y-60732D02*
X276533D01*
X275633Y-60632D02*
X276433D01*
X275533Y-60532D02*
X276333D01*
X275533Y-60332D02*
X276233D01*
X273833Y-60132D02*
X274533D01*
X273733Y-59832D02*
X274433D01*
X273733Y-59932D02*
X274533D01*
X273833Y-60032D02*
X274533D01*
X275533Y-59832D02*
X276233D01*
X275533Y-60132D02*
X276233D01*
X273633Y-59732D02*
X274433D01*
X273533Y-59632D02*
X274333D01*
X278633Y-60132D02*
X279233D01*
X278133Y-59532D02*
X279133D01*
X278433Y-59832D02*
X279233D01*
X278333Y-59632D02*
X279133D01*
X278433Y-59732D02*
X279233D01*
X278533Y-59932D02*
X279233D01*
X278533Y-60032D02*
X279233D01*
X268633Y-60132D02*
X269333D01*
X268633Y-58932D02*
X269333D01*
X268633Y-59432D02*
X269333D01*
X268633Y-59532D02*
X269333D01*
X268633Y-58832D02*
X269333D01*
X268633Y-59032D02*
X269333D01*
X268633Y-59132D02*
X269333D01*
X268633Y-59232D02*
X269333D01*
X268633Y-59332D02*
X269333D01*
X275633Y-59732D02*
X276333D01*
X275833Y-59332D02*
X277033D01*
X275733Y-59432D02*
X276733D01*
X275633Y-59532D02*
X276533D01*
X275633Y-59632D02*
X276433D01*
X277933Y-59432D02*
X279033D01*
X277633Y-59332D02*
X278933D01*
X272933D02*
X274133D01*
X271033Y-59432D02*
X272033D01*
X273233D02*
X274233D01*
X273433Y-59532D02*
X274333D01*
X278433Y-63132D02*
X279233D01*
X278533Y-62332D02*
X279333D01*
X278533Y-62232D02*
X279233D01*
X278433Y-62132D02*
X279233D01*
X278633Y-62432D02*
X279333D01*
X278633Y-62532D02*
X279333D01*
X278633Y-62632D02*
X279333D01*
X278633Y-62732D02*
X279333D01*
X278533Y-62932D02*
X279233D01*
X278533Y-63032D02*
X279233D01*
X278633Y-62832D02*
X279333D01*
X275733Y-63432D02*
X277033D01*
X272333Y-64032D02*
X272933D01*
X275833Y-63532D02*
X278933D01*
X275933Y-63632D02*
X278833D01*
X276033Y-63732D02*
X278733D01*
X277833Y-63432D02*
X279033D01*
X277033Y-64032D02*
X277733D01*
X276533Y-63932D02*
X278233D01*
X276233Y-63832D02*
X278533D01*
X278133Y-63332D02*
X279133D01*
X278233Y-63232D02*
X279133D01*
X268633Y-63932D02*
X269333D01*
X268633Y-63432D02*
X269333D01*
X268633Y-63532D02*
X269333D01*
X268633Y-63632D02*
X269333D01*
X268633Y-63732D02*
X269333D01*
X268633Y-63832D02*
X269333D01*
X271033Y-63432D02*
X272233D01*
X271133Y-63532D02*
X274033D01*
X271333Y-63632D02*
X273933D01*
X271433Y-63732D02*
X273833D01*
X271633Y-63832D02*
X273633D01*
X271833Y-63932D02*
X273333D01*
X273033Y-63432D02*
X274133D01*
X271033Y-63332D02*
X272033D01*
X270933Y-63232D02*
X271833D01*
X270833Y-63132D02*
X271733D01*
X273433Y-63232D02*
X274333D01*
X273233Y-63332D02*
X274233D01*
X273533Y-63132D02*
X274433D01*
X275533Y-63232D02*
X276533D01*
X275533Y-63132D02*
X276333D01*
X275633Y-63332D02*
X276633D01*
X273633Y-63032D02*
X274433D01*
X273933Y-62632D02*
X274633D01*
X275433Y-62732D02*
X276133D01*
X275333Y-62632D02*
X276033D01*
X273833Y-62732D02*
X274533D01*
X273833Y-62832D02*
X274533D01*
X275433D02*
X276133D01*
X273733Y-62932D02*
X274533D01*
X273933Y-62332D02*
X274633D01*
X273933Y-62432D02*
X274633D01*
X273933Y-62532D02*
X274633D01*
X275333D02*
X276033D01*
X275433Y-62932D02*
X276233D01*
X275433Y-63032D02*
X276233D01*
X270433Y-62132D02*
X271133D01*
X270633Y-62632D02*
X271333D01*
X270633Y-62732D02*
X271333D01*
X270733Y-62832D02*
X271433D01*
X270733Y-62932D02*
X271533D01*
X270533Y-62332D02*
X271233D01*
X270533Y-62232D02*
X271133D01*
X270533Y-62432D02*
X271233D01*
X270533Y-62532D02*
X271233D01*
X268633Y-62032D02*
X269333D01*
X268633Y-61632D02*
X269333D01*
X270433Y-61832D02*
X271133D01*
X268633Y-61932D02*
X269333D01*
X268633Y-61732D02*
X269333D01*
X268633Y-61832D02*
X269333D01*
X268633Y-61532D02*
X269333D01*
X268633Y-61432D02*
X269333D01*
X270433Y-62032D02*
X271133D01*
X270433Y-61432D02*
X271133D01*
X270433Y-61532D02*
X271133D01*
X270433Y-61632D02*
X271133D01*
X270433Y-61732D02*
X271133D01*
X270433Y-61932D02*
X271133D01*
X276933Y-61532D02*
X278733D01*
X278033Y-61832D02*
X279133D01*
X277433Y-61632D02*
X278933D01*
X277733Y-61732D02*
X279033D01*
X278233Y-61932D02*
X279133D01*
X278333Y-62032D02*
X279233D01*
X268633Y-63232D02*
X269333D01*
X270833Y-63032D02*
X271633D01*
X268633Y-62532D02*
X269333D01*
X268633Y-62332D02*
X269333D01*
X268633Y-62132D02*
X269333D01*
X268633Y-62232D02*
X269333D01*
X268633Y-62432D02*
X269333D01*
X268633Y-62932D02*
X269333D01*
X268633Y-63032D02*
X269333D01*
X268633Y-63132D02*
X269333D01*
X268633Y-63332D02*
X269333D01*
X268633Y-62632D02*
X269333D01*
X268633Y-62732D02*
X269333D01*
X268633Y-62832D02*
X269333D01*
X265833Y-57532D02*
X266533D01*
X265833Y-58732D02*
X266533D01*
X265833Y-58332D02*
X266533D01*
X265833Y-57632D02*
X266533D01*
X265833Y-57732D02*
X266533D01*
X265833Y-57832D02*
X266533D01*
X265833Y-57932D02*
X266533D01*
X265833Y-58032D02*
X266533D01*
X265833Y-58132D02*
X266533D01*
X265833Y-58232D02*
X266533D01*
X265833Y-58432D02*
X266533D01*
X265833Y-58532D02*
X266533D01*
X265833Y-58632D02*
X266533D01*
X261933Y-58732D02*
X262433D01*
X261433Y-58832D02*
X262933D01*
X261133Y-58932D02*
X263233D01*
X261033Y-59032D02*
X263333D01*
X260833Y-59132D02*
X263533D01*
X260733Y-59232D02*
X263633D01*
X262433Y-59332D02*
X263733D01*
X262733Y-59432D02*
X263833D01*
X260633Y-59332D02*
X261933D01*
X260433Y-59532D02*
X261433D01*
X260533Y-59432D02*
X261533D01*
X260233Y-59832D02*
X261033D01*
X260333Y-59732D02*
X261133D01*
X260333Y-59632D02*
X261233D01*
X258233Y-60332D02*
X258933D01*
X259933Y-60832D02*
X260633D01*
X258333D02*
X259033D01*
X258333Y-60432D02*
X258933D01*
X258333Y-60532D02*
X259033D01*
X258333Y-60632D02*
X259033D01*
X258333Y-60732D02*
X259033D01*
X258333Y-60932D02*
X259033D01*
X259933Y-60532D02*
X260633D01*
X259933Y-60632D02*
X260633D01*
X259933Y-60732D02*
X260633D01*
X260033Y-60332D02*
X260733D01*
X260033Y-60432D02*
X260733D01*
X259933Y-60932D02*
X260533D01*
X263733Y-60832D02*
X264433D01*
X263633Y-60332D02*
X264333D01*
X263533Y-60232D02*
X264333D01*
X263633Y-60432D02*
X264333D01*
X263733Y-60532D02*
X264433D01*
X263733Y-60732D02*
X264433D01*
X263733Y-60632D02*
X264433D01*
X265833Y-60232D02*
X266533D01*
X265833Y-60332D02*
X266533D01*
X265833Y-60132D02*
X266533D01*
X265833Y-60532D02*
X266533D01*
X265833Y-60632D02*
X266533D01*
X265833Y-60432D02*
X266533D01*
X265833Y-60732D02*
X266533D01*
X265833Y-60832D02*
X266533D01*
X262933Y-59532D02*
X263933D01*
X263533Y-60132D02*
X264233D01*
X263433Y-59932D02*
X264233D01*
X263433Y-60032D02*
X264233D01*
X263133Y-59632D02*
X264033D01*
X263333Y-59832D02*
X264133D01*
X263233Y-59732D02*
X264033D01*
X265833Y-60032D02*
X266533D01*
X264933Y-58832D02*
X267533D01*
X265833Y-59432D02*
X266533D01*
X265833Y-59732D02*
X266533D01*
X265833Y-59532D02*
X266533D01*
X265833Y-59632D02*
X266533D01*
X265833Y-59932D02*
X266533D01*
X265833Y-59832D02*
X266533D01*
X264933Y-59332D02*
X267533D01*
X264933Y-58932D02*
X267533D01*
X264933Y-59032D02*
X267533D01*
X264933Y-59132D02*
X267533D01*
X264933Y-59232D02*
X267533D01*
X258433Y-61032D02*
X259033D01*
X258433Y-61432D02*
X259033D01*
X258433Y-61132D02*
X259033D01*
X258433Y-61232D02*
X259033D01*
X258433Y-61332D02*
X259033D01*
X258233Y-62432D02*
X258933D01*
X258233Y-62332D02*
X258933D01*
X258233Y-62532D02*
X258933D01*
X258333Y-62232D02*
X259033D01*
X258433Y-61532D02*
X259033D01*
X258433Y-61632D02*
X259033D01*
X258333Y-61932D02*
X259033D01*
X258333Y-62032D02*
X259033D01*
X258333Y-61832D02*
X259033D01*
X258433Y-61732D02*
X259033D01*
X258333Y-62132D02*
X259033D01*
X259933Y-61032D02*
X260533D01*
X259833Y-61532D02*
X260533D01*
X259933Y-62032D02*
X260633D01*
X259933Y-62132D02*
X260633D01*
X259933Y-62232D02*
X260633D01*
X259933Y-62332D02*
X260733D01*
X260033Y-62432D02*
X260733D01*
X259933Y-61932D02*
X260533D01*
X259933Y-61632D02*
X260533D01*
X259933Y-61832D02*
X260533D01*
X259933Y-61732D02*
X260533D01*
X259833Y-61432D02*
X260533D01*
X259933Y-61132D02*
X260533D01*
X260033Y-62632D02*
X260833D01*
X260033Y-62532D02*
X260733D01*
X259833Y-61232D02*
X260533D01*
X259833Y-61332D02*
X260533D01*
X263733Y-62232D02*
X264433D01*
X263833Y-61532D02*
X264433D01*
X263733Y-61932D02*
X264433D01*
X263733Y-62032D02*
X264433D01*
X263733Y-62132D02*
X264433D01*
X263833Y-61632D02*
X264433D01*
X263833Y-61832D02*
X264433D01*
X263833Y-61732D02*
X264433D01*
X263833Y-61432D02*
X264433D01*
X263833Y-61132D02*
X264433D01*
X263833Y-61332D02*
X264433D01*
X263833Y-61032D02*
X264433D01*
X263833Y-60932D02*
X264433D01*
X263833Y-61232D02*
X264433D01*
X265833Y-62232D02*
X266533D01*
X265833Y-62032D02*
X266533D01*
X265833Y-62132D02*
X266533D01*
X265833Y-61932D02*
X266533D01*
X265833Y-61632D02*
X266533D01*
X265833Y-61732D02*
X266533D01*
X265833Y-61832D02*
X266533D01*
X265833Y-61532D02*
X266533D01*
X265833Y-61332D02*
X266533D01*
X265833Y-61432D02*
X266533D01*
X265833Y-61232D02*
X266533D01*
X265833Y-61132D02*
X266533D01*
X265833Y-60932D02*
X266533D01*
X265833Y-61032D02*
X266533D01*
X277533Y-70432D02*
X278133D01*
X277533Y-70332D02*
X278133D01*
X277533Y-70232D02*
X278133D01*
X268633Y-70332D02*
X269233D01*
X268633Y-70432D02*
X269233D01*
X270033Y-70332D02*
X270733D01*
X270033Y-70432D02*
X270633D01*
X275433Y-70332D02*
X276133D01*
X275433Y-70432D02*
X276133D01*
X272633Y-70332D02*
X274233D01*
X272533Y-70432D02*
X273733D01*
X277533Y-69132D02*
X278233D01*
X277533Y-69732D02*
X278133D01*
X277533Y-69332D02*
X278133D01*
X277533Y-69432D02*
X278133D01*
X277533Y-69532D02*
X278133D01*
X277533Y-69632D02*
X278133D01*
X277533Y-69232D02*
X278233D01*
X277533Y-69832D02*
X278133D01*
X277533Y-70032D02*
X278133D01*
X277533Y-69932D02*
X278133D01*
X277533Y-70132D02*
X278133D01*
X280333Y-70432D02*
X280933D01*
X280633Y-68832D02*
X281333D01*
X280333Y-69732D02*
X281033D01*
X280333Y-69632D02*
X281033D01*
X280333Y-69532D02*
X281033D01*
X280333Y-69432D02*
X281033D01*
X280433Y-69332D02*
X281133D01*
X280433Y-69232D02*
X281133D01*
X278633Y-60232D02*
X279233D01*
X275533D02*
X276233D01*
X275533Y-59932D02*
X276233D01*
X275533Y-60032D02*
X276233D01*
X254933Y-56832D02*
X255533D01*
X254933Y-56932D02*
X255533D01*
X254933Y-57032D02*
X255533D01*
X254933D02*
X255533D01*
X254933Y-57132D02*
X255533D01*
X254933Y-57232D02*
X255533D01*
X254933Y-57332D02*
X255533D01*
X254933Y-57432D02*
X255533D01*
X254933Y-57532D02*
X255533D01*
X254933Y-57632D02*
X255533D01*
X254933Y-57732D02*
X255533D01*
X254933Y-57832D02*
X255533D01*
X254933Y-57932D02*
X255533D01*
X248233Y-58732D02*
X248633D01*
X246433Y-58832D02*
X247133D01*
X251333Y-58732D02*
X251833D01*
X247833Y-58832D02*
X248933D01*
X250833D02*
X252333D01*
X246433Y-58932D02*
X247133D01*
X247633D02*
X248933D01*
X250533D02*
X252533D01*
X250333Y-59032D02*
X252733D01*
X250233Y-59132D02*
X252933D01*
X250133Y-59232D02*
X253033D01*
X247433Y-59032D02*
X248933D01*
X247333Y-59132D02*
X248933D01*
X254933Y-59532D02*
X256133D01*
X254933Y-59632D02*
X256033D01*
X254933Y-59832D02*
X255833D01*
X254933Y-59932D02*
X255733D01*
X254933Y-60032D02*
X255733D01*
X258033Y-59832D02*
X258833D01*
X258033Y-59932D02*
X258833D01*
X258133Y-60032D02*
X258833D01*
X258133Y-60132D02*
X258933D01*
X258233Y-60232D02*
X258933D01*
X257733Y-59532D02*
X258633D01*
X257833Y-59632D02*
X258733D01*
X257933Y-59732D02*
X258733D01*
X254933Y-59432D02*
X256333D01*
X254933Y-59732D02*
X255933D01*
X252933Y-60232D02*
X253733D01*
X253033Y-60432D02*
X253733D01*
X253033Y-60332D02*
X253733D01*
X253033Y-60532D02*
X253733D01*
X253133Y-60632D02*
X253833D01*
X253133Y-60732D02*
X253833D01*
X253133Y-60832D02*
X253833D01*
X253133Y-60932D02*
X253833D01*
X253233Y-61032D02*
X253833D01*
X249533Y-59932D02*
X250333D01*
X249333Y-60432D02*
X250033D01*
X249533Y-60032D02*
X250333D01*
X249433Y-60132D02*
X250233D01*
X249433Y-60232D02*
X250133D01*
X249433Y-60332D02*
X250133D01*
X249333Y-60532D02*
X250033D01*
X249333Y-60632D02*
X250033D01*
X249333Y-60732D02*
X250033D01*
X249333Y-60832D02*
X249933D01*
X249233Y-60932D02*
X249933D01*
X249233Y-61032D02*
X249933D01*
X249833Y-59532D02*
X250733D01*
X250033Y-59332D02*
X251233D01*
X251833D02*
X253133D01*
X249933Y-59432D02*
X250933D01*
X252133D02*
X253233D01*
X252333Y-59532D02*
X253333D01*
X249733Y-59632D02*
X250633D01*
X252533D02*
X253433D01*
X252633Y-59732D02*
X253433D01*
X249633D02*
X250533D01*
X252733Y-59832D02*
X253533D01*
X252733Y-59932D02*
X253533D01*
X252833Y-60032D02*
X253633D01*
X252933Y-60132D02*
X253633D01*
X249633Y-59832D02*
X250433D01*
X254933Y-58032D02*
X255533D01*
X254933Y-58332D02*
X255533D01*
X254933Y-58132D02*
X255533D01*
X254933Y-58232D02*
X255533D01*
X254933Y-58432D02*
X255533D01*
X254933Y-58532D02*
X255533D01*
X254933Y-58632D02*
X255533D01*
X254933Y-58732D02*
X255533D01*
X254933Y-58832D02*
X255533D01*
X254933Y-58932D02*
X255533D01*
X254933Y-59032D02*
X255533D01*
X254933Y-59132D02*
X255533D01*
X254933Y-59232D02*
X255533D01*
X254933Y-59332D02*
X255533D01*
X255733Y-59232D02*
X258433D01*
X256833Y-58732D02*
X257333D01*
X256333Y-58832D02*
X257733D01*
X255933Y-59032D02*
X258133D01*
X256133Y-58932D02*
X258033D01*
X255833Y-59132D02*
X258333D01*
X257233Y-59332D02*
X258433D01*
X257533Y-59432D02*
X258533D01*
X255633Y-59332D02*
X256733D01*
X254933Y-60232D02*
X255633D01*
X254933Y-60132D02*
X255633D01*
X260033Y-60232D02*
X260833D01*
X260133Y-60132D02*
X260833D01*
X260133Y-59932D02*
X260933D01*
X260133Y-60032D02*
X260933D01*
X254933Y-60332D02*
X255533D01*
X254933Y-61132D02*
X255533D01*
X254933Y-60932D02*
X255533D01*
X254933Y-60432D02*
X255533D01*
X254933Y-60532D02*
X255533D01*
X254933Y-60632D02*
X255533D01*
X254933Y-60732D02*
X255533D01*
X254933Y-60832D02*
X255533D01*
X254933Y-61432D02*
X255533D01*
X254933Y-61232D02*
X255533D01*
X254933Y-61332D02*
X255533D01*
X254933Y-61532D02*
X255533D01*
X254933Y-61632D02*
X255533D01*
X254933Y-61032D02*
X255533D01*
X254933Y-61732D02*
X255533D01*
X254933Y-62032D02*
X255533D01*
X254933Y-61832D02*
X255533D01*
X254933Y-61932D02*
X255533D01*
X254933Y-62132D02*
X255533D01*
X254933Y-62232D02*
X255533D01*
X254933Y-62332D02*
X255533D01*
X254933Y-62432D02*
X255533D01*
X254933Y-62732D02*
X255633D01*
X254933Y-62532D02*
X255533D01*
X254933Y-62632D02*
X255633D01*
X254933Y-62832D02*
X255733D01*
X254933Y-62932D02*
X255833D01*
X258133Y-62632D02*
X258933D01*
X254933Y-63032D02*
X255933D01*
X254933Y-63332D02*
X256333D01*
X254933Y-63132D02*
X256033D01*
X254933Y-63232D02*
X256133D01*
X254933Y-63432D02*
X256633D01*
X254933Y-63532D02*
X255533D01*
X255633D02*
X258433D01*
X255733Y-63632D02*
X258333D01*
X257733Y-63232D02*
X258633D01*
X257833Y-63132D02*
X258733D01*
X257933Y-63032D02*
X258733D01*
X258033Y-62832D02*
X258833D01*
X256733Y-64032D02*
X257333D01*
X257233Y-63432D02*
X258433D01*
X254933Y-63932D02*
X255533D01*
X256333D02*
X257833D01*
X254933Y-63832D02*
X255533D01*
X254933Y-63632D02*
X255533D01*
X254933Y-63732D02*
X255533D01*
X257533Y-63332D02*
X258533D01*
X256033Y-63832D02*
X258033D01*
X255933Y-63732D02*
X258133D01*
Y-62732D02*
X258833D01*
X258033Y-62932D02*
X258833D01*
X251933Y-68232D02*
X253033D01*
Y-67632D02*
X254033D01*
X252633Y-67732D02*
X254433D01*
X252433Y-67832D02*
X254633D01*
X252233Y-67932D02*
X254833D01*
X251833Y-68332D02*
X252733D01*
X251733Y-68432D02*
X252633D01*
X246433Y-65632D02*
X247133D01*
X246433Y-66132D02*
X247133D01*
X246433Y-65732D02*
X247133D01*
X246433Y-65832D02*
X247133D01*
X246433Y-65932D02*
X247133D01*
X246433Y-66032D02*
X247133D01*
X246433Y-66232D02*
X247133D01*
X246433Y-66332D02*
X247133D01*
X246433Y-66432D02*
X247133D01*
X246433Y-66532D02*
X247133D01*
X246433Y-66832D02*
X247133D01*
X246433Y-66632D02*
X247133D01*
X246433Y-66732D02*
X247133D01*
X246433Y-66932D02*
X247133D01*
X246433Y-67332D02*
X247133D01*
X246433Y-67032D02*
X247133D01*
X246433Y-67132D02*
X247133D01*
X246433Y-67232D02*
X247133D01*
X246433Y-67432D02*
X247133D01*
X246433Y-67532D02*
X247133D01*
X248233Y-67632D02*
X249233D01*
X247933Y-67732D02*
X249533D01*
X247733Y-67832D02*
X249733D01*
X247533Y-67932D02*
X249833D01*
X247433Y-68032D02*
X249933D01*
X246433Y-60132D02*
X247233D01*
X246433Y-60532D02*
X247133D01*
X246433Y-60332D02*
X247133D01*
X246433Y-60232D02*
X247233D01*
X246433Y-60432D02*
X247133D01*
X246433Y-60632D02*
X247133D01*
X246433Y-60732D02*
X247133D01*
X246433Y-60832D02*
X247133D01*
X246433Y-60932D02*
X247133D01*
X253133Y-62232D02*
X253733D01*
X249333Y-62332D02*
X250033D01*
X249433Y-62432D02*
X250133D01*
X249433Y-62532D02*
X250133D01*
X253033Y-62432D02*
X253733D01*
X253033Y-62332D02*
X253733D01*
X252833Y-62732D02*
X253633D01*
X252933Y-62532D02*
X253733D01*
X252933Y-62632D02*
X253633D01*
X246433Y-62932D02*
X247133D01*
X246433Y-62232D02*
X247133D01*
X246433Y-62732D02*
X247133D01*
X246433Y-62332D02*
X247133D01*
X246433Y-62432D02*
X247133D01*
X246433Y-62532D02*
X247133D01*
X246433Y-62632D02*
X247133D01*
X246433Y-62832D02*
X247133D01*
X246433Y-63032D02*
X247133D01*
X246433Y-63132D02*
X247133D01*
X246433Y-63232D02*
X247133D01*
X246433Y-63332D02*
X247133D01*
X246433Y-63432D02*
X247133D01*
X249233Y-61132D02*
X249933D01*
X249233Y-61232D02*
X249933D01*
X249233Y-61332D02*
X249933D01*
X249233Y-61432D02*
X249933D01*
X253233Y-61132D02*
X253833D01*
X253233Y-61632D02*
X253833D01*
X253233Y-61432D02*
X253833D01*
X253233Y-61232D02*
X253833D01*
X253233Y-61332D02*
X253833D01*
X253233Y-61532D02*
X253833D01*
X253233Y-61732D02*
X253833D01*
X253133Y-61832D02*
X253833D01*
X253133Y-61932D02*
X253833D01*
X253133Y-62032D02*
X253833D01*
X253133Y-62132D02*
X253833D01*
X249333Y-62232D02*
X250033D01*
X249233Y-61832D02*
X249933D01*
X249233Y-61532D02*
X249933D01*
X249233Y-61632D02*
X249933D01*
X249233Y-61732D02*
X249933D01*
X249333Y-61932D02*
X249933D01*
X249333Y-62032D02*
X250033D01*
X249333Y-62132D02*
X250033D01*
X252833Y-62832D02*
X253533D01*
X249733Y-63132D02*
X250633D01*
X249833Y-63232D02*
X250733D01*
X249833Y-63332D02*
X250933D01*
X252733Y-62932D02*
X253533D01*
X252633Y-63032D02*
X253433D01*
X252533Y-63132D02*
X253433D01*
X252333Y-63232D02*
X253333D01*
X252233Y-63332D02*
X253233D01*
X251233Y-64032D02*
X251933D01*
X250033Y-63532D02*
X253033D01*
X249933Y-63432D02*
X251233D01*
X250233Y-63632D02*
X252933D01*
X250333Y-63732D02*
X252733D01*
X250533Y-63832D02*
X252633D01*
X250733Y-63932D02*
X252333D01*
X251933Y-63432D02*
X253133D01*
X263233Y-68232D02*
X263833D01*
X263233Y-68132D02*
X263833D01*
X263233Y-67932D02*
X263833D01*
X263233Y-68032D02*
X263833D01*
X263233Y-67832D02*
X263833D01*
X264733Y-67732D02*
X265433D01*
X264833Y-68032D02*
X265533D01*
X264833Y-67932D02*
X265533D01*
X264833Y-67832D02*
X265533D01*
X264833Y-68132D02*
X265533D01*
X264933Y-68232D02*
X265633D01*
X264933Y-68332D02*
X265633D01*
X265833Y-62332D02*
X266533D01*
X265833Y-63232D02*
X266633D01*
X265933Y-63332D02*
X266733D01*
X265833Y-63132D02*
X266533D01*
X265833Y-62832D02*
X266533D01*
X265833Y-62732D02*
X266533D01*
X265833Y-62932D02*
X266533D01*
X265833Y-63032D02*
X266533D01*
X265833Y-62632D02*
X266533D01*
X265833Y-62432D02*
X266533D01*
X265833Y-62532D02*
X266533D01*
X263633Y-62332D02*
X264333D01*
X263033Y-63232D02*
X263933D01*
X263233Y-63032D02*
X264133D01*
X263433Y-62732D02*
X264233D01*
X263533Y-62632D02*
X264233D01*
X263633Y-62432D02*
X264333D01*
X263333Y-62932D02*
X264133D01*
X263433Y-62832D02*
X264233D01*
X263633Y-62532D02*
X264333D01*
X263133Y-63132D02*
X264033D01*
X261833Y-64032D02*
X262533D01*
X260733Y-63532D02*
X263633D01*
X260833Y-63632D02*
X263533D01*
X260933Y-63732D02*
X263433D01*
X261133Y-63832D02*
X263233D01*
X261433Y-63932D02*
X262933D01*
X262533Y-63432D02*
X263733D01*
X260633D02*
X261833D01*
X262833Y-63332D02*
X263833D01*
X260533D02*
X261533D01*
X263233Y-65632D02*
X263833D01*
X263233Y-65732D02*
X263833D01*
X263233Y-66232D02*
X263833D01*
X263233Y-66332D02*
X263833D01*
X263233Y-66432D02*
X263833D01*
X263233Y-65832D02*
X263833D01*
X263233Y-66132D02*
X263833D01*
X263233Y-66032D02*
X263833D01*
X263233Y-65932D02*
X263833D01*
X263233Y-66532D02*
X263833D01*
X263233Y-66632D02*
X263833D01*
X263233Y-66732D02*
X263833D01*
X263233Y-67432D02*
X263833D01*
X263233Y-67532D02*
X263833D01*
X263233Y-67332D02*
X263833D01*
X263233Y-67132D02*
X263833D01*
X263233Y-66932D02*
X263833D01*
X263233Y-66832D02*
X263833D01*
X263233Y-67232D02*
X263833D01*
X263233Y-67032D02*
X263833D01*
X263233Y-67732D02*
X263833D01*
X263233Y-67632D02*
X263833D01*
X260433Y-63232D02*
X261333D01*
X260133Y-62832D02*
X260933D01*
X260133Y-62732D02*
X260933D01*
X260233Y-62932D02*
X261033D01*
X260233Y-63032D02*
X261133D01*
X260333Y-63132D02*
X261233D01*
X266733Y-64032D02*
X267333D01*
X265933Y-63532D02*
X267633D01*
X265933Y-63432D02*
X266933D01*
X267333D02*
X267633D01*
X266033Y-63632D02*
X267633D01*
X266133Y-63732D02*
X267633D01*
X266233Y-63832D02*
X267633D01*
X266333Y-63932D02*
X267633D01*
D32*
X60433Y-127362D02*
D03*
Y-117913D02*
D03*
X60630Y-103543D02*
D03*
Y-94095D02*
D03*
Y-79724D02*
D03*
Y-70276D02*
D03*
Y-56102D02*
D03*
Y-46654D02*
D03*
X60532Y-32461D02*
D03*
Y-23012D02*
D03*
D49*
X325394Y-115976D02*
D03*
X327953D02*
D03*
X330512D02*
D03*
X333071D02*
D03*
X330512Y-138583D02*
D03*
X322835Y-115976D02*
D03*
X320276D02*
D03*
X327953Y-138583D02*
D03*
X317717D02*
D03*
X325394D02*
D03*
X322835D02*
D03*
X320276D02*
D03*
X315158D02*
D03*
X333071D02*
D03*
X317717Y-115976D02*
D03*
X315158D02*
D03*
D66*
X84449Y-143307D02*
D03*
Y-135827D02*
D03*
Y-150394D02*
D03*
Y-157874D02*
D03*
X84055Y-167913D02*
D03*
Y-175394D02*
D03*
Y-186614D02*
D03*
Y-194095D02*
D03*
Y-205118D02*
D03*
Y-212598D02*
D03*
D67*
X134941Y-71063D02*
D03*
X140847D02*
D03*
X162402Y-55905D02*
D03*
X168307D02*
D03*
X322244Y-163091D02*
D03*
X328150D02*
D03*
Y-169095D02*
D03*
X322244D02*
D03*
X226181Y-121161D02*
D03*
X220276D02*
D03*
X301969Y-47343D02*
D03*
X307874D02*
D03*
Y-18701D02*
D03*
X301969D02*
D03*
X137500Y-79429D02*
D03*
Y-89272D02*
D03*
X140847Y-61024D02*
D03*
X286024Y-220866D02*
D03*
X96850Y-129134D02*
D03*
X204232Y-156890D02*
D03*
X210138Y-133366D02*
D03*
X134941Y-61024D02*
D03*
X301772Y-77264D02*
D03*
X258071Y-220866D02*
D03*
X291929Y-215354D02*
D03*
Y-220866D02*
D03*
X131595Y-79429D02*
D03*
Y-89272D02*
D03*
X272047Y-133169D02*
D03*
X205807Y-191732D02*
D03*
X102756Y-204921D02*
D03*
Y-129134D02*
D03*
X102362Y-186221D02*
D03*
X102756Y-167323D02*
D03*
Y-148228D02*
D03*
X96850Y-204921D02*
D03*
X96457Y-186221D02*
D03*
X96850Y-167323D02*
D03*
Y-148228D02*
D03*
X199902Y-191732D02*
D03*
X210138Y-156890D02*
D03*
X204232Y-133366D02*
D03*
X286024Y-215354D02*
D03*
X266142Y-133169D02*
D03*
X307677Y-77264D02*
D03*
X263976Y-220866D02*
D03*
D68*
X210236Y-140847D02*
D03*
Y-149508D02*
D03*
X203937Y-140847D02*
D03*
X151378Y-79921D02*
D03*
Y-88583D02*
D03*
X145079Y-79921D02*
D03*
D69*
X203937Y-149508D02*
D03*
X145079Y-88583D02*
D03*
D70*
X308563Y-156890D02*
D03*
X299902D02*
D03*
X308563Y-150591D02*
D03*
D71*
X299902D02*
D03*
D72*
X89862Y-110827D02*
D03*
X114468D02*
D03*
Y-120827D02*
D03*
X89862D02*
D03*
Y-76437D02*
D03*
X114468D02*
D03*
X89862Y-66437D02*
D03*
X114468D02*
D03*
Y-32047D02*
D03*
X89862Y-44242D02*
D03*
X114468Y-88632D02*
D03*
Y-44242D02*
D03*
Y-22047D02*
D03*
X89862Y-88632D02*
D03*
Y-22047D02*
D03*
X114468Y-98632D02*
D03*
X89862D02*
D03*
X114468Y-54242D02*
D03*
X89862D02*
D03*
Y-32047D02*
D03*
D73*
X67669Y-209685D02*
D03*
Y-219685D02*
D03*
X45669Y-209685D02*
D03*
Y-219685D02*
D03*
X118504Y-216614D02*
D03*
X93504D02*
D03*
Y-211614D02*
D03*
X118504D02*
D03*
X67669Y-148386D02*
D03*
X118504Y-136142D02*
D03*
Y-193228D02*
D03*
X93504Y-136142D02*
D03*
X67669Y-138386D02*
D03*
Y-156134D02*
D03*
Y-173952D02*
D03*
Y-191937D02*
D03*
X118504Y-141142D02*
D03*
Y-198228D02*
D03*
Y-179213D02*
D03*
Y-160039D02*
D03*
X93504Y-141142D02*
D03*
Y-198228D02*
D03*
Y-179213D02*
D03*
Y-160039D02*
D03*
Y-193228D02*
D03*
Y-174213D02*
D03*
Y-155039D02*
D03*
X118504Y-174213D02*
D03*
Y-155039D02*
D03*
X67669Y-201937D02*
D03*
Y-183952D02*
D03*
Y-166134D02*
D03*
X45669Y-191937D02*
D03*
Y-173952D02*
D03*
Y-156134D02*
D03*
Y-138386D02*
D03*
Y-148386D02*
D03*
Y-166134D02*
D03*
Y-183952D02*
D03*
Y-201937D02*
D03*
D74*
X174213Y-212402D02*
D03*
X162402D02*
D03*
D75*
X73721Y-130138D02*
D03*
Y-120138D02*
D03*
Y-125138D02*
D03*
Y-115138D02*
D03*
X73917Y-48878D02*
D03*
Y-58878D02*
D03*
Y-53878D02*
D03*
Y-101319D02*
D03*
Y-96319D02*
D03*
Y-106319D02*
D03*
Y-91319D02*
D03*
Y-77500D02*
D03*
Y-82500D02*
D03*
Y-72500D02*
D03*
Y-67500D02*
D03*
Y-43878D02*
D03*
X73819Y-30236D02*
D03*
Y-35236D02*
D03*
Y-25236D02*
D03*
Y-20236D02*
D03*
D76*
X52197Y-124938D02*
D03*
X52165Y-130266D02*
D03*
X52362Y-106447D02*
D03*
X52394Y-101119D02*
D03*
Y-77300D02*
D03*
X52362Y-82628D02*
D03*
Y-59006D02*
D03*
X52394Y-53678D02*
D03*
X52295Y-30036D02*
D03*
X52264Y-35364D02*
D03*
D77*
X55797Y-131238D02*
D03*
X55709Y-113976D02*
D03*
X55994Y-107419D02*
D03*
X55905Y-90158D02*
D03*
X55994Y-83600D02*
D03*
X55905Y-66339D02*
D03*
X55994Y-59978D02*
D03*
X55905Y-42717D02*
D03*
X55895Y-36336D02*
D03*
X55807Y-19075D02*
D03*
D78*
X65397Y-131238D02*
D03*
X65354Y-113976D02*
D03*
X65594Y-107419D02*
D03*
X65551Y-90158D02*
D03*
X65594Y-83600D02*
D03*
X65551Y-66339D02*
D03*
X65594Y-59978D02*
D03*
X65551Y-42717D02*
D03*
X65495Y-36336D02*
D03*
X65453Y-19075D02*
D03*
D79*
X52264Y-120374D02*
D03*
X52461Y-96555D02*
D03*
Y-72736D02*
D03*
Y-49114D02*
D03*
X52362Y-25473D02*
D03*
D80*
X52165Y-114961D02*
D03*
X52362Y-91142D02*
D03*
Y-67323D02*
D03*
Y-43701D02*
D03*
X52264Y-20059D02*
D03*
D81*
X143524Y-195562D02*
D03*
X148524D02*
D03*
X153524D02*
D03*
X138524D02*
D03*
Y-214854D02*
D03*
X143524D02*
D03*
X148524D02*
D03*
X153524D02*
D03*
X161417Y-118996D02*
D03*
X146417D02*
D03*
X156417Y-138287D02*
D03*
X161417D02*
D03*
X151417D02*
D03*
X146417D02*
D03*
X156417Y-118996D02*
D03*
X151417D02*
D03*
D82*
X222441Y-212598D02*
D03*
Y-197441D02*
D03*
D83*
X282677Y-116043D02*
D03*
Y-127854D02*
D03*
X191240Y-149508D02*
D03*
Y-137697D02*
D03*
X180413D02*
D03*
Y-149508D02*
D03*
X169488Y-137697D02*
D03*
Y-149508D02*
D03*
X292618Y-127854D02*
D03*
Y-116043D02*
D03*
D84*
X152563Y-182283D02*
D03*
X139563D02*
D03*
D85*
X332327Y-32687D02*
D03*
X323327Y-36437D02*
D03*
Y-28937D02*
D03*
X323326Y-95503D02*
D03*
Y-88003D02*
D03*
X332326Y-91753D02*
D03*
D86*
X215984Y-175492D02*
D03*
X191496D02*
D03*
D87*
X234154Y-35138D02*
D03*
X268406D02*
D03*
D88*
X224803Y-144980D02*
D03*
X256496Y-137106D02*
D03*
X224803Y-146949D02*
D03*
X256496Y-135138D02*
D03*
Y-144980D02*
D03*
Y-146949D02*
D03*
X224803Y-143012D02*
D03*
Y-141043D02*
D03*
Y-150886D02*
D03*
Y-135138D02*
D03*
Y-133169D02*
D03*
Y-148917D02*
D03*
X256496Y-133169D02*
D03*
X224803Y-154823D02*
D03*
X256496Y-152854D02*
D03*
Y-150886D02*
D03*
Y-154823D02*
D03*
Y-143012D02*
D03*
Y-141043D02*
D03*
Y-139075D02*
D03*
X224803Y-137106D02*
D03*
Y-139075D02*
D03*
Y-152854D02*
D03*
X256496Y-148917D02*
D03*
D89*
X251476Y-128150D02*
D03*
X243602Y-159843D02*
D03*
X249508D02*
D03*
X231791Y-128150D02*
D03*
X237697D02*
D03*
X251476Y-159843D02*
D03*
X229823Y-128150D02*
D03*
Y-159843D02*
D03*
X233760D02*
D03*
X239665D02*
D03*
X231791D02*
D03*
X235728D02*
D03*
X237697D02*
D03*
X241634D02*
D03*
X245571D02*
D03*
X247539D02*
D03*
X249508Y-128150D02*
D03*
X247539D02*
D03*
X245571D02*
D03*
X243602D02*
D03*
X241634D02*
D03*
X239665D02*
D03*
X235728D02*
D03*
X233760D02*
D03*
D90*
X307185Y-212795D02*
D03*
X320571D02*
D03*
X254134Y-212795D02*
D03*
X240748D02*
D03*
D91*
X279919Y-219685D02*
D03*
X271258Y-215945D02*
D03*
X279919Y-212205D02*
D03*
X271258D02*
D03*
Y-219685D02*
D03*
D92*
X295177Y-54114D02*
D03*
Y-69114D02*
D03*
X314469Y-59114D02*
D03*
Y-54114D02*
D03*
Y-64114D02*
D03*
Y-69114D02*
D03*
X295177Y-59114D02*
D03*
Y-64114D02*
D03*
X314469Y-40177D02*
D03*
Y-25177D02*
D03*
X295177Y-35177D02*
D03*
Y-30177D02*
D03*
X314469Y-35177D02*
D03*
Y-30177D02*
D03*
X295177Y-40177D02*
D03*
Y-25177D02*
D03*
D93*
X295374Y-99232D02*
D03*
Y-89232D02*
D03*
Y-94232D02*
D03*
Y-84232D02*
D03*
X314272Y-94232D02*
D03*
Y-89232D02*
D03*
Y-99232D02*
D03*
Y-84232D02*
D03*
X184646Y-208602D02*
D03*
Y-213602D02*
D03*
X203543D02*
D03*
X184646Y-203602D02*
D03*
X203543Y-198602D02*
D03*
Y-203602D02*
D03*
Y-208602D02*
D03*
X184646Y-198602D02*
D03*
D94*
X146752Y-30315D02*
D03*
D95*
X165256D02*
D03*
X128248D02*
D03*
D96*
X161457Y-50295D02*
D03*
X169055D02*
D03*
D97*
X149409Y-61221D02*
D03*
Y-71063D02*
D03*
D98*
X167520Y-173425D02*
D03*
Y-198031D02*
D03*
D99*
X338760Y-188287D02*
D03*
Y-195768D02*
D03*
X328878Y-192028D02*
D03*
Y-195768D02*
D03*
Y-188287D02*
D03*
X338760Y-192028D02*
D03*
D100*
X347854Y-187106D02*
D03*
Y-198917D02*
D03*
Y-196949D02*
D03*
Y-185138D02*
D03*
Y-191043D02*
D03*
Y-194980D02*
D03*
Y-189075D02*
D03*
Y-193012D02*
D03*
D101*
Y-182382D02*
D03*
Y-201673D02*
D03*
Y-179232D02*
D03*
Y-204823D02*
D03*
D102*
X291634Y-168032D02*
D03*
Y-170531D02*
D03*
Y-173031D02*
D03*
Y-175531D02*
D03*
Y-178032D02*
D03*
Y-180532D02*
D03*
Y-183031D02*
D03*
Y-185531D02*
D03*
Y-188031D02*
D03*
Y-190532D02*
D03*
Y-193032D02*
D03*
Y-195531D02*
D03*
Y-198031D02*
D03*
Y-200532D02*
D03*
X314075Y-168032D02*
D03*
Y-170531D02*
D03*
Y-173031D02*
D03*
Y-175531D02*
D03*
Y-178032D02*
D03*
Y-180532D02*
D03*
Y-183031D02*
D03*
Y-185531D02*
D03*
Y-188031D02*
D03*
Y-190532D02*
D03*
Y-193032D02*
D03*
Y-195531D02*
D03*
Y-198031D02*
D03*
Y-200532D02*
D03*
D103*
X153248Y-155905D02*
D03*
Y-150000D02*
D03*
X220079Y-60827D02*
D03*
Y-54921D02*
D03*
X193473Y-47736D02*
D03*
Y-41831D02*
D03*
X147244Y-150000D02*
D03*
Y-155905D02*
D03*
X192815Y-121063D02*
D03*
Y-115157D02*
D03*
X186713Y-121063D02*
D03*
Y-115157D02*
D03*
X198917Y-121063D02*
D03*
Y-115157D02*
D03*
X338386Y-177657D02*
D03*
Y-183563D02*
D03*
X264075Y-158661D02*
D03*
Y-152756D02*
D03*
X270768D02*
D03*
Y-158661D02*
D03*
X264075Y-163484D02*
D03*
Y-169390D02*
D03*
X148917Y-106496D02*
D03*
Y-100591D02*
D03*
X327854Y-59449D02*
D03*
Y-53543D02*
D03*
X338386Y-201279D02*
D03*
X239075Y-170669D02*
D03*
X120276Y-32677D02*
D03*
X76772Y-140551D02*
D03*
Y-146457D02*
D03*
X127362Y-135827D02*
D03*
Y-192667D02*
D03*
X338386Y-207185D02*
D03*
X251083Y-176575D02*
D03*
X81299Y-54331D02*
D03*
Y-125197D02*
D03*
Y-113386D02*
D03*
Y-101575D02*
D03*
Y-89764D02*
D03*
Y-77953D02*
D03*
Y-66142D02*
D03*
Y-42520D02*
D03*
Y-30709D02*
D03*
Y-18898D02*
D03*
X127362Y-217520D02*
D03*
Y-173721D02*
D03*
Y-154774D02*
D03*
X76772Y-214961D02*
D03*
Y-209055D02*
D03*
Y-197736D02*
D03*
Y-191831D02*
D03*
X120276Y-114764D02*
D03*
Y-120669D02*
D03*
X81299Y-119291D02*
D03*
Y-131102D02*
D03*
X76772Y-180512D02*
D03*
Y-174606D02*
D03*
Y-163287D02*
D03*
Y-157382D02*
D03*
X120276Y-93209D02*
D03*
Y-99114D02*
D03*
X81299Y-95669D02*
D03*
Y-107480D02*
D03*
X120276Y-70079D02*
D03*
Y-75984D02*
D03*
X81299Y-72047D02*
D03*
Y-83858D02*
D03*
X120276Y-60039D02*
D03*
Y-54134D02*
D03*
X81299Y-48425D02*
D03*
Y-60236D02*
D03*
X120276Y-38583D02*
D03*
X81299Y-24803D02*
D03*
Y-36614D02*
D03*
X181890Y-192323D02*
D03*
X251083Y-170669D02*
D03*
X245079Y-170669D02*
D03*
X239075Y-176575D02*
D03*
X127362Y-141732D02*
D03*
Y-179626D02*
D03*
Y-198573D02*
D03*
Y-211614D02*
D03*
X245079Y-176575D02*
D03*
X127362Y-160679D02*
D03*
X181890Y-186417D02*
D03*
D104*
X168504Y-77362D02*
D03*
Y-75394D02*
D03*
X213779Y-73425D02*
D03*
Y-75394D02*
D03*
X168504Y-67520D02*
D03*
Y-73425D02*
D03*
Y-71457D02*
D03*
Y-89173D02*
D03*
X213779Y-69488D02*
D03*
X168504Y-79331D02*
D03*
Y-91142D02*
D03*
X213779Y-67520D02*
D03*
Y-71457D02*
D03*
Y-77362D02*
D03*
Y-79331D02*
D03*
Y-81299D02*
D03*
Y-83268D02*
D03*
Y-85236D02*
D03*
Y-87205D02*
D03*
Y-89173D02*
D03*
Y-91142D02*
D03*
Y-93110D02*
D03*
Y-95079D02*
D03*
Y-97047D02*
D03*
X168504Y-69488D02*
D03*
Y-81299D02*
D03*
Y-83268D02*
D03*
Y-85236D02*
D03*
Y-87205D02*
D03*
Y-93110D02*
D03*
Y-95079D02*
D03*
Y-97047D02*
D03*
D105*
X178347Y-104921D02*
D03*
X203937D02*
D03*
X178347Y-59646D02*
D03*
X184252D02*
D03*
X180315Y-104921D02*
D03*
X205906D02*
D03*
X176378Y-59646D02*
D03*
X180315D02*
D03*
X182283D02*
D03*
X186221D02*
D03*
X188189D02*
D03*
X190157D02*
D03*
X192126D02*
D03*
X194095D02*
D03*
X196063D02*
D03*
X198031D02*
D03*
X200000D02*
D03*
X201969D02*
D03*
X203937D02*
D03*
X205906D02*
D03*
X201969Y-104921D02*
D03*
X200000D02*
D03*
X198031D02*
D03*
X196063D02*
D03*
X194095D02*
D03*
X192126D02*
D03*
X190157D02*
D03*
X188189D02*
D03*
X186221D02*
D03*
X184252D02*
D03*
X182283D02*
D03*
X176378D02*
D03*
D106*
X328248Y-175197D02*
D03*
X322342D02*
D03*
X275295Y-193996D02*
D03*
X281201D02*
D03*
X266339Y-145276D02*
D03*
X272244D02*
D03*
X214961Y-127264D02*
D03*
X209055D02*
D03*
X329232Y-82511D02*
D03*
X323326D02*
D03*
Y-100917D02*
D03*
X213091Y-34843D02*
D03*
X108858Y-129134D02*
D03*
X193799Y-191732D02*
D03*
X231594Y-121161D02*
D03*
X148721Y-172343D02*
D03*
X207185Y-34843D02*
D03*
X266142Y-127165D02*
D03*
Y-121161D02*
D03*
X213091Y-40846D02*
D03*
X114370Y-186221D02*
D03*
X114764Y-129134D02*
D03*
Y-204921D02*
D03*
Y-167520D02*
D03*
Y-148031D02*
D03*
X108858Y-204921D02*
D03*
X108465Y-186221D02*
D03*
X108858Y-167520D02*
D03*
Y-148031D02*
D03*
X142815Y-172343D02*
D03*
X272047Y-121161D02*
D03*
Y-127165D02*
D03*
X187894Y-191732D02*
D03*
X237500Y-121161D02*
D03*
X272244Y-139173D02*
D03*
X207185Y-40846D02*
D03*
X266339Y-139173D02*
D03*
X329232Y-100917D02*
D03*
D107*
X205906Y-120965D02*
D03*
Y-115059D02*
D03*
X155020Y-100492D02*
D03*
Y-106398D02*
D03*
X233071Y-170669D02*
D03*
X328740Y-146653D02*
D03*
X316929D02*
D03*
X322835D02*
D03*
Y-152559D02*
D03*
X307874Y-132480D02*
D03*
Y-138386D02*
D03*
X328740Y-152559D02*
D03*
X316929D02*
D03*
X307874Y-125394D02*
D03*
X161122Y-106398D02*
D03*
X257087Y-176476D02*
D03*
X233071Y-176575D02*
D03*
X180315Y-121063D02*
D03*
X213878Y-55118D02*
D03*
X176476Y-42126D02*
D03*
X161122Y-100492D02*
D03*
X257087Y-170571D02*
D03*
X180315Y-115157D02*
D03*
X213878Y-61024D02*
D03*
X176476Y-48031D02*
D03*
X307874Y-119488D02*
D03*
D108*
X226388Y-32929D02*
D03*
X218888D02*
D03*
X222638Y-41929D02*
D03*
D109*
X354823Y-65354D02*
D03*
X344980D02*
D03*
X354823Y-120472D02*
D03*
X344980D02*
D03*
X354823Y-106693D02*
D03*
X344980D02*
D03*
X354823Y-92913D02*
D03*
X344980D02*
D03*
X354823Y-79134D02*
D03*
X344980D02*
D03*
X354823Y-37795D02*
D03*
X344980D02*
D03*
X354823Y-51575D02*
D03*
X344980D02*
D03*
X354823Y-134252D02*
D03*
X344980D02*
D03*
D110*
X187736Y-21457D02*
D03*
X207736D02*
D03*
X197736D02*
D03*
X217736D02*
D03*
X239409Y-111713D02*
D03*
X259409D02*
D03*
X249410D02*
D03*
X269409D02*
D03*
D111*
X177736Y-21457D02*
D03*
X229410Y-111713D02*
D03*
D112*
X29528Y-193898D02*
D03*
X19685Y-180118D02*
D03*
Y-166339D02*
D03*
Y-152559D02*
D03*
Y-138779D02*
D03*
Y-125000D02*
D03*
X29528Y-97441D02*
D03*
X19685Y-97441D02*
D03*
X29528Y-83661D02*
D03*
X19685D02*
D03*
X29528Y-69882D02*
D03*
X19685D02*
D03*
X29528Y-56102D02*
D03*
X19685D02*
D03*
X29528Y-42323D02*
D03*
X19685D02*
D03*
Y-111221D02*
D03*
Y-193898D02*
D03*
X29528Y-180118D02*
D03*
Y-166339D02*
D03*
Y-152559D02*
D03*
Y-138779D02*
D03*
Y-125000D02*
D03*
Y-111221D02*
D03*
D113*
X353543Y-180650D02*
D03*
Y-203405D02*
D03*
D114*
X367913Y-175020D02*
D03*
Y-209035D02*
D03*
X351457Y-175020D02*
D03*
Y-209035D02*
D03*
M02*
