G04*
G04 #@! TF.GenerationSoftware,Altium Limited,Altium Designer,24.4.1 (13)*
G04*
G04 Layer_Color=8421504*
%FSLAX25Y25*%
%MOIN*%
G70*
G04*
G04 #@! TF.SameCoordinates,A9874F04-4083-4E43-9FC9-20C7E77B936A*
G04*
G04*
G04 #@! TF.FilePolarity,Positive*
G04*
G01*
G75*
%ADD23R,0.05118X0.02756*%
%ADD24R,0.03150X0.03150*%
%ADD25R,0.04724X0.05512*%
%ADD26R,0.04724X0.05512*%
%ADD27R,0.05512X0.04724*%
%ADD28R,0.05512X0.04724*%
%ADD29R,0.04528X0.03543*%
%ADD30R,0.08000X0.02600*%
%ADD31R,0.04528X0.07087*%
%ADD32R,0.04921X0.02559*%
%ADD33R,0.03937X0.02854*%
%ADD34R,0.03150X0.03937*%
%ADD35R,0.03071X0.03937*%
%ADD36R,0.03976X0.02854*%
%ADD37R,0.03937X0.02815*%
%ADD38O,0.02756X0.09843*%
G04:AMPARAMS|DCode=39|XSize=216.54mil|YSize=84.65mil|CornerRadius=21.16mil|HoleSize=0mil|Usage=FLASHONLY|Rotation=180.000|XOffset=0mil|YOffset=0mil|HoleType=Round|Shape=RoundedRectangle|*
%AMROUNDEDRECTD39*
21,1,0.21654,0.04232,0,0,180.0*
21,1,0.17421,0.08465,0,0,180.0*
1,1,0.04232,-0.08711,0.02116*
1,1,0.04232,0.08711,0.02116*
1,1,0.04232,0.08711,-0.02116*
1,1,0.04232,-0.08711,-0.02116*
%
%ADD39ROUNDEDRECTD39*%
%ADD40R,0.07087X0.04528*%
%ADD41R,0.04921X0.07874*%
%ADD42R,0.03000X0.03000*%
%ADD43R,0.09055X0.09921*%
%ADD44R,0.05118X0.13386*%
%ADD45O,0.06102X0.00984*%
%ADD46O,0.00984X0.06102*%
%ADD47R,0.06299X0.03150*%
G04:AMPARAMS|DCode=48|XSize=41.73mil|YSize=25.59mil|CornerRadius=6.4mil|HoleSize=0mil|Usage=FLASHONLY|Rotation=0.000|XOffset=0mil|YOffset=0mil|HoleType=Round|Shape=RoundedRectangle|*
%AMROUNDEDRECTD48*
21,1,0.04173,0.01280,0,0,0.0*
21,1,0.02894,0.02559,0,0,0.0*
1,1,0.01280,0.01447,-0.00640*
1,1,0.01280,-0.01447,-0.00640*
1,1,0.01280,-0.01447,0.00640*
1,1,0.01280,0.01447,0.00640*
%
%ADD48ROUNDEDRECTD48*%
%ADD49R,0.01200X0.04575*%
%ADD50O,0.09843X0.02756*%
%ADD51O,0.08661X0.02362*%
%ADD52R,0.07008X0.20000*%
%ADD53R,0.03110X0.01063*%
%ADD54R,0.07087X0.03937*%
%ADD55R,0.09488X0.09331*%
G04:AMPARAMS|DCode=56|XSize=47.64mil|YSize=23.23mil|CornerRadius=2.9mil|HoleSize=0mil|Usage=FLASHONLY|Rotation=0.000|XOffset=0mil|YOffset=0mil|HoleType=Round|Shape=RoundedRectangle|*
%AMROUNDEDRECTD56*
21,1,0.04764,0.01742,0,0,0.0*
21,1,0.04183,0.02323,0,0,0.0*
1,1,0.00581,0.02092,-0.00871*
1,1,0.00581,-0.02092,-0.00871*
1,1,0.00581,-0.02092,0.00871*
1,1,0.00581,0.02092,0.00871*
%
%ADD56ROUNDEDRECTD56*%
%ADD57R,0.05709X0.01181*%
%ADD58R,0.05709X0.02362*%
%ADD59R,0.05118X0.01181*%
%ADD60R,0.03543X0.02362*%
G04:AMPARAMS|DCode=61|XSize=11.81mil|YSize=47.24mil|CornerRadius=1.77mil|HoleSize=0mil|Usage=FLASHONLY|Rotation=90.000|XOffset=0mil|YOffset=0mil|HoleType=Round|Shape=RoundedRectangle|*
%AMROUNDEDRECTD61*
21,1,0.01181,0.04370,0,0,90.0*
21,1,0.00827,0.04724,0,0,90.0*
1,1,0.00354,0.02185,0.00413*
1,1,0.00354,0.02185,-0.00413*
1,1,0.00354,-0.02185,-0.00413*
1,1,0.00354,-0.02185,0.00413*
%
%ADD61ROUNDEDRECTD61*%
G04:AMPARAMS|DCode=62|XSize=11.81mil|YSize=47.24mil|CornerRadius=1.77mil|HoleSize=0mil|Usage=FLASHONLY|Rotation=180.000|XOffset=0mil|YOffset=0mil|HoleType=Round|Shape=RoundedRectangle|*
%AMROUNDEDRECTD62*
21,1,0.01181,0.04370,0,0,180.0*
21,1,0.00827,0.04724,0,0,180.0*
1,1,0.00354,-0.00413,0.02185*
1,1,0.00354,0.00413,0.02185*
1,1,0.00354,0.00413,-0.02185*
1,1,0.00354,-0.00413,-0.02185*
%
%ADD62ROUNDEDRECTD62*%
%ADD63R,0.02362X0.03543*%
%ADD64R,0.03150X0.03150*%
%ADD65R,0.03000X0.03000*%
G36*
X66929Y-131693D02*
Y-133268D01*
X63779D01*
Y-131693D01*
X57382D01*
Y-133268D01*
X54134D01*
Y-131693D01*
X50197D01*
Y-128839D01*
X52362D01*
Y-126378D01*
X50197D01*
Y-123425D01*
X66929D01*
Y-131693D01*
D02*
G37*
G36*
Y-113583D02*
Y-121850D01*
X50197D01*
Y-118898D01*
X52362D01*
Y-116437D01*
X50197D01*
Y-113583D01*
X54134D01*
Y-112008D01*
X57382D01*
Y-113583D01*
X63779D01*
Y-112008D01*
X66929D01*
Y-113583D01*
D02*
G37*
G36*
X67126Y-107874D02*
Y-109449D01*
X63976D01*
Y-107874D01*
X57579D01*
Y-109449D01*
X54331D01*
Y-107874D01*
X50394D01*
Y-105020D01*
X52559D01*
Y-102559D01*
X50394D01*
Y-99606D01*
X67126D01*
Y-107874D01*
D02*
G37*
G36*
Y-89764D02*
Y-98032D01*
X50394D01*
Y-95079D01*
X52559D01*
Y-92618D01*
X50394D01*
Y-89764D01*
X54331D01*
Y-88189D01*
X57579D01*
Y-89764D01*
X63976D01*
Y-88189D01*
X67126D01*
Y-89764D01*
D02*
G37*
G36*
Y-84055D02*
Y-85630D01*
X63976D01*
Y-84055D01*
X57579D01*
Y-85630D01*
X54331D01*
Y-84055D01*
X50394D01*
Y-81201D01*
X52559D01*
Y-78740D01*
X50394D01*
Y-75787D01*
X67126D01*
Y-84055D01*
D02*
G37*
G36*
Y-65945D02*
Y-74213D01*
X50394D01*
Y-71260D01*
X52559D01*
Y-68799D01*
X50394D01*
Y-65945D01*
X54331D01*
Y-64370D01*
X57579D01*
Y-65945D01*
X63976D01*
Y-64370D01*
X67126D01*
Y-65945D01*
D02*
G37*
G36*
Y-60433D02*
Y-62008D01*
X63976D01*
Y-60433D01*
X57579D01*
Y-62008D01*
X54331D01*
Y-60433D01*
X50394D01*
Y-57579D01*
X52559D01*
Y-55118D01*
X50394D01*
Y-52165D01*
X67126D01*
Y-60433D01*
D02*
G37*
G36*
Y-42323D02*
Y-50591D01*
X50394D01*
Y-47638D01*
X52559D01*
Y-45177D01*
X50394D01*
Y-42323D01*
X54331D01*
Y-40748D01*
X57579D01*
Y-42323D01*
X63976D01*
Y-40748D01*
X67126D01*
Y-42323D01*
D02*
G37*
G36*
X67028Y-36791D02*
Y-38366D01*
X63878D01*
Y-36791D01*
X57480D01*
Y-38366D01*
X54232D01*
Y-36791D01*
X50295D01*
Y-33937D01*
X52461D01*
Y-31477D01*
X50295D01*
Y-28524D01*
X67028D01*
Y-36791D01*
D02*
G37*
G36*
Y-18681D02*
Y-26949D01*
X50295D01*
Y-23996D01*
X52461D01*
Y-21535D01*
X50295D01*
Y-18681D01*
X54232D01*
Y-17106D01*
X57480D01*
Y-18681D01*
X63878D01*
Y-17106D01*
X67028D01*
Y-18681D01*
D02*
G37*
D23*
X84449Y-143307D02*
D03*
Y-135827D02*
D03*
Y-150394D02*
D03*
Y-157874D02*
D03*
X84055Y-167913D02*
D03*
Y-175394D02*
D03*
Y-186614D02*
D03*
Y-194095D02*
D03*
Y-205118D02*
D03*
Y-212598D02*
D03*
D24*
X134941Y-71063D02*
D03*
X140847D02*
D03*
X162402Y-55905D02*
D03*
X168307D02*
D03*
X322244Y-163091D02*
D03*
X328150D02*
D03*
Y-169095D02*
D03*
X322244D02*
D03*
X226181Y-121161D02*
D03*
X220276D02*
D03*
X301969Y-47343D02*
D03*
X307874D02*
D03*
Y-18701D02*
D03*
X301969D02*
D03*
X137500Y-79429D02*
D03*
Y-89272D02*
D03*
X140847Y-61024D02*
D03*
X286024Y-220866D02*
D03*
X96850Y-129134D02*
D03*
X204232Y-156890D02*
D03*
X210138Y-133366D02*
D03*
X134941Y-61024D02*
D03*
X301772Y-77264D02*
D03*
X258071Y-220866D02*
D03*
X291929Y-215354D02*
D03*
Y-220866D02*
D03*
X131595Y-79429D02*
D03*
Y-89272D02*
D03*
X272047Y-133169D02*
D03*
X205807Y-191732D02*
D03*
X102756Y-204921D02*
D03*
Y-129134D02*
D03*
X102362Y-186221D02*
D03*
X102756Y-167323D02*
D03*
Y-148228D02*
D03*
X96850Y-204921D02*
D03*
X96457Y-186221D02*
D03*
X96850Y-167323D02*
D03*
Y-148228D02*
D03*
X199902Y-191732D02*
D03*
X210138Y-156890D02*
D03*
X204232Y-133366D02*
D03*
X286024Y-215354D02*
D03*
X266142Y-133169D02*
D03*
X307677Y-77264D02*
D03*
X263976Y-220866D02*
D03*
D25*
X210236Y-140847D02*
D03*
Y-149508D02*
D03*
X203937Y-140847D02*
D03*
X151378Y-79921D02*
D03*
Y-88583D02*
D03*
X145079Y-79921D02*
D03*
D26*
X203937Y-149508D02*
D03*
X145079Y-88583D02*
D03*
D27*
X308563Y-156890D02*
D03*
X299902D02*
D03*
X308563Y-150591D02*
D03*
D28*
X299902D02*
D03*
D29*
X89862Y-110827D02*
D03*
X114468D02*
D03*
Y-120827D02*
D03*
X89862D02*
D03*
Y-76437D02*
D03*
X114468D02*
D03*
X89862Y-66437D02*
D03*
X114468D02*
D03*
Y-32047D02*
D03*
X89862Y-44242D02*
D03*
X114468Y-88632D02*
D03*
Y-44242D02*
D03*
Y-22047D02*
D03*
X89862Y-88632D02*
D03*
Y-22047D02*
D03*
X114468Y-98632D02*
D03*
X89862D02*
D03*
X114468Y-54242D02*
D03*
X89862D02*
D03*
Y-32047D02*
D03*
D30*
X67669Y-209685D02*
D03*
Y-219685D02*
D03*
X45669Y-209685D02*
D03*
Y-219685D02*
D03*
X118504Y-216614D02*
D03*
X93504D02*
D03*
Y-211614D02*
D03*
X118504D02*
D03*
X67669Y-148386D02*
D03*
X118504Y-136142D02*
D03*
Y-193228D02*
D03*
X93504Y-136142D02*
D03*
X67669Y-138386D02*
D03*
Y-156134D02*
D03*
Y-173952D02*
D03*
Y-191937D02*
D03*
X118504Y-141142D02*
D03*
Y-198228D02*
D03*
Y-179213D02*
D03*
Y-160039D02*
D03*
X93504Y-141142D02*
D03*
Y-198228D02*
D03*
Y-179213D02*
D03*
Y-160039D02*
D03*
Y-193228D02*
D03*
Y-174213D02*
D03*
Y-155039D02*
D03*
X118504Y-174213D02*
D03*
Y-155039D02*
D03*
X67669Y-201937D02*
D03*
Y-183952D02*
D03*
Y-166134D02*
D03*
X45669Y-191937D02*
D03*
Y-173952D02*
D03*
Y-156134D02*
D03*
Y-138386D02*
D03*
Y-148386D02*
D03*
Y-166134D02*
D03*
Y-183952D02*
D03*
Y-201937D02*
D03*
D31*
X174213Y-212402D02*
D03*
X162402D02*
D03*
D32*
X73721Y-130138D02*
D03*
Y-120138D02*
D03*
X60433Y-127362D02*
D03*
Y-117913D02*
D03*
X73721Y-125138D02*
D03*
Y-115138D02*
D03*
X73917Y-48878D02*
D03*
Y-58878D02*
D03*
Y-53878D02*
D03*
X60630Y-103543D02*
D03*
Y-94095D02*
D03*
Y-79724D02*
D03*
Y-70276D02*
D03*
Y-56102D02*
D03*
Y-46654D02*
D03*
X60532Y-32461D02*
D03*
Y-23012D02*
D03*
X73917Y-101319D02*
D03*
Y-96319D02*
D03*
Y-106319D02*
D03*
Y-91319D02*
D03*
Y-77500D02*
D03*
Y-82500D02*
D03*
Y-72500D02*
D03*
Y-67500D02*
D03*
Y-43878D02*
D03*
X73819Y-30236D02*
D03*
Y-35236D02*
D03*
Y-25236D02*
D03*
Y-20236D02*
D03*
D33*
X52197Y-124938D02*
D03*
X52165Y-130266D02*
D03*
X52362Y-106447D02*
D03*
X52394Y-101119D02*
D03*
Y-77300D02*
D03*
X52362Y-82628D02*
D03*
Y-59006D02*
D03*
X52394Y-53678D02*
D03*
X52295Y-30036D02*
D03*
X52264Y-35364D02*
D03*
D34*
X55797Y-131238D02*
D03*
X55709Y-113976D02*
D03*
X55994Y-107419D02*
D03*
X55905Y-90158D02*
D03*
X55994Y-83600D02*
D03*
X55905Y-66339D02*
D03*
X55994Y-59978D02*
D03*
X55905Y-42717D02*
D03*
X55895Y-36336D02*
D03*
X55807Y-19075D02*
D03*
D35*
X65397Y-131238D02*
D03*
X65354Y-113976D02*
D03*
X65594Y-107419D02*
D03*
X65551Y-90158D02*
D03*
X65594Y-83600D02*
D03*
X65551Y-66339D02*
D03*
X65594Y-59978D02*
D03*
X65551Y-42717D02*
D03*
X65495Y-36336D02*
D03*
X65453Y-19075D02*
D03*
D36*
X52264Y-120374D02*
D03*
X52461Y-96555D02*
D03*
Y-72736D02*
D03*
Y-49114D02*
D03*
X52362Y-25473D02*
D03*
D37*
X52165Y-114961D02*
D03*
X52362Y-91142D02*
D03*
Y-67323D02*
D03*
Y-43701D02*
D03*
X52264Y-20059D02*
D03*
D38*
X143524Y-195562D02*
D03*
X148524D02*
D03*
X153524D02*
D03*
X138524D02*
D03*
Y-214854D02*
D03*
X143524D02*
D03*
X148524D02*
D03*
X153524D02*
D03*
X161417Y-118996D02*
D03*
X146417D02*
D03*
X156417Y-138287D02*
D03*
X161417D02*
D03*
X151417D02*
D03*
X146417D02*
D03*
X156417Y-118996D02*
D03*
X151417D02*
D03*
D39*
X222441Y-212598D02*
D03*
Y-197441D02*
D03*
D40*
X282677Y-116043D02*
D03*
Y-127854D02*
D03*
X191240Y-149508D02*
D03*
Y-137697D02*
D03*
X180413D02*
D03*
Y-149508D02*
D03*
X169488Y-137697D02*
D03*
Y-149508D02*
D03*
X292618Y-127854D02*
D03*
Y-116043D02*
D03*
D41*
X152563Y-182283D02*
D03*
X139563D02*
D03*
D42*
X332327Y-32687D02*
D03*
X323327Y-36437D02*
D03*
Y-28937D02*
D03*
X323326Y-95503D02*
D03*
Y-88003D02*
D03*
X332326Y-91753D02*
D03*
D43*
X215984Y-175492D02*
D03*
X191496D02*
D03*
D44*
X234154Y-35138D02*
D03*
X268406D02*
D03*
D45*
X224803Y-144980D02*
D03*
X256496Y-137106D02*
D03*
X224803Y-146949D02*
D03*
X256496Y-135138D02*
D03*
Y-144980D02*
D03*
Y-146949D02*
D03*
X224803Y-143012D02*
D03*
Y-141043D02*
D03*
Y-150886D02*
D03*
Y-135138D02*
D03*
Y-133169D02*
D03*
Y-148917D02*
D03*
X256496Y-133169D02*
D03*
X224803Y-154823D02*
D03*
X256496Y-152854D02*
D03*
Y-150886D02*
D03*
Y-154823D02*
D03*
Y-143012D02*
D03*
Y-141043D02*
D03*
Y-139075D02*
D03*
X224803Y-137106D02*
D03*
Y-139075D02*
D03*
Y-152854D02*
D03*
X256496Y-148917D02*
D03*
D46*
X251476Y-128150D02*
D03*
X243602Y-159843D02*
D03*
X249508D02*
D03*
X231791Y-128150D02*
D03*
X237697D02*
D03*
X251476Y-159843D02*
D03*
X229823Y-128150D02*
D03*
Y-159843D02*
D03*
X233760D02*
D03*
X239665D02*
D03*
X231791D02*
D03*
X235728D02*
D03*
X237697D02*
D03*
X241634D02*
D03*
X245571D02*
D03*
X247539D02*
D03*
X249508Y-128150D02*
D03*
X247539D02*
D03*
X245571D02*
D03*
X243602D02*
D03*
X241634D02*
D03*
X239665D02*
D03*
X235728D02*
D03*
X233760D02*
D03*
D47*
X307185Y-212795D02*
D03*
X320571D02*
D03*
X254134Y-212795D02*
D03*
X240748D02*
D03*
D48*
X279919Y-219685D02*
D03*
X271258Y-215945D02*
D03*
X279919Y-212205D02*
D03*
X271258D02*
D03*
Y-219685D02*
D03*
D49*
X325394Y-115976D02*
D03*
X327953D02*
D03*
X330512D02*
D03*
X333071D02*
D03*
X330512Y-138583D02*
D03*
X322835Y-115976D02*
D03*
X320276D02*
D03*
X327953Y-138583D02*
D03*
X317717D02*
D03*
X325394D02*
D03*
X322835D02*
D03*
X320276D02*
D03*
X315158D02*
D03*
X333071D02*
D03*
X317717Y-115976D02*
D03*
X315158D02*
D03*
D50*
X295177Y-54114D02*
D03*
Y-69114D02*
D03*
X314469Y-59114D02*
D03*
Y-54114D02*
D03*
Y-64114D02*
D03*
Y-69114D02*
D03*
X295177Y-59114D02*
D03*
Y-64114D02*
D03*
X314469Y-40177D02*
D03*
Y-25177D02*
D03*
X295177Y-35177D02*
D03*
Y-30177D02*
D03*
X314469Y-35177D02*
D03*
Y-30177D02*
D03*
X295177Y-40177D02*
D03*
Y-25177D02*
D03*
D51*
X295374Y-99232D02*
D03*
Y-89232D02*
D03*
Y-94232D02*
D03*
Y-84232D02*
D03*
X314272Y-94232D02*
D03*
Y-89232D02*
D03*
Y-99232D02*
D03*
Y-84232D02*
D03*
X184646Y-208602D02*
D03*
Y-213602D02*
D03*
X203543D02*
D03*
X184646Y-203602D02*
D03*
X203543Y-198602D02*
D03*
Y-203602D02*
D03*
Y-208602D02*
D03*
X184646Y-198602D02*
D03*
D52*
X165256Y-30315D02*
D03*
X128248D02*
D03*
D53*
X161457Y-50295D02*
D03*
X169055D02*
D03*
D54*
X149409Y-61221D02*
D03*
Y-71063D02*
D03*
D55*
X167520Y-173425D02*
D03*
Y-198031D02*
D03*
D56*
X338760Y-188287D02*
D03*
Y-195768D02*
D03*
X328878Y-192028D02*
D03*
Y-195768D02*
D03*
Y-188287D02*
D03*
X338760Y-192028D02*
D03*
D57*
X347854Y-187106D02*
D03*
Y-198917D02*
D03*
Y-196949D02*
D03*
Y-185138D02*
D03*
Y-191043D02*
D03*
Y-194980D02*
D03*
Y-189075D02*
D03*
Y-193012D02*
D03*
D58*
Y-182382D02*
D03*
Y-201673D02*
D03*
Y-179232D02*
D03*
Y-204823D02*
D03*
D59*
X291634Y-168032D02*
D03*
Y-170531D02*
D03*
Y-173031D02*
D03*
Y-175531D02*
D03*
Y-178032D02*
D03*
Y-180532D02*
D03*
Y-183031D02*
D03*
Y-185531D02*
D03*
Y-188031D02*
D03*
Y-190532D02*
D03*
Y-193032D02*
D03*
Y-195531D02*
D03*
Y-198031D02*
D03*
Y-200532D02*
D03*
X314075Y-168032D02*
D03*
Y-170531D02*
D03*
Y-173031D02*
D03*
Y-175531D02*
D03*
Y-178032D02*
D03*
Y-180532D02*
D03*
Y-183031D02*
D03*
Y-185531D02*
D03*
Y-188031D02*
D03*
Y-190532D02*
D03*
Y-193032D02*
D03*
Y-195531D02*
D03*
Y-198031D02*
D03*
Y-200532D02*
D03*
D60*
X153248Y-155905D02*
D03*
Y-150000D02*
D03*
X220079Y-60827D02*
D03*
Y-54921D02*
D03*
X193473Y-47736D02*
D03*
Y-41831D02*
D03*
X147244Y-150000D02*
D03*
Y-155905D02*
D03*
X192815Y-121063D02*
D03*
Y-115157D02*
D03*
X186713Y-121063D02*
D03*
Y-115157D02*
D03*
X198917Y-121063D02*
D03*
Y-115157D02*
D03*
X338386Y-177657D02*
D03*
Y-183563D02*
D03*
X264075Y-158661D02*
D03*
Y-152756D02*
D03*
X270768D02*
D03*
Y-158661D02*
D03*
X264075Y-163484D02*
D03*
Y-169390D02*
D03*
X148917Y-106496D02*
D03*
Y-100591D02*
D03*
X327854Y-59449D02*
D03*
Y-53543D02*
D03*
X338386Y-201279D02*
D03*
X239075Y-170669D02*
D03*
X120276Y-32677D02*
D03*
X76772Y-140551D02*
D03*
Y-146457D02*
D03*
X127362Y-135827D02*
D03*
Y-192667D02*
D03*
X338386Y-207185D02*
D03*
X251083Y-176575D02*
D03*
X81299Y-54331D02*
D03*
Y-125197D02*
D03*
Y-113386D02*
D03*
Y-101575D02*
D03*
Y-89764D02*
D03*
Y-77953D02*
D03*
Y-66142D02*
D03*
Y-42520D02*
D03*
Y-30709D02*
D03*
Y-18898D02*
D03*
X127362Y-217520D02*
D03*
Y-173721D02*
D03*
Y-154774D02*
D03*
X76772Y-214961D02*
D03*
Y-209055D02*
D03*
Y-197736D02*
D03*
Y-191831D02*
D03*
X120276Y-114764D02*
D03*
Y-120669D02*
D03*
X81299Y-119291D02*
D03*
Y-131102D02*
D03*
X76772Y-180512D02*
D03*
Y-174606D02*
D03*
Y-163287D02*
D03*
Y-157382D02*
D03*
X120276Y-93209D02*
D03*
Y-99114D02*
D03*
X81299Y-95669D02*
D03*
Y-107480D02*
D03*
X120276Y-70079D02*
D03*
Y-75984D02*
D03*
X81299Y-72047D02*
D03*
Y-83858D02*
D03*
X120276Y-60039D02*
D03*
Y-54134D02*
D03*
X81299Y-48425D02*
D03*
Y-60236D02*
D03*
X120276Y-38583D02*
D03*
X81299Y-24803D02*
D03*
Y-36614D02*
D03*
X181890Y-192323D02*
D03*
X251083Y-170669D02*
D03*
X245079Y-170669D02*
D03*
X239075Y-176575D02*
D03*
X127362Y-141732D02*
D03*
Y-179626D02*
D03*
Y-198573D02*
D03*
Y-211614D02*
D03*
X245079Y-176575D02*
D03*
X127362Y-160679D02*
D03*
X181890Y-186417D02*
D03*
D61*
X168504Y-77362D02*
D03*
Y-75394D02*
D03*
X213779Y-73425D02*
D03*
Y-75394D02*
D03*
X168504Y-67520D02*
D03*
Y-73425D02*
D03*
Y-71457D02*
D03*
Y-89173D02*
D03*
X213779Y-69488D02*
D03*
X168504Y-79331D02*
D03*
Y-91142D02*
D03*
X213779Y-67520D02*
D03*
Y-71457D02*
D03*
Y-77362D02*
D03*
Y-79331D02*
D03*
Y-81299D02*
D03*
Y-83268D02*
D03*
Y-85236D02*
D03*
Y-87205D02*
D03*
Y-89173D02*
D03*
Y-91142D02*
D03*
Y-93110D02*
D03*
Y-95079D02*
D03*
Y-97047D02*
D03*
X168504Y-69488D02*
D03*
Y-81299D02*
D03*
Y-83268D02*
D03*
Y-85236D02*
D03*
Y-87205D02*
D03*
Y-93110D02*
D03*
Y-95079D02*
D03*
Y-97047D02*
D03*
D62*
X178347Y-104921D02*
D03*
X203937D02*
D03*
X178347Y-59646D02*
D03*
X184252D02*
D03*
X180315Y-104921D02*
D03*
X205906D02*
D03*
X176378Y-59646D02*
D03*
X180315D02*
D03*
X182283D02*
D03*
X186221D02*
D03*
X188189D02*
D03*
X190157D02*
D03*
X192126D02*
D03*
X194095D02*
D03*
X196063D02*
D03*
X198031D02*
D03*
X200000D02*
D03*
X201969D02*
D03*
X203937D02*
D03*
X205906D02*
D03*
X201969Y-104921D02*
D03*
X200000D02*
D03*
X198031D02*
D03*
X196063D02*
D03*
X194095D02*
D03*
X192126D02*
D03*
X190157D02*
D03*
X188189D02*
D03*
X186221D02*
D03*
X184252D02*
D03*
X182283D02*
D03*
X176378D02*
D03*
D63*
X328248Y-175197D02*
D03*
X322342D02*
D03*
X275295Y-193996D02*
D03*
X281201D02*
D03*
X266339Y-145276D02*
D03*
X272244D02*
D03*
X214961Y-127264D02*
D03*
X209055D02*
D03*
X329232Y-82511D02*
D03*
X323326D02*
D03*
Y-100917D02*
D03*
X213091Y-34843D02*
D03*
X108858Y-129134D02*
D03*
X193799Y-191732D02*
D03*
X231594Y-121161D02*
D03*
X148721Y-172343D02*
D03*
X207185Y-34843D02*
D03*
X266142Y-127165D02*
D03*
Y-121161D02*
D03*
X213091Y-40846D02*
D03*
X114370Y-186221D02*
D03*
X114764Y-129134D02*
D03*
Y-204921D02*
D03*
Y-167520D02*
D03*
Y-148031D02*
D03*
X108858Y-204921D02*
D03*
X108465Y-186221D02*
D03*
X108858Y-167520D02*
D03*
Y-148031D02*
D03*
X142815Y-172343D02*
D03*
X272047Y-121161D02*
D03*
Y-127165D02*
D03*
X187894Y-191732D02*
D03*
X237500Y-121161D02*
D03*
X272244Y-139173D02*
D03*
X207185Y-40846D02*
D03*
X266339Y-139173D02*
D03*
X329232Y-100917D02*
D03*
D64*
X205906Y-120965D02*
D03*
Y-115059D02*
D03*
X155020Y-100492D02*
D03*
Y-106398D02*
D03*
X233071Y-170669D02*
D03*
X328740Y-146653D02*
D03*
X316929D02*
D03*
X322835D02*
D03*
Y-152559D02*
D03*
X307874Y-132480D02*
D03*
Y-138386D02*
D03*
X328740Y-152559D02*
D03*
X316929D02*
D03*
X307874Y-125394D02*
D03*
X161122Y-106398D02*
D03*
X257087Y-176476D02*
D03*
X233071Y-176575D02*
D03*
X180315Y-121063D02*
D03*
X213878Y-55118D02*
D03*
X176476Y-42126D02*
D03*
X161122Y-100492D02*
D03*
X257087Y-170571D02*
D03*
X180315Y-115157D02*
D03*
X213878Y-61024D02*
D03*
X176476Y-48031D02*
D03*
X307874Y-119488D02*
D03*
D65*
X226388Y-32929D02*
D03*
X218888D02*
D03*
X222638Y-41929D02*
D03*
M02*
