ISO-10303-21;
HEADER;
/* Generated by software containing ST-Developer
 * from STEP Tools, Inc. (www.steptools.com) 
 */

FILE_DESCRIPTION(
/* description */ ('',
'CAx-IF Rec.Pracs.---Representation and Presentation of Product Manufa
cturing Information (PMI)---4.0---2014-10-13'),
/* implementation_level */ '2;1');

FILE_NAME(
/* name */ 'flat_12.12.24.step',
/* time_stamp */ '2024-12-12T08:54:41+03:00',
/* author */ (''),
/* organization */ (''),
/* preprocessor_version */ 'ST-DEVELOPER v20',
/* originating_system */ 'Autodesk Translation Framework v13.20.0.188',

/* authorisation */ '');

FILE_SCHEMA (('AP242_MANAGED_MODEL_BASED_3D_ENGINEERING_MIM_LF { 1 0 10303 442 1 1 4 }'));
ENDSEC;

DATA;
#10=MECHANICAL_DESIGN_GEOMETRIC_PRESENTATION_REPRESENTATION('',(#13),#1136);
#11=SHAPE_REPRESENTATION_RELATIONSHIP('SRR','None',#1142,#12);
#12=ADVANCED_BREP_SHAPE_REPRESENTATION('',(#14),#1135);
#13=STYLED_ITEM('',(#1157),#14);
#14=MANIFOLD_SOLID_BREP('03 (3) (4) (1) (1) (1) (1)',#680);
#15=CYLINDRICAL_SURFACE('',#689,2.25);
#16=CYLINDRICAL_SURFACE('',#693,2.25);
#17=CYLINDRICAL_SURFACE('',#702,2.25);
#18=CYLINDRICAL_SURFACE('',#706,2.25);
#19=CYLINDRICAL_SURFACE('',#708,1.25);
#20=CYLINDRICAL_SURFACE('',#715,1.25);
#21=CYLINDRICAL_SURFACE('',#719,1.24999999999999);
#22=CYLINDRICAL_SURFACE('',#728,1.25000000000006);
#23=CYLINDRICAL_SURFACE('',#732,4.);
#24=CYLINDRICAL_SURFACE('',#735,4.);
#25=CYLINDRICAL_SURFACE('',#742,4.);
#26=CYLINDRICAL_SURFACE('',#744,4.);
#27=FACE_BOUND('',#91,.T.);
#28=FACE_BOUND('',#92,.T.);
#29=FACE_BOUND('',#98,.T.);
#30=FACE_BOUND('',#99,.T.);
#31=FACE_BOUND('',#124,.T.);
#32=FACE_BOUND('',#125,.T.);
#33=FACE_BOUND('',#126,.T.);
#34=FACE_BOUND('',#127,.T.);
#35=PLANE('',#685);
#36=PLANE('',#698);
#37=PLANE('',#711);
#38=PLANE('',#712);
#39=PLANE('',#713);
#40=PLANE('',#714);
#41=PLANE('',#718);
#42=PLANE('',#722);
#43=PLANE('',#723);
#44=PLANE('',#724);
#45=PLANE('',#725);
#46=PLANE('',#726);
#47=PLANE('',#727);
#48=PLANE('',#731);
#49=PLANE('',#734);
#50=PLANE('',#737);
#51=PLANE('',#738);
#52=PLANE('',#741);
#53=PLANE('',#743);
#54=FACE_OUTER_BOUND('',#89,.T.);
#55=FACE_OUTER_BOUND('',#90,.T.);
#56=FACE_OUTER_BOUND('',#93,.T.);
#57=FACE_OUTER_BOUND('',#94,.T.);
#58=FACE_OUTER_BOUND('',#95,.T.);
#59=FACE_OUTER_BOUND('',#96,.T.);
#60=FACE_OUTER_BOUND('',#97,.T.);
#61=FACE_OUTER_BOUND('',#100,.T.);
#62=FACE_OUTER_BOUND('',#101,.T.);
#63=FACE_OUTER_BOUND('',#102,.T.);
#64=FACE_OUTER_BOUND('',#103,.T.);
#65=FACE_OUTER_BOUND('',#104,.T.);
#66=FACE_OUTER_BOUND('',#105,.T.);
#67=FACE_OUTER_BOUND('',#106,.T.);
#68=FACE_OUTER_BOUND('',#107,.T.);
#69=FACE_OUTER_BOUND('',#108,.T.);
#70=FACE_OUTER_BOUND('',#109,.T.);
#71=FACE_OUTER_BOUND('',#110,.T.);
#72=FACE_OUTER_BOUND('',#111,.T.);
#73=FACE_OUTER_BOUND('',#112,.T.);
#74=FACE_OUTER_BOUND('',#113,.T.);
#75=FACE_OUTER_BOUND('',#114,.T.);
#76=FACE_OUTER_BOUND('',#115,.T.);
#77=FACE_OUTER_BOUND('',#116,.T.);
#78=FACE_OUTER_BOUND('',#117,.T.);
#79=FACE_OUTER_BOUND('',#118,.T.);
#80=FACE_OUTER_BOUND('',#119,.T.);
#81=FACE_OUTER_BOUND('',#120,.T.);
#82=FACE_OUTER_BOUND('',#121,.T.);
#83=FACE_OUTER_BOUND('',#122,.T.);
#84=FACE_OUTER_BOUND('',#123,.T.);
#85=FACE_OUTER_BOUND('',#128,.T.);
#86=FACE_OUTER_BOUND('',#129,.T.);
#87=FACE_OUTER_BOUND('',#130,.T.);
#88=FACE_OUTER_BOUND('',#131,.T.);
#89=EDGE_LOOP('',(#451,#452,#453,#454));
#90=EDGE_LOOP('',(#455,#456,#457,#458,#459,#460));
#91=EDGE_LOOP('',(#461));
#92=EDGE_LOOP('',(#462));
#93=EDGE_LOOP('',(#463,#464,#465,#466));
#94=EDGE_LOOP('',(#467,#468,#469,#470));
#95=EDGE_LOOP('',(#471,#472,#473,#474));
#96=EDGE_LOOP('',(#475,#476,#477,#478));
#97=EDGE_LOOP('',(#479,#480,#481,#482,#483,#484));
#98=EDGE_LOOP('',(#485));
#99=EDGE_LOOP('',(#486));
#100=EDGE_LOOP('',(#487,#488,#489,#490));
#101=EDGE_LOOP('',(#491,#492,#493,#494));
#102=EDGE_LOOP('',(#495,#496,#497,#498));
#103=EDGE_LOOP('',(#499,#500,#501,#502));
#104=EDGE_LOOP('',(#503,#504,#505,#506));
#105=EDGE_LOOP('',(#507,#508,#509,#510));
#106=EDGE_LOOP('',(#511,#512,#513,#514));
#107=EDGE_LOOP('',(#515,#516,#517,#518));
#108=EDGE_LOOP('',(#519,#520,#521,#522));
#109=EDGE_LOOP('',(#523,#524,#525,#526));
#110=EDGE_LOOP('',(#527,#528,#529,#530));
#111=EDGE_LOOP('',(#531,#532,#533,#534));
#112=EDGE_LOOP('',(#535,#536,#537,#538));
#113=EDGE_LOOP('',(#539,#540,#541,#542));
#114=EDGE_LOOP('',(#543,#544,#545,#546));
#115=EDGE_LOOP('',(#547,#548,#549,#550));
#116=EDGE_LOOP('',(#551,#552,#553,#554));
#117=EDGE_LOOP('',(#555,#556,#557,#558));
#118=EDGE_LOOP('',(#559,#560,#561,#562));
#119=EDGE_LOOP('',(#563,#564,#565,#566));
#120=EDGE_LOOP('',(#567,#568,#569,#570));
#121=EDGE_LOOP('',(#571,#572,#573,#574));
#122=EDGE_LOOP('',(#575,#576,#577,#578,#579,#580,#581,#582,#583,#584,#585,
#586,#587,#588,#589,#590,#591,#592,#593,#594,#595));
#123=EDGE_LOOP('',(#596,#597,#598,#599,#600,#601,#602,#603));
#124=EDGE_LOOP('',(#604));
#125=EDGE_LOOP('',(#605));
#126=EDGE_LOOP('',(#606));
#127=EDGE_LOOP('',(#607));
#128=EDGE_LOOP('',(#608,#609,#610,#611,#612,#613,#614,#615,#616,#617,#618,
#619,#620,#621,#622,#623,#624,#625,#626,#627,#628));
#129=EDGE_LOOP('',(#629,#630,#631,#632));
#130=EDGE_LOOP('',(#633,#634,#635,#636));
#131=EDGE_LOOP('',(#637,#638,#639,#640));
#132=LINE('',#945,#199);
#133=LINE('',#950,#200);
#134=LINE('',#952,#201);
#135=LINE('',#956,#202);
#136=LINE('',#959,#203);
#137=LINE('',#964,#204);
#138=LINE('',#968,#205);
#139=LINE('',#972,#206);
#140=LINE('',#978,#207);
#141=LINE('',#983,#208);
#142=LINE('',#985,#209);
#143=LINE('',#989,#210);
#144=LINE('',#992,#211);
#145=LINE('',#997,#212);
#146=LINE('',#1001,#213);
#147=LINE('',#1005,#214);
#148=LINE('',#1012,#215);
#149=LINE('',#1015,#216);
#150=LINE('',#1018,#217);
#151=LINE('',#1020,#218);
#152=LINE('',#1021,#219);
#153=LINE('',#1023,#220);
#154=LINE('',#1024,#221);
#155=LINE('',#1027,#222);
#156=LINE('',#1029,#223);
#157=LINE('',#1030,#224);
#158=LINE('',#1033,#225);
#159=LINE('',#1035,#226);
#160=LINE('',#1036,#227);
#161=LINE('',#1041,#228);
#162=LINE('',#1045,#229);
#163=LINE('',#1047,#230);
#164=LINE('',#1048,#231);
#165=LINE('',#1053,#232);
#166=LINE('',#1057,#233);
#167=LINE('',#1059,#234);
#168=LINE('',#1060,#235);
#169=LINE('',#1063,#236);
#170=LINE('',#1065,#237);
#171=LINE('',#1066,#238);
#172=LINE('',#1069,#239);
#173=LINE('',#1071,#240);
#174=LINE('',#1072,#241);
#175=LINE('',#1075,#242);
#176=LINE('',#1077,#243);
#177=LINE('',#1078,#244);
#178=LINE('',#1081,#245);
#179=LINE('',#1083,#246);
#180=LINE('',#1084,#247);
#181=LINE('',#1087,#248);
#182=LINE('',#1089,#249);
#183=LINE('',#1090,#250);
#184=LINE('',#1095,#251);
#185=LINE('',#1098,#252);
#186=LINE('',#1099,#253);
#187=LINE('',#1102,#254);
#188=LINE('',#1105,#255);
#189=LINE('',#1108,#256);
#190=LINE('',#1109,#257);
#191=LINE('',#1112,#258);
#192=LINE('',#1116,#259);
#193=LINE('',#1117,#260);
#194=LINE('',#1122,#261);
#195=LINE('',#1125,#262);
#196=LINE('',#1127,#263);
#197=LINE('',#1129,#264);
#198=LINE('',#1131,#265);
#199=VECTOR('',#751,3.1);
#200=VECTOR('',#756,10.);
#201=VECTOR('',#757,10.);
#202=VECTOR('',#760,10.);
#203=VECTOR('',#763,10.);
#204=VECTOR('',#768,2.25);
#205=VECTOR('',#773,3.1);
#206=VECTOR('',#778,2.25);
#207=VECTOR('',#785,3.1);
#208=VECTOR('',#790,10.);
#209=VECTOR('',#791,10.);
#210=VECTOR('',#794,10.);
#211=VECTOR('',#797,10.);
#212=VECTOR('',#802,2.25);
#213=VECTOR('',#807,3.1);
#214=VECTOR('',#812,2.25);
#215=VECTOR('',#819,10.);
#216=VECTOR('',#822,10.);
#217=VECTOR('',#825,10.);
#218=VECTOR('',#826,10.);
#219=VECTOR('',#827,10.);
#220=VECTOR('',#830,10.);
#221=VECTOR('',#831,10.);
#222=VECTOR('',#834,10.);
#223=VECTOR('',#835,10.);
#224=VECTOR('',#836,10.);
#225=VECTOR('',#839,10.);
#226=VECTOR('',#840,10.);
#227=VECTOR('',#841,10.);
#228=VECTOR('',#846,10.);
#229=VECTOR('',#851,10.);
#230=VECTOR('',#852,10.);
#231=VECTOR('',#853,10.);
#232=VECTOR('',#858,10.);
#233=VECTOR('',#863,10.);
#234=VECTOR('',#864,10.);
#235=VECTOR('',#865,10.);
#236=VECTOR('',#868,10.);
#237=VECTOR('',#869,10.);
#238=VECTOR('',#870,10.);
#239=VECTOR('',#873,10.);
#240=VECTOR('',#874,10.);
#241=VECTOR('',#875,10.);
#242=VECTOR('',#878,10.);
#243=VECTOR('',#879,10.);
#244=VECTOR('',#880,10.);
#245=VECTOR('',#883,10.);
#246=VECTOR('',#884,10.);
#247=VECTOR('',#885,10.);
#248=VECTOR('',#888,10.);
#249=VECTOR('',#889,10.);
#250=VECTOR('',#890,10.);
#251=VECTOR('',#895,10.);
#252=VECTOR('',#900,10.);
#253=VECTOR('',#901,10.);
#254=VECTOR('',#904,10.);
#255=VECTOR('',#907,10.);
#256=VECTOR('',#910,10.);
#257=VECTOR('',#911,10.);
#258=VECTOR('',#914,10.);
#259=VECTOR('',#919,10.);
#260=VECTOR('',#920,10.);
#261=VECTOR('',#925,10.);
#262=VECTOR('',#928,10.);
#263=VECTOR('',#931,10.);
#264=VECTOR('',#934,10.);
#265=VECTOR('',#937,10.);
#266=CIRCLE('',#683,3.95);
#267=CIRCLE('',#684,2.25);
#268=CIRCLE('',#686,4.);
#269=CIRCLE('',#687,4.);
#270=CIRCLE('',#688,3.95);
#271=CIRCLE('',#690,2.25);
#272=CIRCLE('',#692,2.25);
#273=CIRCLE('',#694,2.25);
#274=CIRCLE('',#696,3.95);
#275=CIRCLE('',#697,2.25);
#276=CIRCLE('',#699,4.);
#277=CIRCLE('',#700,4.);
#278=CIRCLE('',#701,3.95);
#279=CIRCLE('',#703,2.25);
#280=CIRCLE('',#705,2.25);
#281=CIRCLE('',#707,2.25);
#282=CIRCLE('',#709,1.25);
#283=CIRCLE('',#710,1.25);
#284=CIRCLE('',#716,1.25);
#285=CIRCLE('',#717,1.25);
#286=CIRCLE('',#720,1.24999999999999);
#287=CIRCLE('',#721,1.24999999999999);
#288=CIRCLE('',#729,1.25000000000006);
#289=CIRCLE('',#730,1.25000000000006);
#290=CIRCLE('',#733,4.);
#291=CIRCLE('',#736,4.);
#292=CIRCLE('',#739,4.);
#293=CIRCLE('',#740,4.);
#294=VERTEX_POINT('',#942);
#295=VERTEX_POINT('',#944);
#296=VERTEX_POINT('',#948);
#297=VERTEX_POINT('',#949);
#298=VERTEX_POINT('',#951);
#299=VERTEX_POINT('',#953);
#300=VERTEX_POINT('',#955);
#301=VERTEX_POINT('',#957);
#302=VERTEX_POINT('',#960);
#303=VERTEX_POINT('',#963);
#304=VERTEX_POINT('',#967);
#305=VERTEX_POINT('',#971);
#306=VERTEX_POINT('',#975);
#307=VERTEX_POINT('',#977);
#308=VERTEX_POINT('',#981);
#309=VERTEX_POINT('',#982);
#310=VERTEX_POINT('',#984);
#311=VERTEX_POINT('',#986);
#312=VERTEX_POINT('',#988);
#313=VERTEX_POINT('',#990);
#314=VERTEX_POINT('',#993);
#315=VERTEX_POINT('',#996);
#316=VERTEX_POINT('',#1000);
#317=VERTEX_POINT('',#1004);
#318=VERTEX_POINT('',#1008);
#319=VERTEX_POINT('',#1009);
#320=VERTEX_POINT('',#1011);
#321=VERTEX_POINT('',#1013);
#322=VERTEX_POINT('',#1017);
#323=VERTEX_POINT('',#1019);
#324=VERTEX_POINT('',#1026);
#325=VERTEX_POINT('',#1028);
#326=VERTEX_POINT('',#1032);
#327=VERTEX_POINT('',#1034);
#328=VERTEX_POINT('',#1038);
#329=VERTEX_POINT('',#1040);
#330=VERTEX_POINT('',#1044);
#331=VERTEX_POINT('',#1046);
#332=VERTEX_POINT('',#1050);
#333=VERTEX_POINT('',#1052);
#334=VERTEX_POINT('',#1056);
#335=VERTEX_POINT('',#1058);
#336=VERTEX_POINT('',#1062);
#337=VERTEX_POINT('',#1064);
#338=VERTEX_POINT('',#1068);
#339=VERTEX_POINT('',#1070);
#340=VERTEX_POINT('',#1074);
#341=VERTEX_POINT('',#1076);
#342=VERTEX_POINT('',#1080);
#343=VERTEX_POINT('',#1082);
#344=VERTEX_POINT('',#1086);
#345=VERTEX_POINT('',#1088);
#346=VERTEX_POINT('',#1092);
#347=VERTEX_POINT('',#1094);
#348=VERTEX_POINT('',#1101);
#349=VERTEX_POINT('',#1103);
#350=VERTEX_POINT('',#1107);
#351=VERTEX_POINT('',#1111);
#352=VERTEX_POINT('',#1115);
#353=VERTEX_POINT('',#1119);
#354=VERTEX_POINT('',#1121);
#355=VERTEX_POINT('',#1123);
#356=EDGE_CURVE('',#294,#294,#266,.T.);
#357=EDGE_CURVE('',#294,#295,#132,.T.);
#358=EDGE_CURVE('',#295,#295,#267,.T.);
#359=EDGE_CURVE('',#296,#297,#133,.T.);
#360=EDGE_CURVE('',#297,#298,#134,.T.);
#361=EDGE_CURVE('',#299,#298,#268,.T.);
#362=EDGE_CURVE('',#299,#300,#135,.T.);
#363=EDGE_CURVE('',#301,#300,#269,.T.);
#364=EDGE_CURVE('',#301,#296,#136,.T.);
#365=EDGE_CURVE('',#302,#302,#270,.T.);
#366=EDGE_CURVE('',#295,#303,#137,.T.);
#367=EDGE_CURVE('',#303,#303,#271,.T.);
#368=EDGE_CURVE('',#302,#304,#138,.T.);
#369=EDGE_CURVE('',#304,#304,#272,.T.);
#370=EDGE_CURVE('',#304,#305,#139,.T.);
#371=EDGE_CURVE('',#305,#305,#273,.T.);
#372=EDGE_CURVE('',#306,#306,#274,.T.);
#373=EDGE_CURVE('',#306,#307,#140,.T.);
#374=EDGE_CURVE('',#307,#307,#275,.T.);
#375=EDGE_CURVE('',#308,#309,#141,.T.);
#376=EDGE_CURVE('',#309,#310,#142,.T.);
#377=EDGE_CURVE('',#311,#310,#276,.T.);
#378=EDGE_CURVE('',#311,#312,#143,.T.);
#379=EDGE_CURVE('',#313,#312,#277,.T.);
#380=EDGE_CURVE('',#313,#308,#144,.T.);
#381=EDGE_CURVE('',#314,#314,#278,.T.);
#382=EDGE_CURVE('',#307,#315,#145,.T.);
#383=EDGE_CURVE('',#315,#315,#279,.T.);
#384=EDGE_CURVE('',#314,#316,#146,.T.);
#385=EDGE_CURVE('',#316,#316,#280,.T.);
#386=EDGE_CURVE('',#316,#317,#147,.T.);
#387=EDGE_CURVE('',#317,#317,#281,.T.);
#388=EDGE_CURVE('',#318,#319,#282,.T.);
#389=EDGE_CURVE('',#320,#319,#148,.T.);
#390=EDGE_CURVE('',#321,#320,#283,.T.);
#391=EDGE_CURVE('',#321,#318,#149,.T.);
#392=EDGE_CURVE('',#319,#322,#150,.T.);
#393=EDGE_CURVE('',#323,#322,#151,.T.);
#394=EDGE_CURVE('',#320,#323,#152,.T.);
#395=EDGE_CURVE('',#322,#309,#153,.T.);
#396=EDGE_CURVE('',#308,#323,#154,.T.);
#397=EDGE_CURVE('',#296,#324,#155,.T.);
#398=EDGE_CURVE('',#325,#324,#156,.T.);
#399=EDGE_CURVE('',#297,#325,#157,.T.);
#400=EDGE_CURVE('',#324,#326,#158,.T.);
#401=EDGE_CURVE('',#327,#326,#159,.T.);
#402=EDGE_CURVE('',#325,#327,#160,.T.);
#403=EDGE_CURVE('',#326,#328,#284,.T.);
#404=EDGE_CURVE('',#329,#328,#161,.T.);
#405=EDGE_CURVE('',#327,#329,#285,.T.);
#406=EDGE_CURVE('',#328,#330,#162,.T.);
#407=EDGE_CURVE('',#331,#330,#163,.T.);
#408=EDGE_CURVE('',#329,#331,#164,.T.);
#409=EDGE_CURVE('',#330,#332,#286,.T.);
#410=EDGE_CURVE('',#333,#332,#165,.T.);
#411=EDGE_CURVE('',#331,#333,#287,.T.);
#412=EDGE_CURVE('',#332,#334,#166,.T.);
#413=EDGE_CURVE('',#335,#334,#167,.T.);
#414=EDGE_CURVE('',#333,#335,#168,.T.);
#415=EDGE_CURVE('',#334,#336,#169,.T.);
#416=EDGE_CURVE('',#337,#336,#170,.T.);
#417=EDGE_CURVE('',#335,#337,#171,.T.);
#418=EDGE_CURVE('',#336,#338,#172,.T.);
#419=EDGE_CURVE('',#339,#338,#173,.T.);
#420=EDGE_CURVE('',#337,#339,#174,.T.);
#421=EDGE_CURVE('',#338,#340,#175,.T.);
#422=EDGE_CURVE('',#341,#340,#176,.T.);
#423=EDGE_CURVE('',#339,#341,#177,.T.);
#424=EDGE_CURVE('',#340,#342,#178,.T.);
#425=EDGE_CURVE('',#343,#342,#179,.T.);
#426=EDGE_CURVE('',#341,#343,#180,.T.);
#427=EDGE_CURVE('',#342,#344,#181,.T.);
#428=EDGE_CURVE('',#345,#344,#182,.T.);
#429=EDGE_CURVE('',#343,#345,#183,.T.);
#430=EDGE_CURVE('',#344,#346,#288,.T.);
#431=EDGE_CURVE('',#347,#346,#184,.T.);
#432=EDGE_CURVE('',#345,#347,#289,.T.);
#433=EDGE_CURVE('',#346,#318,#185,.T.);
#434=EDGE_CURVE('',#347,#321,#186,.T.);
#435=EDGE_CURVE('',#312,#348,#187,.T.);
#436=EDGE_CURVE('',#348,#349,#290,.T.);
#437=EDGE_CURVE('',#349,#313,#188,.T.);
#438=EDGE_CURVE('',#350,#311,#189,.T.);
#439=EDGE_CURVE('',#348,#350,#190,.T.);
#440=EDGE_CURVE('',#310,#351,#191,.T.);
#441=EDGE_CURVE('',#351,#350,#291,.T.);
#442=EDGE_CURVE('',#352,#301,#192,.T.);
#443=EDGE_CURVE('',#351,#352,#193,.T.);
#444=EDGE_CURVE('',#353,#352,#292,.T.);
#445=EDGE_CURVE('',#353,#354,#194,.T.);
#446=EDGE_CURVE('',#355,#354,#293,.T.);
#447=EDGE_CURVE('',#355,#349,#195,.T.);
#448=EDGE_CURVE('',#298,#355,#196,.T.);
#449=EDGE_CURVE('',#354,#299,#197,.T.);
#450=EDGE_CURVE('',#300,#353,#198,.T.);
#451=ORIENTED_EDGE('',*,*,#356,.T.);
#452=ORIENTED_EDGE('',*,*,#357,.T.);
#453=ORIENTED_EDGE('',*,*,#358,.T.);
#454=ORIENTED_EDGE('',*,*,#357,.F.);
#455=ORIENTED_EDGE('',*,*,#359,.T.);
#456=ORIENTED_EDGE('',*,*,#360,.T.);
#457=ORIENTED_EDGE('',*,*,#361,.F.);
#458=ORIENTED_EDGE('',*,*,#362,.T.);
#459=ORIENTED_EDGE('',*,*,#363,.F.);
#460=ORIENTED_EDGE('',*,*,#364,.T.);
#461=ORIENTED_EDGE('',*,*,#365,.F.);
#462=ORIENTED_EDGE('',*,*,#356,.F.);
#463=ORIENTED_EDGE('',*,*,#358,.F.);
#464=ORIENTED_EDGE('',*,*,#366,.T.);
#465=ORIENTED_EDGE('',*,*,#367,.F.);
#466=ORIENTED_EDGE('',*,*,#366,.F.);
#467=ORIENTED_EDGE('',*,*,#365,.T.);
#468=ORIENTED_EDGE('',*,*,#368,.T.);
#469=ORIENTED_EDGE('',*,*,#369,.T.);
#470=ORIENTED_EDGE('',*,*,#368,.F.);
#471=ORIENTED_EDGE('',*,*,#369,.F.);
#472=ORIENTED_EDGE('',*,*,#370,.T.);
#473=ORIENTED_EDGE('',*,*,#371,.F.);
#474=ORIENTED_EDGE('',*,*,#370,.F.);
#475=ORIENTED_EDGE('',*,*,#372,.T.);
#476=ORIENTED_EDGE('',*,*,#373,.T.);
#477=ORIENTED_EDGE('',*,*,#374,.T.);
#478=ORIENTED_EDGE('',*,*,#373,.F.);
#479=ORIENTED_EDGE('',*,*,#375,.T.);
#480=ORIENTED_EDGE('',*,*,#376,.T.);
#481=ORIENTED_EDGE('',*,*,#377,.F.);
#482=ORIENTED_EDGE('',*,*,#378,.T.);
#483=ORIENTED_EDGE('',*,*,#379,.F.);
#484=ORIENTED_EDGE('',*,*,#380,.T.);
#485=ORIENTED_EDGE('',*,*,#381,.F.);
#486=ORIENTED_EDGE('',*,*,#372,.F.);
#487=ORIENTED_EDGE('',*,*,#374,.F.);
#488=ORIENTED_EDGE('',*,*,#382,.T.);
#489=ORIENTED_EDGE('',*,*,#383,.F.);
#490=ORIENTED_EDGE('',*,*,#382,.F.);
#491=ORIENTED_EDGE('',*,*,#381,.T.);
#492=ORIENTED_EDGE('',*,*,#384,.T.);
#493=ORIENTED_EDGE('',*,*,#385,.T.);
#494=ORIENTED_EDGE('',*,*,#384,.F.);
#495=ORIENTED_EDGE('',*,*,#385,.F.);
#496=ORIENTED_EDGE('',*,*,#386,.T.);
#497=ORIENTED_EDGE('',*,*,#387,.F.);
#498=ORIENTED_EDGE('',*,*,#386,.F.);
#499=ORIENTED_EDGE('',*,*,#388,.T.);
#500=ORIENTED_EDGE('',*,*,#389,.F.);
#501=ORIENTED_EDGE('',*,*,#390,.F.);
#502=ORIENTED_EDGE('',*,*,#391,.T.);
#503=ORIENTED_EDGE('',*,*,#392,.T.);
#504=ORIENTED_EDGE('',*,*,#393,.F.);
#505=ORIENTED_EDGE('',*,*,#394,.F.);
#506=ORIENTED_EDGE('',*,*,#389,.T.);
#507=ORIENTED_EDGE('',*,*,#395,.T.);
#508=ORIENTED_EDGE('',*,*,#375,.F.);
#509=ORIENTED_EDGE('',*,*,#396,.T.);
#510=ORIENTED_EDGE('',*,*,#393,.T.);
#511=ORIENTED_EDGE('',*,*,#397,.T.);
#512=ORIENTED_EDGE('',*,*,#398,.F.);
#513=ORIENTED_EDGE('',*,*,#399,.F.);
#514=ORIENTED_EDGE('',*,*,#359,.F.);
#515=ORIENTED_EDGE('',*,*,#400,.T.);
#516=ORIENTED_EDGE('',*,*,#401,.F.);
#517=ORIENTED_EDGE('',*,*,#402,.F.);
#518=ORIENTED_EDGE('',*,*,#398,.T.);
#519=ORIENTED_EDGE('',*,*,#403,.T.);
#520=ORIENTED_EDGE('',*,*,#404,.F.);
#521=ORIENTED_EDGE('',*,*,#405,.F.);
#522=ORIENTED_EDGE('',*,*,#401,.T.);
#523=ORIENTED_EDGE('',*,*,#406,.T.);
#524=ORIENTED_EDGE('',*,*,#407,.F.);
#525=ORIENTED_EDGE('',*,*,#408,.F.);
#526=ORIENTED_EDGE('',*,*,#404,.T.);
#527=ORIENTED_EDGE('',*,*,#409,.T.);
#528=ORIENTED_EDGE('',*,*,#410,.F.);
#529=ORIENTED_EDGE('',*,*,#411,.F.);
#530=ORIENTED_EDGE('',*,*,#407,.T.);
#531=ORIENTED_EDGE('',*,*,#412,.T.);
#532=ORIENTED_EDGE('',*,*,#413,.F.);
#533=ORIENTED_EDGE('',*,*,#414,.F.);
#534=ORIENTED_EDGE('',*,*,#410,.T.);
#535=ORIENTED_EDGE('',*,*,#415,.T.);
#536=ORIENTED_EDGE('',*,*,#416,.F.);
#537=ORIENTED_EDGE('',*,*,#417,.F.);
#538=ORIENTED_EDGE('',*,*,#413,.T.);
#539=ORIENTED_EDGE('',*,*,#418,.T.);
#540=ORIENTED_EDGE('',*,*,#419,.F.);
#541=ORIENTED_EDGE('',*,*,#420,.F.);
#542=ORIENTED_EDGE('',*,*,#416,.T.);
#543=ORIENTED_EDGE('',*,*,#421,.T.);
#544=ORIENTED_EDGE('',*,*,#422,.F.);
#545=ORIENTED_EDGE('',*,*,#423,.F.);
#546=ORIENTED_EDGE('',*,*,#419,.T.);
#547=ORIENTED_EDGE('',*,*,#424,.T.);
#548=ORIENTED_EDGE('',*,*,#425,.F.);
#549=ORIENTED_EDGE('',*,*,#426,.F.);
#550=ORIENTED_EDGE('',*,*,#422,.T.);
#551=ORIENTED_EDGE('',*,*,#427,.T.);
#552=ORIENTED_EDGE('',*,*,#428,.F.);
#553=ORIENTED_EDGE('',*,*,#429,.F.);
#554=ORIENTED_EDGE('',*,*,#425,.T.);
#555=ORIENTED_EDGE('',*,*,#430,.T.);
#556=ORIENTED_EDGE('',*,*,#431,.F.);
#557=ORIENTED_EDGE('',*,*,#432,.F.);
#558=ORIENTED_EDGE('',*,*,#428,.T.);
#559=ORIENTED_EDGE('',*,*,#433,.T.);
#560=ORIENTED_EDGE('',*,*,#391,.F.);
#561=ORIENTED_EDGE('',*,*,#434,.F.);
#562=ORIENTED_EDGE('',*,*,#431,.T.);
#563=ORIENTED_EDGE('',*,*,#379,.T.);
#564=ORIENTED_EDGE('',*,*,#435,.T.);
#565=ORIENTED_EDGE('',*,*,#436,.T.);
#566=ORIENTED_EDGE('',*,*,#437,.T.);
#567=ORIENTED_EDGE('',*,*,#435,.F.);
#568=ORIENTED_EDGE('',*,*,#378,.F.);
#569=ORIENTED_EDGE('',*,*,#438,.F.);
#570=ORIENTED_EDGE('',*,*,#439,.F.);
#571=ORIENTED_EDGE('',*,*,#377,.T.);
#572=ORIENTED_EDGE('',*,*,#440,.T.);
#573=ORIENTED_EDGE('',*,*,#441,.T.);
#574=ORIENTED_EDGE('',*,*,#438,.T.);
#575=ORIENTED_EDGE('',*,*,#364,.F.);
#576=ORIENTED_EDGE('',*,*,#442,.F.);
#577=ORIENTED_EDGE('',*,*,#443,.F.);
#578=ORIENTED_EDGE('',*,*,#440,.F.);
#579=ORIENTED_EDGE('',*,*,#376,.F.);
#580=ORIENTED_EDGE('',*,*,#395,.F.);
#581=ORIENTED_EDGE('',*,*,#392,.F.);
#582=ORIENTED_EDGE('',*,*,#388,.F.);
#583=ORIENTED_EDGE('',*,*,#433,.F.);
#584=ORIENTED_EDGE('',*,*,#430,.F.);
#585=ORIENTED_EDGE('',*,*,#427,.F.);
#586=ORIENTED_EDGE('',*,*,#424,.F.);
#587=ORIENTED_EDGE('',*,*,#421,.F.);
#588=ORIENTED_EDGE('',*,*,#418,.F.);
#589=ORIENTED_EDGE('',*,*,#415,.F.);
#590=ORIENTED_EDGE('',*,*,#412,.F.);
#591=ORIENTED_EDGE('',*,*,#409,.F.);
#592=ORIENTED_EDGE('',*,*,#406,.F.);
#593=ORIENTED_EDGE('',*,*,#403,.F.);
#594=ORIENTED_EDGE('',*,*,#400,.F.);
#595=ORIENTED_EDGE('',*,*,#397,.F.);
#596=ORIENTED_EDGE('',*,*,#443,.T.);
#597=ORIENTED_EDGE('',*,*,#444,.F.);
#598=ORIENTED_EDGE('',*,*,#445,.T.);
#599=ORIENTED_EDGE('',*,*,#446,.F.);
#600=ORIENTED_EDGE('',*,*,#447,.T.);
#601=ORIENTED_EDGE('',*,*,#436,.F.);
#602=ORIENTED_EDGE('',*,*,#439,.T.);
#603=ORIENTED_EDGE('',*,*,#441,.F.);
#604=ORIENTED_EDGE('',*,*,#387,.T.);
#605=ORIENTED_EDGE('',*,*,#383,.T.);
#606=ORIENTED_EDGE('',*,*,#371,.T.);
#607=ORIENTED_EDGE('',*,*,#367,.T.);
#608=ORIENTED_EDGE('',*,*,#447,.F.);
#609=ORIENTED_EDGE('',*,*,#448,.F.);
#610=ORIENTED_EDGE('',*,*,#360,.F.);
#611=ORIENTED_EDGE('',*,*,#399,.T.);
#612=ORIENTED_EDGE('',*,*,#402,.T.);
#613=ORIENTED_EDGE('',*,*,#405,.T.);
#614=ORIENTED_EDGE('',*,*,#408,.T.);
#615=ORIENTED_EDGE('',*,*,#411,.T.);
#616=ORIENTED_EDGE('',*,*,#414,.T.);
#617=ORIENTED_EDGE('',*,*,#417,.T.);
#618=ORIENTED_EDGE('',*,*,#420,.T.);
#619=ORIENTED_EDGE('',*,*,#423,.T.);
#620=ORIENTED_EDGE('',*,*,#426,.T.);
#621=ORIENTED_EDGE('',*,*,#429,.T.);
#622=ORIENTED_EDGE('',*,*,#432,.T.);
#623=ORIENTED_EDGE('',*,*,#434,.T.);
#624=ORIENTED_EDGE('',*,*,#390,.T.);
#625=ORIENTED_EDGE('',*,*,#394,.T.);
#626=ORIENTED_EDGE('',*,*,#396,.F.);
#627=ORIENTED_EDGE('',*,*,#380,.F.);
#628=ORIENTED_EDGE('',*,*,#437,.F.);
#629=ORIENTED_EDGE('',*,*,#361,.T.);
#630=ORIENTED_EDGE('',*,*,#448,.T.);
#631=ORIENTED_EDGE('',*,*,#446,.T.);
#632=ORIENTED_EDGE('',*,*,#449,.T.);
#633=ORIENTED_EDGE('',*,*,#449,.F.);
#634=ORIENTED_EDGE('',*,*,#445,.F.);
#635=ORIENTED_EDGE('',*,*,#450,.F.);
#636=ORIENTED_EDGE('',*,*,#362,.F.);
#637=ORIENTED_EDGE('',*,*,#363,.T.);
#638=ORIENTED_EDGE('',*,*,#450,.T.);
#639=ORIENTED_EDGE('',*,*,#444,.T.);
#640=ORIENTED_EDGE('',*,*,#442,.T.);
#641=CONICAL_SURFACE('',#682,3.1,0.785398163397448);
#642=CONICAL_SURFACE('',#691,3.1,0.785398163397448);
#643=CONICAL_SURFACE('',#695,3.1,0.785398163397448);
#644=CONICAL_SURFACE('',#704,3.1,0.785398163397448);
#645=ADVANCED_FACE('',(#54),#641,.F.);
#646=ADVANCED_FACE('',(#55,#27,#28),#35,.F.);
#647=ADVANCED_FACE('',(#56),#15,.F.);
#648=ADVANCED_FACE('',(#57),#642,.F.);
#649=ADVANCED_FACE('',(#58),#16,.F.);
#650=ADVANCED_FACE('',(#59),#643,.F.);
#651=ADVANCED_FACE('',(#60,#29,#30),#36,.F.);
#652=ADVANCED_FACE('',(#61),#17,.F.);
#653=ADVANCED_FACE('',(#62),#644,.F.);
#654=ADVANCED_FACE('',(#63),#18,.F.);
#655=ADVANCED_FACE('',(#64),#19,.T.);
#656=ADVANCED_FACE('',(#65),#37,.T.);
#657=ADVANCED_FACE('',(#66),#38,.T.);
#658=ADVANCED_FACE('',(#67),#39,.T.);
#659=ADVANCED_FACE('',(#68),#40,.T.);
#660=ADVANCED_FACE('',(#69),#20,.T.);
#661=ADVANCED_FACE('',(#70),#41,.T.);
#662=ADVANCED_FACE('',(#71),#21,.T.);
#663=ADVANCED_FACE('',(#72),#42,.T.);
#664=ADVANCED_FACE('',(#73),#43,.T.);
#665=ADVANCED_FACE('',(#74),#44,.T.);
#666=ADVANCED_FACE('',(#75),#45,.T.);
#667=ADVANCED_FACE('',(#76),#46,.T.);
#668=ADVANCED_FACE('',(#77),#47,.T.);
#669=ADVANCED_FACE('',(#78),#22,.T.);
#670=ADVANCED_FACE('',(#79),#48,.T.);
#671=ADVANCED_FACE('',(#80),#23,.T.);
#672=ADVANCED_FACE('',(#81),#49,.T.);
#673=ADVANCED_FACE('',(#82),#24,.T.);
#674=ADVANCED_FACE('',(#83),#50,.T.);
#675=ADVANCED_FACE('',(#84,#31,#32,#33,#34),#51,.F.);
#676=ADVANCED_FACE('',(#85),#52,.F.);
#677=ADVANCED_FACE('',(#86),#25,.T.);
#678=ADVANCED_FACE('',(#87),#53,.T.);
#679=ADVANCED_FACE('',(#88),#26,.T.);
#680=CLOSED_SHELL('',(#645,#646,#647,#648,#649,#650,#651,#652,#653,#654,
#655,#656,#657,#658,#659,#660,#661,#662,#663,#664,#665,#666,#667,#668,#669,
#670,#671,#672,#673,#674,#675,#676,#677,#678,#679));
#681=AXIS2_PLACEMENT_3D('',#940,#745,#746);
#682=AXIS2_PLACEMENT_3D('',#941,#747,#748);
#683=AXIS2_PLACEMENT_3D('',#943,#749,#750);
#684=AXIS2_PLACEMENT_3D('',#946,#752,#753);
#685=AXIS2_PLACEMENT_3D('',#947,#754,#755);
#686=AXIS2_PLACEMENT_3D('',#954,#758,#759);
#687=AXIS2_PLACEMENT_3D('',#958,#761,#762);
#688=AXIS2_PLACEMENT_3D('',#961,#764,#765);
#689=AXIS2_PLACEMENT_3D('',#962,#766,#767);
#690=AXIS2_PLACEMENT_3D('',#965,#769,#770);
#691=AXIS2_PLACEMENT_3D('',#966,#771,#772);
#692=AXIS2_PLACEMENT_3D('',#969,#774,#775);
#693=AXIS2_PLACEMENT_3D('',#970,#776,#777);
#694=AXIS2_PLACEMENT_3D('',#973,#779,#780);
#695=AXIS2_PLACEMENT_3D('',#974,#781,#782);
#696=AXIS2_PLACEMENT_3D('',#976,#783,#784);
#697=AXIS2_PLACEMENT_3D('',#979,#786,#787);
#698=AXIS2_PLACEMENT_3D('',#980,#788,#789);
#699=AXIS2_PLACEMENT_3D('',#987,#792,#793);
#700=AXIS2_PLACEMENT_3D('',#991,#795,#796);
#701=AXIS2_PLACEMENT_3D('',#994,#798,#799);
#702=AXIS2_PLACEMENT_3D('',#995,#800,#801);
#703=AXIS2_PLACEMENT_3D('',#998,#803,#804);
#704=AXIS2_PLACEMENT_3D('',#999,#805,#806);
#705=AXIS2_PLACEMENT_3D('',#1002,#808,#809);
#706=AXIS2_PLACEMENT_3D('',#1003,#810,#811);
#707=AXIS2_PLACEMENT_3D('',#1006,#813,#814);
#708=AXIS2_PLACEMENT_3D('',#1007,#815,#816);
#709=AXIS2_PLACEMENT_3D('',#1010,#817,#818);
#710=AXIS2_PLACEMENT_3D('',#1014,#820,#821);
#711=AXIS2_PLACEMENT_3D('',#1016,#823,#824);
#712=AXIS2_PLACEMENT_3D('',#1022,#828,#829);
#713=AXIS2_PLACEMENT_3D('',#1025,#832,#833);
#714=AXIS2_PLACEMENT_3D('',#1031,#837,#838);
#715=AXIS2_PLACEMENT_3D('',#1037,#842,#843);
#716=AXIS2_PLACEMENT_3D('',#1039,#844,#845);
#717=AXIS2_PLACEMENT_3D('',#1042,#847,#848);
#718=AXIS2_PLACEMENT_3D('',#1043,#849,#850);
#719=AXIS2_PLACEMENT_3D('',#1049,#854,#855);
#720=AXIS2_PLACEMENT_3D('',#1051,#856,#857);
#721=AXIS2_PLACEMENT_3D('',#1054,#859,#860);
#722=AXIS2_PLACEMENT_3D('',#1055,#861,#862);
#723=AXIS2_PLACEMENT_3D('',#1061,#866,#867);
#724=AXIS2_PLACEMENT_3D('',#1067,#871,#872);
#725=AXIS2_PLACEMENT_3D('',#1073,#876,#877);
#726=AXIS2_PLACEMENT_3D('',#1079,#881,#882);
#727=AXIS2_PLACEMENT_3D('',#1085,#886,#887);
#728=AXIS2_PLACEMENT_3D('',#1091,#891,#892);
#729=AXIS2_PLACEMENT_3D('',#1093,#893,#894);
#730=AXIS2_PLACEMENT_3D('',#1096,#896,#897);
#731=AXIS2_PLACEMENT_3D('',#1097,#898,#899);
#732=AXIS2_PLACEMENT_3D('',#1100,#902,#903);
#733=AXIS2_PLACEMENT_3D('',#1104,#905,#906);
#734=AXIS2_PLACEMENT_3D('',#1106,#908,#909);
#735=AXIS2_PLACEMENT_3D('',#1110,#912,#913);
#736=AXIS2_PLACEMENT_3D('',#1113,#915,#916);
#737=AXIS2_PLACEMENT_3D('',#1114,#917,#918);
#738=AXIS2_PLACEMENT_3D('',#1118,#921,#922);
#739=AXIS2_PLACEMENT_3D('',#1120,#923,#924);
#740=AXIS2_PLACEMENT_3D('',#1124,#926,#927);
#741=AXIS2_PLACEMENT_3D('',#1126,#929,#930);
#742=AXIS2_PLACEMENT_3D('',#1128,#932,#933);
#743=AXIS2_PLACEMENT_3D('',#1130,#935,#936);
#744=AXIS2_PLACEMENT_3D('',#1132,#938,#939);
#745=DIRECTION('axis',(0.,0.,1.));
#746=DIRECTION('refdir',(1.,0.,0.));
#747=DIRECTION('center_axis',(0.,0.,1.));
#748=DIRECTION('ref_axis',(1.,0.,0.));
#749=DIRECTION('center_axis',(0.,0.,1.));
#750=DIRECTION('ref_axis',(1.,0.,0.));
#751=DIRECTION('',(0.707106781186548,8.65956056235493E-17,-0.707106781186548));
#752=DIRECTION('center_axis',(0.,0.,-1.));
#753=DIRECTION('ref_axis',(1.,0.,0.));
#754=DIRECTION('center_axis',(0.,0.,-1.));
#755=DIRECTION('ref_axis',(1.,0.,0.));
#756=DIRECTION('',(-1.,0.,0.));
#757=DIRECTION('',(1.82860262879438E-16,-1.,0.));
#758=DIRECTION('center_axis',(0.,0.,-1.));
#759=DIRECTION('ref_axis',(-0.707106781186546,-0.707106781186549,0.));
#760=DIRECTION('',(1.,0.,0.));
#761=DIRECTION('center_axis',(0.,0.,-1.));
#762=DIRECTION('ref_axis',(0.707106781186551,-0.707106781186544,0.));
#763=DIRECTION('',(0.,1.,0.));
#764=DIRECTION('center_axis',(0.,0.,1.));
#765=DIRECTION('ref_axis',(1.,0.,0.));
#766=DIRECTION('center_axis',(0.,0.,1.));
#767=DIRECTION('ref_axis',(1.,0.,0.));
#768=DIRECTION('',(0.,0.,-1.));
#769=DIRECTION('center_axis',(0.,0.,1.));
#770=DIRECTION('ref_axis',(1.,0.,0.));
#771=DIRECTION('center_axis',(0.,0.,1.));
#772=DIRECTION('ref_axis',(1.,0.,0.));
#773=DIRECTION('',(0.707106781186547,8.65956056235493E-17,-0.707106781186547));
#774=DIRECTION('center_axis',(0.,0.,-1.));
#775=DIRECTION('ref_axis',(1.,0.,0.));
#776=DIRECTION('center_axis',(0.,0.,1.));
#777=DIRECTION('ref_axis',(1.,0.,0.));
#778=DIRECTION('',(0.,0.,-1.));
#779=DIRECTION('center_axis',(0.,0.,1.));
#780=DIRECTION('ref_axis',(1.,0.,0.));
#781=DIRECTION('center_axis',(0.,0.,1.));
#782=DIRECTION('ref_axis',(1.,0.,0.));
#783=DIRECTION('center_axis',(0.,0.,1.));
#784=DIRECTION('ref_axis',(1.,0.,0.));
#785=DIRECTION('',(0.707106781186548,8.65956056235493E-17,-0.707106781186548));
#786=DIRECTION('center_axis',(0.,0.,-1.));
#787=DIRECTION('ref_axis',(1.,0.,0.));
#788=DIRECTION('center_axis',(0.,0.,-1.));
#789=DIRECTION('ref_axis',(1.,0.,0.));
#790=DIRECTION('',(1.,0.,0.));
#791=DIRECTION('',(0.,1.,0.));
#792=DIRECTION('center_axis',(0.,0.,-1.));
#793=DIRECTION('ref_axis',(0.707106781186546,0.707106781186549,0.));
#794=DIRECTION('',(-1.,0.,0.));
#795=DIRECTION('center_axis',(0.,0.,-1.));
#796=DIRECTION('ref_axis',(-0.707106781186552,0.707106781186543,0.));
#797=DIRECTION('',(1.82860262879438E-16,-1.,0.));
#798=DIRECTION('center_axis',(0.,0.,1.));
#799=DIRECTION('ref_axis',(1.,0.,0.));
#800=DIRECTION('center_axis',(0.,0.,1.));
#801=DIRECTION('ref_axis',(1.,0.,0.));
#802=DIRECTION('',(0.,0.,-1.));
#803=DIRECTION('center_axis',(0.,0.,1.));
#804=DIRECTION('ref_axis',(1.,0.,0.));
#805=DIRECTION('center_axis',(0.,0.,1.));
#806=DIRECTION('ref_axis',(1.,0.,0.));
#807=DIRECTION('',(0.707106781186548,8.65956056235493E-17,-0.707106781186548));
#808=DIRECTION('center_axis',(0.,0.,-1.));
#809=DIRECTION('ref_axis',(1.,0.,0.));
#810=DIRECTION('center_axis',(0.,0.,1.));
#811=DIRECTION('ref_axis',(1.,0.,0.));
#812=DIRECTION('',(0.,0.,-1.));
#813=DIRECTION('center_axis',(0.,0.,1.));
#814=DIRECTION('ref_axis',(1.,0.,0.));
#815=DIRECTION('center_axis',(1.,0.,0.));
#816=DIRECTION('ref_axis',(0.,-0.689655175539292,0.724137928057817));
#817=DIRECTION('center_axis',(-1.,-1.07616072474456E-14,1.5425149740773E-26));
#818=DIRECTION('ref_axis',(0.,-0.689655175539292,0.724137928057817));
#819=DIRECTION('',(1.,0.,0.));
#820=DIRECTION('center_axis',(-1.,-1.84334125434727E-30,-1.85135228746335E-30));
#821=DIRECTION('ref_axis',(-6.93645732031234E-32,-0.689655175539292,0.724137928057817));
#822=DIRECTION('',(1.,0.,0.));
#823=DIRECTION('center_axis',(0.,0.724137928057825,0.689655175539283));
#824=DIRECTION('ref_axis',(-9.22448461545057E-31,-0.689655175539283,0.724137928057825));
#825=DIRECTION('',(-7.42179813533312E-15,0.689655175539283,-0.724137928057825));
#826=DIRECTION('',(1.,0.,0.));
#827=DIRECTION('',(9.22448461545057E-31,0.689655175539283,-0.724137928057825));
#828=DIRECTION('center_axis',(0.,1.,-3.73554917642748E-14));
#829=DIRECTION('ref_axis',(7.86422307607565E-31,3.73554917642748E-14,1.));
#830=DIRECTION('',(-1.50231446098706E-26,-3.73554917642748E-14,-1.));
#831=DIRECTION('',(7.86422307607565E-31,3.73554917642748E-14,1.));
#832=DIRECTION('center_axis',(0.,-1.,3.73554917642743E-14));
#833=DIRECTION('ref_axis',(-2.81616226754574E-30,-3.73554917642743E-14,
-1.));
#834=DIRECTION('',(1.50231446098706E-26,3.73554917642743E-14,1.));
#835=DIRECTION('',(1.,0.,0.));
#836=DIRECTION('',(2.81616226754574E-30,3.73554917642743E-14,1.));
#837=DIRECTION('center_axis',(0.,-0.724137928057799,0.689655175539311));
#838=DIRECTION('ref_axis',(3.56545472180145E-31,-0.689655175539311,-0.724137928057799));
#839=DIRECTION('',(-7.42179813531108E-15,0.689655175539311,0.724137928057799));
#840=DIRECTION('',(1.,0.,0.));
#841=DIRECTION('',(-3.56545472180145E-31,0.689655175539311,0.724137928057799));
#842=DIRECTION('center_axis',(1.,0.,0.));
#843=DIRECTION('ref_axis',(0.,-0.724137928057793,0.689655175539318));
#844=DIRECTION('center_axis',(-1.,-1.07616072474456E-14,1.5425149740773E-26));
#845=DIRECTION('ref_axis',(0.,-0.724137928057793,0.689655175539318));
#846=DIRECTION('',(1.,0.,0.));
#847=DIRECTION('center_axis',(-1.,1.42218305296683E-30,-8.92607904183651E-31));
#848=DIRECTION('ref_axis',(-1.64544835014186E-30,-0.724137928057793,0.689655175539318));
#849=DIRECTION('center_axis',(0.,0.689655175539281,0.724137928057827));
#850=DIRECTION('ref_axis',(3.51823843199738E-30,-0.724137928057827,0.689655175539281));
#851=DIRECTION('',(-7.79288797474803E-15,0.724137928057827,-0.689655175539281));
#852=DIRECTION('',(1.,0.,0.));
#853=DIRECTION('',(-3.51823843199738E-30,0.724137928057827,-0.689655175539281));
#854=DIRECTION('center_axis',(1.,0.,0.));
#855=DIRECTION('ref_axis',(0.,0.68965517553929,0.724137928057819));
#856=DIRECTION('center_axis',(-1.,-1.07616072474456E-14,1.5425149740773E-26));
#857=DIRECTION('ref_axis',(0.,0.68965517553929,0.724137928057819));
#858=DIRECTION('',(1.,0.,0.));
#859=DIRECTION('center_axis',(-1.,-4.04109830462225E-31,3.64217323205379E-31));
#860=DIRECTION('ref_axis',(-1.49528582758704E-32,0.68965517553929,0.724137928057819));
#861=DIRECTION('center_axis',(0.,0.72413792805797,-0.689655175539132));
#862=DIRECTION('ref_axis',(-3.24583227884709E-30,0.689655175539131,0.72413792805797));
#863=DIRECTION('',(7.42179813530915E-15,-0.689655175539132,-0.72413792805797));
#864=DIRECTION('',(1.,0.,0.));
#865=DIRECTION('',(3.24583227884709E-30,-0.689655175539132,-0.72413792805797));
#866=DIRECTION('center_axis',(0.,0.707106760113159,-0.707106802259935));
#867=DIRECTION('ref_axis',(3.26015110783476E-30,0.707106802259935,0.707106760113159));
#868=DIRECTION('',(7.60960568790772E-15,-0.707106802259935,-0.707106760113159));
#869=DIRECTION('',(1.,0.,0.));
#870=DIRECTION('',(-3.26015110783476E-30,-0.707106802259935,-0.707106760113159));
#871=DIRECTION('center_axis',(0.,1.,0.));
#872=DIRECTION('ref_axis',(4.31969697218883E-31,0.,1.));
#873=DIRECTION('',(-1.5425149740773E-26,0.,-1.));
#874=DIRECTION('',(1.,0.,0.));
#875=DIRECTION('',(-4.31969697218883E-31,0.,-1.));
#876=DIRECTION('center_axis',(0.,0.,1.));
#877=DIRECTION('ref_axis',(2.56056565190587E-66,-1.,0.));
#878=DIRECTION('',(-1.07616072474456E-14,1.,0.));
#879=DIRECTION('',(1.,0.,0.));
#880=DIRECTION('',(-2.56056565190587E-66,1.,0.));
#881=DIRECTION('center_axis',(0.,-1.,-8.10369905462787E-15));
#882=DIRECTION('ref_axis',(-2.58389064737615E-64,8.10369905462787E-15,-1.));
#883=DIRECTION('',(1.55123585672504E-26,-8.10369905462787E-15,1.));
#884=DIRECTION('',(1.,0.,0.));
#885=DIRECTION('',(2.58389064737615E-64,-8.10369905462787E-15,1.));
#886=DIRECTION('center_axis',(0.,-0.707106772634711,-0.707106789738384));
#887=DIRECTION('ref_axis',(-1.71054704910906E-31,0.707106789738384,-0.707106772634711));
#888=DIRECTION('',(7.60960555317753E-15,-0.707106789738384,0.707106772634711));
#889=DIRECTION('',(1.,0.,0.));
#890=DIRECTION('',(1.71054704910906E-31,-0.707106789738384,0.707106772634711));
#891=DIRECTION('center_axis',(1.,0.,0.));
#892=DIRECTION('ref_axis',(0.,-0.707106781186549,-0.707106781186546));
#893=DIRECTION('center_axis',(-1.,-1.07616072474456E-14,1.5425149740773E-26));
#894=DIRECTION('ref_axis',(0.,-0.707106781186549,-0.707106781186546));
#895=DIRECTION('',(1.,0.,0.));
#896=DIRECTION('center_axis',(-1.,-3.95646910035031E-31,5.84363909500561E-32));
#897=DIRECTION('ref_axis',(2.38443844732422E-31,-0.707106781186549,-0.707106781186546));
#898=DIRECTION('center_axis',(0.,-0.689655175539313,0.724137928057797));
#899=DIRECTION('ref_axis',(3.37059525302507E-30,-0.724137928057797,-0.689655175539313));
#900=DIRECTION('',(-7.79288797472643E-15,0.724137928057797,0.689655175539313));
#901=DIRECTION('',(-3.37059525302507E-30,0.724137928057797,0.689655175539313));
#902=DIRECTION('center_axis',(1.5425149740773E-26,0.,1.));
#903=DIRECTION('ref_axis',(-0.707106781186552,0.707106781186543,0.));
#904=DIRECTION('',(-1.5425149740773E-26,0.,-1.));
#905=DIRECTION('center_axis',(0.,0.,1.));
#906=DIRECTION('ref_axis',(-0.707106781186552,0.707106781186543,0.));
#907=DIRECTION('',(1.5425149740773E-26,0.,1.));
#908=DIRECTION('center_axis',(0.,1.,0.));
#909=DIRECTION('ref_axis',(-1.,0.,0.));
#910=DIRECTION('',(1.5425149740773E-26,0.,1.));
#911=DIRECTION('',(1.,0.,0.));
#912=DIRECTION('center_axis',(1.5425149740773E-26,0.,1.));
#913=DIRECTION('ref_axis',(0.707106781186546,0.707106781186549,0.));
#914=DIRECTION('',(-1.5425149740773E-26,0.,-1.));
#915=DIRECTION('center_axis',(0.,0.,1.));
#916=DIRECTION('ref_axis',(0.707106781186546,0.707106781186549,0.));
#917=DIRECTION('center_axis',(1.,1.07616072474456E-14,-1.5425149740773E-26));
#918=DIRECTION('ref_axis',(-1.07616072474456E-14,1.,-2.6645352583441E-15));
#919=DIRECTION('',(1.5425149740773E-26,0.,1.));
#920=DIRECTION('',(0.,-1.,0.));
#921=DIRECTION('center_axis',(0.,0.,1.));
#922=DIRECTION('ref_axis',(-8.48333898418695E-31,1.,0.));
#923=DIRECTION('center_axis',(0.,0.,1.));
#924=DIRECTION('ref_axis',(0.707106781186551,-0.707106781186544,0.));
#925=DIRECTION('',(-1.,0.,0.));
#926=DIRECTION('center_axis',(0.,0.,1.));
#927=DIRECTION('ref_axis',(-0.707106781186546,-0.707106781186549,0.));
#928=DIRECTION('',(-7.67665598082369E-34,1.,0.));
#929=DIRECTION('center_axis',(1.,1.07616072474456E-14,-1.5425149740773E-26));
#930=DIRECTION('ref_axis',(-1.07616072474456E-14,1.,-2.6645352583441E-15));
#931=DIRECTION('',(-1.5425149740773E-26,0.,-1.));
#932=DIRECTION('center_axis',(1.5425149740773E-26,0.,1.));
#933=DIRECTION('ref_axis',(-0.707106781186546,-0.707106781186549,0.));
#934=DIRECTION('',(1.5425149740773E-26,0.,1.));
#935=DIRECTION('center_axis',(0.,-1.,0.));
#936=DIRECTION('ref_axis',(1.,0.,0.));
#937=DIRECTION('',(-1.5425149740773E-26,0.,-1.));
#938=DIRECTION('center_axis',(1.5425149740773E-26,0.,1.));
#939=DIRECTION('ref_axis',(0.707106781186551,-0.707106781186544,0.));
#940=CARTESIAN_POINT('',(0.,0.,0.));
#941=CARTESIAN_POINT('Origin',(15.9189455252453,-79.85,14.6650000000003));
#942=CARTESIAN_POINT('',(11.9689455252453,-79.85,15.5150000000003));
#943=CARTESIAN_POINT('Origin',(15.9189455252453,-79.85,15.5150000000003));
#944=CARTESIAN_POINT('',(13.6689455252453,-79.85,13.8150000000003));
#945=CARTESIAN_POINT('',(12.8189455252453,-79.85,14.6650000000003));
#946=CARTESIAN_POINT('Origin',(15.9189455252453,-79.85,13.8150000000003));
#947=CARTESIAN_POINT('Origin',(15.9189455252453,-70.6250000000005,15.5150000000003));
#948=CARTESIAN_POINT('',(23.1189455252465,-59.94382482918,15.5150000000003));
#949=CARTESIAN_POINT('',(8.71894552524514,-59.94382482918,15.5150000000003));
#950=CARTESIAN_POINT('',(12.3189455252452,-59.94382482918,15.5150000000003));
#951=CARTESIAN_POINT('',(8.71894552524529,-80.8499999999999,15.5150000000003));
#952=CARTESIAN_POINT('',(8.71894552524529,-84.8499999999999,15.5150000000003));
#953=CARTESIAN_POINT('',(12.7189455252468,-84.8499999999999,15.5150000000003));
#954=CARTESIAN_POINT('Origin',(12.7189455252468,-80.8499999999999,15.5150000000003));
#955=CARTESIAN_POINT('',(19.1189455252468,-84.8499999999999,15.5150000000003));
#956=CARTESIAN_POINT('',(23.1189455252453,-84.8499999999999,15.5150000000003));
#957=CARTESIAN_POINT('',(23.1189455252453,-80.8499999999998,15.5150000000003));
#958=CARTESIAN_POINT('Origin',(19.1189455252468,-80.8499999999999,15.5150000000003));
#959=CARTESIAN_POINT('',(23.1189455252453,85.1500000000001,15.5150000000003));
#960=CARTESIAN_POINT('',(11.9689455252453,-64.85,15.5150000000003));
#961=CARTESIAN_POINT('Origin',(15.9189455252453,-64.85,15.5150000000003));
#962=CARTESIAN_POINT('Origin',(15.9189455252453,-79.85,14.1000000000003));
#963=CARTESIAN_POINT('',(13.6689455252453,-79.85,12.9000000000003));
#964=CARTESIAN_POINT('',(13.6689455252453,-79.85,14.1000000000003));
#965=CARTESIAN_POINT('Origin',(15.9189455252453,-79.85,12.9000000000003));
#966=CARTESIAN_POINT('Origin',(15.9189455252453,-64.85,14.6650000000003));
#967=CARTESIAN_POINT('',(13.6689455252453,-64.85,13.8150000000003));
#968=CARTESIAN_POINT('',(12.8189455252453,-64.85,14.6650000000003));
#969=CARTESIAN_POINT('Origin',(15.9189455252453,-64.85,13.8150000000003));
#970=CARTESIAN_POINT('Origin',(15.9189455252453,-64.85,14.1000000000003));
#971=CARTESIAN_POINT('',(13.6689455252453,-64.85,12.9000000000003));
#972=CARTESIAN_POINT('',(13.6689455252453,-64.85,14.1000000000003));
#973=CARTESIAN_POINT('Origin',(15.9189455252453,-64.85,12.9000000000003));
#974=CARTESIAN_POINT('Origin',(15.9189455252453,79.85,14.6650000000003));
#975=CARTESIAN_POINT('',(11.9689455252453,79.85,15.5150000000003));
#976=CARTESIAN_POINT('Origin',(15.9189455252453,79.85,15.5150000000003));
#977=CARTESIAN_POINT('',(13.6689455252453,79.85,13.8150000000003));
#978=CARTESIAN_POINT('',(12.8189455252453,79.85,14.6650000000003));
#979=CARTESIAN_POINT('Origin',(15.9189455252453,79.85,13.8150000000003));
#980=CARTESIAN_POINT('Origin',(15.9189455252453,70.6250000000006,15.5150000000003));
#981=CARTESIAN_POINT('',(8.71894552524514,59.9438248291794,15.5150000000003));
#982=CARTESIAN_POINT('',(23.1189455252452,59.9438248291794,15.5150000000003));
#983=CARTESIAN_POINT('',(12.3189455252452,59.9438248291795,15.5150000000003));
#984=CARTESIAN_POINT('',(23.1189455252453,80.8500000000001,15.5150000000003));
#985=CARTESIAN_POINT('',(23.1189455252453,84.8500000000001,15.5150000000003));
#986=CARTESIAN_POINT('',(19.118945525245,84.8500000000001,15.5150000000003));
#987=CARTESIAN_POINT('Origin',(19.118945525245,80.8500000000001,15.5150000000003));
#988=CARTESIAN_POINT('',(12.718945525245,84.8500000000001,15.5150000000003));
#989=CARTESIAN_POINT('',(8.71894552524526,84.8500000000001,15.5150000000003));
#990=CARTESIAN_POINT('',(8.71894552524526,80.8500000000001,15.5150000000003));
#991=CARTESIAN_POINT('Origin',(12.718945525245,80.8500000000001,15.5150000000003));
#992=CARTESIAN_POINT('',(8.71894552524529,-85.1499999999999,15.5150000000003));
#993=CARTESIAN_POINT('',(11.9689455252453,64.85,15.5150000000003));
#994=CARTESIAN_POINT('Origin',(15.9189455252453,64.85,15.5150000000003));
#995=CARTESIAN_POINT('Origin',(15.9189455252453,79.85,14.1000000000003));
#996=CARTESIAN_POINT('',(13.6689455252453,79.85,12.9000000000003));
#997=CARTESIAN_POINT('',(13.6689455252453,79.85,14.1000000000003));
#998=CARTESIAN_POINT('Origin',(15.9189455252453,79.85,12.9000000000003));
#999=CARTESIAN_POINT('Origin',(15.9189455252453,64.85,14.6650000000003));
#1000=CARTESIAN_POINT('',(13.6689455252453,64.85,13.8150000000003));
#1001=CARTESIAN_POINT('',(12.8189455252453,64.85,14.6650000000003));
#1002=CARTESIAN_POINT('Origin',(15.9189455252453,64.85,13.8150000000003));
#1003=CARTESIAN_POINT('Origin',(15.9189455252453,64.85,14.1000000000003));
#1004=CARTESIAN_POINT('',(13.6689455252453,64.85,12.9000000000003));
#1005=CARTESIAN_POINT('',(13.6689455252453,64.85,14.1000000000003));
#1006=CARTESIAN_POINT('Origin',(15.9189455252453,64.85,12.9000000000003));
#1007=CARTESIAN_POINT('Origin',(8.71894552524514,55.0602258952827,18.8306807988663));
#1008=CARTESIAN_POINT('',(23.1189455252453,54.1981569258586,19.7358532089386));
#1009=CARTESIAN_POINT('',(23.1189455252453,55.9653983053549,19.6927497682904));
#1010=CARTESIAN_POINT('Origin',(23.1189455252459,55.0602258952827,18.8306807988663));
#1011=CARTESIAN_POINT('',(8.71894552524514,55.9653983053549,19.6927497682904));
#1012=CARTESIAN_POINT('',(8.71894552524514,55.9653983053549,19.6927497682904));
#1013=CARTESIAN_POINT('',(8.71894552524514,54.1981569258586,19.7358532089386));
#1014=CARTESIAN_POINT('Origin',(8.71894552524514,55.0602258952827,18.8306807988663));
#1015=CARTESIAN_POINT('',(8.71894552524514,54.1981569258586,19.7358532089386));
#1016=CARTESIAN_POINT('Origin',(8.71894552524514,59.9438248291794,15.5154019543778));
#1017=CARTESIAN_POINT('',(23.1189455252452,59.9438248291794,15.5154019543778));
#1018=CARTESIAN_POINT('',(23.1189455252454,45.4450113356609,30.7391559909997));
#1019=CARTESIAN_POINT('',(8.71894552524514,59.9438248291794,15.5154019543778));
#1020=CARTESIAN_POINT('',(8.71894552524514,59.9438248291794,15.5154019543778));
#1021=CARTESIAN_POINT('',(8.71894552524514,55.9653983053549,19.6927497682904));
#1022=CARTESIAN_POINT('Origin',(8.71894552524514,59.9438248291794,15.5150000000003));
#1023=CARTESIAN_POINT('',(23.1189455252452,59.9438248291795,16.0026701997157));
#1024=CARTESIAN_POINT('',(8.71894552524514,59.9438248291793,12.9000000000004));
#1025=CARTESIAN_POINT('Origin',(8.71894552524514,-59.94382482918,15.5154019543778));
#1026=CARTESIAN_POINT('',(23.1189455252465,-59.94382482918,15.5154019543778));
#1027=CARTESIAN_POINT('',(23.1189455252465,-59.9438248291799,16.0028711769067));
#1028=CARTESIAN_POINT('',(8.71894552524514,-59.94382482918,15.5154019543778));
#1029=CARTESIAN_POINT('',(8.71894552524514,-59.94382482918,15.5154019543778));
#1030=CARTESIAN_POINT('',(8.71894552524514,-59.9438248291801,12.9000000000003));
#1031=CARTESIAN_POINT('Origin',(8.71894552524514,-55.9653983053553,19.6927497682902));
#1032=CARTESIAN_POINT('',(23.1189455252465,-55.9653983053553,19.6927497682902));
#1033=CARTESIAN_POINT('',(23.1189455252463,-43.4557980737479,32.827829897956));
#1034=CARTESIAN_POINT('',(8.71894552524514,-55.9653983053553,19.6927497682902));
#1035=CARTESIAN_POINT('',(8.71894552524514,-55.9653983053553,19.6927497682902));
#1036=CARTESIAN_POINT('',(8.71894552524514,-59.94382482918,15.5154019543778));
#1037=CARTESIAN_POINT('Origin',(8.71894552524514,-55.0602258952831,18.8306807988661));
#1038=CARTESIAN_POINT('',(23.1189455252465,-54.198156925859,19.7358532089383));
#1039=CARTESIAN_POINT('Origin',(23.1189455252459,-55.0602258952831,18.8306807988661));
#1040=CARTESIAN_POINT('',(8.71894552524514,-54.198156925859,19.7358532089383));
#1041=CARTESIAN_POINT('',(8.71894552524514,-54.198156925859,19.7358532089383));
#1042=CARTESIAN_POINT('Origin',(8.71894552524514,-55.0602258952831,18.8306807988661));
#1043=CARTESIAN_POINT('Origin',(8.71894552524514,-54.108263928527,19.650240829787));
#1044=CARTESIAN_POINT('',(23.1189455252465,-54.108263928527,19.650240829787));
#1045=CARTESIAN_POINT('',(23.1189455252463,-39.1326977111578,5.3877966899806));
#1046=CARTESIAN_POINT('',(8.71894552524514,-54.108263928527,19.650240829787));
#1047=CARTESIAN_POINT('',(8.71894552524514,-54.108263928527,19.650240829787));
#1048=CARTESIAN_POINT('',(8.71894552524514,-54.198156925859,19.7358532089383));
#1049=CARTESIAN_POINT('Origin',(8.71894552524514,-54.9703328979511,18.7450684197147));
#1050=CARTESIAN_POINT('',(23.1189455252465,-54.0651604878788,17.8829994502905));
#1051=CARTESIAN_POINT('Origin',(23.1189455252459,-54.9703328979511,18.7450684197147));
#1052=CARTESIAN_POINT('',(8.71894552524514,-54.0651604878788,17.8829994502905));
#1053=CARTESIAN_POINT('',(8.71894552524514,-54.0651604878788,17.8829994502905));
#1054=CARTESIAN_POINT('Origin',(8.71894552524514,-54.9703328979511,18.7450684197147));
#1055=CARTESIAN_POINT('Origin',(8.71894552524514,-54.7999999701988,17.1114180005227));
#1056=CARTESIAN_POINT('',(23.1189455252465,-54.7999999701988,17.1114180005227));
#1057=CARTESIAN_POINT('',(23.1189455252463,-41.9229799974381,30.6322888550719));
#1058=CARTESIAN_POINT('',(8.71894552524514,-54.7999999701988,17.1114180005227));
#1059=CARTESIAN_POINT('',(8.71894552524514,-54.7999999701988,17.1114180005227));
#1060=CARTESIAN_POINT('',(8.71894552524514,-54.0651604878788,17.8829994502905));
#1061=CARTESIAN_POINT('Origin',(8.71894552524514,-55.3000000000011,16.6114180005227));
#1062=CARTESIAN_POINT('',(23.1189455252465,-55.3000000000011,16.6114180005227));
#1063=CARTESIAN_POINT('',(23.1189455252463,-41.5052685762404,30.4061486020547));
#1064=CARTESIAN_POINT('',(8.71894552524514,-55.3000000000011,16.6114180005227));
#1065=CARTESIAN_POINT('',(8.71894552524514,-55.3000000000011,16.6114180005227));
#1066=CARTESIAN_POINT('',(8.71894552524514,-54.7999999701988,17.1114180005227));
#1067=CARTESIAN_POINT('Origin',(8.71894552524514,-55.3000000000011,15.5154019543778));
#1068=CARTESIAN_POINT('',(23.1189455252465,-55.3000000000011,15.5154019543778));
#1069=CARTESIAN_POINT('',(23.1189455252465,-55.3000000000011,16.0028711769055));
#1070=CARTESIAN_POINT('',(8.71894552524514,-55.3000000000011,15.5154019543778));
#1071=CARTESIAN_POINT('',(8.71894552524514,-55.3000000000011,15.5154019543778));
#1072=CARTESIAN_POINT('',(8.71894552524514,-55.3000000000011,16.6114180005227));
#1073=CARTESIAN_POINT('Origin',(8.71894552524514,55.3000000000009,15.5154019543778));
#1074=CARTESIAN_POINT('',(23.1189455252453,55.3000000000009,15.5154019543778));
#1075=CARTESIAN_POINT('',(23.1189455252456,27.6500000000004,15.5154019543778));
#1076=CARTESIAN_POINT('',(8.71894552524514,55.3000000000009,15.5154019543778));
#1077=CARTESIAN_POINT('',(8.71894552524514,55.3000000000009,15.5154019543778));
#1078=CARTESIAN_POINT('',(8.71894552524514,-55.3000000000011,15.5154019543778));
#1079=CARTESIAN_POINT('Origin',(8.71894552524514,55.3000000000009,16.6114180005227));
#1080=CARTESIAN_POINT('',(23.1189455252453,55.3000000000009,16.6114180005227));
#1081=CARTESIAN_POINT('',(23.1189455252453,55.3000000000009,16.5508791999782));
#1082=CARTESIAN_POINT('',(8.71894552524514,55.3000000000009,16.6114180005227));
#1083=CARTESIAN_POINT('',(8.71894552524514,55.3000000000009,16.6114180005227));
#1084=CARTESIAN_POINT('',(8.71894552524514,55.3000000000009,15.5154019543778));
#1085=CARTESIAN_POINT('Origin',(8.71894552524514,54.0678995612155,17.8435184095057));
#1086=CARTESIAN_POINT('',(23.1189455252453,54.0678995612155,17.8435184095057));
#1087=CARTESIAN_POINT('',(23.1189455252454,40.8892188464778,31.0221988054743));
#1088=CARTESIAN_POINT('',(8.71894552524514,54.0678995612155,17.8435184095057));
#1089=CARTESIAN_POINT('',(8.71894552524514,54.0678995612155,17.8435184095057));
#1090=CARTESIAN_POINT('',(8.71894552524514,55.3000000000009,16.6114180005227));
#1091=CARTESIAN_POINT('Origin',(8.71894552524514,54.9517830376987,18.7274018859889));
#1092=CARTESIAN_POINT('',(23.1189455252453,54.0897140682746,19.6325742960612));
#1093=CARTESIAN_POINT('Origin',(23.1189455252459,54.9517830376987,18.7274018859889));
#1094=CARTESIAN_POINT('',(8.71894552524514,54.0897140682746,19.6325742960612));
#1095=CARTESIAN_POINT('',(8.71894552524514,54.0897140682746,19.6325742960612));
#1096=CARTESIAN_POINT('Origin',(8.71894552524514,54.9517830376987,18.7274018859889));
#1097=CARTESIAN_POINT('Origin',(8.71894552524514,54.1981569258586,19.7358532089386));
#1098=CARTESIAN_POINT('',(23.1189455252455,39.1776442098246,5.43060287955639));
#1099=CARTESIAN_POINT('',(8.71894552524514,54.0897140682746,19.6325742960612));
#1100=CARTESIAN_POINT('Origin',(12.718945525245,80.8500000000001,16.2697239099451));
#1101=CARTESIAN_POINT('',(12.718945525245,84.8500000000001,12.9000000000003));
#1102=CARTESIAN_POINT('',(12.718945525245,84.8500000000001,16.2697239099451));
#1103=CARTESIAN_POINT('',(8.71894552524526,80.8500000000001,12.9000000000003));
#1104=CARTESIAN_POINT('Origin',(12.718945525245,80.8500000000001,12.9000000000003));
#1105=CARTESIAN_POINT('',(8.71894552524501,80.8500000000001,16.2697239099451));
#1106=CARTESIAN_POINT('Origin',(23.1189455252453,84.8500000000001,14.1000000000003));
#1107=CARTESIAN_POINT('',(19.118945525245,84.8500000000001,12.9000000000003));
#1108=CARTESIAN_POINT('',(19.118945525245,84.8500000000001,16.2697239099451));
#1109=CARTESIAN_POINT('',(8.71894552524526,84.8500000000001,12.9000000000003));
#1110=CARTESIAN_POINT('Origin',(19.118945525245,80.8500000000001,16.2697239099451));
#1111=CARTESIAN_POINT('',(23.1189455252453,80.8500000000001,12.9000000000003));
#1112=CARTESIAN_POINT('',(23.118945525245,80.8500000000001,16.2697239099451));
#1113=CARTESIAN_POINT('Origin',(19.118945525245,80.8500000000001,12.9000000000003));
#1114=CARTESIAN_POINT('Origin',(23.1189455252459,1.24999998510004,18.4394478198899));
#1115=CARTESIAN_POINT('',(23.1189455252453,-80.8499999999998,12.9000000000003));
#1116=CARTESIAN_POINT('',(23.1189455252468,-80.8499999999999,16.2697239099451));
#1117=CARTESIAN_POINT('',(23.1189455252453,85.1500000000001,12.9000000000003));
#1118=CARTESIAN_POINT('Origin',(23.1189455252459,-16.4727198207932,12.9000000000003));
#1119=CARTESIAN_POINT('',(19.1189455252468,-84.8499999999999,12.9000000000003));
#1120=CARTESIAN_POINT('Origin',(19.1189455252468,-80.8499999999999,12.9000000000003));
#1121=CARTESIAN_POINT('',(12.7189455252468,-84.8499999999999,12.9000000000003));
#1122=CARTESIAN_POINT('',(23.1189455252453,-84.8499999999999,12.9000000000003));
#1123=CARTESIAN_POINT('',(8.71894552524529,-80.8499999999999,12.9000000000003));
#1124=CARTESIAN_POINT('Origin',(12.7189455252468,-80.8499999999999,12.9000000000003));
#1125=CARTESIAN_POINT('',(8.71894552524514,-58.5000000000011,12.9000000000003));
#1126=CARTESIAN_POINT('Origin',(8.71894552524587,1.24999998509987,18.4394478198899));
#1127=CARTESIAN_POINT('',(8.71894552524676,-80.8499999999999,16.2697239099451));
#1128=CARTESIAN_POINT('Origin',(12.7189455252468,-80.8499999999999,16.2697239099451));
#1129=CARTESIAN_POINT('',(12.7189455252468,-84.8499999999999,16.2697239099451));
#1130=CARTESIAN_POINT('Origin',(8.71894552524529,-84.8499999999999,14.1000000000003));
#1131=CARTESIAN_POINT('',(19.1189455252468,-84.8499999999999,16.2697239099451));
#1132=CARTESIAN_POINT('Origin',(19.1189455252468,-80.8499999999999,16.2697239099451));
#1133=UNCERTAINTY_MEASURE_WITH_UNIT(LENGTH_MEASURE(0.01),#1137,
'DISTANCE_ACCURACY_VALUE',
'Maximum model space distance between geometric entities at asserted c
onnectivities');
#1134=UNCERTAINTY_MEASURE_WITH_UNIT(LENGTH_MEASURE(0.01),#1137,
'DISTANCE_ACCURACY_VALUE',
'Maximum model space distance between geometric entities at asserted c
onnectivities');
#1135=(
GEOMETRIC_REPRESENTATION_CONTEXT(3)
GLOBAL_UNCERTAINTY_ASSIGNED_CONTEXT((#1133))
GLOBAL_UNIT_ASSIGNED_CONTEXT((#1137,#1138,#1139))
REPRESENTATION_CONTEXT('','3D')
);
#1136=(
GEOMETRIC_REPRESENTATION_CONTEXT(3)
GLOBAL_UNCERTAINTY_ASSIGNED_CONTEXT((#1134))
GLOBAL_UNIT_ASSIGNED_CONTEXT((#1137,#1138,#1139))
REPRESENTATION_CONTEXT('','3D')
);
#1137=(
LENGTH_UNIT()
NAMED_UNIT(*)
SI_UNIT(.MILLI.,.METRE.)
);
#1138=(
NAMED_UNIT(*)
PLANE_ANGLE_UNIT()
SI_UNIT($,.RADIAN.)
);
#1139=(
NAMED_UNIT(*)
SI_UNIT($,.STERADIAN.)
SOLID_ANGLE_UNIT()
);
#1140=SHAPE_DEFINITION_REPRESENTATION(#1141,#1142);
#1141=PRODUCT_DEFINITION_SHAPE('',$,#1144);
#1142=SHAPE_REPRESENTATION('',(#681),#1135);
#1143=PRODUCT_DEFINITION_CONTEXT('part definition',#1148,'design');
#1144=PRODUCT_DEFINITION('bracketC45_02','bracketC45_02 v9',#1145,#1143);
#1145=PRODUCT_DEFINITION_FORMATION('',$,#1150);
#1146=PRODUCT_RELATED_PRODUCT_CATEGORY('bracketC45_02 v9',
'bracketC45_02 v9',(#1150));
#1147=APPLICATION_PROTOCOL_DEFINITION('international standard',
'ap242_managed_model_based_3d_engineering',2011,#1148);
#1148=APPLICATION_CONTEXT('Managed model based 3d engineering');
#1149=PRODUCT_CONTEXT('part definition',#1148,'mechanical');
#1150=PRODUCT('bracketC45_02','bracketC45_02 v9',$,(#1149));
#1151=PRESENTATION_STYLE_ASSIGNMENT((#1158));
#1152=PRESENTATION_STYLE_ASSIGNMENT((#1159));
#1153=PRESENTATION_STYLE_ASSIGNMENT((#1160));
#1154=PRESENTATION_STYLE_ASSIGNMENT((#1161));
#1155=PRESENTATION_STYLE_ASSIGNMENT((#1162));
#1156=PRESENTATION_STYLE_ASSIGNMENT((#1163));
#1157=PRESENTATION_STYLE_ASSIGNMENT((#1164));
#1158=SURFACE_STYLE_USAGE(.BOTH.,#1165);
#1159=SURFACE_STYLE_USAGE(.BOTH.,#1166);
#1160=SURFACE_STYLE_USAGE(.BOTH.,#1167);
#1161=SURFACE_STYLE_USAGE(.BOTH.,#1168);
#1162=SURFACE_STYLE_USAGE(.BOTH.,#1169);
#1163=SURFACE_STYLE_USAGE(.BOTH.,#1170);
#1164=SURFACE_STYLE_USAGE(.BOTH.,#1171);
#1165=SURFACE_SIDE_STYLE('',(#1172));
#1166=SURFACE_SIDE_STYLE('',(#1173));
#1167=SURFACE_SIDE_STYLE('',(#1174));
#1168=SURFACE_SIDE_STYLE('',(#1175));
#1169=SURFACE_SIDE_STYLE('',(#1176));
#1170=SURFACE_SIDE_STYLE('',(#1177));
#1171=SURFACE_SIDE_STYLE('',(#1178));
#1172=SURFACE_STYLE_FILL_AREA(#1179);
#1173=SURFACE_STYLE_FILL_AREA(#1180);
#1174=SURFACE_STYLE_FILL_AREA(#1181);
#1175=SURFACE_STYLE_FILL_AREA(#1182);
#1176=SURFACE_STYLE_FILL_AREA(#1183);
#1177=SURFACE_STYLE_FILL_AREA(#1184);
#1178=SURFACE_STYLE_FILL_AREA(#1185);
#1179=FILL_AREA_STYLE('Steel - Satin',(#1186));
#1180=FILL_AREA_STYLE('Plastic - Translucent Matte (Blue)',(#1187));
#1181=FILL_AREA_STYLE('Opaque(202,209,238)',(#1188));
#1182=FILL_AREA_STYLE('Opaque(144,144,144)',(#1189));
#1183=FILL_AREA_STYLE('Opaque(192,192,192)',(#1190));
#1184=FILL_AREA_STYLE('Opaque(151,158,166)',(#1191));
#1185=FILL_AREA_STYLE('Opaque(89,190,89)',(#1192));
#1186=FILL_AREA_STYLE_COLOUR('Steel - Satin',#1193);
#1187=FILL_AREA_STYLE_COLOUR('Plastic - Translucent Matte (Blue)',#1194);
#1188=FILL_AREA_STYLE_COLOUR('Opaque(202,209,238)',#1195);
#1189=FILL_AREA_STYLE_COLOUR('Opaque(144,144,144)',#1196);
#1190=FILL_AREA_STYLE_COLOUR('Opaque(192,192,192)',#1197);
#1191=FILL_AREA_STYLE_COLOUR('Opaque(151,158,166)',#1198);
#1192=FILL_AREA_STYLE_COLOUR('Opaque(89,190,89)',#1199);
#1193=COLOUR_RGB('Steel - Satin',0.627450980392157,0.627450980392157,0.627450980392157);
#1194=COLOUR_RGB('Plastic - Translucent Matte (Blue)',0.,0.117647058823529,
1.);
#1195=COLOUR_RGB('Opaque(202,209,238)',0.792156862745098,0.819607843137255,
0.933333333333333);
#1196=COLOUR_RGB('Opaque(144,144,144)',0.564705882352941,0.564705882352941,
0.564705882352941);
#1197=COLOUR_RGB('Opaque(192,192,192)',0.752941176470588,0.752941176470588,
0.752941176470588);
#1198=COLOUR_RGB('Opaque(151,158,166)',0.592156862745098,0.619607843137255,
0.650980392156863);
#1199=COLOUR_RGB('Opaque(89,190,89)',0.349019607843137,0.745098039215686,
0.349019607843137);
ENDSEC;
END-ISO-10303-21;
