G04*
G04 #@! TF.GenerationSoftware,Altium Limited,Altium Designer,22.10.1 (41)*
G04*
G04 Layer_Color=8421504*
%FSLAX25Y25*%
%MOIN*%
G70*
G04*
G04 #@! TF.SameCoordinates,42878850-B326-4A15-914F-A90B80183A8D*
G04*
G04*
G04 #@! TF.FilePolarity,Positive*
G04*
G01*
G75*
%ADD22O,0.09843X0.02756*%
%ADD23R,0.10630X0.05906*%
%ADD24R,0.03000X0.03000*%
%ADD25R,0.03543X0.01575*%
G04:AMPARAMS|DCode=26|XSize=47.24mil|YSize=86.61mil|CornerRadius=2.36mil|HoleSize=0mil|Usage=FLASHONLY|Rotation=180.000|XOffset=0mil|YOffset=0mil|HoleType=Round|Shape=RoundedRectangle|*
%AMROUNDEDRECTD26*
21,1,0.04724,0.08189,0,0,180.0*
21,1,0.04252,0.08661,0,0,180.0*
1,1,0.00472,-0.02126,0.04095*
1,1,0.00472,0.02126,0.04095*
1,1,0.00472,0.02126,-0.04095*
1,1,0.00472,-0.02126,-0.04095*
%
%ADD26ROUNDEDRECTD26*%
G04:AMPARAMS|DCode=27|XSize=86.61mil|YSize=141.73mil|CornerRadius=4.33mil|HoleSize=0mil|Usage=FLASHONLY|Rotation=90.000|XOffset=0mil|YOffset=0mil|HoleType=Round|Shape=RoundedRectangle|*
%AMROUNDEDRECTD27*
21,1,0.08661,0.13307,0,0,90.0*
21,1,0.07795,0.14173,0,0,90.0*
1,1,0.00866,0.06653,0.03898*
1,1,0.00866,0.06653,-0.03898*
1,1,0.00866,-0.06653,-0.03898*
1,1,0.00866,-0.06653,0.03898*
%
%ADD27ROUNDEDRECTD27*%
%ADD28R,0.07874X0.04921*%
%ADD29R,0.06496X0.02756*%
%ADD30R,0.07480X0.05906*%
%ADD31R,0.02362X0.03543*%
%ADD32R,0.02362X0.02165*%
%ADD33R,0.02362X0.02165*%
%ADD34R,0.01968X0.01968*%
%ADD35R,0.07087X0.04528*%
%ADD36R,0.03150X0.03150*%
%ADD37R,0.03150X0.03150*%
%ADD38R,0.07284X0.01575*%
G04:AMPARAMS|DCode=39|XSize=33.86mil|YSize=10.24mil|CornerRadius=0.36mil|HoleSize=0mil|Usage=FLASHONLY|Rotation=0.000|XOffset=0mil|YOffset=0mil|HoleType=Round|Shape=RoundedRectangle|*
%AMROUNDEDRECTD39*
21,1,0.03386,0.00952,0,0,0.0*
21,1,0.03314,0.01024,0,0,0.0*
1,1,0.00072,0.01657,-0.00476*
1,1,0.00072,-0.01657,-0.00476*
1,1,0.00072,-0.01657,0.00476*
1,1,0.00072,0.01657,0.00476*
%
%ADD39ROUNDEDRECTD39*%
%ADD40R,0.07008X0.20000*%
%ADD41R,0.03543X0.05118*%
%ADD42R,0.05118X0.03543*%
%ADD43O,0.00984X0.03937*%
%ADD44O,0.03937X0.00984*%
%ADD45R,0.22047X0.22047*%
%ADD46R,0.02165X0.02362*%
%ADD47R,0.02165X0.02362*%
%ADD48R,0.03543X0.02362*%
G04:AMPARAMS|DCode=49|XSize=47.64mil|YSize=23.23mil|CornerRadius=2.9mil|HoleSize=0mil|Usage=FLASHONLY|Rotation=270.000|XOffset=0mil|YOffset=0mil|HoleType=Round|Shape=RoundedRectangle|*
%AMROUNDEDRECTD49*
21,1,0.04764,0.01742,0,0,270.0*
21,1,0.04183,0.02323,0,0,270.0*
1,1,0.00581,-0.00871,-0.02092*
1,1,0.00581,-0.00871,0.02092*
1,1,0.00581,0.00871,0.02092*
1,1,0.00581,0.00871,-0.02092*
%
%ADD49ROUNDEDRECTD49*%
%ADD50R,0.03150X0.01181*%
%ADD51R,0.01181X0.03150*%
%ADD52R,0.10827X0.10827*%
%ADD53R,0.01968X0.01968*%
%ADD54R,0.05906X0.10630*%
%ADD55R,0.01200X0.04575*%
G04:AMPARAMS|DCode=56|XSize=33.86mil|YSize=10.24mil|CornerRadius=0.36mil|HoleSize=0mil|Usage=FLASHONLY|Rotation=270.000|XOffset=0mil|YOffset=0mil|HoleType=Round|Shape=RoundedRectangle|*
%AMROUNDEDRECTD56*
21,1,0.03386,0.00952,0,0,270.0*
21,1,0.03314,0.01024,0,0,270.0*
1,1,0.00072,-0.00476,-0.01657*
1,1,0.00072,-0.00476,0.01657*
1,1,0.00072,0.00476,0.01657*
1,1,0.00072,0.00476,-0.01657*
%
%ADD56ROUNDEDRECTD56*%
%ADD57R,0.01968X0.03937*%
%ADD58R,0.06693X0.09449*%
%ADD59R,0.09449X0.06693*%
%ADD60O,0.08661X0.02362*%
%ADD61R,0.07087X0.03937*%
%ADD62R,0.03000X0.03000*%
%ADD63O,0.08268X0.01181*%
%ADD64O,0.01181X0.08268*%
%ADD65R,0.06299X0.03150*%
%ADD66R,0.05118X0.02756*%
%ADD67R,0.13386X0.05118*%
G36*
X243326Y-208622D02*
Y-205000D01*
X246950Y-205000D01*
Y-208622D01*
X243326Y-208622D01*
D02*
G37*
G36*
X243321Y-203661D02*
X243321Y-200033D01*
X246950Y-200033D01*
X246950Y-203661D01*
X243321D01*
D02*
G37*
G36*
X248289Y-208622D02*
Y-205001D01*
X251910Y-205001D01*
X251910Y-208622D01*
X248289D01*
D02*
G37*
G36*
X248289Y-203661D02*
Y-200037D01*
X251910Y-200037D01*
X251910Y-203661D01*
X248289Y-203661D01*
D02*
G37*
D22*
X227461Y-146459D02*
D03*
Y-151459D02*
D03*
Y-156459D02*
D03*
Y-161459D02*
D03*
X246752Y-146459D02*
D03*
Y-151459D02*
D03*
Y-156459D02*
D03*
Y-161459D02*
D03*
X319488Y-75039D02*
D03*
Y-80039D02*
D03*
Y-70039D02*
D03*
Y-65039D02*
D03*
X300197Y-80039D02*
D03*
Y-75039D02*
D03*
Y-70039D02*
D03*
Y-65039D02*
D03*
D23*
X112205Y-97834D02*
D03*
Y-90354D02*
D03*
D24*
X98032Y-55118D02*
D03*
Y-47618D02*
D03*
X107032Y-51368D02*
D03*
X52694Y-204733D02*
D03*
Y-212233D02*
D03*
X43694Y-208483D02*
D03*
X336024Y-99508D02*
D03*
X327024Y-95758D02*
D03*
Y-103258D02*
D03*
Y-68888D02*
D03*
Y-76388D02*
D03*
X336024Y-72638D02*
D03*
X328106Y-135246D02*
D03*
Y-127746D02*
D03*
X337106Y-131496D02*
D03*
X246850Y-62579D02*
D03*
Y-70079D02*
D03*
X237850Y-66329D02*
D03*
D25*
X175391Y-150019D02*
D03*
Y-155019D02*
D03*
Y-160019D02*
D03*
Y-165019D02*
D03*
X205981Y-150019D02*
D03*
Y-155019D02*
D03*
Y-160019D02*
D03*
Y-165019D02*
D03*
D26*
X148425Y-192913D02*
D03*
X157480D02*
D03*
X166535D02*
D03*
D27*
X157480Y-217323D02*
D03*
D28*
X61024Y-205311D02*
D03*
Y-218311D02*
D03*
D29*
X44193Y-195945D02*
D03*
Y-185945D02*
D03*
X69784D02*
D03*
Y-195945D02*
D03*
X44193Y-178228D02*
D03*
Y-168228D02*
D03*
X69784D02*
D03*
Y-178228D02*
D03*
X44193Y-160906D02*
D03*
Y-150906D02*
D03*
X69784D02*
D03*
Y-160906D02*
D03*
X44193Y-143189D02*
D03*
Y-133189D02*
D03*
X69784D02*
D03*
Y-143189D02*
D03*
X44537Y-124794D02*
D03*
Y-114794D02*
D03*
X70127D02*
D03*
Y-124794D02*
D03*
D30*
X76781Y-105305D02*
D03*
Y-95305D02*
D03*
X44104D02*
D03*
Y-105305D02*
D03*
X76781Y-86013D02*
D03*
Y-76013D02*
D03*
X44104D02*
D03*
Y-86013D02*
D03*
X76781Y-66722D02*
D03*
Y-56722D02*
D03*
X44104D02*
D03*
Y-66722D02*
D03*
X76781Y-47431D02*
D03*
Y-37431D02*
D03*
X44104D02*
D03*
Y-47431D02*
D03*
X76781Y-28139D02*
D03*
Y-18139D02*
D03*
X44104D02*
D03*
Y-28139D02*
D03*
D31*
X327953Y-108858D02*
D03*
X333858D02*
D03*
X157677Y-26772D02*
D03*
X151772D02*
D03*
X212491Y-192245D02*
D03*
X218396D02*
D03*
X212509Y-197805D02*
D03*
X218415D02*
D03*
X212509Y-203316D02*
D03*
X218415D02*
D03*
Y-208828D02*
D03*
X212509D02*
D03*
X212500Y-214370D02*
D03*
X218406D02*
D03*
X255217Y-159153D02*
D03*
X261122D02*
D03*
Y-153642D02*
D03*
X255217D02*
D03*
X276368Y-216485D02*
D03*
Y-208218D02*
D03*
X282068Y-193651D02*
D03*
X276162D02*
D03*
X276368Y-201869D02*
D03*
X282274D02*
D03*
X309291Y-50394D02*
D03*
X315197D02*
D03*
X309291Y-56693D02*
D03*
X315197D02*
D03*
X297874Y-50394D02*
D03*
X303780D02*
D03*
X297874Y-56693D02*
D03*
X303780D02*
D03*
X333858Y-90256D02*
D03*
X327953D02*
D03*
X281880Y-147519D02*
D03*
X287786D02*
D03*
Y-135315D02*
D03*
X281880D02*
D03*
Y-141389D02*
D03*
X287786D02*
D03*
X270857Y-135315D02*
D03*
X276762D02*
D03*
X251458Y-42126D02*
D03*
X257363D02*
D03*
X257324Y-48622D02*
D03*
X251418D02*
D03*
X257372Y-35680D02*
D03*
X251467D02*
D03*
X268741Y-48622D02*
D03*
X262835D02*
D03*
X262884Y-35680D02*
D03*
X268790D02*
D03*
X270857Y-141389D02*
D03*
X276762D02*
D03*
X270857Y-147519D02*
D03*
X276762D02*
D03*
X190354Y-33071D02*
D03*
X184449D02*
D03*
X282274Y-208218D02*
D03*
Y-216485D02*
D03*
X296072Y-157087D02*
D03*
X290167D02*
D03*
Y-168160D02*
D03*
X296072D02*
D03*
Y-162648D02*
D03*
X290167D02*
D03*
X232194Y-215158D02*
D03*
X226289D02*
D03*
X232194Y-220719D02*
D03*
X226289D02*
D03*
X46647Y-218719D02*
D03*
X52553D02*
D03*
D32*
X316142Y-17717D02*
D03*
X311417D02*
D03*
X295669Y-17717D02*
D03*
X247638Y-80709D02*
D03*
X242618Y-79626D02*
D03*
Y-83957D02*
D03*
X247638Y-92520D02*
D03*
X272047Y-64567D02*
D03*
X279921Y-113779D02*
D03*
X252362Y-111024D02*
D03*
X167717Y-30709D02*
D03*
D33*
X316142Y-14567D02*
D03*
X311417D02*
D03*
X295669Y-14567D02*
D03*
X247638Y-83858D02*
D03*
X242618Y-76476D02*
D03*
Y-87106D02*
D03*
X247638Y-89370D02*
D03*
X272047Y-61417D02*
D03*
X279921Y-110630D02*
D03*
X252362Y-114173D02*
D03*
X167717Y-33858D02*
D03*
D34*
X306693Y-14173D02*
D03*
Y-18110D02*
D03*
X247638Y-100394D02*
D03*
Y-96457D02*
D03*
X285433Y-72441D02*
D03*
Y-76378D02*
D03*
X275590Y-110236D02*
D03*
Y-114173D02*
D03*
X268110Y-110630D02*
D03*
Y-114567D02*
D03*
X261024Y-110630D02*
D03*
Y-114567D02*
D03*
D35*
X255709Y-28445D02*
D03*
Y-16634D02*
D03*
X266339D02*
D03*
Y-28445D02*
D03*
X77953Y-217323D02*
D03*
X137402Y-218110D02*
D03*
Y-206299D02*
D03*
X77953Y-205512D02*
D03*
D36*
X145669Y-27362D02*
D03*
Y-33268D02*
D03*
X155118Y-161221D02*
D03*
Y-155315D02*
D03*
X129842Y-116024D02*
D03*
Y-110118D02*
D03*
X123622Y-115945D02*
D03*
Y-110039D02*
D03*
X270734Y-176044D02*
D03*
Y-181950D02*
D03*
X286876Y-176044D02*
D03*
Y-181950D02*
D03*
X248622Y-181496D02*
D03*
X248622Y-187402D02*
D03*
X241929Y-187402D02*
D03*
Y-181496D02*
D03*
X322263Y-117104D02*
D03*
Y-123010D02*
D03*
X316260Y-117104D02*
D03*
Y-123010D02*
D03*
X310157Y-117104D02*
D03*
Y-123010D02*
D03*
X303956Y-117104D02*
D03*
Y-123010D02*
D03*
X326476Y-140935D02*
D03*
Y-146841D02*
D03*
X217323Y-140954D02*
D03*
Y-135049D02*
D03*
X211024D02*
D03*
Y-140954D02*
D03*
X231496Y-79331D02*
D03*
Y-73425D02*
D03*
Y-95079D02*
D03*
Y-100984D02*
D03*
X130315Y-76575D02*
D03*
Y-82480D02*
D03*
Y-53347D02*
D03*
Y-47441D02*
D03*
X169754Y-159163D02*
D03*
Y-165069D02*
D03*
X288583Y-40069D02*
D03*
Y-34163D02*
D03*
Y-23139D02*
D03*
Y-29045D02*
D03*
X291339Y-75394D02*
D03*
Y-69488D02*
D03*
X297441Y-191240D02*
D03*
Y-197146D02*
D03*
D37*
X240846Y-139392D02*
D03*
X246752D02*
D03*
X240434Y-218209D02*
D03*
X246339D02*
D03*
X237205Y-46332D02*
D03*
X231299D02*
D03*
X237205Y-52631D02*
D03*
X231299D02*
D03*
X127756Y-98425D02*
D03*
X121850D02*
D03*
Y-60630D02*
D03*
X127756D02*
D03*
Y-89370D02*
D03*
X121850D02*
D03*
X172638Y-33071D02*
D03*
X178543D02*
D03*
X230315Y-188386D02*
D03*
X224409D02*
D03*
X157677Y-33071D02*
D03*
X151772D02*
D03*
X152058Y-135039D02*
D03*
X146152D02*
D03*
X177362D02*
D03*
X171457D02*
D03*
X191535D02*
D03*
X197441D02*
D03*
X121850Y-68898D02*
D03*
X127756D02*
D03*
X319488Y-85827D02*
D03*
X313583D02*
D03*
D38*
X124803Y-169518D02*
D03*
Y-167018D02*
D03*
Y-164518D02*
D03*
Y-162018D02*
D03*
Y-159518D02*
D03*
Y-157018D02*
D03*
Y-154518D02*
D03*
Y-152018D02*
D03*
Y-149518D02*
D03*
Y-147018D02*
D03*
X146063Y-169518D02*
D03*
Y-167018D02*
D03*
Y-164518D02*
D03*
Y-162018D02*
D03*
Y-159518D02*
D03*
Y-157018D02*
D03*
Y-154518D02*
D03*
Y-152018D02*
D03*
Y-149518D02*
D03*
Y-147018D02*
D03*
D39*
X255237Y-203346D02*
D03*
Y-201378D02*
D03*
X240001Y-199409D02*
D03*
X240001Y-201378D02*
D03*
X240001Y-203346D02*
D03*
X240001Y-205315D02*
D03*
Y-207283D02*
D03*
Y-209252D02*
D03*
X255237D02*
D03*
Y-207283D02*
D03*
X255237Y-205315D02*
D03*
X255237Y-199409D02*
D03*
D40*
X97736Y-30315D02*
D03*
X134744D02*
D03*
D41*
X165945Y-183858D02*
D03*
X158465D02*
D03*
D42*
X137402Y-190748D02*
D03*
Y-198228D02*
D03*
D43*
X255906Y-102461D02*
D03*
X257874D02*
D03*
X259842D02*
D03*
X261811D02*
D03*
X263779D02*
D03*
X265748D02*
D03*
X267717D02*
D03*
X269685D02*
D03*
X271654D02*
D03*
X273622D02*
D03*
X275590D02*
D03*
X277559D02*
D03*
Y-74902D02*
D03*
X275590D02*
D03*
X273622D02*
D03*
X271654D02*
D03*
X269685D02*
D03*
X267717D02*
D03*
X265748D02*
D03*
X261811D02*
D03*
X259842D02*
D03*
X257874D02*
D03*
X255906D02*
D03*
X263779D02*
D03*
D44*
X280512Y-99508D02*
D03*
Y-97539D02*
D03*
Y-95571D02*
D03*
Y-93602D02*
D03*
Y-91634D02*
D03*
Y-89665D02*
D03*
Y-87697D02*
D03*
Y-85728D02*
D03*
Y-83760D02*
D03*
Y-81791D02*
D03*
Y-79823D02*
D03*
Y-77854D02*
D03*
X252953D02*
D03*
Y-79823D02*
D03*
Y-81791D02*
D03*
Y-83760D02*
D03*
Y-85728D02*
D03*
Y-87697D02*
D03*
Y-89665D02*
D03*
Y-91634D02*
D03*
Y-93602D02*
D03*
Y-95571D02*
D03*
Y-97539D02*
D03*
Y-99508D02*
D03*
D45*
X266732Y-88681D02*
D03*
D46*
X317717Y-44094D02*
D03*
X317717Y-25394D02*
D03*
X258661Y-62598D02*
D03*
X279921Y-64567D02*
D03*
X289620Y-84789D02*
D03*
X285335Y-105709D02*
D03*
Y-110039D02*
D03*
X210630Y-33858D02*
D03*
X285335Y-101279D02*
D03*
D47*
X320866Y-44094D02*
D03*
X320866Y-25394D02*
D03*
X255512Y-62598D02*
D03*
X276772Y-64567D02*
D03*
X292770Y-84789D02*
D03*
X288484Y-105709D02*
D03*
Y-110039D02*
D03*
X207480Y-33858D02*
D03*
X288484Y-101279D02*
D03*
D48*
X350674Y-39996D02*
D03*
Y-34091D02*
D03*
X117323Y-115945D02*
D03*
Y-110039D02*
D03*
X85827Y-23465D02*
D03*
Y-29370D02*
D03*
Y-42756D02*
D03*
Y-48662D02*
D03*
Y-62047D02*
D03*
Y-67953D02*
D03*
Y-81339D02*
D03*
Y-87244D02*
D03*
Y-100630D02*
D03*
Y-106535D02*
D03*
X77903Y-119282D02*
D03*
Y-125187D02*
D03*
Y-136605D02*
D03*
Y-142510D02*
D03*
Y-154321D02*
D03*
Y-160227D02*
D03*
Y-171644D02*
D03*
Y-177550D02*
D03*
Y-189361D02*
D03*
Y-195266D02*
D03*
X269475Y-190256D02*
D03*
Y-196161D02*
D03*
X235618Y-124714D02*
D03*
Y-130620D02*
D03*
X224508Y-124705D02*
D03*
Y-130610D02*
D03*
X230058Y-124714D02*
D03*
Y-130620D02*
D03*
X193209Y-179724D02*
D03*
Y-173819D02*
D03*
X214862Y-172047D02*
D03*
Y-177953D02*
D03*
X211709Y-165463D02*
D03*
Y-159557D02*
D03*
X358942Y-34091D02*
D03*
Y-39996D02*
D03*
D49*
X334842Y-36398D02*
D03*
X327362D02*
D03*
X331102D02*
D03*
Y-46279D02*
D03*
X327362D02*
D03*
X334842D02*
D03*
D50*
X295866Y-26575D02*
D03*
Y-28543D02*
D03*
Y-30512D02*
D03*
Y-32480D02*
D03*
Y-34449D02*
D03*
Y-36417D02*
D03*
X311614D02*
D03*
Y-30512D02*
D03*
Y-28543D02*
D03*
Y-26575D02*
D03*
Y-32480D02*
D03*
Y-34449D02*
D03*
D51*
X298819Y-39370D02*
D03*
X300787D02*
D03*
X302756D02*
D03*
X304724D02*
D03*
X306693D02*
D03*
X308661D02*
D03*
Y-23622D02*
D03*
X306693D02*
D03*
X304724D02*
D03*
X302756D02*
D03*
X300787D02*
D03*
X298819D02*
D03*
D52*
X303740Y-31496D02*
D03*
D53*
X321260Y-29921D02*
D03*
X317323D02*
D03*
X254724Y-69685D02*
D03*
X250787D02*
D03*
X231398Y-193602D02*
D03*
X227461D02*
D03*
X260236Y-196457D02*
D03*
X264173D02*
D03*
X260236Y-209842D02*
D03*
X264173D02*
D03*
X232283Y-204823D02*
D03*
X228346D02*
D03*
D54*
X268307Y-122834D02*
D03*
X260826D02*
D03*
D55*
X320984Y-130204D02*
D03*
X318425D02*
D03*
X315866D02*
D03*
X313307D02*
D03*
X310748D02*
D03*
X308189D02*
D03*
X305629Y-130204D02*
D03*
X303070Y-130204D02*
D03*
X313307Y-152810D02*
D03*
X315866D02*
D03*
X318425D02*
D03*
X320984D02*
D03*
X310748D02*
D03*
X308189D02*
D03*
X305629D02*
D03*
X303070D02*
D03*
D56*
X252540Y-196713D02*
D03*
X250572D02*
D03*
X248603Y-196713D02*
D03*
X246635D02*
D03*
X244666Y-196713D02*
D03*
X242698D02*
D03*
X242698Y-211949D02*
D03*
X244666D02*
D03*
X246635Y-211949D02*
D03*
X248603D02*
D03*
X250572Y-211949D02*
D03*
X252540D02*
D03*
D57*
X281856Y-181753D02*
D03*
X275951D02*
D03*
D58*
X252854Y-171949D02*
D03*
X238287D02*
D03*
D59*
X278740Y-39173D02*
D03*
Y-24606D02*
D03*
D60*
X300394Y-92106D02*
D03*
Y-97106D02*
D03*
Y-102106D02*
D03*
Y-107106D02*
D03*
X319291Y-92106D02*
D03*
Y-97106D02*
D03*
Y-102106D02*
D03*
Y-107106D02*
D03*
D61*
X114173Y-69488D02*
D03*
Y-59646D02*
D03*
D62*
X199597Y-172693D02*
D03*
X207097D02*
D03*
X203346Y-181693D02*
D03*
D63*
X138976Y-116732D02*
D03*
Y-83268D02*
D03*
Y-85236D02*
D03*
Y-87205D02*
D03*
Y-89173D02*
D03*
Y-91142D02*
D03*
Y-49803D02*
D03*
Y-51772D02*
D03*
Y-53740D02*
D03*
Y-55709D02*
D03*
Y-57677D02*
D03*
Y-61614D02*
D03*
Y-63583D02*
D03*
Y-65551D02*
D03*
Y-67520D02*
D03*
Y-69488D02*
D03*
Y-71457D02*
D03*
Y-73425D02*
D03*
Y-75394D02*
D03*
Y-77362D02*
D03*
Y-79331D02*
D03*
Y-81299D02*
D03*
Y-93110D02*
D03*
Y-95079D02*
D03*
Y-97047D02*
D03*
Y-99016D02*
D03*
Y-100984D02*
D03*
Y-102953D02*
D03*
Y-104921D02*
D03*
Y-106890D02*
D03*
Y-108858D02*
D03*
Y-110827D02*
D03*
Y-112795D02*
D03*
Y-114764D02*
D03*
Y-118701D02*
D03*
X222441D02*
D03*
Y-112795D02*
D03*
Y-106890D02*
D03*
Y-104921D02*
D03*
Y-102953D02*
D03*
Y-100984D02*
D03*
Y-99016D02*
D03*
Y-97047D02*
D03*
Y-95079D02*
D03*
Y-93110D02*
D03*
Y-91142D02*
D03*
Y-89173D02*
D03*
Y-87205D02*
D03*
Y-85236D02*
D03*
Y-83268D02*
D03*
Y-81299D02*
D03*
Y-77362D02*
D03*
Y-75394D02*
D03*
Y-69488D02*
D03*
Y-67520D02*
D03*
Y-65551D02*
D03*
Y-59646D02*
D03*
Y-57677D02*
D03*
Y-55709D02*
D03*
Y-51772D02*
D03*
Y-49803D02*
D03*
Y-61614D02*
D03*
Y-63583D02*
D03*
Y-71457D02*
D03*
Y-73425D02*
D03*
Y-79331D02*
D03*
Y-108858D02*
D03*
Y-110827D02*
D03*
Y-114764D02*
D03*
Y-116732D02*
D03*
Y-53740D02*
D03*
X138976Y-59646D02*
D03*
D64*
X162008Y-42520D02*
D03*
X146260Y-125984D02*
D03*
X148228D02*
D03*
X150197D02*
D03*
X152165D02*
D03*
X154134D02*
D03*
X156102D02*
D03*
X158071D02*
D03*
X160039D02*
D03*
X162008D02*
D03*
X163976D02*
D03*
X165945D02*
D03*
X167913D02*
D03*
X169882D02*
D03*
X171850D02*
D03*
X173819D02*
D03*
X175787D02*
D03*
X177756D02*
D03*
X179724D02*
D03*
X181693D02*
D03*
X183661D02*
D03*
X185630D02*
D03*
X187598D02*
D03*
X189567D02*
D03*
X191535D02*
D03*
X193504D02*
D03*
X195473D02*
D03*
X197441D02*
D03*
X199409D02*
D03*
X201378D02*
D03*
X203346D02*
D03*
X205315D02*
D03*
X207283D02*
D03*
X209252D02*
D03*
X211221D02*
D03*
X215158D02*
D03*
Y-42520D02*
D03*
X213189D02*
D03*
X211221D02*
D03*
X209252D02*
D03*
X207283D02*
D03*
X205315D02*
D03*
X203346D02*
D03*
X201378D02*
D03*
X199409D02*
D03*
X197441D02*
D03*
X195473D02*
D03*
X193504D02*
D03*
X191535D02*
D03*
X189567D02*
D03*
X187598D02*
D03*
X185630D02*
D03*
X183661D02*
D03*
X181693D02*
D03*
X179724D02*
D03*
X177756D02*
D03*
X175787D02*
D03*
X173819D02*
D03*
X171850D02*
D03*
X169882D02*
D03*
X167913D02*
D03*
X165945D02*
D03*
X163976D02*
D03*
X160039D02*
D03*
X158071D02*
D03*
X156102D02*
D03*
X154134D02*
D03*
X152165D02*
D03*
X150197D02*
D03*
X148228D02*
D03*
X146260D02*
D03*
X213189Y-125984D02*
D03*
D65*
X150787Y-181890D02*
D03*
X137402D02*
D03*
D66*
X110492Y-135149D02*
D03*
Y-127668D02*
D03*
X94744Y-179637D02*
D03*
Y-187117D02*
D03*
X102618Y-179637D02*
D03*
Y-187117D02*
D03*
X94744Y-166645D02*
D03*
Y-174125D02*
D03*
X102618Y-166645D02*
D03*
Y-174125D02*
D03*
X110492Y-179637D02*
D03*
Y-187117D02*
D03*
Y-166645D02*
D03*
Y-174125D02*
D03*
X94744Y-140661D02*
D03*
Y-148141D02*
D03*
Y-127668D02*
D03*
Y-135149D02*
D03*
X102618Y-153653D02*
D03*
Y-161133D02*
D03*
X94744Y-153653D02*
D03*
Y-161133D02*
D03*
X110492Y-140661D02*
D03*
Y-148141D02*
D03*
X102618Y-140661D02*
D03*
Y-148141D02*
D03*
Y-127668D02*
D03*
Y-135149D02*
D03*
X110492Y-153653D02*
D03*
Y-161133D02*
D03*
D67*
X190354Y-219685D02*
D03*
Y-185433D02*
D03*
M02*
