G04*
G04 #@! TF.GenerationSoftware,Altium Limited,Altium Designer,22.10.1 (41)*
G04*
G04 Layer_Color=16711935*
%FSLAX25Y25*%
%MOIN*%
G70*
G04*
G04 #@! TF.SameCoordinates,42878850-B326-4A15-914F-A90B80183A8D*
G04*
G04*
G04 #@! TF.FilePolarity,Negative*
G04*
G01*
G75*
%ADD114C,0.06299*%
%ADD115R,0.06299X0.06299*%
%ADD116C,0.08268*%
%ADD117O,0.07980X0.04043*%
%ADD118C,0.02862*%
%ADD119C,0.06394*%
%ADD120C,0.07087*%
%ADD121C,0.09449*%
G36*
X374016Y-236221D02*
X0D01*
Y-225197D01*
X374016D01*
Y-236221D01*
D02*
G37*
G36*
Y-11024D02*
X0D01*
Y0D01*
X374016D01*
Y-11024D01*
D02*
G37*
G36*
X102816Y-22354D02*
X102196D01*
Y-21647D01*
X102816D01*
Y-22354D01*
D02*
G37*
G36*
X112636Y-26691D02*
X112060D01*
Y-26232D01*
X111987Y-26327D01*
X111914Y-26407D01*
X111834Y-26480D01*
X111746Y-26546D01*
X111666Y-26597D01*
X111579Y-26640D01*
X111498Y-26677D01*
X111418Y-26706D01*
X111272Y-26743D01*
X111207Y-26757D01*
X111156Y-26764D01*
X111112D01*
X111075Y-26772D01*
X111046D01*
X110930Y-26764D01*
X110813Y-26750D01*
X110704Y-26728D01*
X110602Y-26691D01*
X110405Y-26611D01*
X110325Y-26560D01*
X110244Y-26517D01*
X110171Y-26465D01*
X110113Y-26422D01*
X110062Y-26378D01*
X110011Y-26342D01*
X109975Y-26305D01*
X109953Y-26283D01*
X109938Y-26269D01*
X109931Y-26261D01*
X109851Y-26159D01*
X109778Y-26050D01*
X109712Y-25941D01*
X109661Y-25817D01*
X109617Y-25700D01*
X109581Y-25576D01*
X109523Y-25343D01*
X109501Y-25234D01*
X109486Y-25131D01*
X109479Y-25044D01*
X109472Y-24964D01*
X109464Y-24898D01*
Y-24854D01*
Y-24818D01*
Y-24811D01*
X109472Y-24665D01*
X109479Y-24526D01*
X109501Y-24402D01*
X109523Y-24293D01*
X109545Y-24198D01*
X109559Y-24125D01*
X109566Y-24103D01*
X109574Y-24082D01*
X109581Y-24074D01*
Y-24067D01*
X109625Y-23943D01*
X109676Y-23826D01*
X109727Y-23724D01*
X109778Y-23637D01*
X109822Y-23571D01*
X109858Y-23520D01*
X109880Y-23484D01*
X109887Y-23477D01*
X109960Y-23389D01*
X110048Y-23309D01*
X110128Y-23243D01*
X110208Y-23192D01*
X110274Y-23148D01*
X110332Y-23112D01*
X110368Y-23098D01*
X110383Y-23090D01*
X110492Y-23046D01*
X110609Y-23010D01*
X110718Y-22988D01*
X110813Y-22966D01*
X110893Y-22959D01*
X110959Y-22952D01*
X111017D01*
X111126Y-22959D01*
X111236Y-22974D01*
X111338Y-22995D01*
X111433Y-23032D01*
X111600Y-23105D01*
X111746Y-23200D01*
X111804Y-23243D01*
X111863Y-23287D01*
X111907Y-23331D01*
X111943Y-23367D01*
X111979Y-23404D01*
X112001Y-23426D01*
X112009Y-23440D01*
X112016Y-23447D01*
Y-21647D01*
X112636D01*
Y-26691D01*
D02*
G37*
G36*
X104675Y-22128D02*
Y-23032D01*
X105134D01*
Y-23513D01*
X104675D01*
Y-25627D01*
Y-25729D01*
Y-25817D01*
X104668Y-25897D01*
X104660Y-25977D01*
Y-26043D01*
X104653Y-26101D01*
X104638Y-26196D01*
X104624Y-26269D01*
X104616Y-26320D01*
X104602Y-26349D01*
Y-26356D01*
X104573Y-26422D01*
X104529Y-26473D01*
X104485Y-26524D01*
X104449Y-26560D01*
X104405Y-26597D01*
X104376Y-26619D01*
X104354Y-26633D01*
X104347Y-26640D01*
X104267Y-26677D01*
X104186Y-26699D01*
X104099Y-26721D01*
X104011Y-26728D01*
X103939Y-26735D01*
X103880Y-26743D01*
X103822D01*
X103662Y-26735D01*
X103581Y-26728D01*
X103508Y-26713D01*
X103443Y-26706D01*
X103392Y-26699D01*
X103363Y-26691D01*
X103348D01*
X103428Y-26145D01*
X103487Y-26152D01*
X103545Y-26159D01*
X103596D01*
X103632Y-26167D01*
X103705D01*
X103800Y-26159D01*
X103866Y-26145D01*
X103902Y-26130D01*
X103917Y-26123D01*
X103968Y-26086D01*
X103997Y-26050D01*
X104019Y-26021D01*
X104026Y-26006D01*
X104033Y-25970D01*
X104041Y-25919D01*
X104048Y-25802D01*
X104055Y-25751D01*
Y-25707D01*
Y-25678D01*
Y-25664D01*
Y-23513D01*
X103428D01*
Y-23032D01*
X104055D01*
Y-21756D01*
X104675Y-22128D01*
D02*
G37*
G36*
X99944Y-22959D02*
X100104Y-22988D01*
X100257Y-23025D01*
X100381Y-23061D01*
X100490Y-23105D01*
X100534Y-23127D01*
X100571Y-23141D01*
X100600Y-23156D01*
X100622Y-23170D01*
X100636Y-23178D01*
X100644D01*
X100782Y-23265D01*
X100906Y-23374D01*
X101008Y-23484D01*
X101095Y-23593D01*
X101161Y-23688D01*
X101205Y-23768D01*
X101219Y-23797D01*
X101234Y-23819D01*
X101241Y-23834D01*
Y-23841D01*
X101307Y-24016D01*
X101351Y-24191D01*
X101387Y-24366D01*
X101409Y-24526D01*
X101416Y-24599D01*
X101424Y-24665D01*
Y-24723D01*
X101431Y-24774D01*
Y-24818D01*
Y-24847D01*
Y-24869D01*
Y-24876D01*
X101424Y-25044D01*
X101409Y-25197D01*
X101387Y-25350D01*
X101358Y-25481D01*
X101329Y-25613D01*
X101285Y-25722D01*
X101249Y-25831D01*
X101205Y-25926D01*
X101161Y-26006D01*
X101125Y-26079D01*
X101081Y-26145D01*
X101052Y-26196D01*
X101023Y-26232D01*
X101001Y-26261D01*
X100986Y-26276D01*
X100979Y-26283D01*
X100891Y-26371D01*
X100797Y-26444D01*
X100702Y-26509D01*
X100600Y-26568D01*
X100498Y-26611D01*
X100403Y-26655D01*
X100206Y-26713D01*
X100119Y-26728D01*
X100038Y-26743D01*
X99966Y-26757D01*
X99900Y-26764D01*
X99849Y-26772D01*
X99776D01*
X99667Y-26764D01*
X99557Y-26757D01*
X99368Y-26713D01*
X99193Y-26662D01*
X99047Y-26597D01*
X98989Y-26560D01*
X98930Y-26531D01*
X98879Y-26502D01*
X98843Y-26473D01*
X98814Y-26451D01*
X98792Y-26436D01*
X98777Y-26429D01*
X98770Y-26422D01*
X98697Y-26349D01*
X98631Y-26276D01*
X98515Y-26116D01*
X98420Y-25948D01*
X98354Y-25795D01*
X98303Y-25649D01*
X98289Y-25591D01*
X98274Y-25532D01*
X98267Y-25489D01*
X98260Y-25460D01*
X98252Y-25438D01*
Y-25430D01*
X98865Y-25350D01*
X98894Y-25510D01*
X98938Y-25656D01*
X98996Y-25773D01*
X99047Y-25868D01*
X99098Y-25948D01*
X99142Y-25999D01*
X99164Y-26035D01*
X99178Y-26043D01*
X99273Y-26116D01*
X99375Y-26167D01*
X99477Y-26210D01*
X99572Y-26232D01*
X99652Y-26247D01*
X99725Y-26254D01*
X99769Y-26261D01*
X99783D01*
X99863Y-26254D01*
X99944Y-26247D01*
X100089Y-26210D01*
X100213Y-26159D01*
X100323Y-26094D01*
X100403Y-26035D01*
X100469Y-25984D01*
X100505Y-25948D01*
X100520Y-25933D01*
X100571Y-25868D01*
X100614Y-25787D01*
X100680Y-25627D01*
X100731Y-25445D01*
X100760Y-25270D01*
X100782Y-25109D01*
X100789Y-25044D01*
Y-24978D01*
X100797Y-24935D01*
Y-24891D01*
Y-24869D01*
Y-24862D01*
Y-24730D01*
X100782Y-24607D01*
X100767Y-24490D01*
X100753Y-24388D01*
X100731Y-24293D01*
X100702Y-24206D01*
X100680Y-24125D01*
X100651Y-24053D01*
X100622Y-23994D01*
X100600Y-23943D01*
X100571Y-23899D01*
X100549Y-23863D01*
X100534Y-23834D01*
X100520Y-23812D01*
X100505Y-23805D01*
Y-23797D01*
X100447Y-23739D01*
X100388Y-23688D01*
X100264Y-23600D01*
X100133Y-23542D01*
X100016Y-23506D01*
X99907Y-23477D01*
X99827Y-23469D01*
X99791Y-23462D01*
X99747D01*
X99638Y-23469D01*
X99535Y-23491D01*
X99448Y-23520D01*
X99368Y-23557D01*
X99309Y-23593D01*
X99258Y-23622D01*
X99229Y-23644D01*
X99222Y-23652D01*
X99149Y-23724D01*
X99083Y-23812D01*
X99025Y-23907D01*
X98989Y-23994D01*
X98952Y-24074D01*
X98930Y-24140D01*
X98923Y-24184D01*
X98916Y-24191D01*
Y-24198D01*
X98311Y-24103D01*
X98362Y-23907D01*
X98435Y-23739D01*
X98515Y-23593D01*
X98595Y-23477D01*
X98675Y-23382D01*
X98741Y-23316D01*
X98785Y-23272D01*
X98792Y-23258D01*
X98799D01*
X98952Y-23156D01*
X99113Y-23083D01*
X99273Y-23025D01*
X99426Y-22988D01*
X99565Y-22966D01*
X99623Y-22959D01*
X99667D01*
X99710Y-22952D01*
X99769D01*
X99944Y-22959D01*
D02*
G37*
G36*
X117629D02*
X117702Y-22974D01*
X117775Y-22995D01*
X117833Y-23017D01*
X117877Y-23039D01*
X117921Y-23061D01*
X117943Y-23076D01*
X117950Y-23083D01*
X118016Y-23141D01*
X118081Y-23214D01*
X118147Y-23302D01*
X118205Y-23382D01*
X118263Y-23462D01*
X118300Y-23528D01*
X118329Y-23579D01*
X118336Y-23586D01*
Y-23032D01*
X118898D01*
Y-26691D01*
X118278D01*
Y-24781D01*
X118271Y-24636D01*
X118263Y-24505D01*
X118249Y-24381D01*
X118227Y-24271D01*
X118205Y-24184D01*
X118191Y-24118D01*
X118183Y-24074D01*
X118176Y-24060D01*
X118147Y-23980D01*
X118110Y-23914D01*
X118074Y-23856D01*
X118037Y-23805D01*
X118001Y-23768D01*
X117979Y-23739D01*
X117957Y-23724D01*
X117950Y-23717D01*
X117892Y-23673D01*
X117826Y-23644D01*
X117760Y-23622D01*
X117709Y-23608D01*
X117658Y-23600D01*
X117622Y-23593D01*
X117585D01*
X117505Y-23600D01*
X117425Y-23615D01*
X117345Y-23637D01*
X117279Y-23659D01*
X117221Y-23681D01*
X117177Y-23703D01*
X117148Y-23717D01*
X117141Y-23724D01*
X116915Y-23156D01*
X117039Y-23090D01*
X117155Y-23039D01*
X117257Y-23003D01*
X117352Y-22974D01*
X117432Y-22959D01*
X117498Y-22952D01*
X117549D01*
X117629Y-22959D01*
D02*
G37*
G36*
X102816Y-26691D02*
X102196D01*
Y-23032D01*
X102816D01*
Y-26691D01*
D02*
G37*
G36*
X115187Y-22959D02*
X115304Y-22966D01*
X115530Y-23017D01*
X115726Y-23083D01*
X115814Y-23119D01*
X115894Y-23156D01*
X115967Y-23192D01*
X116025Y-23229D01*
X116084Y-23265D01*
X116127Y-23294D01*
X116164Y-23324D01*
X116193Y-23345D01*
X116208Y-23353D01*
X116215Y-23360D01*
X116317Y-23455D01*
X116397Y-23564D01*
X116477Y-23681D01*
X116536Y-23797D01*
X116594Y-23921D01*
X116638Y-24053D01*
X116674Y-24176D01*
X116703Y-24293D01*
X116733Y-24410D01*
X116747Y-24512D01*
X116762Y-24614D01*
X116769Y-24694D01*
Y-24767D01*
X116776Y-24818D01*
Y-24847D01*
Y-24862D01*
X116769Y-25029D01*
X116754Y-25190D01*
X116733Y-25335D01*
X116703Y-25474D01*
X116667Y-25598D01*
X116630Y-25715D01*
X116587Y-25824D01*
X116543Y-25919D01*
X116499Y-26006D01*
X116455Y-26079D01*
X116419Y-26137D01*
X116383Y-26188D01*
X116353Y-26232D01*
X116332Y-26261D01*
X116317Y-26276D01*
X116310Y-26283D01*
X116215Y-26371D01*
X116120Y-26444D01*
X116018Y-26509D01*
X115916Y-26568D01*
X115814Y-26611D01*
X115705Y-26655D01*
X115508Y-26713D01*
X115420Y-26728D01*
X115333Y-26743D01*
X115260Y-26757D01*
X115194Y-26764D01*
X115136Y-26772D01*
X115063D01*
X114888Y-26764D01*
X114728Y-26735D01*
X114575Y-26699D01*
X114451Y-26662D01*
X114341Y-26619D01*
X114298Y-26604D01*
X114261Y-26589D01*
X114225Y-26575D01*
X114203Y-26560D01*
X114196Y-26553D01*
X114188D01*
X114042Y-26458D01*
X113919Y-26356D01*
X113809Y-26254D01*
X113722Y-26152D01*
X113656Y-26065D01*
X113605Y-25992D01*
X113591Y-25962D01*
X113576Y-25941D01*
X113569Y-25933D01*
Y-25926D01*
X113496Y-25758D01*
X113445Y-25576D01*
X113401Y-25394D01*
X113379Y-25212D01*
X113365Y-25131D01*
Y-25058D01*
X113357Y-24986D01*
X113350Y-24927D01*
Y-24876D01*
Y-24840D01*
Y-24818D01*
Y-24811D01*
X113357Y-24650D01*
X113372Y-24505D01*
X113394Y-24366D01*
X113423Y-24235D01*
X113459Y-24111D01*
X113503Y-24001D01*
X113547Y-23892D01*
X113591Y-23805D01*
X113634Y-23724D01*
X113678Y-23652D01*
X113722Y-23586D01*
X113758Y-23535D01*
X113787Y-23498D01*
X113809Y-23469D01*
X113824Y-23455D01*
X113831Y-23447D01*
X113926Y-23360D01*
X114021Y-23287D01*
X114123Y-23214D01*
X114225Y-23163D01*
X114327Y-23112D01*
X114429Y-23076D01*
X114626Y-23010D01*
X114720Y-22995D01*
X114801Y-22981D01*
X114874Y-22966D01*
X114939Y-22959D01*
X114990Y-22952D01*
X115063D01*
X115187Y-22959D01*
D02*
G37*
G36*
X107343D02*
X107460Y-22966D01*
X107686Y-23017D01*
X107882Y-23083D01*
X107970Y-23119D01*
X108050Y-23156D01*
X108123Y-23192D01*
X108181Y-23229D01*
X108240Y-23265D01*
X108283Y-23294D01*
X108320Y-23324D01*
X108349Y-23345D01*
X108364Y-23353D01*
X108371Y-23360D01*
X108473Y-23455D01*
X108553Y-23564D01*
X108633Y-23681D01*
X108692Y-23797D01*
X108750Y-23921D01*
X108794Y-24053D01*
X108830Y-24176D01*
X108859Y-24293D01*
X108888Y-24410D01*
X108903Y-24512D01*
X108918Y-24614D01*
X108925Y-24694D01*
Y-24767D01*
X108932Y-24818D01*
Y-24847D01*
Y-24862D01*
X108925Y-25029D01*
X108910Y-25190D01*
X108888Y-25335D01*
X108859Y-25474D01*
X108823Y-25598D01*
X108786Y-25715D01*
X108743Y-25824D01*
X108699Y-25919D01*
X108655Y-26006D01*
X108611Y-26079D01*
X108575Y-26137D01*
X108539Y-26188D01*
X108509Y-26232D01*
X108487Y-26261D01*
X108473Y-26276D01*
X108466Y-26283D01*
X108371Y-26371D01*
X108276Y-26444D01*
X108174Y-26509D01*
X108072Y-26568D01*
X107970Y-26611D01*
X107861Y-26655D01*
X107664Y-26713D01*
X107576Y-26728D01*
X107489Y-26743D01*
X107416Y-26757D01*
X107350Y-26764D01*
X107292Y-26772D01*
X107219D01*
X107044Y-26764D01*
X106884Y-26735D01*
X106731Y-26699D01*
X106607Y-26662D01*
X106497Y-26619D01*
X106454Y-26604D01*
X106417Y-26589D01*
X106381Y-26575D01*
X106359Y-26560D01*
X106351Y-26553D01*
X106344D01*
X106199Y-26458D01*
X106075Y-26356D01*
X105965Y-26254D01*
X105878Y-26152D01*
X105812Y-26065D01*
X105761Y-25992D01*
X105746Y-25962D01*
X105732Y-25941D01*
X105725Y-25933D01*
Y-25926D01*
X105652Y-25758D01*
X105601Y-25576D01*
X105557Y-25394D01*
X105535Y-25212D01*
X105520Y-25131D01*
Y-25058D01*
X105513Y-24986D01*
X105506Y-24927D01*
Y-24876D01*
Y-24840D01*
Y-24818D01*
Y-24811D01*
X105513Y-24650D01*
X105528Y-24505D01*
X105550Y-24366D01*
X105579Y-24235D01*
X105615Y-24111D01*
X105659Y-24001D01*
X105703Y-23892D01*
X105746Y-23805D01*
X105790Y-23724D01*
X105834Y-23652D01*
X105878Y-23586D01*
X105914Y-23535D01*
X105943Y-23498D01*
X105965Y-23469D01*
X105980Y-23455D01*
X105987Y-23447D01*
X106082Y-23360D01*
X106177Y-23287D01*
X106279Y-23214D01*
X106381Y-23163D01*
X106483Y-23112D01*
X106585Y-23076D01*
X106782Y-23010D01*
X106876Y-22995D01*
X106957Y-22981D01*
X107029Y-22966D01*
X107095Y-22959D01*
X107146Y-22952D01*
X107219D01*
X107343Y-22959D01*
D02*
G37*
G36*
X96729Y-22966D02*
X96816Y-22974D01*
X96896Y-22988D01*
X96962Y-23003D01*
X97013Y-23017D01*
X97042Y-23025D01*
X97057Y-23032D01*
X97144Y-23061D01*
X97224Y-23090D01*
X97290Y-23119D01*
X97348Y-23148D01*
X97392Y-23170D01*
X97421Y-23192D01*
X97443Y-23200D01*
X97451Y-23207D01*
X97523Y-23258D01*
X97582Y-23316D01*
X97633Y-23382D01*
X97676Y-23433D01*
X97713Y-23484D01*
X97735Y-23520D01*
X97749Y-23550D01*
X97757Y-23557D01*
X97793Y-23637D01*
X97822Y-23710D01*
X97837Y-23790D01*
X97851Y-23856D01*
X97859Y-23921D01*
X97866Y-23965D01*
Y-23994D01*
Y-24009D01*
X97859Y-24111D01*
X97844Y-24198D01*
X97822Y-24286D01*
X97800Y-24359D01*
X97778Y-24417D01*
X97757Y-24468D01*
X97742Y-24497D01*
X97735Y-24505D01*
X97676Y-24585D01*
X97611Y-24650D01*
X97545Y-24709D01*
X97480Y-24760D01*
X97421Y-24796D01*
X97378Y-24825D01*
X97348Y-24840D01*
X97334Y-24847D01*
X97283Y-24869D01*
X97217Y-24898D01*
X97071Y-24949D01*
X96918Y-24993D01*
X96758Y-25044D01*
X96619Y-25080D01*
X96554Y-25102D01*
X96495Y-25117D01*
X96452Y-25131D01*
X96415Y-25139D01*
X96393Y-25146D01*
X96386D01*
X96291Y-25168D01*
X96211Y-25190D01*
X96138Y-25212D01*
X96073Y-25234D01*
X96014Y-25248D01*
X95963Y-25270D01*
X95876Y-25299D01*
X95818Y-25321D01*
X95781Y-25343D01*
X95759Y-25350D01*
X95752Y-25357D01*
X95686Y-25401D01*
X95643Y-25460D01*
X95606Y-25510D01*
X95584Y-25561D01*
X95570Y-25613D01*
X95562Y-25649D01*
Y-25678D01*
Y-25685D01*
X95570Y-25773D01*
X95591Y-25846D01*
X95628Y-25919D01*
X95664Y-25977D01*
X95708Y-26028D01*
X95737Y-26065D01*
X95767Y-26086D01*
X95774Y-26094D01*
X95861Y-26152D01*
X95956Y-26188D01*
X96065Y-26218D01*
X96167Y-26239D01*
X96262Y-26254D01*
X96335Y-26261D01*
X96408D01*
X96561Y-26254D01*
X96692Y-26232D01*
X96802Y-26203D01*
X96896Y-26167D01*
X96969Y-26130D01*
X97028Y-26101D01*
X97057Y-26079D01*
X97071Y-26072D01*
X97152Y-25992D01*
X97217Y-25897D01*
X97261Y-25802D01*
X97297Y-25715D01*
X97326Y-25634D01*
X97341Y-25561D01*
X97356Y-25518D01*
Y-25510D01*
Y-25503D01*
X97968Y-25598D01*
X97917Y-25802D01*
X97851Y-25984D01*
X97771Y-26130D01*
X97691Y-26254D01*
X97618Y-26356D01*
X97553Y-26422D01*
X97509Y-26465D01*
X97501Y-26473D01*
X97494Y-26480D01*
X97421Y-26531D01*
X97341Y-26575D01*
X97166Y-26648D01*
X96984Y-26699D01*
X96809Y-26735D01*
X96729Y-26750D01*
X96656Y-26757D01*
X96583Y-26764D01*
X96525D01*
X96474Y-26772D01*
X96408D01*
X96248Y-26764D01*
X96109Y-26750D01*
X95978Y-26728D01*
X95861Y-26699D01*
X95767Y-26670D01*
X95694Y-26648D01*
X95650Y-26633D01*
X95643Y-26626D01*
X95635D01*
X95511Y-26560D01*
X95409Y-26495D01*
X95322Y-26422D01*
X95242Y-26356D01*
X95183Y-26298D01*
X95147Y-26247D01*
X95118Y-26218D01*
X95110Y-26203D01*
X95052Y-26101D01*
X95008Y-25992D01*
X94972Y-25897D01*
X94950Y-25809D01*
X94935Y-25729D01*
X94928Y-25671D01*
Y-25634D01*
Y-25620D01*
X94935Y-25503D01*
X94950Y-25401D01*
X94979Y-25314D01*
X95001Y-25234D01*
X95030Y-25168D01*
X95059Y-25124D01*
X95074Y-25095D01*
X95081Y-25088D01*
X95139Y-25015D01*
X95205Y-24949D01*
X95271Y-24891D01*
X95336Y-24847D01*
X95402Y-24811D01*
X95446Y-24789D01*
X95475Y-24774D01*
X95489Y-24767D01*
X95540Y-24745D01*
X95599Y-24723D01*
X95737Y-24672D01*
X95890Y-24621D01*
X96043Y-24577D01*
X96182Y-24534D01*
X96248Y-24519D01*
X96299Y-24505D01*
X96342Y-24490D01*
X96379Y-24483D01*
X96401Y-24475D01*
X96408D01*
X96488Y-24453D01*
X96561Y-24432D01*
X96627Y-24417D01*
X96685Y-24395D01*
X96780Y-24373D01*
X96853Y-24351D01*
X96904Y-24329D01*
X96933Y-24322D01*
X96947Y-24315D01*
X96955D01*
X97013Y-24286D01*
X97064Y-24264D01*
X97108Y-24235D01*
X97137Y-24213D01*
X97166Y-24191D01*
X97181Y-24169D01*
X97188Y-24162D01*
X97195Y-24155D01*
X97239Y-24082D01*
X97261Y-24009D01*
Y-23980D01*
X97268Y-23958D01*
Y-23943D01*
Y-23936D01*
X97261Y-23870D01*
X97239Y-23805D01*
X97210Y-23746D01*
X97173Y-23703D01*
X97144Y-23659D01*
X97115Y-23630D01*
X97093Y-23615D01*
X97086Y-23608D01*
X97006Y-23557D01*
X96911Y-23520D01*
X96809Y-23498D01*
X96714Y-23477D01*
X96619Y-23469D01*
X96547Y-23462D01*
X96474D01*
X96350Y-23469D01*
X96233Y-23484D01*
X96138Y-23513D01*
X96065Y-23542D01*
X96000Y-23571D01*
X95956Y-23600D01*
X95927Y-23615D01*
X95920Y-23622D01*
X95847Y-23688D01*
X95796Y-23761D01*
X95752Y-23834D01*
X95715Y-23899D01*
X95694Y-23965D01*
X95679Y-24016D01*
X95672Y-24045D01*
Y-24060D01*
X95067Y-23980D01*
X95096Y-23856D01*
X95125Y-23746D01*
X95161Y-23652D01*
X95198Y-23564D01*
X95234Y-23506D01*
X95263Y-23455D01*
X95278Y-23426D01*
X95285Y-23418D01*
X95351Y-23345D01*
X95424Y-23280D01*
X95504Y-23221D01*
X95584Y-23170D01*
X95657Y-23134D01*
X95715Y-23105D01*
X95752Y-23090D01*
X95759Y-23083D01*
X95767D01*
X95890Y-23039D01*
X96022Y-23010D01*
X96146Y-22981D01*
X96262Y-22966D01*
X96372Y-22959D01*
X96452Y-22952D01*
X96627D01*
X96729Y-22966D01*
D02*
G37*
G36*
X118898Y-32991D02*
X118278D01*
Y-30993D01*
X118271Y-30840D01*
X118263Y-30709D01*
X118249Y-30592D01*
X118227Y-30498D01*
X118205Y-30425D01*
X118191Y-30366D01*
X118183Y-30337D01*
X118176Y-30323D01*
X118132Y-30235D01*
X118081Y-30155D01*
X118023Y-30089D01*
X117964Y-30031D01*
X117913Y-29987D01*
X117870Y-29958D01*
X117841Y-29936D01*
X117833Y-29929D01*
X117738Y-29878D01*
X117651Y-29841D01*
X117564Y-29820D01*
X117491Y-29798D01*
X117418Y-29790D01*
X117367Y-29783D01*
X117323D01*
X117192Y-29790D01*
X117075Y-29820D01*
X116980Y-29849D01*
X116900Y-29892D01*
X116835Y-29929D01*
X116791Y-29965D01*
X116762Y-29994D01*
X116754Y-30002D01*
X116689Y-30089D01*
X116638Y-30199D01*
X116601Y-30308D01*
X116572Y-30417D01*
X116558Y-30519D01*
X116550Y-30600D01*
Y-30629D01*
Y-30651D01*
Y-30665D01*
Y-30672D01*
Y-32991D01*
X115931D01*
Y-30680D01*
X115938Y-30490D01*
X115953Y-30323D01*
X115974Y-30184D01*
X115996Y-30067D01*
X116018Y-29973D01*
X116040Y-29907D01*
X116054Y-29871D01*
X116062Y-29856D01*
X116120Y-29754D01*
X116186Y-29666D01*
X116259Y-29594D01*
X116324Y-29528D01*
X116390Y-29477D01*
X116441Y-29440D01*
X116477Y-29419D01*
X116492Y-29411D01*
X116609Y-29360D01*
X116725Y-29316D01*
X116842Y-29287D01*
X116951Y-29273D01*
X117046Y-29258D01*
X117126Y-29251D01*
X117192D01*
X117308Y-29258D01*
X117425Y-29273D01*
X117534Y-29295D01*
X117637Y-29331D01*
X117826Y-29411D01*
X117906Y-29455D01*
X117979Y-29499D01*
X118045Y-29550D01*
X118110Y-29594D01*
X118161Y-29637D01*
X118198Y-29674D01*
X118234Y-29710D01*
X118256Y-29732D01*
X118271Y-29747D01*
X118278Y-29754D01*
Y-27946D01*
X118898D01*
Y-32991D01*
D02*
G37*
G36*
X113605Y-29258D02*
X113758Y-29273D01*
X113904Y-29295D01*
X114021Y-29316D01*
X114123Y-29338D01*
X114196Y-29360D01*
X114225Y-29368D01*
X114247Y-29375D01*
X114254Y-29382D01*
X114261D01*
X114385Y-29433D01*
X114495Y-29499D01*
X114589Y-29557D01*
X114669Y-29615D01*
X114728Y-29674D01*
X114771Y-29717D01*
X114801Y-29747D01*
X114808Y-29754D01*
X114874Y-29849D01*
X114932Y-29951D01*
X114976Y-30053D01*
X115012Y-30148D01*
X115041Y-30242D01*
X115063Y-30308D01*
X115070Y-30337D01*
Y-30359D01*
X115078Y-30366D01*
Y-30374D01*
X114473Y-30454D01*
X114429Y-30323D01*
X114385Y-30206D01*
X114334Y-30111D01*
X114290Y-30038D01*
X114247Y-29980D01*
X114210Y-29943D01*
X114181Y-29922D01*
X114174Y-29914D01*
X114086Y-29863D01*
X113984Y-29827D01*
X113875Y-29798D01*
X113773Y-29783D01*
X113671Y-29768D01*
X113598Y-29761D01*
X113525D01*
X113357Y-29768D01*
X113211Y-29790D01*
X113095Y-29827D01*
X112993Y-29863D01*
X112920Y-29907D01*
X112862Y-29936D01*
X112825Y-29965D01*
X112818Y-29973D01*
X112759Y-30038D01*
X112716Y-30118D01*
X112679Y-30206D01*
X112657Y-30293D01*
X112643Y-30374D01*
X112636Y-30446D01*
Y-30490D01*
Y-30498D01*
Y-30505D01*
Y-30519D01*
Y-30549D01*
Y-30600D01*
X112643Y-30643D01*
Y-30658D01*
Y-30665D01*
X112716Y-30687D01*
X112796Y-30709D01*
X112964Y-30753D01*
X113153Y-30789D01*
X113328Y-30825D01*
X113416Y-30840D01*
X113496Y-30847D01*
X113569Y-30862D01*
X113627Y-30869D01*
X113678Y-30877D01*
X113714D01*
X113744Y-30884D01*
X113751D01*
X113882Y-30898D01*
X113991Y-30920D01*
X114086Y-30935D01*
X114159Y-30950D01*
X114217Y-30957D01*
X114261Y-30971D01*
X114290Y-30979D01*
X114298D01*
X114392Y-31008D01*
X114473Y-31037D01*
X114553Y-31073D01*
X114618Y-31103D01*
X114677Y-31132D01*
X114713Y-31161D01*
X114742Y-31176D01*
X114750Y-31183D01*
X114822Y-31234D01*
X114881Y-31292D01*
X114939Y-31350D01*
X114983Y-31409D01*
X115019Y-31460D01*
X115049Y-31503D01*
X115063Y-31533D01*
X115070Y-31540D01*
X115107Y-31620D01*
X115136Y-31708D01*
X115158Y-31788D01*
X115172Y-31868D01*
X115180Y-31934D01*
X115187Y-31985D01*
Y-32014D01*
Y-32028D01*
X115180Y-32116D01*
X115172Y-32189D01*
X115136Y-32342D01*
X115085Y-32466D01*
X115027Y-32575D01*
X114968Y-32663D01*
X114917Y-32728D01*
X114881Y-32765D01*
X114866Y-32779D01*
X114735Y-32874D01*
X114589Y-32947D01*
X114429Y-32998D01*
X114283Y-33034D01*
X114152Y-33056D01*
X114093Y-33064D01*
X114042D01*
X113999Y-33071D01*
X113940D01*
X113809Y-33064D01*
X113678Y-33049D01*
X113561Y-33034D01*
X113459Y-33013D01*
X113379Y-32991D01*
X113313Y-32969D01*
X113270Y-32961D01*
X113255Y-32954D01*
X113131Y-32903D01*
X113015Y-32838D01*
X112905Y-32765D01*
X112796Y-32699D01*
X112708Y-32634D01*
X112643Y-32582D01*
X112599Y-32546D01*
X112592Y-32531D01*
X112584D01*
X112570Y-32626D01*
X112555Y-32714D01*
X112541Y-32794D01*
X112519Y-32860D01*
X112497Y-32918D01*
X112482Y-32954D01*
X112475Y-32983D01*
X112468Y-32991D01*
X111819D01*
X111855Y-32910D01*
X111892Y-32830D01*
X111921Y-32757D01*
X111936Y-32692D01*
X111958Y-32634D01*
X111965Y-32590D01*
X111972Y-32561D01*
Y-32553D01*
X111979Y-32502D01*
X111987Y-32437D01*
Y-32364D01*
X111994Y-32284D01*
X112001Y-32101D01*
Y-31919D01*
X112009Y-31744D01*
Y-31664D01*
Y-31598D01*
Y-31540D01*
Y-31496D01*
Y-31467D01*
Y-31460D01*
Y-30629D01*
Y-30490D01*
X112016Y-30366D01*
X112023Y-30272D01*
Y-30191D01*
X112030Y-30133D01*
X112038Y-30089D01*
X112045Y-30067D01*
Y-30060D01*
X112067Y-29965D01*
X112096Y-29885D01*
X112125Y-29820D01*
X112162Y-29754D01*
X112191Y-29710D01*
X112213Y-29674D01*
X112227Y-29652D01*
X112235Y-29645D01*
X112293Y-29586D01*
X112358Y-29528D01*
X112431Y-29484D01*
X112504Y-29440D01*
X112570Y-29411D01*
X112621Y-29389D01*
X112657Y-29375D01*
X112672Y-29368D01*
X112789Y-29331D01*
X112912Y-29302D01*
X113037Y-29280D01*
X113160Y-29265D01*
X113270Y-29258D01*
X113350Y-29251D01*
X113430D01*
X113605Y-29258D01*
D02*
G37*
G36*
X98325D02*
X98478Y-29273D01*
X98624Y-29295D01*
X98741Y-29316D01*
X98843Y-29338D01*
X98916Y-29360D01*
X98945Y-29368D01*
X98967Y-29375D01*
X98974Y-29382D01*
X98981D01*
X99105Y-29433D01*
X99215Y-29499D01*
X99309Y-29557D01*
X99390Y-29615D01*
X99448Y-29674D01*
X99492Y-29717D01*
X99521Y-29747D01*
X99528Y-29754D01*
X99594Y-29849D01*
X99652Y-29951D01*
X99696Y-30053D01*
X99732Y-30148D01*
X99761Y-30242D01*
X99783Y-30308D01*
X99791Y-30337D01*
Y-30359D01*
X99798Y-30366D01*
Y-30374D01*
X99193Y-30454D01*
X99149Y-30323D01*
X99105Y-30206D01*
X99054Y-30111D01*
X99010Y-30038D01*
X98967Y-29980D01*
X98930Y-29943D01*
X98901Y-29922D01*
X98894Y-29914D01*
X98806Y-29863D01*
X98704Y-29827D01*
X98595Y-29798D01*
X98493Y-29783D01*
X98391Y-29768D01*
X98318Y-29761D01*
X98245D01*
X98077Y-29768D01*
X97932Y-29790D01*
X97815Y-29827D01*
X97713Y-29863D01*
X97640Y-29907D01*
X97582Y-29936D01*
X97545Y-29965D01*
X97538Y-29973D01*
X97480Y-30038D01*
X97436Y-30118D01*
X97399Y-30206D01*
X97378Y-30293D01*
X97363Y-30374D01*
X97356Y-30446D01*
Y-30490D01*
Y-30498D01*
Y-30505D01*
Y-30519D01*
Y-30549D01*
Y-30600D01*
X97363Y-30643D01*
Y-30658D01*
Y-30665D01*
X97436Y-30687D01*
X97516Y-30709D01*
X97684Y-30753D01*
X97873Y-30789D01*
X98048Y-30825D01*
X98136Y-30840D01*
X98216Y-30847D01*
X98289Y-30862D01*
X98347Y-30869D01*
X98398Y-30877D01*
X98435D01*
X98464Y-30884D01*
X98471D01*
X98602Y-30898D01*
X98712Y-30920D01*
X98806Y-30935D01*
X98879Y-30950D01*
X98938Y-30957D01*
X98981Y-30971D01*
X99010Y-30979D01*
X99018D01*
X99113Y-31008D01*
X99193Y-31037D01*
X99273Y-31073D01*
X99339Y-31103D01*
X99397Y-31132D01*
X99433Y-31161D01*
X99462Y-31176D01*
X99470Y-31183D01*
X99543Y-31234D01*
X99601Y-31292D01*
X99659Y-31350D01*
X99703Y-31409D01*
X99739Y-31460D01*
X99769Y-31503D01*
X99783Y-31533D01*
X99791Y-31540D01*
X99827Y-31620D01*
X99856Y-31708D01*
X99878Y-31788D01*
X99893Y-31868D01*
X99900Y-31934D01*
X99907Y-31985D01*
Y-32014D01*
Y-32028D01*
X99900Y-32116D01*
X99893Y-32189D01*
X99856Y-32342D01*
X99805Y-32466D01*
X99747Y-32575D01*
X99689Y-32663D01*
X99638Y-32728D01*
X99601Y-32765D01*
X99586Y-32779D01*
X99455Y-32874D01*
X99309Y-32947D01*
X99149Y-32998D01*
X99003Y-33034D01*
X98872Y-33056D01*
X98814Y-33064D01*
X98763D01*
X98719Y-33071D01*
X98661D01*
X98529Y-33064D01*
X98398Y-33049D01*
X98282Y-33034D01*
X98179Y-33013D01*
X98099Y-32991D01*
X98034Y-32969D01*
X97990Y-32961D01*
X97975Y-32954D01*
X97851Y-32903D01*
X97735Y-32838D01*
X97625Y-32765D01*
X97516Y-32699D01*
X97429Y-32634D01*
X97363Y-32582D01*
X97319Y-32546D01*
X97312Y-32531D01*
X97305D01*
X97290Y-32626D01*
X97276Y-32714D01*
X97261Y-32794D01*
X97239Y-32860D01*
X97217Y-32918D01*
X97203Y-32954D01*
X97195Y-32983D01*
X97188Y-32991D01*
X96539D01*
X96576Y-32910D01*
X96612Y-32830D01*
X96641Y-32757D01*
X96656Y-32692D01*
X96678Y-32634D01*
X96685Y-32590D01*
X96692Y-32561D01*
Y-32553D01*
X96700Y-32502D01*
X96707Y-32437D01*
Y-32364D01*
X96714Y-32284D01*
X96722Y-32101D01*
Y-31919D01*
X96729Y-31744D01*
Y-31664D01*
Y-31598D01*
Y-31540D01*
Y-31496D01*
Y-31467D01*
Y-31460D01*
Y-30629D01*
Y-30490D01*
X96736Y-30366D01*
X96743Y-30272D01*
Y-30191D01*
X96751Y-30133D01*
X96758Y-30089D01*
X96765Y-30067D01*
Y-30060D01*
X96787Y-29965D01*
X96816Y-29885D01*
X96845Y-29820D01*
X96882Y-29754D01*
X96911Y-29710D01*
X96933Y-29674D01*
X96947Y-29652D01*
X96955Y-29645D01*
X97013Y-29586D01*
X97079Y-29528D01*
X97152Y-29484D01*
X97224Y-29440D01*
X97290Y-29411D01*
X97341Y-29389D01*
X97378Y-29375D01*
X97392Y-29368D01*
X97509Y-29331D01*
X97633Y-29302D01*
X97757Y-29280D01*
X97881Y-29265D01*
X97990Y-29258D01*
X98070Y-29251D01*
X98150D01*
X98325Y-29258D01*
D02*
G37*
G36*
X104128Y-32991D02*
X103472D01*
X102736Y-30177D01*
X102590Y-30804D01*
X102007Y-32991D01*
X101373D01*
X100221Y-29331D01*
X100826D01*
X101453Y-31453D01*
X101664Y-32160D01*
X101846Y-31460D01*
X102393Y-29331D01*
X103027D01*
X103611Y-31482D01*
X103640Y-31606D01*
X103669Y-31715D01*
X103691Y-31810D01*
X103713Y-31890D01*
X103734Y-31963D01*
X103749Y-32021D01*
X103764Y-32072D01*
X103771Y-32116D01*
X103778Y-32152D01*
X103786Y-32174D01*
X103793Y-32211D01*
X103800Y-32225D01*
Y-32232D01*
X104004Y-31445D01*
X104587Y-29331D01*
X105236D01*
X104128Y-32991D01*
D02*
G37*
G36*
X92070Y-29258D02*
X92202Y-29273D01*
X92326Y-29295D01*
X92442Y-29331D01*
X92552Y-29368D01*
X92654Y-29411D01*
X92748Y-29455D01*
X92829Y-29506D01*
X92909Y-29550D01*
X92974Y-29601D01*
X93033Y-29645D01*
X93076Y-29681D01*
X93113Y-29717D01*
X93142Y-29739D01*
X93157Y-29754D01*
X93164Y-29761D01*
X93244Y-29863D01*
X93317Y-29973D01*
X93383Y-30082D01*
X93441Y-30199D01*
X93485Y-30323D01*
X93521Y-30439D01*
X93580Y-30672D01*
X93601Y-30775D01*
X93616Y-30877D01*
X93623Y-30964D01*
X93630Y-31044D01*
X93638Y-31110D01*
Y-31154D01*
Y-31190D01*
Y-31197D01*
X93630Y-31358D01*
X93616Y-31511D01*
X93594Y-31657D01*
X93565Y-31788D01*
X93528Y-31912D01*
X93492Y-32028D01*
X93448Y-32131D01*
X93405Y-32225D01*
X93361Y-32305D01*
X93317Y-32378D01*
X93281Y-32437D01*
X93244Y-32488D01*
X93215Y-32531D01*
X93193Y-32561D01*
X93178Y-32575D01*
X93171Y-32582D01*
X93076Y-32670D01*
X92982Y-32743D01*
X92880Y-32808D01*
X92770Y-32867D01*
X92668Y-32910D01*
X92559Y-32954D01*
X92355Y-33013D01*
X92260Y-33027D01*
X92172Y-33042D01*
X92092Y-33056D01*
X92027Y-33064D01*
X91976Y-33071D01*
X91896D01*
X91669Y-33056D01*
X91465Y-33020D01*
X91283Y-32976D01*
X91210Y-32947D01*
X91137Y-32918D01*
X91072Y-32889D01*
X91013Y-32860D01*
X90970Y-32838D01*
X90926Y-32816D01*
X90897Y-32794D01*
X90875Y-32779D01*
X90860Y-32765D01*
X90853D01*
X90707Y-32634D01*
X90591Y-32495D01*
X90488Y-32349D01*
X90416Y-32211D01*
X90357Y-32087D01*
X90335Y-32028D01*
X90314Y-31985D01*
X90299Y-31941D01*
X90292Y-31912D01*
X90284Y-31897D01*
Y-31890D01*
X90926Y-31810D01*
X90984Y-31948D01*
X91050Y-32065D01*
X91115Y-32167D01*
X91174Y-32247D01*
X91225Y-32305D01*
X91268Y-32349D01*
X91305Y-32378D01*
X91312Y-32386D01*
X91407Y-32444D01*
X91502Y-32488D01*
X91604Y-32517D01*
X91691Y-32539D01*
X91772Y-32553D01*
X91837Y-32561D01*
X91896D01*
X91983Y-32553D01*
X92063Y-32546D01*
X92209Y-32509D01*
X92340Y-32458D01*
X92457Y-32400D01*
X92544Y-32349D01*
X92610Y-32298D01*
X92654Y-32262D01*
X92661Y-32247D01*
X92668D01*
X92770Y-32116D01*
X92851Y-31970D01*
X92909Y-31810D01*
X92953Y-31664D01*
X92974Y-31533D01*
X92989Y-31474D01*
X92996Y-31423D01*
Y-31380D01*
X93003Y-31350D01*
Y-31329D01*
Y-31321D01*
X90270Y-31321D01*
X90263Y-31248D01*
Y-31197D01*
Y-31168D01*
Y-31161D01*
X90270Y-30993D01*
X90284Y-30840D01*
X90306Y-30694D01*
X90335Y-30556D01*
X90372Y-30432D01*
X90408Y-30315D01*
X90452Y-30213D01*
X90496Y-30118D01*
X90539Y-30031D01*
X90583Y-29958D01*
X90620Y-29900D01*
X90656Y-29849D01*
X90685Y-29805D01*
X90707Y-29776D01*
X90722Y-29761D01*
X90729Y-29754D01*
X90816Y-29666D01*
X90911Y-29586D01*
X91013Y-29521D01*
X91115Y-29462D01*
X91217Y-29411D01*
X91312Y-29375D01*
X91414Y-29338D01*
X91502Y-29316D01*
X91597Y-29295D01*
X91677Y-29280D01*
X91750Y-29265D01*
X91808Y-29258D01*
X91859Y-29251D01*
X91932D01*
X92070Y-29258D01*
D02*
G37*
G36*
X109792D02*
X109865Y-29273D01*
X109938Y-29295D01*
X109996Y-29316D01*
X110040Y-29338D01*
X110084Y-29360D01*
X110106Y-29375D01*
X110113Y-29382D01*
X110179Y-29440D01*
X110244Y-29513D01*
X110310Y-29601D01*
X110368Y-29681D01*
X110427Y-29761D01*
X110463Y-29827D01*
X110492Y-29878D01*
X110500Y-29885D01*
Y-29331D01*
X111061D01*
Y-32991D01*
X110441D01*
Y-31081D01*
X110434Y-30935D01*
X110427Y-30804D01*
X110412Y-30680D01*
X110390Y-30570D01*
X110368Y-30483D01*
X110354Y-30417D01*
X110346Y-30374D01*
X110339Y-30359D01*
X110310Y-30279D01*
X110274Y-30213D01*
X110237Y-30155D01*
X110201Y-30104D01*
X110164Y-30067D01*
X110142Y-30038D01*
X110120Y-30024D01*
X110113Y-30016D01*
X110055Y-29973D01*
X109989Y-29943D01*
X109924Y-29922D01*
X109873Y-29907D01*
X109822Y-29900D01*
X109785Y-29892D01*
X109749D01*
X109669Y-29900D01*
X109588Y-29914D01*
X109508Y-29936D01*
X109442Y-29958D01*
X109384Y-29980D01*
X109340Y-30002D01*
X109311Y-30016D01*
X109304Y-30024D01*
X109078Y-29455D01*
X109202Y-29389D01*
X109319Y-29338D01*
X109421Y-29302D01*
X109515Y-29273D01*
X109596Y-29258D01*
X109661Y-29251D01*
X109712D01*
X109792Y-29258D01*
D02*
G37*
G36*
X94513D02*
X94586Y-29273D01*
X94658Y-29295D01*
X94717Y-29316D01*
X94760Y-29338D01*
X94804Y-29360D01*
X94826Y-29375D01*
X94833Y-29382D01*
X94899Y-29440D01*
X94965Y-29513D01*
X95030Y-29601D01*
X95088Y-29681D01*
X95147Y-29761D01*
X95183Y-29827D01*
X95212Y-29878D01*
X95220Y-29885D01*
Y-29331D01*
X95781D01*
Y-32991D01*
X95161D01*
Y-31081D01*
X95154Y-30935D01*
X95147Y-30804D01*
X95132Y-30680D01*
X95110Y-30570D01*
X95088Y-30483D01*
X95074Y-30417D01*
X95067Y-30374D01*
X95059Y-30359D01*
X95030Y-30279D01*
X94994Y-30213D01*
X94957Y-30155D01*
X94921Y-30104D01*
X94884Y-30067D01*
X94863Y-30038D01*
X94841Y-30024D01*
X94833Y-30016D01*
X94775Y-29973D01*
X94709Y-29943D01*
X94644Y-29922D01*
X94593Y-29907D01*
X94542Y-29900D01*
X94505Y-29892D01*
X94469D01*
X94389Y-29900D01*
X94309Y-29914D01*
X94228Y-29936D01*
X94163Y-29958D01*
X94104Y-29980D01*
X94061Y-30002D01*
X94031Y-30016D01*
X94024Y-30024D01*
X93798Y-29455D01*
X93922Y-29389D01*
X94039Y-29338D01*
X94141Y-29302D01*
X94236Y-29273D01*
X94316Y-29258D01*
X94381Y-29251D01*
X94432D01*
X94513Y-29258D01*
D02*
G37*
G36*
X106388Y-29754D02*
X106454Y-29674D01*
X106527Y-29608D01*
X106592Y-29542D01*
X106665Y-29491D01*
X106723Y-29455D01*
X106767Y-29419D01*
X106796Y-29404D01*
X106811Y-29397D01*
X106906Y-29346D01*
X107008Y-29309D01*
X107110Y-29287D01*
X107204Y-29265D01*
X107285Y-29258D01*
X107343Y-29251D01*
X107401D01*
X107562Y-29258D01*
X107715Y-29287D01*
X107853Y-29324D01*
X107970Y-29368D01*
X108072Y-29419D01*
X108145Y-29455D01*
X108174Y-29470D01*
X108196Y-29484D01*
X108203Y-29491D01*
X108211D01*
X108342Y-29586D01*
X108451Y-29703D01*
X108546Y-29812D01*
X108619Y-29922D01*
X108677Y-30024D01*
X108721Y-30104D01*
X108735Y-30133D01*
X108750Y-30155D01*
X108757Y-30169D01*
Y-30177D01*
X108816Y-30344D01*
X108859Y-30519D01*
X108896Y-30687D01*
X108918Y-30840D01*
X108932Y-30971D01*
Y-31030D01*
X108940Y-31073D01*
Y-31117D01*
Y-31146D01*
Y-31161D01*
Y-31168D01*
X108932Y-31372D01*
X108910Y-31562D01*
X108874Y-31730D01*
X108837Y-31875D01*
X108823Y-31941D01*
X108808Y-31992D01*
X108786Y-32043D01*
X108772Y-32087D01*
X108757Y-32116D01*
X108750Y-32138D01*
X108743Y-32152D01*
Y-32160D01*
X108662Y-32313D01*
X108568Y-32444D01*
X108473Y-32561D01*
X108378Y-32655D01*
X108298Y-32728D01*
X108232Y-32787D01*
X108189Y-32816D01*
X108181Y-32830D01*
X108174D01*
X108036Y-32910D01*
X107897Y-32969D01*
X107758Y-33013D01*
X107635Y-33042D01*
X107533Y-33056D01*
X107445Y-33064D01*
X107416Y-33071D01*
X107372D01*
X107248Y-33064D01*
X107132Y-33049D01*
X107022Y-33020D01*
X106927Y-32983D01*
X106833Y-32947D01*
X106745Y-32903D01*
X106672Y-32852D01*
X106607Y-32801D01*
X106541Y-32750D01*
X106490Y-32699D01*
X106446Y-32655D01*
X106410Y-32619D01*
X106381Y-32582D01*
X106359Y-32553D01*
X106351Y-32539D01*
X106344Y-32531D01*
Y-32991D01*
X105768D01*
Y-27946D01*
X106388D01*
Y-29754D01*
D02*
G37*
G36*
X103749Y-34952D02*
X103129D01*
Y-34245D01*
X103749D01*
Y-34952D01*
D02*
G37*
G36*
X105608Y-34726D02*
Y-35630D01*
X106067D01*
Y-36112D01*
X105608D01*
Y-38225D01*
Y-38328D01*
Y-38415D01*
X105601Y-38495D01*
X105593Y-38576D01*
Y-38641D01*
X105586Y-38699D01*
X105571Y-38794D01*
X105557Y-38867D01*
X105550Y-38918D01*
X105535Y-38947D01*
Y-38955D01*
X105506Y-39020D01*
X105462Y-39071D01*
X105418Y-39122D01*
X105382Y-39159D01*
X105338Y-39195D01*
X105309Y-39217D01*
X105287Y-39232D01*
X105280Y-39239D01*
X105200Y-39275D01*
X105120Y-39297D01*
X105032Y-39319D01*
X104945Y-39326D01*
X104872Y-39334D01*
X104813Y-39341D01*
X104755D01*
X104595Y-39334D01*
X104515Y-39326D01*
X104442Y-39312D01*
X104376Y-39305D01*
X104325Y-39297D01*
X104296Y-39290D01*
X104281D01*
X104361Y-38743D01*
X104420Y-38750D01*
X104478Y-38758D01*
X104529D01*
X104566Y-38765D01*
X104638D01*
X104733Y-38758D01*
X104799Y-38743D01*
X104835Y-38729D01*
X104850Y-38721D01*
X104901Y-38685D01*
X104930Y-38648D01*
X104952Y-38619D01*
X104959Y-38605D01*
X104966Y-38568D01*
X104974Y-38517D01*
X104981Y-38401D01*
X104988Y-38350D01*
Y-38306D01*
Y-38277D01*
Y-38262D01*
Y-36112D01*
X104361D01*
Y-35630D01*
X104988D01*
Y-34355D01*
X105608Y-34726D01*
D02*
G37*
G36*
X109647Y-37898D02*
Y-38036D01*
X109639Y-38160D01*
X109632Y-38255D01*
X109625Y-38342D01*
Y-38401D01*
X109617Y-38444D01*
X109610Y-38473D01*
Y-38481D01*
X109588Y-38576D01*
X109559Y-38663D01*
X109530Y-38743D01*
X109494Y-38809D01*
X109464Y-38867D01*
X109442Y-38903D01*
X109428Y-38933D01*
X109421Y-38940D01*
X109362Y-39006D01*
X109297Y-39064D01*
X109231Y-39115D01*
X109158Y-39159D01*
X109100Y-39195D01*
X109049Y-39224D01*
X109020Y-39239D01*
X109005Y-39246D01*
X108896Y-39290D01*
X108794Y-39319D01*
X108692Y-39341D01*
X108597Y-39355D01*
X108517Y-39363D01*
X108451Y-39370D01*
X108400D01*
X108269Y-39363D01*
X108138Y-39341D01*
X108021Y-39312D01*
X107904Y-39275D01*
X107802Y-39224D01*
X107708Y-39173D01*
X107620Y-39122D01*
X107540Y-39064D01*
X107467Y-39006D01*
X107409Y-38955D01*
X107358Y-38896D01*
X107314Y-38853D01*
X107277Y-38816D01*
X107255Y-38787D01*
X107241Y-38765D01*
X107234Y-38758D01*
Y-39290D01*
X106680D01*
Y-35630D01*
X107299D01*
Y-37591D01*
X107307Y-37759D01*
X107314Y-37905D01*
X107328Y-38029D01*
X107350Y-38131D01*
X107372Y-38211D01*
X107387Y-38269D01*
X107394Y-38298D01*
X107401Y-38313D01*
X107445Y-38401D01*
X107496Y-38473D01*
X107554Y-38539D01*
X107613Y-38597D01*
X107664Y-38641D01*
X107708Y-38670D01*
X107737Y-38692D01*
X107751Y-38699D01*
X107846Y-38743D01*
X107941Y-38780D01*
X108028Y-38802D01*
X108108Y-38823D01*
X108174Y-38831D01*
X108225Y-38838D01*
X108276D01*
X108378Y-38831D01*
X108466Y-38816D01*
X108546Y-38794D01*
X108611Y-38765D01*
X108670Y-38743D01*
X108706Y-38721D01*
X108735Y-38707D01*
X108743Y-38699D01*
X108808Y-38641D01*
X108859Y-38583D01*
X108903Y-38517D01*
X108940Y-38459D01*
X108961Y-38401D01*
X108976Y-38357D01*
X108991Y-38328D01*
Y-38320D01*
X109005Y-38240D01*
X109012Y-38145D01*
X109020Y-38036D01*
Y-37927D01*
X109027Y-37825D01*
Y-37744D01*
Y-37708D01*
Y-37686D01*
Y-37672D01*
Y-37664D01*
Y-35630D01*
X109647D01*
Y-37898D01*
D02*
G37*
G36*
X111214Y-39290D02*
X110594D01*
Y-34245D01*
X111214D01*
Y-39290D01*
D02*
G37*
G36*
X103749D02*
X103129D01*
Y-35630D01*
X103749D01*
Y-39290D01*
D02*
G37*
G36*
X96685Y-35557D02*
X96816Y-35579D01*
X96933Y-35608D01*
X97049Y-35645D01*
X97152Y-35689D01*
X97246Y-35740D01*
X97334Y-35798D01*
X97407Y-35849D01*
X97480Y-35907D01*
X97538Y-35966D01*
X97589Y-36017D01*
X97633Y-36060D01*
X97662Y-36097D01*
X97684Y-36126D01*
X97698Y-36148D01*
X97706Y-36155D01*
Y-35630D01*
X98260D01*
Y-39290D01*
X97640D01*
Y-37300D01*
Y-37176D01*
X97625Y-37052D01*
X97611Y-36950D01*
X97596Y-36855D01*
X97574Y-36768D01*
X97553Y-36687D01*
X97523Y-36615D01*
X97494Y-36556D01*
X97472Y-36505D01*
X97443Y-36461D01*
X97421Y-36425D01*
X97399Y-36396D01*
X97370Y-36359D01*
X97356Y-36345D01*
X97246Y-36257D01*
X97130Y-36199D01*
X97013Y-36155D01*
X96911Y-36119D01*
X96816Y-36104D01*
X96743Y-36097D01*
X96714Y-36090D01*
X96678D01*
X96590Y-36097D01*
X96503Y-36104D01*
X96430Y-36126D01*
X96372Y-36148D01*
X96320Y-36170D01*
X96277Y-36184D01*
X96255Y-36199D01*
X96248Y-36206D01*
X96182Y-36250D01*
X96124Y-36301D01*
X96080Y-36352D01*
X96043Y-36396D01*
X96022Y-36439D01*
X96000Y-36476D01*
X95985Y-36498D01*
Y-36505D01*
X95963Y-36585D01*
X95941Y-36673D01*
X95927Y-36768D01*
X95920Y-36862D01*
X95912Y-36942D01*
Y-37008D01*
Y-37059D01*
Y-37066D01*
Y-37074D01*
Y-39290D01*
X95293D01*
Y-37045D01*
Y-36891D01*
X95300Y-36768D01*
X95307Y-36665D01*
Y-36578D01*
X95315Y-36520D01*
X95322Y-36476D01*
X95329Y-36447D01*
Y-36439D01*
X95351Y-36345D01*
X95387Y-36257D01*
X95416Y-36184D01*
X95446Y-36112D01*
X95482Y-36060D01*
X95504Y-36024D01*
X95519Y-35995D01*
X95526Y-35987D01*
X95584Y-35915D01*
X95650Y-35856D01*
X95715Y-35798D01*
X95788Y-35754D01*
X95847Y-35718D01*
X95898Y-35696D01*
X95927Y-35681D01*
X95941Y-35674D01*
X96043Y-35630D01*
X96153Y-35601D01*
X96255Y-35579D01*
X96350Y-35565D01*
X96430Y-35557D01*
X96488Y-35550D01*
X96547D01*
X96685Y-35557D01*
D02*
G37*
G36*
X117658Y-35565D02*
X117746Y-35572D01*
X117826Y-35587D01*
X117892Y-35601D01*
X117943Y-35616D01*
X117972Y-35623D01*
X117986Y-35630D01*
X118074Y-35660D01*
X118154Y-35689D01*
X118220Y-35718D01*
X118278Y-35747D01*
X118322Y-35769D01*
X118351Y-35791D01*
X118373Y-35798D01*
X118380Y-35805D01*
X118453Y-35856D01*
X118511Y-35915D01*
X118562Y-35980D01*
X118606Y-36031D01*
X118642Y-36082D01*
X118664Y-36119D01*
X118679Y-36148D01*
X118686Y-36155D01*
X118723Y-36235D01*
X118752Y-36308D01*
X118766Y-36388D01*
X118781Y-36454D01*
X118788Y-36520D01*
X118796Y-36563D01*
Y-36593D01*
Y-36607D01*
X118788Y-36709D01*
X118774Y-36797D01*
X118752Y-36884D01*
X118730Y-36957D01*
X118708Y-37015D01*
X118686Y-37066D01*
X118672Y-37096D01*
X118664Y-37103D01*
X118606Y-37183D01*
X118540Y-37249D01*
X118475Y-37307D01*
X118409Y-37358D01*
X118351Y-37394D01*
X118307Y-37424D01*
X118278Y-37438D01*
X118263Y-37446D01*
X118212Y-37467D01*
X118147Y-37497D01*
X118001Y-37548D01*
X117848Y-37591D01*
X117687Y-37642D01*
X117549Y-37679D01*
X117483Y-37701D01*
X117425Y-37715D01*
X117381Y-37730D01*
X117345Y-37737D01*
X117323Y-37744D01*
X117316D01*
X117221Y-37766D01*
X117141Y-37788D01*
X117068Y-37810D01*
X117002Y-37832D01*
X116944Y-37846D01*
X116893Y-37868D01*
X116805Y-37898D01*
X116747Y-37919D01*
X116711Y-37941D01*
X116689Y-37949D01*
X116682Y-37956D01*
X116616Y-38000D01*
X116572Y-38058D01*
X116536Y-38109D01*
X116514Y-38160D01*
X116499Y-38211D01*
X116492Y-38247D01*
Y-38277D01*
Y-38284D01*
X116499Y-38371D01*
X116521Y-38444D01*
X116558Y-38517D01*
X116594Y-38576D01*
X116638Y-38627D01*
X116667Y-38663D01*
X116696Y-38685D01*
X116703Y-38692D01*
X116791Y-38750D01*
X116886Y-38787D01*
X116995Y-38816D01*
X117097Y-38838D01*
X117192Y-38853D01*
X117265Y-38860D01*
X117338D01*
X117491Y-38853D01*
X117622Y-38831D01*
X117731Y-38802D01*
X117826Y-38765D01*
X117899Y-38729D01*
X117957Y-38699D01*
X117986Y-38677D01*
X118001Y-38670D01*
X118081Y-38590D01*
X118147Y-38495D01*
X118191Y-38401D01*
X118227Y-38313D01*
X118256Y-38233D01*
X118271Y-38160D01*
X118285Y-38116D01*
Y-38109D01*
Y-38102D01*
X118898Y-38196D01*
X118847Y-38401D01*
X118781Y-38583D01*
X118701Y-38729D01*
X118621Y-38853D01*
X118548Y-38955D01*
X118482Y-39020D01*
X118438Y-39064D01*
X118431Y-39071D01*
X118424Y-39079D01*
X118351Y-39129D01*
X118271Y-39173D01*
X118096Y-39246D01*
X117913Y-39297D01*
X117738Y-39334D01*
X117658Y-39348D01*
X117585Y-39355D01*
X117513Y-39363D01*
X117454D01*
X117403Y-39370D01*
X117338D01*
X117177Y-39363D01*
X117039Y-39348D01*
X116908Y-39326D01*
X116791Y-39297D01*
X116696Y-39268D01*
X116623Y-39246D01*
X116579Y-39232D01*
X116572Y-39224D01*
X116565D01*
X116441Y-39159D01*
X116339Y-39093D01*
X116251Y-39020D01*
X116171Y-38955D01*
X116113Y-38896D01*
X116076Y-38845D01*
X116047Y-38816D01*
X116040Y-38802D01*
X115982Y-38699D01*
X115938Y-38590D01*
X115901Y-38495D01*
X115880Y-38408D01*
X115865Y-38328D01*
X115858Y-38269D01*
Y-38233D01*
Y-38218D01*
X115865Y-38102D01*
X115880Y-38000D01*
X115909Y-37912D01*
X115931Y-37832D01*
X115960Y-37766D01*
X115989Y-37723D01*
X116004Y-37693D01*
X116011Y-37686D01*
X116069Y-37613D01*
X116135Y-37548D01*
X116200Y-37489D01*
X116266Y-37446D01*
X116332Y-37409D01*
X116375Y-37387D01*
X116404Y-37373D01*
X116419Y-37365D01*
X116470Y-37343D01*
X116528Y-37322D01*
X116667Y-37271D01*
X116820Y-37220D01*
X116973Y-37176D01*
X117112Y-37132D01*
X117177Y-37117D01*
X117228Y-37103D01*
X117272Y-37088D01*
X117308Y-37081D01*
X117330Y-37074D01*
X117338D01*
X117418Y-37052D01*
X117491Y-37030D01*
X117556Y-37015D01*
X117615Y-36994D01*
X117709Y-36972D01*
X117782Y-36950D01*
X117833Y-36928D01*
X117862Y-36921D01*
X117877Y-36913D01*
X117884D01*
X117943Y-36884D01*
X117994Y-36862D01*
X118037Y-36833D01*
X118067Y-36811D01*
X118096Y-36789D01*
X118110Y-36768D01*
X118118Y-36760D01*
X118125Y-36753D01*
X118169Y-36680D01*
X118191Y-36607D01*
Y-36578D01*
X118198Y-36556D01*
Y-36542D01*
Y-36534D01*
X118191Y-36469D01*
X118169Y-36403D01*
X118140Y-36345D01*
X118103Y-36301D01*
X118074Y-36257D01*
X118045Y-36228D01*
X118023Y-36213D01*
X118016Y-36206D01*
X117935Y-36155D01*
X117841Y-36119D01*
X117738Y-36097D01*
X117644Y-36075D01*
X117549Y-36068D01*
X117476Y-36060D01*
X117403D01*
X117279Y-36068D01*
X117163Y-36082D01*
X117068Y-36112D01*
X116995Y-36141D01*
X116929Y-36170D01*
X116886Y-36199D01*
X116856Y-36213D01*
X116849Y-36221D01*
X116776Y-36286D01*
X116725Y-36359D01*
X116682Y-36432D01*
X116645Y-36498D01*
X116623Y-36563D01*
X116609Y-36615D01*
X116601Y-36644D01*
Y-36658D01*
X115996Y-36578D01*
X116025Y-36454D01*
X116054Y-36345D01*
X116091Y-36250D01*
X116127Y-36162D01*
X116164Y-36104D01*
X116193Y-36053D01*
X116208Y-36024D01*
X116215Y-36017D01*
X116280Y-35944D01*
X116353Y-35878D01*
X116434Y-35820D01*
X116514Y-35769D01*
X116587Y-35732D01*
X116645Y-35703D01*
X116682Y-35689D01*
X116689Y-35681D01*
X116696D01*
X116820Y-35638D01*
X116951Y-35608D01*
X117075Y-35579D01*
X117192Y-35565D01*
X117301Y-35557D01*
X117381Y-35550D01*
X117556D01*
X117658Y-35565D01*
D02*
G37*
G36*
X113766Y-35557D02*
X113882Y-35565D01*
X114108Y-35616D01*
X114305Y-35681D01*
X114392Y-35718D01*
X114473Y-35754D01*
X114546Y-35791D01*
X114604Y-35827D01*
X114662Y-35864D01*
X114706Y-35893D01*
X114742Y-35922D01*
X114771Y-35944D01*
X114786Y-35951D01*
X114793Y-35958D01*
X114895Y-36053D01*
X114976Y-36162D01*
X115056Y-36279D01*
X115114Y-36396D01*
X115172Y-36520D01*
X115216Y-36651D01*
X115253Y-36775D01*
X115282Y-36891D01*
X115311Y-37008D01*
X115325Y-37110D01*
X115340Y-37212D01*
X115347Y-37292D01*
Y-37365D01*
X115355Y-37416D01*
Y-37446D01*
Y-37460D01*
X115347Y-37628D01*
X115333Y-37788D01*
X115311Y-37934D01*
X115282Y-38072D01*
X115245Y-38196D01*
X115209Y-38313D01*
X115165Y-38422D01*
X115121Y-38517D01*
X115078Y-38605D01*
X115034Y-38677D01*
X114997Y-38736D01*
X114961Y-38787D01*
X114932Y-38831D01*
X114910Y-38860D01*
X114895Y-38874D01*
X114888Y-38882D01*
X114793Y-38969D01*
X114699Y-39042D01*
X114596Y-39108D01*
X114495Y-39166D01*
X114392Y-39210D01*
X114283Y-39253D01*
X114086Y-39312D01*
X113999Y-39326D01*
X113911Y-39341D01*
X113838Y-39355D01*
X113773Y-39363D01*
X113714Y-39370D01*
X113642D01*
X113467Y-39363D01*
X113306Y-39334D01*
X113153Y-39297D01*
X113029Y-39261D01*
X112920Y-39217D01*
X112876Y-39202D01*
X112840Y-39188D01*
X112803Y-39173D01*
X112781Y-39159D01*
X112774Y-39151D01*
X112767D01*
X112621Y-39057D01*
X112497Y-38955D01*
X112388Y-38853D01*
X112300Y-38750D01*
X112235Y-38663D01*
X112183Y-38590D01*
X112169Y-38561D01*
X112154Y-38539D01*
X112147Y-38532D01*
Y-38524D01*
X112074Y-38357D01*
X112023Y-38175D01*
X111979Y-37992D01*
X111958Y-37810D01*
X111943Y-37730D01*
Y-37657D01*
X111936Y-37584D01*
X111928Y-37526D01*
Y-37475D01*
Y-37438D01*
Y-37416D01*
Y-37409D01*
X111936Y-37249D01*
X111950Y-37103D01*
X111972Y-36964D01*
X112001Y-36833D01*
X112038Y-36709D01*
X112082Y-36600D01*
X112125Y-36490D01*
X112169Y-36403D01*
X112213Y-36323D01*
X112256Y-36250D01*
X112300Y-36184D01*
X112337Y-36133D01*
X112366Y-36097D01*
X112388Y-36068D01*
X112402Y-36053D01*
X112409Y-36046D01*
X112504Y-35958D01*
X112599Y-35886D01*
X112701Y-35813D01*
X112803Y-35761D01*
X112905Y-35710D01*
X113007Y-35674D01*
X113204Y-35608D01*
X113299Y-35594D01*
X113379Y-35579D01*
X113452Y-35565D01*
X113518Y-35557D01*
X113569Y-35550D01*
X113642D01*
X113766Y-35557D01*
D02*
G37*
G36*
X100826D02*
X100942Y-35565D01*
X101168Y-35616D01*
X101365Y-35681D01*
X101453Y-35718D01*
X101533Y-35754D01*
X101606Y-35791D01*
X101664Y-35827D01*
X101722Y-35864D01*
X101766Y-35893D01*
X101803Y-35922D01*
X101832Y-35944D01*
X101846Y-35951D01*
X101854Y-35958D01*
X101956Y-36053D01*
X102036Y-36162D01*
X102116Y-36279D01*
X102174Y-36396D01*
X102233Y-36520D01*
X102276Y-36651D01*
X102313Y-36775D01*
X102342Y-36891D01*
X102371Y-37008D01*
X102386Y-37110D01*
X102400Y-37212D01*
X102408Y-37292D01*
Y-37365D01*
X102415Y-37416D01*
Y-37446D01*
Y-37460D01*
X102408Y-37628D01*
X102393Y-37788D01*
X102371Y-37934D01*
X102342Y-38072D01*
X102306Y-38196D01*
X102269Y-38313D01*
X102225Y-38422D01*
X102182Y-38517D01*
X102138Y-38605D01*
X102094Y-38677D01*
X102058Y-38736D01*
X102021Y-38787D01*
X101992Y-38831D01*
X101970Y-38860D01*
X101956Y-38874D01*
X101948Y-38882D01*
X101854Y-38969D01*
X101759Y-39042D01*
X101657Y-39108D01*
X101555Y-39166D01*
X101453Y-39210D01*
X101343Y-39253D01*
X101146Y-39312D01*
X101059Y-39326D01*
X100971Y-39341D01*
X100899Y-39355D01*
X100833Y-39363D01*
X100775Y-39370D01*
X100702D01*
X100527Y-39363D01*
X100366Y-39334D01*
X100213Y-39297D01*
X100089Y-39261D01*
X99980Y-39217D01*
X99936Y-39202D01*
X99900Y-39188D01*
X99863Y-39173D01*
X99842Y-39159D01*
X99834Y-39151D01*
X99827D01*
X99681Y-39057D01*
X99557Y-38955D01*
X99448Y-38853D01*
X99360Y-38750D01*
X99295Y-38663D01*
X99244Y-38590D01*
X99229Y-38561D01*
X99215Y-38539D01*
X99207Y-38532D01*
Y-38524D01*
X99134Y-38357D01*
X99083Y-38175D01*
X99040Y-37992D01*
X99018Y-37810D01*
X99003Y-37730D01*
Y-37657D01*
X98996Y-37584D01*
X98989Y-37526D01*
Y-37475D01*
Y-37438D01*
Y-37416D01*
Y-37409D01*
X98996Y-37249D01*
X99010Y-37103D01*
X99032Y-36964D01*
X99062Y-36833D01*
X99098Y-36709D01*
X99142Y-36600D01*
X99186Y-36490D01*
X99229Y-36403D01*
X99273Y-36323D01*
X99317Y-36250D01*
X99360Y-36184D01*
X99397Y-36133D01*
X99426Y-36097D01*
X99448Y-36068D01*
X99462Y-36053D01*
X99470Y-36046D01*
X99564Y-35958D01*
X99659Y-35886D01*
X99761Y-35813D01*
X99863Y-35761D01*
X99966Y-35710D01*
X100068Y-35674D01*
X100264Y-35608D01*
X100359Y-35594D01*
X100439Y-35579D01*
X100512Y-35565D01*
X100578Y-35557D01*
X100629Y-35550D01*
X100702D01*
X100826Y-35557D01*
D02*
G37*
G36*
X93346Y-35565D02*
X93434Y-35572D01*
X93514Y-35587D01*
X93580Y-35601D01*
X93630Y-35616D01*
X93660Y-35623D01*
X93674Y-35630D01*
X93762Y-35660D01*
X93842Y-35689D01*
X93907Y-35718D01*
X93966Y-35747D01*
X94010Y-35769D01*
X94039Y-35791D01*
X94061Y-35798D01*
X94068Y-35805D01*
X94141Y-35856D01*
X94199Y-35915D01*
X94250Y-35980D01*
X94294Y-36031D01*
X94330Y-36082D01*
X94352Y-36119D01*
X94367Y-36148D01*
X94374Y-36155D01*
X94411Y-36235D01*
X94440Y-36308D01*
X94454Y-36388D01*
X94469Y-36454D01*
X94476Y-36520D01*
X94483Y-36563D01*
Y-36593D01*
Y-36607D01*
X94476Y-36709D01*
X94462Y-36797D01*
X94440Y-36884D01*
X94418Y-36957D01*
X94396Y-37015D01*
X94374Y-37066D01*
X94359Y-37096D01*
X94352Y-37103D01*
X94294Y-37183D01*
X94228Y-37249D01*
X94163Y-37307D01*
X94097Y-37358D01*
X94039Y-37394D01*
X93995Y-37424D01*
X93966Y-37438D01*
X93951Y-37446D01*
X93900Y-37467D01*
X93835Y-37497D01*
X93689Y-37548D01*
X93536Y-37591D01*
X93375Y-37642D01*
X93237Y-37679D01*
X93171Y-37701D01*
X93113Y-37715D01*
X93069Y-37730D01*
X93033Y-37737D01*
X93011Y-37744D01*
X93003D01*
X92909Y-37766D01*
X92829Y-37788D01*
X92756Y-37810D01*
X92690Y-37832D01*
X92632Y-37846D01*
X92581Y-37868D01*
X92493Y-37898D01*
X92435Y-37919D01*
X92399Y-37941D01*
X92377Y-37949D01*
X92369Y-37956D01*
X92304Y-38000D01*
X92260Y-38058D01*
X92224Y-38109D01*
X92202Y-38160D01*
X92187Y-38211D01*
X92180Y-38247D01*
Y-38277D01*
Y-38284D01*
X92187Y-38371D01*
X92209Y-38444D01*
X92245Y-38517D01*
X92282Y-38576D01*
X92326Y-38627D01*
X92355Y-38663D01*
X92384Y-38685D01*
X92391Y-38692D01*
X92479Y-38750D01*
X92573Y-38787D01*
X92683Y-38816D01*
X92785Y-38838D01*
X92880Y-38853D01*
X92953Y-38860D01*
X93025D01*
X93178Y-38853D01*
X93310Y-38831D01*
X93419Y-38802D01*
X93514Y-38765D01*
X93587Y-38729D01*
X93645Y-38699D01*
X93674Y-38677D01*
X93689Y-38670D01*
X93769Y-38590D01*
X93835Y-38495D01*
X93878Y-38401D01*
X93915Y-38313D01*
X93944Y-38233D01*
X93958Y-38160D01*
X93973Y-38116D01*
Y-38109D01*
Y-38102D01*
X94586Y-38196D01*
X94534Y-38401D01*
X94469Y-38583D01*
X94389Y-38729D01*
X94309Y-38853D01*
X94236Y-38955D01*
X94170Y-39020D01*
X94126Y-39064D01*
X94119Y-39071D01*
X94112Y-39079D01*
X94039Y-39129D01*
X93958Y-39173D01*
X93784Y-39246D01*
X93601Y-39297D01*
X93426Y-39334D01*
X93346Y-39348D01*
X93273Y-39355D01*
X93200Y-39363D01*
X93142D01*
X93091Y-39370D01*
X93025D01*
X92865Y-39363D01*
X92726Y-39348D01*
X92595Y-39326D01*
X92479Y-39297D01*
X92384Y-39268D01*
X92311Y-39246D01*
X92267Y-39232D01*
X92260Y-39224D01*
X92253D01*
X92129Y-39159D01*
X92027Y-39093D01*
X91939Y-39020D01*
X91859Y-38955D01*
X91801Y-38896D01*
X91764Y-38845D01*
X91735Y-38816D01*
X91728Y-38802D01*
X91669Y-38699D01*
X91626Y-38590D01*
X91589Y-38495D01*
X91567Y-38408D01*
X91553Y-38328D01*
X91546Y-38269D01*
Y-38233D01*
Y-38218D01*
X91553Y-38102D01*
X91567Y-38000D01*
X91597Y-37912D01*
X91618Y-37832D01*
X91648Y-37766D01*
X91677Y-37723D01*
X91691Y-37693D01*
X91699Y-37686D01*
X91757Y-37613D01*
X91823Y-37548D01*
X91888Y-37489D01*
X91954Y-37446D01*
X92019Y-37409D01*
X92063Y-37387D01*
X92092Y-37373D01*
X92107Y-37365D01*
X92158Y-37343D01*
X92216Y-37322D01*
X92355Y-37271D01*
X92508Y-37220D01*
X92661Y-37176D01*
X92799Y-37132D01*
X92865Y-37117D01*
X92916Y-37103D01*
X92960Y-37088D01*
X92996Y-37081D01*
X93018Y-37074D01*
X93025D01*
X93106Y-37052D01*
X93178Y-37030D01*
X93244Y-37015D01*
X93302Y-36994D01*
X93397Y-36972D01*
X93470Y-36950D01*
X93521Y-36928D01*
X93550Y-36921D01*
X93565Y-36913D01*
X93572D01*
X93630Y-36884D01*
X93682Y-36862D01*
X93725Y-36833D01*
X93754Y-36811D01*
X93784Y-36789D01*
X93798Y-36768D01*
X93805Y-36760D01*
X93813Y-36753D01*
X93857Y-36680D01*
X93878Y-36607D01*
Y-36578D01*
X93886Y-36556D01*
Y-36542D01*
Y-36534D01*
X93878Y-36469D01*
X93857Y-36403D01*
X93827Y-36345D01*
X93791Y-36301D01*
X93762Y-36257D01*
X93733Y-36228D01*
X93711Y-36213D01*
X93703Y-36206D01*
X93623Y-36155D01*
X93528Y-36119D01*
X93426Y-36097D01*
X93332Y-36075D01*
X93237Y-36068D01*
X93164Y-36060D01*
X93091D01*
X92967Y-36068D01*
X92851Y-36082D01*
X92756Y-36112D01*
X92683Y-36141D01*
X92617Y-36170D01*
X92573Y-36199D01*
X92544Y-36213D01*
X92537Y-36221D01*
X92464Y-36286D01*
X92413Y-36359D01*
X92369Y-36432D01*
X92333Y-36498D01*
X92311Y-36563D01*
X92296Y-36615D01*
X92289Y-36644D01*
Y-36658D01*
X91684Y-36578D01*
X91713Y-36454D01*
X91742Y-36345D01*
X91779Y-36250D01*
X91815Y-36162D01*
X91852Y-36104D01*
X91881Y-36053D01*
X91896Y-36024D01*
X91903Y-36017D01*
X91968Y-35944D01*
X92041Y-35878D01*
X92121Y-35820D01*
X92202Y-35769D01*
X92274Y-35732D01*
X92333Y-35703D01*
X92369Y-35689D01*
X92377Y-35681D01*
X92384D01*
X92508Y-35638D01*
X92639Y-35608D01*
X92763Y-35579D01*
X92880Y-35565D01*
X92989Y-35557D01*
X93069Y-35550D01*
X93244D01*
X93346Y-35565D01*
D02*
G37*
%LPC*%
G36*
X111112Y-23462D02*
X111003D01*
X110930Y-23477D01*
X110791Y-23513D01*
X110675Y-23571D01*
X110573Y-23630D01*
X110492Y-23695D01*
X110434Y-23754D01*
X110398Y-23790D01*
X110383Y-23797D01*
Y-23805D01*
X110332Y-23870D01*
X110288Y-23950D01*
X110215Y-24111D01*
X110164Y-24293D01*
X110135Y-24461D01*
X110113Y-24614D01*
X110106Y-24687D01*
Y-24745D01*
X110099Y-24796D01*
Y-24833D01*
Y-24854D01*
Y-24862D01*
Y-24986D01*
X110113Y-25109D01*
X110128Y-25219D01*
X110142Y-25321D01*
X110164Y-25416D01*
X110193Y-25503D01*
X110222Y-25576D01*
X110244Y-25649D01*
X110274Y-25707D01*
X110303Y-25766D01*
X110325Y-25809D01*
X110354Y-25846D01*
X110368Y-25875D01*
X110383Y-25897D01*
X110398Y-25904D01*
Y-25911D01*
X110456Y-25970D01*
X110514Y-26028D01*
X110631Y-26116D01*
X110747Y-26174D01*
X110857Y-26218D01*
X110951Y-26239D01*
X111032Y-26254D01*
X111061Y-26261D01*
X111097D01*
X111192Y-26254D01*
X111272Y-26239D01*
X111360Y-26218D01*
X111433Y-26188D01*
X111571Y-26108D01*
X111680Y-26021D01*
X111775Y-25941D01*
X111841Y-25860D01*
X111863Y-25831D01*
X111877Y-25809D01*
X111892Y-25795D01*
Y-25787D01*
X111921Y-25729D01*
X111950Y-25664D01*
X111994Y-25518D01*
X112023Y-25357D01*
X112045Y-25204D01*
X112060Y-25066D01*
Y-25000D01*
X112067Y-24949D01*
Y-24905D01*
Y-24869D01*
Y-24847D01*
Y-24840D01*
Y-24716D01*
X112052Y-24607D01*
X112038Y-24497D01*
X112023Y-24395D01*
X112001Y-24308D01*
X111972Y-24220D01*
X111950Y-24147D01*
X111921Y-24074D01*
X111892Y-24016D01*
X111870Y-23965D01*
X111841Y-23921D01*
X111819Y-23885D01*
X111804Y-23856D01*
X111790Y-23834D01*
X111775Y-23826D01*
Y-23819D01*
X111717Y-23754D01*
X111659Y-23703D01*
X111600Y-23652D01*
X111542Y-23615D01*
X111425Y-23550D01*
X111316Y-23506D01*
X111221Y-23484D01*
X111141Y-23469D01*
X111112Y-23462D01*
D02*
G37*
G36*
X115107D02*
X115063D01*
X114976Y-23469D01*
X114895Y-23477D01*
X114750Y-23513D01*
X114618Y-23571D01*
X114509Y-23637D01*
X114422Y-23703D01*
X114356Y-23754D01*
X114312Y-23797D01*
X114298Y-23805D01*
Y-23812D01*
X114239Y-23877D01*
X114196Y-23958D01*
X114115Y-24118D01*
X114057Y-24293D01*
X114021Y-24453D01*
X113999Y-24607D01*
X113991Y-24672D01*
Y-24730D01*
X113984Y-24774D01*
Y-24811D01*
Y-24833D01*
Y-24840D01*
Y-24971D01*
X113999Y-25095D01*
X114013Y-25204D01*
X114035Y-25314D01*
X114057Y-25408D01*
X114086Y-25496D01*
X114108Y-25576D01*
X114137Y-25649D01*
X114166Y-25707D01*
X114196Y-25766D01*
X114225Y-25809D01*
X114247Y-25846D01*
X114269Y-25875D01*
X114283Y-25897D01*
X114290Y-25904D01*
X114298Y-25911D01*
X114356Y-25970D01*
X114422Y-26028D01*
X114546Y-26116D01*
X114677Y-26174D01*
X114793Y-26218D01*
X114903Y-26239D01*
X114983Y-26254D01*
X115019Y-26261D01*
X115063D01*
X115151Y-26254D01*
X115231Y-26247D01*
X115384Y-26210D01*
X115515Y-26152D01*
X115624Y-26086D01*
X115712Y-26028D01*
X115778Y-25970D01*
X115821Y-25933D01*
X115829Y-25919D01*
X115836D01*
X115887Y-25846D01*
X115938Y-25773D01*
X116011Y-25605D01*
X116069Y-25430D01*
X116106Y-25255D01*
X116127Y-25102D01*
X116135Y-25037D01*
Y-24978D01*
X116142Y-24927D01*
Y-24891D01*
Y-24869D01*
Y-24862D01*
X116135Y-24738D01*
X116127Y-24614D01*
X116113Y-24505D01*
X116091Y-24402D01*
X116069Y-24308D01*
X116047Y-24220D01*
X116018Y-24147D01*
X115989Y-24074D01*
X115960Y-24016D01*
X115931Y-23958D01*
X115909Y-23914D01*
X115887Y-23877D01*
X115865Y-23848D01*
X115850Y-23826D01*
X115836Y-23819D01*
Y-23812D01*
X115778Y-23754D01*
X115712Y-23695D01*
X115588Y-23608D01*
X115457Y-23550D01*
X115333Y-23506D01*
X115224Y-23477D01*
X115143Y-23469D01*
X115107Y-23462D01*
D02*
G37*
G36*
X107263D02*
X107219D01*
X107132Y-23469D01*
X107051Y-23477D01*
X106906Y-23513D01*
X106774Y-23571D01*
X106665Y-23637D01*
X106578Y-23703D01*
X106512Y-23754D01*
X106468Y-23797D01*
X106454Y-23805D01*
Y-23812D01*
X106395Y-23877D01*
X106351Y-23958D01*
X106271Y-24118D01*
X106213Y-24293D01*
X106177Y-24453D01*
X106155Y-24607D01*
X106147Y-24672D01*
Y-24730D01*
X106140Y-24774D01*
Y-24811D01*
Y-24833D01*
Y-24840D01*
Y-24971D01*
X106155Y-25095D01*
X106169Y-25204D01*
X106191Y-25314D01*
X106213Y-25408D01*
X106242Y-25496D01*
X106264Y-25576D01*
X106293Y-25649D01*
X106322Y-25707D01*
X106351Y-25766D01*
X106381Y-25809D01*
X106403Y-25846D01*
X106424Y-25875D01*
X106439Y-25897D01*
X106446Y-25904D01*
X106454Y-25911D01*
X106512Y-25970D01*
X106578Y-26028D01*
X106702Y-26116D01*
X106833Y-26174D01*
X106949Y-26218D01*
X107059Y-26239D01*
X107139Y-26254D01*
X107175Y-26261D01*
X107219D01*
X107307Y-26254D01*
X107387Y-26247D01*
X107540Y-26210D01*
X107671Y-26152D01*
X107780Y-26086D01*
X107868Y-26028D01*
X107933Y-25970D01*
X107977Y-25933D01*
X107984Y-25919D01*
X107992D01*
X108043Y-25846D01*
X108094Y-25773D01*
X108167Y-25605D01*
X108225Y-25430D01*
X108262Y-25255D01*
X108283Y-25102D01*
X108291Y-25037D01*
Y-24978D01*
X108298Y-24927D01*
Y-24891D01*
Y-24869D01*
Y-24862D01*
X108291Y-24738D01*
X108283Y-24614D01*
X108269Y-24505D01*
X108247Y-24402D01*
X108225Y-24308D01*
X108203Y-24220D01*
X108174Y-24147D01*
X108145Y-24074D01*
X108116Y-24016D01*
X108087Y-23958D01*
X108065Y-23914D01*
X108043Y-23877D01*
X108021Y-23848D01*
X108006Y-23826D01*
X107992Y-23819D01*
Y-23812D01*
X107933Y-23754D01*
X107868Y-23695D01*
X107744Y-23608D01*
X107613Y-23550D01*
X107489Y-23506D01*
X107379Y-23477D01*
X107299Y-23469D01*
X107263Y-23462D01*
D02*
G37*
G36*
X112643Y-31154D02*
X112636D01*
X112643Y-31387D01*
X112650Y-31533D01*
X112657Y-31657D01*
X112672Y-31759D01*
X112694Y-31846D01*
X112716Y-31912D01*
X112730Y-31963D01*
X112738Y-31992D01*
X112745Y-31999D01*
X112803Y-32094D01*
X112862Y-32182D01*
X112934Y-32254D01*
X113000Y-32313D01*
X113058Y-32364D01*
X113109Y-32400D01*
X113138Y-32422D01*
X113153Y-32429D01*
X113262Y-32480D01*
X113372Y-32517D01*
X113474Y-32546D01*
X113576Y-32561D01*
X113656Y-32575D01*
X113729Y-32582D01*
X113787D01*
X113919Y-32575D01*
X114028Y-32561D01*
X114123Y-32531D01*
X114203Y-32502D01*
X114261Y-32473D01*
X114305Y-32444D01*
X114334Y-32429D01*
X114341Y-32422D01*
X114400Y-32357D01*
X114443Y-32284D01*
X114480Y-32218D01*
X114502Y-32152D01*
X114516Y-32094D01*
X114524Y-32050D01*
Y-32014D01*
Y-32006D01*
X114516Y-31948D01*
X114509Y-31890D01*
X114495Y-31846D01*
X114480Y-31802D01*
X114465Y-31766D01*
X114458Y-31737D01*
X114443Y-31722D01*
Y-31715D01*
X114371Y-31627D01*
X114283Y-31569D01*
X114254Y-31547D01*
X114225Y-31533D01*
X114203Y-31518D01*
X114196D01*
X114123Y-31489D01*
X114042Y-31467D01*
X113955Y-31445D01*
X113867Y-31431D01*
X113787Y-31416D01*
X113714Y-31402D01*
X113671Y-31394D01*
X113656D01*
X113532Y-31372D01*
X113416Y-31358D01*
X113313Y-31336D01*
X113211Y-31314D01*
X113117Y-31292D01*
X113037Y-31270D01*
X112956Y-31256D01*
X112891Y-31234D01*
X112832Y-31219D01*
X112781Y-31205D01*
X112738Y-31190D01*
X112701Y-31176D01*
X112672Y-31168D01*
X112650Y-31161D01*
X112643Y-31154D01*
D02*
G37*
G36*
X97363D02*
X97356D01*
X97363Y-31387D01*
X97370Y-31533D01*
X97378Y-31657D01*
X97392Y-31759D01*
X97414Y-31846D01*
X97436Y-31912D01*
X97451Y-31963D01*
X97458Y-31992D01*
X97465Y-31999D01*
X97523Y-32094D01*
X97582Y-32182D01*
X97655Y-32254D01*
X97720Y-32313D01*
X97778Y-32364D01*
X97830Y-32400D01*
X97859Y-32422D01*
X97873Y-32429D01*
X97983Y-32480D01*
X98092Y-32517D01*
X98194Y-32546D01*
X98296Y-32561D01*
X98376Y-32575D01*
X98449Y-32582D01*
X98507D01*
X98639Y-32575D01*
X98748Y-32561D01*
X98843Y-32531D01*
X98923Y-32502D01*
X98981Y-32473D01*
X99025Y-32444D01*
X99054Y-32429D01*
X99062Y-32422D01*
X99120Y-32357D01*
X99164Y-32284D01*
X99200Y-32218D01*
X99222Y-32152D01*
X99237Y-32094D01*
X99244Y-32050D01*
Y-32014D01*
Y-32006D01*
X99237Y-31948D01*
X99229Y-31890D01*
X99215Y-31846D01*
X99200Y-31802D01*
X99186Y-31766D01*
X99178Y-31737D01*
X99164Y-31722D01*
Y-31715D01*
X99091Y-31627D01*
X99003Y-31569D01*
X98974Y-31547D01*
X98945Y-31533D01*
X98923Y-31518D01*
X98916D01*
X98843Y-31489D01*
X98763Y-31467D01*
X98675Y-31445D01*
X98588Y-31431D01*
X98507Y-31416D01*
X98435Y-31402D01*
X98391Y-31394D01*
X98376D01*
X98252Y-31372D01*
X98136Y-31358D01*
X98034Y-31336D01*
X97932Y-31314D01*
X97837Y-31292D01*
X97757Y-31270D01*
X97676Y-31256D01*
X97611Y-31234D01*
X97553Y-31219D01*
X97501Y-31205D01*
X97458Y-31190D01*
X97421Y-31176D01*
X97392Y-31168D01*
X97370Y-31161D01*
X97363Y-31154D01*
D02*
G37*
G36*
X91968Y-29761D02*
X91925D01*
X91837Y-29768D01*
X91757Y-29776D01*
X91604Y-29820D01*
X91473Y-29878D01*
X91363Y-29943D01*
X91276Y-30009D01*
X91210Y-30067D01*
X91174Y-30111D01*
X91159Y-30118D01*
Y-30126D01*
X91094Y-30220D01*
X91035Y-30330D01*
X90999Y-30439D01*
X90962Y-30556D01*
X90940Y-30651D01*
X90926Y-30738D01*
Y-30767D01*
X90919Y-30789D01*
Y-30804D01*
Y-30811D01*
X92967D01*
X92945Y-30643D01*
X92901Y-30490D01*
X92851Y-30359D01*
X92792Y-30257D01*
X92741Y-30169D01*
X92690Y-30104D01*
X92661Y-30067D01*
X92646Y-30053D01*
X92530Y-29958D01*
X92413Y-29885D01*
X92289Y-29834D01*
X92172Y-29798D01*
X92078Y-29776D01*
X91997Y-29768D01*
X91968Y-29761D01*
D02*
G37*
G36*
X107372D02*
X107336D01*
X107255Y-29768D01*
X107183Y-29776D01*
X107044Y-29820D01*
X106920Y-29871D01*
X106818Y-29936D01*
X106738Y-30002D01*
X106672Y-30060D01*
X106636Y-30104D01*
X106621Y-30111D01*
Y-30118D01*
X106570Y-30191D01*
X106527Y-30264D01*
X106454Y-30439D01*
X106403Y-30621D01*
X106366Y-30796D01*
X106351Y-30884D01*
X106344Y-30964D01*
X106337Y-31037D01*
Y-31095D01*
X106330Y-31146D01*
Y-31183D01*
Y-31212D01*
Y-31219D01*
Y-31343D01*
X106344Y-31460D01*
X106359Y-31562D01*
X106373Y-31664D01*
X106395Y-31751D01*
X106424Y-31839D01*
X106446Y-31912D01*
X106475Y-31977D01*
X106505Y-32036D01*
X106527Y-32094D01*
X106556Y-32131D01*
X106578Y-32167D01*
X106592Y-32196D01*
X106607Y-32218D01*
X106621Y-32225D01*
Y-32232D01*
X106672Y-32291D01*
X106731Y-32342D01*
X106847Y-32422D01*
X106964Y-32480D01*
X107073Y-32517D01*
X107168Y-32546D01*
X107248Y-32553D01*
X107277Y-32561D01*
X107314D01*
X107387Y-32553D01*
X107460Y-32546D01*
X107591Y-32509D01*
X107715Y-32451D01*
X107817Y-32386D01*
X107897Y-32327D01*
X107963Y-32269D01*
X107999Y-32232D01*
X108006Y-32218D01*
X108014D01*
X108065Y-32145D01*
X108108Y-32072D01*
X108181Y-31905D01*
X108232Y-31730D01*
X108269Y-31562D01*
X108291Y-31409D01*
X108298Y-31343D01*
Y-31285D01*
X108305Y-31234D01*
Y-31197D01*
Y-31176D01*
Y-31168D01*
Y-31037D01*
X108291Y-30913D01*
X108276Y-30796D01*
X108262Y-30694D01*
X108240Y-30600D01*
X108218Y-30512D01*
X108196Y-30432D01*
X108167Y-30359D01*
X108138Y-30301D01*
X108116Y-30250D01*
X108094Y-30206D01*
X108072Y-30169D01*
X108050Y-30140D01*
X108043Y-30118D01*
X108028Y-30111D01*
Y-30104D01*
X107977Y-30046D01*
X107919Y-29987D01*
X107802Y-29907D01*
X107686Y-29841D01*
X107576Y-29805D01*
X107482Y-29776D01*
X107401Y-29768D01*
X107372Y-29761D01*
D02*
G37*
G36*
X113685Y-36060D02*
X113642D01*
X113554Y-36068D01*
X113474Y-36075D01*
X113328Y-36112D01*
X113197Y-36170D01*
X113087Y-36235D01*
X113000Y-36301D01*
X112934Y-36352D01*
X112891Y-36396D01*
X112876Y-36403D01*
Y-36410D01*
X112818Y-36476D01*
X112774Y-36556D01*
X112694Y-36716D01*
X112636Y-36891D01*
X112599Y-37052D01*
X112577Y-37205D01*
X112570Y-37271D01*
Y-37329D01*
X112563Y-37373D01*
Y-37409D01*
Y-37431D01*
Y-37438D01*
Y-37569D01*
X112577Y-37693D01*
X112592Y-37803D01*
X112614Y-37912D01*
X112636Y-38007D01*
X112665Y-38094D01*
X112687Y-38175D01*
X112716Y-38247D01*
X112745Y-38306D01*
X112774Y-38364D01*
X112803Y-38408D01*
X112825Y-38444D01*
X112847Y-38473D01*
X112862Y-38495D01*
X112869Y-38503D01*
X112876Y-38510D01*
X112934Y-38568D01*
X113000Y-38627D01*
X113124Y-38714D01*
X113255Y-38772D01*
X113372Y-38816D01*
X113481Y-38838D01*
X113561Y-38853D01*
X113598Y-38860D01*
X113642D01*
X113729Y-38853D01*
X113809Y-38845D01*
X113962Y-38809D01*
X114093Y-38750D01*
X114203Y-38685D01*
X114290Y-38627D01*
X114356Y-38568D01*
X114400Y-38532D01*
X114407Y-38517D01*
X114414D01*
X114465Y-38444D01*
X114516Y-38371D01*
X114589Y-38204D01*
X114648Y-38029D01*
X114684Y-37854D01*
X114706Y-37701D01*
X114713Y-37635D01*
Y-37577D01*
X114720Y-37526D01*
Y-37489D01*
Y-37467D01*
Y-37460D01*
X114713Y-37336D01*
X114706Y-37212D01*
X114691Y-37103D01*
X114669Y-37001D01*
X114648Y-36906D01*
X114626Y-36819D01*
X114596Y-36746D01*
X114567Y-36673D01*
X114538Y-36615D01*
X114509Y-36556D01*
X114487Y-36512D01*
X114465Y-36476D01*
X114443Y-36447D01*
X114429Y-36425D01*
X114414Y-36418D01*
Y-36410D01*
X114356Y-36352D01*
X114290Y-36294D01*
X114166Y-36206D01*
X114035Y-36148D01*
X113911Y-36104D01*
X113802Y-36075D01*
X113722Y-36068D01*
X113685Y-36060D01*
D02*
G37*
G36*
X100745D02*
X100702D01*
X100614Y-36068D01*
X100534Y-36075D01*
X100388Y-36112D01*
X100257Y-36170D01*
X100148Y-36235D01*
X100060Y-36301D01*
X99995Y-36352D01*
X99951Y-36396D01*
X99936Y-36403D01*
Y-36410D01*
X99878Y-36476D01*
X99834Y-36556D01*
X99754Y-36716D01*
X99696Y-36891D01*
X99659Y-37052D01*
X99638Y-37205D01*
X99630Y-37271D01*
Y-37329D01*
X99623Y-37373D01*
Y-37409D01*
Y-37431D01*
Y-37438D01*
Y-37569D01*
X99638Y-37693D01*
X99652Y-37803D01*
X99674Y-37912D01*
X99696Y-38007D01*
X99725Y-38094D01*
X99747Y-38175D01*
X99776Y-38247D01*
X99805Y-38306D01*
X99834Y-38364D01*
X99863Y-38408D01*
X99885Y-38444D01*
X99907Y-38473D01*
X99922Y-38495D01*
X99929Y-38503D01*
X99936Y-38510D01*
X99995Y-38568D01*
X100060Y-38627D01*
X100184Y-38714D01*
X100315Y-38772D01*
X100432Y-38816D01*
X100541Y-38838D01*
X100622Y-38853D01*
X100658Y-38860D01*
X100702D01*
X100789Y-38853D01*
X100870Y-38845D01*
X101023Y-38809D01*
X101154Y-38750D01*
X101263Y-38685D01*
X101351Y-38627D01*
X101416Y-38568D01*
X101460Y-38532D01*
X101467Y-38517D01*
X101474D01*
X101526Y-38444D01*
X101577Y-38371D01*
X101649Y-38204D01*
X101708Y-38029D01*
X101744Y-37854D01*
X101766Y-37701D01*
X101773Y-37635D01*
Y-37577D01*
X101781Y-37526D01*
Y-37489D01*
Y-37467D01*
Y-37460D01*
X101773Y-37336D01*
X101766Y-37212D01*
X101751Y-37103D01*
X101730Y-37001D01*
X101708Y-36906D01*
X101686Y-36819D01*
X101657Y-36746D01*
X101628Y-36673D01*
X101599Y-36615D01*
X101569Y-36556D01*
X101547Y-36512D01*
X101526Y-36476D01*
X101504Y-36447D01*
X101489Y-36425D01*
X101474Y-36418D01*
Y-36410D01*
X101416Y-36352D01*
X101351Y-36294D01*
X101227Y-36206D01*
X101095Y-36148D01*
X100971Y-36104D01*
X100862Y-36075D01*
X100782Y-36068D01*
X100745Y-36060D01*
D02*
G37*
%LPD*%
D114*
X118032Y-213386D02*
D03*
X108031D02*
D03*
X98032D02*
D03*
X234921Y-18012D02*
D03*
X224921D02*
D03*
X214921D02*
D03*
X204921D02*
D03*
X163681D02*
D03*
X173681D02*
D03*
X183681D02*
D03*
X193681D02*
D03*
D115*
X244921D02*
D03*
X153681D02*
D03*
D116*
X344980Y-79134D02*
D03*
Y-65354D02*
D03*
Y-106693D02*
D03*
X354823D02*
D03*
X344980Y-120472D02*
D03*
X354823D02*
D03*
X344980Y-134252D02*
D03*
X354823D02*
D03*
Y-92913D02*
D03*
X344980D02*
D03*
X354823Y-79134D02*
D03*
Y-65354D02*
D03*
X29528Y-42323D02*
D03*
X19685D02*
D03*
Y-111221D02*
D03*
X29528D02*
D03*
Y-97441D02*
D03*
X19685Y-97441D02*
D03*
Y-56102D02*
D03*
X29528D02*
D03*
X19685Y-69882D02*
D03*
X29528D02*
D03*
X19685Y-83661D02*
D03*
X29528D02*
D03*
Y-152559D02*
D03*
X19685D02*
D03*
X29528Y-138779D02*
D03*
X19685D02*
D03*
X29528Y-125000D02*
D03*
X19685D02*
D03*
Y-166339D02*
D03*
X29528D02*
D03*
Y-180118D02*
D03*
Y-193898D02*
D03*
X19685Y-180118D02*
D03*
Y-193898D02*
D03*
D117*
X335138Y-16909D02*
D03*
Y-28169D02*
D03*
X354035Y-16909D02*
D03*
Y-28169D02*
D03*
D118*
X356004Y-21004D02*
D03*
X354232Y-24075D02*
D03*
X352461Y-21004D02*
D03*
X350689Y-24075D02*
D03*
X348917Y-21004D02*
D03*
X347146Y-24075D02*
D03*
X345374Y-21004D02*
D03*
X343602Y-24075D02*
D03*
X341831Y-21004D02*
D03*
X340059Y-24075D02*
D03*
X338287Y-21004D02*
D03*
X336516Y-24075D02*
D03*
X334744Y-21004D02*
D03*
X332972Y-24075D02*
D03*
D119*
X318642Y-205887D02*
D03*
X308642Y-200887D02*
D03*
X318642Y-195887D02*
D03*
X308642Y-190887D02*
D03*
X318642Y-185887D02*
D03*
X308642Y-180887D02*
D03*
X318642Y-175887D02*
D03*
X308642Y-170887D02*
D03*
D120*
X353642Y-161911D02*
D03*
X361634D02*
D03*
X353642Y-214863D02*
D03*
X361634D02*
D03*
D121*
X331634Y-157383D02*
D03*
Y-219391D02*
D03*
M02*
