G04*
G04 #@! TF.GenerationSoftware,Altium Limited,Altium Designer,22.10.1 (41)*
G04*
G04 Layer_Physical_Order=4*
G04 Layer_Color=16711680*
%FSLAX25Y25*%
%MOIN*%
G70*
G04*
G04 #@! TF.SameCoordinates,42878850-B326-4A15-914F-A90B80183A8D*
G04*
G04*
G04 #@! TF.FilePolarity,Positive*
G04*
G01*
G75*
%ADD13C,0.00787*%
%ADD15C,0.01000*%
%ADD122C,0.01280*%
%ADD123C,0.01100*%
%ADD131C,0.01278*%
%ADD133C,0.05906*%
%ADD134R,0.05906X0.05906*%
%ADD135C,0.07874*%
%ADD136O,0.07480X0.03543*%
%ADD137C,0.02362*%
%ADD138C,0.06000*%
%ADD139C,0.06693*%
%ADD140C,0.09055*%
%ADD141C,0.02756*%
G36*
X299494Y-17421D02*
X299366Y-17425D01*
X299241Y-17438D01*
X299120Y-17461D01*
X299002Y-17493D01*
X298887Y-17535D01*
X298777Y-17587D01*
X298670Y-17648D01*
X298566Y-17719D01*
X298466Y-17799D01*
X298369Y-17889D01*
X297662Y-17182D01*
X297752Y-17086D01*
X297832Y-16985D01*
X297903Y-16882D01*
X297965Y-16774D01*
X298016Y-16664D01*
X298058Y-16549D01*
X298091Y-16432D01*
X298113Y-16310D01*
X298127Y-16185D01*
X298130Y-16057D01*
X299494Y-17421D01*
D02*
G37*
G36*
X348642Y-19276D02*
X348664Y-19492D01*
X348684Y-19580D01*
X348709Y-19654D01*
X348739Y-19715D01*
X348775Y-19762D01*
X348816Y-19796D01*
X348863Y-19816D01*
X348916Y-19823D01*
X347751Y-20818D01*
X347539Y-19453D01*
X348639Y-19147D01*
X348642Y-19276D01*
D02*
G37*
G36*
X346752Y-19453D02*
X346540Y-20818D01*
X345376Y-19823D01*
X345428Y-19816D01*
X345475Y-19796D01*
X345516Y-19762D01*
X345552Y-19715D01*
X345583Y-19654D01*
X345608Y-19580D01*
X345627Y-19492D01*
X345641Y-19391D01*
X345649Y-19276D01*
X345652Y-19147D01*
X346752Y-19453D01*
D02*
G37*
G36*
X299494Y-21191D02*
X299366Y-21194D01*
X299241Y-21207D01*
X299120Y-21230D01*
X299002Y-21262D01*
X298887Y-21304D01*
X298777Y-21356D01*
X298670Y-21417D01*
X298566Y-21488D01*
X298465Y-21569D01*
X298369Y-21659D01*
X297662Y-20952D01*
X297752Y-20855D01*
X297832Y-20755D01*
X297903Y-20651D01*
X297965Y-20544D01*
X298016Y-20433D01*
X298058Y-20319D01*
X298091Y-20201D01*
X298113Y-20080D01*
X298127Y-19955D01*
X298130Y-19827D01*
X299494Y-21191D01*
D02*
G37*
G36*
X227877Y-18465D02*
X227929Y-19226D01*
X227977Y-19563D01*
X228041Y-19870D01*
X228119Y-20148D01*
X228213Y-20397D01*
X228322Y-20617D01*
X228446Y-20808D01*
X228585Y-20969D01*
X227878Y-21676D01*
X227717Y-21537D01*
X227526Y-21413D01*
X227307Y-21304D01*
X227058Y-21210D01*
X226780Y-21131D01*
X226472Y-21068D01*
X226136Y-21019D01*
X225375Y-20968D01*
X224951Y-20964D01*
X227874Y-18041D01*
X227877Y-18465D01*
D02*
G37*
G36*
X217867Y-18527D02*
X217904Y-19281D01*
X217947Y-19616D01*
X218006Y-19922D01*
X218082Y-20199D01*
X218173Y-20448D01*
X218282Y-20668D01*
X218406Y-20859D01*
X218547Y-21022D01*
X217824Y-21714D01*
X217664Y-21576D01*
X217475Y-21452D01*
X217256Y-21343D01*
X217007Y-21247D01*
X216728Y-21165D01*
X216419Y-21097D01*
X216080Y-21043D01*
X215314Y-20977D01*
X214885Y-20964D01*
X217873Y-18107D01*
X217867Y-18527D01*
D02*
G37*
G36*
X185450Y-20423D02*
X184949Y-20997D01*
X184745Y-21269D01*
X184573Y-21532D01*
X184432Y-21784D01*
X184322Y-22026D01*
X184244Y-22259D01*
X184197Y-22481D01*
X184181Y-22694D01*
X183181D01*
X183165Y-22481D01*
X183118Y-22259D01*
X183040Y-22026D01*
X182930Y-21784D01*
X182789Y-21532D01*
X182617Y-21269D01*
X182413Y-20997D01*
X181912Y-20423D01*
X181614Y-20121D01*
X185748D01*
X185450Y-20423D01*
D02*
G37*
G36*
X200290Y-29045D02*
X200387Y-29124D01*
X200489Y-29194D01*
X200595Y-29254D01*
X200706Y-29305D01*
X200821Y-29347D01*
X200940Y-29379D01*
X201063Y-29403D01*
X201191Y-29417D01*
X201323Y-29421D01*
Y-30421D01*
X201191Y-30426D01*
X201063Y-30440D01*
X200940Y-30463D01*
X200821Y-30496D01*
X200706Y-30537D01*
X200595Y-30588D01*
X200489Y-30649D01*
X200387Y-30719D01*
X200290Y-30798D01*
X200197Y-30886D01*
Y-28957D01*
X200290Y-29045D01*
D02*
G37*
G36*
X215837Y-34936D02*
X215758Y-35033D01*
X215688Y-35135D01*
X215628Y-35241D01*
X215577Y-35352D01*
X215535Y-35467D01*
X215502Y-35586D01*
X215479Y-35709D01*
X215465Y-35837D01*
X215461Y-35969D01*
X214461D01*
X214456Y-35837D01*
X214442Y-35709D01*
X214419Y-35586D01*
X214386Y-35467D01*
X214345Y-35352D01*
X214293Y-35241D01*
X214233Y-35135D01*
X214163Y-35033D01*
X214084Y-34936D01*
X213996Y-34842D01*
X215925D01*
X215837Y-34936D01*
D02*
G37*
G36*
X249207Y-34852D02*
X249305Y-34931D01*
X249407Y-35001D01*
X249513Y-35061D01*
X249623Y-35112D01*
X249738Y-35154D01*
X249857Y-35186D01*
X249981Y-35210D01*
X250109Y-35224D01*
X250241Y-35228D01*
Y-36228D01*
X250109Y-36233D01*
X249981Y-36247D01*
X249857Y-36270D01*
X249738Y-36303D01*
X249623Y-36345D01*
X249513Y-36396D01*
X249407Y-36456D01*
X249305Y-36526D01*
X249207Y-36605D01*
X249114Y-36693D01*
Y-34764D01*
X249207Y-34852D01*
D02*
G37*
G36*
X218987Y-42810D02*
X218908Y-42907D01*
X218838Y-43009D01*
X218777Y-43115D01*
X218726Y-43226D01*
X218685Y-43341D01*
X218652Y-43460D01*
X218629Y-43583D01*
X218615Y-43711D01*
X218610Y-43843D01*
X217610D01*
X217606Y-43711D01*
X217592Y-43583D01*
X217568Y-43460D01*
X217536Y-43341D01*
X217494Y-43226D01*
X217443Y-43115D01*
X217383Y-43009D01*
X217313Y-42907D01*
X217234Y-42810D01*
X217146Y-42716D01*
X219075D01*
X218987Y-42810D01*
D02*
G37*
G36*
X91539Y-43055D02*
X91552Y-43180D01*
X91575Y-43302D01*
X91607Y-43420D01*
X91649Y-43534D01*
X91701Y-43644D01*
X91762Y-43752D01*
X91833Y-43856D01*
X91913Y-43956D01*
X92004Y-44052D01*
X91296Y-44760D01*
X91200Y-44669D01*
X91100Y-44589D01*
X90996Y-44518D01*
X90889Y-44457D01*
X90778Y-44405D01*
X90663Y-44363D01*
X90546Y-44331D01*
X90424Y-44308D01*
X90300Y-44295D01*
X90171Y-44291D01*
X91535Y-42927D01*
X91539Y-43055D01*
D02*
G37*
G36*
X269838Y-43080D02*
X269935Y-43159D01*
X270037Y-43229D01*
X270144Y-43289D01*
X270254Y-43341D01*
X270369Y-43382D01*
X270488Y-43415D01*
X270612Y-43438D01*
X270739Y-43452D01*
X270871Y-43457D01*
Y-44457D01*
X270739Y-44461D01*
X270612Y-44475D01*
X270488Y-44499D01*
X270369Y-44531D01*
X270254Y-44573D01*
X270144Y-44624D01*
X270037Y-44684D01*
X269935Y-44754D01*
X269838Y-44833D01*
X269745Y-44921D01*
Y-42992D01*
X269838Y-43080D01*
D02*
G37*
G36*
X96657Y-43843D02*
X96670Y-43968D01*
X96693Y-44089D01*
X96725Y-44207D01*
X96767Y-44321D01*
X96819Y-44432D01*
X96880Y-44539D01*
X96951Y-44643D01*
X97032Y-44743D01*
X97122Y-44840D01*
X96415Y-45547D01*
X96318Y-45457D01*
X96218Y-45376D01*
X96114Y-45305D01*
X96007Y-45244D01*
X95896Y-45193D01*
X95782Y-45151D01*
X95664Y-45118D01*
X95543Y-45095D01*
X95418Y-45082D01*
X95289Y-45079D01*
X96653Y-43715D01*
X96657Y-43843D01*
D02*
G37*
G36*
X309675Y-45454D02*
X309588Y-45473D01*
X309499Y-45500D01*
X309408Y-45537D01*
X309315Y-45584D01*
X309221Y-45638D01*
X309124Y-45703D01*
X309026Y-45776D01*
X308824Y-45949D01*
X308720Y-46049D01*
X307786Y-45427D01*
X307876Y-45331D01*
X307954Y-45236D01*
X308020Y-45141D01*
X308073Y-45047D01*
X308114Y-44954D01*
X308142Y-44862D01*
X308158Y-44771D01*
X308162Y-44680D01*
X308153Y-44590D01*
X308132Y-44501D01*
X309675Y-45454D01*
D02*
G37*
G36*
X329078Y-50230D02*
X328984Y-50329D01*
X328899Y-50429D01*
X328823Y-50532D01*
X328756Y-50636D01*
X328698Y-50742D01*
X328648Y-50850D01*
X328608Y-50959D01*
X328576Y-51070D01*
X328553Y-51183D01*
X328538Y-51297D01*
X327309Y-49811D01*
X327423Y-49817D01*
X327535Y-49812D01*
X327646Y-49796D01*
X327755Y-49769D01*
X327863Y-49731D01*
X327970Y-49681D01*
X328075Y-49621D01*
X328178Y-49549D01*
X328280Y-49466D01*
X328381Y-49371D01*
X329078Y-50230D01*
D02*
G37*
G36*
X334050Y-49408D02*
X334152Y-49492D01*
X334255Y-49566D01*
X334360Y-49630D01*
X334467Y-49684D01*
X334575Y-49728D01*
X334685Y-49762D01*
X334797Y-49786D01*
X334910Y-49799D01*
X335026Y-49803D01*
X333662Y-51167D01*
X333658Y-51052D01*
X333644Y-50939D01*
X333620Y-50827D01*
X333586Y-50717D01*
X333542Y-50608D01*
X333488Y-50502D01*
X333424Y-50397D01*
X333350Y-50293D01*
X333266Y-50192D01*
X333172Y-50092D01*
X333950Y-49314D01*
X334050Y-49408D01*
D02*
G37*
G36*
X167917Y-51323D02*
X167930Y-51448D01*
X167953Y-51569D01*
X167985Y-51687D01*
X168027Y-51801D01*
X168079Y-51912D01*
X168140Y-52019D01*
X168211Y-52123D01*
X168291Y-52223D01*
X168382Y-52320D01*
X167675Y-53027D01*
X167578Y-52937D01*
X167478Y-52857D01*
X167374Y-52786D01*
X167266Y-52724D01*
X167156Y-52673D01*
X167042Y-52631D01*
X166924Y-52598D01*
X166802Y-52576D01*
X166678Y-52562D01*
X166549Y-52559D01*
X167913Y-51195D01*
X167917Y-51323D01*
D02*
G37*
G36*
X157338Y-53316D02*
X157210Y-53320D01*
X157085Y-53333D01*
X156963Y-53356D01*
X156846Y-53388D01*
X156731Y-53430D01*
X156621Y-53482D01*
X156513Y-53543D01*
X156410Y-53614D01*
X156309Y-53694D01*
X156213Y-53784D01*
X155506Y-53077D01*
X155596Y-52981D01*
X155676Y-52880D01*
X155747Y-52777D01*
X155808Y-52669D01*
X155860Y-52559D01*
X155902Y-52444D01*
X155934Y-52327D01*
X155957Y-52205D01*
X155970Y-52080D01*
X155974Y-51952D01*
X157338Y-53316D01*
D02*
G37*
G36*
X211162Y-54150D02*
X211263Y-54230D01*
X211366Y-54301D01*
X211474Y-54362D01*
X211584Y-54414D01*
X211699Y-54456D01*
X211817Y-54488D01*
X211938Y-54511D01*
X212063Y-54524D01*
X212191Y-54528D01*
X210827Y-55892D01*
X210823Y-55763D01*
X210810Y-55639D01*
X210787Y-55517D01*
X210755Y-55400D01*
X210713Y-55285D01*
X210661Y-55174D01*
X210600Y-55067D01*
X210529Y-54963D01*
X210449Y-54863D01*
X210359Y-54766D01*
X211066Y-54059D01*
X211162Y-54150D01*
D02*
G37*
G36*
X158262Y-55128D02*
X158360Y-55207D01*
X158462Y-55276D01*
X158568Y-55337D01*
X158678Y-55388D01*
X158793Y-55430D01*
X158913Y-55462D01*
X159036Y-55485D01*
X159164Y-55499D01*
X159296Y-55504D01*
Y-56504D01*
X159164Y-56509D01*
X159036Y-56523D01*
X158913Y-56546D01*
X158793Y-56578D01*
X158678Y-56620D01*
X158568Y-56671D01*
X158462Y-56732D01*
X158360Y-56801D01*
X158262Y-56880D01*
X158169Y-56968D01*
Y-55039D01*
X158262Y-55128D01*
D02*
G37*
G36*
X240281Y-56782D02*
X240385Y-56870D01*
X240487Y-56946D01*
X240588Y-57011D01*
X240688Y-57063D01*
X240787Y-57104D01*
X240884Y-57134D01*
X240981Y-57152D01*
X241076Y-57158D01*
X241171Y-57152D01*
X239957Y-58496D01*
X239954Y-58402D01*
X239939Y-58307D01*
X239914Y-58210D01*
X239879Y-58113D01*
X239833Y-58014D01*
X239776Y-57914D01*
X239708Y-57814D01*
X239630Y-57711D01*
X239541Y-57608D01*
X239442Y-57504D01*
X240177Y-56683D01*
X240281Y-56782D01*
D02*
G37*
G36*
X265900Y-58136D02*
X265906Y-58226D01*
X265924Y-58318D01*
X265954Y-58412D01*
X265996Y-58508D01*
X266050Y-58606D01*
X266115Y-58706D01*
X266193Y-58808D01*
X266281Y-58912D01*
X266382Y-59017D01*
X265571Y-59762D01*
X265465Y-59661D01*
X265260Y-59492D01*
X265160Y-59425D01*
X265063Y-59368D01*
X264967Y-59322D01*
X264873Y-59288D01*
X264781Y-59264D01*
X264691Y-59252D01*
X264603Y-59250D01*
X265905Y-58047D01*
X265900Y-58136D01*
D02*
G37*
G36*
X262342Y-58210D02*
X262341Y-58320D01*
X262352Y-58430D01*
X262375Y-58538D01*
X262410Y-58645D01*
X262457Y-58751D01*
X262516Y-58856D01*
X262587Y-58959D01*
X262669Y-59061D01*
X262764Y-59162D01*
X261855Y-59809D01*
X261756Y-59715D01*
X261656Y-59629D01*
X261554Y-59552D01*
X261451Y-59483D01*
X261346Y-59421D01*
X261239Y-59368D01*
X261131Y-59324D01*
X261022Y-59287D01*
X260911Y-59258D01*
X260798Y-59238D01*
X262354Y-58097D01*
X262342Y-58210D01*
D02*
G37*
G36*
X148125Y-58193D02*
X148222Y-58272D01*
X148324Y-58341D01*
X148430Y-58402D01*
X148541Y-58453D01*
X148655Y-58495D01*
X148775Y-58527D01*
X148898Y-58551D01*
X149026Y-58564D01*
X149158Y-58569D01*
Y-59569D01*
X149026Y-59574D01*
X148898Y-59588D01*
X148775Y-59611D01*
X148655Y-59643D01*
X148541Y-59685D01*
X148430Y-59736D01*
X148324Y-59797D01*
X148222Y-59866D01*
X148125Y-59945D01*
X148031Y-60034D01*
Y-58104D01*
X148125Y-58193D01*
D02*
G37*
G36*
X93310Y-62150D02*
X93324Y-62275D01*
X93346Y-62396D01*
X93379Y-62514D01*
X93421Y-62628D01*
X93472Y-62739D01*
X93534Y-62846D01*
X93605Y-62950D01*
X93685Y-63050D01*
X93775Y-63147D01*
X93068Y-63854D01*
X92971Y-63764D01*
X92871Y-63683D01*
X92768Y-63613D01*
X92660Y-63551D01*
X92550Y-63500D01*
X92435Y-63458D01*
X92317Y-63425D01*
X92196Y-63402D01*
X92071Y-63389D01*
X91943Y-63386D01*
X93307Y-62022D01*
X93310Y-62150D01*
D02*
G37*
G36*
X309829Y-64075D02*
X309700Y-64078D01*
X309576Y-64091D01*
X309454Y-64114D01*
X309336Y-64147D01*
X309222Y-64188D01*
X309111Y-64240D01*
X309004Y-64301D01*
X308900Y-64372D01*
X308800Y-64453D01*
X308703Y-64543D01*
X307996Y-63836D01*
X308086Y-63739D01*
X308167Y-63639D01*
X308238Y-63535D01*
X308299Y-63428D01*
X308351Y-63317D01*
X308393Y-63203D01*
X308425Y-63085D01*
X308448Y-62964D01*
X308461Y-62839D01*
X308465Y-62711D01*
X309829Y-64075D01*
D02*
G37*
G36*
X268484Y-63412D02*
X268572Y-63497D01*
X268666Y-63572D01*
X268765Y-63637D01*
X268870Y-63692D01*
X268981Y-63737D01*
X269097Y-63772D01*
X269219Y-63797D01*
X269347Y-63812D01*
X269481Y-63817D01*
X269368Y-64817D01*
X269237Y-64821D01*
X269110Y-64834D01*
X268985Y-64855D01*
X268864Y-64884D01*
X268745Y-64922D01*
X268630Y-64968D01*
X268518Y-65022D01*
X268409Y-65085D01*
X268303Y-65156D01*
X268201Y-65235D01*
X268402Y-63317D01*
X268484Y-63412D01*
D02*
G37*
G36*
X152165Y-67106D02*
X152072Y-67018D01*
X151975Y-66939D01*
X151873Y-66869D01*
X151767Y-66809D01*
X151656Y-66758D01*
X151541Y-66716D01*
X151422Y-66684D01*
X151299Y-66660D01*
X151171Y-66646D01*
X151039Y-66642D01*
Y-65642D01*
X151171Y-65637D01*
X151299Y-65623D01*
X151422Y-65600D01*
X151541Y-65567D01*
X151656Y-65526D01*
X151767Y-65474D01*
X151873Y-65414D01*
X151975Y-65344D01*
X152072Y-65265D01*
X152165Y-65177D01*
Y-67106D01*
D02*
G37*
G36*
X256496Y-67894D02*
X256403Y-67805D01*
X256306Y-67726D01*
X256204Y-67657D01*
X256097Y-67596D01*
X255987Y-67545D01*
X255872Y-67503D01*
X255753Y-67471D01*
X255629Y-67448D01*
X255502Y-67434D01*
X255369Y-67429D01*
Y-66429D01*
X255502Y-66425D01*
X255629Y-66411D01*
X255753Y-66387D01*
X255872Y-66355D01*
X255987Y-66313D01*
X256097Y-66262D01*
X256204Y-66202D01*
X256306Y-66132D01*
X256403Y-66053D01*
X256496Y-65965D01*
Y-67894D01*
D02*
G37*
G36*
X147047Y-69862D02*
X146954Y-69774D01*
X146857Y-69695D01*
X146755Y-69625D01*
X146649Y-69565D01*
X146538Y-69514D01*
X146423Y-69472D01*
X146304Y-69439D01*
X146181Y-69416D01*
X146053Y-69402D01*
X145921Y-69398D01*
Y-68398D01*
X146053Y-68393D01*
X146181Y-68379D01*
X146304Y-68356D01*
X146423Y-68323D01*
X146538Y-68282D01*
X146649Y-68230D01*
X146755Y-68170D01*
X146857Y-68100D01*
X146954Y-68021D01*
X147047Y-67933D01*
Y-69862D01*
D02*
G37*
G36*
X266649Y-69772D02*
X266520Y-69776D01*
X266395Y-69789D01*
X266274Y-69812D01*
X266156Y-69844D01*
X266042Y-69886D01*
X265931Y-69938D01*
X265824Y-69999D01*
X265720Y-70070D01*
X265620Y-70151D01*
X265523Y-70241D01*
X264816Y-69533D01*
X264906Y-69437D01*
X264987Y-69337D01*
X265058Y-69233D01*
X265119Y-69126D01*
X265171Y-69015D01*
X265213Y-68901D01*
X265245Y-68783D01*
X265268Y-68661D01*
X265281Y-68537D01*
X265284Y-68408D01*
X266649Y-69772D01*
D02*
G37*
G36*
X276514Y-70717D02*
X276495Y-70758D01*
X276479Y-70813D01*
X276465Y-70883D01*
X276453Y-70966D01*
X276436Y-71176D01*
X276427Y-71596D01*
X275427D01*
X275425Y-71495D01*
X275409Y-71322D01*
X275396Y-71250D01*
X275378Y-71187D01*
X275357Y-71134D01*
X275332Y-71090D01*
X275303Y-71056D01*
X275271Y-71031D01*
X275234Y-71016D01*
X276534Y-70689D01*
X276514Y-70717D01*
D02*
G37*
G36*
X214974Y-69837D02*
X215088Y-69934D01*
X215202Y-70020D01*
X215317Y-70094D01*
X215433Y-70157D01*
X215549Y-70208D01*
X215667Y-70248D01*
X215786Y-70276D01*
X215905Y-70293D01*
X216025Y-70299D01*
Y-71087D01*
X215905Y-71092D01*
X215786Y-71109D01*
X215667Y-71138D01*
X215549Y-71178D01*
X215433Y-71229D01*
X215317Y-71292D01*
X215202Y-71366D01*
X215088Y-71452D01*
X214974Y-71549D01*
X214862Y-71658D01*
Y-69728D01*
X214974Y-69837D01*
D02*
G37*
G36*
X152165Y-72618D02*
X152072Y-72530D01*
X151975Y-72451D01*
X151873Y-72381D01*
X151767Y-72321D01*
X151656Y-72270D01*
X151541Y-72228D01*
X151422Y-72195D01*
X151299Y-72172D01*
X151171Y-72158D01*
X151039Y-72154D01*
Y-71153D01*
X151171Y-71149D01*
X151299Y-71135D01*
X151422Y-71112D01*
X151541Y-71079D01*
X151656Y-71037D01*
X151767Y-70986D01*
X151873Y-70926D01*
X151975Y-70856D01*
X152072Y-70777D01*
X152165Y-70689D01*
Y-72618D01*
D02*
G37*
G36*
X163390Y-72448D02*
X163405Y-72541D01*
X163431Y-72636D01*
X163467Y-72732D01*
X163514Y-72829D01*
X163572Y-72928D01*
X163640Y-73028D01*
X163718Y-73130D01*
X163808Y-73233D01*
X163908Y-73338D01*
X163003Y-74243D01*
X162899Y-74142D01*
X162694Y-73974D01*
X162593Y-73906D01*
X162494Y-73849D01*
X162397Y-73802D01*
X162301Y-73765D01*
X162206Y-73740D01*
X162113Y-73725D01*
X162022Y-73720D01*
X163386Y-72356D01*
X163390Y-72448D01*
D02*
G37*
G36*
X253243Y-73238D02*
X253340Y-73317D01*
X253442Y-73387D01*
X253548Y-73447D01*
X253659Y-73498D01*
X253774Y-73540D01*
X253893Y-73572D01*
X254016Y-73596D01*
X254144Y-73610D01*
X254276Y-73614D01*
Y-74614D01*
X254144Y-74619D01*
X254016Y-74633D01*
X253893Y-74656D01*
X253774Y-74689D01*
X253659Y-74730D01*
X253548Y-74781D01*
X253442Y-74842D01*
X253340Y-74911D01*
X253243Y-74990D01*
X253149Y-75079D01*
Y-73150D01*
X253243Y-73238D01*
D02*
G37*
G36*
X146859Y-75134D02*
X146791Y-75034D01*
X146714Y-74944D01*
X146631Y-74865D01*
X146540Y-74796D01*
X146442Y-74738D01*
X146336Y-74691D01*
X146223Y-74654D01*
X146103Y-74627D01*
X145976Y-74612D01*
X145841Y-74606D01*
X146085Y-73606D01*
X146214Y-73603D01*
X146341Y-73592D01*
X146466Y-73574D01*
X146589Y-73550D01*
X146710Y-73518D01*
X146829Y-73479D01*
X146946Y-73433D01*
X147060Y-73379D01*
X147173Y-73319D01*
X147284Y-73252D01*
X146859Y-75134D01*
D02*
G37*
G36*
X215259Y-74481D02*
X215270Y-74630D01*
X215290Y-74771D01*
X215319Y-74905D01*
X215357Y-75031D01*
X215403Y-75150D01*
X215458Y-75261D01*
X215521Y-75365D01*
X215594Y-75462D01*
X215675Y-75551D01*
X215118Y-76108D01*
X215029Y-76027D01*
X214932Y-75954D01*
X214828Y-75891D01*
X214717Y-75836D01*
X214598Y-75790D01*
X214472Y-75752D01*
X214338Y-75723D01*
X214197Y-75703D01*
X214048Y-75692D01*
X213892Y-75689D01*
X215256Y-74325D01*
X215259Y-74481D01*
D02*
G37*
G36*
X283997Y-78953D02*
X284097Y-79033D01*
X284201Y-79104D01*
X284308Y-79165D01*
X284419Y-79217D01*
X284533Y-79259D01*
X284651Y-79291D01*
X284772Y-79314D01*
X284897Y-79327D01*
X285026Y-79331D01*
X283662Y-80695D01*
X283658Y-80567D01*
X283645Y-80442D01*
X283622Y-80320D01*
X283590Y-80203D01*
X283548Y-80088D01*
X283496Y-79978D01*
X283435Y-79870D01*
X283364Y-79767D01*
X283283Y-79666D01*
X283193Y-79570D01*
X283900Y-78863D01*
X283997Y-78953D01*
D02*
G37*
G36*
X148018Y-81299D02*
X147889Y-81303D01*
X147765Y-81316D01*
X147643Y-81339D01*
X147525Y-81371D01*
X147411Y-81413D01*
X147300Y-81465D01*
X147193Y-81526D01*
X147089Y-81597D01*
X146989Y-81677D01*
X146892Y-81767D01*
X146185Y-81060D01*
X146275Y-80964D01*
X146356Y-80863D01*
X146427Y-80760D01*
X146488Y-80652D01*
X146540Y-80542D01*
X146582Y-80427D01*
X146614Y-80309D01*
X146637Y-80188D01*
X146650Y-80063D01*
X146654Y-79935D01*
X148018Y-81299D01*
D02*
G37*
G36*
X93006Y-80423D02*
X93104Y-80502D01*
X93206Y-80572D01*
X93312Y-80632D01*
X93423Y-80683D01*
X93537Y-80725D01*
X93657Y-80757D01*
X93780Y-80781D01*
X93908Y-80795D01*
X94040Y-80799D01*
Y-81799D01*
X93908Y-81804D01*
X93780Y-81818D01*
X93657Y-81841D01*
X93537Y-81874D01*
X93423Y-81915D01*
X93312Y-81966D01*
X93206Y-82027D01*
X93104Y-82096D01*
X93006Y-82175D01*
X92913Y-82264D01*
Y-80335D01*
X93006Y-80423D01*
D02*
G37*
G36*
X295460Y-85873D02*
X295367Y-85785D01*
X295269Y-85706D01*
X295168Y-85636D01*
X295061Y-85576D01*
X294951Y-85524D01*
X294836Y-85483D01*
X294717Y-85450D01*
X294593Y-85427D01*
X294466Y-85413D01*
X294334Y-85408D01*
Y-84408D01*
X294466Y-84404D01*
X294593Y-84390D01*
X294717Y-84367D01*
X294836Y-84334D01*
X294951Y-84292D01*
X295061Y-84241D01*
X295168Y-84181D01*
X295269Y-84111D01*
X295367Y-84032D01*
X295460Y-83944D01*
Y-85873D01*
D02*
G37*
G36*
X157467Y-86762D02*
X157375Y-86766D01*
X157282Y-86781D01*
X157187Y-86807D01*
X157091Y-86843D01*
X156994Y-86890D01*
X156895Y-86948D01*
X156795Y-87016D01*
X156693Y-87094D01*
X156590Y-87184D01*
X156485Y-87284D01*
X155580Y-86379D01*
X155680Y-86274D01*
X155849Y-86070D01*
X155917Y-85969D01*
X155974Y-85870D01*
X156021Y-85773D01*
X156057Y-85677D01*
X156083Y-85582D01*
X156098Y-85489D01*
X156102Y-85398D01*
X157467Y-86762D01*
D02*
G37*
G36*
X215921Y-86983D02*
X215214Y-87690D01*
X214910Y-87415D01*
X215436Y-86536D01*
X215921Y-86983D01*
D02*
G37*
G36*
X231278Y-86289D02*
X231291Y-86414D01*
X231313Y-86535D01*
X231346Y-86653D01*
X231388Y-86768D01*
X231439Y-86878D01*
X231501Y-86985D01*
X231572Y-87089D01*
X231652Y-87189D01*
X231742Y-87286D01*
X231035Y-87993D01*
X230939Y-87903D01*
X230838Y-87823D01*
X230734Y-87752D01*
X230627Y-87690D01*
X230517Y-87639D01*
X230402Y-87597D01*
X230284Y-87564D01*
X230163Y-87542D01*
X230038Y-87529D01*
X229910Y-87525D01*
X231274Y-86161D01*
X231278Y-86289D01*
D02*
G37*
G36*
X163650Y-87286D02*
X163727Y-87341D01*
X163812Y-87390D01*
X163905Y-87432D01*
X164007Y-87468D01*
X164118Y-87497D01*
X164237Y-87520D01*
X164365Y-87536D01*
X164501Y-87546D01*
X164646Y-87549D01*
Y-88829D01*
X164501Y-88832D01*
X164237Y-88858D01*
X164118Y-88881D01*
X164007Y-88910D01*
X163905Y-88946D01*
X163812Y-88988D01*
X163727Y-89037D01*
X163650Y-89092D01*
X163583Y-89153D01*
Y-87224D01*
X163650Y-87286D01*
D02*
G37*
G36*
X211609Y-88248D02*
X211706Y-88327D01*
X211808Y-88396D01*
X211914Y-88457D01*
X212025Y-88508D01*
X212140Y-88550D01*
X212259Y-88582D01*
X212382Y-88605D01*
X212510Y-88619D01*
X212642Y-88624D01*
Y-89624D01*
X212510Y-89629D01*
X212382Y-89643D01*
X212259Y-89666D01*
X212140Y-89698D01*
X212025Y-89740D01*
X211914Y-89791D01*
X211808Y-89852D01*
X211706Y-89921D01*
X211609Y-90000D01*
X211516Y-90089D01*
Y-88159D01*
X211609Y-88248D01*
D02*
G37*
G36*
X157297Y-92365D02*
X157205Y-92362D01*
X157111Y-92370D01*
X157016Y-92390D01*
X156920Y-92421D01*
X156822Y-92464D01*
X156722Y-92518D01*
X156622Y-92583D01*
X156520Y-92660D01*
X156416Y-92749D01*
X156311Y-92848D01*
X155496Y-91854D01*
X155597Y-91750D01*
X155768Y-91546D01*
X155839Y-91447D01*
X155900Y-91349D01*
X155951Y-91253D01*
X155992Y-91159D01*
X156024Y-91067D01*
X156045Y-90976D01*
X156057Y-90888D01*
X157297Y-92365D01*
D02*
G37*
G36*
X307073Y-93209D02*
X306917Y-93211D01*
X306768Y-93223D01*
X306627Y-93243D01*
X306493Y-93272D01*
X306367Y-93309D01*
X306248Y-93356D01*
X306136Y-93410D01*
X306032Y-93474D01*
X305936Y-93546D01*
X305847Y-93628D01*
X305290Y-93071D01*
X305371Y-92982D01*
X305443Y-92885D01*
X305507Y-92781D01*
X305562Y-92670D01*
X305608Y-92551D01*
X305645Y-92424D01*
X305674Y-92291D01*
X305695Y-92149D01*
X305706Y-92001D01*
X305709Y-91844D01*
X307073Y-93209D01*
D02*
G37*
G36*
X215456Y-91981D02*
X215469Y-92106D01*
X215492Y-92227D01*
X215525Y-92345D01*
X215566Y-92459D01*
X215618Y-92570D01*
X215679Y-92677D01*
X215750Y-92781D01*
X215831Y-92881D01*
X215921Y-92978D01*
X215214Y-93685D01*
X215117Y-93595D01*
X215017Y-93514D01*
X214913Y-93443D01*
X214806Y-93382D01*
X214695Y-93330D01*
X214581Y-93288D01*
X214463Y-93256D01*
X214342Y-93233D01*
X214217Y-93220D01*
X214089Y-93216D01*
X215453Y-91852D01*
X215456Y-91981D01*
D02*
G37*
G36*
X163650Y-92749D02*
X163727Y-92804D01*
X163812Y-92853D01*
X163905Y-92895D01*
X164007Y-92931D01*
X164118Y-92960D01*
X164237Y-92983D01*
X164365Y-92999D01*
X164501Y-93009D01*
X164646Y-93012D01*
Y-94291D01*
X164501Y-94295D01*
X164237Y-94321D01*
X164118Y-94343D01*
X164007Y-94373D01*
X163905Y-94408D01*
X163812Y-94450D01*
X163727Y-94499D01*
X163650Y-94554D01*
X163583Y-94616D01*
Y-92687D01*
X163650Y-92749D01*
D02*
G37*
G36*
X158279Y-95592D02*
X158359Y-95640D01*
X158447Y-95681D01*
X158543Y-95717D01*
X158647Y-95748D01*
X158759Y-95773D01*
X158880Y-95792D01*
X159145Y-95814D01*
X159290Y-95817D01*
X159447Y-97097D01*
X159302Y-97100D01*
X159166Y-97111D01*
X159040Y-97129D01*
X158923Y-97154D01*
X158815Y-97187D01*
X158716Y-97227D01*
X158627Y-97274D01*
X158547Y-97328D01*
X158476Y-97389D01*
X158414Y-97458D01*
X158208Y-95540D01*
X158279Y-95592D01*
D02*
G37*
G36*
X290537Y-99016D02*
X290409Y-99019D01*
X290284Y-99032D01*
X290163Y-99055D01*
X290045Y-99088D01*
X289931Y-99129D01*
X289820Y-99181D01*
X289713Y-99242D01*
X289609Y-99313D01*
X289509Y-99394D01*
X289412Y-99484D01*
X288705Y-98777D01*
X288795Y-98680D01*
X288876Y-98580D01*
X288947Y-98476D01*
X289008Y-98369D01*
X289059Y-98258D01*
X289102Y-98144D01*
X289134Y-98026D01*
X289157Y-97905D01*
X289170Y-97780D01*
X289173Y-97652D01*
X290537Y-99016D01*
D02*
G37*
G36*
X285026D02*
X284897Y-99019D01*
X284772Y-99032D01*
X284651Y-99055D01*
X284533Y-99088D01*
X284419Y-99129D01*
X284308Y-99181D01*
X284201Y-99242D01*
X284097Y-99313D01*
X283997Y-99394D01*
X283900Y-99484D01*
X283193Y-98777D01*
X283283Y-98680D01*
X283364Y-98580D01*
X283435Y-98476D01*
X283496Y-98369D01*
X283548Y-98258D01*
X283590Y-98144D01*
X283622Y-98026D01*
X283645Y-97905D01*
X283658Y-97780D01*
X283662Y-97652D01*
X285026Y-99016D01*
D02*
G37*
G36*
X93775Y-99452D02*
X93685Y-99548D01*
X93605Y-99648D01*
X93534Y-99752D01*
X93472Y-99859D01*
X93421Y-99970D01*
X93379Y-100084D01*
X93346Y-100202D01*
X93324Y-100324D01*
X93310Y-100448D01*
X93307Y-100577D01*
X91943Y-99213D01*
X92071Y-99209D01*
X92196Y-99196D01*
X92317Y-99173D01*
X92435Y-99141D01*
X92550Y-99099D01*
X92660Y-99047D01*
X92768Y-98986D01*
X92871Y-98915D01*
X92971Y-98835D01*
X93068Y-98744D01*
X93775Y-99452D01*
D02*
G37*
G36*
X307270Y-103445D02*
X307141Y-103448D01*
X307016Y-103462D01*
X306895Y-103484D01*
X306777Y-103517D01*
X306663Y-103559D01*
X306552Y-103610D01*
X306445Y-103672D01*
X306341Y-103742D01*
X306241Y-103823D01*
X306144Y-103913D01*
X305437Y-103206D01*
X305527Y-103109D01*
X305608Y-103009D01*
X305679Y-102905D01*
X305740Y-102798D01*
X305792Y-102687D01*
X305834Y-102573D01*
X305866Y-102455D01*
X305889Y-102334D01*
X305902Y-102209D01*
X305906Y-102081D01*
X307270Y-103445D01*
D02*
G37*
G36*
X101847Y-103586D02*
X101757Y-103683D01*
X101676Y-103783D01*
X101606Y-103887D01*
X101544Y-103994D01*
X101493Y-104105D01*
X101451Y-104219D01*
X101418Y-104337D01*
X101396Y-104458D01*
X101382Y-104583D01*
X101379Y-104712D01*
X100015Y-103348D01*
X100143Y-103344D01*
X100268Y-103331D01*
X100389Y-103308D01*
X100507Y-103276D01*
X100621Y-103234D01*
X100732Y-103182D01*
X100839Y-103121D01*
X100943Y-103050D01*
X101043Y-102969D01*
X101140Y-102879D01*
X101847Y-103586D01*
D02*
G37*
G36*
X306299Y-108248D02*
X306187Y-108140D01*
X306074Y-108043D01*
X305960Y-107957D01*
X305845Y-107883D01*
X305729Y-107820D01*
X305612Y-107768D01*
X305494Y-107729D01*
X305376Y-107700D01*
X305257Y-107683D01*
X305136Y-107677D01*
Y-106890D01*
X305257Y-106884D01*
X305376Y-106867D01*
X305494Y-106838D01*
X305612Y-106798D01*
X305729Y-106747D01*
X305845Y-106684D01*
X305960Y-106610D01*
X306074Y-106524D01*
X306187Y-106427D01*
X306299Y-106319D01*
Y-108248D01*
D02*
G37*
G36*
X96357Y-107001D02*
X96454Y-107080D01*
X96556Y-107150D01*
X96662Y-107211D01*
X96773Y-107262D01*
X96888Y-107304D01*
X97007Y-107336D01*
X97130Y-107359D01*
X97258Y-107373D01*
X97390Y-107378D01*
Y-108378D01*
X97258Y-108382D01*
X97130Y-108396D01*
X97007Y-108420D01*
X96888Y-108452D01*
X96773Y-108494D01*
X96662Y-108545D01*
X96556Y-108605D01*
X96454Y-108675D01*
X96357Y-108754D01*
X96263Y-108842D01*
Y-106913D01*
X96357Y-107001D01*
D02*
G37*
G36*
X238402Y-109758D02*
X238416Y-109886D01*
X238439Y-110010D01*
X238472Y-110129D01*
X238514Y-110244D01*
X238565Y-110354D01*
X238625Y-110460D01*
X238695Y-110562D01*
X238774Y-110660D01*
X238862Y-110753D01*
X236933D01*
X237021Y-110660D01*
X237100Y-110562D01*
X237170Y-110460D01*
X237230Y-110354D01*
X237281Y-110244D01*
X237323Y-110129D01*
X237356Y-110010D01*
X237379Y-109886D01*
X237393Y-109758D01*
X237398Y-109626D01*
X238398D01*
X238402Y-109758D01*
D02*
G37*
G36*
X242720Y-109197D02*
X242733Y-109322D01*
X242756Y-109443D01*
X242788Y-109561D01*
X242830Y-109675D01*
X242882Y-109786D01*
X242943Y-109894D01*
X243014Y-109997D01*
X243095Y-110097D01*
X243185Y-110194D01*
X242478Y-110901D01*
X242381Y-110811D01*
X242281Y-110731D01*
X242177Y-110660D01*
X242070Y-110598D01*
X241959Y-110547D01*
X241845Y-110505D01*
X241727Y-110472D01*
X241605Y-110450D01*
X241481Y-110436D01*
X241352Y-110433D01*
X242717Y-109069D01*
X242720Y-109197D01*
D02*
G37*
G36*
X101573Y-109895D02*
X101658Y-109981D01*
X101750Y-110057D01*
X101848Y-110123D01*
X101951Y-110179D01*
X102061Y-110225D01*
X102177Y-110260D01*
X102298Y-110286D01*
X102426Y-110301D01*
X102560Y-110306D01*
X102421Y-111306D01*
X102291Y-111310D01*
X102163Y-111322D01*
X102039Y-111342D01*
X101917Y-111371D01*
X101798Y-111407D01*
X101682Y-111452D01*
X101569Y-111505D01*
X101459Y-111566D01*
X101351Y-111635D01*
X101247Y-111712D01*
X101493Y-109799D01*
X101573Y-109895D01*
D02*
G37*
G36*
X167954Y-110350D02*
X168054Y-110431D01*
X168158Y-110502D01*
X168265Y-110563D01*
X168376Y-110615D01*
X168490Y-110657D01*
X168608Y-110689D01*
X168729Y-110712D01*
X168854Y-110725D01*
X168982Y-110728D01*
X167618Y-112092D01*
X167615Y-111964D01*
X167602Y-111839D01*
X167579Y-111718D01*
X167546Y-111600D01*
X167504Y-111486D01*
X167453Y-111375D01*
X167392Y-111268D01*
X167321Y-111164D01*
X167240Y-111064D01*
X167150Y-110967D01*
X167857Y-110260D01*
X167954Y-110350D01*
D02*
G37*
G36*
X175433Y-113114D02*
X175343Y-113205D01*
X175262Y-113300D01*
X175191Y-113400D01*
X175129Y-113505D01*
X175077Y-113614D01*
X175034Y-113728D01*
X175001Y-113847D01*
X174978Y-113970D01*
X174963Y-114098D01*
X174959Y-114230D01*
X173959Y-114203D01*
X173954Y-114071D01*
X173941Y-113944D01*
X173918Y-113820D01*
X173886Y-113700D01*
X173845Y-113584D01*
X173795Y-113473D01*
X173736Y-113365D01*
X173668Y-113261D01*
X173591Y-113162D01*
X173504Y-113066D01*
X175433Y-113114D01*
D02*
G37*
G36*
X96353Y-112510D02*
X96450Y-112589D01*
X96552Y-112658D01*
X96658Y-112719D01*
X96769Y-112770D01*
X96884Y-112812D01*
X97003Y-112844D01*
X97127Y-112867D01*
X97254Y-112881D01*
X97386Y-112886D01*
Y-113886D01*
X97254Y-113891D01*
X97127Y-113904D01*
X97003Y-113928D01*
X96884Y-113960D01*
X96769Y-114002D01*
X96658Y-114053D01*
X96552Y-114113D01*
X96450Y-114183D01*
X96353Y-114262D01*
X96260Y-114350D01*
Y-112421D01*
X96353Y-112510D01*
D02*
G37*
G36*
X242416Y-113691D02*
X242513Y-113770D01*
X242615Y-113839D01*
X242722Y-113900D01*
X242832Y-113951D01*
X242947Y-113993D01*
X243066Y-114025D01*
X243190Y-114048D01*
X243317Y-114062D01*
X243449Y-114067D01*
Y-115067D01*
X243317Y-115072D01*
X243190Y-115085D01*
X243066Y-115109D01*
X242947Y-115141D01*
X242832Y-115183D01*
X242722Y-115234D01*
X242615Y-115295D01*
X242513Y-115364D01*
X242416Y-115443D01*
X242323Y-115532D01*
Y-113602D01*
X242416Y-113691D01*
D02*
G37*
G36*
X101583Y-115425D02*
X101668Y-115512D01*
X101758Y-115588D01*
X101855Y-115655D01*
X101957Y-115711D01*
X102066Y-115757D01*
X102182Y-115793D01*
X102303Y-115818D01*
X102431Y-115833D01*
X102565Y-115839D01*
X102409Y-116839D01*
X102279Y-116843D01*
X102152Y-116855D01*
X102027Y-116875D01*
X101905Y-116902D01*
X101786Y-116938D01*
X101669Y-116982D01*
X101555Y-117034D01*
X101444Y-117094D01*
X101336Y-117161D01*
X101230Y-117237D01*
X101505Y-115328D01*
X101583Y-115425D01*
D02*
G37*
G36*
X170768Y-117795D02*
X170675Y-117707D01*
X170577Y-117628D01*
X170475Y-117558D01*
X170369Y-117498D01*
X170258Y-117447D01*
X170144Y-117405D01*
X170025Y-117373D01*
X169901Y-117349D01*
X169773Y-117335D01*
X169641Y-117331D01*
Y-116331D01*
X169773Y-116326D01*
X169901Y-116312D01*
X170025Y-116289D01*
X170144Y-116256D01*
X170258Y-116215D01*
X170369Y-116164D01*
X170475Y-116103D01*
X170577Y-116033D01*
X170675Y-115954D01*
X170768Y-115866D01*
Y-117795D01*
D02*
G37*
G36*
X238873Y-116446D02*
X238970Y-116525D01*
X239072Y-116595D01*
X239178Y-116656D01*
X239289Y-116707D01*
X239404Y-116748D01*
X239523Y-116781D01*
X239646Y-116804D01*
X239774Y-116818D01*
X239906Y-116823D01*
Y-117823D01*
X239774Y-117827D01*
X239646Y-117841D01*
X239523Y-117865D01*
X239404Y-117897D01*
X239289Y-117939D01*
X239178Y-117990D01*
X239072Y-118051D01*
X238970Y-118120D01*
X238873Y-118199D01*
X238779Y-118287D01*
Y-116358D01*
X238873Y-116446D01*
D02*
G37*
G36*
X283465Y-124587D02*
X283371Y-124498D01*
X283274Y-124419D01*
X283172Y-124350D01*
X283066Y-124289D01*
X282955Y-124238D01*
X282840Y-124196D01*
X282721Y-124164D01*
X282598Y-124141D01*
X282470Y-124127D01*
X282338Y-124122D01*
Y-123122D01*
X282470Y-123117D01*
X282598Y-123103D01*
X282721Y-123080D01*
X282840Y-123048D01*
X282955Y-123006D01*
X283066Y-122955D01*
X283172Y-122894D01*
X283274Y-122825D01*
X283371Y-122746D01*
X283465Y-122658D01*
Y-124587D01*
D02*
G37*
G36*
X291142Y-127441D02*
X291049Y-127353D01*
X290951Y-127274D01*
X290849Y-127204D01*
X290743Y-127144D01*
X290633Y-127093D01*
X290518Y-127051D01*
X290399Y-127018D01*
X290275Y-126995D01*
X290147Y-126981D01*
X290015Y-126976D01*
Y-125976D01*
X290147Y-125972D01*
X290275Y-125958D01*
X290399Y-125935D01*
X290518Y-125902D01*
X290633Y-125860D01*
X290743Y-125809D01*
X290849Y-125749D01*
X290951Y-125679D01*
X291049Y-125600D01*
X291142Y-125512D01*
Y-127441D01*
D02*
G37*
G36*
X23625Y-125648D02*
X23742Y-127202D01*
X23818Y-127628D01*
X23912Y-128009D01*
X24024Y-128345D01*
X24155Y-128635D01*
X24303Y-128879D01*
X24470Y-129078D01*
X23763Y-129785D01*
X23564Y-129618D01*
X23320Y-129470D01*
X23030Y-129339D01*
X22695Y-129227D01*
X22313Y-129133D01*
X21887Y-129057D01*
X21415Y-129000D01*
X20333Y-128940D01*
X19724Y-128937D01*
X23622Y-125039D01*
X23625Y-125648D01*
D02*
G37*
G36*
X141146Y-128452D02*
X141161Y-128545D01*
X141187Y-128640D01*
X141223Y-128736D01*
X141270Y-128833D01*
X141327Y-128932D01*
X141396Y-129032D01*
X141474Y-129134D01*
X141564Y-129237D01*
X141664Y-129342D01*
X140759Y-130246D01*
X140654Y-130146D01*
X140450Y-129978D01*
X140349Y-129910D01*
X140250Y-129853D01*
X140153Y-129806D01*
X140057Y-129769D01*
X139962Y-129744D01*
X139869Y-129729D01*
X139778Y-129724D01*
X141142Y-128360D01*
X141146Y-128452D01*
D02*
G37*
G36*
X136422D02*
X136437Y-128545D01*
X136462Y-128640D01*
X136499Y-128736D01*
X136546Y-128833D01*
X136603Y-128932D01*
X136671Y-129032D01*
X136750Y-129134D01*
X136839Y-129237D01*
X136939Y-129342D01*
X136035Y-130246D01*
X135930Y-130146D01*
X135725Y-129978D01*
X135625Y-129910D01*
X135526Y-129853D01*
X135429Y-129806D01*
X135333Y-129769D01*
X135238Y-129744D01*
X135145Y-129729D01*
X135053Y-129724D01*
X136417Y-128360D01*
X136422Y-128452D01*
D02*
G37*
G36*
X93760Y-132129D02*
X93667Y-132041D01*
X93569Y-131962D01*
X93467Y-131892D01*
X93361Y-131832D01*
X93251Y-131781D01*
X93136Y-131739D01*
X93017Y-131706D01*
X92893Y-131683D01*
X92765Y-131669D01*
X92633Y-131665D01*
Y-130665D01*
X92765Y-130660D01*
X92893Y-130646D01*
X93017Y-130623D01*
X93136Y-130590D01*
X93251Y-130548D01*
X93361Y-130497D01*
X93467Y-130437D01*
X93569Y-130367D01*
X93667Y-130288D01*
X93760Y-130200D01*
Y-132129D01*
D02*
G37*
G36*
X265828Y-136290D02*
X265735Y-136202D01*
X265637Y-136123D01*
X265535Y-136053D01*
X265429Y-135992D01*
X265318Y-135941D01*
X265203Y-135899D01*
X265084Y-135867D01*
X264961Y-135844D01*
X264833Y-135830D01*
X264701Y-135825D01*
Y-134825D01*
X264833Y-134820D01*
X264961Y-134807D01*
X265084Y-134783D01*
X265203Y-134751D01*
X265318Y-134709D01*
X265429Y-134658D01*
X265535Y-134598D01*
X265637Y-134528D01*
X265735Y-134449D01*
X265828Y-134361D01*
Y-136290D01*
D02*
G37*
G36*
X225416Y-135387D02*
X225361Y-135464D01*
X225312Y-135549D01*
X225270Y-135643D01*
X225234Y-135745D01*
X225205Y-135855D01*
X225182Y-135974D01*
X225166Y-136102D01*
X225156Y-136238D01*
X225153Y-136383D01*
X223874D01*
X223871Y-136238D01*
X223845Y-135974D01*
X223822Y-135855D01*
X223793Y-135745D01*
X223757Y-135643D01*
X223715Y-135549D01*
X223666Y-135464D01*
X223611Y-135387D01*
X223549Y-135319D01*
X225478D01*
X225416Y-135387D01*
D02*
G37*
G36*
X230967Y-135397D02*
X230911Y-135473D01*
X230863Y-135558D01*
X230820Y-135652D01*
X230785Y-135754D01*
X230755Y-135865D01*
X230732Y-135984D01*
X230716Y-136111D01*
X230706Y-136248D01*
X230703Y-136392D01*
X229425D01*
X229422Y-136248D01*
X229396Y-135984D01*
X229373Y-135865D01*
X229344Y-135754D01*
X229308Y-135652D01*
X229265Y-135558D01*
X229217Y-135473D01*
X229161Y-135397D01*
X229099Y-135329D01*
X231029D01*
X230967Y-135397D01*
D02*
G37*
G36*
X236533Y-135403D02*
X236477Y-135479D01*
X236428Y-135564D01*
X236386Y-135658D01*
X236350Y-135760D01*
X236321Y-135870D01*
X236298Y-135989D01*
X236282Y-136117D01*
X236272Y-136253D01*
X236269Y-136398D01*
X234991D01*
X234987Y-136253D01*
X234962Y-135989D01*
X234939Y-135870D01*
X234909Y-135760D01*
X234874Y-135658D01*
X234831Y-135564D01*
X234783Y-135479D01*
X234727Y-135403D01*
X234665Y-135334D01*
X236595D01*
X236533Y-135403D01*
D02*
G37*
G36*
X184234Y-137369D02*
X184237Y-137513D01*
X184261Y-137778D01*
X184282Y-137898D01*
X184309Y-138010D01*
X184342Y-138113D01*
X184381Y-138208D01*
X184426Y-138295D01*
X184477Y-138374D01*
X184534Y-138444D01*
X182608Y-138331D01*
X182674Y-138266D01*
X182733Y-138193D01*
X182785Y-138110D01*
X182830Y-138019D01*
X182868Y-137918D01*
X182899Y-137809D01*
X182924Y-137691D01*
X182941Y-137564D01*
X182951Y-137428D01*
X182955Y-137284D01*
X184234Y-137369D01*
D02*
G37*
G36*
X159832Y-138541D02*
X159777Y-138618D01*
X159728Y-138703D01*
X159686Y-138796D01*
X159650Y-138898D01*
X159620Y-139009D01*
X159598Y-139128D01*
X159581Y-139256D01*
X159572Y-139392D01*
X159568Y-139536D01*
X158290D01*
X158287Y-139392D01*
X158261Y-139128D01*
X158238Y-139009D01*
X158209Y-138898D01*
X158173Y-138796D01*
X158131Y-138703D01*
X158082Y-138618D01*
X158027Y-138541D01*
X157965Y-138473D01*
X159894D01*
X159832Y-138541D01*
D02*
G37*
G36*
X265629Y-142539D02*
X265536Y-142451D01*
X265439Y-142372D01*
X265337Y-142302D01*
X265230Y-142242D01*
X265120Y-142191D01*
X265005Y-142149D01*
X264886Y-142116D01*
X264762Y-142093D01*
X264635Y-142079D01*
X264503Y-142075D01*
Y-141075D01*
X264635Y-141070D01*
X264762Y-141056D01*
X264886Y-141033D01*
X265005Y-141000D01*
X265120Y-140958D01*
X265230Y-140907D01*
X265337Y-140847D01*
X265439Y-140777D01*
X265536Y-140698D01*
X265629Y-140610D01*
Y-142539D01*
D02*
G37*
G36*
X187651Y-141798D02*
X187677Y-142062D01*
X187700Y-142181D01*
X187729Y-142292D01*
X187765Y-142394D01*
X187807Y-142487D01*
X187856Y-142572D01*
X187911Y-142649D01*
X187972Y-142717D01*
X186043D01*
X186105Y-142649D01*
X186160Y-142572D01*
X186209Y-142487D01*
X186251Y-142394D01*
X186287Y-142292D01*
X186316Y-142181D01*
X186339Y-142062D01*
X186355Y-141934D01*
X186365Y-141798D01*
X186368Y-141654D01*
X187648D01*
X187651Y-141798D01*
D02*
G37*
G36*
X23625Y-139428D02*
X23742Y-140981D01*
X23818Y-141408D01*
X23912Y-141789D01*
X24024Y-142125D01*
X24155Y-142414D01*
X24303Y-142659D01*
X24470Y-142858D01*
X23763Y-143565D01*
X23564Y-143398D01*
X23320Y-143249D01*
X23030Y-143119D01*
X22695Y-143007D01*
X22313Y-142913D01*
X21887Y-142837D01*
X21415Y-142779D01*
X20333Y-142719D01*
X19724Y-142716D01*
X23622Y-138819D01*
X23625Y-139428D01*
D02*
G37*
G36*
X304481Y-143385D02*
X304581Y-143465D01*
X304685Y-143536D01*
X304792Y-143597D01*
X304903Y-143649D01*
X305017Y-143691D01*
X305135Y-143723D01*
X305256Y-143746D01*
X305381Y-143759D01*
X305509Y-143763D01*
X304145Y-145127D01*
X304142Y-144999D01*
X304129Y-144874D01*
X304106Y-144753D01*
X304074Y-144635D01*
X304031Y-144520D01*
X303980Y-144410D01*
X303919Y-144302D01*
X303848Y-144199D01*
X303767Y-144098D01*
X303677Y-144002D01*
X304384Y-143295D01*
X304481Y-143385D01*
D02*
G37*
G36*
X310059Y-143487D02*
X310159Y-143568D01*
X310263Y-143639D01*
X310370Y-143700D01*
X310481Y-143751D01*
X310595Y-143793D01*
X310713Y-143826D01*
X310834Y-143849D01*
X310959Y-143862D01*
X311087Y-143865D01*
X309723Y-145229D01*
X309720Y-145101D01*
X309707Y-144976D01*
X309684Y-144855D01*
X309651Y-144737D01*
X309610Y-144623D01*
X309558Y-144512D01*
X309496Y-144405D01*
X309426Y-144301D01*
X309345Y-144201D01*
X309255Y-144104D01*
X309962Y-143397D01*
X310059Y-143487D01*
D02*
G37*
G36*
X94147Y-145399D02*
X94120Y-145391D01*
X94087Y-145393D01*
X94049Y-145403D01*
X94005Y-145423D01*
X93957Y-145451D01*
X93903Y-145488D01*
X93843Y-145535D01*
X93709Y-145654D01*
X93634Y-145728D01*
X92927Y-145020D01*
X93019Y-144927D01*
X93328Y-144571D01*
X93359Y-144523D01*
X93380Y-144482D01*
X93391Y-144449D01*
X93392Y-144423D01*
X94147Y-145399D01*
D02*
G37*
G36*
X157085Y-146275D02*
X157034Y-146353D01*
X156988Y-146440D01*
X156949Y-146535D01*
X156916Y-146639D01*
X156889Y-146750D01*
X156868Y-146870D01*
X156853Y-146999D01*
X156841Y-147280D01*
X155561Y-147360D01*
X155558Y-147215D01*
X155530Y-146952D01*
X155506Y-146834D01*
X155475Y-146725D01*
X155437Y-146625D01*
X155392Y-146533D01*
X155340Y-146450D01*
X155281Y-146376D01*
X155216Y-146311D01*
X157142Y-146205D01*
X157085Y-146275D01*
D02*
G37*
G36*
X265493Y-145882D02*
X265593Y-145962D01*
X265697Y-146033D01*
X265804Y-146095D01*
X265915Y-146146D01*
X266029Y-146188D01*
X266147Y-146221D01*
X266268Y-146243D01*
X266393Y-146256D01*
X266522Y-146260D01*
X265158Y-147624D01*
X265154Y-147496D01*
X265141Y-147371D01*
X265118Y-147249D01*
X265086Y-147132D01*
X265044Y-147018D01*
X264992Y-146907D01*
X264931Y-146800D01*
X264860Y-146696D01*
X264779Y-146596D01*
X264689Y-146499D01*
X265396Y-145792D01*
X265493Y-145882D01*
D02*
G37*
G36*
X257225Y-146768D02*
X257326Y-146848D01*
X257429Y-146919D01*
X257537Y-146980D01*
X257647Y-147032D01*
X257762Y-147074D01*
X257879Y-147106D01*
X258001Y-147129D01*
X258126Y-147142D01*
X258254Y-147146D01*
X256890Y-148510D01*
X256886Y-148381D01*
X256873Y-148257D01*
X256850Y-148135D01*
X256818Y-148018D01*
X256776Y-147903D01*
X256724Y-147792D01*
X256663Y-147685D01*
X256592Y-147582D01*
X256512Y-147481D01*
X256422Y-147385D01*
X257129Y-146677D01*
X257225Y-146768D01*
D02*
G37*
G36*
X252796Y-146866D02*
X252896Y-146947D01*
X253000Y-147018D01*
X253108Y-147079D01*
X253218Y-147130D01*
X253332Y-147172D01*
X253450Y-147205D01*
X253572Y-147228D01*
X253696Y-147241D01*
X253825Y-147244D01*
X252461Y-148608D01*
X252457Y-148480D01*
X252444Y-148355D01*
X252421Y-148234D01*
X252389Y-148116D01*
X252347Y-148002D01*
X252295Y-147891D01*
X252234Y-147784D01*
X252163Y-147680D01*
X252083Y-147580D01*
X251993Y-147483D01*
X252700Y-146776D01*
X252796Y-146866D01*
D02*
G37*
G36*
X181352Y-152428D02*
X181378Y-152692D01*
X181400Y-152811D01*
X181430Y-152922D01*
X181465Y-153024D01*
X181508Y-153117D01*
X181556Y-153202D01*
X181612Y-153279D01*
X181673Y-153347D01*
X179744D01*
X179806Y-153279D01*
X179861Y-153202D01*
X179910Y-153117D01*
X179952Y-153024D01*
X179988Y-152922D01*
X180017Y-152811D01*
X180040Y-152692D01*
X180056Y-152564D01*
X180066Y-152428D01*
X180069Y-152284D01*
X181348D01*
X181352Y-152428D01*
D02*
G37*
G36*
X202937Y-153746D02*
X202837Y-153851D01*
X202749Y-153955D01*
X202675Y-154057D01*
X202613Y-154157D01*
X202563Y-154256D01*
X202526Y-154353D01*
X202502Y-154448D01*
X202490Y-154541D01*
X202491Y-154633D01*
X202504Y-154723D01*
X200889Y-153668D01*
X200970Y-153647D01*
X201053Y-153618D01*
X201138Y-153580D01*
X201227Y-153533D01*
X201318Y-153476D01*
X201412Y-153411D01*
X201608Y-153253D01*
X201710Y-153160D01*
X201815Y-153059D01*
X202937Y-153746D01*
D02*
G37*
G36*
X23625Y-153207D02*
X23742Y-154761D01*
X23818Y-155187D01*
X23912Y-155569D01*
X24024Y-155904D01*
X24155Y-156194D01*
X24303Y-156438D01*
X24470Y-156637D01*
X23763Y-157344D01*
X23564Y-157177D01*
X23320Y-157029D01*
X23030Y-156898D01*
X22695Y-156786D01*
X22313Y-156692D01*
X21887Y-156616D01*
X21415Y-156559D01*
X20333Y-156499D01*
X19724Y-156496D01*
X23622Y-152598D01*
X23625Y-153207D01*
D02*
G37*
G36*
X93760Y-158113D02*
X93667Y-158025D01*
X93569Y-157946D01*
X93467Y-157876D01*
X93361Y-157816D01*
X93251Y-157765D01*
X93136Y-157723D01*
X93017Y-157691D01*
X92893Y-157667D01*
X92765Y-157653D01*
X92633Y-157649D01*
Y-156649D01*
X92765Y-156644D01*
X92893Y-156630D01*
X93017Y-156607D01*
X93136Y-156574D01*
X93251Y-156533D01*
X93361Y-156482D01*
X93467Y-156421D01*
X93569Y-156351D01*
X93667Y-156272D01*
X93760Y-156184D01*
Y-158113D01*
D02*
G37*
G36*
X215887Y-157299D02*
X215987Y-157380D01*
X216091Y-157450D01*
X216198Y-157512D01*
X216309Y-157563D01*
X216423Y-157605D01*
X216541Y-157638D01*
X216662Y-157661D01*
X216787Y-157674D01*
X216915Y-157677D01*
X215551Y-159041D01*
X215548Y-158913D01*
X215535Y-158788D01*
X215512Y-158667D01*
X215479Y-158549D01*
X215437Y-158435D01*
X215386Y-158324D01*
X215324Y-158217D01*
X215254Y-158113D01*
X215173Y-158013D01*
X215083Y-157916D01*
X215790Y-157209D01*
X215887Y-157299D01*
D02*
G37*
G36*
X200268Y-158219D02*
X200473Y-158387D01*
X200573Y-158456D01*
X200672Y-158513D01*
X200769Y-158560D01*
X200865Y-158596D01*
X200960Y-158622D01*
X201053Y-158637D01*
X201145Y-158641D01*
X199780Y-160005D01*
X199776Y-159914D01*
X199761Y-159821D01*
X199735Y-159726D01*
X199699Y-159630D01*
X199652Y-159533D01*
X199595Y-159434D01*
X199527Y-159334D01*
X199448Y-159232D01*
X199358Y-159129D01*
X199258Y-159024D01*
X200163Y-158119D01*
X200268Y-158219D01*
D02*
G37*
G36*
X203058Y-163080D02*
X202958Y-163184D01*
X202790Y-163389D01*
X202722Y-163489D01*
X202664Y-163588D01*
X202618Y-163686D01*
X202581Y-163782D01*
X202556Y-163876D01*
X202541Y-163969D01*
X202536Y-164061D01*
X201172Y-162697D01*
X201264Y-162692D01*
X201357Y-162678D01*
X201451Y-162652D01*
X201547Y-162616D01*
X201645Y-162569D01*
X201744Y-162511D01*
X201844Y-162443D01*
X201946Y-162364D01*
X202049Y-162275D01*
X202153Y-162175D01*
X203058Y-163080D01*
D02*
G37*
G36*
X93760Y-171106D02*
X93667Y-171017D01*
X93569Y-170938D01*
X93467Y-170869D01*
X93361Y-170808D01*
X93251Y-170757D01*
X93136Y-170715D01*
X93017Y-170683D01*
X92893Y-170659D01*
X92765Y-170646D01*
X92633Y-170641D01*
Y-169641D01*
X92765Y-169636D01*
X92893Y-169622D01*
X93017Y-169599D01*
X93136Y-169567D01*
X93251Y-169525D01*
X93361Y-169474D01*
X93467Y-169413D01*
X93569Y-169344D01*
X93667Y-169265D01*
X93760Y-169176D01*
Y-171106D01*
D02*
G37*
G36*
X23625Y-166987D02*
X23742Y-168540D01*
X23818Y-168967D01*
X23912Y-169348D01*
X24024Y-169684D01*
X24155Y-169974D01*
X24303Y-170218D01*
X24470Y-170417D01*
X23763Y-171124D01*
X23564Y-170957D01*
X23320Y-170808D01*
X23030Y-170678D01*
X22695Y-170566D01*
X22313Y-170472D01*
X21887Y-170396D01*
X21415Y-170338D01*
X20333Y-170278D01*
X19724Y-170275D01*
X23622Y-166378D01*
X23625Y-166987D01*
D02*
G37*
G36*
X24470Y-176040D02*
X24303Y-176239D01*
X24155Y-176483D01*
X24024Y-176773D01*
X23912Y-177109D01*
X23818Y-177490D01*
X23742Y-177916D01*
X23685Y-178389D01*
X23625Y-179470D01*
X23622Y-180079D01*
X19724Y-176181D01*
X20333Y-176179D01*
X21887Y-176061D01*
X22313Y-175985D01*
X22695Y-175891D01*
X23030Y-175779D01*
X23320Y-175648D01*
X23564Y-175500D01*
X23763Y-175333D01*
X24470Y-176040D01*
D02*
G37*
G36*
X93760Y-184098D02*
X93667Y-184009D01*
X93569Y-183930D01*
X93467Y-183861D01*
X93361Y-183800D01*
X93251Y-183749D01*
X93136Y-183707D01*
X93017Y-183675D01*
X92893Y-183652D01*
X92765Y-183638D01*
X92633Y-183633D01*
Y-182633D01*
X92765Y-182628D01*
X92893Y-182615D01*
X93017Y-182591D01*
X93136Y-182559D01*
X93251Y-182517D01*
X93361Y-182466D01*
X93467Y-182405D01*
X93569Y-182336D01*
X93667Y-182257D01*
X93760Y-182168D01*
Y-184098D01*
D02*
G37*
G36*
X207176Y-192978D02*
X207115Y-192909D01*
X207044Y-192847D01*
X206964Y-192793D01*
X206875Y-192745D01*
X206777Y-192705D01*
X206669Y-192673D01*
X206552Y-192647D01*
X206426Y-192629D01*
X206291Y-192618D01*
X206146Y-192614D01*
X206310Y-191336D01*
X206455Y-191333D01*
X206721Y-191312D01*
X206841Y-191292D01*
X206954Y-191268D01*
X207058Y-191237D01*
X207154Y-191202D01*
X207242Y-191160D01*
X207322Y-191114D01*
X207394Y-191061D01*
X207176Y-192978D01*
D02*
G37*
G36*
X207018Y-198547D02*
X206963Y-198474D01*
X206899Y-198408D01*
X206824Y-198350D01*
X206740Y-198300D01*
X206645Y-198258D01*
X206540Y-198223D01*
X206426Y-198196D01*
X206301Y-198177D01*
X206166Y-198165D01*
X206021Y-198161D01*
X206328Y-196883D01*
X206474Y-196881D01*
X206862Y-196847D01*
X206974Y-196827D01*
X207079Y-196802D01*
X207175Y-196773D01*
X207263Y-196739D01*
X207342Y-196701D01*
X207414Y-196659D01*
X207018Y-198547D01*
D02*
G37*
G36*
X207195Y-209793D02*
X207127Y-209731D01*
X207050Y-209676D01*
X206965Y-209627D01*
X206872Y-209585D01*
X206770Y-209549D01*
X206659Y-209520D01*
X206540Y-209497D01*
X206412Y-209481D01*
X206276Y-209471D01*
X206132Y-209468D01*
Y-208189D01*
X206276Y-208185D01*
X206540Y-208159D01*
X206659Y-208137D01*
X206770Y-208107D01*
X206872Y-208072D01*
X206965Y-208029D01*
X207050Y-207981D01*
X207127Y-207926D01*
X207195Y-207864D01*
Y-209793D01*
D02*
G37*
G36*
X238681Y-212972D02*
X238613Y-212911D01*
X238537Y-212855D01*
X238452Y-212807D01*
X238358Y-212764D01*
X238256Y-212728D01*
X238145Y-212699D01*
X238026Y-212676D01*
X237899Y-212660D01*
X237762Y-212650D01*
X237618Y-212647D01*
Y-211369D01*
X237762Y-211366D01*
X238026Y-211339D01*
X238145Y-211317D01*
X238256Y-211287D01*
X238358Y-211252D01*
X238452Y-211209D01*
X238537Y-211160D01*
X238613Y-211105D01*
X238681Y-211043D01*
Y-212972D01*
D02*
G37*
G36*
X206892Y-215080D02*
X206844Y-215012D01*
X206784Y-214951D01*
X206714Y-214898D01*
X206632Y-214851D01*
X206540Y-214812D01*
X206437Y-214780D01*
X206323Y-214755D01*
X206198Y-214737D01*
X206063Y-214727D01*
X205916Y-214723D01*
X206220Y-213443D01*
X206369Y-213441D01*
X206757Y-213411D01*
X206868Y-213392D01*
X206969Y-213370D01*
X207061Y-213343D01*
X207142Y-213312D01*
X207215Y-213278D01*
X207278Y-213239D01*
X206892Y-215080D01*
D02*
G37*
G36*
X221582Y-217171D02*
X221565Y-217171D01*
X221539Y-217181D01*
X221505Y-217201D01*
X221463Y-217231D01*
X221412Y-217272D01*
X221212Y-217452D01*
X221038Y-217623D01*
X220133Y-216718D01*
X220712Y-216100D01*
X221582Y-217171D01*
D02*
G37*
G36*
X257850Y-220192D02*
X258052Y-220367D01*
X258150Y-220440D01*
X258338Y-220560D01*
X258429Y-220605D01*
X258517Y-220642D01*
X258603Y-220669D01*
X258686Y-220687D01*
X257109Y-221798D01*
X257120Y-221707D01*
X257118Y-221614D01*
X257104Y-221520D01*
X257078Y-221424D01*
X257039Y-221327D01*
X256989Y-221228D01*
X256926Y-221127D01*
X256850Y-221025D01*
X256763Y-220921D01*
X256663Y-220816D01*
X257746Y-220091D01*
X257850Y-220192D01*
D02*
G37*
G36*
X253986Y-220293D02*
X254188Y-220467D01*
X254286Y-220540D01*
X254382Y-220604D01*
X254476Y-220658D01*
X254567Y-220704D01*
X254656Y-220739D01*
X254743Y-220765D01*
X254828Y-220783D01*
X253267Y-221917D01*
X253276Y-221825D01*
X253274Y-221732D01*
X253259Y-221638D01*
X253232Y-221541D01*
X253192Y-221444D01*
X253141Y-221345D01*
X253078Y-221244D01*
X253002Y-221142D01*
X252914Y-221039D01*
X252815Y-220934D01*
X253881Y-220192D01*
X253986Y-220293D01*
D02*
G37*
G36*
X250073Y-220346D02*
X250278Y-220514D01*
X250378Y-220582D01*
X250477Y-220640D01*
X250575Y-220687D01*
X250671Y-220723D01*
X250766Y-220748D01*
X250859Y-220763D01*
X250951Y-220768D01*
X249587Y-222132D01*
X249582Y-222040D01*
X249567Y-221947D01*
X249542Y-221852D01*
X249505Y-221756D01*
X249458Y-221658D01*
X249401Y-221560D01*
X249333Y-221459D01*
X249254Y-221357D01*
X249165Y-221254D01*
X249065Y-221150D01*
X249969Y-220246D01*
X250073Y-220346D01*
D02*
G37*
G36*
X374016Y-236221D02*
X0D01*
Y-225197D01*
X368898D01*
Y-10433D01*
X0D01*
Y0D01*
X374016D01*
Y-236221D01*
D02*
G37*
G36*
X102816Y-22354D02*
X102196D01*
Y-21647D01*
X102816D01*
Y-22354D01*
D02*
G37*
G36*
X112636Y-26691D02*
X112060D01*
Y-26232D01*
X111987Y-26327D01*
X111914Y-26407D01*
X111834Y-26480D01*
X111746Y-26546D01*
X111666Y-26597D01*
X111579Y-26640D01*
X111498Y-26677D01*
X111418Y-26706D01*
X111272Y-26743D01*
X111207Y-26757D01*
X111156Y-26764D01*
X111112D01*
X111075Y-26772D01*
X111046D01*
X110930Y-26764D01*
X110813Y-26750D01*
X110704Y-26728D01*
X110602Y-26691D01*
X110405Y-26611D01*
X110325Y-26560D01*
X110244Y-26517D01*
X110171Y-26465D01*
X110113Y-26422D01*
X110062Y-26378D01*
X110011Y-26342D01*
X109975Y-26305D01*
X109953Y-26283D01*
X109938Y-26269D01*
X109931Y-26261D01*
X109851Y-26159D01*
X109778Y-26050D01*
X109712Y-25941D01*
X109661Y-25817D01*
X109617Y-25700D01*
X109581Y-25576D01*
X109523Y-25343D01*
X109501Y-25234D01*
X109486Y-25131D01*
X109479Y-25044D01*
X109472Y-24964D01*
X109464Y-24898D01*
Y-24854D01*
Y-24818D01*
Y-24811D01*
X109472Y-24665D01*
X109479Y-24526D01*
X109501Y-24402D01*
X109523Y-24293D01*
X109545Y-24198D01*
X109559Y-24125D01*
X109566Y-24103D01*
X109574Y-24082D01*
X109581Y-24074D01*
Y-24067D01*
X109625Y-23943D01*
X109676Y-23826D01*
X109727Y-23724D01*
X109778Y-23637D01*
X109822Y-23571D01*
X109858Y-23520D01*
X109880Y-23484D01*
X109887Y-23477D01*
X109960Y-23389D01*
X110048Y-23309D01*
X110128Y-23243D01*
X110208Y-23192D01*
X110274Y-23148D01*
X110332Y-23112D01*
X110368Y-23098D01*
X110383Y-23090D01*
X110492Y-23046D01*
X110609Y-23010D01*
X110718Y-22988D01*
X110813Y-22966D01*
X110893Y-22959D01*
X110959Y-22952D01*
X111017D01*
X111126Y-22959D01*
X111236Y-22974D01*
X111338Y-22995D01*
X111433Y-23032D01*
X111600Y-23105D01*
X111746Y-23200D01*
X111804Y-23243D01*
X111863Y-23287D01*
X111907Y-23331D01*
X111943Y-23367D01*
X111979Y-23404D01*
X112001Y-23426D01*
X112009Y-23440D01*
X112016Y-23447D01*
Y-21647D01*
X112636D01*
Y-26691D01*
D02*
G37*
G36*
X104675Y-22128D02*
Y-23032D01*
X105134D01*
Y-23513D01*
X104675D01*
Y-25627D01*
Y-25729D01*
Y-25817D01*
X104668Y-25897D01*
X104660Y-25977D01*
Y-26043D01*
X104653Y-26101D01*
X104638Y-26196D01*
X104624Y-26269D01*
X104616Y-26320D01*
X104602Y-26349D01*
Y-26356D01*
X104573Y-26422D01*
X104529Y-26473D01*
X104485Y-26524D01*
X104449Y-26560D01*
X104405Y-26597D01*
X104376Y-26619D01*
X104354Y-26633D01*
X104347Y-26640D01*
X104267Y-26677D01*
X104186Y-26699D01*
X104099Y-26721D01*
X104011Y-26728D01*
X103939Y-26735D01*
X103880Y-26743D01*
X103822D01*
X103662Y-26735D01*
X103581Y-26728D01*
X103508Y-26713D01*
X103443Y-26706D01*
X103392Y-26699D01*
X103363Y-26691D01*
X103348D01*
X103428Y-26145D01*
X103487Y-26152D01*
X103545Y-26159D01*
X103596D01*
X103632Y-26167D01*
X103705D01*
X103800Y-26159D01*
X103866Y-26145D01*
X103902Y-26130D01*
X103917Y-26123D01*
X103968Y-26086D01*
X103997Y-26050D01*
X104019Y-26021D01*
X104026Y-26006D01*
X104033Y-25970D01*
X104041Y-25919D01*
X104048Y-25802D01*
X104055Y-25751D01*
Y-25707D01*
Y-25678D01*
Y-25664D01*
Y-23513D01*
X103428D01*
Y-23032D01*
X104055D01*
Y-21756D01*
X104675Y-22128D01*
D02*
G37*
G36*
X99944Y-22959D02*
X100104Y-22988D01*
X100257Y-23025D01*
X100381Y-23061D01*
X100490Y-23105D01*
X100534Y-23127D01*
X100571Y-23141D01*
X100600Y-23156D01*
X100622Y-23170D01*
X100636Y-23178D01*
X100644D01*
X100782Y-23265D01*
X100906Y-23374D01*
X101008Y-23484D01*
X101095Y-23593D01*
X101161Y-23688D01*
X101205Y-23768D01*
X101219Y-23797D01*
X101234Y-23819D01*
X101241Y-23834D01*
Y-23841D01*
X101307Y-24016D01*
X101351Y-24191D01*
X101387Y-24366D01*
X101409Y-24526D01*
X101416Y-24599D01*
X101424Y-24665D01*
Y-24723D01*
X101431Y-24774D01*
Y-24818D01*
Y-24847D01*
Y-24869D01*
Y-24876D01*
X101424Y-25044D01*
X101409Y-25197D01*
X101387Y-25350D01*
X101358Y-25481D01*
X101329Y-25613D01*
X101285Y-25722D01*
X101249Y-25831D01*
X101205Y-25926D01*
X101161Y-26006D01*
X101125Y-26079D01*
X101081Y-26145D01*
X101052Y-26196D01*
X101023Y-26232D01*
X101001Y-26261D01*
X100986Y-26276D01*
X100979Y-26283D01*
X100891Y-26371D01*
X100797Y-26444D01*
X100702Y-26509D01*
X100600Y-26568D01*
X100498Y-26611D01*
X100403Y-26655D01*
X100206Y-26713D01*
X100119Y-26728D01*
X100038Y-26743D01*
X99966Y-26757D01*
X99900Y-26764D01*
X99849Y-26772D01*
X99776D01*
X99667Y-26764D01*
X99557Y-26757D01*
X99368Y-26713D01*
X99193Y-26662D01*
X99047Y-26597D01*
X98989Y-26560D01*
X98930Y-26531D01*
X98879Y-26502D01*
X98843Y-26473D01*
X98814Y-26451D01*
X98792Y-26436D01*
X98777Y-26429D01*
X98770Y-26422D01*
X98697Y-26349D01*
X98631Y-26276D01*
X98515Y-26116D01*
X98420Y-25948D01*
X98354Y-25795D01*
X98303Y-25649D01*
X98289Y-25591D01*
X98274Y-25532D01*
X98267Y-25489D01*
X98260Y-25460D01*
X98252Y-25438D01*
Y-25430D01*
X98865Y-25350D01*
X98894Y-25510D01*
X98938Y-25656D01*
X98996Y-25773D01*
X99047Y-25868D01*
X99098Y-25948D01*
X99142Y-25999D01*
X99164Y-26035D01*
X99178Y-26043D01*
X99273Y-26116D01*
X99375Y-26167D01*
X99477Y-26210D01*
X99572Y-26232D01*
X99652Y-26247D01*
X99725Y-26254D01*
X99769Y-26261D01*
X99783D01*
X99863Y-26254D01*
X99944Y-26247D01*
X100089Y-26210D01*
X100213Y-26159D01*
X100323Y-26094D01*
X100403Y-26035D01*
X100469Y-25984D01*
X100505Y-25948D01*
X100520Y-25933D01*
X100571Y-25868D01*
X100614Y-25787D01*
X100680Y-25627D01*
X100731Y-25445D01*
X100760Y-25270D01*
X100782Y-25109D01*
X100789Y-25044D01*
Y-24978D01*
X100797Y-24935D01*
Y-24891D01*
Y-24869D01*
Y-24862D01*
Y-24730D01*
X100782Y-24607D01*
X100767Y-24490D01*
X100753Y-24388D01*
X100731Y-24293D01*
X100702Y-24206D01*
X100680Y-24125D01*
X100651Y-24053D01*
X100622Y-23994D01*
X100600Y-23943D01*
X100571Y-23899D01*
X100549Y-23863D01*
X100534Y-23834D01*
X100520Y-23812D01*
X100505Y-23805D01*
Y-23797D01*
X100447Y-23739D01*
X100388Y-23688D01*
X100264Y-23600D01*
X100133Y-23542D01*
X100016Y-23506D01*
X99907Y-23477D01*
X99827Y-23469D01*
X99791Y-23462D01*
X99747D01*
X99638Y-23469D01*
X99535Y-23491D01*
X99448Y-23520D01*
X99368Y-23557D01*
X99309Y-23593D01*
X99258Y-23622D01*
X99229Y-23644D01*
X99222Y-23652D01*
X99149Y-23724D01*
X99083Y-23812D01*
X99025Y-23907D01*
X98989Y-23994D01*
X98952Y-24074D01*
X98930Y-24140D01*
X98923Y-24184D01*
X98916Y-24191D01*
Y-24198D01*
X98311Y-24103D01*
X98362Y-23907D01*
X98435Y-23739D01*
X98515Y-23593D01*
X98595Y-23477D01*
X98675Y-23382D01*
X98741Y-23316D01*
X98785Y-23272D01*
X98792Y-23258D01*
X98799D01*
X98952Y-23156D01*
X99113Y-23083D01*
X99273Y-23025D01*
X99426Y-22988D01*
X99565Y-22966D01*
X99623Y-22959D01*
X99667D01*
X99710Y-22952D01*
X99769D01*
X99944Y-22959D01*
D02*
G37*
G36*
X117629D02*
X117702Y-22974D01*
X117775Y-22995D01*
X117833Y-23017D01*
X117877Y-23039D01*
X117921Y-23061D01*
X117943Y-23076D01*
X117950Y-23083D01*
X118016Y-23141D01*
X118081Y-23214D01*
X118147Y-23302D01*
X118205Y-23382D01*
X118263Y-23462D01*
X118300Y-23528D01*
X118329Y-23579D01*
X118336Y-23586D01*
Y-23032D01*
X118898D01*
Y-26691D01*
X118278D01*
Y-24781D01*
X118271Y-24636D01*
X118263Y-24505D01*
X118249Y-24381D01*
X118227Y-24271D01*
X118205Y-24184D01*
X118191Y-24118D01*
X118183Y-24074D01*
X118176Y-24060D01*
X118147Y-23980D01*
X118110Y-23914D01*
X118074Y-23856D01*
X118037Y-23805D01*
X118001Y-23768D01*
X117979Y-23739D01*
X117957Y-23724D01*
X117950Y-23717D01*
X117892Y-23673D01*
X117826Y-23644D01*
X117760Y-23622D01*
X117709Y-23608D01*
X117658Y-23600D01*
X117622Y-23593D01*
X117585D01*
X117505Y-23600D01*
X117425Y-23615D01*
X117345Y-23637D01*
X117279Y-23659D01*
X117221Y-23681D01*
X117177Y-23703D01*
X117148Y-23717D01*
X117141Y-23724D01*
X116915Y-23156D01*
X117039Y-23090D01*
X117155Y-23039D01*
X117257Y-23003D01*
X117352Y-22974D01*
X117432Y-22959D01*
X117498Y-22952D01*
X117549D01*
X117629Y-22959D01*
D02*
G37*
G36*
X102816Y-26691D02*
X102196D01*
Y-23032D01*
X102816D01*
Y-26691D01*
D02*
G37*
G36*
X115187Y-22959D02*
X115304Y-22966D01*
X115530Y-23017D01*
X115726Y-23083D01*
X115814Y-23119D01*
X115894Y-23156D01*
X115967Y-23192D01*
X116025Y-23229D01*
X116084Y-23265D01*
X116127Y-23294D01*
X116164Y-23324D01*
X116193Y-23345D01*
X116208Y-23353D01*
X116215Y-23360D01*
X116317Y-23455D01*
X116397Y-23564D01*
X116477Y-23681D01*
X116536Y-23797D01*
X116594Y-23921D01*
X116638Y-24053D01*
X116674Y-24176D01*
X116703Y-24293D01*
X116733Y-24410D01*
X116747Y-24512D01*
X116762Y-24614D01*
X116769Y-24694D01*
Y-24767D01*
X116776Y-24818D01*
Y-24847D01*
Y-24862D01*
X116769Y-25029D01*
X116754Y-25190D01*
X116733Y-25335D01*
X116703Y-25474D01*
X116667Y-25598D01*
X116630Y-25715D01*
X116587Y-25824D01*
X116543Y-25919D01*
X116499Y-26006D01*
X116455Y-26079D01*
X116419Y-26137D01*
X116383Y-26188D01*
X116353Y-26232D01*
X116332Y-26261D01*
X116317Y-26276D01*
X116310Y-26283D01*
X116215Y-26371D01*
X116120Y-26444D01*
X116018Y-26509D01*
X115916Y-26568D01*
X115814Y-26611D01*
X115705Y-26655D01*
X115508Y-26713D01*
X115420Y-26728D01*
X115333Y-26743D01*
X115260Y-26757D01*
X115194Y-26764D01*
X115136Y-26772D01*
X115063D01*
X114888Y-26764D01*
X114728Y-26735D01*
X114575Y-26699D01*
X114451Y-26662D01*
X114341Y-26619D01*
X114298Y-26604D01*
X114261Y-26589D01*
X114225Y-26575D01*
X114203Y-26560D01*
X114196Y-26553D01*
X114188D01*
X114042Y-26458D01*
X113919Y-26356D01*
X113809Y-26254D01*
X113722Y-26152D01*
X113656Y-26065D01*
X113605Y-25992D01*
X113591Y-25962D01*
X113576Y-25941D01*
X113569Y-25933D01*
Y-25926D01*
X113496Y-25758D01*
X113445Y-25576D01*
X113401Y-25394D01*
X113379Y-25212D01*
X113365Y-25131D01*
Y-25058D01*
X113357Y-24986D01*
X113350Y-24927D01*
Y-24876D01*
Y-24840D01*
Y-24818D01*
Y-24811D01*
X113357Y-24650D01*
X113372Y-24505D01*
X113394Y-24366D01*
X113423Y-24235D01*
X113459Y-24111D01*
X113503Y-24001D01*
X113547Y-23892D01*
X113591Y-23805D01*
X113634Y-23724D01*
X113678Y-23652D01*
X113722Y-23586D01*
X113758Y-23535D01*
X113787Y-23498D01*
X113809Y-23469D01*
X113824Y-23455D01*
X113831Y-23447D01*
X113926Y-23360D01*
X114021Y-23287D01*
X114123Y-23214D01*
X114225Y-23163D01*
X114327Y-23112D01*
X114429Y-23076D01*
X114626Y-23010D01*
X114720Y-22995D01*
X114801Y-22981D01*
X114874Y-22966D01*
X114939Y-22959D01*
X114990Y-22952D01*
X115063D01*
X115187Y-22959D01*
D02*
G37*
G36*
X107343D02*
X107460Y-22966D01*
X107686Y-23017D01*
X107882Y-23083D01*
X107970Y-23119D01*
X108050Y-23156D01*
X108123Y-23192D01*
X108181Y-23229D01*
X108240Y-23265D01*
X108283Y-23294D01*
X108320Y-23324D01*
X108349Y-23345D01*
X108364Y-23353D01*
X108371Y-23360D01*
X108473Y-23455D01*
X108553Y-23564D01*
X108633Y-23681D01*
X108692Y-23797D01*
X108750Y-23921D01*
X108794Y-24053D01*
X108830Y-24176D01*
X108859Y-24293D01*
X108888Y-24410D01*
X108903Y-24512D01*
X108918Y-24614D01*
X108925Y-24694D01*
Y-24767D01*
X108932Y-24818D01*
Y-24847D01*
Y-24862D01*
X108925Y-25029D01*
X108910Y-25190D01*
X108888Y-25335D01*
X108859Y-25474D01*
X108823Y-25598D01*
X108786Y-25715D01*
X108743Y-25824D01*
X108699Y-25919D01*
X108655Y-26006D01*
X108611Y-26079D01*
X108575Y-26137D01*
X108539Y-26188D01*
X108509Y-26232D01*
X108487Y-26261D01*
X108473Y-26276D01*
X108466Y-26283D01*
X108371Y-26371D01*
X108276Y-26444D01*
X108174Y-26509D01*
X108072Y-26568D01*
X107970Y-26611D01*
X107861Y-26655D01*
X107664Y-26713D01*
X107576Y-26728D01*
X107489Y-26743D01*
X107416Y-26757D01*
X107350Y-26764D01*
X107292Y-26772D01*
X107219D01*
X107044Y-26764D01*
X106884Y-26735D01*
X106731Y-26699D01*
X106607Y-26662D01*
X106497Y-26619D01*
X106454Y-26604D01*
X106417Y-26589D01*
X106381Y-26575D01*
X106359Y-26560D01*
X106351Y-26553D01*
X106344D01*
X106199Y-26458D01*
X106075Y-26356D01*
X105965Y-26254D01*
X105878Y-26152D01*
X105812Y-26065D01*
X105761Y-25992D01*
X105746Y-25962D01*
X105732Y-25941D01*
X105725Y-25933D01*
Y-25926D01*
X105652Y-25758D01*
X105601Y-25576D01*
X105557Y-25394D01*
X105535Y-25212D01*
X105520Y-25131D01*
Y-25058D01*
X105513Y-24986D01*
X105506Y-24927D01*
Y-24876D01*
Y-24840D01*
Y-24818D01*
Y-24811D01*
X105513Y-24650D01*
X105528Y-24505D01*
X105550Y-24366D01*
X105579Y-24235D01*
X105615Y-24111D01*
X105659Y-24001D01*
X105703Y-23892D01*
X105746Y-23805D01*
X105790Y-23724D01*
X105834Y-23652D01*
X105878Y-23586D01*
X105914Y-23535D01*
X105943Y-23498D01*
X105965Y-23469D01*
X105980Y-23455D01*
X105987Y-23447D01*
X106082Y-23360D01*
X106177Y-23287D01*
X106279Y-23214D01*
X106381Y-23163D01*
X106483Y-23112D01*
X106585Y-23076D01*
X106782Y-23010D01*
X106876Y-22995D01*
X106957Y-22981D01*
X107029Y-22966D01*
X107095Y-22959D01*
X107146Y-22952D01*
X107219D01*
X107343Y-22959D01*
D02*
G37*
G36*
X96729Y-22966D02*
X96816Y-22974D01*
X96896Y-22988D01*
X96962Y-23003D01*
X97013Y-23017D01*
X97042Y-23025D01*
X97057Y-23032D01*
X97144Y-23061D01*
X97224Y-23090D01*
X97290Y-23119D01*
X97348Y-23148D01*
X97392Y-23170D01*
X97421Y-23192D01*
X97443Y-23200D01*
X97451Y-23207D01*
X97523Y-23258D01*
X97582Y-23316D01*
X97633Y-23382D01*
X97676Y-23433D01*
X97713Y-23484D01*
X97735Y-23520D01*
X97749Y-23550D01*
X97757Y-23557D01*
X97793Y-23637D01*
X97822Y-23710D01*
X97837Y-23790D01*
X97851Y-23856D01*
X97859Y-23921D01*
X97866Y-23965D01*
Y-23994D01*
Y-24009D01*
X97859Y-24111D01*
X97844Y-24198D01*
X97822Y-24286D01*
X97800Y-24359D01*
X97778Y-24417D01*
X97757Y-24468D01*
X97742Y-24497D01*
X97735Y-24505D01*
X97676Y-24585D01*
X97611Y-24650D01*
X97545Y-24709D01*
X97480Y-24760D01*
X97421Y-24796D01*
X97378Y-24825D01*
X97348Y-24840D01*
X97334Y-24847D01*
X97283Y-24869D01*
X97217Y-24898D01*
X97071Y-24949D01*
X96918Y-24993D01*
X96758Y-25044D01*
X96619Y-25080D01*
X96554Y-25102D01*
X96495Y-25117D01*
X96452Y-25131D01*
X96415Y-25139D01*
X96393Y-25146D01*
X96386D01*
X96291Y-25168D01*
X96211Y-25190D01*
X96138Y-25212D01*
X96073Y-25234D01*
X96014Y-25248D01*
X95963Y-25270D01*
X95876Y-25299D01*
X95818Y-25321D01*
X95781Y-25343D01*
X95759Y-25350D01*
X95752Y-25357D01*
X95686Y-25401D01*
X95643Y-25460D01*
X95606Y-25510D01*
X95584Y-25561D01*
X95570Y-25613D01*
X95562Y-25649D01*
Y-25678D01*
Y-25685D01*
X95570Y-25773D01*
X95591Y-25846D01*
X95628Y-25919D01*
X95664Y-25977D01*
X95708Y-26028D01*
X95737Y-26065D01*
X95767Y-26086D01*
X95774Y-26094D01*
X95861Y-26152D01*
X95956Y-26188D01*
X96065Y-26218D01*
X96167Y-26239D01*
X96262Y-26254D01*
X96335Y-26261D01*
X96408D01*
X96561Y-26254D01*
X96692Y-26232D01*
X96802Y-26203D01*
X96896Y-26167D01*
X96969Y-26130D01*
X97028Y-26101D01*
X97057Y-26079D01*
X97071Y-26072D01*
X97152Y-25992D01*
X97217Y-25897D01*
X97261Y-25802D01*
X97297Y-25715D01*
X97326Y-25634D01*
X97341Y-25561D01*
X97356Y-25518D01*
Y-25510D01*
Y-25503D01*
X97968Y-25598D01*
X97917Y-25802D01*
X97851Y-25984D01*
X97771Y-26130D01*
X97691Y-26254D01*
X97618Y-26356D01*
X97553Y-26422D01*
X97509Y-26465D01*
X97501Y-26473D01*
X97494Y-26480D01*
X97421Y-26531D01*
X97341Y-26575D01*
X97166Y-26648D01*
X96984Y-26699D01*
X96809Y-26735D01*
X96729Y-26750D01*
X96656Y-26757D01*
X96583Y-26764D01*
X96525D01*
X96474Y-26772D01*
X96408D01*
X96248Y-26764D01*
X96109Y-26750D01*
X95978Y-26728D01*
X95861Y-26699D01*
X95767Y-26670D01*
X95694Y-26648D01*
X95650Y-26633D01*
X95643Y-26626D01*
X95635D01*
X95511Y-26560D01*
X95409Y-26495D01*
X95322Y-26422D01*
X95242Y-26356D01*
X95183Y-26298D01*
X95147Y-26247D01*
X95118Y-26218D01*
X95110Y-26203D01*
X95052Y-26101D01*
X95008Y-25992D01*
X94972Y-25897D01*
X94950Y-25809D01*
X94935Y-25729D01*
X94928Y-25671D01*
Y-25634D01*
Y-25620D01*
X94935Y-25503D01*
X94950Y-25401D01*
X94979Y-25314D01*
X95001Y-25234D01*
X95030Y-25168D01*
X95059Y-25124D01*
X95074Y-25095D01*
X95081Y-25088D01*
X95139Y-25015D01*
X95205Y-24949D01*
X95271Y-24891D01*
X95336Y-24847D01*
X95402Y-24811D01*
X95446Y-24789D01*
X95475Y-24774D01*
X95489Y-24767D01*
X95540Y-24745D01*
X95599Y-24723D01*
X95737Y-24672D01*
X95890Y-24621D01*
X96043Y-24577D01*
X96182Y-24534D01*
X96248Y-24519D01*
X96299Y-24505D01*
X96342Y-24490D01*
X96379Y-24483D01*
X96401Y-24475D01*
X96408D01*
X96488Y-24453D01*
X96561Y-24432D01*
X96627Y-24417D01*
X96685Y-24395D01*
X96780Y-24373D01*
X96853Y-24351D01*
X96904Y-24329D01*
X96933Y-24322D01*
X96947Y-24315D01*
X96955D01*
X97013Y-24286D01*
X97064Y-24264D01*
X97108Y-24235D01*
X97137Y-24213D01*
X97166Y-24191D01*
X97181Y-24169D01*
X97188Y-24162D01*
X97195Y-24155D01*
X97239Y-24082D01*
X97261Y-24009D01*
Y-23980D01*
X97268Y-23958D01*
Y-23943D01*
Y-23936D01*
X97261Y-23870D01*
X97239Y-23805D01*
X97210Y-23746D01*
X97173Y-23703D01*
X97144Y-23659D01*
X97115Y-23630D01*
X97093Y-23615D01*
X97086Y-23608D01*
X97006Y-23557D01*
X96911Y-23520D01*
X96809Y-23498D01*
X96714Y-23477D01*
X96619Y-23469D01*
X96547Y-23462D01*
X96474D01*
X96350Y-23469D01*
X96233Y-23484D01*
X96138Y-23513D01*
X96065Y-23542D01*
X96000Y-23571D01*
X95956Y-23600D01*
X95927Y-23615D01*
X95920Y-23622D01*
X95847Y-23688D01*
X95796Y-23761D01*
X95752Y-23834D01*
X95715Y-23899D01*
X95694Y-23965D01*
X95679Y-24016D01*
X95672Y-24045D01*
Y-24060D01*
X95067Y-23980D01*
X95096Y-23856D01*
X95125Y-23746D01*
X95161Y-23652D01*
X95198Y-23564D01*
X95234Y-23506D01*
X95263Y-23455D01*
X95278Y-23426D01*
X95285Y-23418D01*
X95351Y-23345D01*
X95424Y-23280D01*
X95504Y-23221D01*
X95584Y-23170D01*
X95657Y-23134D01*
X95715Y-23105D01*
X95752Y-23090D01*
X95759Y-23083D01*
X95767D01*
X95890Y-23039D01*
X96022Y-23010D01*
X96146Y-22981D01*
X96262Y-22966D01*
X96372Y-22959D01*
X96452Y-22952D01*
X96627D01*
X96729Y-22966D01*
D02*
G37*
G36*
X118898Y-32991D02*
X118278D01*
Y-30993D01*
X118271Y-30840D01*
X118263Y-30709D01*
X118249Y-30592D01*
X118227Y-30498D01*
X118205Y-30425D01*
X118191Y-30366D01*
X118183Y-30337D01*
X118176Y-30323D01*
X118132Y-30235D01*
X118081Y-30155D01*
X118023Y-30089D01*
X117964Y-30031D01*
X117913Y-29987D01*
X117870Y-29958D01*
X117841Y-29936D01*
X117833Y-29929D01*
X117738Y-29878D01*
X117651Y-29841D01*
X117564Y-29820D01*
X117491Y-29798D01*
X117418Y-29790D01*
X117367Y-29783D01*
X117323D01*
X117192Y-29790D01*
X117075Y-29820D01*
X116980Y-29849D01*
X116900Y-29892D01*
X116835Y-29929D01*
X116791Y-29965D01*
X116762Y-29994D01*
X116754Y-30002D01*
X116689Y-30089D01*
X116638Y-30199D01*
X116601Y-30308D01*
X116572Y-30417D01*
X116558Y-30519D01*
X116550Y-30600D01*
Y-30629D01*
Y-30651D01*
Y-30665D01*
Y-30672D01*
Y-32991D01*
X115931D01*
Y-30680D01*
X115938Y-30490D01*
X115953Y-30323D01*
X115974Y-30184D01*
X115996Y-30067D01*
X116018Y-29973D01*
X116040Y-29907D01*
X116054Y-29871D01*
X116062Y-29856D01*
X116120Y-29754D01*
X116186Y-29666D01*
X116259Y-29594D01*
X116324Y-29528D01*
X116390Y-29477D01*
X116441Y-29440D01*
X116477Y-29419D01*
X116492Y-29411D01*
X116609Y-29360D01*
X116725Y-29316D01*
X116842Y-29287D01*
X116951Y-29273D01*
X117046Y-29258D01*
X117126Y-29251D01*
X117192D01*
X117308Y-29258D01*
X117425Y-29273D01*
X117534Y-29295D01*
X117637Y-29331D01*
X117826Y-29411D01*
X117906Y-29455D01*
X117979Y-29499D01*
X118045Y-29550D01*
X118110Y-29594D01*
X118161Y-29637D01*
X118198Y-29674D01*
X118234Y-29710D01*
X118256Y-29732D01*
X118271Y-29747D01*
X118278Y-29754D01*
Y-27946D01*
X118898D01*
Y-32991D01*
D02*
G37*
G36*
X113605Y-29258D02*
X113758Y-29273D01*
X113904Y-29295D01*
X114021Y-29316D01*
X114123Y-29338D01*
X114196Y-29360D01*
X114225Y-29368D01*
X114247Y-29375D01*
X114254Y-29382D01*
X114261D01*
X114385Y-29433D01*
X114495Y-29499D01*
X114589Y-29557D01*
X114669Y-29615D01*
X114728Y-29674D01*
X114771Y-29717D01*
X114801Y-29747D01*
X114808Y-29754D01*
X114874Y-29849D01*
X114932Y-29951D01*
X114976Y-30053D01*
X115012Y-30148D01*
X115041Y-30242D01*
X115063Y-30308D01*
X115070Y-30337D01*
Y-30359D01*
X115078Y-30366D01*
Y-30374D01*
X114473Y-30454D01*
X114429Y-30323D01*
X114385Y-30206D01*
X114334Y-30111D01*
X114290Y-30038D01*
X114247Y-29980D01*
X114210Y-29943D01*
X114181Y-29922D01*
X114174Y-29914D01*
X114086Y-29863D01*
X113984Y-29827D01*
X113875Y-29798D01*
X113773Y-29783D01*
X113671Y-29768D01*
X113598Y-29761D01*
X113525D01*
X113357Y-29768D01*
X113211Y-29790D01*
X113095Y-29827D01*
X112993Y-29863D01*
X112920Y-29907D01*
X112862Y-29936D01*
X112825Y-29965D01*
X112818Y-29973D01*
X112759Y-30038D01*
X112716Y-30118D01*
X112679Y-30206D01*
X112657Y-30293D01*
X112643Y-30374D01*
X112636Y-30446D01*
Y-30490D01*
Y-30498D01*
Y-30505D01*
Y-30519D01*
Y-30549D01*
Y-30600D01*
X112643Y-30643D01*
Y-30658D01*
Y-30665D01*
X112716Y-30687D01*
X112796Y-30709D01*
X112964Y-30753D01*
X113153Y-30789D01*
X113328Y-30825D01*
X113416Y-30840D01*
X113496Y-30847D01*
X113569Y-30862D01*
X113627Y-30869D01*
X113678Y-30877D01*
X113714D01*
X113744Y-30884D01*
X113751D01*
X113882Y-30898D01*
X113991Y-30920D01*
X114086Y-30935D01*
X114159Y-30950D01*
X114217Y-30957D01*
X114261Y-30971D01*
X114290Y-30979D01*
X114298D01*
X114392Y-31008D01*
X114473Y-31037D01*
X114553Y-31073D01*
X114618Y-31103D01*
X114677Y-31132D01*
X114713Y-31161D01*
X114742Y-31176D01*
X114750Y-31183D01*
X114822Y-31234D01*
X114881Y-31292D01*
X114939Y-31350D01*
X114983Y-31409D01*
X115019Y-31460D01*
X115049Y-31503D01*
X115063Y-31533D01*
X115070Y-31540D01*
X115107Y-31620D01*
X115136Y-31708D01*
X115158Y-31788D01*
X115172Y-31868D01*
X115180Y-31934D01*
X115187Y-31985D01*
Y-32014D01*
Y-32028D01*
X115180Y-32116D01*
X115172Y-32189D01*
X115136Y-32342D01*
X115085Y-32466D01*
X115027Y-32575D01*
X114968Y-32663D01*
X114917Y-32728D01*
X114881Y-32765D01*
X114866Y-32779D01*
X114735Y-32874D01*
X114589Y-32947D01*
X114429Y-32998D01*
X114283Y-33034D01*
X114152Y-33056D01*
X114093Y-33064D01*
X114042D01*
X113999Y-33071D01*
X113940D01*
X113809Y-33064D01*
X113678Y-33049D01*
X113561Y-33034D01*
X113459Y-33013D01*
X113379Y-32991D01*
X113313Y-32969D01*
X113270Y-32961D01*
X113255Y-32954D01*
X113131Y-32903D01*
X113015Y-32838D01*
X112905Y-32765D01*
X112796Y-32699D01*
X112708Y-32634D01*
X112643Y-32582D01*
X112599Y-32546D01*
X112592Y-32531D01*
X112584D01*
X112570Y-32626D01*
X112555Y-32714D01*
X112541Y-32794D01*
X112519Y-32860D01*
X112497Y-32918D01*
X112482Y-32954D01*
X112475Y-32983D01*
X112468Y-32991D01*
X111819D01*
X111855Y-32910D01*
X111892Y-32830D01*
X111921Y-32757D01*
X111936Y-32692D01*
X111958Y-32634D01*
X111965Y-32590D01*
X111972Y-32561D01*
Y-32553D01*
X111979Y-32502D01*
X111987Y-32437D01*
Y-32364D01*
X111994Y-32284D01*
X112001Y-32101D01*
Y-31919D01*
X112009Y-31744D01*
Y-31664D01*
Y-31598D01*
Y-31540D01*
Y-31496D01*
Y-31467D01*
Y-31460D01*
Y-30629D01*
Y-30490D01*
X112016Y-30366D01*
X112023Y-30272D01*
Y-30191D01*
X112030Y-30133D01*
X112038Y-30089D01*
X112045Y-30067D01*
Y-30060D01*
X112067Y-29965D01*
X112096Y-29885D01*
X112125Y-29820D01*
X112162Y-29754D01*
X112191Y-29710D01*
X112213Y-29674D01*
X112227Y-29652D01*
X112235Y-29645D01*
X112293Y-29586D01*
X112358Y-29528D01*
X112431Y-29484D01*
X112504Y-29440D01*
X112570Y-29411D01*
X112621Y-29389D01*
X112657Y-29375D01*
X112672Y-29368D01*
X112789Y-29331D01*
X112912Y-29302D01*
X113037Y-29280D01*
X113160Y-29265D01*
X113270Y-29258D01*
X113350Y-29251D01*
X113430D01*
X113605Y-29258D01*
D02*
G37*
G36*
X98325D02*
X98478Y-29273D01*
X98624Y-29295D01*
X98741Y-29316D01*
X98843Y-29338D01*
X98916Y-29360D01*
X98945Y-29368D01*
X98967Y-29375D01*
X98974Y-29382D01*
X98981D01*
X99105Y-29433D01*
X99215Y-29499D01*
X99309Y-29557D01*
X99390Y-29615D01*
X99448Y-29674D01*
X99492Y-29717D01*
X99521Y-29747D01*
X99528Y-29754D01*
X99594Y-29849D01*
X99652Y-29951D01*
X99696Y-30053D01*
X99732Y-30148D01*
X99761Y-30242D01*
X99783Y-30308D01*
X99791Y-30337D01*
Y-30359D01*
X99798Y-30366D01*
Y-30374D01*
X99193Y-30454D01*
X99149Y-30323D01*
X99105Y-30206D01*
X99054Y-30111D01*
X99010Y-30038D01*
X98967Y-29980D01*
X98930Y-29943D01*
X98901Y-29922D01*
X98894Y-29914D01*
X98806Y-29863D01*
X98704Y-29827D01*
X98595Y-29798D01*
X98493Y-29783D01*
X98391Y-29768D01*
X98318Y-29761D01*
X98245D01*
X98077Y-29768D01*
X97932Y-29790D01*
X97815Y-29827D01*
X97713Y-29863D01*
X97640Y-29907D01*
X97582Y-29936D01*
X97545Y-29965D01*
X97538Y-29973D01*
X97480Y-30038D01*
X97436Y-30118D01*
X97399Y-30206D01*
X97378Y-30293D01*
X97363Y-30374D01*
X97356Y-30446D01*
Y-30490D01*
Y-30498D01*
Y-30505D01*
Y-30519D01*
Y-30549D01*
Y-30600D01*
X97363Y-30643D01*
Y-30658D01*
Y-30665D01*
X97436Y-30687D01*
X97516Y-30709D01*
X97684Y-30753D01*
X97873Y-30789D01*
X98048Y-30825D01*
X98136Y-30840D01*
X98216Y-30847D01*
X98289Y-30862D01*
X98347Y-30869D01*
X98398Y-30877D01*
X98435D01*
X98464Y-30884D01*
X98471D01*
X98602Y-30898D01*
X98712Y-30920D01*
X98806Y-30935D01*
X98879Y-30950D01*
X98938Y-30957D01*
X98981Y-30971D01*
X99010Y-30979D01*
X99018D01*
X99113Y-31008D01*
X99193Y-31037D01*
X99273Y-31073D01*
X99339Y-31103D01*
X99397Y-31132D01*
X99433Y-31161D01*
X99462Y-31176D01*
X99470Y-31183D01*
X99543Y-31234D01*
X99601Y-31292D01*
X99659Y-31350D01*
X99703Y-31409D01*
X99739Y-31460D01*
X99769Y-31503D01*
X99783Y-31533D01*
X99791Y-31540D01*
X99827Y-31620D01*
X99856Y-31708D01*
X99878Y-31788D01*
X99893Y-31868D01*
X99900Y-31934D01*
X99907Y-31985D01*
Y-32014D01*
Y-32028D01*
X99900Y-32116D01*
X99893Y-32189D01*
X99856Y-32342D01*
X99805Y-32466D01*
X99747Y-32575D01*
X99689Y-32663D01*
X99638Y-32728D01*
X99601Y-32765D01*
X99586Y-32779D01*
X99455Y-32874D01*
X99309Y-32947D01*
X99149Y-32998D01*
X99003Y-33034D01*
X98872Y-33056D01*
X98814Y-33064D01*
X98763D01*
X98719Y-33071D01*
X98661D01*
X98529Y-33064D01*
X98398Y-33049D01*
X98282Y-33034D01*
X98179Y-33013D01*
X98099Y-32991D01*
X98034Y-32969D01*
X97990Y-32961D01*
X97975Y-32954D01*
X97851Y-32903D01*
X97735Y-32838D01*
X97625Y-32765D01*
X97516Y-32699D01*
X97429Y-32634D01*
X97363Y-32582D01*
X97319Y-32546D01*
X97312Y-32531D01*
X97305D01*
X97290Y-32626D01*
X97276Y-32714D01*
X97261Y-32794D01*
X97239Y-32860D01*
X97217Y-32918D01*
X97203Y-32954D01*
X97195Y-32983D01*
X97188Y-32991D01*
X96539D01*
X96576Y-32910D01*
X96612Y-32830D01*
X96641Y-32757D01*
X96656Y-32692D01*
X96678Y-32634D01*
X96685Y-32590D01*
X96692Y-32561D01*
Y-32553D01*
X96700Y-32502D01*
X96707Y-32437D01*
Y-32364D01*
X96714Y-32284D01*
X96722Y-32101D01*
Y-31919D01*
X96729Y-31744D01*
Y-31664D01*
Y-31598D01*
Y-31540D01*
Y-31496D01*
Y-31467D01*
Y-31460D01*
Y-30629D01*
Y-30490D01*
X96736Y-30366D01*
X96743Y-30272D01*
Y-30191D01*
X96751Y-30133D01*
X96758Y-30089D01*
X96765Y-30067D01*
Y-30060D01*
X96787Y-29965D01*
X96816Y-29885D01*
X96845Y-29820D01*
X96882Y-29754D01*
X96911Y-29710D01*
X96933Y-29674D01*
X96947Y-29652D01*
X96955Y-29645D01*
X97013Y-29586D01*
X97079Y-29528D01*
X97152Y-29484D01*
X97224Y-29440D01*
X97290Y-29411D01*
X97341Y-29389D01*
X97378Y-29375D01*
X97392Y-29368D01*
X97509Y-29331D01*
X97633Y-29302D01*
X97757Y-29280D01*
X97881Y-29265D01*
X97990Y-29258D01*
X98070Y-29251D01*
X98150D01*
X98325Y-29258D01*
D02*
G37*
G36*
X104128Y-32991D02*
X103472D01*
X102736Y-30177D01*
X102590Y-30804D01*
X102007Y-32991D01*
X101373D01*
X100221Y-29331D01*
X100826D01*
X101453Y-31453D01*
X101664Y-32160D01*
X101846Y-31460D01*
X102393Y-29331D01*
X103027D01*
X103611Y-31482D01*
X103640Y-31606D01*
X103669Y-31715D01*
X103691Y-31810D01*
X103713Y-31890D01*
X103734Y-31963D01*
X103749Y-32021D01*
X103764Y-32072D01*
X103771Y-32116D01*
X103778Y-32152D01*
X103786Y-32174D01*
X103793Y-32211D01*
X103800Y-32225D01*
Y-32232D01*
X104004Y-31445D01*
X104587Y-29331D01*
X105236D01*
X104128Y-32991D01*
D02*
G37*
G36*
X92070Y-29258D02*
X92202Y-29273D01*
X92326Y-29295D01*
X92442Y-29331D01*
X92552Y-29368D01*
X92654Y-29411D01*
X92748Y-29455D01*
X92829Y-29506D01*
X92909Y-29550D01*
X92974Y-29601D01*
X93033Y-29645D01*
X93076Y-29681D01*
X93113Y-29717D01*
X93142Y-29739D01*
X93157Y-29754D01*
X93164Y-29761D01*
X93244Y-29863D01*
X93317Y-29973D01*
X93383Y-30082D01*
X93441Y-30199D01*
X93485Y-30323D01*
X93521Y-30439D01*
X93580Y-30672D01*
X93601Y-30775D01*
X93616Y-30877D01*
X93623Y-30964D01*
X93630Y-31044D01*
X93638Y-31110D01*
Y-31154D01*
Y-31190D01*
Y-31197D01*
X93630Y-31358D01*
X93616Y-31511D01*
X93594Y-31657D01*
X93565Y-31788D01*
X93528Y-31912D01*
X93492Y-32028D01*
X93448Y-32131D01*
X93405Y-32225D01*
X93361Y-32305D01*
X93317Y-32378D01*
X93281Y-32437D01*
X93244Y-32488D01*
X93215Y-32531D01*
X93193Y-32561D01*
X93178Y-32575D01*
X93171Y-32582D01*
X93076Y-32670D01*
X92982Y-32743D01*
X92880Y-32808D01*
X92770Y-32867D01*
X92668Y-32910D01*
X92559Y-32954D01*
X92355Y-33013D01*
X92260Y-33027D01*
X92172Y-33042D01*
X92092Y-33056D01*
X92027Y-33064D01*
X91976Y-33071D01*
X91896D01*
X91669Y-33056D01*
X91465Y-33020D01*
X91283Y-32976D01*
X91210Y-32947D01*
X91137Y-32918D01*
X91072Y-32889D01*
X91013Y-32860D01*
X90970Y-32838D01*
X90926Y-32816D01*
X90897Y-32794D01*
X90875Y-32779D01*
X90860Y-32765D01*
X90853D01*
X90707Y-32634D01*
X90591Y-32495D01*
X90488Y-32349D01*
X90416Y-32211D01*
X90357Y-32087D01*
X90335Y-32028D01*
X90314Y-31985D01*
X90299Y-31941D01*
X90292Y-31912D01*
X90284Y-31897D01*
Y-31890D01*
X90926Y-31810D01*
X90984Y-31948D01*
X91050Y-32065D01*
X91115Y-32167D01*
X91174Y-32247D01*
X91225Y-32305D01*
X91268Y-32349D01*
X91305Y-32378D01*
X91312Y-32386D01*
X91407Y-32444D01*
X91502Y-32488D01*
X91604Y-32517D01*
X91691Y-32539D01*
X91772Y-32553D01*
X91837Y-32561D01*
X91896D01*
X91983Y-32553D01*
X92063Y-32546D01*
X92209Y-32509D01*
X92340Y-32458D01*
X92457Y-32400D01*
X92544Y-32349D01*
X92610Y-32298D01*
X92654Y-32262D01*
X92661Y-32247D01*
X92668D01*
X92770Y-32116D01*
X92851Y-31970D01*
X92909Y-31810D01*
X92953Y-31664D01*
X92974Y-31533D01*
X92989Y-31474D01*
X92996Y-31423D01*
Y-31380D01*
X93003Y-31350D01*
Y-31329D01*
Y-31321D01*
X90270Y-31321D01*
X90263Y-31248D01*
Y-31197D01*
Y-31168D01*
Y-31161D01*
X90270Y-30993D01*
X90284Y-30840D01*
X90306Y-30694D01*
X90335Y-30556D01*
X90372Y-30432D01*
X90408Y-30315D01*
X90452Y-30213D01*
X90496Y-30118D01*
X90539Y-30031D01*
X90583Y-29958D01*
X90620Y-29900D01*
X90656Y-29849D01*
X90685Y-29805D01*
X90707Y-29776D01*
X90722Y-29761D01*
X90729Y-29754D01*
X90816Y-29666D01*
X90911Y-29586D01*
X91013Y-29521D01*
X91115Y-29462D01*
X91217Y-29411D01*
X91312Y-29375D01*
X91414Y-29338D01*
X91502Y-29316D01*
X91597Y-29295D01*
X91677Y-29280D01*
X91750Y-29265D01*
X91808Y-29258D01*
X91859Y-29251D01*
X91932D01*
X92070Y-29258D01*
D02*
G37*
G36*
X109792D02*
X109865Y-29273D01*
X109938Y-29295D01*
X109996Y-29316D01*
X110040Y-29338D01*
X110084Y-29360D01*
X110106Y-29375D01*
X110113Y-29382D01*
X110179Y-29440D01*
X110244Y-29513D01*
X110310Y-29601D01*
X110368Y-29681D01*
X110427Y-29761D01*
X110463Y-29827D01*
X110492Y-29878D01*
X110500Y-29885D01*
Y-29331D01*
X111061D01*
Y-32991D01*
X110441D01*
Y-31081D01*
X110434Y-30935D01*
X110427Y-30804D01*
X110412Y-30680D01*
X110390Y-30570D01*
X110368Y-30483D01*
X110354Y-30417D01*
X110346Y-30374D01*
X110339Y-30359D01*
X110310Y-30279D01*
X110274Y-30213D01*
X110237Y-30155D01*
X110201Y-30104D01*
X110164Y-30067D01*
X110142Y-30038D01*
X110120Y-30024D01*
X110113Y-30016D01*
X110055Y-29973D01*
X109989Y-29943D01*
X109924Y-29922D01*
X109873Y-29907D01*
X109822Y-29900D01*
X109785Y-29892D01*
X109749D01*
X109669Y-29900D01*
X109588Y-29914D01*
X109508Y-29936D01*
X109442Y-29958D01*
X109384Y-29980D01*
X109340Y-30002D01*
X109311Y-30016D01*
X109304Y-30024D01*
X109078Y-29455D01*
X109202Y-29389D01*
X109319Y-29338D01*
X109421Y-29302D01*
X109515Y-29273D01*
X109596Y-29258D01*
X109661Y-29251D01*
X109712D01*
X109792Y-29258D01*
D02*
G37*
G36*
X94513D02*
X94586Y-29273D01*
X94658Y-29295D01*
X94717Y-29316D01*
X94760Y-29338D01*
X94804Y-29360D01*
X94826Y-29375D01*
X94833Y-29382D01*
X94899Y-29440D01*
X94965Y-29513D01*
X95030Y-29601D01*
X95088Y-29681D01*
X95147Y-29761D01*
X95183Y-29827D01*
X95212Y-29878D01*
X95220Y-29885D01*
Y-29331D01*
X95781D01*
Y-32991D01*
X95161D01*
Y-31081D01*
X95154Y-30935D01*
X95147Y-30804D01*
X95132Y-30680D01*
X95110Y-30570D01*
X95088Y-30483D01*
X95074Y-30417D01*
X95067Y-30374D01*
X95059Y-30359D01*
X95030Y-30279D01*
X94994Y-30213D01*
X94957Y-30155D01*
X94921Y-30104D01*
X94884Y-30067D01*
X94863Y-30038D01*
X94841Y-30024D01*
X94833Y-30016D01*
X94775Y-29973D01*
X94709Y-29943D01*
X94644Y-29922D01*
X94593Y-29907D01*
X94542Y-29900D01*
X94505Y-29892D01*
X94469D01*
X94389Y-29900D01*
X94309Y-29914D01*
X94228Y-29936D01*
X94163Y-29958D01*
X94104Y-29980D01*
X94061Y-30002D01*
X94031Y-30016D01*
X94024Y-30024D01*
X93798Y-29455D01*
X93922Y-29389D01*
X94039Y-29338D01*
X94141Y-29302D01*
X94236Y-29273D01*
X94316Y-29258D01*
X94381Y-29251D01*
X94432D01*
X94513Y-29258D01*
D02*
G37*
G36*
X106388Y-29754D02*
X106454Y-29674D01*
X106527Y-29608D01*
X106592Y-29542D01*
X106665Y-29491D01*
X106723Y-29455D01*
X106767Y-29419D01*
X106796Y-29404D01*
X106811Y-29397D01*
X106906Y-29346D01*
X107008Y-29309D01*
X107110Y-29287D01*
X107204Y-29265D01*
X107285Y-29258D01*
X107343Y-29251D01*
X107401D01*
X107562Y-29258D01*
X107715Y-29287D01*
X107853Y-29324D01*
X107970Y-29368D01*
X108072Y-29419D01*
X108145Y-29455D01*
X108174Y-29470D01*
X108196Y-29484D01*
X108203Y-29491D01*
X108211D01*
X108342Y-29586D01*
X108451Y-29703D01*
X108546Y-29812D01*
X108619Y-29922D01*
X108677Y-30024D01*
X108721Y-30104D01*
X108735Y-30133D01*
X108750Y-30155D01*
X108757Y-30169D01*
Y-30177D01*
X108816Y-30344D01*
X108859Y-30519D01*
X108896Y-30687D01*
X108918Y-30840D01*
X108932Y-30971D01*
Y-31030D01*
X108940Y-31073D01*
Y-31117D01*
Y-31146D01*
Y-31161D01*
Y-31168D01*
X108932Y-31372D01*
X108910Y-31562D01*
X108874Y-31730D01*
X108837Y-31875D01*
X108823Y-31941D01*
X108808Y-31992D01*
X108786Y-32043D01*
X108772Y-32087D01*
X108757Y-32116D01*
X108750Y-32138D01*
X108743Y-32152D01*
Y-32160D01*
X108662Y-32313D01*
X108568Y-32444D01*
X108473Y-32561D01*
X108378Y-32655D01*
X108298Y-32728D01*
X108232Y-32787D01*
X108189Y-32816D01*
X108181Y-32830D01*
X108174D01*
X108036Y-32910D01*
X107897Y-32969D01*
X107758Y-33013D01*
X107635Y-33042D01*
X107533Y-33056D01*
X107445Y-33064D01*
X107416Y-33071D01*
X107372D01*
X107248Y-33064D01*
X107132Y-33049D01*
X107022Y-33020D01*
X106927Y-32983D01*
X106833Y-32947D01*
X106745Y-32903D01*
X106672Y-32852D01*
X106607Y-32801D01*
X106541Y-32750D01*
X106490Y-32699D01*
X106446Y-32655D01*
X106410Y-32619D01*
X106381Y-32582D01*
X106359Y-32553D01*
X106351Y-32539D01*
X106344Y-32531D01*
Y-32991D01*
X105768D01*
Y-27946D01*
X106388D01*
Y-29754D01*
D02*
G37*
G36*
X103749Y-34952D02*
X103129D01*
Y-34245D01*
X103749D01*
Y-34952D01*
D02*
G37*
G36*
X105608Y-34726D02*
Y-35630D01*
X106067D01*
Y-36112D01*
X105608D01*
Y-38225D01*
Y-38328D01*
Y-38415D01*
X105601Y-38495D01*
X105593Y-38576D01*
Y-38641D01*
X105586Y-38699D01*
X105571Y-38794D01*
X105557Y-38867D01*
X105550Y-38918D01*
X105535Y-38947D01*
Y-38955D01*
X105506Y-39020D01*
X105462Y-39071D01*
X105418Y-39122D01*
X105382Y-39159D01*
X105338Y-39195D01*
X105309Y-39217D01*
X105287Y-39232D01*
X105280Y-39239D01*
X105200Y-39275D01*
X105120Y-39297D01*
X105032Y-39319D01*
X104945Y-39326D01*
X104872Y-39334D01*
X104813Y-39341D01*
X104755D01*
X104595Y-39334D01*
X104515Y-39326D01*
X104442Y-39312D01*
X104376Y-39305D01*
X104325Y-39297D01*
X104296Y-39290D01*
X104281D01*
X104361Y-38743D01*
X104420Y-38750D01*
X104478Y-38758D01*
X104529D01*
X104566Y-38765D01*
X104638D01*
X104733Y-38758D01*
X104799Y-38743D01*
X104835Y-38729D01*
X104850Y-38721D01*
X104901Y-38685D01*
X104930Y-38648D01*
X104952Y-38619D01*
X104959Y-38605D01*
X104966Y-38568D01*
X104974Y-38517D01*
X104981Y-38401D01*
X104988Y-38350D01*
Y-38306D01*
Y-38277D01*
Y-38262D01*
Y-36112D01*
X104361D01*
Y-35630D01*
X104988D01*
Y-34355D01*
X105608Y-34726D01*
D02*
G37*
G36*
X109647Y-37898D02*
Y-38036D01*
X109639Y-38160D01*
X109632Y-38255D01*
X109625Y-38342D01*
Y-38401D01*
X109617Y-38444D01*
X109610Y-38473D01*
Y-38481D01*
X109588Y-38576D01*
X109559Y-38663D01*
X109530Y-38743D01*
X109494Y-38809D01*
X109464Y-38867D01*
X109442Y-38903D01*
X109428Y-38933D01*
X109421Y-38940D01*
X109362Y-39006D01*
X109297Y-39064D01*
X109231Y-39115D01*
X109158Y-39159D01*
X109100Y-39195D01*
X109049Y-39224D01*
X109020Y-39239D01*
X109005Y-39246D01*
X108896Y-39290D01*
X108794Y-39319D01*
X108692Y-39341D01*
X108597Y-39355D01*
X108517Y-39363D01*
X108451Y-39370D01*
X108400D01*
X108269Y-39363D01*
X108138Y-39341D01*
X108021Y-39312D01*
X107904Y-39275D01*
X107802Y-39224D01*
X107708Y-39173D01*
X107620Y-39122D01*
X107540Y-39064D01*
X107467Y-39006D01*
X107409Y-38955D01*
X107358Y-38896D01*
X107314Y-38853D01*
X107277Y-38816D01*
X107255Y-38787D01*
X107241Y-38765D01*
X107234Y-38758D01*
Y-39290D01*
X106680D01*
Y-35630D01*
X107299D01*
Y-37591D01*
X107307Y-37759D01*
X107314Y-37905D01*
X107328Y-38029D01*
X107350Y-38131D01*
X107372Y-38211D01*
X107387Y-38269D01*
X107394Y-38298D01*
X107401Y-38313D01*
X107445Y-38401D01*
X107496Y-38473D01*
X107554Y-38539D01*
X107613Y-38597D01*
X107664Y-38641D01*
X107708Y-38670D01*
X107737Y-38692D01*
X107751Y-38699D01*
X107846Y-38743D01*
X107941Y-38780D01*
X108028Y-38802D01*
X108108Y-38823D01*
X108174Y-38831D01*
X108225Y-38838D01*
X108276D01*
X108378Y-38831D01*
X108466Y-38816D01*
X108546Y-38794D01*
X108611Y-38765D01*
X108670Y-38743D01*
X108706Y-38721D01*
X108735Y-38707D01*
X108743Y-38699D01*
X108808Y-38641D01*
X108859Y-38583D01*
X108903Y-38517D01*
X108940Y-38459D01*
X108961Y-38401D01*
X108976Y-38357D01*
X108991Y-38328D01*
Y-38320D01*
X109005Y-38240D01*
X109012Y-38145D01*
X109020Y-38036D01*
Y-37927D01*
X109027Y-37825D01*
Y-37744D01*
Y-37708D01*
Y-37686D01*
Y-37672D01*
Y-37664D01*
Y-35630D01*
X109647D01*
Y-37898D01*
D02*
G37*
G36*
X111214Y-39290D02*
X110594D01*
Y-34245D01*
X111214D01*
Y-39290D01*
D02*
G37*
G36*
X103749D02*
X103129D01*
Y-35630D01*
X103749D01*
Y-39290D01*
D02*
G37*
G36*
X96685Y-35557D02*
X96816Y-35579D01*
X96933Y-35608D01*
X97049Y-35645D01*
X97152Y-35689D01*
X97246Y-35740D01*
X97334Y-35798D01*
X97407Y-35849D01*
X97480Y-35907D01*
X97538Y-35966D01*
X97589Y-36017D01*
X97633Y-36060D01*
X97662Y-36097D01*
X97684Y-36126D01*
X97698Y-36148D01*
X97706Y-36155D01*
Y-35630D01*
X98260D01*
Y-39290D01*
X97640D01*
Y-37300D01*
Y-37176D01*
X97625Y-37052D01*
X97611Y-36950D01*
X97596Y-36855D01*
X97574Y-36768D01*
X97553Y-36687D01*
X97523Y-36615D01*
X97494Y-36556D01*
X97472Y-36505D01*
X97443Y-36461D01*
X97421Y-36425D01*
X97399Y-36396D01*
X97370Y-36359D01*
X97356Y-36345D01*
X97246Y-36257D01*
X97130Y-36199D01*
X97013Y-36155D01*
X96911Y-36119D01*
X96816Y-36104D01*
X96743Y-36097D01*
X96714Y-36090D01*
X96678D01*
X96590Y-36097D01*
X96503Y-36104D01*
X96430Y-36126D01*
X96372Y-36148D01*
X96320Y-36170D01*
X96277Y-36184D01*
X96255Y-36199D01*
X96248Y-36206D01*
X96182Y-36250D01*
X96124Y-36301D01*
X96080Y-36352D01*
X96043Y-36396D01*
X96022Y-36439D01*
X96000Y-36476D01*
X95985Y-36498D01*
Y-36505D01*
X95963Y-36585D01*
X95941Y-36673D01*
X95927Y-36768D01*
X95920Y-36862D01*
X95912Y-36942D01*
Y-37008D01*
Y-37059D01*
Y-37066D01*
Y-37074D01*
Y-39290D01*
X95293D01*
Y-37045D01*
Y-36891D01*
X95300Y-36768D01*
X95307Y-36665D01*
Y-36578D01*
X95315Y-36520D01*
X95322Y-36476D01*
X95329Y-36447D01*
Y-36439D01*
X95351Y-36345D01*
X95387Y-36257D01*
X95416Y-36184D01*
X95446Y-36112D01*
X95482Y-36060D01*
X95504Y-36024D01*
X95519Y-35995D01*
X95526Y-35987D01*
X95584Y-35915D01*
X95650Y-35856D01*
X95715Y-35798D01*
X95788Y-35754D01*
X95847Y-35718D01*
X95898Y-35696D01*
X95927Y-35681D01*
X95941Y-35674D01*
X96043Y-35630D01*
X96153Y-35601D01*
X96255Y-35579D01*
X96350Y-35565D01*
X96430Y-35557D01*
X96488Y-35550D01*
X96547D01*
X96685Y-35557D01*
D02*
G37*
G36*
X117658Y-35565D02*
X117746Y-35572D01*
X117826Y-35587D01*
X117892Y-35601D01*
X117943Y-35616D01*
X117972Y-35623D01*
X117986Y-35630D01*
X118074Y-35660D01*
X118154Y-35689D01*
X118220Y-35718D01*
X118278Y-35747D01*
X118322Y-35769D01*
X118351Y-35791D01*
X118373Y-35798D01*
X118380Y-35805D01*
X118453Y-35856D01*
X118511Y-35915D01*
X118562Y-35980D01*
X118606Y-36031D01*
X118642Y-36082D01*
X118664Y-36119D01*
X118679Y-36148D01*
X118686Y-36155D01*
X118723Y-36235D01*
X118752Y-36308D01*
X118766Y-36388D01*
X118781Y-36454D01*
X118788Y-36520D01*
X118796Y-36563D01*
Y-36593D01*
Y-36607D01*
X118788Y-36709D01*
X118774Y-36797D01*
X118752Y-36884D01*
X118730Y-36957D01*
X118708Y-37015D01*
X118686Y-37066D01*
X118672Y-37096D01*
X118664Y-37103D01*
X118606Y-37183D01*
X118540Y-37249D01*
X118475Y-37307D01*
X118409Y-37358D01*
X118351Y-37394D01*
X118307Y-37424D01*
X118278Y-37438D01*
X118263Y-37446D01*
X118212Y-37467D01*
X118147Y-37497D01*
X118001Y-37548D01*
X117848Y-37591D01*
X117687Y-37642D01*
X117549Y-37679D01*
X117483Y-37701D01*
X117425Y-37715D01*
X117381Y-37730D01*
X117345Y-37737D01*
X117323Y-37744D01*
X117316D01*
X117221Y-37766D01*
X117141Y-37788D01*
X117068Y-37810D01*
X117002Y-37832D01*
X116944Y-37846D01*
X116893Y-37868D01*
X116805Y-37898D01*
X116747Y-37919D01*
X116711Y-37941D01*
X116689Y-37949D01*
X116682Y-37956D01*
X116616Y-38000D01*
X116572Y-38058D01*
X116536Y-38109D01*
X116514Y-38160D01*
X116499Y-38211D01*
X116492Y-38247D01*
Y-38277D01*
Y-38284D01*
X116499Y-38371D01*
X116521Y-38444D01*
X116558Y-38517D01*
X116594Y-38576D01*
X116638Y-38627D01*
X116667Y-38663D01*
X116696Y-38685D01*
X116703Y-38692D01*
X116791Y-38750D01*
X116886Y-38787D01*
X116995Y-38816D01*
X117097Y-38838D01*
X117192Y-38853D01*
X117265Y-38860D01*
X117338D01*
X117491Y-38853D01*
X117622Y-38831D01*
X117731Y-38802D01*
X117826Y-38765D01*
X117899Y-38729D01*
X117957Y-38699D01*
X117986Y-38677D01*
X118001Y-38670D01*
X118081Y-38590D01*
X118147Y-38495D01*
X118191Y-38401D01*
X118227Y-38313D01*
X118256Y-38233D01*
X118271Y-38160D01*
X118285Y-38116D01*
Y-38109D01*
Y-38102D01*
X118898Y-38196D01*
X118847Y-38401D01*
X118781Y-38583D01*
X118701Y-38729D01*
X118621Y-38853D01*
X118548Y-38955D01*
X118482Y-39020D01*
X118438Y-39064D01*
X118431Y-39071D01*
X118424Y-39079D01*
X118351Y-39129D01*
X118271Y-39173D01*
X118096Y-39246D01*
X117913Y-39297D01*
X117738Y-39334D01*
X117658Y-39348D01*
X117585Y-39355D01*
X117513Y-39363D01*
X117454D01*
X117403Y-39370D01*
X117338D01*
X117177Y-39363D01*
X117039Y-39348D01*
X116908Y-39326D01*
X116791Y-39297D01*
X116696Y-39268D01*
X116623Y-39246D01*
X116579Y-39232D01*
X116572Y-39224D01*
X116565D01*
X116441Y-39159D01*
X116339Y-39093D01*
X116251Y-39020D01*
X116171Y-38955D01*
X116113Y-38896D01*
X116076Y-38845D01*
X116047Y-38816D01*
X116040Y-38802D01*
X115982Y-38699D01*
X115938Y-38590D01*
X115901Y-38495D01*
X115880Y-38408D01*
X115865Y-38328D01*
X115858Y-38269D01*
Y-38233D01*
Y-38218D01*
X115865Y-38102D01*
X115880Y-38000D01*
X115909Y-37912D01*
X115931Y-37832D01*
X115960Y-37766D01*
X115989Y-37723D01*
X116004Y-37693D01*
X116011Y-37686D01*
X116069Y-37613D01*
X116135Y-37548D01*
X116200Y-37489D01*
X116266Y-37446D01*
X116332Y-37409D01*
X116375Y-37387D01*
X116404Y-37373D01*
X116419Y-37365D01*
X116470Y-37343D01*
X116528Y-37322D01*
X116667Y-37271D01*
X116820Y-37220D01*
X116973Y-37176D01*
X117112Y-37132D01*
X117177Y-37117D01*
X117228Y-37103D01*
X117272Y-37088D01*
X117308Y-37081D01*
X117330Y-37074D01*
X117338D01*
X117418Y-37052D01*
X117491Y-37030D01*
X117556Y-37015D01*
X117615Y-36994D01*
X117709Y-36972D01*
X117782Y-36950D01*
X117833Y-36928D01*
X117862Y-36921D01*
X117877Y-36913D01*
X117884D01*
X117943Y-36884D01*
X117994Y-36862D01*
X118037Y-36833D01*
X118067Y-36811D01*
X118096Y-36789D01*
X118110Y-36768D01*
X118118Y-36760D01*
X118125Y-36753D01*
X118169Y-36680D01*
X118191Y-36607D01*
Y-36578D01*
X118198Y-36556D01*
Y-36542D01*
Y-36534D01*
X118191Y-36469D01*
X118169Y-36403D01*
X118140Y-36345D01*
X118103Y-36301D01*
X118074Y-36257D01*
X118045Y-36228D01*
X118023Y-36213D01*
X118016Y-36206D01*
X117935Y-36155D01*
X117841Y-36119D01*
X117738Y-36097D01*
X117644Y-36075D01*
X117549Y-36068D01*
X117476Y-36060D01*
X117403D01*
X117279Y-36068D01*
X117163Y-36082D01*
X117068Y-36112D01*
X116995Y-36141D01*
X116929Y-36170D01*
X116886Y-36199D01*
X116856Y-36213D01*
X116849Y-36221D01*
X116776Y-36286D01*
X116725Y-36359D01*
X116682Y-36432D01*
X116645Y-36498D01*
X116623Y-36563D01*
X116609Y-36615D01*
X116601Y-36644D01*
Y-36658D01*
X115996Y-36578D01*
X116025Y-36454D01*
X116054Y-36345D01*
X116091Y-36250D01*
X116127Y-36162D01*
X116164Y-36104D01*
X116193Y-36053D01*
X116208Y-36024D01*
X116215Y-36017D01*
X116280Y-35944D01*
X116353Y-35878D01*
X116434Y-35820D01*
X116514Y-35769D01*
X116587Y-35732D01*
X116645Y-35703D01*
X116682Y-35689D01*
X116689Y-35681D01*
X116696D01*
X116820Y-35638D01*
X116951Y-35608D01*
X117075Y-35579D01*
X117192Y-35565D01*
X117301Y-35557D01*
X117381Y-35550D01*
X117556D01*
X117658Y-35565D01*
D02*
G37*
G36*
X113766Y-35557D02*
X113882Y-35565D01*
X114108Y-35616D01*
X114305Y-35681D01*
X114392Y-35718D01*
X114473Y-35754D01*
X114546Y-35791D01*
X114604Y-35827D01*
X114662Y-35864D01*
X114706Y-35893D01*
X114742Y-35922D01*
X114771Y-35944D01*
X114786Y-35951D01*
X114793Y-35958D01*
X114895Y-36053D01*
X114976Y-36162D01*
X115056Y-36279D01*
X115114Y-36396D01*
X115172Y-36520D01*
X115216Y-36651D01*
X115253Y-36775D01*
X115282Y-36891D01*
X115311Y-37008D01*
X115325Y-37110D01*
X115340Y-37212D01*
X115347Y-37292D01*
Y-37365D01*
X115355Y-37416D01*
Y-37446D01*
Y-37460D01*
X115347Y-37628D01*
X115333Y-37788D01*
X115311Y-37934D01*
X115282Y-38072D01*
X115245Y-38196D01*
X115209Y-38313D01*
X115165Y-38422D01*
X115121Y-38517D01*
X115078Y-38605D01*
X115034Y-38677D01*
X114997Y-38736D01*
X114961Y-38787D01*
X114932Y-38831D01*
X114910Y-38860D01*
X114895Y-38874D01*
X114888Y-38882D01*
X114793Y-38969D01*
X114699Y-39042D01*
X114596Y-39108D01*
X114495Y-39166D01*
X114392Y-39210D01*
X114283Y-39253D01*
X114086Y-39312D01*
X113999Y-39326D01*
X113911Y-39341D01*
X113838Y-39355D01*
X113773Y-39363D01*
X113714Y-39370D01*
X113642D01*
X113467Y-39363D01*
X113306Y-39334D01*
X113153Y-39297D01*
X113029Y-39261D01*
X112920Y-39217D01*
X112876Y-39202D01*
X112840Y-39188D01*
X112803Y-39173D01*
X112781Y-39159D01*
X112774Y-39151D01*
X112767D01*
X112621Y-39057D01*
X112497Y-38955D01*
X112388Y-38853D01*
X112300Y-38750D01*
X112235Y-38663D01*
X112183Y-38590D01*
X112169Y-38561D01*
X112154Y-38539D01*
X112147Y-38532D01*
Y-38524D01*
X112074Y-38357D01*
X112023Y-38175D01*
X111979Y-37992D01*
X111958Y-37810D01*
X111943Y-37730D01*
Y-37657D01*
X111936Y-37584D01*
X111928Y-37526D01*
Y-37475D01*
Y-37438D01*
Y-37416D01*
Y-37409D01*
X111936Y-37249D01*
X111950Y-37103D01*
X111972Y-36964D01*
X112001Y-36833D01*
X112038Y-36709D01*
X112082Y-36600D01*
X112125Y-36490D01*
X112169Y-36403D01*
X112213Y-36323D01*
X112256Y-36250D01*
X112300Y-36184D01*
X112337Y-36133D01*
X112366Y-36097D01*
X112388Y-36068D01*
X112402Y-36053D01*
X112409Y-36046D01*
X112504Y-35958D01*
X112599Y-35886D01*
X112701Y-35813D01*
X112803Y-35761D01*
X112905Y-35710D01*
X113007Y-35674D01*
X113204Y-35608D01*
X113299Y-35594D01*
X113379Y-35579D01*
X113452Y-35565D01*
X113518Y-35557D01*
X113569Y-35550D01*
X113642D01*
X113766Y-35557D01*
D02*
G37*
G36*
X100826D02*
X100942Y-35565D01*
X101168Y-35616D01*
X101365Y-35681D01*
X101453Y-35718D01*
X101533Y-35754D01*
X101606Y-35791D01*
X101664Y-35827D01*
X101722Y-35864D01*
X101766Y-35893D01*
X101803Y-35922D01*
X101832Y-35944D01*
X101846Y-35951D01*
X101854Y-35958D01*
X101956Y-36053D01*
X102036Y-36162D01*
X102116Y-36279D01*
X102174Y-36396D01*
X102233Y-36520D01*
X102276Y-36651D01*
X102313Y-36775D01*
X102342Y-36891D01*
X102371Y-37008D01*
X102386Y-37110D01*
X102400Y-37212D01*
X102408Y-37292D01*
Y-37365D01*
X102415Y-37416D01*
Y-37446D01*
Y-37460D01*
X102408Y-37628D01*
X102393Y-37788D01*
X102371Y-37934D01*
X102342Y-38072D01*
X102306Y-38196D01*
X102269Y-38313D01*
X102225Y-38422D01*
X102182Y-38517D01*
X102138Y-38605D01*
X102094Y-38677D01*
X102058Y-38736D01*
X102021Y-38787D01*
X101992Y-38831D01*
X101970Y-38860D01*
X101956Y-38874D01*
X101948Y-38882D01*
X101854Y-38969D01*
X101759Y-39042D01*
X101657Y-39108D01*
X101555Y-39166D01*
X101453Y-39210D01*
X101343Y-39253D01*
X101146Y-39312D01*
X101059Y-39326D01*
X100971Y-39341D01*
X100899Y-39355D01*
X100833Y-39363D01*
X100775Y-39370D01*
X100702D01*
X100527Y-39363D01*
X100366Y-39334D01*
X100213Y-39297D01*
X100089Y-39261D01*
X99980Y-39217D01*
X99936Y-39202D01*
X99900Y-39188D01*
X99863Y-39173D01*
X99842Y-39159D01*
X99834Y-39151D01*
X99827D01*
X99681Y-39057D01*
X99557Y-38955D01*
X99448Y-38853D01*
X99360Y-38750D01*
X99295Y-38663D01*
X99244Y-38590D01*
X99229Y-38561D01*
X99215Y-38539D01*
X99207Y-38532D01*
Y-38524D01*
X99134Y-38357D01*
X99083Y-38175D01*
X99040Y-37992D01*
X99018Y-37810D01*
X99003Y-37730D01*
Y-37657D01*
X98996Y-37584D01*
X98989Y-37526D01*
Y-37475D01*
Y-37438D01*
Y-37416D01*
Y-37409D01*
X98996Y-37249D01*
X99010Y-37103D01*
X99032Y-36964D01*
X99062Y-36833D01*
X99098Y-36709D01*
X99142Y-36600D01*
X99186Y-36490D01*
X99229Y-36403D01*
X99273Y-36323D01*
X99317Y-36250D01*
X99360Y-36184D01*
X99397Y-36133D01*
X99426Y-36097D01*
X99448Y-36068D01*
X99462Y-36053D01*
X99470Y-36046D01*
X99564Y-35958D01*
X99659Y-35886D01*
X99761Y-35813D01*
X99863Y-35761D01*
X99966Y-35710D01*
X100068Y-35674D01*
X100264Y-35608D01*
X100359Y-35594D01*
X100439Y-35579D01*
X100512Y-35565D01*
X100578Y-35557D01*
X100629Y-35550D01*
X100702D01*
X100826Y-35557D01*
D02*
G37*
G36*
X93346Y-35565D02*
X93434Y-35572D01*
X93514Y-35587D01*
X93580Y-35601D01*
X93630Y-35616D01*
X93660Y-35623D01*
X93674Y-35630D01*
X93762Y-35660D01*
X93842Y-35689D01*
X93907Y-35718D01*
X93966Y-35747D01*
X94010Y-35769D01*
X94039Y-35791D01*
X94061Y-35798D01*
X94068Y-35805D01*
X94141Y-35856D01*
X94199Y-35915D01*
X94250Y-35980D01*
X94294Y-36031D01*
X94330Y-36082D01*
X94352Y-36119D01*
X94367Y-36148D01*
X94374Y-36155D01*
X94411Y-36235D01*
X94440Y-36308D01*
X94454Y-36388D01*
X94469Y-36454D01*
X94476Y-36520D01*
X94483Y-36563D01*
Y-36593D01*
Y-36607D01*
X94476Y-36709D01*
X94462Y-36797D01*
X94440Y-36884D01*
X94418Y-36957D01*
X94396Y-37015D01*
X94374Y-37066D01*
X94359Y-37096D01*
X94352Y-37103D01*
X94294Y-37183D01*
X94228Y-37249D01*
X94163Y-37307D01*
X94097Y-37358D01*
X94039Y-37394D01*
X93995Y-37424D01*
X93966Y-37438D01*
X93951Y-37446D01*
X93900Y-37467D01*
X93835Y-37497D01*
X93689Y-37548D01*
X93536Y-37591D01*
X93375Y-37642D01*
X93237Y-37679D01*
X93171Y-37701D01*
X93113Y-37715D01*
X93069Y-37730D01*
X93033Y-37737D01*
X93011Y-37744D01*
X93003D01*
X92909Y-37766D01*
X92829Y-37788D01*
X92756Y-37810D01*
X92690Y-37832D01*
X92632Y-37846D01*
X92581Y-37868D01*
X92493Y-37898D01*
X92435Y-37919D01*
X92399Y-37941D01*
X92377Y-37949D01*
X92369Y-37956D01*
X92304Y-38000D01*
X92260Y-38058D01*
X92224Y-38109D01*
X92202Y-38160D01*
X92187Y-38211D01*
X92180Y-38247D01*
Y-38277D01*
Y-38284D01*
X92187Y-38371D01*
X92209Y-38444D01*
X92245Y-38517D01*
X92282Y-38576D01*
X92326Y-38627D01*
X92355Y-38663D01*
X92384Y-38685D01*
X92391Y-38692D01*
X92479Y-38750D01*
X92573Y-38787D01*
X92683Y-38816D01*
X92785Y-38838D01*
X92880Y-38853D01*
X92953Y-38860D01*
X93025D01*
X93178Y-38853D01*
X93310Y-38831D01*
X93419Y-38802D01*
X93514Y-38765D01*
X93587Y-38729D01*
X93645Y-38699D01*
X93674Y-38677D01*
X93689Y-38670D01*
X93769Y-38590D01*
X93835Y-38495D01*
X93878Y-38401D01*
X93915Y-38313D01*
X93944Y-38233D01*
X93958Y-38160D01*
X93973Y-38116D01*
Y-38109D01*
Y-38102D01*
X94586Y-38196D01*
X94534Y-38401D01*
X94469Y-38583D01*
X94389Y-38729D01*
X94309Y-38853D01*
X94236Y-38955D01*
X94170Y-39020D01*
X94126Y-39064D01*
X94119Y-39071D01*
X94112Y-39079D01*
X94039Y-39129D01*
X93958Y-39173D01*
X93784Y-39246D01*
X93601Y-39297D01*
X93426Y-39334D01*
X93346Y-39348D01*
X93273Y-39355D01*
X93200Y-39363D01*
X93142D01*
X93091Y-39370D01*
X93025D01*
X92865Y-39363D01*
X92726Y-39348D01*
X92595Y-39326D01*
X92479Y-39297D01*
X92384Y-39268D01*
X92311Y-39246D01*
X92267Y-39232D01*
X92260Y-39224D01*
X92253D01*
X92129Y-39159D01*
X92027Y-39093D01*
X91939Y-39020D01*
X91859Y-38955D01*
X91801Y-38896D01*
X91764Y-38845D01*
X91735Y-38816D01*
X91728Y-38802D01*
X91669Y-38699D01*
X91626Y-38590D01*
X91589Y-38495D01*
X91567Y-38408D01*
X91553Y-38328D01*
X91546Y-38269D01*
Y-38233D01*
Y-38218D01*
X91553Y-38102D01*
X91567Y-38000D01*
X91597Y-37912D01*
X91618Y-37832D01*
X91648Y-37766D01*
X91677Y-37723D01*
X91691Y-37693D01*
X91699Y-37686D01*
X91757Y-37613D01*
X91823Y-37548D01*
X91888Y-37489D01*
X91954Y-37446D01*
X92019Y-37409D01*
X92063Y-37387D01*
X92092Y-37373D01*
X92107Y-37365D01*
X92158Y-37343D01*
X92216Y-37322D01*
X92355Y-37271D01*
X92508Y-37220D01*
X92661Y-37176D01*
X92799Y-37132D01*
X92865Y-37117D01*
X92916Y-37103D01*
X92960Y-37088D01*
X92996Y-37081D01*
X93018Y-37074D01*
X93025D01*
X93106Y-37052D01*
X93178Y-37030D01*
X93244Y-37015D01*
X93302Y-36994D01*
X93397Y-36972D01*
X93470Y-36950D01*
X93521Y-36928D01*
X93550Y-36921D01*
X93565Y-36913D01*
X93572D01*
X93630Y-36884D01*
X93682Y-36862D01*
X93725Y-36833D01*
X93754Y-36811D01*
X93784Y-36789D01*
X93798Y-36768D01*
X93805Y-36760D01*
X93813Y-36753D01*
X93857Y-36680D01*
X93878Y-36607D01*
Y-36578D01*
X93886Y-36556D01*
Y-36542D01*
Y-36534D01*
X93878Y-36469D01*
X93857Y-36403D01*
X93827Y-36345D01*
X93791Y-36301D01*
X93762Y-36257D01*
X93733Y-36228D01*
X93711Y-36213D01*
X93703Y-36206D01*
X93623Y-36155D01*
X93528Y-36119D01*
X93426Y-36097D01*
X93332Y-36075D01*
X93237Y-36068D01*
X93164Y-36060D01*
X93091D01*
X92967Y-36068D01*
X92851Y-36082D01*
X92756Y-36112D01*
X92683Y-36141D01*
X92617Y-36170D01*
X92573Y-36199D01*
X92544Y-36213D01*
X92537Y-36221D01*
X92464Y-36286D01*
X92413Y-36359D01*
X92369Y-36432D01*
X92333Y-36498D01*
X92311Y-36563D01*
X92296Y-36615D01*
X92289Y-36644D01*
Y-36658D01*
X91684Y-36578D01*
X91713Y-36454D01*
X91742Y-36345D01*
X91779Y-36250D01*
X91815Y-36162D01*
X91852Y-36104D01*
X91881Y-36053D01*
X91896Y-36024D01*
X91903Y-36017D01*
X91968Y-35944D01*
X92041Y-35878D01*
X92121Y-35820D01*
X92202Y-35769D01*
X92274Y-35732D01*
X92333Y-35703D01*
X92369Y-35689D01*
X92377Y-35681D01*
X92384D01*
X92508Y-35638D01*
X92639Y-35608D01*
X92763Y-35579D01*
X92880Y-35565D01*
X92989Y-35557D01*
X93069Y-35550D01*
X93244D01*
X93346Y-35565D01*
D02*
G37*
%LPC*%
G36*
X111112Y-23462D02*
X111003D01*
X110930Y-23477D01*
X110791Y-23513D01*
X110675Y-23571D01*
X110573Y-23630D01*
X110492Y-23695D01*
X110434Y-23754D01*
X110398Y-23790D01*
X110383Y-23797D01*
Y-23805D01*
X110332Y-23870D01*
X110288Y-23950D01*
X110215Y-24111D01*
X110164Y-24293D01*
X110135Y-24461D01*
X110113Y-24614D01*
X110106Y-24687D01*
Y-24745D01*
X110099Y-24796D01*
Y-24833D01*
Y-24854D01*
Y-24862D01*
Y-24986D01*
X110113Y-25109D01*
X110128Y-25219D01*
X110142Y-25321D01*
X110164Y-25416D01*
X110193Y-25503D01*
X110222Y-25576D01*
X110244Y-25649D01*
X110274Y-25707D01*
X110303Y-25766D01*
X110325Y-25809D01*
X110354Y-25846D01*
X110368Y-25875D01*
X110383Y-25897D01*
X110398Y-25904D01*
Y-25911D01*
X110456Y-25970D01*
X110514Y-26028D01*
X110631Y-26116D01*
X110747Y-26174D01*
X110857Y-26218D01*
X110951Y-26239D01*
X111032Y-26254D01*
X111061Y-26261D01*
X111097D01*
X111192Y-26254D01*
X111272Y-26239D01*
X111360Y-26218D01*
X111433Y-26188D01*
X111571Y-26108D01*
X111680Y-26021D01*
X111775Y-25941D01*
X111841Y-25860D01*
X111863Y-25831D01*
X111877Y-25809D01*
X111892Y-25795D01*
Y-25787D01*
X111921Y-25729D01*
X111950Y-25664D01*
X111994Y-25518D01*
X112023Y-25357D01*
X112045Y-25204D01*
X112060Y-25066D01*
Y-25000D01*
X112067Y-24949D01*
Y-24905D01*
Y-24869D01*
Y-24847D01*
Y-24840D01*
Y-24716D01*
X112052Y-24607D01*
X112038Y-24497D01*
X112023Y-24395D01*
X112001Y-24308D01*
X111972Y-24220D01*
X111950Y-24147D01*
X111921Y-24074D01*
X111892Y-24016D01*
X111870Y-23965D01*
X111841Y-23921D01*
X111819Y-23885D01*
X111804Y-23856D01*
X111790Y-23834D01*
X111775Y-23826D01*
Y-23819D01*
X111717Y-23754D01*
X111659Y-23703D01*
X111600Y-23652D01*
X111542Y-23615D01*
X111425Y-23550D01*
X111316Y-23506D01*
X111221Y-23484D01*
X111141Y-23469D01*
X111112Y-23462D01*
D02*
G37*
G36*
X115107D02*
X115063D01*
X114976Y-23469D01*
X114895Y-23477D01*
X114750Y-23513D01*
X114618Y-23571D01*
X114509Y-23637D01*
X114422Y-23703D01*
X114356Y-23754D01*
X114312Y-23797D01*
X114298Y-23805D01*
Y-23812D01*
X114239Y-23877D01*
X114196Y-23958D01*
X114115Y-24118D01*
X114057Y-24293D01*
X114021Y-24453D01*
X113999Y-24607D01*
X113991Y-24672D01*
Y-24730D01*
X113984Y-24774D01*
Y-24811D01*
Y-24833D01*
Y-24840D01*
Y-24971D01*
X113999Y-25095D01*
X114013Y-25204D01*
X114035Y-25314D01*
X114057Y-25408D01*
X114086Y-25496D01*
X114108Y-25576D01*
X114137Y-25649D01*
X114166Y-25707D01*
X114196Y-25766D01*
X114225Y-25809D01*
X114247Y-25846D01*
X114269Y-25875D01*
X114283Y-25897D01*
X114290Y-25904D01*
X114298Y-25911D01*
X114356Y-25970D01*
X114422Y-26028D01*
X114546Y-26116D01*
X114677Y-26174D01*
X114793Y-26218D01*
X114903Y-26239D01*
X114983Y-26254D01*
X115019Y-26261D01*
X115063D01*
X115151Y-26254D01*
X115231Y-26247D01*
X115384Y-26210D01*
X115515Y-26152D01*
X115624Y-26086D01*
X115712Y-26028D01*
X115778Y-25970D01*
X115821Y-25933D01*
X115829Y-25919D01*
X115836D01*
X115887Y-25846D01*
X115938Y-25773D01*
X116011Y-25605D01*
X116069Y-25430D01*
X116106Y-25255D01*
X116127Y-25102D01*
X116135Y-25037D01*
Y-24978D01*
X116142Y-24927D01*
Y-24891D01*
Y-24869D01*
Y-24862D01*
X116135Y-24738D01*
X116127Y-24614D01*
X116113Y-24505D01*
X116091Y-24402D01*
X116069Y-24308D01*
X116047Y-24220D01*
X116018Y-24147D01*
X115989Y-24074D01*
X115960Y-24016D01*
X115931Y-23958D01*
X115909Y-23914D01*
X115887Y-23877D01*
X115865Y-23848D01*
X115850Y-23826D01*
X115836Y-23819D01*
Y-23812D01*
X115778Y-23754D01*
X115712Y-23695D01*
X115588Y-23608D01*
X115457Y-23550D01*
X115333Y-23506D01*
X115224Y-23477D01*
X115143Y-23469D01*
X115107Y-23462D01*
D02*
G37*
G36*
X107263D02*
X107219D01*
X107132Y-23469D01*
X107051Y-23477D01*
X106906Y-23513D01*
X106774Y-23571D01*
X106665Y-23637D01*
X106578Y-23703D01*
X106512Y-23754D01*
X106468Y-23797D01*
X106454Y-23805D01*
Y-23812D01*
X106395Y-23877D01*
X106351Y-23958D01*
X106271Y-24118D01*
X106213Y-24293D01*
X106177Y-24453D01*
X106155Y-24607D01*
X106147Y-24672D01*
Y-24730D01*
X106140Y-24774D01*
Y-24811D01*
Y-24833D01*
Y-24840D01*
Y-24971D01*
X106155Y-25095D01*
X106169Y-25204D01*
X106191Y-25314D01*
X106213Y-25408D01*
X106242Y-25496D01*
X106264Y-25576D01*
X106293Y-25649D01*
X106322Y-25707D01*
X106351Y-25766D01*
X106381Y-25809D01*
X106403Y-25846D01*
X106424Y-25875D01*
X106439Y-25897D01*
X106446Y-25904D01*
X106454Y-25911D01*
X106512Y-25970D01*
X106578Y-26028D01*
X106702Y-26116D01*
X106833Y-26174D01*
X106949Y-26218D01*
X107059Y-26239D01*
X107139Y-26254D01*
X107175Y-26261D01*
X107219D01*
X107307Y-26254D01*
X107387Y-26247D01*
X107540Y-26210D01*
X107671Y-26152D01*
X107780Y-26086D01*
X107868Y-26028D01*
X107933Y-25970D01*
X107977Y-25933D01*
X107984Y-25919D01*
X107992D01*
X108043Y-25846D01*
X108094Y-25773D01*
X108167Y-25605D01*
X108225Y-25430D01*
X108262Y-25255D01*
X108283Y-25102D01*
X108291Y-25037D01*
Y-24978D01*
X108298Y-24927D01*
Y-24891D01*
Y-24869D01*
Y-24862D01*
X108291Y-24738D01*
X108283Y-24614D01*
X108269Y-24505D01*
X108247Y-24402D01*
X108225Y-24308D01*
X108203Y-24220D01*
X108174Y-24147D01*
X108145Y-24074D01*
X108116Y-24016D01*
X108087Y-23958D01*
X108065Y-23914D01*
X108043Y-23877D01*
X108021Y-23848D01*
X108006Y-23826D01*
X107992Y-23819D01*
Y-23812D01*
X107933Y-23754D01*
X107868Y-23695D01*
X107744Y-23608D01*
X107613Y-23550D01*
X107489Y-23506D01*
X107379Y-23477D01*
X107299Y-23469D01*
X107263Y-23462D01*
D02*
G37*
G36*
X112643Y-31154D02*
X112636D01*
X112643Y-31387D01*
X112650Y-31533D01*
X112657Y-31657D01*
X112672Y-31759D01*
X112694Y-31846D01*
X112716Y-31912D01*
X112730Y-31963D01*
X112738Y-31992D01*
X112745Y-31999D01*
X112803Y-32094D01*
X112862Y-32182D01*
X112934Y-32254D01*
X113000Y-32313D01*
X113058Y-32364D01*
X113109Y-32400D01*
X113138Y-32422D01*
X113153Y-32429D01*
X113262Y-32480D01*
X113372Y-32517D01*
X113474Y-32546D01*
X113576Y-32561D01*
X113656Y-32575D01*
X113729Y-32582D01*
X113787D01*
X113919Y-32575D01*
X114028Y-32561D01*
X114123Y-32531D01*
X114203Y-32502D01*
X114261Y-32473D01*
X114305Y-32444D01*
X114334Y-32429D01*
X114341Y-32422D01*
X114400Y-32357D01*
X114443Y-32284D01*
X114480Y-32218D01*
X114502Y-32152D01*
X114516Y-32094D01*
X114524Y-32050D01*
Y-32014D01*
Y-32006D01*
X114516Y-31948D01*
X114509Y-31890D01*
X114495Y-31846D01*
X114480Y-31802D01*
X114465Y-31766D01*
X114458Y-31737D01*
X114443Y-31722D01*
Y-31715D01*
X114371Y-31627D01*
X114283Y-31569D01*
X114254Y-31547D01*
X114225Y-31533D01*
X114203Y-31518D01*
X114196D01*
X114123Y-31489D01*
X114042Y-31467D01*
X113955Y-31445D01*
X113867Y-31431D01*
X113787Y-31416D01*
X113714Y-31402D01*
X113671Y-31394D01*
X113656D01*
X113532Y-31372D01*
X113416Y-31358D01*
X113313Y-31336D01*
X113211Y-31314D01*
X113117Y-31292D01*
X113037Y-31270D01*
X112956Y-31256D01*
X112891Y-31234D01*
X112832Y-31219D01*
X112781Y-31205D01*
X112738Y-31190D01*
X112701Y-31176D01*
X112672Y-31168D01*
X112650Y-31161D01*
X112643Y-31154D01*
D02*
G37*
G36*
X97363D02*
X97356D01*
X97363Y-31387D01*
X97370Y-31533D01*
X97378Y-31657D01*
X97392Y-31759D01*
X97414Y-31846D01*
X97436Y-31912D01*
X97451Y-31963D01*
X97458Y-31992D01*
X97465Y-31999D01*
X97523Y-32094D01*
X97582Y-32182D01*
X97655Y-32254D01*
X97720Y-32313D01*
X97778Y-32364D01*
X97830Y-32400D01*
X97859Y-32422D01*
X97873Y-32429D01*
X97983Y-32480D01*
X98092Y-32517D01*
X98194Y-32546D01*
X98296Y-32561D01*
X98376Y-32575D01*
X98449Y-32582D01*
X98507D01*
X98639Y-32575D01*
X98748Y-32561D01*
X98843Y-32531D01*
X98923Y-32502D01*
X98981Y-32473D01*
X99025Y-32444D01*
X99054Y-32429D01*
X99062Y-32422D01*
X99120Y-32357D01*
X99164Y-32284D01*
X99200Y-32218D01*
X99222Y-32152D01*
X99237Y-32094D01*
X99244Y-32050D01*
Y-32014D01*
Y-32006D01*
X99237Y-31948D01*
X99229Y-31890D01*
X99215Y-31846D01*
X99200Y-31802D01*
X99186Y-31766D01*
X99178Y-31737D01*
X99164Y-31722D01*
Y-31715D01*
X99091Y-31627D01*
X99003Y-31569D01*
X98974Y-31547D01*
X98945Y-31533D01*
X98923Y-31518D01*
X98916D01*
X98843Y-31489D01*
X98763Y-31467D01*
X98675Y-31445D01*
X98588Y-31431D01*
X98507Y-31416D01*
X98435Y-31402D01*
X98391Y-31394D01*
X98376D01*
X98252Y-31372D01*
X98136Y-31358D01*
X98034Y-31336D01*
X97932Y-31314D01*
X97837Y-31292D01*
X97757Y-31270D01*
X97676Y-31256D01*
X97611Y-31234D01*
X97553Y-31219D01*
X97501Y-31205D01*
X97458Y-31190D01*
X97421Y-31176D01*
X97392Y-31168D01*
X97370Y-31161D01*
X97363Y-31154D01*
D02*
G37*
G36*
X91968Y-29761D02*
X91925D01*
X91837Y-29768D01*
X91757Y-29776D01*
X91604Y-29820D01*
X91473Y-29878D01*
X91363Y-29943D01*
X91276Y-30009D01*
X91210Y-30067D01*
X91174Y-30111D01*
X91159Y-30118D01*
Y-30126D01*
X91094Y-30220D01*
X91035Y-30330D01*
X90999Y-30439D01*
X90962Y-30556D01*
X90940Y-30651D01*
X90926Y-30738D01*
Y-30767D01*
X90919Y-30789D01*
Y-30804D01*
Y-30811D01*
X92967D01*
X92945Y-30643D01*
X92901Y-30490D01*
X92851Y-30359D01*
X92792Y-30257D01*
X92741Y-30169D01*
X92690Y-30104D01*
X92661Y-30067D01*
X92646Y-30053D01*
X92530Y-29958D01*
X92413Y-29885D01*
X92289Y-29834D01*
X92172Y-29798D01*
X92078Y-29776D01*
X91997Y-29768D01*
X91968Y-29761D01*
D02*
G37*
G36*
X107372D02*
X107336D01*
X107255Y-29768D01*
X107183Y-29776D01*
X107044Y-29820D01*
X106920Y-29871D01*
X106818Y-29936D01*
X106738Y-30002D01*
X106672Y-30060D01*
X106636Y-30104D01*
X106621Y-30111D01*
Y-30118D01*
X106570Y-30191D01*
X106527Y-30264D01*
X106454Y-30439D01*
X106403Y-30621D01*
X106366Y-30796D01*
X106351Y-30884D01*
X106344Y-30964D01*
X106337Y-31037D01*
Y-31095D01*
X106330Y-31146D01*
Y-31183D01*
Y-31212D01*
Y-31219D01*
Y-31343D01*
X106344Y-31460D01*
X106359Y-31562D01*
X106373Y-31664D01*
X106395Y-31751D01*
X106424Y-31839D01*
X106446Y-31912D01*
X106475Y-31977D01*
X106505Y-32036D01*
X106527Y-32094D01*
X106556Y-32131D01*
X106578Y-32167D01*
X106592Y-32196D01*
X106607Y-32218D01*
X106621Y-32225D01*
Y-32232D01*
X106672Y-32291D01*
X106731Y-32342D01*
X106847Y-32422D01*
X106964Y-32480D01*
X107073Y-32517D01*
X107168Y-32546D01*
X107248Y-32553D01*
X107277Y-32561D01*
X107314D01*
X107387Y-32553D01*
X107460Y-32546D01*
X107591Y-32509D01*
X107715Y-32451D01*
X107817Y-32386D01*
X107897Y-32327D01*
X107963Y-32269D01*
X107999Y-32232D01*
X108006Y-32218D01*
X108014D01*
X108065Y-32145D01*
X108108Y-32072D01*
X108181Y-31905D01*
X108232Y-31730D01*
X108269Y-31562D01*
X108291Y-31409D01*
X108298Y-31343D01*
Y-31285D01*
X108305Y-31234D01*
Y-31197D01*
Y-31176D01*
Y-31168D01*
Y-31037D01*
X108291Y-30913D01*
X108276Y-30796D01*
X108262Y-30694D01*
X108240Y-30600D01*
X108218Y-30512D01*
X108196Y-30432D01*
X108167Y-30359D01*
X108138Y-30301D01*
X108116Y-30250D01*
X108094Y-30206D01*
X108072Y-30169D01*
X108050Y-30140D01*
X108043Y-30118D01*
X108028Y-30111D01*
Y-30104D01*
X107977Y-30046D01*
X107919Y-29987D01*
X107802Y-29907D01*
X107686Y-29841D01*
X107576Y-29805D01*
X107482Y-29776D01*
X107401Y-29768D01*
X107372Y-29761D01*
D02*
G37*
G36*
X113685Y-36060D02*
X113642D01*
X113554Y-36068D01*
X113474Y-36075D01*
X113328Y-36112D01*
X113197Y-36170D01*
X113087Y-36235D01*
X113000Y-36301D01*
X112934Y-36352D01*
X112891Y-36396D01*
X112876Y-36403D01*
Y-36410D01*
X112818Y-36476D01*
X112774Y-36556D01*
X112694Y-36716D01*
X112636Y-36891D01*
X112599Y-37052D01*
X112577Y-37205D01*
X112570Y-37271D01*
Y-37329D01*
X112563Y-37373D01*
Y-37409D01*
Y-37431D01*
Y-37438D01*
Y-37569D01*
X112577Y-37693D01*
X112592Y-37803D01*
X112614Y-37912D01*
X112636Y-38007D01*
X112665Y-38094D01*
X112687Y-38175D01*
X112716Y-38247D01*
X112745Y-38306D01*
X112774Y-38364D01*
X112803Y-38408D01*
X112825Y-38444D01*
X112847Y-38473D01*
X112862Y-38495D01*
X112869Y-38503D01*
X112876Y-38510D01*
X112934Y-38568D01*
X113000Y-38627D01*
X113124Y-38714D01*
X113255Y-38772D01*
X113372Y-38816D01*
X113481Y-38838D01*
X113561Y-38853D01*
X113598Y-38860D01*
X113642D01*
X113729Y-38853D01*
X113809Y-38845D01*
X113962Y-38809D01*
X114093Y-38750D01*
X114203Y-38685D01*
X114290Y-38627D01*
X114356Y-38568D01*
X114400Y-38532D01*
X114407Y-38517D01*
X114414D01*
X114465Y-38444D01*
X114516Y-38371D01*
X114589Y-38204D01*
X114648Y-38029D01*
X114684Y-37854D01*
X114706Y-37701D01*
X114713Y-37635D01*
Y-37577D01*
X114720Y-37526D01*
Y-37489D01*
Y-37467D01*
Y-37460D01*
X114713Y-37336D01*
X114706Y-37212D01*
X114691Y-37103D01*
X114669Y-37001D01*
X114648Y-36906D01*
X114626Y-36819D01*
X114596Y-36746D01*
X114567Y-36673D01*
X114538Y-36615D01*
X114509Y-36556D01*
X114487Y-36512D01*
X114465Y-36476D01*
X114443Y-36447D01*
X114429Y-36425D01*
X114414Y-36418D01*
Y-36410D01*
X114356Y-36352D01*
X114290Y-36294D01*
X114166Y-36206D01*
X114035Y-36148D01*
X113911Y-36104D01*
X113802Y-36075D01*
X113722Y-36068D01*
X113685Y-36060D01*
D02*
G37*
G36*
X100745D02*
X100702D01*
X100614Y-36068D01*
X100534Y-36075D01*
X100388Y-36112D01*
X100257Y-36170D01*
X100148Y-36235D01*
X100060Y-36301D01*
X99995Y-36352D01*
X99951Y-36396D01*
X99936Y-36403D01*
Y-36410D01*
X99878Y-36476D01*
X99834Y-36556D01*
X99754Y-36716D01*
X99696Y-36891D01*
X99659Y-37052D01*
X99638Y-37205D01*
X99630Y-37271D01*
Y-37329D01*
X99623Y-37373D01*
Y-37409D01*
Y-37431D01*
Y-37438D01*
Y-37569D01*
X99638Y-37693D01*
X99652Y-37803D01*
X99674Y-37912D01*
X99696Y-38007D01*
X99725Y-38094D01*
X99747Y-38175D01*
X99776Y-38247D01*
X99805Y-38306D01*
X99834Y-38364D01*
X99863Y-38408D01*
X99885Y-38444D01*
X99907Y-38473D01*
X99922Y-38495D01*
X99929Y-38503D01*
X99936Y-38510D01*
X99995Y-38568D01*
X100060Y-38627D01*
X100184Y-38714D01*
X100315Y-38772D01*
X100432Y-38816D01*
X100541Y-38838D01*
X100622Y-38853D01*
X100658Y-38860D01*
X100702D01*
X100789Y-38853D01*
X100870Y-38845D01*
X101023Y-38809D01*
X101154Y-38750D01*
X101263Y-38685D01*
X101351Y-38627D01*
X101416Y-38568D01*
X101460Y-38532D01*
X101467Y-38517D01*
X101474D01*
X101526Y-38444D01*
X101577Y-38371D01*
X101649Y-38204D01*
X101708Y-38029D01*
X101744Y-37854D01*
X101766Y-37701D01*
X101773Y-37635D01*
Y-37577D01*
X101781Y-37526D01*
Y-37489D01*
Y-37467D01*
Y-37460D01*
X101773Y-37336D01*
X101766Y-37212D01*
X101751Y-37103D01*
X101730Y-37001D01*
X101708Y-36906D01*
X101686Y-36819D01*
X101657Y-36746D01*
X101628Y-36673D01*
X101599Y-36615D01*
X101569Y-36556D01*
X101547Y-36512D01*
X101526Y-36476D01*
X101504Y-36447D01*
X101489Y-36425D01*
X101474Y-36418D01*
Y-36410D01*
X101416Y-36352D01*
X101351Y-36294D01*
X101227Y-36206D01*
X101095Y-36148D01*
X100971Y-36104D01*
X100862Y-36075D01*
X100782Y-36068D01*
X100745Y-36060D01*
D02*
G37*
%LPD*%
D13*
X253461Y-103083D02*
X295835D01*
X237266Y-86888D02*
X253461Y-103083D01*
X234256Y-86888D02*
X237266D01*
X230118Y-90551D02*
X236175D01*
X252907Y-107283D01*
X218061Y-70693D02*
X234256Y-86888D01*
X213878Y-74311D02*
X230118Y-90551D01*
X213878Y-70693D02*
X218061D01*
X252907Y-107283D02*
X307283D01*
X295835Y-103083D02*
X307087Y-91831D01*
D15*
X167697Y-64602D02*
G03*
X167697Y-62481I-1061J1061D01*
G01*
X166558Y-65741D02*
G03*
X166558Y-67862I1061J-1061D01*
G01*
D02*
G03*
X168679Y-67862I1061J1061D01*
G01*
X171940Y-66723D02*
G03*
X169818Y-66723I-1061J-1061D01*
G01*
X279823Y-35728D02*
X299508Y-16043D01*
X248130Y-35728D02*
X279823D01*
X275364Y-43957D02*
X299508Y-19813D01*
X268761Y-43957D02*
X275364D01*
X231703Y-72480D02*
X234820D01*
X248076Y-85736D01*
X286537D01*
X232619Y-88870D02*
X236871D01*
X254157Y-101402D02*
X286787D01*
X252765Y-104764D02*
X304587D01*
X236871Y-88870D02*
X252765Y-104764D01*
X254898Y-99614D02*
X283063D01*
X238665Y-83381D02*
X254898Y-99614D01*
X237963Y-85207D02*
X254157Y-101402D01*
X235655Y-83381D02*
X238665D01*
X234952Y-85207D02*
X237963D01*
X183681Y-27382D02*
X212205Y-55905D01*
X183681Y-27382D02*
Y-18012D01*
X162023Y-110806D02*
X168048Y-116831D01*
X127522Y-114657D02*
X160819D01*
X167445Y-121283D02*
X173596D01*
X126781Y-112870D02*
X161559D01*
X126266Y-113386D02*
X126781Y-112870D01*
X95276Y-113386D02*
X126266D01*
X168048Y-116831D02*
X171752D01*
X168185Y-119496D02*
X172856D01*
X100570Y-110806D02*
X162023D01*
X160819Y-114657D02*
X167445Y-121283D01*
X161559Y-112870D02*
X168185Y-119496D01*
X165908Y-109018D02*
X168996Y-112106D01*
X132510Y-109018D02*
X165908D01*
X176788Y-117026D02*
X177124Y-116690D01*
X176788Y-118092D02*
Y-117026D01*
X174459Y-112141D02*
X174493Y-112106D01*
X172856Y-119496D02*
X174459Y-117893D01*
Y-112141D01*
X173596Y-121283D02*
X176788Y-118092D01*
X153164Y-59069D02*
X214476Y-120382D01*
Y-156602D02*
Y-120382D01*
X147047Y-59069D02*
X153164D01*
X214476Y-156602D02*
X216929Y-159055D01*
X234068Y-58415D02*
Y-27158D01*
X224921Y-18012D02*
X234068Y-27158D01*
X226957Y-55532D02*
Y-30140D01*
X214921Y-18104D02*
X226957Y-30140D01*
X214921Y-18104D02*
Y-18012D01*
X244714Y-66929D02*
X257480D01*
X244533Y-66748D02*
X244714Y-66929D01*
X238173Y-66748D02*
X244533D01*
X226957Y-55532D02*
X238173Y-66748D01*
X252165Y-74114D02*
X255020D01*
X260146Y-68988D01*
Y-65825D01*
X258584Y-64264D02*
X260146Y-65825D01*
X249713Y-64264D02*
X258584D01*
X249250Y-64726D02*
X249713Y-64264D01*
X240378Y-64726D02*
X249250D01*
X234068Y-58415D02*
X240378Y-64726D01*
X91929Y-100591D02*
X102264Y-90256D01*
X137697D01*
X148031Y-79921D01*
X101575Y-71653D02*
X153150D01*
X117717Y-66142D02*
X153150D01*
X116142Y-68898D02*
X148031D01*
X91929Y-62008D02*
X101575Y-71653D01*
X152818Y-77497D02*
X153150Y-77165D01*
X152818Y-78904D02*
Y-77497D01*
X139187Y-92535D02*
X152818Y-78904D01*
X95279Y-107878D02*
X131370D01*
X90158Y-42913D02*
X116142Y-68898D01*
X95276Y-43701D02*
X117717Y-66142D01*
X124713Y-74106D02*
X147728D01*
X117520Y-81299D02*
X124713Y-74106D01*
X91929Y-81299D02*
X117520D01*
X275590Y-69685D02*
X275926Y-70021D01*
Y-71596D02*
X285039Y-80709D01*
X214961Y-62687D02*
X235655Y-83381D01*
X217068Y-67323D02*
X234952Y-85207D01*
X229896Y-86147D02*
X232619Y-88870D01*
X218110Y-58887D02*
Y-41732D01*
X214793Y-29921D02*
X224672Y-39800D01*
Y-55774D02*
Y-39800D01*
Y-55774D02*
X245677Y-76780D01*
X218110Y-58887D02*
X231703Y-72480D01*
X267467Y-64317D02*
X270201D01*
X271329Y-65445D01*
X267323Y-64173D02*
X267467Y-64317D01*
X258277Y-76780D02*
X266662Y-68395D01*
X245677Y-76780D02*
X258277D01*
X271329Y-65445D02*
X307095D01*
X275926Y-71596D02*
Y-70021D01*
X287365Y-84908D02*
X296444D01*
X286537Y-85736D02*
X287365Y-84908D01*
X214961Y-62687D02*
Y-33858D01*
X199213Y-29921D02*
X214793D01*
X182677Y-67323D02*
X217068D01*
X166535Y-51181D02*
X182677Y-67323D01*
X164567Y-60236D02*
X165453D01*
X167697Y-62481D01*
X166558Y-65741D02*
X167697Y-64602D01*
X166558Y-65741D02*
Y-65741D01*
X168679Y-67862D02*
X169818Y-66723D01*
X171940D02*
X172293Y-67077D01*
X157648Y-60236D02*
X164567D01*
X172293Y-67077D02*
X253839Y-148622D01*
X154520Y-57108D02*
X157648Y-60236D01*
X165124Y-56004D02*
X234923Y-125803D01*
X228238Y-111535D02*
X237144Y-120441D01*
X236404Y-122228D02*
X243654D01*
X235663Y-124016D02*
X242913D01*
X266535Y-147638D01*
X244394Y-120441D02*
X259278Y-135325D01*
X224663Y-113016D02*
X235663Y-124016D01*
X237144Y-120441D02*
X244394D01*
X243654Y-122228D02*
X263000Y-141575D01*
X226451Y-112276D02*
X236404Y-122228D01*
X215130Y-89124D02*
X226451Y-100445D01*
X215870Y-87337D02*
X228238Y-99705D01*
X214075Y-91839D02*
X224663Y-102427D01*
Y-113016D02*
Y-102427D01*
X228238Y-111535D02*
Y-99705D01*
X226451Y-112276D02*
Y-100445D01*
X283063Y-99614D02*
X285039Y-97638D01*
X240235Y-106390D02*
X246626D01*
X249956Y-109721D01*
X256692D01*
X100591Y-116339D02*
X125841D01*
X100394Y-116142D02*
X100591Y-116339D01*
X125841D02*
X127522Y-114657D01*
X112192Y-92535D02*
X139187D01*
X100001Y-104725D02*
X112192Y-92535D01*
X131370Y-107878D02*
X132510Y-109018D01*
X100394Y-110630D02*
X100570Y-110806D01*
X291614Y-131232D02*
X305523Y-145141D01*
X256692Y-109721D02*
X270594Y-123622D01*
X267195Y-126476D02*
X292126D01*
X295303Y-129444D02*
X311101Y-145243D01*
X259140Y-129444D02*
X295303D01*
X258399Y-131232D02*
X291614D01*
X244262Y-114567D02*
X259140Y-129444D01*
X237795Y-117323D02*
X244490D01*
X235547Y-125803D02*
X258268Y-148524D01*
X157185Y-56004D02*
X165124D01*
X263000Y-141575D02*
X266563D01*
X259278Y-135325D02*
X266812D01*
X214075Y-86319D02*
X214550D01*
X215568Y-87337D01*
X215870D01*
X210531Y-89124D02*
X215130D01*
X234923Y-125803D02*
X235547D01*
X241339Y-114567D02*
X244262D01*
X244490Y-117323D02*
X258399Y-131232D01*
X154520Y-57108D02*
Y-54770D01*
X157352Y-51938D01*
X270594Y-123622D02*
X284449D01*
X252226Y-111508D02*
X267195Y-126476D01*
X243791Y-111508D02*
X252226D01*
X241339Y-109055D02*
X243791Y-111508D01*
X286787Y-101402D02*
X290551Y-97638D01*
X304587Y-104764D02*
X307283Y-102067D01*
X307095Y-65445D02*
X309842Y-62697D01*
X237898Y-108727D02*
X240235Y-106390D01*
X237898Y-111737D02*
Y-108727D01*
X34431Y-158939D02*
X39059Y-163567D01*
X26065Y-158939D02*
X34431D01*
X39059Y-163567D02*
X75232D01*
X26280Y-145374D02*
X93280D01*
X94498Y-144157D02*
X94744D01*
X19685Y-138779D02*
X26280Y-145374D01*
X93280D02*
X94498Y-144157D01*
X50492Y-174114D02*
X57284Y-180905D01*
X25689Y-174114D02*
X50492D01*
X19685Y-180118D02*
X25689Y-174114D01*
X57284Y-180905D02*
X82677D01*
X84905Y-183133D01*
X94744D01*
X24909Y-171563D02*
X57665D01*
X19685Y-166339D02*
X24909Y-171563D01*
X57665D02*
X63874Y-165354D01*
X75098D01*
X79885Y-170141D02*
X94744D01*
X75098Y-165354D02*
X79885Y-170141D01*
X75232Y-163567D02*
X81650Y-157149D01*
X94744D01*
X19685Y-152559D02*
X26065Y-158939D01*
X25850Y-131165D02*
X94744D01*
X19685Y-125000D02*
X25850Y-131165D01*
X147728Y-74106D02*
X148031Y-74410D01*
D122*
X194749Y-130676D02*
G03*
X193469Y-131956I0J-1280D01*
G01*
X194749Y-130676D02*
G03*
X195889Y-129537I0J1140D01*
G01*
Y-129537D02*
G03*
X194749Y-128397I-1140J0D01*
G01*
X192329Y-127257D02*
G03*
X193469Y-128397I1140J0D01*
G01*
Y-126118D02*
G03*
X192329Y-127257I0J-1140D01*
G01*
X196277Y-126118D02*
G03*
X197417Y-124978I0J1140D01*
G01*
Y-124978D02*
G03*
X196277Y-123838I-1140J0D01*
G01*
X193469Y-122558D02*
G03*
X194749Y-123838I1280J0D01*
G01*
X183595Y-124592D02*
G03*
X184874Y-125872I1280J0D01*
G01*
X187387Y-127012D02*
G03*
X186247Y-125872I-1140J0D01*
G01*
Y-128152D02*
G03*
X187387Y-127012I0J1140D01*
G01*
X183915Y-128152D02*
G03*
X182776Y-129291I0J-1140D01*
G01*
Y-129291D02*
G03*
X183915Y-130431I1140J0D01*
G01*
X188718Y-131571D02*
G03*
X187578Y-130431I-1140J0D01*
G01*
Y-132711D02*
G03*
X188718Y-131571I0J1140D01*
G01*
X184874Y-132711D02*
G03*
X183595Y-133990I0J-1280D01*
G01*
X186734Y-191978D02*
G03*
X188543Y-191978I905J905D01*
G01*
X192348Y-189784D02*
G03*
X190736Y-189784I-806J-806D01*
G01*
X192348Y-191396D02*
G03*
X192348Y-189784I-806J806D01*
G01*
X190056Y-193688D02*
G03*
X190056Y-195300I806J-806D01*
G01*
X190056Y-195300D02*
G03*
X191668Y-195300I806J806D01*
G01*
X195572Y-193008D02*
G03*
X193960Y-193008I-806J-806D01*
G01*
X195572Y-194620D02*
G03*
X195572Y-193008I-806J806D01*
G01*
X193280Y-196912D02*
G03*
X193280Y-198524I806J-806D01*
G01*
X193280Y-198524D02*
G03*
X194892Y-198524I806J806D01*
G01*
X198796Y-196232D02*
G03*
X197184Y-196232I-806J-806D01*
G01*
X198796Y-197844D02*
G03*
X198796Y-196232I-806J806D01*
G01*
X196504Y-200136D02*
G03*
X196504Y-201748I806J-806D01*
G01*
X196504Y-201748D02*
G03*
X198116Y-201748I806J806D01*
G01*
X202020Y-199456D02*
G03*
X200408Y-199456I-806J-806D01*
G01*
X202020Y-201067D02*
G03*
X202020Y-199456I-806J806D01*
G01*
X199826Y-203261D02*
G03*
X199826Y-205070I905J-905D01*
G01*
X145202Y-137260D02*
G03*
X143563Y-138900I0J-1640D01*
G01*
X147752Y-137260D02*
G03*
X149392Y-135621I0J1640D01*
G01*
Y-135621D02*
G03*
X147752Y-133981I-1640J0D01*
G01*
X143563Y-132341D02*
G03*
X145202Y-133981I1640J0D01*
G01*
X192654Y-134118D02*
X193469Y-133302D01*
Y-131956D01*
X194749Y-130676D02*
X194749D01*
X195889Y-129537D02*
Y-129537D01*
X193469Y-128397D02*
X194749D01*
X192329Y-127257D02*
Y-127257D01*
X193469Y-126118D02*
X196277D01*
X197417Y-124978D02*
Y-124978D01*
X194749Y-123838D02*
X196277D01*
X193469Y-122558D02*
Y-121919D01*
X187008Y-139764D02*
X192654Y-134118D01*
X183595Y-124592D02*
Y-119560D01*
X184874Y-125872D02*
X186247D01*
X187387Y-127012D02*
Y-127012D01*
X183915Y-128152D02*
X186247D01*
X182776Y-129291D02*
Y-129291D01*
X183915Y-130431D02*
X187578D01*
X188718Y-131571D02*
Y-131571D01*
X184874Y-132711D02*
X187578D01*
X183595Y-136909D02*
Y-133990D01*
Y-119560D02*
Y-114317D01*
Y-139289D02*
Y-136909D01*
X170226Y-100949D02*
X183595Y-114317D01*
X193469Y-121919D02*
Y-120832D01*
X180709Y-154331D02*
Y-114355D01*
X155610Y-104035D02*
X170389D01*
X156291Y-100949D02*
X170226D01*
X170389Y-104035D02*
X180709Y-114355D01*
X157480Y-96457D02*
X169095D01*
X193469Y-120832D01*
X162598Y-93652D02*
X171407D01*
X200195Y-148722D02*
Y-122439D01*
X171407Y-93652D02*
X200195Y-122439D01*
X203543Y-152235D02*
Y-120079D01*
X171653Y-88189D02*
X203543Y-120079D01*
X162598Y-88189D02*
X171653D01*
X162008Y-72342D02*
X206791Y-117126D01*
Y-158442D02*
Y-117126D01*
X151476Y-91388D02*
X157480Y-85384D01*
X151476Y-99902D02*
Y-91388D01*
Y-99902D02*
X155610Y-104035D01*
X157333Y-96604D02*
X157480Y-96457D01*
X154232Y-94023D02*
X157261Y-90994D01*
X157431D01*
X187008Y-143701D02*
Y-139764D01*
X183514Y-139370D02*
X183595Y-139289D01*
X154232Y-98891D02*
X156291Y-100949D01*
X154232Y-98891D02*
Y-94023D01*
X197280Y-156141D02*
Y-151637D01*
X200195Y-148722D01*
X201158Y-154620D02*
X203543Y-152235D01*
X201158Y-160019D02*
Y-160019D01*
X197280Y-156141D02*
X201158Y-160019D01*
X201158Y-155019D02*
Y-154620D01*
Y-164075D02*
X206791Y-158442D01*
X141339Y-152429D02*
X206081Y-217171D01*
X141339Y-152429D02*
Y-134646D01*
X206081Y-217171D02*
X220585D01*
X205916Y-214083D02*
X207788D01*
X143563Y-151730D02*
Y-141419D01*
Y-151730D02*
X205916Y-214083D01*
X156201Y-161445D02*
X183601Y-188845D01*
X186734Y-191978D01*
X188543D02*
X190736Y-189784D01*
X192348D02*
X192348Y-189784D01*
X192348Y-191396D02*
X192348D01*
X190056Y-193688D02*
X192348Y-191396D01*
X190056Y-195300D02*
X190056Y-195300D01*
X190056Y-195300D01*
X190056Y-195300D02*
X190056Y-195300D01*
X191668D02*
X191668D01*
X193960Y-193008D01*
X195572D02*
X195572Y-193008D01*
X195572Y-194620D02*
X195572D01*
X193280Y-196912D02*
X195572Y-194620D01*
X193280Y-198524D02*
X193280Y-198524D01*
X193280Y-198524D01*
X193280Y-198524D02*
X193280Y-198524D01*
X194892D02*
X194892D01*
X197184Y-196232D01*
X198796D02*
X198796Y-196232D01*
X198796Y-197844D02*
X198796D01*
X196504Y-200136D02*
X198796Y-197844D01*
X196504Y-201748D02*
X196504Y-201748D01*
X196504Y-201748D01*
X196504Y-201748D02*
X196504Y-201748D01*
X198116D02*
X198116D01*
X200408Y-199456D01*
X202020D02*
X202020Y-199456D01*
X202020Y-201067D02*
X202020D01*
X199826Y-203261D02*
X202020Y-201067D01*
X199826Y-205070D02*
X201890Y-207135D01*
X203584Y-208828D02*
X208179D01*
X201890Y-207135D02*
X203584Y-208828D01*
X156201Y-161445D02*
Y-145352D01*
X143563Y-141419D02*
Y-138900D01*
X145202Y-137260D02*
X147752D01*
X149392Y-135621D02*
Y-135621D01*
X145202Y-133981D02*
X147752D01*
X143563Y-132341D02*
Y-132145D01*
X143119Y-131701D02*
X143563Y-132145D01*
X139764Y-128347D02*
X143119Y-131701D01*
X220585Y-217171D02*
X221872Y-215884D01*
X222073D01*
X207788Y-214083D02*
X208071Y-214366D01*
X156125Y-145276D02*
X156201Y-145352D01*
X135039Y-128347D02*
X141339Y-134646D01*
D123*
X333303Y-44594D02*
G03*
X332203Y-45694I0J-1100D01*
G01*
X335440Y-44594D02*
G03*
X336490Y-43544I0J1050D01*
G01*
Y-43544D02*
G03*
X335440Y-42494I-1050J0D01*
G01*
X332203Y-41394D02*
G03*
X333303Y-42494I1100J0D01*
G01*
X274518Y-59423D02*
G03*
X276068Y-57873I0J1550D01*
G01*
X277618Y-55231D02*
G03*
X276068Y-56782I0J-1550D01*
G01*
X279169D02*
G03*
X277618Y-55231I-1550J0D01*
G01*
X279169Y-57873D02*
G03*
X280719Y-59423I1550J0D01*
G01*
X280719D02*
G03*
X282269Y-57873I0J1550D01*
G01*
X283819Y-55231D02*
G03*
X282269Y-56782I0J-1550D01*
G01*
X285369D02*
G03*
X283819Y-55231I-1550J0D01*
G01*
X285369Y-57873D02*
G03*
X286919Y-59423I1550J0D01*
G01*
X254732Y-53937D02*
G03*
X253182Y-55487I0J-1550D01*
G01*
X251632Y-57312D02*
G03*
X253182Y-55762I0J1550D01*
G01*
X250082D02*
G03*
X251632Y-57312I1550J0D01*
G01*
X250082Y-55487D02*
G03*
X248532Y-53937I-1550J0D01*
G01*
X329053Y-15743D02*
X330995Y-13800D01*
X344110Y-11913D02*
X348089Y-15892D01*
X330995Y-13800D02*
X343328D01*
X346202Y-16674D01*
X330213Y-11913D02*
X344110D01*
X327165Y-14961D02*
X330213Y-11913D01*
X239764Y-55961D02*
X241788Y-53937D01*
X244882D01*
X237876Y-55179D02*
X241006Y-52049D01*
X256698D01*
X327165Y-31102D02*
X330315Y-34252D01*
X327165Y-31102D02*
Y-14961D01*
X329053Y-30321D02*
Y-15743D01*
Y-30321D02*
X332203Y-33470D01*
X256698Y-52049D02*
X258667Y-50081D01*
X295901D01*
X259449Y-51968D02*
X296683D01*
X257480Y-53937D02*
X259449Y-51968D01*
X296683D02*
X300843Y-47809D01*
X295901Y-50081D02*
X298955Y-47027D01*
X239764Y-57048D02*
X241236Y-58521D01*
X241335D01*
X332203Y-48344D02*
Y-45694D01*
X333303Y-44594D02*
X335440D01*
X336490Y-43544D02*
Y-43544D01*
X333303Y-42494D02*
X335440D01*
X332203Y-41394D02*
Y-34876D01*
X348089Y-20176D02*
X348917Y-21004D01*
X348089Y-20176D02*
Y-15892D01*
X345374Y-21004D02*
X346202Y-20176D01*
Y-16674D01*
X327165Y-51181D02*
X327349D01*
X330315Y-48215D02*
Y-34252D01*
X327349Y-51181D02*
X330315Y-48215D01*
X332203Y-48344D02*
X335039Y-51181D01*
X332203Y-34876D02*
Y-33470D01*
X266929Y-59423D02*
X274518D01*
X276068Y-57873D02*
Y-56782D01*
X277618Y-55231D02*
X277618D01*
X279169Y-57873D02*
Y-56782D01*
X280719Y-59423D02*
X280719D01*
X282269Y-57873D02*
Y-56782D01*
X283819Y-55231D02*
X283819D01*
X285369Y-57873D02*
Y-56782D01*
X286919Y-59423D02*
X290569D01*
X266010D02*
X266929D01*
X290569D02*
X295142D01*
X264538Y-57951D02*
X266010Y-59423D01*
X254732Y-53937D02*
X257480D01*
X253182Y-55762D02*
Y-55487D01*
X251632Y-57312D02*
X251632D01*
X250082Y-55762D02*
Y-55487D01*
X244882Y-53937D02*
X248532D01*
X239764Y-57048D02*
Y-55961D01*
X240210Y-61236D02*
X241035Y-62061D01*
X241482D01*
X237876Y-58904D02*
Y-55179D01*
X240208Y-61236D02*
X240210D01*
X237876Y-58904D02*
X240208Y-61236D01*
X264538Y-57951D02*
Y-57874D01*
X260995Y-58171D02*
Y-57874D01*
Y-58171D02*
X264134Y-61311D01*
X295924D01*
X300843Y-47809D02*
Y-45319D01*
X298955Y-47027D02*
Y-45466D01*
X295142Y-59423D02*
X306288Y-48278D01*
X295924Y-61311D02*
X308175Y-49060D01*
Y-45816D02*
X309449Y-44543D01*
X306222Y-45502D02*
X306288Y-45567D01*
X305906Y-44094D02*
X306222Y-44411D01*
X306288Y-48278D02*
Y-45567D01*
X306222Y-45502D02*
Y-44411D01*
X308175Y-49060D02*
Y-45816D01*
X300843Y-45319D02*
X301678Y-44483D01*
X298031Y-44543D02*
Y-44094D01*
Y-44543D02*
X298955Y-45466D01*
X301678Y-44483D02*
Y-44035D01*
X309449Y-44543D02*
Y-44094D01*
D131*
X173008Y-175330D02*
G03*
X174816Y-175330I904J904D01*
G01*
X179573Y-172184D02*
G03*
X177962Y-172184I-805J-805D01*
G01*
X179573Y-173795D02*
G03*
X179573Y-172184I-805J805D01*
G01*
X176329Y-177040D02*
G03*
X176329Y-178650I805J-805D01*
G01*
D02*
G03*
X177939Y-178650I805J805D01*
G01*
X182795Y-175406D02*
G03*
X181184Y-175406I-805J-805D01*
G01*
X182795Y-177017D02*
G03*
X182795Y-175406I-805J805D01*
G01*
X179551Y-180261D02*
G03*
X179551Y-181872I805J-805D01*
G01*
D02*
G03*
X181161Y-181872I805J805D01*
G01*
X186017Y-178628D02*
G03*
X184406Y-178628I-805J-805D01*
G01*
X186017Y-180239D02*
G03*
X186017Y-178628I-805J805D01*
G01*
X182772Y-183483D02*
G03*
X182773Y-185094I805J-805D01*
G01*
D02*
G03*
X184383Y-185094I805J805D01*
G01*
X189239Y-181850D02*
G03*
X187628Y-181850I-805J-805D01*
G01*
X189239Y-183460D02*
G03*
X189239Y-181850I-805J805D01*
G01*
X187498Y-185202D02*
G03*
X188401Y-187384I904J-904D01*
G01*
X178963Y-164163D02*
G03*
X178963Y-165971I904J-904D01*
G01*
X179991Y-163136D02*
G03*
X179991Y-161525I-805J805D01*
G01*
Y-161525D02*
G03*
X178380Y-161525I-805J-805D01*
G01*
X169447Y-168847D02*
G03*
X171057Y-168847I805J805D01*
G01*
X169447Y-167236D02*
G03*
X169447Y-168847I805J-805D01*
G01*
X176769Y-159914D02*
G03*
X176769Y-158303I-805J805D01*
G01*
Y-158303D02*
G03*
X175158Y-158303I-805J-805D01*
G01*
X166225Y-165625D02*
G03*
X167835Y-165625I805J805D01*
G01*
X166225Y-164014D02*
G03*
X166225Y-165625I805J-805D01*
G01*
X171637Y-158602D02*
G03*
X171637Y-156991I-805J805D01*
G01*
Y-156991D02*
G03*
X170026Y-156991I-805J-805D01*
G01*
X165863Y-159543D02*
G03*
X167474Y-159543I805J805D01*
G01*
X165863Y-157932D02*
G03*
X165863Y-159543I805J-805D01*
G01*
X167490Y-156305D02*
G03*
X167490Y-154498I-904J904D01*
G01*
X230064Y-173689D02*
G03*
X231703Y-175328I1639J0D01*
G01*
X237225Y-176967D02*
G03*
X235586Y-175328I-1639J0D01*
G01*
Y-178607D02*
G03*
X237225Y-176968I0J1639D01*
G01*
X228722Y-178607D02*
G03*
X227083Y-180246I0J-1639D01*
G01*
Y-180246D02*
G03*
X228722Y-181885I1639J0D01*
G01*
X237225Y-183524D02*
G03*
X235586Y-181885I-1639J0D01*
G01*
Y-185163D02*
G03*
X237225Y-183524I0J1639D01*
G01*
X228722Y-185163D02*
G03*
X227083Y-186802I0J-1639D01*
G01*
Y-186802D02*
G03*
X228722Y-188441I1639J0D01*
G01*
X237225Y-190080D02*
G03*
X235586Y-188441I-1639J0D01*
G01*
Y-191720D02*
G03*
X237225Y-190080I0J1639D01*
G01*
X231703Y-191720D02*
G03*
X230064Y-193359I0J-1639D01*
G01*
X239612Y-163190D02*
G03*
X239612Y-160872I-1159J1159D01*
G01*
X238354Y-164449D02*
G03*
X238354Y-166767I1159J-1159D01*
G01*
X238354Y-166767D02*
G03*
X240672Y-166767I1159J1159D01*
G01*
X247571Y-162186D02*
G03*
X245253Y-162186I-1159J-1159D01*
G01*
X247571Y-164505D02*
G03*
X247571Y-162186I-1159J1159D01*
G01*
X242990Y-169085D02*
G03*
X242990Y-171403I1159J-1159D01*
G01*
X242990Y-171403D02*
G03*
X245308Y-171403I1159J1159D01*
G01*
X252207Y-166823D02*
G03*
X249889Y-166823I-1159J-1159D01*
G01*
X252207Y-169141D02*
G03*
X252207Y-166823I-1159J1159D01*
G01*
X247626Y-173721D02*
G03*
X247626Y-176039I1159J-1159D01*
G01*
X247627Y-176039D02*
G03*
X249945Y-176039I1159J1159D01*
G01*
X253521Y-174781D02*
G03*
X251203Y-174781I-1159J-1159D01*
G01*
X222874Y-141839D02*
G03*
X224514Y-140200I0J1639D01*
G01*
X221935Y-141839D02*
G03*
X220296Y-143478I0J-1639D01*
G01*
Y-143478D02*
G03*
X221935Y-145118I1639J0D01*
G01*
X225739Y-146757D02*
G03*
X224100Y-145118I-1639J0D01*
G01*
Y-148396D02*
G03*
X225739Y-146757I0J1639D01*
G01*
X221935Y-148396D02*
G03*
X220296Y-150035I0J-1639D01*
G01*
Y-150035D02*
G03*
X221935Y-151674I1639J0D01*
G01*
X225739Y-153313D02*
G03*
X224100Y-151674I-1639J0D01*
G01*
Y-154952D02*
G03*
X225739Y-153313I0J1639D01*
G01*
X221935Y-154952D02*
G03*
X220296Y-156591I0J-1639D01*
G01*
Y-156591D02*
G03*
X221935Y-158231I1639J0D01*
G01*
X225739Y-159870D02*
G03*
X224100Y-158231I-1639J0D01*
G01*
Y-161509D02*
G03*
X225739Y-159870I0J1639D01*
G01*
X221935Y-161509D02*
G03*
X220296Y-163148I0J-1639D01*
G01*
Y-163148D02*
G03*
X221935Y-164787I1639J0D01*
G01*
X225739Y-166426D02*
G03*
X224100Y-164787I-1639J0D01*
G01*
Y-168066D02*
G03*
X225739Y-166426I0J1639D01*
G01*
X221935Y-168066D02*
G03*
X220296Y-169705I0J-1639D01*
G01*
Y-169705D02*
G03*
X221935Y-171344I1639J0D01*
G01*
X224514Y-172983D02*
G03*
X222874Y-171344I-1639J0D01*
G01*
X156348Y-118455D02*
X164707Y-126813D01*
X155217Y-117323D02*
X156348Y-118455D01*
X181602Y-168610D02*
X204967Y-191975D01*
X208107D01*
X208263Y-192131D01*
X182390Y-162292D02*
X217717Y-197618D01*
Y-202027D02*
X227698Y-212008D01*
X217717Y-202027D02*
Y-197618D01*
X166535Y-144882D02*
Y-128642D01*
Y-144882D02*
X182390Y-160736D01*
Y-162292D02*
Y-160736D01*
X171477Y-173799D02*
X173008Y-175330D01*
X174816D02*
X177962Y-172184D01*
X177962D02*
X177962D01*
X176329Y-177040D02*
X179573Y-173795D01*
X176329Y-177040D02*
X176329D01*
X177939Y-178650D02*
X181184Y-175406D01*
X181184D02*
X181184D01*
X179551Y-180261D02*
X182795Y-177017D01*
X179551Y-180261D02*
X179551D01*
X181161Y-181872D02*
X184406Y-178628D01*
X184406D02*
X184406D01*
X182773Y-183483D02*
X186017Y-180239D01*
X182772Y-183483D02*
X182773D01*
X184383Y-185094D02*
X187628Y-181850D01*
X187628D02*
X187628D01*
X187498Y-185202D02*
X189239Y-183460D01*
X188401Y-187384D02*
X190247D01*
X194471D01*
X164707Y-126813D02*
X166535Y-128642D01*
X227698Y-212008D02*
X239665D01*
X204609Y-197522D02*
X207896D01*
X194471Y-187384D02*
X204609Y-197522D01*
X178963Y-165971D02*
X181602Y-168610D01*
X178963Y-164163D02*
X179991Y-163136D01*
X178380Y-161525D02*
X178380D01*
X171057Y-168847D02*
X178380Y-161525D01*
X169447Y-168847D02*
X169447Y-168847D01*
X169447Y-167236D02*
X169447D01*
X176769Y-159914D01*
X175158Y-158303D02*
X175158D01*
X167835Y-165625D02*
X175158Y-158303D01*
X166225Y-164014D02*
X166225D01*
X171637Y-158602D01*
X170026Y-156991D02*
X170026D01*
X167474Y-159543D02*
X170026Y-156991D01*
X165863Y-157932D02*
X165863D01*
X167490Y-156305D01*
X167490Y-154498D02*
X167490Y-154498D01*
X162205Y-149213D02*
X167490Y-154498D01*
X162205Y-149213D02*
Y-135582D01*
X161954Y-135331D02*
Y-134377D01*
X161671Y-134094D02*
X161954Y-134377D01*
Y-135331D02*
X162205Y-135582D01*
X158929Y-149970D02*
Y-137489D01*
X162992Y-165314D02*
X171477Y-173799D01*
X162992Y-165314D02*
Y-154033D01*
X207896Y-197522D02*
X208179Y-197805D01*
X158929Y-149970D02*
X162992Y-154033D01*
X224514Y-192890D02*
Y-173726D01*
Y-192890D02*
X242470Y-210846D01*
X231002Y-196457D02*
X245636Y-211091D01*
X230064Y-173689D02*
Y-167122D01*
X231703Y-175328D02*
X235586D01*
X237225Y-176968D02*
Y-176967D01*
X228722Y-178607D02*
X235586D01*
X227083Y-180246D02*
Y-180246D01*
X228722Y-181885D02*
X235586D01*
X237225Y-183524D02*
Y-183524D01*
X228722Y-185163D02*
X235586D01*
X227083Y-186802D02*
Y-186802D01*
X228722Y-188441D02*
X235586D01*
X237225Y-190080D02*
Y-190080D01*
X231703Y-191720D02*
X235586D01*
X230064Y-195519D02*
Y-193359D01*
Y-195519D02*
X231002Y-196457D01*
X230064Y-167122D02*
Y-134345D01*
X236811Y-158071D02*
X239612Y-160872D01*
X239612Y-160872D02*
X239612Y-160872D01*
X238354Y-164449D02*
X239612Y-163190D01*
X238354Y-164449D02*
X238354D01*
Y-166767D02*
X238354Y-166767D01*
X240672D02*
X245253Y-162186D01*
X245253D02*
X245253D01*
X247571Y-162186D02*
X247571Y-162186D01*
X247571Y-162186D01*
X247571Y-162186D02*
X247571Y-162186D01*
X242990Y-169085D02*
X247571Y-164505D01*
X242990Y-169085D02*
X242990D01*
Y-171403D02*
X242990Y-171403D01*
X245308D02*
X249889Y-166823D01*
X249889D02*
X249889D01*
X247626Y-173721D02*
X252207Y-169141D01*
X247626Y-173721D02*
X247626D01*
Y-176039D02*
X247627Y-176039D01*
X249945D02*
X251203Y-174781D01*
X253521Y-174781D02*
X253521Y-174781D01*
X253973Y-175233D01*
X235630Y-156890D02*
X236811Y-158071D01*
X253973Y-175233D02*
X255759Y-177018D01*
Y-219008D02*
Y-177018D01*
X235630Y-156890D02*
Y-134350D01*
X224514Y-140200D02*
Y-136916D01*
X221935Y-141839D02*
X222874D01*
X220296Y-143478D02*
Y-143478D01*
X221935Y-145118D02*
X224100D01*
X225739Y-146757D02*
Y-146757D01*
X221935Y-148396D02*
X224100D01*
X220296Y-150035D02*
Y-150035D01*
X221935Y-151674D02*
X224100D01*
X225739Y-153313D02*
Y-153313D01*
X221935Y-154952D02*
X224100D01*
X220296Y-156591D02*
Y-156591D01*
X221935Y-158231D02*
X224100D01*
X225739Y-159870D02*
Y-159870D01*
X221935Y-161509D02*
X224100D01*
X220296Y-163148D02*
Y-163148D01*
X221935Y-164787D02*
X224100D01*
X225739Y-166426D02*
Y-166426D01*
X221935Y-168066D02*
X224100D01*
X220296Y-169705D02*
Y-169705D01*
X221935Y-171344D02*
X222874D01*
X224514Y-173622D02*
Y-172983D01*
Y-136916D02*
Y-134335D01*
X255759Y-219008D02*
X258465Y-221714D01*
X245636Y-212851D02*
X254626Y-221841D01*
X258465Y-222047D02*
Y-221714D01*
X245636Y-212851D02*
Y-211091D01*
X254626Y-222146D02*
Y-221841D01*
X242470Y-213651D02*
X250964Y-222146D01*
X242470Y-213651D02*
Y-210846D01*
D133*
X118032Y-213386D02*
D03*
X108031D02*
D03*
X98032D02*
D03*
X234921Y-18012D02*
D03*
X224921D02*
D03*
X214921D02*
D03*
X204921D02*
D03*
X163681D02*
D03*
X173681D02*
D03*
X183681D02*
D03*
X193681D02*
D03*
D134*
X244921D02*
D03*
X153681D02*
D03*
D135*
X344980Y-79134D02*
D03*
Y-65354D02*
D03*
Y-106693D02*
D03*
X354823D02*
D03*
X344980Y-120472D02*
D03*
X354823D02*
D03*
X344980Y-134252D02*
D03*
X354823D02*
D03*
Y-92913D02*
D03*
X344980D02*
D03*
X354823Y-79134D02*
D03*
Y-65354D02*
D03*
X29528Y-42323D02*
D03*
X19685D02*
D03*
Y-111221D02*
D03*
X29528D02*
D03*
Y-97441D02*
D03*
X19685Y-97441D02*
D03*
Y-56102D02*
D03*
X29528D02*
D03*
X19685Y-69882D02*
D03*
X29528D02*
D03*
X19685Y-83661D02*
D03*
X29528D02*
D03*
Y-152559D02*
D03*
X19685D02*
D03*
X29528Y-138779D02*
D03*
X19685D02*
D03*
X29528Y-125000D02*
D03*
X19685D02*
D03*
Y-166339D02*
D03*
X29528D02*
D03*
Y-180118D02*
D03*
Y-193898D02*
D03*
X19685Y-180118D02*
D03*
Y-193898D02*
D03*
D136*
X335138Y-16909D02*
D03*
Y-28169D02*
D03*
X354035Y-16909D02*
D03*
Y-28169D02*
D03*
D137*
X356004Y-21004D02*
D03*
X354232Y-24075D02*
D03*
X352461Y-21004D02*
D03*
X350689Y-24075D02*
D03*
X348917Y-21004D02*
D03*
X347146Y-24075D02*
D03*
X345374Y-21004D02*
D03*
X343602Y-24075D02*
D03*
X341831Y-21004D02*
D03*
X340059Y-24075D02*
D03*
X338287Y-21004D02*
D03*
X336516Y-24075D02*
D03*
X334744Y-21004D02*
D03*
X332972Y-24075D02*
D03*
D138*
X318642Y-205887D02*
D03*
X308642Y-200887D02*
D03*
X318642Y-195887D02*
D03*
X308642Y-190887D02*
D03*
X318642Y-185887D02*
D03*
X308642Y-180887D02*
D03*
X318642Y-175887D02*
D03*
X308642Y-170887D02*
D03*
D139*
X353642Y-161911D02*
D03*
X361634D02*
D03*
X353642Y-214863D02*
D03*
X361634D02*
D03*
D140*
X331634Y-157383D02*
D03*
Y-219391D02*
D03*
D141*
X148425Y-200591D02*
D03*
X63932Y-230512D02*
D03*
X178632Y-27953D02*
D03*
X336221Y-103347D02*
D03*
X336024Y-76673D02*
D03*
X319488Y-110827D02*
D03*
X328575Y-113976D02*
D03*
X333858Y-85925D02*
D03*
X194417Y-170136D02*
D03*
X320965Y-21752D02*
D03*
X299508Y-19813D02*
D03*
X285433Y-19399D02*
D03*
Y-43809D02*
D03*
X248130Y-35728D02*
D03*
X241535Y-49016D02*
D03*
X268761Y-43957D02*
D03*
X237499Y-78929D02*
D03*
X292323Y-14665D02*
D03*
X303543Y-14370D02*
D03*
X299508Y-16043D02*
D03*
X324410Y-24016D02*
D03*
X195044Y-33292D02*
D03*
X168996Y-112106D02*
D03*
X177124Y-116690D02*
D03*
X171752Y-116831D02*
D03*
X174493Y-112106D02*
D03*
X155217Y-117323D02*
D03*
X162008Y-72342D02*
D03*
X157333Y-96604D02*
D03*
X157431Y-90994D02*
D03*
X157480Y-85384D02*
D03*
X191535Y-140354D02*
D03*
X197390Y-140551D02*
D03*
X201158Y-155019D02*
D03*
X208263Y-192131D02*
D03*
X208179Y-197805D02*
D03*
X208071Y-203248D02*
D03*
X208179Y-208828D02*
D03*
X208071Y-214366D02*
D03*
X264857Y-190084D02*
D03*
X299606Y-168110D02*
D03*
X239173Y-151279D02*
D03*
X253839Y-148622D02*
D03*
X251575Y-137500D02*
D03*
X258268Y-148524D02*
D03*
X265354Y-153642D02*
D03*
X246358Y-222146D02*
D03*
X240551Y-222047D02*
D03*
X68560Y-18050D02*
D03*
Y-75924D02*
D03*
Y-95215D02*
D03*
Y-56633D02*
D03*
Y-37341D02*
D03*
X292913Y-151575D02*
D03*
X291339Y-175984D02*
D03*
X266535D02*
D03*
X291199Y-181790D02*
D03*
X266396Y-182184D02*
D03*
X267520Y-209941D02*
D03*
X285808Y-193651D02*
D03*
X286014Y-208218D02*
D03*
Y-201869D02*
D03*
X134252Y-46850D02*
D03*
X286014Y-216485D02*
D03*
X260335Y-213090D02*
D03*
X183514Y-139370D02*
D03*
X180709Y-154331D02*
D03*
X187008Y-143701D02*
D03*
X162598Y-93652D02*
D03*
X176953Y-140551D02*
D03*
X187402Y-151575D02*
D03*
X171762Y-140551D02*
D03*
X162598Y-88189D02*
D03*
X201158Y-160019D02*
D03*
X148031Y-68898D02*
D03*
X153150Y-77165D02*
D03*
X148031Y-79921D02*
D03*
X153150Y-66142D02*
D03*
X201158Y-164075D02*
D03*
X114370Y-74410D02*
D03*
Y-55118D02*
D03*
X166535Y-199902D02*
D03*
X126969Y-33366D02*
D03*
Y-25394D02*
D03*
X93996Y-51575D02*
D03*
X95276Y-43701D02*
D03*
X90158Y-42913D02*
D03*
X150787Y-174803D02*
D03*
X158608Y-176324D02*
D03*
X159844Y-161121D02*
D03*
X124016Y-121260D02*
D03*
X129921Y-121041D02*
D03*
X210688Y-146399D02*
D03*
X285039Y-80709D02*
D03*
X291164Y-79921D02*
D03*
X231496Y-68504D02*
D03*
X231402Y-42520D02*
D03*
X267323Y-64173D02*
D03*
X266662Y-68395D02*
D03*
X296444Y-84908D02*
D03*
X241335Y-58521D02*
D03*
X212205Y-55905D02*
D03*
X272047Y-56708D02*
D03*
X218110Y-41732D02*
D03*
X214961Y-33858D02*
D03*
X257480Y-66929D02*
D03*
X236947Y-94943D02*
D03*
X266732Y-80807D02*
D03*
X224395Y-204739D02*
D03*
X170339Y-153381D02*
D03*
X158929Y-137489D02*
D03*
X187402Y-163337D02*
D03*
X203346Y-176476D02*
D03*
X193701Y-163386D02*
D03*
Y-157480D02*
D03*
Y-151575D02*
D03*
X187402Y-157480D02*
D03*
X228976Y-201388D02*
D03*
X156125Y-145276D02*
D03*
X245276Y-177854D02*
D03*
X216929Y-159055D02*
D03*
X211811Y-155020D02*
D03*
X242520Y-69413D02*
D03*
X250356Y-207068D02*
D03*
X250375Y-201594D02*
D03*
X245221Y-206710D02*
D03*
X244882Y-201575D02*
D03*
X139764Y-128347D02*
D03*
X237008Y-101181D02*
D03*
X241482Y-62061D02*
D03*
X260995Y-57874D02*
D03*
X264538D02*
D03*
X323995Y-41729D02*
D03*
X354808Y-34091D02*
D03*
X327165Y-51181D02*
D03*
X335039D02*
D03*
X331102Y-53937D02*
D03*
X318937Y-50394D02*
D03*
Y-56693D02*
D03*
X309842Y-62697D02*
D03*
X266535Y-147638D02*
D03*
X266812Y-135325D02*
D03*
X70029Y-119794D02*
D03*
X301678Y-44035D02*
D03*
X298031Y-44094D02*
D03*
X309449D02*
D03*
X305906D02*
D03*
X274606Y-80807D02*
D03*
X258858D02*
D03*
Y-96555D02*
D03*
Y-88681D02*
D03*
X266732Y-96555D02*
D03*
Y-88681D02*
D03*
X274606Y-96555D02*
D03*
Y-88681D02*
D03*
X100394Y-116142D02*
D03*
Y-110630D02*
D03*
X95276Y-113386D02*
D03*
X95279Y-107878D02*
D03*
X100001Y-104725D02*
D03*
X5512Y-5709D02*
D03*
X146368Y-140354D02*
D03*
X147047Y-59069D02*
D03*
X305523Y-145141D02*
D03*
X284449Y-123622D02*
D03*
X273622Y-120874D02*
D03*
X292126Y-126476D02*
D03*
X311101Y-145243D02*
D03*
X237795Y-117323D02*
D03*
X241339Y-114567D02*
D03*
X255512Y-122047D02*
D03*
X214075Y-91839D02*
D03*
X266613Y-141575D02*
D03*
X210531Y-89124D02*
D03*
X214075Y-86319D02*
D03*
X331378Y-140849D02*
D03*
X331477Y-146952D02*
D03*
X239665Y-212008D02*
D03*
X218799Y-131201D02*
D03*
X220571Y-187500D02*
D03*
X292618Y-109941D02*
D03*
X297342Y-201476D02*
D03*
X260164Y-193367D02*
D03*
X221949Y-220669D02*
D03*
X222073Y-215884D02*
D03*
X306496Y-34252D02*
D03*
X300984D02*
D03*
Y-28740D02*
D03*
X306496D02*
D03*
X161671Y-134094D02*
D03*
X159687Y-155217D02*
D03*
X235630Y-134350D02*
D03*
X172549Y-27953D02*
D03*
X199213Y-29921D02*
D03*
X229896Y-86147D02*
D03*
X252165Y-74114D02*
D03*
X213878Y-70693D02*
D03*
Y-74311D02*
D03*
X166535Y-51181D02*
D03*
X285039Y-97638D02*
D03*
X285433Y-68110D02*
D03*
X275590Y-69685D02*
D03*
X241339Y-109055D02*
D03*
X237898Y-111737D02*
D03*
X290551Y-97638D02*
D03*
X248425Y-114173D02*
D03*
X285433D02*
D03*
X126378Y-77165D02*
D03*
Y-81496D02*
D03*
X135039Y-128347D02*
D03*
X147328Y-105686D02*
D03*
X112205Y-103347D02*
D03*
Y-84744D02*
D03*
X308661Y-85827D02*
D03*
X324410D02*
D03*
X307283Y-102067D02*
D03*
Y-107283D02*
D03*
X307087Y-91831D02*
D03*
X157185Y-56004D02*
D03*
X258465Y-222047D02*
D03*
X254626Y-222146D02*
D03*
X250964D02*
D03*
X224514Y-134335D02*
D03*
X230064Y-134345D02*
D03*
X303839Y-112795D02*
D03*
X157352Y-51938D02*
D03*
X69685Y-173228D02*
D03*
X118307Y-159350D02*
D03*
X110724Y-157380D02*
D03*
X152058Y-140354D02*
D03*
X148031Y-74410D02*
D03*
X153150Y-71653D02*
D03*
X91929Y-81299D02*
D03*
X193504Y-50590D02*
D03*
X140551Y-33465D02*
D03*
Y-27559D02*
D03*
X110724Y-131396D02*
D03*
X91929Y-62008D02*
D03*
Y-100591D02*
D03*
X69734Y-155856D02*
D03*
X42126Y-218898D02*
D03*
X17196Y-5709D02*
D03*
X28880D02*
D03*
X40564D02*
D03*
X52248D02*
D03*
X63932D02*
D03*
X75616D02*
D03*
X87300D02*
D03*
X98984D02*
D03*
X110668D02*
D03*
X122352D02*
D03*
X134036D02*
D03*
X145720D02*
D03*
X157404D02*
D03*
X169088D02*
D03*
X180772D02*
D03*
X192456D02*
D03*
X204140D02*
D03*
X215824D02*
D03*
X227508D02*
D03*
X239192D02*
D03*
X250876D02*
D03*
X262560D02*
D03*
X274244D02*
D03*
X285928D02*
D03*
X297612D02*
D03*
X309296D02*
D03*
X320980D02*
D03*
X356032D02*
D03*
X367716D02*
D03*
Y-230512D02*
D03*
X356032D02*
D03*
X344348D02*
D03*
X332664D02*
D03*
X320980D02*
D03*
X309296D02*
D03*
X297612D02*
D03*
X285928D02*
D03*
X274244D02*
D03*
X262560D02*
D03*
X250876D02*
D03*
X239192D02*
D03*
X227508D02*
D03*
X215824D02*
D03*
X204140D02*
D03*
X192456D02*
D03*
X180772D02*
D03*
X169088D02*
D03*
X157404D02*
D03*
X145720D02*
D03*
X134036D02*
D03*
X122352D02*
D03*
X110668D02*
D03*
X98984D02*
D03*
X87300D02*
D03*
X75616D02*
D03*
X52248D02*
D03*
X40564D02*
D03*
X28880D02*
D03*
X17196D02*
D03*
X5512D02*
D03*
X344348Y-5709D02*
D03*
X332664D02*
D03*
X69685Y-190945D02*
D03*
Y-138189D02*
D03*
X94744Y-183133D02*
D03*
X110724Y-183365D02*
D03*
X94744Y-170141D02*
D03*
Y-157149D02*
D03*
X110724Y-170372D02*
D03*
X94744Y-144157D02*
D03*
Y-131165D02*
D03*
X110724Y-144388D02*
D03*
M02*
